<svg xmlns="http://www.w3.org/2000/svg" xmlns:xlink="http://www.w3.org/1999/xlink" width="675" height="432" viewBox="0 0 675 432">
  <defs>
    <filter id="Rectangle_490" x="310" y="156" width="101" height="101" filterUnits="userSpaceOnUse">
      <feOffset input="SourceAlpha"/>
      <feGaussianBlur stdDeviation="2" result="blur"/>
      <feFlood flood-color="#fff" flood-opacity="0.078"/>
      <feComposite operator="in" in2="blur"/>
      <feComposite in="SourceGraphic"/>
    </filter>
    <filter id="Rectangle_563" x="310" y="156" width="101" height="56.5" filterUnits="userSpaceOnUse">
      <feOffset input="SourceAlpha"/>
      <feGaussianBlur stdDeviation="2" result="blur-2"/>
      <feFlood flood-color="#fff" flood-opacity="0.078"/>
      <feComposite operator="in" in2="blur-2"/>
      <feComposite in="SourceGraphic"/>
    </filter>
    <filter id="Path_1457" x="417" y="49" width="101" height="56.5" filterUnits="userSpaceOnUse">
      <feOffset input="SourceAlpha"/>
      <feGaussianBlur stdDeviation="2" result="blur-3"/>
      <feFlood flood-color="#fff" flood-opacity="0.078"/>
      <feComposite operator="in" in2="blur-3"/>
      <feComposite in="SourceGraphic"/>
    </filter>
    <filter id="Rectangle_495" x="417" y="49" width="101" height="101" filterUnits="userSpaceOnUse">
      <feOffset input="SourceAlpha"/>
      <feGaussianBlur stdDeviation="2" result="blur-4"/>
      <feFlood flood-color="#fff" flood-opacity="0.078"/>
      <feComposite operator="in" in2="blur-4"/>
      <feComposite in="SourceGraphic"/>
    </filter>
    <filter id="Path_1452" x="50" y="308" width="101" height="56.5" filterUnits="userSpaceOnUse">
      <feOffset input="SourceAlpha"/>
      <feGaussianBlur stdDeviation="2" result="blur-5"/>
      <feFlood flood-color="#fff" flood-opacity="0.078"/>
      <feComposite operator="in" in2="blur-5"/>
      <feComposite in="SourceGraphic"/>
    </filter>
    <filter id="Path_1453" x="50" y="308" width="101" height="101" filterUnits="userSpaceOnUse">
      <feOffset input="SourceAlpha"/>
      <feGaussianBlur stdDeviation="2" result="blur-6"/>
      <feFlood flood-color="#fff" flood-opacity="0.078"/>
      <feComposite operator="in" in2="blur-6"/>
      <feComposite in="SourceGraphic"/>
    </filter>
    <filter id="Path_1444" x="157" y="308" width="101" height="101" filterUnits="userSpaceOnUse">
      <feOffset input="SourceAlpha"/>
      <feGaussianBlur stdDeviation="2" result="blur-7"/>
      <feFlood flood-color="#fff" flood-opacity="0.078"/>
      <feComposite operator="in" in2="blur-7"/>
      <feComposite in="SourceGraphic"/>
    </filter>
    <filter id="Path_1440" x="311" y="308" width="101" height="56.5" filterUnits="userSpaceOnUse">
      <feOffset input="SourceAlpha"/>
      <feGaussianBlur stdDeviation="2" result="blur-8"/>
      <feFlood flood-color="#fff" flood-opacity="0.078"/>
      <feComposite operator="in" in2="blur-8"/>
      <feComposite in="SourceGraphic"/>
    </filter>
    <filter id="Path_1441" x="311" y="308" width="101" height="101" filterUnits="userSpaceOnUse">
      <feOffset input="SourceAlpha"/>
      <feGaussianBlur stdDeviation="2" result="blur-9"/>
      <feFlood flood-color="#fff" flood-opacity="0.078"/>
      <feComposite operator="in" in2="blur-9"/>
      <feComposite in="SourceGraphic"/>
    </filter>
    <filter id="Path_1434" x="525" y="308" width="101" height="101" filterUnits="userSpaceOnUse">
      <feOffset input="SourceAlpha"/>
      <feGaussianBlur stdDeviation="2" result="blur-10"/>
      <feFlood flood-color="#fff" flood-opacity="0.078"/>
      <feComposite operator="in" in2="blur-10"/>
      <feComposite in="SourceGraphic"/>
    </filter>
    <filter id="Path_1436" x="418" y="308" width="101" height="56.5" filterUnits="userSpaceOnUse">
      <feOffset input="SourceAlpha"/>
      <feGaussianBlur stdDeviation="2" result="blur-11"/>
      <feFlood flood-color="#fff" flood-opacity="0.078"/>
      <feComposite operator="in" in2="blur-11"/>
      <feComposite in="SourceGraphic"/>
    </filter>
    <filter id="Path_1437" x="418" y="308" width="101" height="101" filterUnits="userSpaceOnUse">
      <feOffset input="SourceAlpha"/>
      <feGaussianBlur stdDeviation="2" result="blur-12"/>
      <feFlood flood-color="#fff" flood-opacity="0.078"/>
      <feComposite operator="in" in2="blur-12"/>
      <feComposite in="SourceGraphic"/>
    </filter>
    <radialGradient id="radial-gradient" cx="0.5" cy="0.5" r="0.74" gradientTransform="translate(0 -0.014) scale(1 1.028)" gradientUnits="objectBoundingBox">
      <stop offset="0" stop-color="#fff" stop-opacity="0"/>
      <stop offset="1" stop-color="#2d525d" stop-opacity="0.561"/>
    </radialGradient>
    <filter id="Path_1469" x="310" y="49" width="101" height="56.5" filterUnits="userSpaceOnUse">
      <feOffset input="SourceAlpha"/>
      <feGaussianBlur stdDeviation="2" result="blur-13"/>
      <feFlood flood-color="#fff" flood-opacity="0.078"/>
      <feComposite operator="in" in2="blur-13"/>
      <feComposite in="SourceGraphic"/>
    </filter>
    <filter id="Rectangle_494" x="310" y="49" width="101" height="101" filterUnits="userSpaceOnUse">
      <feOffset input="SourceAlpha"/>
      <feGaussianBlur stdDeviation="2" result="blur-14"/>
      <feFlood flood-color="#fff" flood-opacity="0.078"/>
      <feComposite operator="in" in2="blur-14"/>
      <feComposite in="SourceGraphic"/>
    </filter>
    <filter id="Path_1459" x="524" y="49" width="101" height="56.5" filterUnits="userSpaceOnUse">
      <feOffset input="SourceAlpha"/>
      <feGaussianBlur stdDeviation="2" result="blur-15"/>
      <feFlood flood-color="#fff" flood-opacity="0.078"/>
      <feComposite operator="in" in2="blur-15"/>
      <feComposite in="SourceGraphic"/>
    </filter>
    <filter id="Rectangle_503" x="524" y="49" width="101" height="101" filterUnits="userSpaceOnUse">
      <feOffset input="SourceAlpha"/>
      <feGaussianBlur stdDeviation="2" result="blur-16"/>
      <feFlood flood-color="#fff" flood-opacity="0.078"/>
      <feComposite operator="in" in2="blur-16"/>
      <feComposite in="SourceGraphic"/>
    </filter>
    <filter id="Rectangle_489" x="157" y="156" width="101" height="101" filterUnits="userSpaceOnUse">
      <feOffset input="SourceAlpha"/>
      <feGaussianBlur stdDeviation="2" result="blur-17"/>
      <feFlood flood-color="#fff" flood-opacity="0.078"/>
      <feComposite operator="in" in2="blur-17"/>
      <feComposite in="SourceGraphic"/>
    </filter>
    <filter id="Rectangle_496" x="50" y="156" width="101" height="101" filterUnits="userSpaceOnUse">
      <feOffset input="SourceAlpha"/>
      <feGaussianBlur stdDeviation="2" result="blur-18"/>
      <feFlood flood-color="#fff" flood-opacity="0.078"/>
      <feComposite operator="in" in2="blur-18"/>
      <feComposite in="SourceGraphic"/>
    </filter>
    <linearGradient id="linear-gradient" x1="0.5" y1="1" x2="0.5" gradientUnits="objectBoundingBox">
      <stop offset="0" stop-color="#070c0e"/>
      <stop offset="1" stop-color="#23292b"/>
    </linearGradient>
    <filter id="Rectangle_489-2" x="157" y="49" width="101" height="101" filterUnits="userSpaceOnUse">
      <feOffset input="SourceAlpha"/>
      <feGaussianBlur stdDeviation="2" result="blur-19"/>
      <feFlood flood-color="#fff" flood-opacity="0.078"/>
      <feComposite operator="in" in2="blur-19"/>
      <feComposite in="SourceGraphic"/>
    </filter>
    <linearGradient id="linear-gradient-2" x1="0.5" x2="0.5" y2="1" gradientUnits="objectBoundingBox">
      <stop offset="0" stop-color="#233e47"/>
      <stop offset="1" stop-color="#070c0e"/>
    </linearGradient>
    <filter id="Rectangle_488" x="50" y="49" width="101" height="101" filterUnits="userSpaceOnUse">
      <feOffset input="SourceAlpha"/>
      <feGaussianBlur stdDeviation="2" result="blur-20"/>
      <feFlood flood-color="#fff" flood-opacity="0.078"/>
      <feComposite operator="in" in2="blur-20"/>
      <feComposite in="SourceGraphic"/>
    </filter>
  </defs>
  <g id="colors" transform="translate(-337 -5055)">
    <rect id="Rectangle_574" data-name="Rectangle 574" width="675" height="432" transform="translate(337 5055)" fill="#0d1214"/>
    <g id="colors-2" data-name="colors" transform="translate(1 1200)">
      <g transform="matrix(1, 0, 0, 1, 336, 3855)" filter="url(#Rectangle_490)">
        <g id="Rectangle_490-2" data-name="Rectangle 490" transform="translate(316 162)" fill="#353e40" stroke="rgba(255,255,255,0.2)" stroke-width="0.5" opacity="0.16">
          <rect width="89" height="89" stroke="none"/>
          <rect x="0.25" y="0.25" width="88.5" height="88.5" fill="none"/>
        </g>
      </g>
      <g transform="matrix(1, 0, 0, 1, 336, 3855)" filter="url(#Rectangle_563)">
        <rect id="Rectangle_563-2" data-name="Rectangle 563" width="89" height="44.5" transform="translate(316 162)" fill="#353e40"/>
      </g>
      <g transform="matrix(1, 0, 0, 1, 336, 3855)" filter="url(#Path_1457)">
        <g id="Path_1457-2" data-name="Path 1457" transform="translate(423 55)" fill="#ececec">
          <path d="M0,0H89V44.5H0Z" stroke="none"/>
          <path d="M 0.5 0.5 L 0.5 44 L 88.5 44 L 88.5 0.5 L 0.5 0.5 M 0 0 L 89 0 L 89 44.5 L 0 44.5 L 0 0 Z" stroke="none" fill="rgba(255,255,255,0.2)"/>
        </g>
      </g>
      <g transform="matrix(1, 0, 0, 1, 336, 3855)" filter="url(#Rectangle_495)">
        <g id="Rectangle_495-2" data-name="Rectangle 495" transform="translate(423 55)" fill="#ececec" stroke="rgba(255,255,255,0.2)" stroke-width="0.5" opacity="0.08">
          <rect width="89" height="89" stroke="none"/>
          <rect x="0.25" y="0.25" width="88.5" height="88.5" fill="none"/>
        </g>
      </g>
      <path id="Path_1458" data-name="Path 1458" d="M3.157,0,4.708-7.832H5.819L4.268,0ZM.55-1.837V-2.871H5.874v1.034ZM.847,0,2.4-7.832H3.509L1.958,0ZM.792-5.049V-6.083H6.127v1.034ZM7.447,0V-7.832h5.4V-6.5H9.13v1.848h3.487v1.342H9.13v1.98h3.718V0ZM17.71.1a4.173,4.173,0,0,1-2.079-.5,3.35,3.35,0,0,1-1.353-1.4A4.544,4.544,0,0,1,13.8-3.927a4.486,4.486,0,0,1,.473-2.112,3.358,3.358,0,0,1,1.353-1.4,4.173,4.173,0,0,1,2.079-.495,4.632,4.632,0,0,1,1.485.236,3.169,3.169,0,0,1,1.166.665L19.822-5.8a4.018,4.018,0,0,0-1.028-.578,3.057,3.057,0,0,0-1.05-.181,2.017,2.017,0,0,0-1.617.665,2.939,2.939,0,0,0-.572,1.964,2.984,2.984,0,0,0,.572,1.975,2,2,0,0,0,1.617.677,3.057,3.057,0,0,0,1.05-.182,4.018,4.018,0,0,0,1.028-.577L20.361-.8a3.169,3.169,0,0,1-1.166.666A4.632,4.632,0,0,1,17.71.1ZM21.571,0V-7.832h5.4V-6.5H23.254v1.848h3.487v1.342H23.254v1.98h3.718V0ZM31.834.1a4.173,4.173,0,0,1-2.079-.5A3.35,3.35,0,0,1,28.4-1.8a4.544,4.544,0,0,1-.473-2.129A4.486,4.486,0,0,1,28.4-6.039a3.358,3.358,0,0,1,1.353-1.4,4.173,4.173,0,0,1,2.079-.495,4.632,4.632,0,0,1,1.485.236,3.169,3.169,0,0,1,1.166.665L33.946-5.8a4.018,4.018,0,0,0-1.028-.578,3.057,3.057,0,0,0-1.051-.181,2.017,2.017,0,0,0-1.617.665,2.939,2.939,0,0,0-.572,1.964,2.984,2.984,0,0,0,.572,1.975,2,2,0,0,0,1.617.677,3.057,3.057,0,0,0,1.051-.182,4.018,4.018,0,0,0,1.028-.577L34.485-.8a3.169,3.169,0,0,1-1.166.666A4.632,4.632,0,0,1,31.834.1ZM35.695,0V-7.832h5.4V-6.5H37.378v1.848h3.487v1.342H37.378v1.98H41.1V0ZM45.958.1a4.173,4.173,0,0,1-2.079-.5,3.35,3.35,0,0,1-1.353-1.4,4.544,4.544,0,0,1-.473-2.129,4.486,4.486,0,0,1,.473-2.112,3.358,3.358,0,0,1,1.353-1.4,4.173,4.173,0,0,1,2.079-.495,4.632,4.632,0,0,1,1.485.236,3.169,3.169,0,0,1,1.166.665L48.07-5.8a4.018,4.018,0,0,0-1.028-.578,3.057,3.057,0,0,0-1.051-.181,2.017,2.017,0,0,0-1.617.665A2.939,2.939,0,0,0,43.8-3.927a2.984,2.984,0,0,0,.572,1.975,2,2,0,0,0,1.617.677,3.057,3.057,0,0,0,1.051-.182,4.018,4.018,0,0,0,1.028-.577L48.609-.8a3.169,3.169,0,0,1-1.166.666A4.632,4.632,0,0,1,45.958.1Z" transform="translate(773 3931)" fill="#0d1214"/>
      <g transform="matrix(1, 0, 0, 1, 336, 3855)" filter="url(#Path_1452)">
        <g id="Path_1452-2" data-name="Path 1452" transform="translate(56 314)" fill="#f00166">
          <path d="M0,0H89V44.5H0Z" stroke="none"/>
          <path d="M 0.5 0.5 L 0.5 44 L 88.5 44 L 88.5 0.5 L 0.5 0.5 M 0 0 L 89 0 L 89 44.5 L 0 44.5 L 0 0 Z" stroke="none" fill="rgba(255,255,255,0.2)"/>
        </g>
      </g>
      <g transform="matrix(1, 0, 0, 1, 336, 3855)" filter="url(#Path_1453)">
        <g id="Path_1453-2" data-name="Path 1453" transform="translate(56 314)" fill="#f00166" opacity="0.56">
          <path d="M0,0H89V89H0Z" stroke="none"/>
          <path d="M 0.5 0.5 L 0.5 88.5 L 88.5 88.5 L 88.5 0.5 L 0.5 0.5 M 0 0 L 89 0 L 89 89 L 0 89 L 0 0 Z" stroke="none" fill="rgba(255,255,255,0.2)"/>
        </g>
      </g>
      <path id="Path_1456" data-name="Path 1456" d="M-19.866,0l1.54-7.832h.957L-18.909,0Zm-2.783-1.9v-.891h5.456V-1.9Zm.418,1.9,1.54-7.832h.957L-21.274,0Zm-.176-5.126v-.891h5.456v.891ZM-15.675,0V-1.045l2.651-2.871a4.674,4.674,0,0,0,.682-.946,1.846,1.846,0,0,0,.22-.847,1.035,1.035,0,0,0-.308-.814,1.3,1.3,0,0,0-.891-.275,2.961,2.961,0,0,0-1.061.2,4.2,4.2,0,0,0-1.062.61l-.484-1.034a3.417,3.417,0,0,1,1.2-.66,4.633,4.633,0,0,1,1.474-.242,3.3,3.3,0,0,1,1.342.253,1.955,1.955,0,0,1,.88.732A2.058,2.058,0,0,1-10.725-5.8a2.868,2.868,0,0,1-.286,1.27A5.763,5.763,0,0,1-11.979-3.2l-2.387,2.53-.165-.473h4.1V0Zm8.283,0H-8.91l3.784-7.128.033.44h-4.2V-7.832h5.456v1.056ZM.561,0V-6.083h.33L-1.815-2.2l.011-.451H3.069V-1.54H-2.838V-2.585L.825-7.832H1.958V0ZM6.886.088a2.774,2.774,0,0,1-2.283-1A4.446,4.446,0,0,1,3.8-3.773a5.918,5.918,0,0,1,.38-2.239,3.053,3.053,0,0,1,1.1-1.419A2.97,2.97,0,0,1,6.985-7.92a4.148,4.148,0,0,1,1.369.231,3.407,3.407,0,0,1,1.161.671L9.031-5.984a4.01,4.01,0,0,0-1.039-.622A2.652,2.652,0,0,0,7.04-6.8a1.52,1.52,0,0,0-1.37.776A4.269,4.269,0,0,0,5.192-3.8V-3.2l-.154-.275a1.8,1.8,0,0,1,.4-.82,2.034,2.034,0,0,1,.732-.539,2.323,2.323,0,0,1,.951-.193A2.363,2.363,0,0,1,8.36-4.7a2.3,2.3,0,0,1,.847.891,2.686,2.686,0,0,1,.308,1.3,2.638,2.638,0,0,1-.341,1.348,2.431,2.431,0,0,1-.929.919A2.73,2.73,0,0,1,6.886.088ZM6.82-1.034a1.276,1.276,0,0,0,.974-.39,1.453,1.453,0,0,0,.369-1.039A1.453,1.453,0,0,0,7.794-3.5a1.29,1.29,0,0,0-.985-.39,1.412,1.412,0,0,0-.72.181,1.275,1.275,0,0,0-.49.506,1.532,1.532,0,0,0-.176.743,1.524,1.524,0,0,0,.176.748,1.285,1.285,0,0,0,.49.5A1.434,1.434,0,0,0,6.82-1.034ZM13.233.077a4.518,4.518,0,0,1-1.446-.242A3.305,3.305,0,0,1,10.6-.825l.473-1.034a4.451,4.451,0,0,0,1.073.605,3.062,3.062,0,0,0,1.106.209,1.586,1.586,0,0,0,1.122-.368,1.364,1.364,0,0,0,.4-1.051,1.51,1.51,0,0,0-.181-.759,1.255,1.255,0,0,0-.512-.5,1.637,1.637,0,0,0-.781-.176,2.2,2.2,0,0,0-.858.17,2.286,2.286,0,0,0-.737.5h-.847V-7.832h4.906v1.111h-3.52v2.585L11.814-4.2a2.2,2.2,0,0,1,.792-.605,2.509,2.509,0,0,1,1.045-.209,2.55,2.55,0,0,1,1.292.319,2.277,2.277,0,0,1,.869.88,2.639,2.639,0,0,1,.314,1.309,2.564,2.564,0,0,1-.358,1.359,2.379,2.379,0,0,1-1,.907A3.421,3.421,0,0,1,13.233.077Zm6.6.011A2.456,2.456,0,0,1,17.71-.935a5.066,5.066,0,0,1-.737-2.981A5.1,5.1,0,0,1,17.7-6.9,2.453,2.453,0,0,1,19.833-7.92,2.453,2.453,0,0,1,21.961-6.9a5.073,5.073,0,0,1,.732,2.97,5.089,5.089,0,0,1-.737,2.992A2.456,2.456,0,0,1,19.833.088Zm0-1.1a1.167,1.167,0,0,0,1.111-.7A5.2,5.2,0,0,0,21.3-3.927a5.049,5.049,0,0,0-.352-2.189A1.169,1.169,0,0,0,19.833-6.8a1.168,1.168,0,0,0-1.111.688,5.055,5.055,0,0,0-.352,2.184,5.2,5.2,0,0,0,.352,2.217A1.167,1.167,0,0,0,19.833-1.012Z" transform="translate(425 4190)" fill="#ececec"/>
      <g transform="matrix(1, 0, 0, 1, 336, 3855)" filter="url(#Path_1444)">
        <g id="Path_1444-2" data-name="Path 1444" transform="translate(163 314)" fill="#00c593">
          <path d="M0,0H89V89H0Z" stroke="none"/>
          <path d="M 0.5 0.5 L 0.5 88.5 L 88.5 88.5 L 88.5 0.5 L 0.5 0.5 M 0 0 L 89 0 L 89 89 L 0 89 L 0 0 Z" stroke="none" fill="rgba(255,255,255,0.2)"/>
        </g>
      </g>
      <path id="Path_1445" data-name="Path 1445" d="M-19.97,0l1.551-7.832h1.111L-18.859,0Zm-2.607-1.837V-2.871h5.324v1.034ZM-22.28,0l1.551-7.832h1.111L-21.169,0Zm-.055-5.049V-6.083H-17v1.034ZM-13.348.088A5.114,5.114,0,0,1-14.9-.149,3.436,3.436,0,0,1-16.12-.792l.55-1.232a3.926,3.926,0,0,0,1.056.572,3.3,3.3,0,0,0,1.089.187,1.758,1.758,0,0,0,1.04-.242.923.923,0,0,0,.324-.792.885.885,0,0,0-.324-.759,1.758,1.758,0,0,0-1.04-.242h-1.122V-4.631h.924A1.8,1.8,0,0,0-12.6-4.862a.825.825,0,0,0,.33-.726.914.914,0,0,0-.3-.737,1.233,1.233,0,0,0-.825-.253,3.053,3.053,0,0,0-1.04.193,3.9,3.9,0,0,0-1.028.566l-.55-1.232a3.441,3.441,0,0,1,1.215-.643,4.955,4.955,0,0,1,1.512-.236,3.48,3.48,0,0,1,1.4.258,2.079,2.079,0,0,1,.918.737,1.941,1.941,0,0,1,.325,1.116A1.908,1.908,0,0,1-11-4.653a1.842,1.842,0,0,1-1.017.671V-4.07a1.975,1.975,0,0,1,1.166.671,1.954,1.954,0,0,1,.407,1.265,1.934,1.934,0,0,1-.781,1.628A3.427,3.427,0,0,1-13.348.088Zm6.721,0A4.783,4.783,0,0,1-8.107-.149,3.216,3.216,0,0,1-9.289-.792l.55-1.232a4.233,4.233,0,0,0,1.056.567,3.187,3.187,0,0,0,1.078.193,1.488,1.488,0,0,0,1.029-.314,1.161,1.161,0,0,0,.347-.908,1.348,1.348,0,0,0-.16-.677,1.048,1.048,0,0,0-.462-.429,1.62,1.62,0,0,0-.72-.148,2.293,2.293,0,0,0-.765.137,2.171,2.171,0,0,0-.7.4h-.979V-7.832h5.027v1.32H-7.342v2.244l-.517-.088a2.314,2.314,0,0,1,.776-.533,2.564,2.564,0,0,1,1-.181A2.55,2.55,0,0,1-4.8-4.752a2.317,2.317,0,0,1,.874.88A2.626,2.626,0,0,1-3.6-2.552a2.546,2.546,0,0,1-.374,1.386,2.508,2.508,0,0,1-1.05.924A3.615,3.615,0,0,1-6.627.088Zm6.479,0A5.114,5.114,0,0,1-1.7-.149,3.436,3.436,0,0,1-2.92-.792l.55-1.232a3.926,3.926,0,0,0,1.056.572,3.3,3.3,0,0,0,1.089.187,1.758,1.758,0,0,0,1.04-.242A.923.923,0,0,0,1.139-2.3a.885.885,0,0,0-.324-.759A1.758,1.758,0,0,0-.225-3.3H-1.347V-4.631h.924A1.8,1.8,0,0,0,.6-4.862a.825.825,0,0,0,.33-.726.914.914,0,0,0-.3-.737,1.233,1.233,0,0,0-.825-.253,3.053,3.053,0,0,0-1.04.193,3.9,3.9,0,0,0-1.029.566l-.55-1.232a3.441,3.441,0,0,1,1.215-.643A4.955,4.955,0,0,1-.082-7.931a3.48,3.48,0,0,1,1.4.258,2.079,2.079,0,0,1,.918.737,1.941,1.941,0,0,1,.325,1.116A1.908,1.908,0,0,1,2.2-4.653a1.842,1.842,0,0,1-1.017.671V-4.07A1.975,1.975,0,0,1,2.349-3.4a1.954,1.954,0,0,1,.407,1.265A1.934,1.934,0,0,1,1.975-.506,3.427,3.427,0,0,1-.148.088ZM4.12,0V-7.832h5.4V-6.5H5.8v1.848H9.29v1.342H5.8v1.98H9.521V0Zm9.449,0V-5.709h.352l-2.365,3.4v-.451H16.33V-1.43H10.3V-2.706l3.586-5.126h1.375V0Zm6.259.1A2.528,2.528,0,0,1,17.655-.93a5.029,5.029,0,0,1-.753-3,4.937,4.937,0,0,1,.753-2.959,2.533,2.533,0,0,1,2.172-1.023A2.533,2.533,0,0,1,22-6.886a4.937,4.937,0,0,1,.753,2.959A5.034,5.034,0,0,1,22-.935,2.523,2.523,0,0,1,19.827.1Zm0-1.32a.987.987,0,0,0,.946-.638,5.253,5.253,0,0,0,.3-2.068,5.139,5.139,0,0,0-.3-2.035.987.987,0,0,0-.946-.638.987.987,0,0,0-.946.638,5.139,5.139,0,0,0-.3,2.035,5.253,5.253,0,0,0,.3,2.068A.987.987,0,0,0,19.827-1.221Z" transform="translate(532 4190)" fill="#0d1214"/>
      <path id="Path_1433" data-name="Path 1433" d="M-57.708-7.08h-2.784V-8.4h7.128v1.32h-2.784V0h-1.56Zm11.82,5.772V0h-6.3V-8.4h6.132v1.308h-4.572v2.184h4.056v1.284h-4.056v2.316ZM-38.652,0l-1.716-2.46a3.2,3.2,0,0,1-.324.012h-1.9V0h-1.56V-8.4h3.456a4.65,4.65,0,0,1,1.9.36,2.766,2.766,0,0,1,1.242,1.032,2.887,2.887,0,0,1,.432,1.6,2.846,2.846,0,0,1-.462,1.632A2.749,2.749,0,0,1-38.9-2.76L-36.972,0Zm-.036-5.412a1.506,1.506,0,0,0-.528-1.236,2.4,2.4,0,0,0-1.548-.432h-1.824v3.348h1.824a2.373,2.373,0,0,0,1.548-.438A1.523,1.523,0,0,0-38.688-5.412Zm4.9-1.668h-2.784V-8.4h7.128v1.32h-2.784V0h-1.56Zm5.52-1.32h1.56V0h-1.56ZM-19-1.944h-4.2L-24.024,0h-1.608l3.78-8.4h1.536L-16.524,0h-1.632Zm-.516-1.224L-21.1-6.84l-1.572,3.672ZM-9.96,0l-1.716-2.46A3.2,3.2,0,0,1-12-2.448h-1.9V0h-1.56V-8.4H-12a4.65,4.65,0,0,1,1.9.36A2.766,2.766,0,0,1-8.856-7.008a2.887,2.887,0,0,1,.432,1.6A2.846,2.846,0,0,1-8.886-3.78a2.749,2.749,0,0,1-1.326,1.02L-8.28,0ZM-10-5.412a1.506,1.506,0,0,0-.528-1.236,2.4,2.4,0,0,0-1.548-.432H-13.9v3.348h1.824a2.373,2.373,0,0,0,1.548-.438A1.523,1.523,0,0,0-10-5.412ZM-3.18-2.964V0H-4.74V-2.94L-8.04-8.4h1.668l2.46,4.092L-1.428-8.4H.108Z" transform="translate(454 4158)" fill="#f1f1f1" opacity="0.83"/>
      <g transform="matrix(1, 0, 0, 1, 336, 3855)" filter="url(#Path_1440)">
        <g id="Path_1440-2" data-name="Path 1440" transform="translate(317 314)" fill="#f00132">
          <path d="M0,0H89V44.5H0Z" stroke="none"/>
          <path d="M 0.5 0.5 L 0.5 44 L 88.5 44 L 88.5 0.5 L 0.5 0.5 M 0 0 L 89 0 L 89 44.5 L 0 44.5 L 0 0 Z" stroke="none" fill="rgba(255,255,255,0.2)"/>
        </g>
      </g>
      <g transform="matrix(1, 0, 0, 1, 336, 3855)" filter="url(#Path_1441)">
        <g id="Path_1441-2" data-name="Path 1441" transform="translate(317 314)" fill="#f00132" opacity="0.16">
          <path d="M0,0H89V89H0Z" stroke="none"/>
          <path d="M 0.5 0.5 L 0.5 88.5 L 88.5 88.5 L 88.5 0.5 L 0.5 0.5 M 0 0 L 89 0 L 89 89 L 0 89 L 0 0 Z" stroke="none" fill="rgba(255,255,255,0.2)"/>
        </g>
      </g>
      <path id="Path_1442" data-name="Path 1442" d="M3.267,0l1.54-7.832h.957L4.224,0ZM.484-1.9v-.891H5.94V-1.9ZM.9,0l1.54-7.832H3.4L1.859,0ZM.726-5.126v-.891H6.182v.891ZM7.513,0V-7.832h5.126V-6.7H8.91v2.156h3.509V-3.41H8.91V0Zm8.745.088A2.456,2.456,0,0,1,14.135-.935,5.066,5.066,0,0,1,13.4-3.916,5.1,5.1,0,0,1,14.13-6.9,2.453,2.453,0,0,1,16.258-7.92,2.453,2.453,0,0,1,18.387-6.9a5.073,5.073,0,0,1,.731,2.97,5.089,5.089,0,0,1-.737,2.992A2.456,2.456,0,0,1,16.258.088Zm0-1.1a1.167,1.167,0,0,0,1.111-.7,5.2,5.2,0,0,0,.352-2.217,5.049,5.049,0,0,0-.352-2.189A1.169,1.169,0,0,0,16.258-6.8a1.168,1.168,0,0,0-1.111.688A5.055,5.055,0,0,0,14.8-3.927a5.2,5.2,0,0,0,.352,2.217A1.167,1.167,0,0,0,16.258-1.012Zm6.6,1.1A2.456,2.456,0,0,1,20.735-.935,5.066,5.066,0,0,1,20-3.916,5.1,5.1,0,0,1,20.729-6.9,2.453,2.453,0,0,1,22.858-7.92,2.453,2.453,0,0,1,24.986-6.9a5.073,5.073,0,0,1,.732,2.97,5.089,5.089,0,0,1-.737,2.992A2.456,2.456,0,0,1,22.858.088Zm0-1.1a1.167,1.167,0,0,0,1.111-.7,5.2,5.2,0,0,0,.352-2.217,5.049,5.049,0,0,0-.352-2.189A1.169,1.169,0,0,0,22.858-6.8a1.168,1.168,0,0,0-1.111.688A5.055,5.055,0,0,0,21.4-3.927a5.2,5.2,0,0,0,.352,2.217A1.167,1.167,0,0,0,22.858-1.012ZM29.1-.649V-6.787l.715.154-2.3,1.386V-6.512l2.178-1.32h.825V-.649ZM27.39,0V-1.144h4.84V0Zm8.525.077A4.921,4.921,0,0,1,34.391-.16a3.255,3.255,0,0,1-1.2-.666l.484-1.034a3.964,3.964,0,0,0,1.062.611,3.2,3.2,0,0,0,1.128.2,1.778,1.778,0,0,0,1.122-.291,1.094,1.094,0,0,0,.363-.908,1.037,1.037,0,0,0-.374-.88,1.9,1.9,0,0,0-1.155-.286H34.782V-4.532h.847a1.881,1.881,0,0,0,1.139-.286,1.006,1.006,0,0,0,.38-.858,1.046,1.046,0,0,0-.33-.836A1.349,1.349,0,0,0,35.9-6.8a3.033,3.033,0,0,0-1.078.2,3.828,3.828,0,0,0-1.045.61L33.3-7.018a3.417,3.417,0,0,1,1.2-.66,4.666,4.666,0,0,1,1.485-.242,3.256,3.256,0,0,1,1.337.253,1.986,1.986,0,0,1,.875.721A1.944,1.944,0,0,1,38.5-5.852a1.948,1.948,0,0,1-.363,1.194,1.912,1.912,0,0,1-1.023.687l-.011-.11a2.073,2.073,0,0,1,1.182.677A1.948,1.948,0,0,1,38.7-2.123a1.934,1.934,0,0,1-.753,1.612A3.211,3.211,0,0,1,35.915.077ZM40.15,0V-1.045L42.8-3.916a4.674,4.674,0,0,0,.682-.946,1.846,1.846,0,0,0,.22-.847,1.035,1.035,0,0,0-.308-.814A1.3,1.3,0,0,0,42.5-6.8a2.961,2.961,0,0,0-1.062.2,4.2,4.2,0,0,0-1.062.61L39.9-7.018a3.417,3.417,0,0,1,1.2-.66A4.633,4.633,0,0,1,42.57-7.92a3.3,3.3,0,0,1,1.342.253,1.955,1.955,0,0,1,.88.732A2.058,2.058,0,0,1,45.1-5.8a2.868,2.868,0,0,1-.286,1.27A5.763,5.763,0,0,1,43.846-3.2L41.459-.671l-.165-.473h4.1V0Z" transform="translate(663 4190)" fill="#ececec"/>
      <g transform="matrix(1, 0, 0, 1, 336, 3855)" filter="url(#Path_1434)">
        <g id="Path_1434-2" data-name="Path 1434" transform="translate(531 314)" fill="#ffad01">
          <path d="M0,0H89V89H0Z" stroke="none"/>
          <path d="M 0.5 0.5 L 0.5 88.5 L 88.5 88.5 L 88.5 0.5 L 0.5 0.5 M 0 0 L 89 0 L 89 89 L 0 89 L 0 0 Z" stroke="none" fill="rgba(255,255,255,0.2)"/>
        </g>
      </g>
      <path id="Path_1435" data-name="Path 1435" d="M3.157,0,4.708-7.832H5.819L4.268,0ZM.55-1.837V-2.871H5.874v1.034ZM.847,0,2.4-7.832H3.509L1.958,0ZM.792-5.049V-6.083H6.127v1.034ZM9.966.1A2.528,2.528,0,0,1,7.793-.93a5.029,5.029,0,0,1-.753-3,4.937,4.937,0,0,1,.753-2.959A2.533,2.533,0,0,1,9.966-7.909a2.533,2.533,0,0,1,2.173,1.023,4.937,4.937,0,0,1,.753,2.959,5.034,5.034,0,0,1-.753,2.992A2.523,2.523,0,0,1,9.966.1Zm0-1.32a.987.987,0,0,0,.946-.638,5.253,5.253,0,0,0,.3-2.068,5.139,5.139,0,0,0-.3-2.035A.987.987,0,0,0,9.966-6.6a.987.987,0,0,0-.946.638,5.139,5.139,0,0,0-.3,2.035,5.253,5.253,0,0,0,.3,2.068A.987.987,0,0,0,9.966-1.221ZM14.047,0V-7.832h3.036a4.86,4.86,0,0,1,2.205.462A3.244,3.244,0,0,1,20.7-6.034a4.25,4.25,0,0,1,.49,2.106A4.314,4.314,0,0,1,20.7-1.81,3.243,3.243,0,0,1,19.3-.468,4.839,4.839,0,0,1,17.083,0Zm1.716-1.386h1.2a2.541,2.541,0,0,0,1.881-.633,2.608,2.608,0,0,0,.627-1.909,2.222,2.222,0,0,0-2.508-2.519h-1.2Zm8.811.594V-6.479l.814.077-2.4,1.419V-6.49l2.3-1.342h1v7.04ZM22.88,0V-1.375h5.115V0Zm6.182,0V-1.265l2.607-2.772a4.172,4.172,0,0,0,.61-.841,1.667,1.667,0,0,0,.2-.775.854.854,0,0,0-.275-.693,1.2,1.2,0,0,0-.792-.231,2.934,2.934,0,0,0-1.017.193,4.546,4.546,0,0,0-1.051.566L28.8-7.051a3.445,3.445,0,0,1,1.21-.643,4.868,4.868,0,0,1,1.5-.236,3.5,3.5,0,0,1,1.408.264,2.077,2.077,0,0,1,.93.753,2.032,2.032,0,0,1,.325,1.149,2.834,2.834,0,0,1-.28,1.265,5.5,5.5,0,0,1-.941,1.276L30.7-.869l-.22-.506h3.96V0Zm8.723-.792V-6.479L38.6-6.4,36.2-4.983V-6.49l2.3-1.342h1v7.04ZM36.091,0V-1.375h5.115V0ZM45.2,0V-5.709h.352l-2.365,3.4v-.451H47.96V-1.43H41.932V-2.706l3.586-5.126h1.375V0Z" transform="translate(877 4190)" fill="#0d1214"/>
      <g transform="matrix(1, 0, 0, 1, 336, 3855)" filter="url(#Path_1436)">
        <g id="Path_1436-2" data-name="Path 1436" transform="translate(424 314)" fill="#00c67c">
          <path d="M0,0H89V44.5H0Z" stroke="none"/>
          <path d="M 0.5 0.5 L 0.5 44 L 88.5 44 L 88.5 0.5 L 0.5 0.5 M 0 0 L 89 0 L 89 44.5 L 0 44.5 L 0 0 Z" stroke="none" fill="rgba(255,255,255,0.2)"/>
        </g>
      </g>
      <g transform="matrix(1, 0, 0, 1, 336, 3855)" filter="url(#Path_1437)">
        <g id="Path_1437-2" data-name="Path 1437" transform="translate(424 314)" fill="#00c67c" opacity="0.16">
          <path d="M0,0H89V89H0Z" stroke="none"/>
          <path d="M 0.5 0.5 L 0.5 88.5 L 88.5 88.5 L 88.5 0.5 L 0.5 0.5 M 0 0 L 89 0 L 89 89 L 0 89 L 0 0 Z" stroke="none" fill="rgba(255,255,255,0.2)"/>
        </g>
      </g>
      <path id="Path_1438" data-name="Path 1438" d="M3.157,0,4.708-7.832H5.819L4.268,0ZM.55-1.837V-2.871H5.874v1.034ZM.847,0,2.4-7.832H3.509L1.958,0ZM.792-5.049V-6.083H6.127v1.034ZM9.966.1A2.528,2.528,0,0,1,7.793-.93a5.029,5.029,0,0,1-.753-3,4.937,4.937,0,0,1,.753-2.959A2.533,2.533,0,0,1,9.966-7.909a2.533,2.533,0,0,1,2.173,1.023,4.937,4.937,0,0,1,.753,2.959,5.034,5.034,0,0,1-.753,2.992A2.523,2.523,0,0,1,9.966.1Zm0-1.32a.987.987,0,0,0,.946-.638,5.253,5.253,0,0,0,.3-2.068,5.139,5.139,0,0,0-.3-2.035A.987.987,0,0,0,9.966-6.6a.987.987,0,0,0-.946.638,5.139,5.139,0,0,0-.3,2.035,5.253,5.253,0,0,0,.3,2.068A.987.987,0,0,0,9.966-1.221ZM16.566.1A2.528,2.528,0,0,1,14.393-.93a5.029,5.029,0,0,1-.753-3,4.937,4.937,0,0,1,.753-2.959,2.533,2.533,0,0,1,2.173-1.023,2.533,2.533,0,0,1,2.173,1.023,4.937,4.937,0,0,1,.753,2.959,5.034,5.034,0,0,1-.753,2.992A2.523,2.523,0,0,1,16.566.1Zm0-1.32a.987.987,0,0,0,.946-.638,5.253,5.253,0,0,0,.3-2.068,5.139,5.139,0,0,0-.3-2.035.987.987,0,0,0-.946-.638.987.987,0,0,0-.946.638,5.139,5.139,0,0,0-.3,2.035,5.253,5.253,0,0,0,.3,2.068A.987.987,0,0,0,16.566-1.221ZM24.321.1a4.173,4.173,0,0,1-2.079-.5,3.35,3.35,0,0,1-1.353-1.4,4.544,4.544,0,0,1-.473-2.129,4.486,4.486,0,0,1,.473-2.112,3.358,3.358,0,0,1,1.353-1.4,4.173,4.173,0,0,1,2.079-.495,4.632,4.632,0,0,1,1.485.236,3.169,3.169,0,0,1,1.166.665L26.433-5.8A4.018,4.018,0,0,0,25.4-6.375a3.057,3.057,0,0,0-1.05-.181,2.017,2.017,0,0,0-1.617.665,2.939,2.939,0,0,0-.572,1.964,2.984,2.984,0,0,0,.572,1.975,2,2,0,0,0,1.617.677,3.057,3.057,0,0,0,1.05-.182,4.018,4.018,0,0,0,1.028-.577L26.972-.8a3.169,3.169,0,0,1-1.166.666A4.632,4.632,0,0,1,24.321.1Zm6.644,0A2.883,2.883,0,0,1,28.611-.913a4.431,4.431,0,0,1-.836-2.893,5.593,5.593,0,0,1,.4-2.211,3.136,3.136,0,0,1,1.139-1.419,3.108,3.108,0,0,1,1.765-.495,4.456,4.456,0,0,1,1.408.226,3.29,3.29,0,0,1,1.166.654l-.561,1.232A3.77,3.77,0,0,0,32.065-6.4a2.742,2.742,0,0,0-.913-.176,1.374,1.374,0,0,0-1.243.7,3.942,3.942,0,0,0-.429,2.04v.4l-.165-.264a1.611,1.611,0,0,1,.38-.726,1.908,1.908,0,0,1,.693-.479,2.3,2.3,0,0,1,.885-.17,2.313,2.313,0,0,1,1.227.325,2.267,2.267,0,0,1,.836.9,2.758,2.758,0,0,1,.3,1.309,2.721,2.721,0,0,1-.341,1.37,2.454,2.454,0,0,1-.946.94A2.774,2.774,0,0,1,30.965.1Zm-.1-1.342a1.1,1.1,0,0,0,.847-.341,1.267,1.267,0,0,0,.319-.9,1.3,1.3,0,0,0-.313-.913,1.1,1.1,0,0,0-.852-.341,1.208,1.208,0,0,0-.611.154,1.053,1.053,0,0,0-.418.44,1.412,1.412,0,0,0-.149.66,1.346,1.346,0,0,0,.149.649,1.107,1.107,0,0,0,.418.434A1.176,1.176,0,0,0,30.866-1.243ZM36.63,0H34.793l3.74-6.952.022.495H34.5V-7.832h5.621v1.276Zm8.426.1a4.173,4.173,0,0,1-2.079-.5,3.35,3.35,0,0,1-1.353-1.4,4.544,4.544,0,0,1-.473-2.129,4.486,4.486,0,0,1,.473-2.112,3.358,3.358,0,0,1,1.353-1.4,4.173,4.173,0,0,1,2.079-.495,4.632,4.632,0,0,1,1.485.236,3.169,3.169,0,0,1,1.166.665L47.168-5.8a4.018,4.018,0,0,0-1.028-.578,3.057,3.057,0,0,0-1.051-.181,2.017,2.017,0,0,0-1.617.665A2.939,2.939,0,0,0,42.9-3.927a2.984,2.984,0,0,0,.572,1.975,2,2,0,0,0,1.617.677,3.057,3.057,0,0,0,1.051-.182,4.018,4.018,0,0,0,1.028-.577L47.707-.8a3.169,3.169,0,0,1-1.166.666A4.632,4.632,0,0,1,45.056.1Z" transform="translate(770 4190)" fill="#0d1214"/>
      <path id="Path_1430" data-name="Path 1430" d="M-37.032-1.308V0h-6.3V-8.4H-37.2v1.308h-4.572v2.184h4.056v1.284h-4.056v2.316ZM-29.8,0l-1.716-2.46a3.2,3.2,0,0,1-.324.012h-1.9V0h-1.56V-8.4h3.456a4.65,4.65,0,0,1,1.9.36,2.766,2.766,0,0,1,1.242,1.032,2.887,2.887,0,0,1,.432,1.6,2.846,2.846,0,0,1-.462,1.632,2.749,2.749,0,0,1-1.326,1.02L-28.116,0Zm-.036-5.412a1.506,1.506,0,0,0-.528-1.236,2.4,2.4,0,0,0-1.548-.432h-1.824v3.348h1.824A2.373,2.373,0,0,0-30.36-4.17,1.523,1.523,0,0,0-29.832-5.412ZM-21.024,0-22.74-2.46a3.2,3.2,0,0,1-.324.012h-1.9V0h-1.56V-8.4h3.456a4.65,4.65,0,0,1,1.9.36A2.766,2.766,0,0,1-19.92-7.008a2.887,2.887,0,0,1,.432,1.6A2.846,2.846,0,0,1-19.95-3.78a2.749,2.749,0,0,1-1.326,1.02L-19.344,0Zm-.036-5.412a1.506,1.506,0,0,0-.528-1.236,2.4,2.4,0,0,0-1.548-.432H-24.96v3.348h1.824a2.373,2.373,0,0,0,1.548-.438A1.523,1.523,0,0,0-21.06-5.412ZM-13.824.12A4.79,4.79,0,0,1-16.14-.438a4.132,4.132,0,0,1-1.62-1.548A4.253,4.253,0,0,1-18.348-4.2a4.253,4.253,0,0,1,.588-2.214,4.132,4.132,0,0,1,1.62-1.548,4.79,4.79,0,0,1,2.316-.558,4.79,4.79,0,0,1,2.316.558A4.146,4.146,0,0,1-9.888-6.42,4.244,4.244,0,0,1-9.3-4.2a4.244,4.244,0,0,1-.588,2.22,4.146,4.146,0,0,1-1.62,1.542A4.79,4.79,0,0,1-13.824.12Zm0-1.368a3.03,3.03,0,0,0,1.512-.378,2.734,2.734,0,0,0,1.056-1.056A3.026,3.026,0,0,0-10.872-4.2a3.026,3.026,0,0,0-.384-1.518,2.734,2.734,0,0,0-1.056-1.056,3.03,3.03,0,0,0-1.512-.378,3.03,3.03,0,0,0-1.512.378,2.734,2.734,0,0,0-1.056,1.056A3.026,3.026,0,0,0-16.776-4.2a3.026,3.026,0,0,0,.384,1.518,2.734,2.734,0,0,0,1.056,1.056A3.03,3.03,0,0,0-13.824-1.248ZM-2.148,0-3.864-2.46a3.2,3.2,0,0,1-.324.012h-1.9V0h-1.56V-8.4h3.456a4.65,4.65,0,0,1,1.9.36A2.766,2.766,0,0,1-1.044-7.008a2.887,2.887,0,0,1,.432,1.6A2.846,2.846,0,0,1-1.074-3.78,2.749,2.749,0,0,1-2.4-2.76L-.468,0Zm-.036-5.412a1.506,1.506,0,0,0-.528-1.236A2.4,2.4,0,0,0-4.26-7.08H-6.084v3.348H-4.26A2.373,2.373,0,0,0-2.712-4.17,1.523,1.523,0,0,0-2.184-5.412Z" transform="translate(696.5 4158)" fill="#f1f1f1" opacity="0.83"/>
      <path id="Path_1431" data-name="Path 1431" d="M-57,.12a6.408,6.408,0,0,1-1.878-.276,3.919,3.919,0,0,1-1.434-.732l.54-1.212a4.254,4.254,0,0,0,1.266.666A4.6,4.6,0,0,0-57-1.176a2.6,2.6,0,0,0,1.4-.3.909.909,0,0,0,.462-.792.767.767,0,0,0-.258-.594,1.811,1.811,0,0,0-.654-.366q-.4-.132-1.08-.3a12.589,12.589,0,0,1-1.554-.456,2.557,2.557,0,0,1-1.02-.714,1.923,1.923,0,0,1-.426-1.314,2.241,2.241,0,0,1,.378-1.266,2.558,2.558,0,0,1,1.14-.906,4.619,4.619,0,0,1,1.866-.336,6.027,6.027,0,0,1,1.512.192,4.179,4.179,0,0,1,1.284.552l-.492,1.212A4.854,4.854,0,0,0-55.6-7.056a4.309,4.309,0,0,0-1.164-.168,2.432,2.432,0,0,0-1.374.312.962.962,0,0,0-.45.828.749.749,0,0,0,.258.588,1.864,1.864,0,0,0,.654.36q.4.132,1.08.3a11.365,11.365,0,0,1,1.536.45,2.63,2.63,0,0,1,1.026.714,1.882,1.882,0,0,1,.426,1.3,2.213,2.213,0,0,1-.378,1.26,2.571,2.571,0,0,1-1.146.9A4.662,4.662,0,0,1-57,.12Zm8.556,0a3.653,3.653,0,0,1-2.712-.978,3.806,3.806,0,0,1-.972-2.8V-8.4h1.56v4.68q0,2.472,2.136,2.472t2.124-2.472V-8.4h1.536v4.74a3.82,3.82,0,0,1-.966,2.8A3.632,3.632,0,0,1-48.444.12Zm9.744,0A4.731,4.731,0,0,1-41-.438,4.113,4.113,0,0,1-42.606-1.98a4.278,4.278,0,0,1-.582-2.22A4.244,4.244,0,0,1-42.6-6.42a4.156,4.156,0,0,1,1.614-1.542,4.731,4.731,0,0,1,2.3-.558,4.793,4.793,0,0,1,1.884.36,3.843,3.843,0,0,1,1.44,1.044l-1.008.948a2.94,2.94,0,0,0-2.244-.984,3.146,3.146,0,0,0-1.548.378,2.723,2.723,0,0,0-1.068,1.05A3.017,3.017,0,0,0-41.616-4.2a3.017,3.017,0,0,0,.384,1.524,2.723,2.723,0,0,0,1.068,1.05,3.146,3.146,0,0,0,1.548.378,2.924,2.924,0,0,0,2.244-1l1.008.96A3.832,3.832,0,0,1-36.81-.24,4.837,4.837,0,0,1-38.7.12Zm8.544,0a4.731,4.731,0,0,1-2.3-.558A4.113,4.113,0,0,1-34.062-1.98a4.278,4.278,0,0,1-.582-2.22,4.244,4.244,0,0,1,.588-2.22,4.156,4.156,0,0,1,1.614-1.542,4.731,4.731,0,0,1,2.3-.558,4.793,4.793,0,0,1,1.884.36,3.843,3.843,0,0,1,1.44,1.044l-1.008.948a2.94,2.94,0,0,0-2.244-.984,3.146,3.146,0,0,0-1.548.378,2.723,2.723,0,0,0-1.068,1.05A3.017,3.017,0,0,0-33.072-4.2a3.017,3.017,0,0,0,.384,1.524,2.723,2.723,0,0,0,1.068,1.05,3.146,3.146,0,0,0,1.548.378,2.924,2.924,0,0,0,2.244-1l1.008.96A3.832,3.832,0,0,1-28.266-.24,4.837,4.837,0,0,1-30.156.12ZM-19.02-1.308V0h-6.3V-8.4h6.132v1.308H-23.76v2.184H-19.7v1.284H-23.76v2.316ZM-14.676.12a6.408,6.408,0,0,1-1.878-.276,3.919,3.919,0,0,1-1.434-.732l.54-1.212a4.254,4.254,0,0,0,1.266.666,4.6,4.6,0,0,0,1.506.258,2.6,2.6,0,0,0,1.4-.3.909.909,0,0,0,.462-.792.767.767,0,0,0-.258-.594,1.811,1.811,0,0,0-.654-.366q-.4-.132-1.08-.3a12.589,12.589,0,0,1-1.554-.456,2.557,2.557,0,0,1-1.02-.714,1.923,1.923,0,0,1-.426-1.314,2.241,2.241,0,0,1,.378-1.266,2.558,2.558,0,0,1,1.14-.906,4.619,4.619,0,0,1,1.866-.336,6.027,6.027,0,0,1,1.512.192,4.179,4.179,0,0,1,1.284.552l-.492,1.212a4.854,4.854,0,0,0-1.152-.492,4.309,4.309,0,0,0-1.164-.168,2.432,2.432,0,0,0-1.374.312.962.962,0,0,0-.45.828A.749.749,0,0,0-16-5.5a1.864,1.864,0,0,0,.654.36q.4.132,1.08.3a11.365,11.365,0,0,1,1.536.45,2.63,2.63,0,0,1,1.026.714,1.882,1.882,0,0,1,.426,1.3,2.213,2.213,0,0,1-.378,1.26,2.571,2.571,0,0,1-1.146.9A4.662,4.662,0,0,1-14.676.12Zm7.548,0A6.408,6.408,0,0,1-9.006-.156,3.919,3.919,0,0,1-10.44-.888L-9.9-2.1a4.254,4.254,0,0,0,1.266.666,4.6,4.6,0,0,0,1.506.258,2.6,2.6,0,0,0,1.4-.3.909.909,0,0,0,.462-.792.767.767,0,0,0-.258-.594,1.811,1.811,0,0,0-.654-.366q-.4-.132-1.08-.3a12.589,12.589,0,0,1-1.554-.456A2.557,2.557,0,0,1-9.834-4.7a1.923,1.923,0,0,1-.426-1.314,2.241,2.241,0,0,1,.378-1.266,2.558,2.558,0,0,1,1.14-.906A4.619,4.619,0,0,1-6.876-8.52a6.027,6.027,0,0,1,1.512.192,4.179,4.179,0,0,1,1.284.552l-.492,1.212a4.854,4.854,0,0,0-1.152-.492,4.309,4.309,0,0,0-1.164-.168,2.432,2.432,0,0,0-1.374.312.962.962,0,0,0-.45.828.749.749,0,0,0,.258.588,1.864,1.864,0,0,0,.654.36q.4.132,1.08.3a11.365,11.365,0,0,1,1.536.45,2.63,2.63,0,0,1,1.026.714,1.882,1.882,0,0,1,.426,1.3,2.213,2.213,0,0,1-.378,1.26,2.571,2.571,0,0,1-1.146.9A4.662,4.662,0,0,1-7.128.12Z" transform="translate(821.5 4158)" fill="#f1f1f1" opacity="0.83"/>
      <path id="Path_1432" data-name="Path 1432" d="M-50.172-8.4-52.956,0h-1.656l-2.076-6.216L-58.8,0h-1.668l-2.784-8.4h1.62l2.088,6.384L-57.372-8.4h1.44l2.124,6.42L-51.66-8.4Zm6.456,6.456h-4.2L-48.744,0h-1.608l3.78-8.4h1.536L-41.244,0h-1.632Zm-.516-1.224L-45.816-6.84l-1.572,3.672ZM-34.68,0-36.4-2.46a3.2,3.2,0,0,1-.324.012h-1.9V0h-1.56V-8.4h3.456a4.65,4.65,0,0,1,1.9.36,2.766,2.766,0,0,1,1.242,1.032,2.887,2.887,0,0,1,.432,1.6,2.846,2.846,0,0,1-.462,1.632,2.749,2.749,0,0,1-1.326,1.02L-33,0Zm-.036-5.412a1.506,1.506,0,0,0-.528-1.236,2.4,2.4,0,0,0-1.548-.432h-1.824v3.348h1.824a2.373,2.373,0,0,0,1.548-.438A1.523,1.523,0,0,0-34.716-5.412ZM-23.94-8.4V0h-1.284l-4.632-5.688V0H-31.4V-8.4h1.284l4.632,5.688V-8.4Zm2.256,0h1.56V0h-1.56Zm11.292,0V0h-1.284l-4.632-5.688V0h-1.548V-8.4h1.284l4.632,5.688V-8.4ZM-2.4-4.3H-.924V-.948a4.693,4.693,0,0,1-1.512.792A5.8,5.8,0,0,1-4.212.12,4.79,4.79,0,0,1-6.528-.438,4.146,4.146,0,0,1-8.148-1.98,4.244,4.244,0,0,1-8.736-4.2a4.244,4.244,0,0,1,.588-2.22A4.135,4.135,0,0,1-6.522-7.962,4.85,4.85,0,0,1-4.188-8.52a5.1,5.1,0,0,1,1.92.348A3.768,3.768,0,0,1-.816-7.152l-.984.96a3.156,3.156,0,0,0-2.316-.96,3.273,3.273,0,0,0-1.578.372,2.712,2.712,0,0,0-1.08,1.044A3,3,0,0,0-7.164-4.2a2.957,2.957,0,0,0,.39,1.512,2.8,2.8,0,0,0,1.08,1.056,3.165,3.165,0,0,0,1.566.384A3.379,3.379,0,0,0-2.4-1.68Z" transform="translate(930.5 4158)" fill="#f1f1f1" opacity="0.83"/>
      <path id="Path_1429" data-name="Path 1429" d="M-75.552.12A6.409,6.409,0,0,1-77.43-.156a3.919,3.919,0,0,1-1.434-.732l.54-1.212a4.254,4.254,0,0,0,1.266.666,4.6,4.6,0,0,0,1.506.258,2.6,2.6,0,0,0,1.4-.3.909.909,0,0,0,.462-.792.767.767,0,0,0-.258-.594,1.811,1.811,0,0,0-.654-.366q-.4-.132-1.08-.3a12.59,12.59,0,0,1-1.554-.456,2.557,2.557,0,0,1-1.02-.714,1.923,1.923,0,0,1-.426-1.314,2.241,2.241,0,0,1,.378-1.266,2.558,2.558,0,0,1,1.14-.906A4.618,4.618,0,0,1-75.3-8.52a6.027,6.027,0,0,1,1.512.192,4.179,4.179,0,0,1,1.284.552L-73-6.564a4.854,4.854,0,0,0-1.152-.492,4.309,4.309,0,0,0-1.164-.168,2.432,2.432,0,0,0-1.374.312.962.962,0,0,0-.45.828.749.749,0,0,0,.258.588,1.864,1.864,0,0,0,.654.36q.4.132,1.08.3a11.365,11.365,0,0,1,1.536.45,2.63,2.63,0,0,1,1.026.714,1.882,1.882,0,0,1,.426,1.3,2.213,2.213,0,0,1-.378,1.26,2.571,2.571,0,0,1-1.146.9A4.662,4.662,0,0,1-75.552.12Zm11.244-1.428V0h-6.3V-8.4h6.132v1.308h-4.572v2.184h4.056v1.284h-4.056v2.316ZM-58.716.12a4.731,4.731,0,0,1-2.3-.558A4.113,4.113,0,0,1-62.622-1.98,4.278,4.278,0,0,1-63.2-4.2a4.244,4.244,0,0,1,.588-2.22A4.156,4.156,0,0,1-61-7.962a4.731,4.731,0,0,1,2.3-.558,4.793,4.793,0,0,1,1.884.36,3.843,3.843,0,0,1,1.44,1.044l-1.008.948a2.94,2.94,0,0,0-2.244-.984,3.146,3.146,0,0,0-1.548.378,2.723,2.723,0,0,0-1.068,1.05A3.017,3.017,0,0,0-61.632-4.2a3.017,3.017,0,0,0,.384,1.524,2.723,2.723,0,0,0,1.068,1.05,3.146,3.146,0,0,0,1.548.378,2.924,2.924,0,0,0,2.244-1l1.008.96A3.832,3.832,0,0,1-56.826-.24,4.837,4.837,0,0,1-58.716.12Zm8.58,0a4.79,4.79,0,0,1-2.316-.558,4.132,4.132,0,0,1-1.62-1.548A4.253,4.253,0,0,1-54.66-4.2a4.253,4.253,0,0,1,.588-2.214,4.132,4.132,0,0,1,1.62-1.548,4.79,4.79,0,0,1,2.316-.558,4.79,4.79,0,0,1,2.316.558A4.146,4.146,0,0,1-46.2-6.42a4.244,4.244,0,0,1,.588,2.22A4.244,4.244,0,0,1-46.2-1.98,4.146,4.146,0,0,1-47.82-.438,4.79,4.79,0,0,1-50.136.12Zm0-1.368a3.03,3.03,0,0,0,1.512-.378,2.734,2.734,0,0,0,1.056-1.056A3.026,3.026,0,0,0-47.184-4.2a3.026,3.026,0,0,0-.384-1.518,2.734,2.734,0,0,0-1.056-1.056,3.03,3.03,0,0,0-1.512-.378,3.03,3.03,0,0,0-1.512.378A2.734,2.734,0,0,0-52.7-5.718,3.026,3.026,0,0,0-53.088-4.2,3.026,3.026,0,0,0-52.7-2.682a2.734,2.734,0,0,0,1.056,1.056A3.03,3.03,0,0,0-50.136-1.248ZM-36.492-8.4V0h-1.284l-4.632-5.688V0h-1.548V-8.4h1.284l4.632,5.688V-8.4Zm2.256,0h3.672a5.269,5.269,0,0,1,2.388.522A3.863,3.863,0,0,1-26.556-6.4a4.176,4.176,0,0,1,.576,2.2A4.176,4.176,0,0,1-26.556-2a3.863,3.863,0,0,1-1.62,1.476A5.269,5.269,0,0,1-30.564,0h-3.672Zm3.6,7.08a3.565,3.565,0,0,0,1.626-.354,2.533,2.533,0,0,0,1.08-1.008A2.979,2.979,0,0,0-27.552-4.2a2.979,2.979,0,0,0-.378-1.518,2.533,2.533,0,0,0-1.08-1.008,3.565,3.565,0,0,0-1.626-.354h-2.04v5.76ZM-19-1.944h-4.2L-24.024,0h-1.608l3.78-8.4h1.536L-16.524,0h-1.632Zm-.516-1.224L-21.1-6.84l-1.572,3.672ZM-9.96,0l-1.716-2.46A3.2,3.2,0,0,1-12-2.448h-1.9V0h-1.56V-8.4H-12a4.65,4.65,0,0,1,1.9.36A2.766,2.766,0,0,1-8.856-7.008a2.887,2.887,0,0,1,.432,1.6A2.846,2.846,0,0,1-8.886-3.78a2.749,2.749,0,0,1-1.326,1.02L-8.28,0ZM-10-5.412a1.506,1.506,0,0,0-.528-1.236,2.4,2.4,0,0,0-1.548-.432H-13.9v3.348h1.824a2.373,2.373,0,0,0,1.548-.438A1.523,1.523,0,0,0-10-5.412ZM-3.18-2.964V0H-4.74V-2.94L-8.04-8.4h1.668l2.46,4.092L-1.428-8.4H.108Z" transform="translate(731.5 3897)" fill="#f1f1f1" opacity="0.83"/>
      <path id="Path_1446" data-name="Path 1446" d="M0,0H89V89H0Z" transform="translate(759 4017)" fill="#ececec"/>
      <path id="Path_1447" data-name="Path 1447" d="M0,0H89V89H0Z" transform="translate(759 4017)" fill="url(#radial-gradient)"/>
      <path id="Path_1448" data-name="Path 1448" d="M-21.362,0l1.551-7.832H-18.7L-20.251,0Zm-2.607-1.837V-2.871h5.324v1.034Zm.3,1.837,1.551-7.832h1.111L-22.561,0Zm-.055-5.049V-6.083h5.335v1.034ZM-17.072,0V-7.832h5.4V-6.5h-3.718v1.848H-11.9v1.342h-3.487v1.98h3.718V0ZM-6.809.1A4.173,4.173,0,0,1-8.888-.4a3.35,3.35,0,0,1-1.353-1.4,4.544,4.544,0,0,1-.473-2.129,4.486,4.486,0,0,1,.473-2.112,3.358,3.358,0,0,1,1.353-1.4,4.173,4.173,0,0,1,2.079-.495,4.632,4.632,0,0,1,1.485.236,3.169,3.169,0,0,1,1.166.665L-4.7-5.8a4.018,4.018,0,0,0-1.028-.578,3.057,3.057,0,0,0-1.05-.181,2.017,2.017,0,0,0-1.617.665,2.939,2.939,0,0,0-.572,1.964,2.984,2.984,0,0,0,.572,1.975,2,2,0,0,0,1.617.677,3.057,3.057,0,0,0,1.05-.182A4.018,4.018,0,0,0-4.7-2.035L-4.158-.8a3.169,3.169,0,0,1-1.166.666A4.632,4.632,0,0,1-6.809.1ZM-2.948,0V-7.832h5.4V-6.5H-1.265v1.848H2.222v1.342H-1.265v1.98H2.453V0ZM7.315.1A4.173,4.173,0,0,1,5.236-.4,3.35,3.35,0,0,1,3.883-1.8,4.544,4.544,0,0,1,3.41-3.927a4.486,4.486,0,0,1,.473-2.112,3.358,3.358,0,0,1,1.353-1.4,4.173,4.173,0,0,1,2.079-.495A4.632,4.632,0,0,1,8.8-7.695a3.169,3.169,0,0,1,1.166.665L9.427-5.8A4.018,4.018,0,0,0,8.4-6.375a3.057,3.057,0,0,0-1.05-.181,2.017,2.017,0,0,0-1.617.665,2.939,2.939,0,0,0-.572,1.964,2.984,2.984,0,0,0,.572,1.975,2,2,0,0,0,1.617.677A3.057,3.057,0,0,0,8.4-1.458a4.018,4.018,0,0,0,1.028-.577L9.966-.8A3.169,3.169,0,0,1,8.8-.138,4.632,4.632,0,0,1,7.315.1ZM11.176,0V-7.832h5.4V-6.5H12.859v1.848h3.487v1.342H12.859v1.98h3.718V0ZM21.439.1A4.173,4.173,0,0,1,19.36-.4a3.35,3.35,0,0,1-1.353-1.4,4.544,4.544,0,0,1-.473-2.129,4.486,4.486,0,0,1,.473-2.112,3.358,3.358,0,0,1,1.353-1.4,4.173,4.173,0,0,1,2.079-.495,4.632,4.632,0,0,1,1.485.236,3.169,3.169,0,0,1,1.166.665L23.551-5.8a4.018,4.018,0,0,0-1.028-.578,3.057,3.057,0,0,0-1.05-.181,2.017,2.017,0,0,0-1.617.665,2.939,2.939,0,0,0-.572,1.964,2.984,2.984,0,0,0,.572,1.975,2,2,0,0,0,1.617.677,3.057,3.057,0,0,0,1.05-.182,4.018,4.018,0,0,0,1.028-.577L24.09-.8a3.169,3.169,0,0,1-1.166.666A4.632,4.632,0,0,1,21.439.1Z" transform="translate(793 4038)" fill="#0d1214"/>
      <path id="Path_1449" data-name="Path 1449" d="M3.157,0,4.708-7.832H5.819L4.268,0ZM.55-1.837V-2.871H5.874v1.034ZM.847,0,2.4-7.832H3.509L1.958,0ZM.792-5.049V-6.083H6.127v1.034ZM7.381,0V-1.265L9.988-4.037a4.172,4.172,0,0,0,.611-.841,1.667,1.667,0,0,0,.2-.775.854.854,0,0,0-.275-.693,1.2,1.2,0,0,0-.792-.231,2.934,2.934,0,0,0-1.018.193,4.546,4.546,0,0,0-1.05.566l-.55-1.232a3.445,3.445,0,0,1,1.21-.643,4.868,4.868,0,0,1,1.5-.236,3.5,3.5,0,0,1,1.408.264,2.077,2.077,0,0,1,.929.753,2.032,2.032,0,0,1,.325,1.149A2.834,2.834,0,0,1,12.2-4.5a5.5,5.5,0,0,1-.941,1.276L9.02-.869,8.8-1.375h3.96V0Zm6.677,0V-7.832h3.036A4.86,4.86,0,0,1,19.3-7.37a3.244,3.244,0,0,1,1.408,1.337,4.25,4.25,0,0,1,.49,2.106,4.314,4.314,0,0,1-.484,2.118,3.243,3.243,0,0,1-1.4,1.342A4.839,4.839,0,0,1,17.094,0Zm1.716-1.386h1.2a2.541,2.541,0,0,0,1.881-.633,2.608,2.608,0,0,0,.627-1.909,2.222,2.222,0,0,0-2.508-2.519h-1.2ZM24.992.088a4.783,4.783,0,0,1-1.479-.237A3.216,3.216,0,0,1,22.33-.792l.55-1.232a4.233,4.233,0,0,0,1.056.567,3.187,3.187,0,0,0,1.078.193,1.488,1.488,0,0,0,1.028-.314,1.161,1.161,0,0,0,.347-.908,1.348,1.348,0,0,0-.16-.677,1.048,1.048,0,0,0-.462-.429,1.62,1.62,0,0,0-.721-.148,2.293,2.293,0,0,0-.764.137,2.171,2.171,0,0,0-.7.4H22.6V-7.832h5.027v1.32H24.277v2.244l-.517-.088a2.314,2.314,0,0,1,.775-.533,2.564,2.564,0,0,1,1-.181,2.55,2.55,0,0,1,1.292.319,2.317,2.317,0,0,1,.875.88,2.626,2.626,0,0,1,.319,1.32,2.546,2.546,0,0,1-.374,1.386,2.508,2.508,0,0,1-1.051.924A3.615,3.615,0,0,1,24.992.088ZM29.073,0V-1.265L31.68-4.037a4.172,4.172,0,0,0,.611-.841,1.667,1.667,0,0,0,.2-.775.854.854,0,0,0-.275-.693,1.2,1.2,0,0,0-.792-.231,2.934,2.934,0,0,0-1.017.193,4.546,4.546,0,0,0-1.051.566l-.55-1.232a3.445,3.445,0,0,1,1.21-.643,4.868,4.868,0,0,1,1.5-.236,3.5,3.5,0,0,1,1.408.264,2.077,2.077,0,0,1,.93.753,2.032,2.032,0,0,1,.325,1.149A2.834,2.834,0,0,1,33.9-4.5a5.5,5.5,0,0,1-.94,1.276L30.712-.869l-.22-.506h3.96V0ZM38.2.088a4.783,4.783,0,0,1-1.479-.237,3.216,3.216,0,0,1-1.183-.644l.55-1.232a4.233,4.233,0,0,0,1.056.567,3.187,3.187,0,0,0,1.078.193,1.488,1.488,0,0,0,1.028-.314,1.161,1.161,0,0,0,.347-.908,1.348,1.348,0,0,0-.16-.677,1.048,1.048,0,0,0-.462-.429,1.619,1.619,0,0,0-.72-.148,2.293,2.293,0,0,0-.764.137,2.171,2.171,0,0,0-.7.4h-.979V-7.832h5.027v1.32H37.488v2.244l-.517-.088a2.314,2.314,0,0,1,.776-.533,2.564,2.564,0,0,1,1-.181,2.55,2.55,0,0,1,1.292.319,2.317,2.317,0,0,1,.875.88,2.626,2.626,0,0,1,.319,1.32,2.546,2.546,0,0,1-.374,1.386A2.508,2.508,0,0,1,39.8-.242,3.615,3.615,0,0,1,38.2.088ZM42.35,0V-7.832h3.036a4.86,4.86,0,0,1,2.205.462A3.244,3.244,0,0,1,49-6.034a4.25,4.25,0,0,1,.489,2.106,4.314,4.314,0,0,1-.484,2.118A3.243,3.243,0,0,1,47.6-.468,4.839,4.839,0,0,1,45.386,0Zm1.716-1.386h1.2a2.541,2.541,0,0,0,1.881-.633,2.608,2.608,0,0,0,.627-1.909,2.222,2.222,0,0,0-2.508-2.519h-1.2ZM54.989,1.456A9.332,9.332,0,0,1,54.373.2a6.081,6.081,0,0,1-.332-1.156,6.7,6.7,0,0,1-.1-1.172,6.651,6.651,0,0,1,.1-1.184,6.233,6.233,0,0,1,.332-1.16A7.779,7.779,0,0,1,55-5.7h.968a11.792,11.792,0,0,0-.484,1.38,8.027,8.027,0,0,0-.228,1.132,8.768,8.768,0,0,0-.064,1.056,8.735,8.735,0,0,0,.064,1.06A8.18,8.18,0,0,0,55.481.064q.164.608.46,1.392ZM58.813,0V-4.152h.256L57.349-1.68v-.328h3.472v.968H56.437v-.928L59.045-5.7h1V0Zm4.552.064a3.042,3.042,0,0,1-1.132-.2,1.791,1.791,0,0,1-.772-.556,1.365,1.365,0,0,1-.28-.864,1.292,1.292,0,0,1,.392-.976,1.833,1.833,0,0,1,1.064-.464l-.016.128a1.737,1.737,0,0,1-.948-.476,1.217,1.217,0,0,1-.356-.884,1.3,1.3,0,0,1,.268-.824,1.724,1.724,0,0,1,.732-.532,2.77,2.77,0,0,1,1.048-.188,2.77,2.77,0,0,1,1.048.188,1.724,1.724,0,0,1,.732.532,1.3,1.3,0,0,1,.268.824,1.223,1.223,0,0,1-.356.9,1.652,1.652,0,0,1-.932.456l-.024-.12a1.839,1.839,0,0,1,1.06.476,1.292,1.292,0,0,1,.388.964,1.365,1.365,0,0,1-.28.864,1.791,1.791,0,0,1-.772.556A3.042,3.042,0,0,1,63.365.064Zm0-.952a1.3,1.3,0,0,0,.74-.192.641.641,0,0,0,.284-.568.663.663,0,0,0-.288-.568,1.7,1.7,0,0,0-.736-.28,1.7,1.7,0,0,0-.736.28.663.663,0,0,0-.288.568.641.641,0,0,0,.284.568A1.3,1.3,0,0,0,63.365-.888Zm0-2.384a1.33,1.33,0,0,0,.624-.264.67.67,0,0,0,.248-.552.636.636,0,0,0-.244-.548,1.031,1.031,0,0,0-.628-.18,1.031,1.031,0,0,0-.628.18.636.636,0,0,0-.244.548.67.67,0,0,0,.248.552A1.33,1.33,0,0,0,63.365-3.272Zm3.92,1.024a1.256,1.256,0,0,1-1.012-.44A1.99,1.99,0,0,1,65.9-4a1.945,1.945,0,0,1,.372-1.292,1.261,1.261,0,0,1,1.012-.436,1.244,1.244,0,0,1,1.008.44,1.976,1.976,0,0,1,.368,1.3,1.991,1.991,0,0,1-.368,1.3A1.244,1.244,0,0,1,67.285-2.248Zm0-.76a.3.3,0,0,0,.284-.224,2.205,2.205,0,0,0,.092-.76,2.089,2.089,0,0,0-.1-.752.306.306,0,0,0-.28-.224A.31.31,0,0,0,67-4.744a2.089,2.089,0,0,0-.1.752,2.12,2.12,0,0,0,.1.76A.31.31,0,0,0,67.285-3.008ZM67.133,0l3.3-5.7H71.6L68.3,0Zm4.312.032a1.256,1.256,0,0,1-1.012-.44,1.99,1.99,0,0,1-.372-1.312,1.945,1.945,0,0,1,.372-1.292,1.261,1.261,0,0,1,1.012-.436,1.244,1.244,0,0,1,1.008.44,1.977,1.977,0,0,1,.368,1.3,1.991,1.991,0,0,1-.368,1.3A1.244,1.244,0,0,1,71.445.032Zm0-.76a.3.3,0,0,0,.284-.224,2.205,2.205,0,0,0,.092-.76,2.089,2.089,0,0,0-.1-.752.306.306,0,0,0-.28-.224.31.31,0,0,0-.288.224,2.089,2.089,0,0,0-.1.752,2.12,2.12,0,0,0,.1.76A.31.31,0,0,0,71.445-.728Zm2.688,2.184h-.952A13.239,13.239,0,0,0,73.645.064a8.544,8.544,0,0,0,.224-1.132,8.734,8.734,0,0,0,.064-1.06,9.345,9.345,0,0,0-.06-1.056,7.336,7.336,0,0,0-.228-1.132,14.5,14.5,0,0,0-.472-1.38h.96a7.542,7.542,0,0,1,.808,1.808,6.488,6.488,0,0,1,.24,1.76,6.7,6.7,0,0,1-.1,1.172A6.261,6.261,0,0,1,74.753.2,8.511,8.511,0,0,1,74.133,1.456Z" transform="translate(769 4057.392)" fill="#0d1214"/>
      <g transform="matrix(1, 0, 0, 1, 336, 3855)" filter="url(#Path_1469)">
        <g id="Path_1469-2" data-name="Path 1469" transform="translate(316 55)" fill="#b8f2e3">
          <path d="M0,0H89V44.5H0Z" stroke="none"/>
          <path d="M 0.5 0.5 L 0.5 44 L 88.5 44 L 88.5 0.5 L 0.5 0.5 M 0 0 L 89 0 L 89 44.5 L 0 44.5 L 0 0 Z" stroke="none" fill="rgba(255,255,255,0.2)"/>
        </g>
      </g>
      <g transform="matrix(1, 0, 0, 1, 336, 3855)" filter="url(#Rectangle_494)">
        <g id="Rectangle_494-2" data-name="Rectangle 494" transform="translate(316 55)" fill="#b8f2e3" stroke="rgba(255,255,255,0.2)" stroke-width="0.5" opacity="0.08">
          <rect width="89" height="89" stroke="none"/>
          <rect x="0.25" y="0.25" width="88.5" height="88.5" fill="none"/>
        </g>
      </g>
      <path id="Path_1470" data-name="Path 1470" d="M-20.383,0l1.551-7.832h1.111L-19.272,0ZM-22.99-1.837V-2.871h5.324v1.034Zm.3,1.837,1.551-7.832h1.111L-21.582,0Zm-.055-5.049V-6.083h5.335v1.034ZM-16.093,0V-7.832h3.608a3.1,3.1,0,0,1,1.925.544A1.772,1.772,0,0,1-9.845-5.8a1.812,1.812,0,0,1-.363,1.127A1.879,1.879,0,0,1-11.22-4v-.088a2.052,2.052,0,0,1,1.172.682,1.937,1.937,0,0,1,.413,1.265,1.891,1.891,0,0,1-.732,1.567A3.158,3.158,0,0,1-12.375,0Zm1.683-1.32h1.837a1.72,1.72,0,0,0,1.007-.231.88.88,0,0,0,.313-.759.914.914,0,0,0-.313-.764,1.63,1.63,0,0,0-1.007-.248H-14.41Zm0-3.322h1.639a1.672,1.672,0,0,0,.984-.231.817.817,0,0,0,.314-.7.809.809,0,0,0-.319-.709,1.708,1.708,0,0,0-.979-.226H-14.41ZM-5.918.088a4.183,4.183,0,0,1-1.557-.27A2.462,2.462,0,0,1-8.536-.946a1.877,1.877,0,0,1-.385-1.188,1.776,1.776,0,0,1,.539-1.342,2.52,2.52,0,0,1,1.463-.638l-.022.176a2.389,2.389,0,0,1-1.3-.655,1.674,1.674,0,0,1-.49-1.215,1.788,1.788,0,0,1,.368-1.133,2.37,2.37,0,0,1,1.007-.732,3.809,3.809,0,0,1,1.441-.258,3.809,3.809,0,0,1,1.441.258,2.37,2.37,0,0,1,1.007.732A1.788,1.788,0,0,1-3.1-5.808a1.682,1.682,0,0,1-.49,1.232,2.271,2.271,0,0,1-1.281.627l-.033-.165a2.528,2.528,0,0,1,1.457.655,1.777,1.777,0,0,1,.533,1.326A1.877,1.877,0,0,1-3.3-.946a2.462,2.462,0,0,1-1.062.765A4.183,4.183,0,0,1-5.918.088Zm0-1.309A1.784,1.784,0,0,0-4.9-1.485a.882.882,0,0,0,.391-.781.912.912,0,0,0-.4-.781,2.339,2.339,0,0,0-1.012-.385,2.339,2.339,0,0,0-1.012.385.912.912,0,0,0-.4.781.882.882,0,0,0,.391.781A1.784,1.784,0,0,0-5.918-1.221Zm0-3.278a1.828,1.828,0,0,0,.858-.363.922.922,0,0,0,.341-.759.875.875,0,0,0-.335-.753,1.417,1.417,0,0,0-.864-.248,1.417,1.417,0,0,0-.864.248.875.875,0,0,0-.336.753.922.922,0,0,0,.341.759A1.828,1.828,0,0,0-5.918-4.5ZM-1.837,0V-7.832h5.28v1.364H-.143v1.815H3.223V-3.3H-.143V0ZM4.455,0V-1.265L7.062-4.037a4.172,4.172,0,0,0,.61-.841,1.667,1.667,0,0,0,.2-.775A.854.854,0,0,0,7.6-6.347a1.2,1.2,0,0,0-.792-.231,2.934,2.934,0,0,0-1.017.193,4.546,4.546,0,0,0-1.051.566l-.55-1.232A3.445,3.445,0,0,1,5.4-7.695a4.868,4.868,0,0,1,1.5-.236,3.5,3.5,0,0,1,1.408.264,2.077,2.077,0,0,1,.929.753,2.032,2.032,0,0,1,.325,1.149A2.834,2.834,0,0,1,9.279-4.5a5.5,5.5,0,0,1-.941,1.276L6.094-.869l-.22-.506h3.96V0Zm6.677,0V-7.832h5.4V-6.5H12.815v1.848H16.3v1.342H12.815v1.98h3.718V0Zm8.921.088A5.114,5.114,0,0,1,18.5-.149a3.436,3.436,0,0,1-1.221-.644l.55-1.232a3.926,3.926,0,0,0,1.056.572,3.3,3.3,0,0,0,1.089.187,1.758,1.758,0,0,0,1.039-.242A.923.923,0,0,0,21.34-2.3a.885.885,0,0,0-.324-.759A1.758,1.758,0,0,0,19.976-3.3H18.854V-4.631h.924A1.8,1.8,0,0,0,20.8-4.862a.825.825,0,0,0,.33-.726.914.914,0,0,0-.3-.737,1.233,1.233,0,0,0-.825-.253,3.053,3.053,0,0,0-1.039.193,3.9,3.9,0,0,0-1.029.566l-.55-1.232a3.44,3.44,0,0,1,1.215-.643,4.955,4.955,0,0,1,1.513-.236,3.48,3.48,0,0,1,1.4.258,2.079,2.079,0,0,1,.919.737,1.941,1.941,0,0,1,.324,1.116A1.908,1.908,0,0,1,22.4-4.653a1.842,1.842,0,0,1-1.017.671V-4.07A1.975,1.975,0,0,1,22.55-3.4a1.954,1.954,0,0,1,.407,1.265,1.934,1.934,0,0,1-.781,1.628A3.427,3.427,0,0,1,20.053.088Z" transform="translate(689 3931)" fill="#0d1214"/>
      <path id="Path_1465" data-name="Path 1465" d="M3.3.088a4.183,4.183,0,0,1-1.557-.27A2.462,2.462,0,0,1,.682-.946,1.877,1.877,0,0,1,.3-2.134,1.776,1.776,0,0,1,.836-3.476,2.52,2.52,0,0,1,2.3-4.114l-.022.176a2.389,2.389,0,0,1-1.3-.655A1.674,1.674,0,0,1,.484-5.808,1.788,1.788,0,0,1,.853-6.941a2.37,2.37,0,0,1,1.007-.732A3.809,3.809,0,0,1,3.3-7.931a3.809,3.809,0,0,1,1.441.258,2.37,2.37,0,0,1,1.007.732,1.788,1.788,0,0,1,.369,1.133,1.682,1.682,0,0,1-.49,1.232,2.271,2.271,0,0,1-1.281.627l-.033-.165A2.528,2.528,0,0,1,5.77-3.46,1.777,1.777,0,0,1,6.3-2.134,1.877,1.877,0,0,1,5.918-.946a2.462,2.462,0,0,1-1.062.765A4.183,4.183,0,0,1,3.3.088Zm0-1.309a1.784,1.784,0,0,0,1.017-.264.882.882,0,0,0,.391-.781.912.912,0,0,0-.4-.781A2.339,2.339,0,0,0,3.3-3.432a2.339,2.339,0,0,0-1.012.385.912.912,0,0,0-.4.781.882.882,0,0,0,.39.781A1.784,1.784,0,0,0,3.3-1.221ZM3.3-4.5a1.828,1.828,0,0,0,.858-.363A.922.922,0,0,0,4.5-5.621a.875.875,0,0,0-.335-.753A1.417,1.417,0,0,0,3.3-6.622a1.417,1.417,0,0,0-.864.248.875.875,0,0,0-.336.753.922.922,0,0,0,.341.759A1.828,1.828,0,0,0,3.3-4.5ZM8.69-3.091A1.727,1.727,0,0,1,7.3-3.7a2.736,2.736,0,0,1-.512-1.8A2.674,2.674,0,0,1,7.3-7.277a1.734,1.734,0,0,1,1.392-.6,1.71,1.71,0,0,1,1.386.605,2.718,2.718,0,0,1,.506,1.782A2.737,2.737,0,0,1,10.076-3.7,1.71,1.71,0,0,1,8.69-3.091Zm0-1.045a.417.417,0,0,0,.39-.308,3.032,3.032,0,0,0,.127-1.045,2.872,2.872,0,0,0-.132-1.034.421.421,0,0,0-.385-.308.426.426,0,0,0-.4.308,2.872,2.872,0,0,0-.132,1.034,2.915,2.915,0,0,0,.132,1.045A.426.426,0,0,0,8.69-4.136ZM8.481,0l4.543-7.832H14.63L10.087,0ZM14.41.044a1.727,1.727,0,0,1-1.391-.605,2.736,2.736,0,0,1-.512-1.8,2.674,2.674,0,0,1,.512-1.776,1.734,1.734,0,0,1,1.391-.6,1.71,1.71,0,0,1,1.386.605A2.718,2.718,0,0,1,16.3-2.354,2.737,2.737,0,0,1,15.8-.561,1.71,1.71,0,0,1,14.41.044ZM14.41-1a.417.417,0,0,0,.391-.308,3.032,3.032,0,0,0,.126-1.045A2.872,2.872,0,0,0,14.8-3.388.421.421,0,0,0,14.41-3.7a.426.426,0,0,0-.4.308,2.872,2.872,0,0,0-.132,1.034,2.915,2.915,0,0,0,.132,1.045A.426.426,0,0,0,14.41-1Z" transform="translate(662 3986)" fill="#cacbcb"/>
      <path id="Path_1450" data-name="Path 1450" d="M2.827-.792V-6.479l.814.077-2.4,1.419V-6.49l2.3-1.342h1v7.04ZM1.133,0V-1.375H6.248V0Zm9.031.1A2.883,2.883,0,0,1,7.81-.913a4.431,4.431,0,0,1-.836-2.893,5.593,5.593,0,0,1,.4-2.211A3.136,3.136,0,0,1,8.509-7.436a3.108,3.108,0,0,1,1.766-.495,4.456,4.456,0,0,1,1.408.226,3.29,3.29,0,0,1,1.166.654l-.561,1.232A3.769,3.769,0,0,0,11.264-6.4a2.742,2.742,0,0,0-.913-.176,1.374,1.374,0,0,0-1.243.7,3.942,3.942,0,0,0-.429,2.04v.4l-.165-.264a1.611,1.611,0,0,1,.38-.726,1.908,1.908,0,0,1,.693-.479,2.3,2.3,0,0,1,.885-.17,2.313,2.313,0,0,1,1.226.325,2.267,2.267,0,0,1,.836.9,2.758,2.758,0,0,1,.3,1.309,2.721,2.721,0,0,1-.341,1.37,2.454,2.454,0,0,1-.946.94A2.774,2.774,0,0,1,10.164.1Zm-.1-1.342a1.1,1.1,0,0,0,.847-.341,1.267,1.267,0,0,0,.319-.9,1.3,1.3,0,0,0-.314-.913,1.1,1.1,0,0,0-.852-.341,1.208,1.208,0,0,0-.611.154,1.053,1.053,0,0,0-.418.44,1.412,1.412,0,0,0-.148.66,1.346,1.346,0,0,0,.148.649,1.107,1.107,0,0,0,.418.434A1.176,1.176,0,0,0,10.065-1.243ZM15.29-3.091A1.727,1.727,0,0,1,13.9-3.7a2.736,2.736,0,0,1-.511-1.8A2.674,2.674,0,0,1,13.9-7.277a1.734,1.734,0,0,1,1.392-.6,1.71,1.71,0,0,1,1.386.605,2.718,2.718,0,0,1,.506,1.782A2.737,2.737,0,0,1,16.676-3.7,1.71,1.71,0,0,1,15.29-3.091Zm0-1.045a.417.417,0,0,0,.391-.308,3.032,3.032,0,0,0,.127-1.045,2.872,2.872,0,0,0-.132-1.034.421.421,0,0,0-.385-.308.426.426,0,0,0-.4.308,2.872,2.872,0,0,0-.132,1.034,2.915,2.915,0,0,0,.132,1.045A.426.426,0,0,0,15.29-4.136ZM15.081,0l4.543-7.832H21.23L16.687,0ZM21.01.044a1.727,1.727,0,0,1-1.392-.605,2.736,2.736,0,0,1-.511-1.8,2.674,2.674,0,0,1,.511-1.776,1.734,1.734,0,0,1,1.392-.6,1.71,1.71,0,0,1,1.386.605A2.718,2.718,0,0,1,22.9-2.354,2.737,2.737,0,0,1,22.4-.561,1.71,1.71,0,0,1,21.01.044ZM21.01-1a.417.417,0,0,0,.391-.308,3.032,3.032,0,0,0,.126-1.045A2.872,2.872,0,0,0,21.4-3.388.421.421,0,0,0,21.01-3.7a.426.426,0,0,0-.4.308,2.872,2.872,0,0,0-.132,1.034,2.915,2.915,0,0,0,.132,1.045A.426.426,0,0,0,21.01-1Z" transform="translate(662 4093)" fill="#ececec"/>
      <path id="Path_1468" data-name="Path 1468" d="M3.234.088A4.783,4.783,0,0,1,1.755-.149,3.216,3.216,0,0,1,.572-.792l.55-1.232a4.233,4.233,0,0,0,1.056.567,3.187,3.187,0,0,0,1.078.193,1.488,1.488,0,0,0,1.029-.314,1.161,1.161,0,0,0,.347-.908,1.348,1.348,0,0,0-.16-.677,1.048,1.048,0,0,0-.462-.429,1.62,1.62,0,0,0-.72-.148,2.293,2.293,0,0,0-.765.137,2.171,2.171,0,0,0-.7.4H.847V-7.832H5.874v1.32H2.519v2.244L2-4.356a2.314,2.314,0,0,1,.775-.533,2.564,2.564,0,0,1,1-.181,2.55,2.55,0,0,1,1.293.319,2.317,2.317,0,0,1,.874.88,2.626,2.626,0,0,1,.319,1.32,2.546,2.546,0,0,1-.374,1.386,2.508,2.508,0,0,1-1.05.924A3.615,3.615,0,0,1,3.234.088ZM10.164.1A2.883,2.883,0,0,1,7.81-.913a4.431,4.431,0,0,1-.836-2.893,5.593,5.593,0,0,1,.4-2.211A3.136,3.136,0,0,1,8.509-7.436a3.108,3.108,0,0,1,1.766-.495,4.456,4.456,0,0,1,1.408.226,3.29,3.29,0,0,1,1.166.654l-.561,1.232A3.769,3.769,0,0,0,11.264-6.4a2.742,2.742,0,0,0-.913-.176,1.374,1.374,0,0,0-1.243.7,3.942,3.942,0,0,0-.429,2.04v.4l-.165-.264a1.611,1.611,0,0,1,.38-.726,1.908,1.908,0,0,1,.693-.479,2.3,2.3,0,0,1,.885-.17,2.313,2.313,0,0,1,1.226.325,2.267,2.267,0,0,1,.836.9,2.758,2.758,0,0,1,.3,1.309,2.721,2.721,0,0,1-.341,1.37,2.454,2.454,0,0,1-.946.94A2.774,2.774,0,0,1,10.164.1Zm-.1-1.342a1.1,1.1,0,0,0,.847-.341,1.267,1.267,0,0,0,.319-.9,1.3,1.3,0,0,0-.314-.913,1.1,1.1,0,0,0-.852-.341,1.208,1.208,0,0,0-.611.154,1.053,1.053,0,0,0-.418.44,1.412,1.412,0,0,0-.148.66,1.346,1.346,0,0,0,.148.649,1.107,1.107,0,0,0,.418.434A1.176,1.176,0,0,0,10.065-1.243ZM15.29-3.091A1.727,1.727,0,0,1,13.9-3.7a2.736,2.736,0,0,1-.511-1.8A2.674,2.674,0,0,1,13.9-7.277a1.734,1.734,0,0,1,1.392-.6,1.71,1.71,0,0,1,1.386.605,2.718,2.718,0,0,1,.506,1.782A2.737,2.737,0,0,1,16.676-3.7,1.71,1.71,0,0,1,15.29-3.091Zm0-1.045a.417.417,0,0,0,.391-.308,3.032,3.032,0,0,0,.127-1.045,2.872,2.872,0,0,0-.132-1.034.421.421,0,0,0-.385-.308.426.426,0,0,0-.4.308,2.872,2.872,0,0,0-.132,1.034,2.915,2.915,0,0,0,.132,1.045A.426.426,0,0,0,15.29-4.136ZM15.081,0l4.543-7.832H21.23L16.687,0ZM21.01.044a1.727,1.727,0,0,1-1.392-.605,2.736,2.736,0,0,1-.511-1.8,2.674,2.674,0,0,1,.511-1.776,1.734,1.734,0,0,1,1.392-.6,1.71,1.71,0,0,1,1.386.605A2.718,2.718,0,0,1,22.9-2.354,2.737,2.737,0,0,1,22.4-.561,1.71,1.71,0,0,1,21.01.044ZM21.01-1a.417.417,0,0,0,.391-.308,3.032,3.032,0,0,0,.126-1.045A2.872,2.872,0,0,0,21.4-3.388.421.421,0,0,0,21.01-3.7a.426.426,0,0,0-.4.308,2.872,2.872,0,0,0-.132,1.034,2.915,2.915,0,0,0,.132,1.045A.426.426,0,0,0,21.01-1Z" transform="translate(402 4245)" fill="#ececec"/>
      <path id="Path_1443" data-name="Path 1443" d="M2.827-.792V-6.479l.814.077-2.4,1.419V-6.49l2.3-1.342h1v7.04ZM1.133,0V-1.375H6.248V0Zm9.031.1A2.883,2.883,0,0,1,7.81-.913a4.431,4.431,0,0,1-.836-2.893,5.593,5.593,0,0,1,.4-2.211A3.136,3.136,0,0,1,8.509-7.436a3.108,3.108,0,0,1,1.766-.495,4.456,4.456,0,0,1,1.408.226,3.29,3.29,0,0,1,1.166.654l-.561,1.232A3.769,3.769,0,0,0,11.264-6.4a2.742,2.742,0,0,0-.913-.176,1.374,1.374,0,0,0-1.243.7,3.942,3.942,0,0,0-.429,2.04v.4l-.165-.264a1.611,1.611,0,0,1,.38-.726,1.908,1.908,0,0,1,.693-.479,2.3,2.3,0,0,1,.885-.17,2.313,2.313,0,0,1,1.226.325,2.267,2.267,0,0,1,.836.9,2.758,2.758,0,0,1,.3,1.309,2.721,2.721,0,0,1-.341,1.37,2.454,2.454,0,0,1-.946.94A2.774,2.774,0,0,1,10.164.1Zm-.1-1.342a1.1,1.1,0,0,0,.847-.341,1.267,1.267,0,0,0,.319-.9,1.3,1.3,0,0,0-.314-.913,1.1,1.1,0,0,0-.852-.341,1.208,1.208,0,0,0-.611.154,1.053,1.053,0,0,0-.418.44,1.412,1.412,0,0,0-.148.66,1.346,1.346,0,0,0,.148.649,1.107,1.107,0,0,0,.418.434A1.176,1.176,0,0,0,10.065-1.243ZM15.29-3.091A1.727,1.727,0,0,1,13.9-3.7a2.736,2.736,0,0,1-.511-1.8A2.674,2.674,0,0,1,13.9-7.277a1.734,1.734,0,0,1,1.392-.6,1.71,1.71,0,0,1,1.386.605,2.718,2.718,0,0,1,.506,1.782A2.737,2.737,0,0,1,16.676-3.7,1.71,1.71,0,0,1,15.29-3.091Zm0-1.045a.417.417,0,0,0,.391-.308,3.032,3.032,0,0,0,.127-1.045,2.872,2.872,0,0,0-.132-1.034.421.421,0,0,0-.385-.308.426.426,0,0,0-.4.308,2.872,2.872,0,0,0-.132,1.034,2.915,2.915,0,0,0,.132,1.045A.426.426,0,0,0,15.29-4.136ZM15.081,0l4.543-7.832H21.23L16.687,0ZM21.01.044a1.727,1.727,0,0,1-1.392-.605,2.736,2.736,0,0,1-.511-1.8,2.674,2.674,0,0,1,.511-1.776,1.734,1.734,0,0,1,1.392-.6,1.71,1.71,0,0,1,1.386.605A2.718,2.718,0,0,1,22.9-2.354,2.737,2.737,0,0,1,22.4-.561,1.71,1.71,0,0,1,21.01.044ZM21.01-1a.417.417,0,0,0,.391-.308,3.032,3.032,0,0,0,.126-1.045A2.872,2.872,0,0,0,21.4-3.388.421.421,0,0,0,21.01-3.7a.426.426,0,0,0-.4.308,2.872,2.872,0,0,0-.132,1.034,2.915,2.915,0,0,0,.132,1.045A.426.426,0,0,0,21.01-1Z" transform="translate(662 4245)" fill="#ececec"/>
      <path id="Path_1439" data-name="Path 1439" d="M2.827-.792V-6.479l.814.077-2.4,1.419V-6.49l2.3-1.342h1v7.04ZM1.133,0V-1.375H6.248V0Zm9.031.1A2.883,2.883,0,0,1,7.81-.913a4.431,4.431,0,0,1-.836-2.893,5.593,5.593,0,0,1,.4-2.211A3.136,3.136,0,0,1,8.509-7.436a3.108,3.108,0,0,1,1.766-.495,4.456,4.456,0,0,1,1.408.226,3.29,3.29,0,0,1,1.166.654l-.561,1.232A3.769,3.769,0,0,0,11.264-6.4a2.742,2.742,0,0,0-.913-.176,1.374,1.374,0,0,0-1.243.7,3.942,3.942,0,0,0-.429,2.04v.4l-.165-.264a1.611,1.611,0,0,1,.38-.726,1.908,1.908,0,0,1,.693-.479,2.3,2.3,0,0,1,.885-.17,2.313,2.313,0,0,1,1.226.325,2.267,2.267,0,0,1,.836.9,2.758,2.758,0,0,1,.3,1.309,2.721,2.721,0,0,1-.341,1.37,2.454,2.454,0,0,1-.946.94A2.774,2.774,0,0,1,10.164.1Zm-.1-1.342a1.1,1.1,0,0,0,.847-.341,1.267,1.267,0,0,0,.319-.9,1.3,1.3,0,0,0-.314-.913,1.1,1.1,0,0,0-.852-.341,1.208,1.208,0,0,0-.611.154,1.053,1.053,0,0,0-.418.44,1.412,1.412,0,0,0-.148.66,1.346,1.346,0,0,0,.148.649,1.107,1.107,0,0,0,.418.434A1.176,1.176,0,0,0,10.065-1.243ZM15.29-3.091A1.727,1.727,0,0,1,13.9-3.7a2.736,2.736,0,0,1-.511-1.8A2.674,2.674,0,0,1,13.9-7.277a1.734,1.734,0,0,1,1.392-.6,1.71,1.71,0,0,1,1.386.605,2.718,2.718,0,0,1,.506,1.782A2.737,2.737,0,0,1,16.676-3.7,1.71,1.71,0,0,1,15.29-3.091Zm0-1.045a.417.417,0,0,0,.391-.308,3.032,3.032,0,0,0,.127-1.045,2.872,2.872,0,0,0-.132-1.034.421.421,0,0,0-.385-.308.426.426,0,0,0-.4.308,2.872,2.872,0,0,0-.132,1.034,2.915,2.915,0,0,0,.132,1.045A.426.426,0,0,0,15.29-4.136ZM15.081,0l4.543-7.832H21.23L16.687,0ZM21.01.044a1.727,1.727,0,0,1-1.392-.605,2.736,2.736,0,0,1-.511-1.8,2.674,2.674,0,0,1,.511-1.776,1.734,1.734,0,0,1,1.392-.6,1.71,1.71,0,0,1,1.386.605A2.718,2.718,0,0,1,22.9-2.354,2.737,2.737,0,0,1,22.4-.561,1.71,1.71,0,0,1,21.01.044ZM21.01-1a.417.417,0,0,0,.391-.308,3.032,3.032,0,0,0,.126-1.045A2.872,2.872,0,0,0,21.4-3.388.421.421,0,0,0,21.01-3.7a.426.426,0,0,0-.4.308,2.872,2.872,0,0,0-.132,1.034,2.915,2.915,0,0,0,.132,1.045A.426.426,0,0,0,21.01-1Z" transform="translate(770 4245)" fill="#ececec"/>
      <path id="Path_1466" data-name="Path 1466" d="M3.3.088a4.183,4.183,0,0,1-1.557-.27A2.462,2.462,0,0,1,.682-.946,1.877,1.877,0,0,1,.3-2.134,1.776,1.776,0,0,1,.836-3.476,2.52,2.52,0,0,1,2.3-4.114l-.022.176a2.389,2.389,0,0,1-1.3-.655A1.674,1.674,0,0,1,.484-5.808,1.788,1.788,0,0,1,.853-6.941a2.37,2.37,0,0,1,1.007-.732A3.809,3.809,0,0,1,3.3-7.931a3.809,3.809,0,0,1,1.441.258,2.37,2.37,0,0,1,1.007.732,1.788,1.788,0,0,1,.369,1.133,1.682,1.682,0,0,1-.49,1.232,2.271,2.271,0,0,1-1.281.627l-.033-.165A2.528,2.528,0,0,1,5.77-3.46,1.777,1.777,0,0,1,6.3-2.134,1.877,1.877,0,0,1,5.918-.946a2.462,2.462,0,0,1-1.062.765A4.183,4.183,0,0,1,3.3.088Zm0-1.309a1.784,1.784,0,0,0,1.017-.264.882.882,0,0,0,.391-.781.912.912,0,0,0-.4-.781A2.339,2.339,0,0,0,3.3-3.432a2.339,2.339,0,0,0-1.012.385.912.912,0,0,0-.4.781.882.882,0,0,0,.39.781A1.784,1.784,0,0,0,3.3-1.221ZM3.3-4.5a1.828,1.828,0,0,0,.858-.363A.922.922,0,0,0,4.5-5.621a.875.875,0,0,0-.335-.753A1.417,1.417,0,0,0,3.3-6.622a1.417,1.417,0,0,0-.864.248.875.875,0,0,0-.336.753.922.922,0,0,0,.341.759A1.828,1.828,0,0,0,3.3-4.5ZM8.69-3.091A1.727,1.727,0,0,1,7.3-3.7a2.736,2.736,0,0,1-.512-1.8A2.674,2.674,0,0,1,7.3-7.277a1.734,1.734,0,0,1,1.392-.6,1.71,1.71,0,0,1,1.386.605,2.718,2.718,0,0,1,.506,1.782A2.737,2.737,0,0,1,10.076-3.7,1.71,1.71,0,0,1,8.69-3.091Zm0-1.045a.417.417,0,0,0,.39-.308,3.032,3.032,0,0,0,.127-1.045,2.872,2.872,0,0,0-.132-1.034.421.421,0,0,0-.385-.308.426.426,0,0,0-.4.308,2.872,2.872,0,0,0-.132,1.034,2.915,2.915,0,0,0,.132,1.045A.426.426,0,0,0,8.69-4.136ZM8.481,0l4.543-7.832H14.63L10.087,0ZM14.41.044a1.727,1.727,0,0,1-1.391-.605,2.736,2.736,0,0,1-.512-1.8,2.674,2.674,0,0,1,.512-1.776,1.734,1.734,0,0,1,1.391-.6,1.71,1.71,0,0,1,1.386.605A2.718,2.718,0,0,1,16.3-2.354,2.737,2.737,0,0,1,15.8-.561,1.71,1.71,0,0,1,14.41.044ZM14.41-1a.417.417,0,0,0,.391-.308,3.032,3.032,0,0,0,.126-1.045A2.872,2.872,0,0,0,14.8-3.388.421.421,0,0,0,14.41-3.7a.426.426,0,0,0-.4.308,2.872,2.872,0,0,0-.132,1.034,2.915,2.915,0,0,0,.132,1.045A.426.426,0,0,0,14.41-1Z" transform="translate(876 3986)" fill="#cacbcb"/>
      <path id="Path_1467" data-name="Path 1467" d="M2.827-.792V-6.479l.814.077-2.4,1.419V-6.49l2.3-1.342h1v7.04ZM1.133,0V-1.375H6.248V0Zm9.031.1A2.883,2.883,0,0,1,7.81-.913a4.431,4.431,0,0,1-.836-2.893,5.593,5.593,0,0,1,.4-2.211A3.136,3.136,0,0,1,8.509-7.436a3.108,3.108,0,0,1,1.766-.495,4.456,4.456,0,0,1,1.408.226,3.29,3.29,0,0,1,1.166.654l-.561,1.232A3.769,3.769,0,0,0,11.264-6.4a2.742,2.742,0,0,0-.913-.176,1.374,1.374,0,0,0-1.243.7,3.942,3.942,0,0,0-.429,2.04v.4l-.165-.264a1.611,1.611,0,0,1,.38-.726,1.908,1.908,0,0,1,.693-.479,2.3,2.3,0,0,1,.885-.17,2.313,2.313,0,0,1,1.226.325,2.267,2.267,0,0,1,.836.9,2.758,2.758,0,0,1,.3,1.309,2.721,2.721,0,0,1-.341,1.37,2.454,2.454,0,0,1-.946.94A2.774,2.774,0,0,1,10.164.1Zm-.1-1.342a1.1,1.1,0,0,0,.847-.341,1.267,1.267,0,0,0,.319-.9,1.3,1.3,0,0,0-.314-.913,1.1,1.1,0,0,0-.852-.341,1.208,1.208,0,0,0-.611.154,1.053,1.053,0,0,0-.418.44,1.412,1.412,0,0,0-.148.66,1.346,1.346,0,0,0,.148.649,1.107,1.107,0,0,0,.418.434A1.176,1.176,0,0,0,10.065-1.243ZM15.29-3.091A1.727,1.727,0,0,1,13.9-3.7a2.736,2.736,0,0,1-.511-1.8A2.674,2.674,0,0,1,13.9-7.277a1.734,1.734,0,0,1,1.392-.6,1.71,1.71,0,0,1,1.386.605,2.718,2.718,0,0,1,.506,1.782A2.737,2.737,0,0,1,16.676-3.7,1.71,1.71,0,0,1,15.29-3.091Zm0-1.045a.417.417,0,0,0,.391-.308,3.032,3.032,0,0,0,.127-1.045,2.872,2.872,0,0,0-.132-1.034.421.421,0,0,0-.385-.308.426.426,0,0,0-.4.308,2.872,2.872,0,0,0-.132,1.034,2.915,2.915,0,0,0,.132,1.045A.426.426,0,0,0,15.29-4.136ZM15.081,0l4.543-7.832H21.23L16.687,0ZM21.01.044a1.727,1.727,0,0,1-1.392-.605,2.736,2.736,0,0,1-.511-1.8,2.674,2.674,0,0,1,.511-1.776,1.734,1.734,0,0,1,1.392-.6,1.71,1.71,0,0,1,1.386.605A2.718,2.718,0,0,1,22.9-2.354,2.737,2.737,0,0,1,22.4-.561,1.71,1.71,0,0,1,21.01.044ZM21.01-1a.417.417,0,0,0,.391-.308,3.032,3.032,0,0,0,.126-1.045A2.872,2.872,0,0,0,21.4-3.388.421.421,0,0,0,21.01-3.7a.426.426,0,0,0-.4.308,2.872,2.872,0,0,0-.132,1.034,2.915,2.915,0,0,0,.132,1.045A.426.426,0,0,0,21.01-1Z" transform="translate(769 3986)" fill="#cacbcb"/>
      <g transform="matrix(1, 0, 0, 1, 336, 3855)" filter="url(#Path_1459)">
        <g id="Path_1459-2" data-name="Path 1459" transform="translate(530 55)" fill="#fff">
          <path d="M0,0H89V44.5H0Z" stroke="none"/>
          <path d="M 0.5 0.5 L 0.5 44 L 88.5 44 L 88.5 0.5 L 0.5 0.5 M 0 0 L 89 0 L 89 44.5 L 0 44.5 L 0 0 Z" stroke="none" fill="rgba(255,255,255,0.2)"/>
        </g>
      </g>
      <g transform="matrix(1, 0, 0, 1, 336, 3855)" filter="url(#Rectangle_503)">
        <g id="Rectangle_503-2" data-name="Rectangle 503" transform="translate(530 55)" fill="#fff" stroke="rgba(255,255,255,0.2)" stroke-width="0.5" opacity="0.16">
          <rect width="89" height="89" stroke="none"/>
          <rect x="0.25" y="0.25" width="88.5" height="88.5" fill="none"/>
        </g>
      </g>
      <path id="Path_1460" data-name="Path 1460" d="M3.157,0,4.708-7.832H5.819L4.268,0ZM.55-1.837V-2.871H5.874v1.034ZM.847,0,2.4-7.832H3.509L1.958,0ZM.792-5.049V-6.083H6.127v1.034ZM7.447,0V-7.832h5.28v1.364H9.141v1.815h3.366V-3.3H9.141V0Zm6.358,0V-7.832h5.28v1.364H15.5v1.815h3.366V-3.3H15.5V0Zm6.358,0V-7.832h5.28v1.364H21.857v1.815h3.366V-3.3H21.857V0Z" transform="translate(879 3931)" fill="#0d1214"/>
      <path id="Path_1455" data-name="Path 1455" d="M-19.838,0l1.54-7.832h.957L-18.882,0Zm-2.783-1.9v-.891h5.456V-1.9ZM-22.2,0l1.54-7.832h.957L-21.246,0Zm-.176-5.126v-.891h5.456v.891Zm9.1,5.2A4.921,4.921,0,0,1-14.806-.16a3.255,3.255,0,0,1-1.2-.666l.484-1.034a3.963,3.963,0,0,0,1.062.611,3.2,3.2,0,0,0,1.127.2,1.778,1.778,0,0,0,1.122-.291,1.094,1.094,0,0,0,.363-.908,1.037,1.037,0,0,0-.374-.88,1.9,1.9,0,0,0-1.155-.286h-1.034V-4.532h.847a1.881,1.881,0,0,0,1.139-.286,1.006,1.006,0,0,0,.379-.858,1.046,1.046,0,0,0-.33-.836,1.349,1.349,0,0,0-.913-.286,3.033,3.033,0,0,0-1.078.2,3.828,3.828,0,0,0-1.045.61L-15.9-7.018a3.417,3.417,0,0,1,1.2-.66,4.666,4.666,0,0,1,1.485-.242,3.256,3.256,0,0,1,1.337.253,1.985,1.985,0,0,1,.875.721A1.944,1.944,0,0,1-10.7-5.852a1.948,1.948,0,0,1-.363,1.194,1.912,1.912,0,0,1-1.023.687l-.011-.11a2.073,2.073,0,0,1,1.182.677A1.948,1.948,0,0,1-10.5-2.123a1.934,1.934,0,0,1-.753,1.612A3.211,3.211,0,0,1-13.282.077Zm6.743,0A4.518,4.518,0,0,1-7.986-.165a3.305,3.305,0,0,1-1.182-.66L-8.7-1.859a4.451,4.451,0,0,0,1.073.605,3.062,3.062,0,0,0,1.106.209A1.586,1.586,0,0,0-5.4-1.413,1.364,1.364,0,0,0-5-2.464a1.51,1.51,0,0,0-.181-.759,1.255,1.255,0,0,0-.512-.5,1.637,1.637,0,0,0-.781-.176,2.2,2.2,0,0,0-.858.17,2.286,2.286,0,0,0-.737.5h-.847V-7.832h4.906v1.111h-3.52v2.585L-7.958-4.2a2.2,2.2,0,0,1,.792-.605,2.509,2.509,0,0,1,1.045-.209A2.55,2.55,0,0,1-4.829-4.7a2.277,2.277,0,0,1,.869.88,2.639,2.639,0,0,1,.314,1.309A2.564,2.564,0,0,1-4-1.15,2.379,2.379,0,0,1-5-.242,3.421,3.421,0,0,1-6.539.077Zm6.457,0A4.921,4.921,0,0,1-1.606-.16a3.255,3.255,0,0,1-1.2-.666l.484-1.034a3.963,3.963,0,0,0,1.062.611,3.2,3.2,0,0,0,1.127.2A1.778,1.778,0,0,0,.984-1.337a1.094,1.094,0,0,0,.363-.908,1.037,1.037,0,0,0-.374-.88A1.9,1.9,0,0,0-.181-3.41H-1.215V-4.532h.847A1.881,1.881,0,0,0,.77-4.818a1.006,1.006,0,0,0,.38-.858,1.046,1.046,0,0,0-.33-.836A1.349,1.349,0,0,0-.093-6.8a3.033,3.033,0,0,0-1.078.2,3.828,3.828,0,0,0-1.045.61L-2.7-7.018a3.417,3.417,0,0,1,1.2-.66A4.666,4.666,0,0,1-.016-7.92a3.256,3.256,0,0,1,1.337.253,1.985,1.985,0,0,1,.874.721A1.944,1.944,0,0,1,2.5-5.852,1.948,1.948,0,0,1,2.14-4.659a1.912,1.912,0,0,1-1.023.687l-.011-.11A2.073,2.073,0,0,1,2.288-3.4,1.948,1.948,0,0,1,2.7-2.123,1.934,1.934,0,0,1,1.947-.512,3.211,3.211,0,0,1-.082.077ZM4.208,0V-7.832H9.444v1.111H5.594v2.178h3.63v1.122H5.594v2.31h3.85V0Zm9.526,0V-6.083h.33L11.358-2.2l.011-.451h4.873V-1.54H10.335V-2.585L14-7.832h1.133V0Zm6.072.088A2.456,2.456,0,0,1,17.683-.935a5.066,5.066,0,0,1-.737-2.981A5.1,5.1,0,0,1,17.677-6.9,2.453,2.453,0,0,1,19.806-7.92,2.453,2.453,0,0,1,21.934-6.9a5.073,5.073,0,0,1,.731,2.97,5.089,5.089,0,0,1-.737,2.992A2.456,2.456,0,0,1,19.806.088Zm0-1.1a1.167,1.167,0,0,0,1.111-.7,5.2,5.2,0,0,0,.352-2.217,5.049,5.049,0,0,0-.352-2.189A1.169,1.169,0,0,0,19.806-6.8a1.168,1.168,0,0,0-1.111.688,5.055,5.055,0,0,0-.352,2.184,5.2,5.2,0,0,0,.352,2.217A1.167,1.167,0,0,0,19.806-1.012Z" transform="translate(690 4038)" fill="#ececec"/>
      <path id="Path_1428" data-name="Path 1428" d="M4.584-8.4a4.65,4.65,0,0,1,1.9.36A2.766,2.766,0,0,1,7.728-7.008a2.887,2.887,0,0,1,.432,1.6,2.9,2.9,0,0,1-.432,1.59A2.752,2.752,0,0,1,6.486-2.784a4.65,4.65,0,0,1-1.9.36h-1.9V0H1.128V-8.4ZM4.512-3.744A2.4,2.4,0,0,0,6.06-4.176a1.506,1.506,0,0,0,.528-1.236A1.506,1.506,0,0,0,6.06-6.648,2.4,2.4,0,0,0,4.512-7.08H2.688v3.336ZM15.216,0,13.5-2.46a3.2,3.2,0,0,1-.324.012h-1.9V0H9.72V-8.4h3.456a4.65,4.65,0,0,1,1.9.36A2.766,2.766,0,0,1,16.32-7.008a2.887,2.887,0,0,1,.432,1.6A2.846,2.846,0,0,1,16.29-3.78a2.749,2.749,0,0,1-1.326,1.02L16.9,0ZM15.18-5.412a1.506,1.506,0,0,0-.528-1.236A2.4,2.4,0,0,0,13.1-7.08H11.28v3.348H13.1a2.373,2.373,0,0,0,1.548-.438A1.523,1.523,0,0,0,15.18-5.412ZM18.492-8.4h1.56V0h-1.56ZM30.036,0l-.012-5.568L27.264-.96h-.7L23.808-5.5V0H22.32V-8.4H23.6L26.94-2.832,30.216-8.4H31.5L31.512,0Zm9.192-1.944h-4.2L34.2,0H32.592l3.78-8.4h1.536L41.7,0H40.068Zm-.516-1.224L37.128-6.84,35.556-3.168ZM48.264,0,46.548-2.46a3.2,3.2,0,0,1-.324.012h-1.9V0h-1.56V-8.4h3.456a4.65,4.65,0,0,1,1.9.36,2.766,2.766,0,0,1,1.242,1.032,2.887,2.887,0,0,1,.432,1.6,2.846,2.846,0,0,1-.462,1.632,2.749,2.749,0,0,1-1.326,1.02L49.944,0Zm-.036-5.412A1.506,1.506,0,0,0,47.7-6.648a2.4,2.4,0,0,0-1.548-.432H44.328v3.348h1.824A2.373,2.373,0,0,0,47.7-4.17,1.523,1.523,0,0,0,48.228-5.412Zm6.816,2.448V0h-1.56V-2.94l-3.3-5.46h1.668l2.46,4.092L56.8-8.4h1.536Z" transform="translate(393 3897)" fill="#f1f1f1" opacity="0.83"/>
      <g transform="matrix(1, 0, 0, 1, 336, 3855)" filter="url(#Rectangle_489)">
        <g id="Rectangle_489-3" data-name="Rectangle 489" transform="translate(163 162)" fill="#0d1214" stroke="rgba(255,255,255,0.2)" stroke-width="0.5">
          <rect width="89" height="89" stroke="none"/>
          <rect x="0.25" y="0.25" width="88.5" height="88.5" fill="none"/>
        </g>
      </g>
      <path id="Path_1451" data-name="Path 1451" d="M-20.751,0l1.54-7.832h.957L-19.794,0Zm-2.783-1.9v-.891h5.456V-1.9Zm.418,1.9,1.54-7.832h.957L-22.16,0Zm-.176-5.126v-.891h5.456v.891Zm9.24,5.214A2.456,2.456,0,0,1-16.175-.935a5.066,5.066,0,0,1-.737-2.981A5.1,5.1,0,0,1-16.181-6.9,2.453,2.453,0,0,1-14.052-7.92,2.453,2.453,0,0,1-11.924-6.9a5.073,5.073,0,0,1,.731,2.97,5.089,5.089,0,0,1-.737,2.992A2.456,2.456,0,0,1-14.052.088Zm0-1.1a1.167,1.167,0,0,0,1.111-.7,5.2,5.2,0,0,0,.352-2.217,5.049,5.049,0,0,0-.352-2.189A1.169,1.169,0,0,0-14.052-6.8a1.168,1.168,0,0,0-1.111.688,5.055,5.055,0,0,0-.352,2.184,5.2,5.2,0,0,0,.352,2.217A1.167,1.167,0,0,0-14.052-1.012ZM-9.905,0V-7.832h2.882a4.756,4.756,0,0,1,2.189.462,3.2,3.2,0,0,1,1.38,1.337,4.33,4.33,0,0,1,.479,2.106A4.387,4.387,0,0,1-3.454-1.8,3.183,3.183,0,0,1-4.84-.462,4.764,4.764,0,0,1-7.023,0Zm1.419-1.155h1.375a2.716,2.716,0,0,0,2.03-.693,2.866,2.866,0,0,0,.676-2.079,2.411,2.411,0,0,0-2.706-2.75H-8.486ZM.556-.649V-6.787l.715.154-2.3,1.386V-6.512L1.15-7.832h.825V-.649ZM-1.149,0V-1.144h4.84V0Zm6.16,0V-1.045L7.662-3.916a4.674,4.674,0,0,0,.682-.946,1.846,1.846,0,0,0,.22-.847,1.035,1.035,0,0,0-.308-.814A1.3,1.3,0,0,0,7.365-6.8a2.961,2.961,0,0,0-1.061.2,4.2,4.2,0,0,0-1.062.61L4.758-7.018a3.417,3.417,0,0,1,1.2-.66A4.633,4.633,0,0,1,7.431-7.92a3.3,3.3,0,0,1,1.342.253,1.955,1.955,0,0,1,.88.732A2.058,2.058,0,0,1,9.961-5.8a2.868,2.868,0,0,1-.286,1.27A5.763,5.763,0,0,1,8.707-3.2L6.32-.671l-.165-.473h4.1V0Zm8.745-.649V-6.787l.715.154-2.3,1.386V-6.512l2.178-1.32h.825V-.649ZM12.051,0V-1.144h4.84V0Zm9.2,0V-6.083h.33L18.871-2.2l.011-.451h4.873V-1.54H17.848V-2.585l3.663-5.247h1.133V0Z" transform="translate(536 4038)" fill="#ececec"/>
      <g transform="matrix(1, 0, 0, 1, 336, 3855)" filter="url(#Rectangle_496)">
        <g id="Rectangle_496-2" data-name="Rectangle 496" transform="translate(56 162)" fill="rgba(0,0,0,0.4)" stroke="rgba(255,255,255,0.2)" stroke-width="0.5">
          <rect width="89" height="89" stroke="none"/>
          <rect x="0.25" y="0.25" width="88.5" height="88.5" fill="none"/>
        </g>
      </g>
      <path id="Path_1454" data-name="Path 1454" d="M3.267,0l1.54-7.832h.957L4.224,0ZM.484-1.9v-.891H5.94V-1.9ZM.9,0l1.54-7.832H3.4L1.859,0ZM.726-5.126v-.891H6.182v.891ZM9.966.088A2.456,2.456,0,0,1,7.843-.935a5.066,5.066,0,0,1-.737-2.981A5.1,5.1,0,0,1,7.838-6.9,2.453,2.453,0,0,1,9.966-7.92,2.453,2.453,0,0,1,12.094-6.9a5.073,5.073,0,0,1,.732,2.97,5.089,5.089,0,0,1-.737,2.992A2.456,2.456,0,0,1,9.966.088Zm0-1.1a1.167,1.167,0,0,0,1.111-.7,5.2,5.2,0,0,0,.352-2.217,5.049,5.049,0,0,0-.352-2.189A1.169,1.169,0,0,0,9.966-6.8a1.168,1.168,0,0,0-1.111.688A5.055,5.055,0,0,0,8.5-3.927a5.2,5.2,0,0,0,.352,2.217A1.167,1.167,0,0,0,9.966-1.012Zm6.6,1.1A2.456,2.456,0,0,1,14.443-.935a5.066,5.066,0,0,1-.737-2.981A5.1,5.1,0,0,1,14.438-6.9,2.453,2.453,0,0,1,16.566-7.92,2.453,2.453,0,0,1,18.694-6.9a5.073,5.073,0,0,1,.731,2.97,5.089,5.089,0,0,1-.737,2.992A2.456,2.456,0,0,1,16.566.088Zm0-1.1a1.167,1.167,0,0,0,1.111-.7,5.2,5.2,0,0,0,.352-2.217,5.049,5.049,0,0,0-.352-2.189A1.169,1.169,0,0,0,16.566-6.8a1.168,1.168,0,0,0-1.111.688A5.055,5.055,0,0,0,15.1-3.927a5.2,5.2,0,0,0,.352,2.217A1.167,1.167,0,0,0,16.566-1.012Zm6.6,1.1A2.456,2.456,0,0,1,21.043-.935a5.066,5.066,0,0,1-.737-2.981A5.1,5.1,0,0,1,21.037-6.9,2.453,2.453,0,0,1,23.166-7.92,2.453,2.453,0,0,1,25.294-6.9a5.073,5.073,0,0,1,.732,2.97,5.089,5.089,0,0,1-.737,2.992A2.456,2.456,0,0,1,23.166.088Zm0-1.1a1.167,1.167,0,0,0,1.111-.7,5.2,5.2,0,0,0,.352-2.217,5.049,5.049,0,0,0-.352-2.189A1.169,1.169,0,0,0,23.166-6.8a1.168,1.168,0,0,0-1.111.688A5.055,5.055,0,0,0,21.7-3.927a5.2,5.2,0,0,0,.352,2.217A1.167,1.167,0,0,0,23.166-1.012ZM31.966,2A12.5,12.5,0,0,1,31.168.3a8.756,8.756,0,0,1-.434-1.6A9.788,9.788,0,0,1,30.6-2.926,9.6,9.6,0,0,1,30.74-4.56a9.177,9.177,0,0,1,.434-1.606,10.265,10.265,0,0,1,.8-1.667h1.111a16.417,16.417,0,0,0-.66,1.865A10.532,10.532,0,0,0,32.109-4.4a12.422,12.422,0,0,0-.088,1.474,12.422,12.422,0,0,0,.088,1.474A10.851,10.851,0,0,0,32.428.127,18.7,18.7,0,0,0,33.066,2Zm5.247-2V-6.083h.33L34.837-2.2l.011-.451h4.873V-1.54H33.814V-2.585l3.663-5.247H38.61V0Zm6.072.088A2.456,2.456,0,0,1,41.162-.935a5.066,5.066,0,0,1-.737-2.981A5.1,5.1,0,0,1,41.156-6.9,2.453,2.453,0,0,1,43.285-7.92,2.453,2.453,0,0,1,45.413-6.9a5.073,5.073,0,0,1,.731,2.97,5.089,5.089,0,0,1-.737,2.992A2.456,2.456,0,0,1,43.285.088Zm0-1.1a1.167,1.167,0,0,0,1.111-.7,5.2,5.2,0,0,0,.352-2.217A5.049,5.049,0,0,0,44.4-6.116,1.169,1.169,0,0,0,43.285-6.8a1.168,1.168,0,0,0-1.111.688,5.055,5.055,0,0,0-.352,2.184,5.2,5.2,0,0,0,.352,2.217A1.167,1.167,0,0,0,43.285-1.012Zm5.39-2.079a1.649,1.649,0,0,1-1.342-.6,2.777,2.777,0,0,1-.5-1.8,2.753,2.753,0,0,1,.5-1.793,1.655,1.655,0,0,1,1.342-.594,1.655,1.655,0,0,1,1.342.594,2.753,2.753,0,0,1,.5,1.793,2.8,2.8,0,0,1-.49,1.8A1.645,1.645,0,0,1,48.675-3.091Zm0-.891a.536.536,0,0,0,.506-.352,2.928,2.928,0,0,0,.165-1.155,2.806,2.806,0,0,0-.171-1.144.539.539,0,0,0-.5-.352.536.536,0,0,0-.506.352A2.89,2.89,0,0,0,48-5.489a2.928,2.928,0,0,0,.165,1.155A.536.536,0,0,0,48.675-3.982ZM48.488,0l4.543-7.832h1.32L49.819,0Zm5.676.044a1.649,1.649,0,0,1-1.342-.6,2.777,2.777,0,0,1-.495-1.8,2.753,2.753,0,0,1,.495-1.793,1.655,1.655,0,0,1,1.342-.594,1.655,1.655,0,0,1,1.342.594A2.753,2.753,0,0,1,56-2.354a2.8,2.8,0,0,1-.489,1.8A1.645,1.645,0,0,1,54.164.044Zm0-.891A.536.536,0,0,0,54.67-1.2a2.928,2.928,0,0,0,.165-1.155,2.806,2.806,0,0,0-.17-1.144.539.539,0,0,0-.5-.352.536.536,0,0,0-.506.352,2.89,2.89,0,0,0-.165,1.144A2.928,2.928,0,0,0,53.658-1.2.536.536,0,0,0,54.164-.847ZM57.662,2H56.573A17.68,17.68,0,0,0,57.205.127a11.926,11.926,0,0,0,.319-1.579,11.7,11.7,0,0,0,.093-1.474A12.422,12.422,0,0,0,57.53-4.4a10.532,10.532,0,0,0-.319-1.568,17.7,17.7,0,0,0-.649-1.865h1.111a10.314,10.314,0,0,1,1.051,2.475,9.487,9.487,0,0,1,.313,2.431A9.788,9.788,0,0,1,58.9-1.3,8.756,8.756,0,0,1,58.47.3,11.8,11.8,0,0,1,57.662,2Z" transform="translate(405 4038)" fill="#ececec"/>
      <g transform="matrix(1, 0, 0, 1, 336, 3855)" filter="url(#Rectangle_489-2)">
        <g id="Rectangle_489-4" data-name="Rectangle 489" transform="translate(163 55)" stroke="rgba(255,255,255,0.2)" stroke-width="0.5" fill="url(#linear-gradient)">
          <rect width="89" height="89" stroke="none"/>
          <rect x="0.25" y="0.25" width="88.5" height="88.5" fill="none"/>
        </g>
      </g>
      <path id="Path_1461" data-name="Path 1461" d="M-20.361,0l1.54-7.832h.957L-19.4,0Zm-2.783-1.9v-.891h5.456V-1.9Zm.418,1.9,1.54-7.832h.957L-21.769,0ZM-22.9-5.126v-.891h5.456v.891ZM-16.17,0V-1.045l2.651-2.871a4.674,4.674,0,0,0,.682-.946,1.846,1.846,0,0,0,.22-.847,1.035,1.035,0,0,0-.308-.814,1.3,1.3,0,0,0-.891-.275,2.961,2.961,0,0,0-1.061.2,4.2,4.2,0,0,0-1.062.61l-.484-1.034a3.417,3.417,0,0,1,1.2-.66A4.633,4.633,0,0,1-13.75-7.92a3.3,3.3,0,0,1,1.342.253,1.955,1.955,0,0,1,.88.732A2.058,2.058,0,0,1-11.22-5.8a2.868,2.868,0,0,1-.286,1.27A5.763,5.763,0,0,1-12.474-3.2l-2.387,2.53-.165-.473h4.1V0ZM-7.2.077A4.921,4.921,0,0,1-8.728-.16a3.255,3.255,0,0,1-1.2-.666l.484-1.034a3.963,3.963,0,0,0,1.061.611,3.2,3.2,0,0,0,1.128.2,1.778,1.778,0,0,0,1.122-.291,1.094,1.094,0,0,0,.363-.908,1.037,1.037,0,0,0-.374-.88A1.9,1.9,0,0,0-7.3-3.41H-8.338V-4.532h.847a1.881,1.881,0,0,0,1.138-.286,1.006,1.006,0,0,0,.38-.858,1.046,1.046,0,0,0-.33-.836A1.349,1.349,0,0,0-7.216-6.8a3.033,3.033,0,0,0-1.078.2,3.828,3.828,0,0,0-1.045.61l-.484-1.034a3.417,3.417,0,0,1,1.2-.66A4.666,4.666,0,0,1-7.139-7.92,3.256,3.256,0,0,1-5.8-7.667a1.985,1.985,0,0,1,.874.721A1.944,1.944,0,0,1-4.62-5.852a1.948,1.948,0,0,1-.363,1.194,1.912,1.912,0,0,1-1.023.687l-.011-.11A2.073,2.073,0,0,1-4.834-3.4a1.948,1.948,0,0,1,.412,1.281A1.934,1.934,0,0,1-5.175-.512,3.211,3.211,0,0,1-7.2.077ZM-2.97,0V-1.045L-.319-3.916a4.674,4.674,0,0,0,.682-.946,1.846,1.846,0,0,0,.22-.847,1.035,1.035,0,0,0-.308-.814A1.3,1.3,0,0,0-.616-6.8a2.961,2.961,0,0,0-1.062.2,4.2,4.2,0,0,0-1.062.61l-.484-1.034a3.417,3.417,0,0,1,1.2-.66A4.633,4.633,0,0,1-.55-7.92a3.3,3.3,0,0,1,1.342.253,1.955,1.955,0,0,1,.88.732A2.058,2.058,0,0,1,1.98-5.8a2.868,2.868,0,0,1-.286,1.27A5.763,5.763,0,0,1,.726-3.2L-1.661-.671l-.165-.473h4.1V0ZM5.885-7.92a2.77,2.77,0,0,1,2.288,1,4.468,4.468,0,0,1,.8,2.866A5.918,5.918,0,0,1,8.6-1.821,3.067,3.067,0,0,1,7.5-.4a2.963,2.963,0,0,1-1.716.49,4.148,4.148,0,0,1-1.37-.231,3.407,3.407,0,0,1-1.16-.671L3.74-1.848a4.222,4.222,0,0,0,1.045.622,2.634,2.634,0,0,0,.957.192A1.508,1.508,0,0,0,7.106-1.81a4.31,4.31,0,0,0,.473-2.228v-.594l.154.275a1.8,1.8,0,0,1-.4.82A2.034,2.034,0,0,1,6.606-3a2.323,2.323,0,0,1-.952.192,2.37,2.37,0,0,1-1.238-.324,2.29,2.29,0,0,1-.852-.891,2.685,2.685,0,0,1-.308-1.3A2.638,2.638,0,0,1,3.6-6.672a2.42,2.42,0,0,1,.935-.919A2.739,2.739,0,0,1,5.885-7.92ZM5.962-6.8a1.29,1.29,0,0,0-.984.391,1.453,1.453,0,0,0-.369,1.039,1.453,1.453,0,0,0,.369,1.04,1.29,1.29,0,0,0,.984.391,1.442,1.442,0,0,0,.726-.181,1.228,1.228,0,0,0,.49-.506,1.573,1.573,0,0,0,.17-.743,1.564,1.564,0,0,0-.17-.748,1.237,1.237,0,0,0-.49-.5A1.442,1.442,0,0,0,5.962-6.8ZM10.23,0V-1.045l2.651-2.871a4.674,4.674,0,0,0,.682-.946,1.846,1.846,0,0,0,.22-.847,1.035,1.035,0,0,0-.308-.814,1.3,1.3,0,0,0-.891-.275,2.961,2.961,0,0,0-1.061.2,4.2,4.2,0,0,0-1.062.61L9.977-7.018a3.417,3.417,0,0,1,1.2-.66A4.633,4.633,0,0,1,12.65-7.92a3.3,3.3,0,0,1,1.342.253,1.955,1.955,0,0,1,.88.732A2.058,2.058,0,0,1,15.18-5.8a2.868,2.868,0,0,1-.286,1.27A5.763,5.763,0,0,1,13.926-3.2L11.539-.671l-.165-.473h4.1V0Zm6.655,0V-7.832h3.443a3.031,3.031,0,0,1,1.9.539,1.8,1.8,0,0,1,.7,1.507,1.806,1.806,0,0,1-.363,1.133,1.894,1.894,0,0,1-1.023.66v-.088a2,2,0,0,1,1.172.671,1.954,1.954,0,0,1,.412,1.276,1.9,1.9,0,0,1-.709,1.567A3.106,3.106,0,0,1,20.427,0Zm1.386-1.111h2.013a1.907,1.907,0,0,0,1.139-.27,1.024,1.024,0,0,0,.358-.875,1.051,1.051,0,0,0-.363-.88,1.825,1.825,0,0,0-1.133-.286H18.271Zm0-3.421h1.815a1.858,1.858,0,0,0,1.122-.275.97.97,0,0,0,.363-.825.952.952,0,0,0-.363-.825,1.918,1.918,0,0,0-1.122-.264H18.271Z" transform="translate(533 3931)" fill="#ececec"/>
      <path id="Path_1462" data-name="Path 1462" d="M-20.3,0l1.54-7.832h.957L-19.343,0Zm-2.783-1.9v-.891h5.456V-1.9Zm.418,1.9,1.54-7.832h.957L-21.708,0Zm-.176-5.126v-.891h5.456v.891ZM-13.6.088A2.456,2.456,0,0,1-15.724-.935a5.066,5.066,0,0,1-.737-2.981A5.1,5.1,0,0,1-15.73-6.9,2.453,2.453,0,0,1-13.6-7.92,2.453,2.453,0,0,1-11.473-6.9a5.073,5.073,0,0,1,.731,2.97,5.089,5.089,0,0,1-.737,2.992A2.456,2.456,0,0,1-13.6.088Zm0-1.1a1.167,1.167,0,0,0,1.111-.7,5.2,5.2,0,0,0,.352-2.217,5.049,5.049,0,0,0-.352-2.189A1.169,1.169,0,0,0-13.6-6.8a1.168,1.168,0,0,0-1.111.688,5.055,5.055,0,0,0-.352,2.184,5.2,5.2,0,0,0,.352,2.217A1.167,1.167,0,0,0-13.6-1.012ZM-7.826,0H-9.344L-5.56-7.128l.033.44h-4.2V-7.832h5.456v1.056ZM-.4.088A2.456,2.456,0,0,1-2.524-.935a5.066,5.066,0,0,1-.737-2.981A5.1,5.1,0,0,1-2.53-6.9,2.453,2.453,0,0,1-.4-7.92,2.453,2.453,0,0,1,1.727-6.9a5.073,5.073,0,0,1,.731,2.97A5.089,5.089,0,0,1,1.722-.935,2.456,2.456,0,0,1-.4.088Zm0-1.1a1.167,1.167,0,0,0,1.111-.7,5.2,5.2,0,0,0,.352-2.217A5.049,5.049,0,0,0,.71-6.116,1.169,1.169,0,0,0-.4-6.8a1.168,1.168,0,0,0-1.111.688,5.055,5.055,0,0,0-.352,2.184,5.2,5.2,0,0,0,.352,2.217A1.167,1.167,0,0,0-.4-1.012ZM7.3.088A4.016,4.016,0,0,1,5.275-.4,3.257,3.257,0,0,1,3.96-1.793,4.672,4.672,0,0,1,3.5-3.927,4.612,4.612,0,0,1,3.96-6.045,3.264,3.264,0,0,1,5.275-7.431,4.016,4.016,0,0,1,7.3-7.92a4.617,4.617,0,0,1,1.491.236A3.016,3.016,0,0,1,9.95-7L9.488-5.962a3.908,3.908,0,0,0-1.056-.621,3.158,3.158,0,0,0-1.111-.193,2.176,2.176,0,0,0-1.754.732,3.186,3.186,0,0,0-.622,2.118A3.232,3.232,0,0,0,5.566-1.8a2.161,2.161,0,0,0,1.754.743,3.158,3.158,0,0,0,1.111-.193A3.908,3.908,0,0,0,9.488-1.87L9.95-.836a3.016,3.016,0,0,1-1.16.688A4.617,4.617,0,0,1,7.3.088Zm6.424,0A2.456,2.456,0,0,1,11.6-.935a5.066,5.066,0,0,1-.737-2.981A5.1,5.1,0,0,1,11.594-6.9,2.453,2.453,0,0,1,13.723-7.92,2.453,2.453,0,0,1,15.851-6.9a5.073,5.073,0,0,1,.731,2.97,5.089,5.089,0,0,1-.737,2.992A2.456,2.456,0,0,1,13.723.088Zm0-1.1a1.167,1.167,0,0,0,1.111-.7,5.2,5.2,0,0,0,.352-2.217,5.049,5.049,0,0,0-.352-2.189A1.169,1.169,0,0,0,13.723-6.8a1.168,1.168,0,0,0-1.111.688,5.055,5.055,0,0,0-.352,2.184,5.2,5.2,0,0,0,.352,2.217A1.167,1.167,0,0,0,13.723-1.012ZM17.869,0V-7.832h5.236v1.111h-3.85v2.178h3.63v1.122h-3.63v2.31h3.85V0Z" transform="translate(533 3986)" fill="#ececec"/>
      <g transform="matrix(1, 0, 0, 1, 336, 3855)" filter="url(#Rectangle_488)">
        <g id="Rectangle_488-2" data-name="Rectangle 488" transform="translate(56 55)" stroke="rgba(255,255,255,0.2)" stroke-width="0.5" fill="url(#linear-gradient-2)">
          <rect width="89" height="89" stroke="none"/>
          <rect x="0.25" y="0.25" width="88.5" height="88.5" fill="none"/>
        </g>
      </g>
      <path id="Path_1463" data-name="Path 1463" d="M-19.866,0l1.54-7.832h.957L-18.909,0Zm-2.783-1.9v-.891h5.456V-1.9Zm.418,1.9,1.54-7.832h.957L-21.274,0Zm-.176-5.126v-.891h5.456v.891ZM-15.675,0V-1.045l2.651-2.871a4.674,4.674,0,0,0,.682-.946,1.846,1.846,0,0,0,.22-.847,1.035,1.035,0,0,0-.308-.814,1.3,1.3,0,0,0-.891-.275,2.961,2.961,0,0,0-1.061.2,4.2,4.2,0,0,0-1.062.61l-.484-1.034a3.417,3.417,0,0,1,1.2-.66,4.633,4.633,0,0,1,1.474-.242,3.3,3.3,0,0,1,1.342.253,1.955,1.955,0,0,1,.88.732A2.058,2.058,0,0,1-10.725-5.8a2.868,2.868,0,0,1-.286,1.27A5.763,5.763,0,0,1-11.979-3.2l-2.387,2.53-.165-.473h4.1V0Zm8.283,0H-8.91l3.784-7.128.033.44h-4.2V-7.832h5.456v1.056ZM.561,0V-6.083h.33L-1.815-2.2l.011-.451H3.069V-1.54H-2.838V-2.585L.825-7.832H1.958V0ZM6.886.088a2.774,2.774,0,0,1-2.283-1A4.446,4.446,0,0,1,3.8-3.773a5.918,5.918,0,0,1,.38-2.239,3.053,3.053,0,0,1,1.1-1.419A2.97,2.97,0,0,1,6.985-7.92a4.148,4.148,0,0,1,1.369.231,3.407,3.407,0,0,1,1.161.671L9.031-5.984a4.01,4.01,0,0,0-1.039-.622A2.652,2.652,0,0,0,7.04-6.8a1.52,1.52,0,0,0-1.37.776A4.269,4.269,0,0,0,5.192-3.8V-3.2l-.154-.275a1.8,1.8,0,0,1,.4-.82,2.034,2.034,0,0,1,.732-.539,2.323,2.323,0,0,1,.951-.193A2.363,2.363,0,0,1,8.36-4.7a2.3,2.3,0,0,1,.847.891,2.686,2.686,0,0,1,.308,1.3,2.638,2.638,0,0,1-.341,1.348,2.431,2.431,0,0,1-.929.919A2.73,2.73,0,0,1,6.886.088ZM6.82-1.034a1.276,1.276,0,0,0,.974-.39,1.453,1.453,0,0,0,.369-1.039A1.453,1.453,0,0,0,7.794-3.5a1.29,1.29,0,0,0-.985-.39,1.412,1.412,0,0,0-.72.181,1.275,1.275,0,0,0-.49.506,1.532,1.532,0,0,0-.176.743,1.524,1.524,0,0,0,.176.748,1.285,1.285,0,0,0,.49.5A1.434,1.434,0,0,0,6.82-1.034ZM13.233.077a4.518,4.518,0,0,1-1.446-.242A3.305,3.305,0,0,1,10.6-.825l.473-1.034a4.451,4.451,0,0,0,1.073.605,3.062,3.062,0,0,0,1.106.209,1.586,1.586,0,0,0,1.122-.368,1.364,1.364,0,0,0,.4-1.051,1.51,1.51,0,0,0-.181-.759,1.255,1.255,0,0,0-.512-.5,1.637,1.637,0,0,0-.781-.176,2.2,2.2,0,0,0-.858.17,2.286,2.286,0,0,0-.737.5h-.847V-7.832h4.906v1.111h-3.52v2.585L11.814-4.2a2.2,2.2,0,0,1,.792-.605,2.509,2.509,0,0,1,1.045-.209,2.55,2.55,0,0,1,1.292.319,2.277,2.277,0,0,1,.869.88,2.639,2.639,0,0,1,.314,1.309,2.564,2.564,0,0,1-.358,1.359,2.379,2.379,0,0,1-1,.907A3.421,3.421,0,0,1,13.233.077Zm6.6.011A2.456,2.456,0,0,1,17.71-.935a5.066,5.066,0,0,1-.737-2.981A5.1,5.1,0,0,1,17.7-6.9,2.453,2.453,0,0,1,19.833-7.92,2.453,2.453,0,0,1,21.961-6.9a5.073,5.073,0,0,1,.732,2.97,5.089,5.089,0,0,1-.737,2.992A2.456,2.456,0,0,1,19.833.088Zm0-1.1a1.167,1.167,0,0,0,1.111-.7A5.2,5.2,0,0,0,21.3-3.927a5.049,5.049,0,0,0-.352-2.189A1.169,1.169,0,0,0,19.833-6.8a1.168,1.168,0,0,0-1.111.688,5.055,5.055,0,0,0-.352,2.184,5.2,5.2,0,0,0,.352,2.217A1.167,1.167,0,0,0,19.833-1.012Z" transform="translate(426 3931)" fill="#ececec"/>
      <path id="Path_1464" data-name="Path 1464" d="M-20.3,0l1.54-7.832h.957L-19.343,0Zm-2.783-1.9v-.891h5.456V-1.9Zm.418,1.9,1.54-7.832h.957L-21.708,0Zm-.176-5.126v-.891h5.456v.891ZM-13.6.088A2.456,2.456,0,0,1-15.724-.935a5.066,5.066,0,0,1-.737-2.981A5.1,5.1,0,0,1-15.73-6.9,2.453,2.453,0,0,1-13.6-7.92,2.453,2.453,0,0,1-11.473-6.9a5.073,5.073,0,0,1,.731,2.97,5.089,5.089,0,0,1-.737,2.992A2.456,2.456,0,0,1-13.6.088Zm0-1.1a1.167,1.167,0,0,0,1.111-.7,5.2,5.2,0,0,0,.352-2.217,5.049,5.049,0,0,0-.352-2.189A1.169,1.169,0,0,0-13.6-6.8a1.168,1.168,0,0,0-1.111.688,5.055,5.055,0,0,0-.352,2.184,5.2,5.2,0,0,0,.352,2.217A1.167,1.167,0,0,0-13.6-1.012ZM-7.826,0H-9.344L-5.56-7.128l.033.44h-4.2V-7.832h5.456v1.056ZM-.4.088A2.456,2.456,0,0,1-2.524-.935a5.066,5.066,0,0,1-.737-2.981A5.1,5.1,0,0,1-2.53-6.9,2.453,2.453,0,0,1-.4-7.92,2.453,2.453,0,0,1,1.727-6.9a5.073,5.073,0,0,1,.731,2.97A5.089,5.089,0,0,1,1.722-.935,2.456,2.456,0,0,1-.4.088Zm0-1.1a1.167,1.167,0,0,0,1.111-.7,5.2,5.2,0,0,0,.352-2.217A5.049,5.049,0,0,0,.71-6.116,1.169,1.169,0,0,0-.4-6.8a1.168,1.168,0,0,0-1.111.688,5.055,5.055,0,0,0-.352,2.184,5.2,5.2,0,0,0,.352,2.217A1.167,1.167,0,0,0-.4-1.012ZM7.3.088A4.016,4.016,0,0,1,5.275-.4,3.257,3.257,0,0,1,3.96-1.793,4.672,4.672,0,0,1,3.5-3.927,4.612,4.612,0,0,1,3.96-6.045,3.264,3.264,0,0,1,5.275-7.431,4.016,4.016,0,0,1,7.3-7.92a4.617,4.617,0,0,1,1.491.236A3.016,3.016,0,0,1,9.95-7L9.488-5.962a3.908,3.908,0,0,0-1.056-.621,3.158,3.158,0,0,0-1.111-.193,2.176,2.176,0,0,0-1.754.732,3.186,3.186,0,0,0-.622,2.118A3.232,3.232,0,0,0,5.566-1.8a2.161,2.161,0,0,0,1.754.743,3.158,3.158,0,0,0,1.111-.193A3.908,3.908,0,0,0,9.488-1.87L9.95-.836a3.016,3.016,0,0,1-1.16.688A4.617,4.617,0,0,1,7.3.088Zm6.424,0A2.456,2.456,0,0,1,11.6-.935a5.066,5.066,0,0,1-.737-2.981A5.1,5.1,0,0,1,11.594-6.9,2.453,2.453,0,0,1,13.723-7.92,2.453,2.453,0,0,1,15.851-6.9a5.073,5.073,0,0,1,.731,2.97,5.089,5.089,0,0,1-.737,2.992A2.456,2.456,0,0,1,13.723.088Zm0-1.1a1.167,1.167,0,0,0,1.111-.7,5.2,5.2,0,0,0,.352-2.217,5.049,5.049,0,0,0-.352-2.189A1.169,1.169,0,0,0,13.723-6.8a1.168,1.168,0,0,0-1.111.688,5.055,5.055,0,0,0-.352,2.184,5.2,5.2,0,0,0,.352,2.217A1.167,1.167,0,0,0,13.723-1.012ZM17.869,0V-7.832h5.236v1.111h-3.85v2.178h3.63v1.122h-3.63v2.31h3.85V0Z" transform="translate(426 3986)" fill="#ececec"/>
    </g>
  </g>
</svg>
