<svg xmlns="http://www.w3.org/2000/svg" xmlns:xlink="http://www.w3.org/1999/xlink" width="603" height="748.346" viewBox="0 0 603 748.346">
  <defs>
    <filter id="Path_1096" x="327.721" y="650.378" width="30.056" height="30.056" filterUnits="userSpaceOnUse">
      <feOffset input="SourceAlpha"/>
      <feGaussianBlur stdDeviation="4" result="blur"/>
      <feFlood flood-color="#fff" flood-opacity="0.239"/>
      <feComposite operator="in" in2="blur"/>
      <feComposite in="SourceGraphic"/>
    </filter>
    <filter id="Ellipse_46" x="276.594" y="579.057" width="15.008" height="15.008" filterUnits="userSpaceOnUse">
      <feOffset input="SourceAlpha"/>
      <feGaussianBlur stdDeviation="2" result="blur-2"/>
      <feFlood flood-opacity="0.561"/>
      <feComposite operator="in" in2="blur-2"/>
      <feComposite in="SourceGraphic"/>
    </filter>
    <filter id="Ellipse_49" x="275.735" y="578.197" width="16.726" height="16.727" filterUnits="userSpaceOnUse">
      <feOffset input="SourceAlpha"/>
      <feGaussianBlur stdDeviation="2" result="blur-3"/>
      <feFlood flood-opacity="0.561"/>
      <feComposite operator="in" in2="blur-3"/>
      <feComposite in="SourceGraphic"/>
    </filter>
    <filter id="Ellipse_50" x="274.876" y="577.337" width="18.445" height="18.445" filterUnits="userSpaceOnUse">
      <feOffset input="SourceAlpha"/>
      <feGaussianBlur stdDeviation="2" result="blur-4"/>
      <feFlood flood-opacity="0.561"/>
      <feComposite operator="in" in2="blur-4"/>
      <feComposite in="SourceGraphic"/>
    </filter>
    <filter id="Ellipse_46-2" x="400.771" y="634.055" width="15.008" height="15.008" filterUnits="userSpaceOnUse">
      <feOffset input="SourceAlpha"/>
      <feGaussianBlur stdDeviation="2" result="blur-5"/>
      <feFlood flood-opacity="0.561"/>
      <feComposite operator="in" in2="blur-5"/>
      <feComposite in="SourceGraphic"/>
    </filter>
    <filter id="Ellipse_49-2" x="399.911" y="633.195" width="16.726" height="16.727" filterUnits="userSpaceOnUse">
      <feOffset input="SourceAlpha"/>
      <feGaussianBlur stdDeviation="2" result="blur-6"/>
      <feFlood flood-opacity="0.561"/>
      <feComposite operator="in" in2="blur-6"/>
      <feComposite in="SourceGraphic"/>
    </filter>
    <filter id="Ellipse_50-2" x="399.052" y="632.336" width="18.445" height="18.445" filterUnits="userSpaceOnUse">
      <feOffset input="SourceAlpha"/>
      <feGaussianBlur stdDeviation="2" result="blur-7"/>
      <feFlood flood-opacity="0.561"/>
      <feComposite operator="in" in2="blur-7"/>
      <feComposite in="SourceGraphic"/>
    </filter>
    <filter id="Ellipse_46-3" x="517.212" y="556.284" width="15.008" height="15.008" filterUnits="userSpaceOnUse">
      <feOffset input="SourceAlpha"/>
      <feGaussianBlur stdDeviation="2" result="blur-8"/>
      <feFlood flood-opacity="0.561"/>
      <feComposite operator="in" in2="blur-8"/>
      <feComposite in="SourceGraphic"/>
    </filter>
    <filter id="Ellipse_49-3" x="516.353" y="555.424" width="16.726" height="16.727" filterUnits="userSpaceOnUse">
      <feOffset input="SourceAlpha"/>
      <feGaussianBlur stdDeviation="2" result="blur-9"/>
      <feFlood flood-opacity="0.561"/>
      <feComposite operator="in" in2="blur-9"/>
      <feComposite in="SourceGraphic"/>
    </filter>
    <filter id="Ellipse_50-3" x="515.494" y="554.565" width="18.445" height="18.445" filterUnits="userSpaceOnUse">
      <feOffset input="SourceAlpha"/>
      <feGaussianBlur stdDeviation="2" result="blur-10"/>
      <feFlood flood-opacity="0.561"/>
      <feComposite operator="in" in2="blur-10"/>
      <feComposite in="SourceGraphic"/>
    </filter>
    <filter id="Path_1096-2" x="402.366" y="703.832" width="49.803" height="44.513" filterUnits="userSpaceOnUse">
      <feOffset input="SourceAlpha"/>
      <feGaussianBlur stdDeviation="4" result="blur-11"/>
      <feFlood flood-color="#fff" flood-opacity="0.239"/>
      <feComposite operator="in" in2="blur-11"/>
      <feComposite in="SourceGraphic"/>
    </filter>
    <filter id="Path_1096-3" x="522.675" y="703.832" width="49.803" height="44.513" filterUnits="userSpaceOnUse">
      <feOffset input="SourceAlpha"/>
      <feGaussianBlur stdDeviation="4" result="blur-12"/>
      <feFlood flood-color="#fff" flood-opacity="0.239"/>
      <feComposite operator="in" in2="blur-12"/>
      <feComposite in="SourceGraphic"/>
    </filter>
  </defs>
  <g id="jrny-flw" transform="translate(-94.726 -1308.551)">
    <path id="Rectangle_102" data-name="Rectangle 102" d="M0,0H36a4,4,0,0,1,4,4V109a4,4,0,0,1-4,4H0a0,0,0,0,1,0,0V0A0,0,0,0,1,0,0Z" transform="translate(94.726 1645.551)" fill="#fff" opacity="0.56"/>
    <g id="Rectangle_100" data-name="Rectangle 100" transform="translate(94.726 1582.551)" fill="none" stroke="#ececec" stroke-width="1">
      <rect width="102" height="205" stroke="none"/>
      <rect x="0.5" y="0.5" width="101" height="204" fill="none"/>
    </g>
    <g id="Rectangle_103" data-name="Rectangle 103" transform="translate(221.726 1582.551)" fill="none" stroke="#ececec" stroke-width="1">
      <rect width="102" height="205" stroke="none"/>
      <rect x="0.5" y="0.5" width="101" height="204" fill="none"/>
    </g>
    <g id="Rectangle_106" data-name="Rectangle 106" transform="translate(346.726 1582.551)" fill="none" stroke="#ececec" stroke-width="1">
      <rect width="103" height="205" stroke="none"/>
      <rect x="0.5" y="0.5" width="102" height="204" fill="none"/>
    </g>
    <path id="Path_1363" data-name="Path 1363" d="M-50.78-18.479V-32.4h2.8a6.174,6.174,0,0,1,2.3.37,2.571,2.571,0,0,1,1.349,1.186,4.52,4.52,0,0,1,.438,2.14,5.845,5.845,0,0,1-.172,1.469,2.838,2.838,0,0,1-.55,1.117,2.142,2.142,0,0,1-1,.662l1.977,6.978H-45.5l-1.822-6.531h-1.512v6.531Zm1.942-7.923h.739a3.661,3.661,0,0,0,1.341-.206,1.382,1.382,0,0,0,.756-.7,3.268,3.268,0,0,0,.241-1.392,2.768,2.768,0,0,0-.447-1.762,2.242,2.242,0,0,0-1.77-.541h-.859Zm9.573,8.061a3.065,3.065,0,0,1-1.8-.455,2.372,2.372,0,0,1-.885-1.341,8.134,8.134,0,0,1-.249-2.174V-24.58a7.933,7.933,0,0,1,.258-2.2,2.351,2.351,0,0,1,.9-1.323,3.083,3.083,0,0,1,1.779-.447,2.769,2.769,0,0,1,1.848.516,2.539,2.539,0,0,1,.782,1.487,12.372,12.372,0,0,1,.189,2.329v.808h-3.919v1.994a3.543,3.543,0,0,0,.112.98,1.016,1.016,0,0,0,.361.559,1.073,1.073,0,0,0,.645.18.9.9,0,0,0,.627-.2,1.033,1.033,0,0,0,.292-.567,4.281,4.281,0,0,0,.077-.868v-.6h1.787v.378A3.881,3.881,0,0,1-37.1-19.2,2.52,2.52,0,0,1-39.265-18.341Zm-1.1-6.067h2.114V-25.3a6.6,6.6,0,0,0-.069-1.04,1.133,1.133,0,0,0-.284-.636.928.928,0,0,0-.679-.215.992.992,0,0,0-.679.206,1.181,1.181,0,0,0-.318.7,8.228,8.228,0,0,0-.086,1.349Zm7.889,6.067a2.6,2.6,0,0,1-1.959-.765,3.177,3.177,0,0,1-.842-2.019l1.53-.464a3.391,3.391,0,0,0,.464,1.418,1.1,1.1,0,0,0,.962.473.97.97,0,0,0,.756-.284,1.094,1.094,0,0,0,.258-.765,1.578,1.578,0,0,0-.189-.773,2.594,2.594,0,0,0-.619-.7l-1.7-1.461a4.6,4.6,0,0,1-.868-1,2.605,2.605,0,0,1-.352-1.427,2.591,2.591,0,0,1,.318-1.332,2.076,2.076,0,0,1,.894-.825,3.02,3.02,0,0,1,1.349-.284,2.21,2.21,0,0,1,1.813.765,3.241,3.241,0,0,1,.713,1.848l-1.237.464a4.47,4.47,0,0,0-.206-.9,1.429,1.429,0,0,0-.378-.6.919.919,0,0,0-.636-.215.905.905,0,0,0-.713.3,1.04,1.04,0,0,0-.266.713,1.228,1.228,0,0,0,.112.507,1.467,1.467,0,0,0,.387.49l1.753,1.616a7.184,7.184,0,0,1,.679.7,3.417,3.417,0,0,1,.524.859,2.817,2.817,0,0,1,.206,1.117,2.676,2.676,0,0,1-.344,1.409,2.14,2.14,0,0,1-.962.851A3.435,3.435,0,0,1-32.476-18.341Zm5.551,0a1.272,1.272,0,0,1-.911-.309,1.65,1.65,0,0,1-.455-.773,3.516,3.516,0,0,1-.129-.945v-8.044h1.839v7.494a1.848,1.848,0,0,0,.155.834.646.646,0,0,0,.636.3,1.36,1.36,0,0,0,.645-.18A3.881,3.881,0,0,0-24.5-20.4v-8.009h1.839v9.934H-24.5v-.98a4.88,4.88,0,0,1-1.091.791A2.778,2.778,0,0,1-26.924-18.341Zm6.308-.137V-32.4h1.839v13.921Zm6.411.137a2.346,2.346,0,0,1-1.246-.292,1.682,1.682,0,0,1-.687-.825,3.344,3.344,0,0,1-.215-1.255v-6.48H-17.4v-1.22h1.048v-2.9h1.839v2.9h1.6v1.22h-1.6v6.359a1.408,1.408,0,0,0,.189.834.863.863,0,0,0,.722.249q.137,0,.318-.017l.352-.034v1.358q-.344.052-.636.077T-14.206-18.341Zm4.95,0a2.6,2.6,0,0,1-1.959-.765,3.177,3.177,0,0,1-.842-2.019l1.53-.464a3.391,3.391,0,0,0,.464,1.418A1.1,1.1,0,0,0-9.1-19.7a.97.97,0,0,0,.756-.284,1.094,1.094,0,0,0,.258-.765,1.578,1.578,0,0,0-.189-.773,2.594,2.594,0,0,0-.619-.7l-1.7-1.461a4.6,4.6,0,0,1-.868-1,2.605,2.605,0,0,1-.352-1.427,2.591,2.591,0,0,1,.318-1.332,2.076,2.076,0,0,1,.894-.825,3.02,3.02,0,0,1,1.349-.284,2.21,2.21,0,0,1,1.813.765,3.241,3.241,0,0,1,.713,1.848l-1.237.464a4.47,4.47,0,0,0-.206-.9,1.429,1.429,0,0,0-.378-.6.919.919,0,0,0-.636-.215.905.905,0,0,0-.713.3,1.04,1.04,0,0,0-.266.713,1.228,1.228,0,0,0,.112.507,1.467,1.467,0,0,0,.387.49l1.753,1.616a7.184,7.184,0,0,1,.679.7A3.416,3.416,0,0,1-6.713-22a2.817,2.817,0,0,1,.206,1.117,2.676,2.676,0,0,1-.344,1.409,2.14,2.14,0,0,1-.962.851A3.435,3.435,0,0,1-9.256-18.341Z" transform="translate(175.331 1650.629)" fill="#ececec"/>
    <path id="Path_1364" data-name="Path 1364" d="M-25.22-18.479V-32.4h1.908v13.921Zm4,0v-9.934h1.839v.98a5.361,5.361,0,0,1,1.1-.791,2.729,2.729,0,0,1,1.323-.327,1.266,1.266,0,0,1,.92.309,1.684,1.684,0,0,1,.447.773,3.516,3.516,0,0,1,.129.945v8.044H-17.3v-7.511a1.791,1.791,0,0,0-.155-.825.652.652,0,0,0-.636-.292,1.359,1.359,0,0,0-.645.18,3.881,3.881,0,0,0-.645.438v8.009Zm8.129,0v-8.576h-1.186v-1.358h1.186v-.516a7.478,7.478,0,0,1,.146-1.59,1.711,1.711,0,0,1,.61-1.023,2.246,2.246,0,0,1,1.392-.361q.344,0,.61.026a5.458,5.458,0,0,1,.593.095v1.341q-.155-.034-.344-.06a2.564,2.564,0,0,0-.344-.026.651.651,0,0,0-.679.352,2.488,2.488,0,0,0-.146.937v.825h1.512v1.358h-1.512v8.576ZM-6-18.341a2.973,2.973,0,0,1-1.736-.447,2.4,2.4,0,0,1-.9-1.272A6.34,6.34,0,0,1-8.91-22v-2.887a6.34,6.34,0,0,1,.266-1.942,2.4,2.4,0,0,1,.9-1.272A2.973,2.973,0,0,1-6-28.55a2.932,2.932,0,0,1,1.727.447,2.418,2.418,0,0,1,.894,1.272,6.34,6.34,0,0,1,.266,1.942V-22a6.34,6.34,0,0,1-.266,1.942,2.418,2.418,0,0,1-.894,1.272A2.932,2.932,0,0,1-6-18.341ZM-6-19.7a.846.846,0,0,0,.748-.309A1.658,1.658,0,0,0-5-20.825q.043-.507.043-1.057v-3.111q0-.567-.043-1.066a1.7,1.7,0,0,0-.258-.816A.836.836,0,0,0-6-27.192a.859.859,0,0,0-.756.318,1.642,1.642,0,0,0-.266.816q-.043.5-.043,1.066v3.111q0,.55.043,1.057a1.6,1.6,0,0,0,.266.816A.87.87,0,0,0-6-19.7Z" transform="translate(287.078 1650.629)" fill="#ececec"/>
    <path id="Path_1365" data-name="Path 1365" d="M-25.22-18.479V-32.4h1.908v13.921Zm4,0v-9.934h1.839v.98a5.361,5.361,0,0,1,1.1-.791,2.729,2.729,0,0,1,1.323-.327,1.266,1.266,0,0,1,.92.309,1.684,1.684,0,0,1,.447.773,3.516,3.516,0,0,1,.129.945v8.044H-17.3v-7.511a1.791,1.791,0,0,0-.155-.825.652.652,0,0,0-.636-.292,1.359,1.359,0,0,0-.645.18,3.881,3.881,0,0,0-.645.438v8.009Zm8.129,0v-8.576h-1.186v-1.358h1.186v-.516a7.478,7.478,0,0,1,.146-1.59,1.711,1.711,0,0,1,.61-1.023,2.246,2.246,0,0,1,1.392-.361q.344,0,.61.026a5.458,5.458,0,0,1,.593.095v1.341q-.155-.034-.344-.06a2.564,2.564,0,0,0-.344-.026.651.651,0,0,0-.679.352,2.488,2.488,0,0,0-.146.937v.825h1.512v1.358h-1.512v8.576ZM-6-18.341a2.973,2.973,0,0,1-1.736-.447,2.4,2.4,0,0,1-.9-1.272A6.34,6.34,0,0,1-8.91-22v-2.887a6.34,6.34,0,0,1,.266-1.942,2.4,2.4,0,0,1,.9-1.272A2.973,2.973,0,0,1-6-28.55a2.932,2.932,0,0,1,1.727.447,2.418,2.418,0,0,1,.894,1.272,6.34,6.34,0,0,1,.266,1.942V-22a6.34,6.34,0,0,1-.266,1.942,2.418,2.418,0,0,1-.894,1.272A2.932,2.932,0,0,1-6-18.341ZM-6-19.7a.846.846,0,0,0,.748-.309A1.658,1.658,0,0,0-5-20.825q.043-.507.043-1.057v-3.111q0-.567-.043-1.066a1.7,1.7,0,0,0-.258-.816A.836.836,0,0,0-6-27.192a.859.859,0,0,0-.756.318,1.642,1.642,0,0,0-.266.816q-.043.5-.043,1.066v3.111q0,.55.043,1.057a1.6,1.6,0,0,0,.266.816A.87.87,0,0,0-6-19.7Z" transform="translate(412.973 1650.629)" fill="#ececec"/>
    <rect id="Rectangle_104" data-name="Rectangle 104" width="49" height="12" rx="6" transform="translate(247.726 1755.552)" fill="rgba(236,236,236,0.56)"/>
    <rect id="Rectangle_107" data-name="Rectangle 107" width="49" height="12" rx="6" transform="translate(373.726 1755.552)" fill="rgba(236,236,236,0.56)"/>
    <path id="Rectangle_101" data-name="Rectangle 101" d="M0,0H40a0,0,0,0,1,0,0V20a4,4,0,0,1-4,4H0a0,0,0,0,1,0,0V0A0,0,0,0,1,0,0Z" transform="translate(94.726 1734.552)" fill="#fff"/>
    <path id="Path_1362" data-name="Path 1362" d="M-32.36-11.087v-5.146h-.712v-.815h.712v-.309a4.486,4.486,0,0,1,.088-.954,1.026,1.026,0,0,1,.366-.614,1.347,1.347,0,0,1,.835-.217q.206,0,.366.015a3.273,3.273,0,0,1,.356.057v.8q-.093-.021-.206-.036a1.538,1.538,0,0,0-.206-.015.39.39,0,0,0-.407.211,1.493,1.493,0,0,0-.088.562v.495h.907v.815h-.907v5.146ZM-28.9-11a.763.763,0,0,1-.547-.186.99.99,0,0,1-.273-.464,2.109,2.109,0,0,1-.077-.567v-4.826h1.1v4.5a1.109,1.109,0,0,0,.093.5.387.387,0,0,0,.382.18.816.816,0,0,0,.387-.108,2.328,2.328,0,0,0,.387-.263v-4.805h1.1v5.96h-1.1v-.588a2.928,2.928,0,0,1-.655.474A1.667,1.667,0,0,1-28.9-11Zm3.785-.082V-19.44h1.1v8.353Zm2.361,0V-19.44h1.1v8.353Zm4.692,0v-5.96h1.1v5.96Zm0-6.847v-1.155h1.1v1.155Zm2.289,6.847v-5.96h1.1v.588a3.217,3.217,0,0,1,.66-.474,1.637,1.637,0,0,1,.794-.2.76.76,0,0,1,.552.186,1.011,1.011,0,0,1,.268.464,2.11,2.11,0,0,1,.077.567v4.826h-1.1v-4.506a1.075,1.075,0,0,0-.093-.495.391.391,0,0,0-.382-.175.816.816,0,0,0-.387.108,2.329,2.329,0,0,0-.387.263v4.805Zm4.878,0v-5.146H-11.6v-.815h.712v-.309a4.487,4.487,0,0,1,.088-.954,1.026,1.026,0,0,1,.366-.614,1.347,1.347,0,0,1,.835-.217q.206,0,.366.015a3.273,3.273,0,0,1,.356.057v.8q-.093-.021-.206-.036a1.538,1.538,0,0,0-.206-.015A.39.39,0,0,0-9.7-18.1a1.493,1.493,0,0,0-.088.562v.495h.907v.815h-.907v5.146ZM-6.642-11a1.784,1.784,0,0,1-1.042-.268,1.44,1.44,0,0,1-.541-.763,3.8,3.8,0,0,1-.16-1.165v-1.732a3.8,3.8,0,0,1,.16-1.165,1.44,1.44,0,0,1,.541-.763,1.784,1.784,0,0,1,1.042-.268,1.759,1.759,0,0,1,1.036.268,1.451,1.451,0,0,1,.536.763,3.8,3.8,0,0,1,.16,1.165V-13.2a3.8,3.8,0,0,1-.16,1.165,1.451,1.451,0,0,1-.536.763A1.759,1.759,0,0,1-6.642-11Zm0-.815A.508.508,0,0,0-6.193-12a1,1,0,0,0,.155-.49q.026-.3.026-.634V-15q0-.34-.026-.639a1.019,1.019,0,0,0-.155-.49.5.5,0,0,0-.449-.191.516.516,0,0,0-.454.191.985.985,0,0,0-.16.49q-.026.3-.026.639v1.867q0,.33.026.634A.962.962,0,0,0-7.1-12,.522.522,0,0,0-6.642-11.819Z" transform="translate(133.865 1761.398)" fill="#0d1214"/>
    <ellipse id="Ellipse_79" data-name="Ellipse 79" cx="8.5" cy="8" rx="8.5" ry="8" transform="translate(173.726 1739.552)" fill="#fff"/>
    <rect id="Rectangle_105" data-name="Rectangle 105" width="65" height="3" transform="translate(240.726 1644.551)" fill="rgba(236,236,236,0.8)"/>
    <rect id="Rectangle_665" data-name="Rectangle 665" width="64" height="3" transform="translate(364.726 1644.551)" fill="rgba(236,236,236,0.8)"/>
    <rect id="Rectangle_652" data-name="Rectangle 652" width="65" height="3" transform="translate(240.726 1675.551)" fill="rgba(236,236,236,0.8)"/>
    <rect id="Rectangle_658" data-name="Rectangle 658" width="64" height="3" transform="translate(364.726 1675.551)" fill="rgba(236,236,236,0.8)"/>
    <rect id="Rectangle_655" data-name="Rectangle 655" width="65" height="3" transform="translate(240.726 1715.551)" fill="rgba(236,236,236,0.8)" opacity="0.17"/>
    <rect id="Rectangle_659" data-name="Rectangle 659" width="64" height="3" transform="translate(364.726 1715.551)" fill="rgba(236,236,236,0.8)" opacity="0.9"/>
    <rect id="Rectangle_105-2" data-name="Rectangle 105" width="65" height="4" transform="translate(240.726 1651.551)" fill="rgba(236,236,236,0.8)"/>
    <rect id="Rectangle_666" data-name="Rectangle 666" width="64" height="4" transform="translate(364.726 1651.551)" fill="rgba(236,236,236,0.8)"/>
    <rect id="Rectangle_653" data-name="Rectangle 653" width="65" height="4" transform="translate(240.726 1682.551)" fill="rgba(236,236,236,0.8)"/>
    <rect id="Rectangle_660" data-name="Rectangle 660" width="64" height="4" transform="translate(364.726 1682.551)" fill="rgba(236,236,236,0.8)"/>
    <rect id="Rectangle_656" data-name="Rectangle 656" width="65" height="4" transform="translate(240.726 1722.551)" fill="rgba(236,236,236,0.8)" opacity="0.17"/>
    <rect id="Rectangle_661" data-name="Rectangle 661" width="64" height="4" transform="translate(364.726 1722.551)" fill="rgba(236,236,236,0.8)" opacity="0.9"/>
    <rect id="Rectangle_105-3" data-name="Rectangle 105" width="65" height="4" transform="translate(240.726 1659.551)" fill="rgba(236,236,236,0.8)"/>
    <rect id="Rectangle_664" data-name="Rectangle 664" width="64" height="4" transform="translate(364.726 1659.551)" fill="rgba(236,236,236,0.8)"/>
    <rect id="Rectangle_654" data-name="Rectangle 654" width="65" height="4" transform="translate(240.726 1690.551)" fill="rgba(236,236,236,0.8)"/>
    <rect id="Rectangle_662" data-name="Rectangle 662" width="64" height="4" transform="translate(364.726 1690.551)" fill="rgba(236,236,236,0.8)"/>
    <rect id="Rectangle_657" data-name="Rectangle 657" width="65" height="4" transform="translate(240.726 1730.551)" fill="rgba(236,236,236,0.8)" opacity="0.17"/>
    <rect id="Rectangle_663" data-name="Rectangle 663" width="64" height="4" transform="translate(364.726 1730.551)" fill="rgba(236,236,236,0.8)" opacity="0.17"/>
    <g id="Group_663" data-name="Group 663" transform="translate(340.13 1308.88)">
      <g id="Rectangle_90" data-name="Rectangle 90" transform="translate(-0.404 -0.329)" fill="none" stroke="#ececec" stroke-width="1">
        <rect width="102" height="205" stroke="none"/>
        <rect x="0.5" y="0.5" width="101" height="204" fill="none"/>
      </g>
      <g id="Rectangle_95" data-name="Rectangle 95" transform="translate(124.596 -0.329)" fill="none" stroke="#ececec" stroke-width="1">
        <rect width="102" height="205" stroke="none"/>
        <rect x="0.5" y="0.5" width="101" height="204" fill="none"/>
      </g>
      <g id="Rectangle_97" data-name="Rectangle 97" transform="translate(255.596 -0.329)" fill="none" stroke="#ececec" stroke-width="1">
        <rect width="102" height="205" stroke="none"/>
        <rect x="0.5" y="0.5" width="101" height="204" fill="none"/>
      </g>
      <path id="Path_1359" data-name="Path 1359" d="M2.56-18.479V-32.4H4.4v13.921Zm6.5.137a2.973,2.973,0,0,1-1.736-.447,2.4,2.4,0,0,1-.9-1.272A6.34,6.34,0,0,1,6.152-22v-2.887a6.34,6.34,0,0,1,.266-1.942,2.4,2.4,0,0,1,.9-1.272,2.973,2.973,0,0,1,1.736-.447,2.932,2.932,0,0,1,1.727.447,2.418,2.418,0,0,1,.894,1.272,6.34,6.34,0,0,1,.266,1.942V-22a6.34,6.34,0,0,1-.266,1.942,2.418,2.418,0,0,1-.894,1.272A2.932,2.932,0,0,1,9.057-18.341Zm0-1.358a.846.846,0,0,0,.748-.309,1.658,1.658,0,0,0,.258-.816q.043-.507.043-1.057v-3.111q0-.567-.043-1.066a1.7,1.7,0,0,0-.258-.816.836.836,0,0,0-.748-.318.859.859,0,0,0-.756.318,1.642,1.642,0,0,0-.266.816q-.043.5-.043,1.066v3.111q0,.55.043,1.057a1.6,1.6,0,0,0,.266.816A.87.87,0,0,0,9.057-19.7Zm7.15,4.3a6.38,6.38,0,0,1-1.616-.189,2.441,2.441,0,0,1-1.134-.6,1.464,1.464,0,0,1-.412-1.083,1.668,1.668,0,0,1,.206-.842,2.234,2.234,0,0,1,.533-.627,3.4,3.4,0,0,1,.687-.438,1.375,1.375,0,0,1-.722-.438.992.992,0,0,1-.241-.627,1.546,1.546,0,0,1,.292-.945,5.981,5.981,0,0,1,.808-.859,2.716,2.716,0,0,1-.859-1.1,4.762,4.762,0,0,1-.292-1.856,5.206,5.206,0,0,1,.318-1.951,2.465,2.465,0,0,1,.945-1.186,2.784,2.784,0,0,1,1.538-.4,2.645,2.645,0,0,1,1.3.275,1.782,1.782,0,0,1,.748.825,2.93,2.93,0,0,1,.464-.473,3.419,3.419,0,0,1,.877-.559l.275-.12.464,1.186a3.554,3.554,0,0,0-.593.163q-.37.129-.687.258a1.394,1.394,0,0,0-.4.215,4.186,4.186,0,0,1,.215.842,5.854,5.854,0,0,1,.095.98,5.652,5.652,0,0,1-.258,1.787,2.4,2.4,0,0,1-.851,1.212,2.712,2.712,0,0,1-1.641.438,3.654,3.654,0,0,1-.481-.034,4.229,4.229,0,0,1-.464-.086q-.1.155-.215.361a.831.831,0,0,0-.112.4.337.337,0,0,0,.2.3,1.6,1.6,0,0,0,.627.146l1.547.137a2.613,2.613,0,0,1,1.736.7,2.411,2.411,0,0,1,.567,1.719,2.381,2.381,0,0,1-.378,1.366,2.241,2.241,0,0,1-1.143.834A5.787,5.787,0,0,1,16.206-15.4Zm.137-1.444a3.39,3.39,0,0,0,1.444-.232.78.78,0,0,0,.464-.748,1.073,1.073,0,0,0-.112-.516.766.766,0,0,0-.4-.327,3.062,3.062,0,0,0-.842-.172l-1.564-.137q-.189.189-.361.378a1.682,1.682,0,0,0-.275.4,1.039,1.039,0,0,0-.1.455.729.729,0,0,0,.378.67A2.948,2.948,0,0,0,16.344-16.846Zm-.086-5.964a1.169,1.169,0,0,0,.627-.146.91.91,0,0,0,.352-.43,2.44,2.44,0,0,0,.163-.7,9.03,9.03,0,0,0,.043-.928,9.287,9.287,0,0,0-.043-.937,2.945,2.945,0,0,0-.155-.722.906.906,0,0,0-.344-.455,1.117,1.117,0,0,0-.627-.155,1.17,1.17,0,0,0-.627.155.927.927,0,0,0-.37.438,2.642,2.642,0,0,0-.172.7,8.08,8.08,0,0,0-.052.971,8.224,8.224,0,0,0,.043.868,2.337,2.337,0,0,0,.172.7,1.1,1.1,0,0,0,.37.464A1.04,1.04,0,0,0,16.258-22.81Zm4.967,4.331v-9.934h1.839v9.934Zm0-11.412v-1.925h1.839v1.925Zm3.816,11.412v-9.934H26.88v.98a5.361,5.361,0,0,1,1.1-.791A2.729,2.729,0,0,1,29.3-28.55a1.266,1.266,0,0,1,.92.309,1.684,1.684,0,0,1,.447.773,3.516,3.516,0,0,1,.129.945v8.044H28.959v-7.511a1.792,1.792,0,0,0-.155-.825.652.652,0,0,0-.636-.292,1.359,1.359,0,0,0-.645.18,3.881,3.881,0,0,0-.645.438v8.009Z" transform="translate(34.226 68.475)" fill="#ececec"/>
      <path id="Path_1360" data-name="Path 1360" d="M-88.635-18.341a2.961,2.961,0,0,1-1.848-.49,2.4,2.4,0,0,1-.842-1.384,8.961,8.961,0,0,1-.215-2.08V-24.58a8.857,8.857,0,0,1,.223-2.14,2.353,2.353,0,0,1,.851-1.358,3.007,3.007,0,0,1,1.83-.473,3.3,3.3,0,0,1,1.676.352,1.818,1.818,0,0,1,.816,1.048,5.723,5.723,0,0,1,.223,1.727v.584h-1.667v-.6a4.868,4.868,0,0,0-.086-1.031.922.922,0,0,0-.309-.55,1.024,1.024,0,0,0-.636-.172,1.026,1.026,0,0,0-.687.206,1.117,1.117,0,0,0-.318.7,8.975,8.975,0,0,0-.077,1.332v3.128a3.971,3.971,0,0,0,.241,1.7.9.9,0,0,0,.859.43.928.928,0,0,0,.679-.215,1.062,1.062,0,0,0,.275-.61,5.983,5.983,0,0,0,.06-.894v-.808h1.667v.687a5.645,5.645,0,0,1-.232,1.719,1.971,1.971,0,0,1-.825,1.1A3.078,3.078,0,0,1-88.635-18.341Zm4.4-.137V-32.4H-82.4v5.019a5.319,5.319,0,0,1,1.117-.825A2.783,2.783,0,0,1-79.9-28.55a1.241,1.241,0,0,1,.9.309,1.684,1.684,0,0,1,.447.773,3.516,3.516,0,0,1,.129.945v8.044h-1.839v-7.511a1.791,1.791,0,0,0-.155-.825.652.652,0,0,0-.636-.292,1.435,1.435,0,0,0-.679.189,3.449,3.449,0,0,0-.662.464v7.975Zm10.329.137a2.973,2.973,0,0,1-1.736-.447,2.4,2.4,0,0,1-.9-1.272A6.34,6.34,0,0,1-76.811-22v-2.887a6.34,6.34,0,0,1,.266-1.942,2.4,2.4,0,0,1,.9-1.272,2.973,2.973,0,0,1,1.736-.447,2.932,2.932,0,0,1,1.727.447,2.418,2.418,0,0,1,.894,1.272,6.34,6.34,0,0,1,.266,1.942V-22a6.34,6.34,0,0,1-.266,1.942,2.418,2.418,0,0,1-.894,1.272A2.932,2.932,0,0,1-73.906-18.341Zm0-1.358a.846.846,0,0,0,.748-.309,1.658,1.658,0,0,0,.258-.816q.043-.507.043-1.057v-3.111q0-.567-.043-1.066a1.7,1.7,0,0,0-.258-.816.836.836,0,0,0-.748-.318.859.859,0,0,0-.756.318,1.642,1.642,0,0,0-.266.816q-.043.5-.043,1.066v3.111q0,.55.043,1.057a1.6,1.6,0,0,0,.266.816A.87.87,0,0,0-73.906-19.7Zm7.3,1.358a2.973,2.973,0,0,1-1.736-.447,2.4,2.4,0,0,1-.9-1.272A6.34,6.34,0,0,1-69.506-22v-2.887a6.34,6.34,0,0,1,.266-1.942,2.4,2.4,0,0,1,.9-1.272A2.973,2.973,0,0,1-66.6-28.55a2.932,2.932,0,0,1,1.727.447,2.418,2.418,0,0,1,.894,1.272,6.34,6.34,0,0,1,.266,1.942V-22a6.34,6.34,0,0,1-.266,1.942,2.418,2.418,0,0,1-.894,1.272A2.932,2.932,0,0,1-66.6-18.341Zm0-1.358a.846.846,0,0,0,.748-.309,1.658,1.658,0,0,0,.258-.816q.043-.507.043-1.057v-3.111q0-.567-.043-1.066a1.7,1.7,0,0,0-.258-.816.836.836,0,0,0-.748-.318.859.859,0,0,0-.756.318,1.642,1.642,0,0,0-.266.816q-.043.5-.043,1.066v3.111q0,.55.043,1.057a1.6,1.6,0,0,0,.266.816A.87.87,0,0,0-66.6-19.7Zm6.875,1.358a2.6,2.6,0,0,1-1.959-.765,3.177,3.177,0,0,1-.842-2.019l1.53-.464a3.391,3.391,0,0,0,.464,1.418,1.1,1.1,0,0,0,.962.473.97.97,0,0,0,.756-.284,1.094,1.094,0,0,0,.258-.765,1.578,1.578,0,0,0-.189-.773,2.594,2.594,0,0,0-.619-.7l-1.7-1.461a4.6,4.6,0,0,1-.868-1,2.605,2.605,0,0,1-.352-1.427,2.591,2.591,0,0,1,.318-1.332,2.076,2.076,0,0,1,.894-.825,3.02,3.02,0,0,1,1.349-.284,2.21,2.21,0,0,1,1.813.765,3.241,3.241,0,0,1,.713,1.848l-1.237.464a4.469,4.469,0,0,0-.206-.9,1.429,1.429,0,0,0-.378-.6.919.919,0,0,0-.636-.215.905.905,0,0,0-.713.3,1.04,1.04,0,0,0-.266.713,1.228,1.228,0,0,0,.112.507,1.468,1.468,0,0,0,.387.49l1.753,1.616a7.185,7.185,0,0,1,.679.7,3.417,3.417,0,0,1,.524.859,2.817,2.817,0,0,1,.206,1.117,2.676,2.676,0,0,1-.344,1.409,2.14,2.14,0,0,1-.962.851A3.435,3.435,0,0,1-59.727-18.341Zm6.875,0a3.065,3.065,0,0,1-1.8-.455,2.372,2.372,0,0,1-.885-1.341,8.134,8.134,0,0,1-.249-2.174V-24.58a7.932,7.932,0,0,1,.258-2.2,2.351,2.351,0,0,1,.9-1.323,3.083,3.083,0,0,1,1.779-.447A2.769,2.769,0,0,1-51-28.035a2.539,2.539,0,0,1,.782,1.487,12.373,12.373,0,0,1,.189,2.329v.808h-3.919v1.994a3.543,3.543,0,0,0,.112.98,1.016,1.016,0,0,0,.361.559,1.073,1.073,0,0,0,.645.18.9.9,0,0,0,.627-.2,1.033,1.033,0,0,0,.292-.567,4.281,4.281,0,0,0,.077-.868v-.6h1.787v.378a3.881,3.881,0,0,1-.636,2.355A2.52,2.52,0,0,1-52.852-18.341Zm-1.1-6.067h2.114V-25.3a6.6,6.6,0,0,0-.069-1.04,1.133,1.133,0,0,0-.284-.636.928.928,0,0,0-.679-.215.992.992,0,0,0-.679.206,1.181,1.181,0,0,0-.318.7,8.229,8.229,0,0,0-.086,1.349Zm9.522,9.2v-13.2h1.839v.791a3.167,3.167,0,0,1,.791-.653,2.118,2.118,0,0,1,1.1-.275,1.785,1.785,0,0,1,1.229.4,2.459,2.459,0,0,1,.679,1.014,5.251,5.251,0,0,1,.292,1.237,10.082,10.082,0,0,1,.069,1.074v2.406a9.214,9.214,0,0,1-.206,1.985,3.141,3.141,0,0,1-.748,1.512,1.986,1.986,0,0,1-1.521.576,1.7,1.7,0,0,1-.945-.266,4.029,4.029,0,0,1-.739-.61v4Zm3.162-4.572a.733.733,0,0,0,.687-.352,2.282,2.282,0,0,0,.258-.954q.052-.6.052-1.323v-2.406a8.819,8.819,0,0,0-.069-1.143,1.812,1.812,0,0,0-.292-.834.81.81,0,0,0-.7-.309,1.587,1.587,0,0,0-.687.155,2.53,2.53,0,0,0-.567.361v6.359a2.591,2.591,0,0,0,.584.318A2,2,0,0,0-41.268-19.785Zm4.675,1.306V-32.4h1.839v13.921Zm5.551.137a1.672,1.672,0,0,1-1.031-.335,2.354,2.354,0,0,1-.7-.859,2.48,2.48,0,0,1-.258-1.109,3.556,3.556,0,0,1,.309-1.564,3.12,3.12,0,0,1,.851-1.074,5.858,5.858,0,0,1,1.255-.765q.713-.327,1.5-.636v-.7a5.98,5.98,0,0,0-.069-1,1.015,1.015,0,0,0-.284-.593.923.923,0,0,0-.645-.2,1,1,0,0,0-.61.172.955.955,0,0,0-.335.49,2.43,2.43,0,0,0-.1.748v.5l-1.822-.069a3.612,3.612,0,0,1,.756-2.432,2.9,2.9,0,0,1,2.234-.782,2.481,2.481,0,0,1,2.1.808,3.788,3.788,0,0,1,.619,2.337v4.537q0,.464.026.894t.069.8q.043.37.077.7H-28.79q-.052-.275-.129-.7t-.112-.765a2.646,2.646,0,0,1-.662,1.091A1.788,1.788,0,0,1-31.042-18.341Zm.722-1.581a.936.936,0,0,0,.516-.155,2.35,2.35,0,0,0,.43-.352,1.827,1.827,0,0,0,.258-.318v-2.819q-.43.241-.808.481a4.461,4.461,0,0,0-.662.507,2.058,2.058,0,0,0-.447.6,1.725,1.725,0,0,0-.163.765,1.722,1.722,0,0,0,.223.945A.73.73,0,0,0-30.32-19.922Zm7.528,1.581a2.961,2.961,0,0,1-1.848-.49,2.4,2.4,0,0,1-.842-1.384,8.961,8.961,0,0,1-.215-2.08V-24.58a8.857,8.857,0,0,1,.223-2.14,2.353,2.353,0,0,1,.851-1.358,3.007,3.007,0,0,1,1.83-.473,3.3,3.3,0,0,1,1.676.352,1.818,1.818,0,0,1,.816,1.048,5.723,5.723,0,0,1,.223,1.727v.584h-1.667v-.6a4.868,4.868,0,0,0-.086-1.031.922.922,0,0,0-.309-.55,1.024,1.024,0,0,0-.636-.172,1.026,1.026,0,0,0-.687.206,1.117,1.117,0,0,0-.318.7,8.974,8.974,0,0,0-.077,1.332v3.128a3.971,3.971,0,0,0,.241,1.7.9.9,0,0,0,.859.43.928.928,0,0,0,.679-.215,1.062,1.062,0,0,0,.275-.61,5.983,5.983,0,0,0,.06-.894v-.808h1.667v.687a5.645,5.645,0,0,1-.232,1.719,1.971,1.971,0,0,1-.825,1.1A3.078,3.078,0,0,1-22.792-18.341Zm7.1,0a3.065,3.065,0,0,1-1.8-.455,2.372,2.372,0,0,1-.885-1.341,8.134,8.134,0,0,1-.249-2.174V-24.58a7.933,7.933,0,0,1,.258-2.2,2.351,2.351,0,0,1,.9-1.323,3.083,3.083,0,0,1,1.779-.447,2.769,2.769,0,0,1,1.848.516,2.539,2.539,0,0,1,.782,1.487,12.373,12.373,0,0,1,.189,2.329v.808h-3.919v1.994a3.543,3.543,0,0,0,.112.98,1.016,1.016,0,0,0,.361.559,1.073,1.073,0,0,0,.645.18.9.9,0,0,0,.627-.2,1.033,1.033,0,0,0,.292-.567,4.281,4.281,0,0,0,.077-.868v-.6h1.787v.378a3.881,3.881,0,0,1-.636,2.355A2.52,2.52,0,0,1-15.694-18.341Zm-1.1-6.067h2.114V-25.3a6.6,6.6,0,0,0-.069-1.04,1.133,1.133,0,0,0-.284-.636.928.928,0,0,0-.679-.215.992.992,0,0,0-.679.206,1.181,1.181,0,0,0-.318.7,8.228,8.228,0,0,0-.086,1.349Z" transform="translate(228.827 68.475)" fill="#ececec"/>
      <text id="Invite_friends" data-name="Invite friends" transform="translate(154.596 121.671)" fill="#ececec" font-size="6" font-family="Raleway-Regular, Raleway"><tspan x="-17.736" y="0">Invite friends</tspan></text>
      <path id="Path_1361" data-name="Path 1361" d="M-91.744-13.505v-9.762h.962v9.762Zm9.24,0h-.935v-4a3.49,3.49,0,0,0-.378-1.856,1.292,1.292,0,0,0-1.162-.577,2.382,2.382,0,0,0-.825.151,2.781,2.781,0,0,0-.763.426,3.262,3.262,0,0,0-.626.653,2.56,2.56,0,0,0-.4.818v4.386h-.935v-7.164h.852v1.622a3.365,3.365,0,0,1,1.258-1.265,3.45,3.45,0,0,1,1.781-.481,2.109,2.109,0,0,1,1,.22,1.713,1.713,0,0,1,.66.619,2.85,2.85,0,0,1,.357.976A6.853,6.853,0,0,1-82.5-17.7Zm3.974,0-2.915-7.164h.962l2.461,6.3,2.475-6.3h.907l-2.915,7.164Zm5.184,0v-7.164h.935v7.164Zm0-8.662v-1.375h.935v1.375Zm6.435,8.319q-.083.041-.241.11t-.364.137a4.266,4.266,0,0,1-.467.124,2.664,2.664,0,0,1-.55.055,2,2,0,0,1-.577-.082,1.347,1.347,0,0,1-.481-.254,1.252,1.252,0,0,1-.33-.433,1.4,1.4,0,0,1-.124-.6v-5.129h-.99v-.742h.99v-2.42h.935v2.42h1.65v.742h-1.65v4.867a.743.743,0,0,0,.282.584.966.966,0,0,0,.584.186,1.756,1.756,0,0,0,.7-.131,3.091,3.091,0,0,0,.385-.186Zm4.084.481a3.444,3.444,0,0,1-1.437-.3,3.521,3.521,0,0,1-1.134-.811,3.767,3.767,0,0,1-.749-1.189,3.868,3.868,0,0,1-.268-1.444,3.779,3.779,0,0,1,.268-1.423,3.684,3.684,0,0,1,.742-1.169,3.524,3.524,0,0,1,1.134-.8,3.458,3.458,0,0,1,1.43-.3,3.444,3.444,0,0,1,1.437.3,3.416,3.416,0,0,1,1.121.8,3.751,3.751,0,0,1,.729,1.169,3.776,3.776,0,0,1,.261,1.4v.22a.553.553,0,0,1-.014.151h-6.132a3.015,3.015,0,0,0,.268,1.066,2.929,2.929,0,0,0,.584.846,2.618,2.618,0,0,0,.818.557,2.448,2.448,0,0,0,.983.2,2.54,2.54,0,0,0,.687-.1,2.779,2.779,0,0,0,.632-.261,2.352,2.352,0,0,0,.522-.406,1.741,1.741,0,0,0,.357-.529l.811.22a2.382,2.382,0,0,1-.467.722,3.263,3.263,0,0,1-.7.564,3.434,3.434,0,0,1-.88.371A3.815,3.815,0,0,1-62.829-13.368Zm2.64-4.1a2.893,2.893,0,0,0-.268-1.052,2.863,2.863,0,0,0-.577-.818,2.554,2.554,0,0,0-.811-.536,2.524,2.524,0,0,0-.983-.192,2.574,2.574,0,0,0-.99.192,2.534,2.534,0,0,0-.818.536,2.635,2.635,0,0,0-.564.825,3.123,3.123,0,0,0-.254,1.045ZM-54-13.505v-6.421h-.99v-.742H-54v-.192a3.374,3.374,0,0,1,.564-2.069,1.823,1.823,0,0,1,1.54-.749,2.767,2.767,0,0,1,.825.124,2.4,2.4,0,0,1,.687.33l-.289.674a1.392,1.392,0,0,0-.474-.234,2.022,2.022,0,0,0-.571-.082,1.135,1.135,0,0,0-1,.509,2.625,2.625,0,0,0-.344,1.471v.22h1.98v.742h-1.98v6.421Zm7.769-6.339a2.941,2.941,0,0,0-1.65.522,2.635,2.635,0,0,0-.99,1.361v4.455h-.935v-7.164h.88v1.719a3.258,3.258,0,0,1,1.072-1.292,2.486,2.486,0,0,1,1.444-.467.943.943,0,0,1,.179.014Zm1.251,6.339v-7.164h.935v7.164Zm0-8.662v-1.375h.935v1.375Zm6.091,8.8a3.444,3.444,0,0,1-1.437-.3,3.521,3.521,0,0,1-1.134-.811,3.767,3.767,0,0,1-.749-1.189,3.868,3.868,0,0,1-.268-1.444,3.779,3.779,0,0,1,.268-1.423,3.683,3.683,0,0,1,.742-1.169,3.524,3.524,0,0,1,1.134-.8,3.458,3.458,0,0,1,1.43-.3,3.444,3.444,0,0,1,1.437.3,3.416,3.416,0,0,1,1.121.8,3.751,3.751,0,0,1,.729,1.169,3.776,3.776,0,0,1,.261,1.4v.22a.553.553,0,0,1-.014.151H-41.5a3.015,3.015,0,0,0,.268,1.066,2.929,2.929,0,0,0,.584.846,2.618,2.618,0,0,0,.818.557,2.448,2.448,0,0,0,.983.2,2.54,2.54,0,0,0,.687-.1,2.779,2.779,0,0,0,.632-.261,2.352,2.352,0,0,0,.522-.406,1.742,1.742,0,0,0,.357-.529l.811.22a2.382,2.382,0,0,1-.467.722,3.263,3.263,0,0,1-.7.564,3.434,3.434,0,0,1-.88.371A3.815,3.815,0,0,1-38.891-13.368Zm2.64-4.1a2.893,2.893,0,0,0-.268-1.052,2.863,2.863,0,0,0-.577-.818,2.554,2.554,0,0,0-.811-.536,2.524,2.524,0,0,0-.983-.192,2.574,2.574,0,0,0-.99.192,2.534,2.534,0,0,0-.818.536,2.635,2.635,0,0,0-.564.825,3.123,3.123,0,0,0-.254,1.045Zm8.36,3.96h-.935v-4a3.49,3.49,0,0,0-.378-1.856,1.292,1.292,0,0,0-1.162-.577,2.382,2.382,0,0,0-.825.151,2.781,2.781,0,0,0-.763.426,3.262,3.262,0,0,0-.626.653,2.56,2.56,0,0,0-.4.818v4.386h-.935v-7.164h.852v1.622A3.365,3.365,0,0,1-31.8-20.311a3.45,3.45,0,0,1,1.781-.481,2.109,2.109,0,0,1,1,.22,1.713,1.713,0,0,1,.66.619,2.85,2.85,0,0,1,.357.976,6.854,6.854,0,0,1,.11,1.279Zm4.936.137a3.087,3.087,0,0,1-1.375-.309,3.5,3.5,0,0,1-1.086-.818,3.763,3.763,0,0,1-.708-1.176,3.883,3.883,0,0,1-.254-1.4,4.171,4.171,0,0,1,.247-1.437,3.838,3.838,0,0,1,.681-1.189,3.207,3.207,0,0,1,1.031-.8,2.922,2.922,0,0,1,1.313-.3,2.8,2.8,0,0,1,1.609.474,3.59,3.59,0,0,1,1.1,1.148v-4.372h.935v8.827q0,.385.33.385v.825a1.775,1.775,0,0,1-.33.041.858.858,0,0,1-.577-.213.657.657,0,0,1-.247-.516v-.7a3.133,3.133,0,0,1-1.155,1.114A3.03,3.03,0,0,1-22.955-13.368Zm.206-.825a2.227,2.227,0,0,0,.736-.137,3.022,3.022,0,0,0,.736-.378,2.533,2.533,0,0,0,.584-.564,1.525,1.525,0,0,0,.3-.694V-18.18a2.458,2.458,0,0,0-.4-.694,3.209,3.209,0,0,0-.6-.571,2.811,2.811,0,0,0-.722-.385,2.239,2.239,0,0,0-.756-.137,2.2,2.2,0,0,0-1.045.247,2.643,2.643,0,0,0-.8.653,2.915,2.915,0,0,0-.516.928,3.291,3.291,0,0,0-.179,1.072,2.969,2.969,0,0,0,.206,1.1,2.948,2.948,0,0,0,.564.914,2.727,2.727,0,0,0,.846.626A2.4,2.4,0,0,0-22.748-14.193Zm7.782.825a4.985,4.985,0,0,1-1.636-.275,3.932,3.932,0,0,1-1.375-.8l.426-.632a4.662,4.662,0,0,0,1.231.742,3.611,3.611,0,0,0,1.341.247,2.42,2.42,0,0,0,1.382-.351,1.135,1.135,0,0,0,.516-1,.864.864,0,0,0-.137-.5,1.19,1.19,0,0,0-.406-.351,3.166,3.166,0,0,0-.674-.268q-.406-.117-.942-.241-.619-.151-1.072-.3a3.28,3.28,0,0,1-.749-.344,1.24,1.24,0,0,1-.44-.474,1.546,1.546,0,0,1-.144-.708,2.038,2.038,0,0,1,.213-.949,1.935,1.935,0,0,1,.577-.681A2.623,2.623,0,0,1-16-20.655a3.812,3.812,0,0,1,1.038-.137,4.021,4.021,0,0,1,1.5.268,2.962,2.962,0,0,1,1.086.708l-.454.55a2.516,2.516,0,0,0-.969-.619,3.472,3.472,0,0,0-1.189-.206,2.953,2.953,0,0,0-.687.076,1.655,1.655,0,0,0-.557.241,1.186,1.186,0,0,0-.378.419,1.239,1.239,0,0,0-.137.6.985.985,0,0,0,.1.467.821.821,0,0,0,.316.309,2.575,2.575,0,0,0,.557.234q.337.1.818.213.687.165,1.21.33a3.8,3.8,0,0,1,.873.385,1.517,1.517,0,0,1,.529.536,1.543,1.543,0,0,1,.179.77,1.868,1.868,0,0,1-.756,1.567A3.271,3.271,0,0,1-14.966-13.368Z" transform="translate(358.706 60.924)" fill="#ececec"/>
      <rect id="Rectangle_91" data-name="Rectangle 91" width="75" height="13" transform="translate(12.596 70.671)" fill="#ececec"/>
      <rect id="Rectangle_91-2" data-name="Rectangle 91" width="75" height="12" transform="translate(12.596 90.671)" fill="#ececec"/>
      <rect id="Rectangle_92" data-name="Rectangle 92" width="49" height="13" rx="6.5" transform="translate(25.596 166.671)" fill="rgba(236,236,236,0.56)"/>
      <rect id="Rectangle_96" data-name="Rectangle 96" width="47" height="13" rx="6.5" transform="translate(152.596 166.671)" fill="rgba(236,236,236,0.56)"/>
      <rect id="Rectangle_98" data-name="Rectangle 98" width="48" height="13" rx="6.5" transform="translate(282.596 166.671)" fill="rgba(236,236,236,0.56)"/>
      <rect id="Rectangle_99" data-name="Rectangle 99" width="16" height="8" rx="4" transform="translate(326.596 73.671)" fill="rgba(236,236,236,0.56)"/>
      <rect id="Rectangle_99-2" data-name="Rectangle 99" width="16" height="8" rx="4" transform="translate(326.596 102.671)" fill="rgba(236,236,236,0.56)"/>
      <rect id="Rectangle_99-3" data-name="Rectangle 99" width="16" height="7" rx="3.5" transform="translate(326.596 132.671)" fill="rgba(236,236,236,0.56)"/>
      <rect id="Rectangle_91-3" data-name="Rectangle 91" width="73" height="13" transform="translate(139.596 70.671)" fill="#ececec"/>
      <g id="Ellipse_78" data-name="Ellipse 78" transform="translate(134.596 131.671)" fill="rgba(255,255,255,0.16)" stroke="#ececec" stroke-width="1">
        <ellipse cx="10.5" cy="10" rx="10.5" ry="10" stroke="none"/>
        <ellipse cx="10.5" cy="10" rx="10" ry="9.5" fill="none"/>
      </g>
      <g id="Ellipse_78-2" data-name="Ellipse 78" transform="translate(164.596 131.671)" fill="rgba(255,255,255,0.16)" stroke="#ececec" stroke-width="1">
        <ellipse cx="10.5" cy="10" rx="10.5" ry="10" stroke="none"/>
        <ellipse cx="10.5" cy="10" rx="10" ry="9.5" fill="none"/>
      </g>
      <g id="Ellipse_78-3" data-name="Ellipse 78" transform="translate(194.596 131.671)" fill="rgba(255,255,255,0.16)" stroke="#ececec" stroke-width="1">
        <ellipse cx="11" cy="10" rx="11" ry="10" stroke="none"/>
        <ellipse cx="11" cy="10" rx="10.5" ry="9.5" fill="none"/>
      </g>
      <g id="Ellipse_78-4" data-name="Ellipse 78" transform="translate(292.847 66.109) rotate(90)" fill="rgba(255,255,255,0.16)" stroke="#ececec" stroke-width="1">
        <circle cx="10.742" cy="10.742" r="10.742" stroke="none"/>
        <circle cx="10.742" cy="10.742" r="10.242" fill="none"/>
      </g>
      <g id="Ellipse_78-5" data-name="Ellipse 78" transform="translate(292.847 96.186) rotate(90)" fill="rgba(255,255,255,0.16)" stroke="#ececec" stroke-width="1">
        <circle cx="10.742" cy="10.742" r="10.742" stroke="none"/>
        <circle cx="10.742" cy="10.742" r="10.242" fill="none"/>
      </g>
      <g id="Ellipse_78-6" data-name="Ellipse 78" transform="translate(292.847 126.264) rotate(90)" fill="rgba(255,255,255,0.16)" stroke="#ececec" stroke-width="1">
        <circle cx="10.742" cy="10.742" r="10.742" stroke="none"/>
        <circle cx="10.742" cy="10.742" r="10.242" fill="none"/>
      </g>
      <g id="flowKitConnector" transform="translate(101.546 101.166)">
        <path id="line" d="M86.491,1677.089h19.259" transform="translate(-86.491 -1673.651)" fill="#ececec" stroke="#ececec" stroke-width="1"/>
        <path id="leftEdge" transform="translate(0 3.437)" fill="#ececec" stroke="#ececec" stroke-width="1"/>
        <path id="rightEdge" d="M-15-8h0l6.445,3.437L-15-1.125l1.289-3.437Z" transform="translate(27.814 8)" fill="#ececec" stroke="#ececec" stroke-width="1"/>
      </g>
      <g id="flowKitConnector-2" data-name="flowKitConnector" transform="translate(231.308 120.072)">
        <path id="line-2" data-name="line" d="M110.434,1677.089H86.491" transform="translate(-86.491 -1673.651)" fill="#ececec" stroke="#ececec" stroke-width="1"/>
        <path id="leftEdge-2" data-name="leftEdge" transform="translate(23.942 3.437)" fill="#ececec" stroke="#ececec" stroke-width="1"/>
        <path id="rightEdge-2" data-name="rightEdge" d="M-8.555-8h0L-15-4.563l6.445,3.437L-9.844-4.563Z" transform="translate(15 8)" fill="#ececec" stroke="#ececec" stroke-width="1"/>
      </g>
      <g id="flowKitConnector-3" data-name="flowKitConnector" transform="translate(227.441 97.299)">
        <path id="line-3" data-name="line" d="M86.491,1677.089h23.942" transform="translate(-86.491 -1673.651)" fill="#ececec" stroke="#ececec" stroke-width="1"/>
        <path id="leftEdge-3" data-name="leftEdge" transform="translate(0 3.437)" fill="#ececec" stroke="#ececec" stroke-width="1"/>
        <path id="rightEdge-3" data-name="rightEdge" d="M-15-8h0l6.445,3.437L-15-1.125l1.289-3.437Z" transform="translate(32.497 8)" fill="#ececec" stroke="#ececec" stroke-width="1"/>
      </g>
    </g>
    <g id="flowKitConnector-4" data-name="flowKitConnector" transform="translate(648.848 1494.568) rotate(90)">
      <path id="line-4" data-name="line" d="M0,0H20.11V499.256H59.055" transform="translate(18.834)" fill="none" stroke="#ececec" stroke-width="1"/>
      <path id="leftEdge-4" data-name="leftEdge" fill="none" stroke="#ececec" stroke-width="1"/>
      <path id="rightEdge-4" data-name="rightEdge" d="M0,0H0L6.445,3.437,0,6.875,1.289,3.437Z" transform="translate(71.445 495.819)" fill="#ececec" stroke="#ececec" stroke-width="1"/>
    </g>
    <g id="flowKitConnector-5" data-name="flowKitConnector" transform="translate(197.191 1692.343)">
      <path id="line-5" data-name="line" d="M86.491,1677.089h19.259" transform="translate(-86.491 -1673.651)" fill="#ececec" stroke="#ececec" stroke-width="1"/>
      <path id="leftEdge-5" data-name="leftEdge" transform="translate(0 3.437)" fill="#ececec" stroke="#ececec" stroke-width="1"/>
      <path id="rightEdge-5" data-name="rightEdge" d="M-15-8h0l6.445,3.437L-15-1.125l1.289-3.437Z" transform="translate(27.814 8)" fill="#ececec" stroke="#ececec" stroke-width="1"/>
    </g>
    <g id="flowKitConnector-6" data-name="flowKitConnector" transform="translate(323.515 1692.343)">
      <path id="line-6" data-name="line" d="M86.491,1677.089h19.259" transform="translate(-86.491 -1673.651)" fill="#ececec" stroke="#ececec" stroke-width="1"/>
      <path id="leftEdge-6" data-name="leftEdge" transform="translate(0 3.437)" fill="#ececec" stroke="#ececec" stroke-width="1"/>
      <path id="rightEdge-6" data-name="rightEdge" d="M-15-8h0l6.445,3.437L-15-1.125l1.289-3.437Z" transform="translate(27.814 8)" fill="#ececec" stroke="#ececec" stroke-width="1"/>
    </g>
    <g id="flowKitConnector-7" data-name="flowKitConnector" transform="translate(405.77 1787.114) rotate(90)">
      <path id="line-7" data-name="line" d="M0,0H47.638" transform="translate(0 3.437)" fill="#ececec" stroke="#ececec" stroke-width="1"/>
      <path id="leftEdge-7" data-name="leftEdge" transform="translate(0 3.437)" fill="#ececec" stroke="#ececec" stroke-width="1"/>
      <path id="rightEdge-7" data-name="rightEdge" d="M0,0H0L6.445,3.437,0,6.875,1.289,3.437Z" transform="translate(41.193 0)" fill="#ececec" stroke="#ececec" stroke-width="1"/>
    </g>
    <g id="Group_662" data-name="Group 662" transform="translate(351.736 1840.181)">
      <g id="Rectangle_108" data-name="Rectangle 108" transform="translate(-0.01 0.37)" fill="none" stroke="#ececec" stroke-width="1">
        <rect width="102" height="205" stroke="none"/>
        <rect x="0.5" y="0.5" width="101" height="204" fill="none"/>
      </g>
      <g id="Rectangle_110" data-name="Rectangle 110" transform="translate(123.99 0.37)" fill="none" stroke="#ececec" stroke-width="1">
        <rect width="102" height="205" stroke="none"/>
        <rect x="0.5" y="0.5" width="101" height="204" fill="none"/>
      </g>
      <g id="Rectangle_114" data-name="Rectangle 114" transform="translate(243.99 0.37)" fill="none" stroke="#ececec" stroke-width="1">
        <rect width="102" height="205" stroke="none"/>
        <rect x="0.5" y="0.5" width="101" height="204" fill="none"/>
      </g>
      <path id="Path_1366" data-name="Path 1366" d="M-28.2-18.479l.258-13.921h1.908l2.458,11.292L-21.1-32.4h1.891l.258,13.921h-1.564l-.155-10.106-2.355,10.106h-1.1l-2.337-10.106-.155,10.106Zm13.011.137a1.672,1.672,0,0,1-1.031-.335,2.354,2.354,0,0,1-.7-.859,2.48,2.48,0,0,1-.258-1.109,3.556,3.556,0,0,1,.309-1.564,3.12,3.12,0,0,1,.851-1.074,5.858,5.858,0,0,1,1.255-.765q.713-.327,1.5-.636v-.7a5.981,5.981,0,0,0-.069-1,1.015,1.015,0,0,0-.284-.593.923.923,0,0,0-.645-.2,1,1,0,0,0-.61.172.955.955,0,0,0-.335.49,2.43,2.43,0,0,0-.1.748v.5l-1.822-.069a3.612,3.612,0,0,1,.756-2.432,2.9,2.9,0,0,1,2.234-.782,2.481,2.481,0,0,1,2.1.808,3.788,3.788,0,0,1,.619,2.337v4.537q0,.464.026.894t.069.8q.043.37.077.7h-1.684q-.052-.275-.129-.7t-.112-.765a2.646,2.646,0,0,1-.662,1.091A1.788,1.788,0,0,1-15.189-18.341Zm.722-1.581a.936.936,0,0,0,.516-.155,2.35,2.35,0,0,0,.43-.352,1.827,1.827,0,0,0,.258-.318v-2.819q-.43.241-.808.481a4.461,4.461,0,0,0-.662.507,2.058,2.058,0,0,0-.447.6,1.725,1.725,0,0,0-.163.765,1.722,1.722,0,0,0,.223.945A.73.73,0,0,0-14.468-19.922Zm4.812,4.709v-13.2h1.839v.791a3.167,3.167,0,0,1,.791-.653,2.118,2.118,0,0,1,1.1-.275,1.785,1.785,0,0,1,1.229.4,2.459,2.459,0,0,1,.679,1.014,5.251,5.251,0,0,1,.292,1.237,10.082,10.082,0,0,1,.069,1.074v2.406a9.214,9.214,0,0,1-.206,1.985,3.141,3.141,0,0,1-.748,1.512,1.986,1.986,0,0,1-1.521.576,1.7,1.7,0,0,1-.945-.266,4.03,4.03,0,0,1-.739-.61v4Zm3.162-4.572a.733.733,0,0,0,.687-.352,2.281,2.281,0,0,0,.258-.954q.052-.6.052-1.323v-2.406a8.818,8.818,0,0,0-.069-1.143,1.812,1.812,0,0,0-.292-.834.81.81,0,0,0-.7-.309,1.587,1.587,0,0,0-.687.155,2.53,2.53,0,0,0-.567.361v6.359a2.591,2.591,0,0,0,.584.318A2,2,0,0,0-6.493-19.785Z" transform="translate(67.233 39.035)" fill="#ececec"/>
      <path id="Path_1367" data-name="Path 1367" d="M-49.04-18.479-46.084-32.4h1.873l2.973,13.921h-1.839l-.636-3.506h-2.836l-.67,3.506Zm2.75-4.9h2.32l-1.169-6.273Zm6.462,4.9V-32.4h2.8a6.174,6.174,0,0,1,2.3.37,2.571,2.571,0,0,1,1.349,1.186,4.52,4.52,0,0,1,.438,2.14,5.845,5.845,0,0,1-.172,1.469,2.838,2.838,0,0,1-.55,1.117,2.142,2.142,0,0,1-1,.662l1.977,6.978h-1.873l-1.822-6.531h-1.512v6.531Zm1.942-7.923h.739a3.661,3.661,0,0,0,1.341-.206,1.382,1.382,0,0,0,.756-.7,3.268,3.268,0,0,0,.241-1.392,2.768,2.768,0,0,0-.447-1.762,2.242,2.242,0,0,0-1.77-.541h-.859Zm10.759,7.923v-9.934h1.839v.98a5.361,5.361,0,0,1,1.1-.791,2.729,2.729,0,0,1,1.323-.327,1.266,1.266,0,0,1,.92.309,1.684,1.684,0,0,1,.447.773,3.516,3.516,0,0,1,.129.945v8.044h-1.839v-7.511a1.792,1.792,0,0,0-.155-.825A.652.652,0,0,0-24-27.106a1.359,1.359,0,0,0-.645.18,3.881,3.881,0,0,0-.645.438v8.009Zm9.333.137a1.672,1.672,0,0,1-1.031-.335,2.354,2.354,0,0,1-.7-.859,2.48,2.48,0,0,1-.258-1.109,3.556,3.556,0,0,1,.309-1.564,3.12,3.12,0,0,1,.851-1.074,5.858,5.858,0,0,1,1.255-.765q.713-.327,1.5-.636v-.7a5.98,5.98,0,0,0-.069-1,1.015,1.015,0,0,0-.284-.593.923.923,0,0,0-.645-.2,1,1,0,0,0-.61.172.955.955,0,0,0-.335.49,2.43,2.43,0,0,0-.1.748v.5l-1.822-.069a3.612,3.612,0,0,1,.756-2.432,2.9,2.9,0,0,1,2.234-.782,2.481,2.481,0,0,1,2.1.808A3.788,3.788,0,0,1-14.03-25.4v4.537q0,.464.026.894t.069.8q.043.37.077.7h-1.684q-.052-.275-.129-.7t-.112-.765a2.646,2.646,0,0,1-.662,1.091A1.788,1.788,0,0,1-17.794-18.341Zm.722-1.581a.936.936,0,0,0,.516-.155,2.35,2.35,0,0,0,.43-.352,1.827,1.827,0,0,0,.258-.318v-2.819q-.43.241-.808.481a4.461,4.461,0,0,0-.662.507,2.058,2.058,0,0,0-.447.6,1.725,1.725,0,0,0-.163.765,1.722,1.722,0,0,0,.223.945A.73.73,0,0,0-17.072-19.922Zm6.1,1.444-1.959-9.934h1.856l1.22,7.992,1.237-7.992h1.787l-1.891,9.934Z" transform="translate(202.435 39.035)" fill="#ececec"/>
      <path id="Path_1368" data-name="Path 1368" d="M-49.04-18.479-46.084-32.4h1.873l2.973,13.921h-1.839l-.636-3.506h-2.836l-.67,3.506Zm2.75-4.9h2.32l-1.169-6.273Zm6.462,4.9V-32.4h2.8a6.174,6.174,0,0,1,2.3.37,2.571,2.571,0,0,1,1.349,1.186,4.52,4.52,0,0,1,.438,2.14,5.845,5.845,0,0,1-.172,1.469,2.838,2.838,0,0,1-.55,1.117,2.142,2.142,0,0,1-1,.662l1.977,6.978h-1.873l-1.822-6.531h-1.512v6.531Zm1.942-7.923h.739a3.661,3.661,0,0,0,1.341-.206,1.382,1.382,0,0,0,.756-.7,3.268,3.268,0,0,0,.241-1.392,2.768,2.768,0,0,0-.447-1.762,2.242,2.242,0,0,0-1.77-.541h-.859Zm10.759,7.923v-9.934h1.839v.98a5.361,5.361,0,0,1,1.1-.791,2.729,2.729,0,0,1,1.323-.327,1.266,1.266,0,0,1,.92.309,1.684,1.684,0,0,1,.447.773,3.516,3.516,0,0,1,.129.945v8.044h-1.839v-7.511a1.792,1.792,0,0,0-.155-.825A.652.652,0,0,0-24-27.106a1.359,1.359,0,0,0-.645.18,3.881,3.881,0,0,0-.645.438v8.009Zm9.333.137a1.672,1.672,0,0,1-1.031-.335,2.354,2.354,0,0,1-.7-.859,2.48,2.48,0,0,1-.258-1.109,3.556,3.556,0,0,1,.309-1.564,3.12,3.12,0,0,1,.851-1.074,5.858,5.858,0,0,1,1.255-.765q.713-.327,1.5-.636v-.7a5.98,5.98,0,0,0-.069-1,1.015,1.015,0,0,0-.284-.593.923.923,0,0,0-.645-.2,1,1,0,0,0-.61.172.955.955,0,0,0-.335.49,2.43,2.43,0,0,0-.1.748v.5l-1.822-.069a3.612,3.612,0,0,1,.756-2.432,2.9,2.9,0,0,1,2.234-.782,2.481,2.481,0,0,1,2.1.808A3.788,3.788,0,0,1-14.03-25.4v4.537q0,.464.026.894t.069.8q.043.37.077.7h-1.684q-.052-.275-.129-.7t-.112-.765a2.646,2.646,0,0,1-.662,1.091A1.788,1.788,0,0,1-17.794-18.341Zm.722-1.581a.936.936,0,0,0,.516-.155,2.35,2.35,0,0,0,.43-.352,1.827,1.827,0,0,0,.258-.318v-2.819q-.43.241-.808.481a4.461,4.461,0,0,0-.662.507,2.058,2.058,0,0,0-.447.6,1.725,1.725,0,0,0-.163.765,1.722,1.722,0,0,0,.223.945A.73.73,0,0,0-17.072-19.922Zm6.1,1.444-1.959-9.934h1.856l1.22,7.992,1.237-7.992h1.787l-1.891,9.934Z" transform="translate(322.745 39.035)" fill="#ececec"/>
      <rect id="Rectangle_111" data-name="Rectangle 111" width="34" height="13" rx="6.5" transform="translate(62.99 181.37)" fill="rgba(236,236,236,0.56)"/>
      <rect id="Rectangle_112" data-name="Rectangle 112" width="13" height="13" rx="6.5" transform="translate(204.99 179.37)" fill="rgba(236,236,236,0.56)"/>
      <rect id="Rectangle_115" data-name="Rectangle 115" width="12" height="13" rx="6" transform="translate(325.99 179.37)" fill="rgba(236,236,236,0.56)"/>
      <g id="Rectangle_113" data-name="Rectangle 113" transform="translate(204.99 163.37)" fill="none" stroke="#57ceb0" stroke-width="1">
        <rect width="13" height="13" rx="6.5" stroke="none"/>
        <rect x="0.5" y="0.5" width="12" height="12" rx="6" fill="none"/>
      </g>
      <g id="Rectangle_116" data-name="Rectangle 116" transform="translate(325.99 165.37)" fill="#57ceb0" stroke="#57ceb0" stroke-width="1">
        <rect width="12" height="11" rx="5" stroke="none"/>
        <rect x="0.5" y="0.5" width="11" height="10" rx="4.5" fill="none"/>
      </g>
      <path id="Path_1107" data-name="Path 1107" d="M-3044.262,225l37.623,22.093-37.623,13.279-6.639,22.869h33.2l33.2,20.656v16.229l-33.2,25.082-16.967,19.18" transform="translate(3070.727 -170.069)" fill="none" stroke="#367b6c" stroke-width="2"/>
      <path id="Path_1109" data-name="Path 1109" d="M-3044.262,225l37.623,11.047-37.623,6.639-6.639,11.434h33.2l33.2,10.328v8.115l-39.524,13.506v32.545" transform="translate(3194.904 -114.984)" fill="none" stroke="#367b6c" stroke-width="2"/>
      <path id="Path_1111" data-name="Path 1111" d="M-3042.035,226.444l35.4,10.426-37.623,6.639-6.639,11.434h33.2l33.2,10.328v8.115l-39.524,13.506v32.545" transform="translate(3315.213 -115.808)" fill="none" stroke="#367b6c" stroke-width="2"/>
      <g id="start" transform="translate(85.36 127.72) rotate(45)">
        <path id="Path_1097" data-name="Path 1097" d="M5.085,0a4.014,4.014,0,1,1,0,8.029C2.868,8.029,0,4.014,0,4.014S2.868,0,5.085,0Z" transform="translate(0 0)" fill="#ececec" opacity="0.56"/>
        <g transform="matrix(0.71, -0.71, 0.71, 0.71, -708.32, -224.14)" filter="url(#Path_1096)">
          <path id="Path_1096-4" data-name="Path 1096" d="M2.944,0a1.873,1.873,0,1,1,0,3.747C1.909,3.747,0,1.873,0,1.873S1.909,0,2.944,0Z" transform="translate(342.37 662.38) rotate(45)" fill="#ececec"/>
        </g>
      </g>
      <g id="dot" transform="translate(23.866 58.153) rotate(-90)">
        <g transform="matrix(0, 1, -1, 0, 589.78, -280.88)" filter="url(#Ellipse_46)">
          <circle id="Ellipse_46-4" data-name="Ellipse 46" cx="1.504" cy="1.504" r="1.504" transform="translate(282.59 588.06) rotate(-90)" fill="#ececec"/>
        </g>
        <g transform="matrix(0, 1, -1, 0, 589.78, -280.88)" filter="url(#Ellipse_49)">
          <circle id="Ellipse_49-4" data-name="Ellipse 49" cx="2.363" cy="2.363" r="2.363" transform="translate(281.74 588.92) rotate(-90)" fill="#ececec" opacity="0.56"/>
        </g>
        <g transform="matrix(0, 1, -1, 0, 589.78, -280.88)" filter="url(#Ellipse_50)">
          <circle id="Ellipse_50-4" data-name="Ellipse 50" cx="3.223" cy="3.223" r="3.223" transform="translate(280.88 589.78) rotate(-90)" fill="#ececec" opacity="0.32"/>
        </g>
      </g>
      <g id="dot-2" data-name="dot" transform="translate(148.042 113.152) rotate(-90)">
        <g transform="matrix(0, 1, -1, 0, 644.78, -405.05)" filter="url(#Ellipse_46-2)">
          <circle id="Ellipse_46-5" data-name="Ellipse 46" cx="1.504" cy="1.504" r="1.504" transform="translate(406.77 643.06) rotate(-90)" fill="#ececec"/>
        </g>
        <g transform="matrix(0, 1, -1, 0, 644.78, -405.05)" filter="url(#Ellipse_49-2)">
          <circle id="Ellipse_49-5" data-name="Ellipse 49" cx="2.363" cy="2.363" r="2.363" transform="translate(405.91 643.92) rotate(-90)" fill="#ececec" opacity="0.56"/>
        </g>
        <g transform="matrix(0, 1, -1, 0, 644.78, -405.05)" filter="url(#Ellipse_50-2)">
          <circle id="Ellipse_50-5" data-name="Ellipse 50" cx="3.223" cy="3.223" r="3.223" transform="translate(405.05 644.78) rotate(-90)" fill="#ececec" opacity="0.32"/>
        </g>
      </g>
      <g id="dot-3" data-name="dot" transform="translate(264.484 35.38) rotate(-90)">
        <g transform="matrix(0, 1, -1, 0, 567.01, -521.49)" filter="url(#Ellipse_46-3)">
          <circle id="Ellipse_46-6" data-name="Ellipse 46" cx="1.504" cy="1.504" r="1.504" transform="translate(523.21 565.29) rotate(-90)" fill="#ececec"/>
        </g>
        <g transform="matrix(0, 1, -1, 0, 567.01, -521.49)" filter="url(#Ellipse_49-3)">
          <circle id="Ellipse_49-6" data-name="Ellipse 49" cx="2.363" cy="2.363" r="2.363" transform="translate(522.35 566.15) rotate(-90)" fill="#ececec" opacity="0.56"/>
        </g>
        <g transform="matrix(0, 1, -1, 0, 567.01, -521.49)" filter="url(#Ellipse_50-3)">
          <circle id="Ellipse_50-6" data-name="Ellipse 50" cx="3.223" cy="3.223" r="3.223" transform="translate(521.49 567.01) rotate(-90)" fill="#ececec" opacity="0.32"/>
        </g>
      </g>
      <path id="Path_1110" data-name="Path 1110" d="M-3352.137,486.048l12.5-35.128,52.433-12.14V433.1l-31-11.107h1.034l33.061,9.557.75,8.984-24.6,15.483,11.31,30.873Z" transform="translate(3494.749 -282.419)" fill="#367b6c"/>
      <path id="Path_1112" data-name="Path 1112" d="M-3352.137,486.048l12.5-35.128,52.433-12.14V433.1l-31-11.107h1.034l33.061,9.557.75,8.984-24.6,15.483,11.31,30.873Z" transform="translate(3615.058 -282.419)" fill="#367b6c"/>
      <g id="start-2" data-name="start" transform="translate(197.903 169.458) rotate(90)">
        <path id="Path_1097-2" data-name="Path 1097" d="M35.018,0c.022-.008.42,55.226,0,55.291C19.75,55.291,0,27.646,0,27.646S19.75,0,35.018,0Z" transform="translate(0 0)" fill="#ececec" opacity="0.56"/>
        <g transform="matrix(0, -1, 1, 0, -701.09, 454.91)" filter="url(#Path_1096-2)">
          <path id="Path_1096-5" data-name="Path 1096" d="M20.274,0c.618-.05-.176,25.581,0,25.8C13.148,25.8,0,12.9,0,12.9S13.148,0,20.274,0Z" transform="translate(440.17 715.83) rotate(90)" fill="#ececec"/>
        </g>
      </g>
      <g id="start-3" data-name="start" transform="translate(318.212 169.458) rotate(90)">
        <path id="Path_1097-3" data-name="Path 1097" d="M35.018,0c.022-.008.42,55.226,0,55.291C19.75,55.291,0,27.646,0,27.646S19.75,0,35.018,0Z" transform="translate(0 0)" fill="#ececec" opacity="0.56"/>
        <g transform="matrix(0, -1, 1, 0, -701.09, 575.22)" filter="url(#Path_1096-3)">
          <path id="Path_1096-6" data-name="Path 1096" d="M20.274,0c.618-.05-.176,25.581,0,25.8C13.148,25.8,0,12.9,0,12.9S13.148,0,20.274,0Z" transform="translate(560.48 715.83) rotate(90)" fill="#ececec"/>
        </g>
      </g>
      <path id="Path_1370" data-name="Path 1370" d="M-1.123-9.294v-5.215h.965v5.215Zm0-5.991V-16.3h.965v1.011Z" transform="translate(211.967 182.65)" fill="#57ceb0"/>
      <path id="Path_1371" data-name="Path 1371" d="M-1.123-9.294v-5.215h.965v5.215Zm0-5.991V-16.3h.965v1.011Z" transform="translate(332.541 183.94)" fill="#0d1214"/>
      <path id="Path_1113" data-name="Path 1113" d="M-3116.494,220.374l20.482,16.117,9.4,44.091-29.6,6.347Z" transform="translate(3361.646 -167.431)" fill="rgba(255,255,255,0.32)" stroke="#ececec" stroke-width="1"/>
      <path id="Path_1114" data-name="Path 1114" d="M-3033.9,295.332l37.194-26.6,28.153-9.04v45.976Z" transform="translate(3313.251 -189.853)" fill="rgba(236,236,236,0.16)" stroke="#ececec" stroke-width="1"/>
      <g id="Path_1115" data-name="Path 1115" transform="translate(3344.45 -131.57)" fill="rgba(236,236,236,0.08)">
        <path d="M -3072.119384765625 230.8791351318359 L -3079.594482421875 200.2536315917969 L -3079.633056640625 200.095947265625 L -3079.7568359375 199.9909362792969 L -3087.752197265625 193.207275390625 L -3048.893798828125 169.5876617431641 L -2999.993896484375 158.1267242431641 L -2999.993896484375 201.5489501953125 L -3028.306640625 209.9662322998047 L -3028.39013671875 209.9910888671875 L -3028.46044921875 210.0427703857422 L -3055.083251953125 229.6316070556641 L -3072.119384765625 230.8791351318359 Z" stroke="none"/>
        <path d="M -3000.493896484375 158.7574310302734 L -3048.7021484375 170.0562744140625 L -3086.900146484375 193.2744903564453 L -3079.433349609375 199.6096801757813 L -3079.185791015625 199.8197021484375 L -3079.10888671875 200.1350708007813 L -3071.734130859375 230.3495635986328 L -3055.263671875 229.1434783935547 L -3028.756591796875 209.6400299072266 L -3028.6162109375 209.5366668701172 L -3028.448974609375 209.4869537353516 L -3000.493896484375 201.1759643554688 L -3000.493896484375 158.7574310302734 M -2999.493896484375 157.4959716796875 L -2999.493896484375 201.9219360351563 L -3028.1640625 210.4454956054688 L -3054.903076171875 230.1197509765625 L -3072.5048828125 231.40869140625 L -3080.080322265625 200.3721923828125 L -3088.604248046875 193.1400756835938 L -3049.08544921875 169.1190185546875 L -2999.493896484375 157.4959716796875 Z" stroke="none" fill="#ececec"/>
      </g>
      <path id="Path_1116" data-name="Path 1116" d="M-3061,172v22.97" transform="translate(3328.706 -139.842)" fill="none" stroke="#fff" stroke-width="1"/>
      <path id="Path_1369" data-name="Path 1369" d="M-22.8-9.889a2.123,2.123,0,0,1-1.2-.345,2.748,2.748,0,0,1-.84-.871V-7.8h-.7v-7.569h.629v1.042a2.6,2.6,0,0,1,.856-.82,2.19,2.19,0,0,1,1.145-.315,2.25,2.25,0,0,1,1.021.232,2.625,2.625,0,0,1,.8.619,2.872,2.872,0,0,1,.531.892,2.925,2.925,0,0,1,.191,1.042,3.249,3.249,0,0,1-.175,1.072,2.736,2.736,0,0,1-.5.887,2.4,2.4,0,0,1-.773.6A2.192,2.192,0,0,1-22.8-9.889Zm-.2-.619a1.679,1.679,0,0,0,.789-.186,1.962,1.962,0,0,0,.608-.49,2.2,2.2,0,0,0,.387-.691,2.423,2.423,0,0,0,.134-.8,2.226,2.226,0,0,0-.155-.825,2.277,2.277,0,0,0-.423-.691,2.008,2.008,0,0,0-.634-.474,1.8,1.8,0,0,0-.789-.175,1.625,1.625,0,0,0-.562.108,2.309,2.309,0,0,0-.547.289,1.946,1.946,0,0,0-.433.423,1.139,1.139,0,0,0-.222.51v1.65a2.466,2.466,0,0,0,.315.536,2.219,2.219,0,0,0,.433.428,2.075,2.075,0,0,0,.521.284A1.65,1.65,0,0,0-23-10.508Zm6.136.619a2.583,2.583,0,0,1-1.078-.222,2.641,2.641,0,0,1-.851-.608,2.825,2.825,0,0,1-.562-.892,2.9,2.9,0,0,1-.2-1.083,2.834,2.834,0,0,1,.2-1.067,2.763,2.763,0,0,1,.557-.877,2.643,2.643,0,0,1,.851-.6,2.593,2.593,0,0,1,1.072-.222,2.583,2.583,0,0,1,1.078.222,2.562,2.562,0,0,1,.84.6,2.813,2.813,0,0,1,.547.877,2.832,2.832,0,0,1,.2,1.052v.165a.415.415,0,0,1-.01.113h-4.6a2.262,2.262,0,0,0,.2.8,2.2,2.2,0,0,0,.438.634,1.964,1.964,0,0,0,.614.418,1.836,1.836,0,0,0,.737.15,1.9,1.9,0,0,0,.516-.072,2.084,2.084,0,0,0,.474-.2,1.764,1.764,0,0,0,.392-.3,1.306,1.306,0,0,0,.268-.4l.608.165a1.787,1.787,0,0,1-.351.541,2.448,2.448,0,0,1-.526.423,2.576,2.576,0,0,1-.66.278A2.861,2.861,0,0,1-16.865-9.889Zm1.98-3.073a2.17,2.17,0,0,0-.2-.789,2.147,2.147,0,0,0-.433-.614,1.916,1.916,0,0,0-.608-.4,1.893,1.893,0,0,0-.737-.144,1.931,1.931,0,0,0-.742.144,1.9,1.9,0,0,0-.614.4,1.976,1.976,0,0,0-.423.619,2.342,2.342,0,0,0-.191.784Zm3.1,3.073a1.9,1.9,0,0,1-.706-.129,1.783,1.783,0,0,1-.567-.356,1.609,1.609,0,0,1-.376-.531,1.606,1.606,0,0,1-.134-.655,1.323,1.323,0,0,1,.165-.65,1.573,1.573,0,0,1,.464-.516,2.272,2.272,0,0,1,.712-.335,3.276,3.276,0,0,1,.907-.119,4.956,4.956,0,0,1,.835.072,3.621,3.621,0,0,1,.753.206v-.485a1.559,1.559,0,0,0-.4-1.129,1.473,1.473,0,0,0-1.114-.418,2.367,2.367,0,0,0-.846.165,4.078,4.078,0,0,0-.877.474l-.247-.464a3.628,3.628,0,0,1,2.021-.7,2.169,2.169,0,0,1,1.588.567,2.1,2.1,0,0,1,.577,1.567V-10.9q0,.289.258.289v.619a1.672,1.672,0,0,1-.268.031.6.6,0,0,1-.418-.134.5.5,0,0,1-.16-.371l-.021-.423a2.437,2.437,0,0,1-.933.742A2.871,2.871,0,0,1-11.781-9.889Zm.165-.536a2.424,2.424,0,0,0,1.005-.206,1.642,1.642,0,0,0,.7-.547.642.642,0,0,0,.139-.2.514.514,0,0,0,.046-.2v-.877a4.3,4.3,0,0,0-.727-.206,4.07,4.07,0,0,0-.768-.072,2.137,2.137,0,0,0-1.207.309.94.94,0,0,0-.464.815,1.113,1.113,0,0,0,.1.464,1.176,1.176,0,0,0,.268.376,1.256,1.256,0,0,0,.407.253A1.374,1.374,0,0,0-11.616-10.425Zm7.94.433-1.98-2.753-1.155,1.072v1.681h-.7V-17.52h.7v5.115l3.021-2.949H-3l-2.2,2.2,2.279,3.166Z" transform="translate(299.464 44.298)" fill="#ececec"/>
      <g id="flowKitConnector-8" data-name="flowKitConnector" transform="translate(101.541 110.826)">
        <path id="line-8" data-name="line" d="M86.491,1677.089h19.259" transform="translate(-86.491 -1673.651)" fill="#ececec" stroke="#ececec" stroke-width="1"/>
        <path id="leftEdge-8" data-name="leftEdge" transform="translate(0 3.437)" fill="#ececec" stroke="#ececec" stroke-width="1"/>
        <path id="rightEdge-8" data-name="rightEdge" d="M-15-8h0l6.445,3.437L-15-1.125l1.289-3.437Z" transform="translate(27.814 8)" fill="#ececec" stroke="#ececec" stroke-width="1"/>
      </g>
      <g id="flowKitConnector-9" data-name="flowKitConnector" transform="translate(224.428 110.826)">
        <path id="line-9" data-name="line" d="M86.491,1677.089h16.8" transform="translate(-86.491 -1673.651)" fill="#ececec" stroke="#ececec" stroke-width="1"/>
        <path id="leftEdge-9" data-name="leftEdge" transform="translate(0 3.437)" fill="#ececec" stroke="#ececec" stroke-width="1"/>
        <path id="rightEdge-9" data-name="rightEdge" d="M-15-8h0l6.445,3.437L-15-1.125l1.289-3.437Z" transform="translate(25.357 8)" fill="#ececec" stroke="#ececec" stroke-width="1"/>
      </g>
    </g>
    <text id="paces_nearby" data-name="paces nearby" transform="translate(252.726 1708.551)" fill="#ececec" font-size="4" font-family="Raleway-Regular, Raleway" opacity="0.24"><tspan x="-12.484" y="0">paces nearby</tspan></text>
    <text id="paces_nearby-2" data-name="paces nearby" transform="translate(377.726 1708.551)" fill="#ececec" font-size="4" font-family="Raleway-Regular, Raleway"><tspan x="-12.484" y="0">paces nearby</tspan></text>
  </g>
</svg>
