<svg xmlns="http://www.w3.org/2000/svg" width="758" height="174" viewBox="0 0 758 174">
  <g id="stats1" transform="translate(3979 -4743)">
    <rect id="Rectangle_648" data-name="Rectangle 648" width="758" height="174" transform="translate(-3979 4743)" fill="#fff"/>
    <g id="Group_1607" data-name="Group 1607">
      <g id="Group_1596" data-name="Group 1596" transform="translate(-3460.539 4782.661)">
        <text id="orienteering_by" data-name="orienteering by" transform="translate(-0.461 12.339)" fill="#0d1214" font-size="12" font-family="Montserrat-Bold, Montserrat" font-weight="700"><tspan x="0" y="0">ORIENTEERING BY</tspan></text>
        <path id="Path_1357" data-name="Path 1357" d="M0,0H19.368V142.405H0Z" transform="translate(142.764 19.653) rotate(90)" fill="#353e40"/>
        <text id="_60_" data-name="60%" transform="translate(146.858 31.344)" fill="#0a0809" font-size="8" font-family="Muli-Bold, Muli" font-weight="700"><tspan x="0" y="0">60%</tspan></text>
        <text id="GPS_navigation" data-name="GPS navigation" transform="translate(4.539 32.339)" fill="#fff" font-size="9" font-family="Muli-Bold, Muli" font-weight="700" letter-spacing="0.04em"><tspan x="0" y="0">GPS Navigation</tspan></text>
        <rect id="Rectangle_635" data-name="Rectangle 635" width="19.368" height="195.89" transform="translate(196.249 41.95) rotate(90)" fill="#f00166"/>
        <text id="_73_" data-name="73%" transform="translate(200.532 54.381)" fill="#0a0809" font-size="8" font-family="Muli-Bold, Muli" font-weight="700"><tspan x="0" y="0">73%</tspan></text>
        <text id="Marking" transform="translate(4.455 55.381)" fill="#fff" font-size="9" font-family="Muli-Bold, Muli" font-weight="700" letter-spacing="0.04em"><tspan x="0" y="0">Marking</tspan></text>
        <rect id="Rectangle_636" data-name="Rectangle 636" width="19.368" height="124.925" transform="translate(125.283 64.1) rotate(90)" fill="#353e40"/>
        <text id="_13.4_" data-name="13.4%" transform="translate(129.567 76.531)" fill="#0a0809" font-size="8" font-family="Muli-Bold, Muli" font-weight="700"><tspan x="0" y="0">13.4%</tspan></text>
        <text id="Ask_people_if_needed" data-name="Ask people if needed" transform="translate(4.455 77.531)" fill="#fff" font-size="9" font-family="Muli-Bold, Muli" font-weight="700" letter-spacing="0.04em"><tspan x="0" y="0">Ask People If Needed</tspan></text>
      </g>
      <g id="Group_1595" data-name="Group 1595" transform="translate(-3717.706 4782.661)">
        <text id="Choosing_place_by:" data-name="Choosing place by:" transform="translate(-0.294 12.339)" fill="#0d1214" font-size="12" font-family="Montserrat-Bold, Montserrat" font-weight="700"><tspan x="0" y="0">CHOOSING PLACE BY:</tspan></text>
        <g id="Group_1592" data-name="Group 1592" transform="translate(0.233 20.425)">
          <g id="Group_577" data-name="Group 577" transform="translate(0.002 0)">
            <rect id="Rectangle_261" data-name="Rectangle 261" width="19.368" height="157.266" transform="translate(157.266) rotate(90)" fill="#353e40"/>
            <text id="_41.5_" data-name="41.5%" transform="translate(161.695 12.43)" fill="#0a0809" font-size="8" font-family="Muli-Bold, Muli" font-weight="700"><tspan x="0" y="0">41.5%</tspan></text>
          </g>
          <text id="Internet_search" data-name="Internet search" transform="translate(4.099 13.43)" fill="#fff" font-size="9" font-family="Muli-Bold, Muli" font-weight="700" letter-spacing="0.04em"><tspan x="0" y="0">Internet Search</tspan></text>
          <g id="Group_578" data-name="Group 578" transform="translate(0.006 22.15)">
            <rect id="Rectangle_262" data-name="Rectangle 262" width="19.368" height="176.781" transform="translate(176.781 0) rotate(90)" fill="#f00166"/>
            <text id="_11.3_" data-name="11.3%" transform="translate(181.384 11.692)" fill="#0a0809" font-size="8" font-family="Muli-Bold, Muli" font-weight="700"><tspan x="0" y="0">11.3%</tspan></text>
          </g>
          <text id="Friends_recommendations_" data-name="Friends recommendations " transform="translate(4.099 34.842)" fill="#fff" font-size="9" font-family="Muli-Bold, Muli" font-weight="700" letter-spacing="0.04em"><tspan x="0" y="0">Friends Recommendations </tspan></text>
          <g id="Group_579" data-name="Group 579" transform="translate(0 44.3)">
            <rect id="Rectangle_263" data-name="Rectangle 263" width="19.368" height="43.613" transform="translate(43.613 0) rotate(90)" fill="#353e40"/>
            <text id="_37.7_" data-name="37.7%" transform="translate(47.992 12.43)" fill="#0a0809" font-size="8" font-family="Muli-Bold, Muli" font-weight="700"><tspan x="0" y="0">37.7%</tspan></text>
          </g>
          <text id="Books" transform="translate(4.099 57.73)" fill="#fff" font-size="9" font-family="Muli-Bold, Muli" font-weight="700" letter-spacing="0.04em"><tspan x="0" y="0">Books</tspan></text>
        </g>
      </g>
      <g id="Group_1594" data-name="Group 1594" transform="translate(-3922 4783)">
        <text id="age" transform="translate(92.339 11)" fill="#0d1214" font-size="11" font-family="Montserrat-Bold, Montserrat" font-weight="700"><tspan x="0" y="0">AGE</tspan></text>
        <g id="Group_1588" data-name="Group 1588" transform="translate(0 14.518)">
          <g id="Group_595" data-name="Group 595" transform="translate(91.996 17.775)">
            <g id="Group_590" data-name="Group 590" transform="translate(0)">
              <rect id="Rectangle_299" data-name="Rectangle 299" width="11.813" height="11.813" fill="#f00166"/>
              <text id="_18-24" data-name="18-24" transform="translate(18.517 8.738)" fill="#0a0809" font-size="8" font-family="Muli-Bold, Muli" font-weight="700"><tspan x="0" y="0">18-24</tspan></text>
            </g>
            <g id="Group_591" data-name="Group 591" transform="translate(0 25.162)">
              <rect id="Rectangle_300" data-name="Rectangle 300" width="11.813" height="11.813" fill="#353e40"/>
              <text id="_24-32" data-name="24-32" transform="translate(18.517 8.738)" fill="#0a0809" font-size="8" font-family="Muli-Bold, Muli" font-weight="700"><tspan x="0" y="0">24-32</tspan></text>
            </g>
            <g id="Group_592" data-name="Group 592" transform="translate(0 50.324)">
              <rect id="Rectangle_301" data-name="Rectangle 301" width="11.813" height="11.813" transform="translate(0 0)" fill="#00c593"/>
              <text id="_32_" data-name="32+" transform="translate(18.517 8.738)" fill="#0a0809" font-size="8" font-family="Muli-Bold, Muli" font-weight="700"><tspan x="0" y="0">32+</tspan></text>
            </g>
          </g>
          <g id="Group_1586" data-name="Group 1586">
            <g id="Ring_Chart3" data-name="Ring Chart3" transform="translate(11.917 12.532)">
              <path id="Path_1119" data-name="Path 1119" d="M-30.173-64.489A33.71,33.71,0,0,1,1.547-40.3,33.71,33.71,0,0,1-12.022-2.785a33.71,33.71,0,0,1-39.856-1.7A33.71,33.71,0,0,1-62.2-43.017l19.346,7.946a12.8,12.8,0,0,0,4.207,14.4,12.8,12.8,0,0,0,14.988.527,12.8,12.8,0,0,0,5.207-14.065,12.8,12.8,0,0,0-11.718-9.361Z" transform="translate(64.504 64.489)" fill="#f00166"/>
              <path id="Path_1120" data-name="Path 1120" d="M-59.2-41.447A33.71,33.71,0,0,1-42.116-58.8l8.244,19.221A12.8,12.8,0,0,0-39.858-33.5Z" transform="translate(61.974 61.774)" fill="#353e40"/>
              <path id="Path_1121" data-name="Path 1121" d="M-24.33-62a33.71,33.71,0,0,1,12.1-2.485v20.915a12.8,12.8,0,0,0-3.853.791Z" transform="translate(45.326 64.489)" fill="#00c593"/>
            </g>
            <text id="_82_" data-name="82%" transform="translate(3.091 76.781)" fill="#0a0809" font-size="8" font-family="Muli-Bold, Muli" font-weight="700"><tspan x="0" y="0">82%</tspan></text>
            <text id="_12_" data-name="12%" transform="translate(0 21.138)" fill="#0a0809" font-size="8" font-family="Muli-Bold, Muli" font-weight="700"><tspan x="0" y="0">12%</tspan></text>
            <text id="_6_" data-name="6%" transform="translate(27.822 8)" fill="#0a0809" font-size="8" font-family="Muli-Bold, Muli" font-weight="700"><tspan x="0" y="0">6%</tspan></text>
          </g>
        </g>
      </g>
    </g>
  </g>
</svg>
