<svg xmlns="http://www.w3.org/2000/svg" xmlns:xlink="http://www.w3.org/1999/xlink" width="1920" height="2588" viewBox="0 0 1920 2588">
  <defs>
    <filter id="Rectangle_37" x="-9" y="-6" width="1938" height="357" filterUnits="userSpaceOnUse">
      <feOffset dy="3" input="SourceAlpha"/>
      <feGaussianBlur stdDeviation="3" result="blur"/>
      <feFlood flood-opacity="0.161"/>
      <feComposite operator="in" in2="blur"/>
      <feComposite in="SourceGraphic"/>
    </filter>
    <filter id="Rectangle_12" x="-20" y="890" width="181" height="162" filterUnits="userSpaceOnUse">
      <feOffset dx="-5" dy="10" input="SourceAlpha"/>
      <feGaussianBlur stdDeviation="5" result="blur-2"/>
      <feFlood flood-opacity="0.161"/>
      <feComposite operator="in" in2="blur-2"/>
      <feComposite in="SourceGraphic"/>
    </filter>
    <clipPath id="clip-path">
      <rect width="17.939" height="490.939" fill="none"/>
    </clipPath>
    <filter id="Rectangle_12-2" x="-20" y="890" width="181" height="162" filterUnits="userSpaceOnUse">
      <feOffset dx="-5" dy="10" input="SourceAlpha"/>
      <feGaussianBlur stdDeviation="5" result="blur-3"/>
      <feFlood flood-opacity="0.161"/>
      <feComposite operator="in" in2="blur-3"/>
      <feComposite in="SourceGraphic"/>
    </filter>
    <clipPath id="clip-faq">
      <rect width="1920" height="2588"/>
    </clipPath>
  </defs>
  <g id="faq" clip-path="url(#clip-faq)">
    <rect width="1920" height="2588" fill="#fefefe"/>
    <g transform="matrix(1, 0, 0, 1, 0, 0)" filter="url(#Rectangle_37)">
      <rect id="Rectangle_37-2" data-name="Rectangle 37" width="1920" height="339" fill="#fff" opacity="0.8"/>
    </g>
    <text id="За_други_въпроси_свържете_се_с_нас_" data-name="За други въпроси свържете се с нас!" transform="translate(645 2232)" fill="#414040" font-size="32" font-family="Montserrat-SemiBold, Montserrat" font-weight="600"><tspan x="0" y="0">За други въпроси свържете се с нас!</tspan></text>
    <g id="Group_221" data-name="Group 221" transform="translate(1847 220.881)">
      <rect id="Rectangle_8" data-name="Rectangle 8" width="72" height="72" transform="translate(0 0.5)" fill="rgba(65,64,64,0.54)"/>
      <g id="Group_51" data-name="Group 51" transform="translate(23 21.5)">
        <circle id="Ellipse_13" data-name="Ellipse 13" cx="10.845" cy="10.845" r="10.845" fill="none" stroke="#414040" stroke-linecap="round" stroke-linejoin="round" stroke-miterlimit="10" stroke-width="3"/>
        <line id="Line_19" data-name="Line 19" x2="7.23" y2="7.23" transform="translate(18.909 18.909)" fill="none" stroke="#414040" stroke-linecap="round" stroke-linejoin="round" stroke-miterlimit="10" stroke-width="3"/>
      </g>
      <path id="Path_128" data-name="Path 128" d="M1692,0" transform="translate(-1621.5)" fill="none" stroke="#707070" stroke-width="2"/>
    </g>
    <g id="Group_223" data-name="Group 223">
      <text id="начало" transform="translate(1089.666 269)" fill="#414040" font-size="32" font-family="Montserrat-Regular, Montserrat"><tspan x="-74.128" y="0">НАЧАЛО</tspan></text>
      <text id="продукти" transform="translate(1331.666 269)" fill="#414040" font-size="32" font-family="Montserrat-Regular, Montserrat"><tspan x="-94.544" y="0">ПРОДУКТИ</tspan></text>
      <text id="за_нас" data-name="за нас" transform="translate(1561.666 269)" fill="#414040" font-size="32" font-family="Montserrat-Regular, Montserrat"><tspan x="-62.608" y="0">ЗА НАС</tspan></text>
      <text id="чзв" transform="translate(1730.666 269)" fill="#414040" font-size="32" font-family="Montserrat-SemiBold, Montserrat" font-weight="600"><tspan x="-34.192" y="0">ЧЗВ</tspan></text>
      <g id="Group_219" data-name="Group 219" transform="translate(155 72)">
        <g id="Group_179" data-name="Group 179" transform="translate(246.666 117)">
          <g id="Group_1" data-name="Group 1" transform="translate(26.5 9.5)">
            <text id="_0888_456_781" data-name="0888 456 781" transform="translate(4 31)" fill="#202020" font-size="32" font-family="Montserrat-Regular, Montserrat"><tspan x="0" y="0">0888 456 781</tspan></text>
            <text id="Дондуков_23" data-name="Дондуков 23" transform="translate(208 70)" fill="#202020" font-size="32" font-family="Montserrat-Regular, Montserrat"><tspan x="-207.968" y="0">Дондуков 23</tspan></text>
          </g>
          <line id="Line_95" data-name="Line 95" y2="88" fill="none" stroke="#202020" stroke-width="2"/>
        </g>
        <g id="Group_214" data-name="Group 214">
          <g id="Group_201" data-name="Group 201">
            <g id="Group_191" data-name="Group 191" transform="translate(39.109 153.966)">
              <path id="Path_131" data-name="Path 131" d="M-889.74,7282" transform="translate(889.74 -7282)" fill="#171f18" stroke="#000" stroke-miterlimit="10" stroke-width="10"/>
            </g>
            <g id="Group_192" data-name="Group 192" transform="translate(50.759 11.509)">
              <path id="Path_132" data-name="Path 132" d="M-858.234,6994.927l-3.255-2.933a22.593,22.593,0,0,0-1.662-31.871l2.933-3.255A26.98,26.98,0,0,1-858.234,6994.927Z" transform="translate(863.152 -6956.867)" fill="#171f18"/>
            </g>
            <g id="Group_193" data-name="Group 193" transform="translate(8.61)">
              <path id="Path_133" data-name="Path 133" d="M-934.651,6986.647a41.755,41.755,0,0,1-24.7-8.1l2.589-3.535A37.346,37.346,0,0,0-921.853,6980a37.128,37.128,0,0,0,21.088-19.328,37.127,37.127,0,0,0,1.245-28.577l4.117-1.5a41.48,41.48,0,0,1-1.391,31.928,41.483,41.483,0,0,1-23.561,21.593A41.755,41.755,0,0,1-934.651,6986.647Z" transform="translate(959.349 -6930.6)" fill="#171f18"/>
            </g>
            <g id="Group_195" data-name="Group 195" transform="translate(0 118.48)">
              <g id="Group_194" data-name="Group 194">
                <path id="Path_134" data-name="Path 134" d="M-933.871,7201.01v4.754l.037,0L-979,7224.9v-4.759l45.167-19.125Z" transform="translate(979 -7201.01)" fill="#171f18"/>
              </g>
            </g>
            <g id="Group_196" data-name="Group 196" transform="translate(6.839 137.221)">
              <rect id="Rectangle_22" data-name="Rectangle 22" width="4.382" height="67.789" fill="#171f18"/>
            </g>
            <g id="Group_197" data-name="Group 197" transform="translate(17.964 166.907)">
              <rect id="Rectangle_23" data-name="Rectangle 23" width="4.382" height="38.104" fill="#171f18"/>
            </g>
            <g id="Group_198" data-name="Group 198" transform="translate(17.766 60.64)">
              <path id="Path_135" data-name="Path 135" d="M-901.8,7213.372h-4.381v-94.86c0-22.7-7.678-31.9-29.34-35.159l-1.708-.257L-938.452,7069h38.695v4.382h-33.917l.512,5.912c22.535,3.849,31.361,14.979,31.361,39.217Z" transform="translate(938.452 -7069)" fill="#171f18"/>
            </g>
            <g id="Group_199" data-name="Group 199" transform="translate(52.225 69.257)">
              <rect id="Rectangle_24" data-name="Rectangle 24" width="4.235" height="4.235" transform="translate(4.235 0) rotate(90)" fill="#171f18"/>
            </g>
            <g id="Group_200" data-name="Group 200" transform="translate(58.295 190.296)">
              <rect id="Rectangle_25" data-name="Rectangle 25" width="4.235" height="14.715" fill="#171f18"/>
            </g>
          </g>
          <g id="Group_213" data-name="Group 213" transform="translate(75.099 57.573)">
            <g id="Group_202" data-name="Group 202" transform="translate(0 3.651)">
              <path id="Path_136" data-name="Path 136" d="M-803.444,7087.575h10.876c5.5,0,8.425.73,10.9,2.527,2.639,1.91,4.044,5.279,4.044,9.38,0,4.662-1.741,8.312-4.83,10.166-2.527,1.573-8.629,2.19-13.853,2.19H-807.6v-41.506h24.319v3.764h-20.163Zm0,20.5h8.8c3.988,0,6.459-.281,8.256-.9,2.864-.954,4.549-3.706,4.549-7.638,0-3.146-1.179-5.729-3.314-6.853-1.685-1.012-4.043-1.348-7.75-1.348h-10.539Z" transform="translate(807.6 -7070.333)" fill="#171f18"/>
            </g>
            <g id="Group_203" data-name="Group 203" transform="translate(35.924 3.651)">
              <path id="Path_137" data-name="Path 137" d="M-692.584,7070.333v41.506h-4.156V7076.51l-24.713,35.328h-4.156v-41.506h4.156v35.327l24.713-35.327Z" transform="translate(725.609 -7070.333)" fill="#171f18"/>
            </g>
            <g id="Group_204" data-name="Group 204" transform="translate(0 54.791)">
              <path id="Path_138" data-name="Path 138" d="M-803.444,7209.236v19.32H-807.6v-41.5h4.156v19.04l18.928-19.04h5.5l-20.5,20.556,20.5,20.949h-5.617Z" transform="translate(807.6 -7187.051)" fill="#171f18"/>
            </g>
            <g id="Group_205" data-name="Group 205" transform="translate(79.138 54.791)">
              <path id="Path_139" data-name="Path 139" d="M-626.983,7187.051h16.28c5.335,0,8.481.617,11.064,2.189,3.146,1.854,4.943,5.616,4.943,10.392,0,4.156-1.46,7.582-4.156,9.547-2.527,1.854-5.56,2.584-11.177,2.584h-12.8v16.793h-4.156ZM-610.309,7208c3.818,0,6.234-.394,7.975-1.405,2.19-1.179,3.426-3.762,3.426-7.021,0-4.043-1.685-6.907-4.662-7.862-1.853-.617-6.191-.9-10.291-.9h-8.966V7208Z" transform="translate(626.983 -7187.051)" fill="#171f18"/>
            </g>
            <g id="Group_206" data-name="Group 206" transform="translate(0 105.932)">
              <path id="Path_140" data-name="Path 140" d="M-807.6,7303.771h4.156v18.253h21.511v-18.253h4.156v41.5h-4.156v-19.488h-21.511v19.488H-807.6Z" transform="translate(807.6 -7303.771)" fill="#171f18"/>
            </g>
            <g id="Group_207" data-name="Group 207" transform="translate(73.513)">
              <path id="Path_141" data-name="Path 141" d="M-600.106,7107.567h4.438L-617.344,7062h-4.391l1.969,4.286-20.055,41.281h4.236l.788-1.455c.594-1.084,16.8-34.794,16.8-34.794Z" transform="translate(639.821 -7062)" fill="#171f18"/>
            </g>
            <g id="Group_208" data-name="Group 208" transform="translate(31.348 50.826)">
              <path id="Path_142" data-name="Path 142" d="M-715.118,7216.557l15.621.222,3.157,6.789h4.439L-713.578,7178h-4.391l1.969,4.287-20.055,41.281h4.236l.788-1.346c.594-1.084,3.2-5.665,3.2-5.665Zm.889-29.184,13.107,25.24h-24.816Z" transform="translate(736.055 -7178)" fill="#171f18"/>
            </g>
            <g id="Group_209" data-name="Group 209" transform="translate(34.698 102.09)">
              <path id="Path_143" data-name="Path 143" d="M-707.472,7333.558l15.621.222,3.157,6.789h4.439L-705.933,7295h-4.391l1.969,4.285-20.055,41.282h4.236l.787-1.346c.594-1.084,3.2-5.665,3.2-5.665Zm.889-29.184,13.107,25.24h-24.816Z" transform="translate(728.409 -7295.001)" fill="#171f18"/>
            </g>
            <g id="Group_212" data-name="Group 212" transform="translate(79.138 105.145)">
              <g id="Group_210" data-name="Group 210" transform="translate(0 17.654)">
                <rect id="Rectangle_26" data-name="Rectangle 26" width="4.235" height="39.543" transform="translate(39.543 0) rotate(90)" fill="#171f18"/>
              </g>
              <g id="Group_211" data-name="Group 211" transform="translate(17.654)">
                <rect id="Rectangle_27" data-name="Rectangle 27" width="4.235" height="39.543" fill="#171f18"/>
              </g>
            </g>
          </g>
        </g>
      </g>
      <g id="Group_222" data-name="Group 222" transform="translate(35.666 -64)">
        <text id="bg_I_en" data-name="bg I en" transform="translate(1667 187)" fill="#414040" font-size="32" font-family="Montserrat-Bold, Montserrat" font-weight="700"><tspan x="-61.504" y="0">BG</tspan><tspan y="0" xml:space="preserve" font-family="Montserrat-Regular, Montserrat" font-weight="400"> I EN</tspan></text>
        <g id="Group_220" data-name="Group 220" transform="translate(1379 135.761)">
          <g id="Group_153" data-name="Group 153">
            <rect id="Rectangle_2" data-name="Rectangle 2" width="165" height="79" transform="translate(0 0.239)" fill="#414040"/>
            <text id="ВХОД" transform="translate(83 52.239)" fill="#ececec" font-size="33" font-family="Montserrat-Regular, Montserrat"><tspan x="-49.318" y="0">ВХОД</tspan></text>
          </g>
        </g>
      </g>
    </g>
    <g id="Group_157" data-name="Group 157" transform="translate(0 895)">
      <g transform="matrix(1, 0, 0, 1, 0, -895)" filter="url(#Rectangle_12)">
        <path id="Rectangle_12-3" data-name="Rectangle 12" d="M0,0H140a11,11,0,0,1,11,11V121a11,11,0,0,1-11,11H0a0,0,0,0,1,0,0V0A0,0,0,0,1,0,0Z" transform="translate(0 895)" fill="#414040"/>
      </g>
      <path id="cart" d="M.225,10.911l7.637,30.4a2.612,2.612,0,0,0,2.621,2.621h49.8l-2.1,10.483H13.1a2.621,2.621,0,1,0,0,5.242H60.279A2.618,2.618,0,0,0,62.9,57.037l9.959-49.8h8.387a2.621,2.621,0,0,0,0-5.242H70.762a2.62,2.62,0,0,0-2.621,2.621l-.524,2.621h-65A2.62,2.62,0,0,0,0,9.862a2.593,2.593,0,0,0,.225,1.048Zm61.1,27.781H52.416V12.483H66.569ZM36.691,12.483H49.8V38.691h-13.1Zm-15.725,0h13.1V38.691h-13.1Zm-2.621,0V38.691h-5.9L5.8,12.483ZM55.037,64.9A7.862,7.862,0,1,0,62.9,72.762,7.864,7.864,0,0,0,55.037,64.9Zm0,10.483a2.621,2.621,0,1,1,2.621-2.621A2.618,2.618,0,0,1,55.037,75.383ZM18.346,64.9a7.862,7.862,0,1,0,7.862,7.862A7.864,7.864,0,0,0,18.346,64.9Zm0,10.483a2.621,2.621,0,1,1,2.621-2.621A2.618,2.618,0,0,1,18.346,75.383Z" transform="translate(43.134 25)" fill="#ececec" opacity="0.77"/>
    </g>
    <g id="Group_253" data-name="Group 253" transform="translate(-51 171)">
      <text id="Какво_е_хомеопатия_" data-name="Какво е хомеопатия?" transform="translate(423 1113)" fill="#414040" font-size="32" font-family="Montserrat-Medium, Montserrat" font-weight="500"><tspan x="0" y="0">Какво е хомеопатия?</tspan></text>
      <text id="С_кой_марки_работите_" data-name="С кой марки работите?" transform="translate(423 1445)" fill="#414040" font-size="32" font-family="Montserrat-Medium, Montserrat" font-weight="500"><tspan x="0" y="0">С кой марки работите?</tspan></text>
      <text id="Може_ли_да_ми_поръчате_продукт_който_нямате_" data-name="Може ли да ми поръчате продукт, който нямате?" transform="translate(423 1532)" fill="#414040" font-size="32" font-family="Montserrat-Medium, Montserrat" font-weight="500"><tspan x="0" y="0">Може ли да ми поръчате продукт, който нямате?</tspan></text>
      <text id="Каква_е_трайността_на_лекарствата_ви_" data-name="Каква е трайността на лекарствата ви?" transform="translate(423 1619)" fill="#414040" font-size="32" font-family="Montserrat-Medium, Montserrat" font-weight="500"><tspan x="0" y="0">Каква е трайността на лекарствата ви?</tspan></text>
      <text id="Какво_да_правя_ако_съм_приел_а_по-голямо_количество_от_оказаното_" data-name="Какво да правя ако съм приел/а по-голямо количество, от оказаното?" transform="translate(423 1706)" fill="#414040" font-size="32" font-family="Montserrat-Medium, Montserrat" font-weight="500"><tspan x="0" y="0">Какво да правя ако съм приел/а по-голямо количество, от оказаното?</tspan></text>
      <text id="Могат_ли_продуктите_ви_да_навредят_на_домашни_любимци_" data-name="Могат ли продуктите ви да навредят на домашни любимци?" transform="translate(423 1793)" fill="#414040" font-size="32" font-family="Montserrat-Medium, Montserrat" font-weight="500"><tspan x="0" y="0">Могат ли продуктите ви да навредят на домашни любимци?</tspan></text>
      <text id="Предлагате_ли_лекарства_за_деца_" data-name="Предлагате ли лекарства за деца?" transform="translate(423 1883)" fill="#414040" font-size="32" font-family="Montserrat-Medium, Montserrat" font-weight="500"><tspan x="0" y="0">Предлагате ли лекарства за деца?</tspan></text>
      <text id="Хомеопатията_е_алтернативен_метод_за_лечение_който_комбинира_познанията_на_съвременната_медицина_психологията_и_холистичният_подход_за_възприемане_на_човека_като_цялостна_личност_съставена_от_тяло_ум_емоции_и_дух._Корените_на_хомеопатията_откриваме_о" data-name="Хомеопатията е алтернативен метод за лечение, който комбинира познанията на съвременната медицина, психологията и холистичният подход за възприемане на човека като цялостна личност, съставена от тяло, ум, емоции и дух.

Корените на хомеопатията откриваме о" transform="translate(423 1134)" fill="#414040" font-size="18" font-family="Montserrat-Regular, Montserrat"><tspan x="0" y="17">Хомеопатията е алтернативен метод за лечение, който комбинира познанията на </tspan><tspan x="0" y="43">съвременната медицина, психологията и холистичният подход за възприемане на човека като </tspan><tspan x="0" y="69">цялостна личност, съставена от тяло, ум, емоции и дух.</tspan><tspan x="0" y="95"></tspan><tspan x="0" y="121">Корените на хомеопатията откриваме още в Древна Гърция, когато Хипократ казва, че има два </tspan><tspan x="0" y="147">подхода за лекуване – с подобното на болестта средство или с противоположното. По-късно в </tspan><tspan x="0" y="173">началото на 19 век, немският лекар Самуел Ханеман, който за времето си има широки </tspan><tspan x="0" y="199">познания по химия, ботаника и др. и напредничаво мислене, формулира основните закони и </tspan><tspan x="0" y="225">принципи в хомеопатията, както и прави доказвания на много хомеопатични лекарства.</tspan></text>
      <line id="Line_99" data-name="Line 99" x2="1255.461" transform="translate(423.039 1123.5)" fill="none" stroke="#414040" stroke-width="2"/>
      <line id="Line_101" data-name="Line 101" x2="1255.461" transform="translate(423.039 1455.5)" fill="none" stroke="#414040" stroke-width="2"/>
      <line id="Line_102" data-name="Line 102" x2="1255.461" transform="translate(423.039 1542.5)" fill="none" stroke="#414040" stroke-width="2"/>
      <line id="Line_103" data-name="Line 103" x2="1255.461" transform="translate(423.039 1629.5)" fill="none" stroke="#414040" stroke-width="2"/>
      <line id="Line_104" data-name="Line 104" x2="1255.461" transform="translate(423.039 1716.5)" fill="none" stroke="#414040" stroke-width="2"/>
      <line id="Line_105" data-name="Line 105" x2="1255.461" transform="translate(423.039 1803.5)" fill="none" stroke="#414040" stroke-width="2"/>
      <line id="Line_106" data-name="Line 106" x2="1255.461" transform="translate(423.039 1893.5)" fill="none" stroke="#414040" stroke-width="2"/>
      <path id="ic_add_24px" d="M22.939,15.251H5V12.688H22.939Z" transform="translate(1643 1088)" fill="#414040"/>
      <g id="Repeat_Grid_6" data-name="Repeat Grid 6" transform="translate(1648 1401)" clip-path="url(#clip-path)">
        <g transform="translate(-1648 -1259)">
          <path id="ic_add_24px-2" data-name="ic_add_24px" d="M22.939,15.251H15.251v7.688H12.688V15.251H5V12.688h7.688V5h2.563v7.688h7.688Z" transform="translate(1643 1254)" fill="#414040"/>
        </g>
        <g transform="translate(-1648 -1172)">
          <path id="ic_add_24px-3" data-name="ic_add_24px" d="M22.939,15.251H15.251v7.688H12.688V15.251H5V12.688h7.688V5h2.563v7.688h7.688Z" transform="translate(1643 1254)" fill="#414040"/>
        </g>
        <g transform="translate(-1648 -1085)">
          <path id="ic_add_24px-4" data-name="ic_add_24px" d="M22.939,15.251H15.251v7.688H12.688V15.251H5V12.688h7.688V5h2.563v7.688h7.688Z" transform="translate(1643 1254)" fill="#414040"/>
        </g>
        <g transform="translate(-1648 -998)">
          <path id="ic_add_24px-5" data-name="ic_add_24px" d="M22.939,15.251H15.251v7.688H12.688V15.251H5V12.688h7.688V5h2.563v7.688h7.688Z" transform="translate(1643 1254)" fill="#414040"/>
        </g>
        <g transform="translate(-1648 -911)">
          <path id="ic_add_24px-6" data-name="ic_add_24px" d="M22.939,15.251H15.251v7.688H12.688V15.251H5V12.688h7.688V5h2.563v7.688h7.688Z" transform="translate(1643 1254)" fill="#414040"/>
        </g>
        <g transform="translate(-1648 -824)">
          <path id="ic_add_24px-7" data-name="ic_add_24px" d="M22.939,15.251H15.251v7.688H12.688V15.251H5V12.688h7.688V5h2.563v7.688h7.688Z" transform="translate(1643 1254)" fill="#414040"/>
        </g>
      </g>
    </g>
    <rect id="Rectangle_77" data-name="Rectangle 77" width="1920" height="776" transform="translate(0.004 357)" fill="#7e7e7e"/>
    <g id="Group_884" data-name="Group 884" transform="translate(-63.951 -71)">
      <rect id="Rectangle_450" data-name="Rectangle 450" width="504" height="617" transform="translate(177.951 508)" fill="#fff"/>
      <g id="Group_887" data-name="Group 887" transform="translate(212.001 531)">
        <g id="Group_878" data-name="Group 878" transform="translate(0 0)" opacity="0.16">
          <g id="Group_126" data-name="Group 126" transform="translate(0)">
            <g id="Group_125" data-name="Group 125" transform="translate(0 0)">
              <ellipse id="Ellipse_30" data-name="Ellipse 30" cx="82.5" cy="83" rx="82.5" ry="83" transform="translate(-0.049 0)" fill="none" stroke="#7e7e7e" stroke-linecap="round" stroke-linejoin="round" stroke-miterlimit="10" stroke-width="12"/>
            </g>
          </g>
          <path id="Path_119" data-name="Path 119" d="M184,36.156a30.156,30.156,0,1,1,30.156,30.156v7.539" transform="translate(-131.792 32.007)" fill="none" stroke="#7e7e7e" stroke-linecap="round" stroke-linejoin="round" stroke-miterlimit="10" stroke-width="12"/>
          <path id="Path_120" data-name="Path 120" d="M188,19Z" transform="translate(-105.636 117.013)" fill="none" stroke="#7e7e7e" stroke-linecap="round" stroke-linejoin="round" stroke-miterlimit="10" stroke-width="12"/>
        </g>
        <text id="безплатни_консултации" data-name="безплатни
консултации" transform="translate(227.951 92)" fill="#414040" font-size="40" font-family="Montserrat-SemiBold, Montserrat" font-weight="600"><tspan x="-133.22" y="0">БЕЗПЛАТНИ</tspan><tspan x="-167.64" y="50">КОНСУЛТАЦИИ</tspan></text>
      </g>
      <text id="Бъдете_сигурни_че_приемате_подходящия_за_Вашето_дискомфортно_състояние_продукт_по_правилния_начин._Ние_ще_Ви_помогнем_да:_-_установите_дали_начинът_Ви_на_живот_и_някои_Ваши_навици_не_са_причина_за_проблемното_Ви_състояние_или_не_засилват_неговите_симпто" data-name="Бъдете сигурни, че приемате подходящия за Вашето дискомфортно състояние продукт по правилния начин.

Ние ще Ви помогнем да:
- установите, дали начинът Ви на живот и някои Ваши навици не са причина за проблемното Ви състояние или не засилват неговите симпто" transform="translate(229.951 719)" fill="#414040" font-size="18" font-family="Montserrat-Regular, Montserrat"><tspan x="0" y="17">Бъдете сигурни, че приемате подходящия </tspan><tspan x="0" y="43">за Вашето дискомфортно състояние </tspan><tspan x="0" y="69">продукт по правилния начин.</tspan><tspan x="0" y="95"></tspan><tspan x="0" y="121">Ние ще Ви помогнем да:</tspan><tspan x="0" y="147">- установите, дали начинът Ви на живот и </tspan><tspan x="0" y="173">някои Ваши навици не са причина за </tspan><tspan x="0" y="199">проблемното Ви състояние или не </tspan><tspan x="0" y="225">засилват неговите симптоми.</tspan><tspan x="0" y="251"></tspan><tspan x="0" y="277">- се ориентирате във възможностите за </tspan><tspan x="0" y="303">преодоляване на проблема и </tspan><tspan x="0" y="329">подобряване на качеството Ви на живот.</tspan></text>
      <rect id="Rectangle_451" data-name="Rectangle 451" width="504" height="617" transform="translate(771.951 508)" fill="#fff"/>
      <g id="truck" transform="translate(806.703 528)" fill="#414040" opacity="0.16">
        <path d="M 152.8450164794922 168.0890350341797 C 150.0075531005859 168.0890350341797 147.2259216308594 167.6128845214844 144.5774230957031 166.6737518310547 C 142.0203399658203 165.7670593261719 139.63720703125 164.4482269287109 137.4942321777344 162.7538757324219 C 135.3749694824219 161.0782928466797 133.5473327636719 159.0810699462891 132.0620727539063 156.8177185058594 C 130.5547027587891 154.5206604003906 129.4409484863281 152.0104827880859 128.7517395019531 149.3569030761719 L 128.6544952392578 148.9825897216797 L 128.2677917480469 148.9825897216797 L 94.62773132324219 148.9825897216797 L 94.24099731445313 148.9825897216797 L 94.14378356933594 149.3569030761719 C 93.45462799072266 152.0103302001953 92.34091949462891 154.5205078125 90.83362579345703 156.8177490234375 C 89.34862518310547 159.0809783935547 87.52144622802734 161.0782165527344 85.40283966064453 162.7539367675781 C 83.26070404052734 164.4482269287109 80.87883758544922 165.7670593261719 78.32338714599609 166.6737976074219 C 75.6767578125 167.6128845214844 72.89762878417969 168.0890350341797 70.06326293945313 168.0890350341797 C 67.22578430175781 168.0890350341797 64.44418334960938 167.6128845214844 61.79568099975586 166.6737518310547 C 59.23857498168945 165.7670593261719 56.85544204711914 164.4482269287109 54.71247100830078 162.7538757324219 C 52.59323120117188 161.0782775878906 50.76557540893555 159.0810699462891 49.28031158447266 156.8177185058594 C 47.77294158935547 154.5206604003906 46.6591796875 152.0104827880859 45.969970703125 149.3569030761719 L 45.87273406982422 148.9825897216797 L 45.48602294921875 148.9825897216797 L 38.21283721923828 148.9825897216797 C 27.95323371887207 148.9825897216797 19.60641670227051 140.6357727050781 19.60641670227051 130.3761749267578 L 19.60641670227051 111.2697448730469 L 19.60641670227051 110.7697448730469 L 19.10641670227051 110.7697448730469 C 8.84681224822998 110.7697448730469 0.4999960064888 102.4229278564453 0.4999960064888 92.16332244873047 L 0.4999960064888 22.10643005371094 C 0.4999960064888 11.84682559967041 8.84681224822998 3.500009775161743 19.10641670227051 3.500009775161743 L 114.6385192871094 3.500009775161743 C 124.8981552124023 3.500009775161743 133.2449645996094 11.84682559967041 133.2449645996094 22.10643005371094 L 133.2449645996094 34.84403610229492 L 133.2449645996094 35.34403610229492 L 133.7449645996094 35.34403610229492 L 159.2201843261719 35.34403610229492 C 165.4546051025391 35.34403610229492 171.24169921875 38.44164276123047 174.7007141113281 43.6301155090332 L 200.1759490966797 81.84295654296875 C 202.2210235595703 84.90435028076172 203.3018341064453 88.47295379638672 203.3018341064453 92.16332244873047 L 203.3018341064453 130.3761749267578 C 203.3018341064453 140.6357727050781 194.9550170898438 148.9825897216797 184.6953887939453 148.9825897216797 L 177.4095001220703 148.9825897216797 L 177.0227813720703 148.9825897216797 L 176.9255523681641 149.3569030761719 C 176.2363586425781 152.0103302001953 175.1226806640625 154.5205078125 173.6153869628906 156.8177490234375 C 172.1303863525391 159.0809783935547 170.3032073974609 161.0782165527344 168.1845703125 162.7539367675781 C 166.0424652099609 164.4482269287109 163.6605987548828 165.7670593261719 161.1051483154297 166.6737976074219 C 158.45849609375 167.6128845214844 155.6793975830078 168.0890350341797 152.8450164794922 168.0890350341797 Z M 152.8513641357422 129.8761749267578 C 145.5521087646484 129.8761749267578 139.6137390136719 135.8145294189453 139.6137390136719 143.1138000488281 C 139.6137390136719 150.4130401611328 145.5521087646484 156.3514099121094 152.8513641357422 156.3514099121094 C 160.150634765625 156.3514099121094 166.0889892578125 150.4130401611328 166.0889892578125 143.1138000488281 C 166.0889892578125 135.8145294189453 160.150634765625 129.8761749267578 152.8513641357422 129.8761749267578 Z M 70.06326293945313 129.8761749267578 C 62.76402282714844 129.8761749267578 56.82565307617188 135.8145294189453 56.82565307617188 143.1138000488281 C 56.82565307617188 150.4130401611328 62.76402282714844 156.3514099121094 70.06326293945313 156.3514099121094 C 77.36249542236328 156.3514099121094 83.30086517333984 150.4130401611328 83.30086517333984 143.1138000488281 C 83.30086517333984 135.8145294189453 77.36249542236328 129.8761749267578 70.06326293945313 129.8761749267578 Z M 152.8513641357422 118.1385650634766 C 155.6857604980469 118.1385650634766 158.4648590087891 118.6147232055664 161.1114959716797 119.5538024902344 C 163.6669769287109 120.4605331420898 166.0488433837891 121.7793807983398 168.1909484863281 123.4736709594727 C 170.3095703125 125.1493759155273 172.1367645263672 127.1465911865234 173.6217651367188 129.4098205566406 C 175.1290435791016 131.7070617675781 176.2427520751953 134.2172698974609 176.9319458007813 136.8706665039063 L 177.0291748046875 137.2449798583984 L 177.4158935546875 137.2449798583984 L 184.6953887939453 137.2449798583984 C 188.4828948974609 137.2449798583984 191.5642395019531 134.1636352539063 191.5642395019531 130.3761749267578 L 191.5642395019531 92.16332244873047 C 191.5642395019531 90.80532836914063 191.1653442382813 89.48735046386719 190.4107055664063 88.35185241699219 L 164.9350738525391 50.13843154907227 C 163.6542663574219 48.22411346435547 161.5180206298828 47.08164215087891 159.2201843261719 47.08164215087891 L 133.7449645996094 47.08164215087891 L 133.2449645996094 47.08164215087891 L 133.2449645996094 47.58164215087891 L 133.2449645996094 92.16332244873047 C 133.2449645996094 102.4229278564453 124.8981552124023 110.7697448730469 114.6385192871094 110.7697448730469 L 31.84404945373535 110.7697448730469 L 31.34404945373535 110.7697448730469 L 31.34404945373535 111.2697448730469 L 31.34404945373535 130.3761749267578 C 31.34404945373535 134.1636352539063 34.42536544799805 137.2449798583984 38.21283721923828 137.2449798583984 L 45.49238967895508 137.2449798583984 L 45.87910079956055 137.2449798583984 L 45.97633743286133 136.8706665039063 C 46.66555023193359 134.2170867919922 47.77931213378906 131.7069091796875 49.28667831420898 129.4098510742188 C 50.77194213867188 127.1465072631836 52.59957504272461 125.149299621582 54.71883773803711 123.4737167358398 C 56.86181259155273 121.7793807983398 59.24494171142578 120.4605331420898 61.80202102661133 119.5538482666016 C 64.45052337646484 118.6147232055664 67.23215484619141 118.1385650634766 70.06962585449219 118.1385650634766 C 72.90402221679688 118.1385650634766 75.68312835693359 118.6147232055664 78.32975769042969 119.5538024902344 C 80.88520812988281 120.4605331420898 83.26707458496094 121.7793807983398 85.40921020507813 123.4736709594727 C 87.52783966064453 125.1493759155273 89.35501861572266 127.1465911865234 90.83999633789063 129.4098205566406 C 92.34731292724609 131.7070617675781 93.46099853515625 134.2172698974609 94.15017700195313 136.8706665039063 L 94.24741363525391 137.2449798583984 L 94.63412475585938 137.2449798583984 L 128.2741546630859 137.2449798583984 L 128.660888671875 137.2449798583984 L 128.7581024169922 136.8706665039063 C 129.4473114013672 134.2170867919922 130.5610809326172 131.7069091796875 132.0684509277344 129.4098510742188 C 133.5537109375 127.1465072631836 135.3813323974609 125.149299621582 137.5005798339844 123.4737167358398 C 139.6435546875 121.7793807983398 142.0266876220703 120.4605331420898 144.5837860107422 119.5538482666016 C 147.2322845458984 118.6147232055664 150.0138854980469 118.1385650634766 152.8513641357422 118.1385650634766 Z M 19.10641670227051 15.23761558532715 C 15.31894302368164 15.23761558532715 12.23762798309326 18.31895637512207 12.23762798309326 22.10643005371094 L 12.23762798309326 92.16332244873047 C 12.23762798309326 95.95079803466797 15.31894302368164 99.03211212158203 19.10641670227051 99.03211212158203 L 114.6385192871094 99.03211212158203 C 118.426025390625 99.03211212158203 121.5073623657227 95.95079803466797 121.5073623657227 92.16332244873047 L 121.5073623657227 22.10643005371094 C 121.5073623657227 18.31895637512207 118.426025390625 15.23761558532715 114.6385192871094 15.23761558532715 L 19.10641670227051 15.23761558532715 Z" stroke="none"/>
        <path d="M 19.10641479492188 3.999984741210938 C 9.12249755859375 3.999984741210938 1 12.12248229980469 1 22.10639953613281 L 1 92.16332244873047 C 1 102.1472473144531 9.12249755859375 110.2697448730469 19.10641479492188 110.2697448730469 L 20.10641479492188 110.2697448730469 L 20.10641479492188 111.2697448730469 L 20.10641479492188 130.3761596679688 C 20.10641479492188 140.3600921630859 28.22891235351563 148.4825897216797 38.21284484863281 148.4825897216797 L 45.48602294921875 148.4825897216797 L 46.25947570800781 148.4825897216797 L 46.45391845703125 149.231201171875 C 47.12939453125 151.8318481445313 48.22096252441406 154.2920379638672 49.6983642578125 156.5433807373047 C 51.15412902832031 158.7618255615234 52.94546508789063 160.7193756103516 55.02256774902344 162.3616485595703 C 57.1224365234375 164.0219116210938 59.45747375488281 165.3141479492188 61.96275329589844 166.2024841308594 C 64.55746459960938 167.1225128173828 67.28286743164063 167.5890045166016 70.06326293945313 167.5890045166016 C 72.84051513671875 167.5890045166016 75.56336975097656 167.1225433349609 78.15618133544922 166.2025299072266 C 80.65986633300781 165.3141937255859 82.99362945556641 164.0219573974609 85.0926513671875 162.3617401123047 C 87.16915130615234 160.7193450927734 88.96004486083984 158.7617797851563 90.41557312011719 156.5434265136719 C 91.89289093017578 154.2919006347656 92.98442077636719 151.8317260742188 93.65983581542969 149.231201171875 L 93.85428619384766 148.4825897216797 L 94.62773132324219 148.4825897216797 L 128.2677917480469 148.4825897216797 L 129.0412292480469 148.4825897216797 L 129.2356872558594 149.231201171875 C 129.9111633300781 151.8318481445313 131.0027313232422 154.2920379638672 132.4801025390625 156.5433807373047 C 133.9358825683594 158.7618255615234 135.7272338867188 160.7193756103516 137.8043365478516 162.3616485595703 C 139.9042053222656 164.0219116210938 142.2392120361328 165.3141479492188 144.7445220947266 166.2024841308594 C 147.3392333984375 167.1225128173828 150.0646362304688 167.5890045166016 152.8450317382813 167.5890045166016 C 155.6222839355469 167.5890045166016 158.3451232910156 167.1225433349609 160.9379425048828 166.2025299072266 C 163.4416046142578 165.3141937255859 165.7753601074219 164.0219573974609 167.8743896484375 162.3617401123047 C 169.9508972167969 160.7193450927734 171.7417907714844 158.7617797851563 173.1973114013672 156.5434265136719 C 174.6746215820313 154.2919006347656 175.7661590576172 151.8317260742188 176.4415740966797 149.231201171875 L 176.6360168457031 148.4825897216797 L 177.4094696044922 148.4825897216797 L 184.6953887939453 148.4825897216797 C 194.6793060302734 148.4825897216797 202.8018341064453 140.3600921630859 202.8018341064453 130.3761596679688 L 202.8018341064453 92.16332244873047 C 202.8018341064453 88.57219696044922 201.7501220703125 85.09963989257813 199.7599182128906 82.12032318115234 L 174.2846832275391 43.90748596191406 C 170.9186248779297 38.8583984375 165.2870483398438 35.84403991699219 159.2201843261719 35.84403991699219 L 133.7449645996094 35.84403991699219 L 132.7449645996094 35.84403991699219 L 132.7449645996094 34.84403991699219 L 132.7449645996094 22.10639953613281 C 132.7449645996094 12.12248229980469 124.622444152832 3.999984741210938 114.6385192871094 3.999984741210938 L 19.10641479492188 3.999984741210938 M 114.6385192871094 99.53211212158203 L 19.10641479492188 99.53211212158203 C 15.04322814941406 99.53211212158203 11.73759460449219 96.22648620605469 11.73759460449219 92.16332244873047 L 11.73759460449219 22.10639953613281 C 11.73759460449219 18.04324340820313 15.04322814941406 14.73760986328125 19.10641479492188 14.73760986328125 L 114.6385192871094 14.73760986328125 C 118.7017059326172 14.73760986328125 122.0073623657227 18.04324340820313 122.0073623657227 22.10639953613281 L 122.0073623657227 92.16332244873047 C 122.0073623657227 96.22648620605469 118.7017059326172 99.53211212158203 114.6385192871094 99.53211212158203 M 184.6953887939453 137.7449798583984 L 177.4158630371094 137.7449798583984 L 176.6424255371094 137.7449798583984 L 176.4479675292969 136.9963836669922 C 175.7725524902344 134.3958435058594 174.6809997558594 131.9356689453125 173.2037048339844 129.6841125488281 C 171.7481842041016 127.4657745361328 169.9572906494141 125.5081939697266 167.8807678222656 123.8657989501953 C 165.78173828125 122.2055892944336 163.4479675292969 120.9133529663086 160.9443054199219 120.0250091552734 C 158.3515014648438 119.1050109863281 155.6286315917969 118.6385345458984 152.8513641357422 118.6385345458984 C 150.0709686279297 118.6385345458984 147.3455810546875 119.1050415039063 144.7508697509766 120.0250625610352 C 142.2455749511719 120.9134063720703 139.9105529785156 122.2056427001953 137.8106689453125 123.8659057617188 C 135.7335815429688 125.5081939697266 133.9422607421875 127.4657211303711 132.4864807128906 129.6841735839844 C 131.0090942382813 131.9355163574219 129.9175109863281 134.3956909179688 129.2420501708984 136.9963836669922 L 129.047607421875 137.7449798583984 L 128.2741546630859 137.7449798583984 L 94.63412475585938 137.7449798583984 L 93.86067962646484 137.7449798583984 L 93.66622924804688 136.9963836669922 C 92.99081420898438 134.3958435058594 91.89926147460938 131.9356689453125 90.42196655273438 129.6841125488281 C 88.96641540527344 127.4657745361328 87.17552185058594 125.5081939697266 85.09902191162109 123.8657989501953 C 82.99999237060547 122.2055892944336 80.66622924804688 120.9133529663086 78.16255187988281 120.0250091552734 C 75.56973266601563 119.1050109863281 72.84689331054688 118.6385345458984 70.06962585449219 118.6385345458984 C 67.28923034667969 118.6385345458984 64.5638427734375 119.1050415039063 61.96913146972656 120.0250625610352 C 59.46380615234375 120.9134063720703 57.12881469726563 122.2056427001953 55.02894592285156 123.8659057617188 C 52.95184326171875 125.5081939697266 51.16049194335938 127.4657211303711 49.7047119140625 129.6841735839844 C 48.22734069824219 131.9355163574219 47.13575744628906 134.3956909179688 46.46028137207031 136.9963836669922 L 46.26583862304688 137.7449798583984 L 45.49238586425781 137.7449798583984 L 38.21284484863281 137.7449798583984 C 34.14967346191406 137.7449798583984 30.84405517578125 134.4393463134766 30.84405517578125 130.3761596679688 L 30.84405517578125 111.2697448730469 L 30.84405517578125 110.2697448730469 L 31.84405517578125 110.2697448730469 L 114.6385192871094 110.2697448730469 C 124.622444152832 110.2697448730469 132.7449645996094 102.1472473144531 132.7449645996094 92.16332244873047 L 132.7449645996094 47.58164215087891 L 132.7449645996094 46.58164215087891 L 133.7449645996094 46.58164215087891 L 159.2201843261719 46.58164215087891 C 161.6852569580078 46.58164215087891 163.9768676757813 47.80709075927734 165.3511047363281 49.86106109619141 L 190.8271331787109 88.07511138916016 C 191.6364440917969 89.29285430908203 192.0642395019531 90.70653533935547 192.0642395019531 92.16332244873047 L 192.0642395019531 130.3761596679688 C 192.0642395019531 134.4393463134766 188.7585754394531 137.7449798583984 184.6953887939453 137.7449798583984 M 70.06326293945313 156.8513793945313 C 62.48831176757813 156.8513793945313 56.32562255859375 150.688720703125 56.32562255859375 143.11376953125 C 56.32562255859375 135.538818359375 62.48831176757813 129.3761596679688 70.06326293945313 129.3761596679688 C 77.63820648193359 129.3761596679688 83.80086517333984 135.538818359375 83.80086517333984 143.11376953125 C 83.80086517333984 150.688720703125 77.63820648193359 156.8513793945313 70.06326293945313 156.8513793945313 M 152.8513641357422 156.8513793945313 C 145.2764129638672 156.8513793945313 139.1137390136719 150.688720703125 139.1137390136719 143.11376953125 C 139.1137390136719 135.538818359375 145.2764129638672 129.3761596679688 152.8513641357422 129.3761596679688 C 160.4263153076172 129.3761596679688 166.5889892578125 135.538818359375 166.5889892578125 143.11376953125 C 166.5889892578125 150.688720703125 160.4263153076172 156.8513793945313 152.8513641357422 156.8513793945313 M 19.10641479492188 2.999984741210938 L 114.6385192871094 2.999984741210938 C 125.1725463867188 2.999984741210938 133.7449645996094 11.57240295410156 133.7449645996094 22.10639953613281 L 133.7449645996094 34.84403991699219 L 159.2201843261719 34.84403991699219 C 165.6144409179688 34.84403991699219 171.5629425048828 38.0220947265625 175.1167297363281 43.35276794433594 L 200.5919647216797 81.56561279296875 C 202.6936492919922 84.71179962158203 203.8018341064453 88.3802490234375 203.8018341064453 92.16332244873047 L 203.8018341064453 130.3761596679688 C 203.8018341064453 140.9101715087891 195.2293853759766 149.4825897216797 184.6953887939453 149.4825897216797 L 177.4094696044922 149.4825897216797 C 174.5626220703125 160.4432983398438 164.6718597412109 168.5890045166016 152.8450317382813 168.5890045166016 C 141.0053863525391 168.5890045166016 131.1146545410156 160.4432983398438 128.2677917480469 149.4825897216797 L 94.62773132324219 149.4825897216797 C 91.78089141845703 160.4432983398438 81.89012908935547 168.5890045166016 70.06326293945313 168.5890045166016 C 58.22364807128906 168.5890045166016 48.3328857421875 160.4432983398438 45.48602294921875 149.4825897216797 L 38.21284484863281 149.4825897216797 C 27.6788330078125 149.4825897216797 19.10641479492188 140.9101715087891 19.10641479492188 130.3761596679688 L 19.10641479492188 111.2697448730469 C 8.572418212890625 111.2697448730469 0 102.6972961425781 0 92.16332244873047 L 0 22.10639953613281 C 0 11.57240295410156 8.572418212890625 2.999984741210938 19.10641479492188 2.999984741210938 Z M 114.6385192871094 98.53211212158203 C 118.1604690551758 98.53211212158203 121.0073623657227 95.68524932861328 121.0073623657227 92.16332244873047 L 121.0073623657227 22.10639953613281 C 121.0073623657227 18.58445739746094 118.1604690551758 15.73760986328125 114.6385192871094 15.73760986328125 L 19.10641479492188 15.73760986328125 C 15.59083557128906 15.73760986328125 12.73759460449219 18.58445739746094 12.73759460449219 22.10639953613281 L 12.73759460449219 92.16332244873047 C 12.73759460449219 95.68524932861328 15.59083557128906 98.53211212158203 19.10641479492188 98.53211212158203 L 114.6385192871094 98.53211212158203 Z M 184.6953887939453 136.7449798583984 C 188.2173461914063 136.7449798583984 191.0642395019531 133.8981170654297 191.0642395019531 130.3761596679688 L 191.0642395019531 92.16332244873047 C 191.0642395019531 90.90866851806641 190.6884460449219 89.67308807373047 189.9942932128906 88.62861633300781 L 164.51904296875 50.415771484375 C 163.3344421386719 48.64521789550781 161.3473663330078 47.58164215087891 159.2201843261719 47.58164215087891 L 133.7449645996094 47.58164215087891 L 133.7449645996094 92.16332244873047 C 133.7449645996094 102.6972961425781 125.1725463867188 111.2697448730469 114.6385192871094 111.2697448730469 L 31.84405517578125 111.2697448730469 L 31.84405517578125 130.3761596679688 C 31.84405517578125 133.8981170654297 34.697265625 136.7449798583984 38.21284484863281 136.7449798583984 L 45.49238586425781 136.7449798583984 C 48.33926391601563 125.7842483520508 58.22999572753906 117.6385345458984 70.06962585449219 117.6385345458984 C 81.89649963378906 117.6385345458984 91.78726196289063 125.7842483520508 94.63412475585938 136.7449798583984 L 128.2741546630859 136.7449798583984 C 131.1210021972656 125.7842483520508 141.0117645263672 117.6385345458984 152.8513641357422 117.6385345458984 C 164.6782531738281 117.6385345458984 174.5690002441406 125.7842483520508 177.4158630371094 136.7449798583984 L 184.6953887939453 136.7449798583984 Z M 70.06326293945313 155.8513793945313 C 77.08802032470703 155.8513793945313 82.80086517333984 150.1449279785156 82.80086517333984 143.11376953125 C 82.80086517333984 136.0826110839844 77.09441375732422 130.3761596679688 70.06326293945313 130.3761596679688 C 63.02571105957031 130.3761596679688 57.32562255859375 136.0826110839844 57.32562255859375 143.11376953125 C 57.32562255859375 150.1449279785156 63.02571105957031 155.8513793945313 70.06326293945313 155.8513793945313 Z M 152.8513641357422 155.8513793945313 C 159.8825225830078 155.8513793945313 165.5889892578125 150.1449279785156 165.5889892578125 143.11376953125 C 165.5889892578125 136.0826110839844 159.8825225830078 130.3761596679688 152.8513641357422 130.3761596679688 C 145.8138732910156 130.3761596679688 140.1137390136719 136.0826110839844 140.1137390136719 143.11376953125 C 140.1137390136719 150.1449279785156 145.8138732910156 155.8513793945313 152.8513641357422 155.8513793945313 Z" stroke="none" fill="#fff"/>
      </g>
      <text id="Безплатни_доставки_" data-name="Безплатни
доставки *" transform="translate(1034.951 623)" fill="#414040" font-size="40" font-family="Montserrat-SemiBold, Montserrat" font-weight="600"><tspan x="-133.22" y="0">БЕЗПЛАТНИ</tspan><tspan x="-133.9" y="50">ДОСТАВКИ *</tspan></text>
      <text id="_Всяка_поръчка_на_стойност_над_50.00_лв._се_извършва_с_безплатна_доставка_на_територията_на_цялата_страна_Цената_за_доставка_при_поръчка_под_50.00_лв._е_5.30_лв._с_ДДС._Всички_поръчки_се_обработват_в_рамките_на_два_работни_дни._Заплащането_на_закупен" data-name="*Всяка поръчка на стойност над 50.00 лв. се извършва с безплатна доставка на територията на цялата страна!

Цената за доставка при поръчка под 50.00 лв. е  5.30 лв. с ДДС.

Всички поръчки се обработват в рамките на два работни дни. 

Заплащането на закупен" transform="translate(823.951 719)" fill="#414040" font-size="18" font-family="Montserrat-SemiBold, Montserrat" font-weight="600"><tspan x="0" y="17">*Всяка поръчка на стойност над 50.00 лв. </tspan><tspan x="0" y="43">се извършва с безплатна доставка на </tspan><tspan x="0" y="69">територията на цялата страна!</tspan><tspan font-family="Montserrat-Regular, Montserrat" font-weight="400"><tspan x="0" y="95"></tspan><tspan x="0" y="121">Цената за доставка при поръчка под 50.00 </tspan><tspan x="0" y="147" xml:space="preserve">лв. е  5.30 лв. с ДДС.</tspan><tspan x="0" y="173"></tspan><tspan x="0" y="199">Всички поръчки се обработват в рамките </tspan><tspan x="0" y="225">на два работни дни. </tspan><tspan x="0" y="251"></tspan><tspan x="0" y="277">Заплащането на закупените продукти се </tspan><tspan x="0" y="303">осъществява с наложен платеж </tspan><tspan x="0" y="329">(заплащате на куриера при получаване </tspan><tspan x="0" y="355">на пратката), както и чрез EasyPay.</tspan></tspan></text>
      <rect id="Rectangle_452" data-name="Rectangle 452" width="504" height="617" transform="translate(1365.951 508)" fill="#fff"/>
      <g id="Group_880" data-name="Group 880" transform="translate(1396.828 531)" opacity="0.16">
        <g id="Group_130" data-name="Group 130" transform="translate(0 0)">
          <path id="Path_122" data-name="Path 122" d="M309,130.955a22.177,22.177,0,0,0,22.58,22.58H452.009a22.177,22.177,0,0,0,22.58-22.58V25.58A22.177,22.177,0,0,0,452.009,3H331.58A22.177,22.177,0,0,0,309,25.58Z" transform="translate(-309 12.366)" fill="none" stroke="#7e7e7e" stroke-linecap="round" stroke-linejoin="round" stroke-miterlimit="10" stroke-width="12"/>
          <line id="Line_83" data-name="Line 83" x2="164.792" transform="translate(0.151 59.666)" fill="none" stroke="#7e7e7e" stroke-linecap="round" stroke-linejoin="round" stroke-miterlimit="10" stroke-width="12"/>
          <line id="Line_84" data-name="Line 84" y1="31.254" transform="translate(83.968 0)" fill="none" stroke="#7e7e7e" stroke-linecap="round" stroke-linejoin="round" stroke-miterlimit="10" stroke-width="12"/>
          <line id="Line_85" data-name="Line 85" y1="31.254" transform="translate(37.087 0)" fill="none" stroke="#7e7e7e" stroke-linecap="round" stroke-linejoin="round" stroke-miterlimit="10" stroke-width="12"/>
          <line id="Line_86" data-name="Line 86" y1="31.254" transform="translate(128.007 0)" fill="none" stroke="#7e7e7e" stroke-linecap="round" stroke-linejoin="round" stroke-miterlimit="10" stroke-width="12"/>
        </g>
        <line id="Line_87" data-name="Line 87" x2="14.206" transform="translate(29.984 99.443)" fill="none" stroke="#6a9270" stroke-linecap="round" stroke-linejoin="round" stroke-miterlimit="10" stroke-width="12"/>
        <line id="Line_88" data-name="Line 88" x2="15.627" transform="translate(75.444 99.443)" fill="none" stroke="#6a9270" stroke-linecap="round" stroke-linejoin="round" stroke-miterlimit="10" stroke-width="12"/>
        <line id="Line_89" data-name="Line 89" x2="14.206" transform="translate(120.904 99.443)" fill="none" stroke="#6a9270" stroke-linecap="round" stroke-linejoin="round" stroke-miterlimit="10" stroke-width="12"/>
        <line id="Line_90" data-name="Line 90" x2="14.206" transform="translate(29.984 127.855)" fill="none" stroke="#6a9270" stroke-linecap="round" stroke-linejoin="round" stroke-miterlimit="10" stroke-width="12"/>
        <line id="Line_91" data-name="Line 91" x2="15.627" transform="translate(75.444 127.855)" fill="none" stroke="#6a9270" stroke-linecap="round" stroke-linejoin="round" stroke-miterlimit="10" stroke-width="12"/>
        <line id="Line_92" data-name="Line 92" x2="14.206" transform="translate(120.904 127.855)" fill="none" stroke="#6a9270" stroke-linecap="round" stroke-linejoin="round" stroke-miterlimit="10" stroke-width="12"/>
      </g>
      <text id="Абонирайте_се_за_определени_от_Вас_продукти_за_да_не_се_налага_да_помните_и_поръчвате_всяка_седмица._Абонаментът_може_да_бъде_месечен_или_годишен_като_се_подновява_веднага_след_като_изтече._Заплащането_става_наведнъж_разсрочено_или_при_всяко_получаван" data-name="Абонирайте се за определени от Вас продукти, за да не се налага да помните и поръчвате всяка седмица.

Абонаментът може да бъде месечен или годишен, като се подновява веднага след като изтече.

Заплащането става наведнъж, разсрочено или при всяко получаван" transform="translate(1417.951 719)" fill="#414040" font-size="18" font-family="Montserrat-Regular, Montserrat"><tspan x="0" y="17">Абонирайте се за определени от Вас </tspan><tspan x="0" y="43">продукти, за да не се налага да помните и </tspan><tspan x="0" y="69">поръчвате всяка седмица.</tspan><tspan x="0" y="95"></tspan><tspan x="0" y="121">Абонаментът може да бъде месечен или </tspan><tspan x="0" y="147">годишен, като се подновява веднага след </tspan><tspan x="0" y="173">като изтече.</tspan><tspan x="0" y="199"></tspan><tspan x="0" y="225">Заплащането става наведнъж, разсрочено </tspan><tspan x="0" y="251">или при всяко получаване. Има опция да </tspan><tspan x="0" y="277">се добави и доставка.</tspan><tspan x="0" y="303"></tspan><tspan x="0" y="329">Заявка за абонамент може да направите </tspan><tspan x="0" y="355">на място или по телефона.</tspan></text>
      <text id="персонални_абонаменти" data-name="персонални
абонаменти" transform="translate(1627.951 623)" fill="#414040" font-size="40" font-family="Montserrat-SemiBold, Montserrat" font-weight="600"><tspan x="-155.84" y="0">ПЕРСОНАЛНИ</tspan><tspan x="-156.9" y="50">АБОНАМЕНТИ</tspan></text>
    </g>
    <rect id="Rectangle_561" data-name="Rectangle 561" width="223" height="223" transform="translate(139 72)" fill="#414040"/>
    <text id="logo" transform="translate(251 213)" fill="#fff" font-size="83" font-family="Montserrat-Regular, Montserrat"><tspan x="-91.674" y="0">logo</tspan></text>
    <g id="Group_1083" data-name="Group 1083" transform="translate(-106 -493)">
      <rect id="Rectangle_3" data-name="Rectangle 3" width="1920" height="124" transform="translate(106 2956)" fill="#414040"/>
      <text id="Copyright_2020_I_Bilkarna_Ltd._I_All_rights_reserved." data-name="Copyright © 2020   I   Bilkarna Ltd.   I   All rights reserved." transform="translate(891.393 3029)" fill="rgba(255,255,255,0.64)" font-size="16" font-family="Montserrat-Regular, Montserrat"><tspan x="0" y="0" xml:space="preserve">Copyright © 2020   </tspan><tspan y="0" xml:space="preserve">I   </tspan><tspan y="0" xml:space="preserve">Bilkarna Ltd.  </tspan><tspan y="0" xml:space="preserve"> I   </tspan><tspan y="0">All rights reserved.</tspan></text>
      <g id="Group_247" data-name="Group 247" transform="translate(-896.607 -578)">
        <g id="Group_246" data-name="Group 246" transform="translate(-196 34)">
          <text id="BilkarnaSofia" transform="translate(1279 3571)" fill="#efefef" font-size="24" font-family="Montserrat-Regular, Montserrat"><tspan x="0" y="0">BilkarnaSofia</tspan></text>
        </g>
        <g id="Group_245" data-name="Group 245" transform="translate(44 -3)">
          <text id="Bilkarna.drugstore" transform="translate(1501 3608)" fill="#efefef" font-size="24" font-family="Montserrat-Regular, Montserrat"><tspan x="-222.312" y="0">Bilkarna.drugstore</tspan></text>
        </g>
      </g>
      <g id="Group_250" data-name="Group 250" transform="translate(1059.393 -332)">
        <g id="Group_248" data-name="Group 248" transform="translate(132)">
          <g id="Group_245-2" data-name="Group 245" transform="translate(-682 -249)">
            <text id="Дондуков_23-2" data-name="Дондуков 23" transform="translate(1436 3608)" fill="#efefef" font-size="24" font-family="Montserrat-Regular, Montserrat"><tspan x="-155.976" y="0">Дондуков 23</tspan></text>
          </g>
        </g>
        <g id="Group_249" data-name="Group 249" transform="translate(130.616)">
          <g id="Group_246-2" data-name="Group 246" transform="translate(-916 -212)">
            <text id="_0888_456_781-2" data-name="0888 456 781" transform="translate(1279 3571)" fill="#efefef" font-size="24" font-family="Montserrat-Regular, Montserrat"><tspan x="0" y="0">0888 456 781</tspan></text>
          </g>
        </g>
      </g>
      <text id="политика_за_поверителност_обработка_на_лични_данни_общи_условия" data-name="политика за поверителност          обработка на лични данни          общи условия" transform="translate(731 2928)" fill="#171f18" font-size="16" font-family="Montserrat-Bold, Montserrat" font-weight="700"><tspan x="0" y="0" xml:space="preserve">политика за поверителност          обработка на лични данни          общи условия</tspan></text>
    </g>
    <g id="Group_157-2" data-name="Group 157" transform="translate(0 895)">
      <g transform="matrix(1, 0, 0, 1, 0, -895)" filter="url(#Rectangle_12-2)">
        <path id="Rectangle_12-4" data-name="Rectangle 12" d="M0,0H140a11,11,0,0,1,11,11V121a11,11,0,0,1-11,11H0a0,0,0,0,1,0,0V0A0,0,0,0,1,0,0Z" transform="translate(0 895)" fill="#414040"/>
      </g>
      <path id="cart-2" data-name="cart" d="M.225,10.911l7.637,30.4a2.612,2.612,0,0,0,2.621,2.621h49.8l-2.1,10.483H13.1a2.621,2.621,0,1,0,0,5.242H60.279A2.618,2.618,0,0,0,62.9,57.037l9.959-49.8h8.387a2.621,2.621,0,0,0,0-5.242H70.762a2.62,2.62,0,0,0-2.621,2.621l-.524,2.621h-65A2.62,2.62,0,0,0,0,9.862a2.593,2.593,0,0,0,.225,1.048Zm61.1,27.781H52.416V12.483H66.569ZM36.691,12.483H49.8V38.691h-13.1Zm-15.725,0h13.1V38.691h-13.1Zm-2.621,0V38.691h-5.9L5.8,12.483ZM55.037,64.9A7.862,7.862,0,1,0,62.9,72.762,7.864,7.864,0,0,0,55.037,64.9Zm0,10.483a2.621,2.621,0,1,1,2.621-2.621A2.618,2.618,0,0,1,55.037,75.383ZM18.346,64.9a7.862,7.862,0,1,0,7.862,7.862A7.864,7.864,0,0,0,18.346,64.9Zm0,10.483a2.621,2.621,0,1,1,2.621-2.621A2.618,2.618,0,0,1,18.346,75.383Z" transform="translate(43.134 25)" fill="#ececec" opacity="0.77"/>
    </g>
  </g>
</svg>
