<svg xmlns="http://www.w3.org/2000/svg" xmlns:xlink="http://www.w3.org/1999/xlink" width="1920" height="3489" viewBox="0 0 1920 3489">
  <defs>
    <filter id="Rectangle_37" x="-9" y="-6" width="1938" height="357" filterUnits="userSpaceOnUse">
      <feOffset dy="3" input="SourceAlpha"/>
      <feGaussianBlur stdDeviation="3" result="blur"/>
      <feFlood flood-opacity="0.161"/>
      <feComposite operator="in" in2="blur"/>
      <feComposite in="SourceGraphic"/>
    </filter>
    <filter id="Rectangle_28" x="177" y="1130" width="459" height="436" filterUnits="userSpaceOnUse">
      <feOffset dx="4" dy="4" input="SourceAlpha"/>
      <feGaussianBlur stdDeviation="8" result="blur-2"/>
      <feFlood flood-opacity="0.161"/>
      <feComposite operator="in" in2="blur-2"/>
      <feComposite in="SourceGraphic"/>
    </filter>
    <filter id="Rectangle_29" x="735" y="1130" width="459" height="436" filterUnits="userSpaceOnUse">
      <feOffset dx="4" dy="4" input="SourceAlpha"/>
      <feGaussianBlur stdDeviation="8" result="blur-3"/>
      <feFlood flood-opacity="0.161"/>
      <feComposite operator="in" in2="blur-3"/>
      <feComposite in="SourceGraphic"/>
    </filter>
    <filter id="Rectangle_30" x="1273" y="1130" width="459" height="436" filterUnits="userSpaceOnUse">
      <feOffset dx="4" dy="4" input="SourceAlpha"/>
      <feGaussianBlur stdDeviation="8" result="blur-4"/>
      <feFlood flood-opacity="0.161"/>
      <feComposite operator="in" in2="blur-4"/>
      <feComposite in="SourceGraphic"/>
    </filter>
    <filter id="Rectangle_12" x="-20" y="890" width="181" height="162" filterUnits="userSpaceOnUse">
      <feOffset dx="-5" dy="10" input="SourceAlpha"/>
      <feGaussianBlur stdDeviation="5" result="blur-5"/>
      <feFlood flood-opacity="0.161"/>
      <feComposite operator="in" in2="blur-5"/>
      <feComposite in="SourceGraphic"/>
    </filter>
    <clipPath id="clip-home">
      <rect width="1920" height="3489"/>
    </clipPath>
  </defs>
  <g id="home" clip-path="url(#clip-home)">
    <rect width="1920" height="3489" fill="#fefefe"/>
    <g id="Group_1095" data-name="Group 1095">
      <g transform="matrix(1, 0, 0, 1, 0, 0)" filter="url(#Rectangle_37)">
        <rect id="Rectangle_37-2" data-name="Rectangle 37" width="1920" height="339" fill="#fff" opacity="0.8"/>
      </g>
      <g transform="matrix(1, 0, 0, 1, 0, 0)" filter="url(#Rectangle_28)">
        <rect id="Rectangle_28-2" data-name="Rectangle 28" width="411" height="388" transform="translate(197 1150)" fill="#fff"/>
      </g>
      <g transform="matrix(1, 0, 0, 1, 0, 0)" filter="url(#Rectangle_29)">
        <rect id="Rectangle_29-2" data-name="Rectangle 29" width="411" height="388" transform="translate(755 1150)" fill="#fff"/>
      </g>
      <g transform="matrix(1, 0, 0, 1, 0, 0)" filter="url(#Rectangle_30)">
        <rect id="Rectangle_30-2" data-name="Rectangle 30" width="411" height="388" transform="translate(1293 1150)" fill="#fff"/>
      </g>
      <path id="Path_125" data-name="Path 125" d="M0,0H1526V643H0Z" transform="translate(197 1675)" fill="#414040"/>
      <g id="Group_132" data-name="Group 132" transform="translate(22 -140)">
        <rect id="Rectangle_1" data-name="Rectangle 1" width="1708" height="647" transform="translate(84 510)" fill="#7e7e7e"/>
      </g>
      <g id="Group_224" data-name="Group 224">
        <text id="безплатни_консултации" data-name="безплатни
консултации" transform="translate(402 1389)" fill="#414040" font-size="32" font-family="Montserrat-SemiBold, Montserrat" font-weight="600"><tspan x="-106.576" y="0">БЕЗПЛАТНИ</tspan><tspan x="-134.112" y="40">КОНСУЛТАЦИИ</tspan></text>
        <g id="Group_127" data-name="Group 127" transform="translate(177 1215)">
          <g id="Group_126" data-name="Group 126" transform="translate(177 1)">
            <g id="Group_125" data-name="Group 125">
              <circle id="Ellipse_30" data-name="Ellipse 30" cx="48.5" cy="48.5" r="48.5" fill="none" stroke="#414040" stroke-linecap="round" stroke-linejoin="round" stroke-miterlimit="10" stroke-width="5"/>
            </g>
          </g>
          <path id="Path_119" data-name="Path 119" d="M184,23.665A17.665,17.665,0,1,1,201.665,41.33v4.416" transform="translate(23.914 17.081)" fill="none" stroke="#414040" stroke-linecap="round" stroke-linejoin="round" stroke-miterlimit="10" stroke-width="5"/>
          <path id="Path_120" data-name="Path 120" d="M188,19Z" transform="translate(37.579 61.492)" fill="none" stroke="#414040" stroke-linecap="round" stroke-linejoin="round" stroke-miterlimit="10" stroke-width="5"/>
        </g>
      </g>
      <g id="Group_225" data-name="Group 225">
        <text id="Безплатни_доставки_" data-name="Безплатни
доставки *" transform="translate(961 1389)" fill="#414040" font-size="32" font-family="Montserrat-SemiBold, Montserrat" font-weight="600"><tspan x="-106.576" y="0">БЕЗПЛАТНИ</tspan><tspan x="-107.12" y="40">ДОСТАВКИ *</tspan></text>
        <text id="_за_поръчки_над_50лв." data-name="* за поръчки над 50лв." transform="translate(961 1460)" fill="#414040" font-size="16" font-family="Montserrat-Light, Montserrat" font-weight="300"><tspan x="-91.584" y="0">* за поръчки над 50лв.</tspan></text>
        <g id="truck" transform="translate(898 1210)" fill="#414040">
          <path d="M 94.37256622314453 104.4912033081055 C 87.58341217041016 104.4912033081055 81.64176177978516 99.87095642089844 79.92353057861328 93.25560760498047 L 79.77769470214844 92.69415283203125 L 79.19761657714844 92.69415283203125 L 58.42691421508789 92.69415283203125 L 57.84682846069336 92.69415283203125 L 57.70099639892578 93.25560760498047 C 55.98278045654297 99.87095642089844 50.04436492919922 104.4912033081055 43.25983047485352 104.4912033081055 C 36.47066497802734 104.4912033081055 30.52901268005371 99.87095642089844 28.8107967376709 93.25560760498047 L 28.66496276855469 92.69415283203125 L 28.08488082885742 92.69415283203125 L 23.59412956237793 92.69415283203125 C 17.50276374816895 92.69415283203125 12.54706382751465 87.73845672607422 12.54706382751465 81.64708709716797 L 12.54706382751465 69.85002136230469 L 12.54706382751465 69.10002136230469 L 11.79706382751465 69.10002136230469 C 5.705697059631348 69.10002136230469 0.7499969005584717 64.14432525634766 0.7499969005584717 58.05295562744141 L 0.7499969005584717 14.7970724105835 C 0.7499969005584717 8.705705642700195 5.705697059631348 3.750005483627319 11.79706382751465 3.750005483627319 L 70.78237915039063 3.750005483627319 C 76.87374877929688 3.750005483627319 81.82942962646484 8.705705642700195 81.82942962646484 14.7970724105835 L 81.82942962646484 22.66177177429199 L 81.82942962646484 23.41177177429199 L 82.57942962646484 23.41177177429199 L 98.30884552001953 23.41177177429199 C 102.0103454589844 23.41177177429199 105.4462814331055 25.25090599060059 107.4999771118164 28.3314380645752 L 123.2294006347656 51.92555618286133 C 124.4436950683594 53.74333953857422 125.0853271484375 55.86195373535156 125.0853271484375 58.05295562744141 L 125.0853271484375 81.64708709716797 C 125.0853271484375 87.73845672607422 120.1296310424805 92.69415283203125 114.0382614135742 92.69415283203125 L 109.539665222168 92.69415283203125 L 108.9595794677734 92.69415283203125 L 108.8137435913086 93.25560760498047 C 107.0955123901367 99.87095642089844 101.1570816040039 104.4912033081055 94.37256622314453 104.4912033081055 Z M 94.37649536132813 80.89708709716797 C 89.62632751464844 80.89708709716797 85.76177978515625 84.76161956787109 85.76177978515625 89.51178741455078 C 85.76177978515625 94.26195526123047 89.62632751464844 98.12650299072266 94.37649536132813 98.12650299072266 C 99.12666320800781 98.12650299072266 102.9912109375 94.26195526123047 102.9912109375 89.51178741455078 C 102.9912109375 84.76161956787109 99.12666320800781 80.89708709716797 94.37649536132813 80.89708709716797 Z M 43.25983047485352 80.89708709716797 C 38.50966262817383 80.89708709716797 34.6451301574707 84.76161956787109 34.6451301574707 89.51178741455078 C 34.6451301574707 94.26195526123047 38.50966262817383 98.12650299072266 43.25983047485352 98.12650299072266 C 48.0099983215332 98.12650299072266 51.87454605102539 94.26195526123047 51.87454605102539 89.51178741455078 C 51.87454605102539 84.76161956787109 48.0099983215332 80.89708709716797 43.25983047485352 80.89708709716797 Z M 94.37649536132813 74.53237152099609 C 101.1610336303711 74.53237152099609 107.0994491577148 79.15261840820313 108.8176803588867 85.76799011230469 L 108.9635162353516 86.32943725585938 L 109.5435943603516 86.32943725585938 L 114.0382614135742 86.32943725585938 C 116.6201171875 86.32943725585938 118.7206115722656 84.22893524169922 118.7206115722656 81.64708709716797 L 118.7206115722656 58.05295562744141 C 118.7206115722656 57.12727355957031 118.4488296508789 56.22903823852539 117.9346313476563 55.45535659790039 L 102.2046127319336 31.86033821105957 C 101.3313140869141 30.55510520935059 99.87521362304688 29.7764720916748 98.30884552001953 29.7764720916748 L 82.57942962646484 29.7764720916748 L 81.82942962646484 29.7764720916748 L 81.82942962646484 30.5264720916748 L 81.82942962646484 58.05295562744141 C 81.82942962646484 64.14432525634766 76.87374877929688 69.10002136230469 70.78237915039063 69.10002136230469 L 19.66177940368652 69.10002136230469 L 18.91177940368652 69.10002136230469 L 18.91177940368652 69.85002136230469 L 18.91177940368652 81.64708709716797 C 18.91177940368652 84.22893524169922 21.01227951049805 86.32943725585938 23.59412956237793 86.32943725585938 L 28.08881378173828 86.32943725585938 L 28.66889762878418 86.32943725585938 L 28.81472969055176 85.76799011230469 C 30.53296279907227 79.15261840820313 36.47461318969727 74.53237152099609 43.26376342773438 74.53237152099609 C 50.04829788208008 74.53237152099609 55.98671340942383 79.15261840820313 57.70492935180664 85.76799011230469 L 57.85076522827148 86.32943725585938 L 58.43084716796875 86.32943725585938 L 79.20154571533203 86.32943725585938 L 79.78163146972656 86.32943725585938 L 79.92746734619141 85.76799011230469 C 81.64569854736328 79.15261840820313 87.58734893798828 74.53237152099609 94.37649536132813 74.53237152099609 Z M 11.79706382751465 10.11470508575439 C 9.215213775634766 10.11470508575439 7.114713668823242 12.21520519256592 7.114713668823242 14.7970724105835 L 7.114713668823242 58.05295562744141 C 7.114713668823242 60.63482284545898 9.215213775634766 62.73532104492188 11.79706382751465 62.73532104492188 L 70.78237915039063 62.73532104492188 C 73.36422729492188 62.73532104492188 75.46472930908203 60.63482284545898 75.46472930908203 58.05295562744141 L 75.46472930908203 14.7970724105835 C 75.46472930908203 12.21520519256592 73.36422729492188 10.11470508575439 70.78237915039063 10.11470508575439 L 11.79706382751465 10.11470508575439 Z" stroke="none"/>
          <path d="M 11.79706573486328 4.500007629394531 C 6.119247436523438 4.500007629394531 1.5 9.119239807128906 1.5 14.79705810546875 L 1.5 58.05295562744141 C 1.5 63.73077392578125 6.119247436523438 68.35002136230469 11.79706573486328 68.35002136230469 L 13.29706573486328 68.35002136230469 L 13.29706573486328 69.85002136230469 L 13.29706573486328 81.64707183837891 C 13.29706573486328 87.32489013671875 17.91629791259766 91.94413757324219 23.5941162109375 91.94413757324219 L 28.08486175537109 91.94413757324219 L 29.24503326416016 91.94413757324219 L 29.53669738769531 93.06705474853516 C 31.1690673828125 99.35183715820313 36.81221008300781 103.7412033081055 43.25982666015625 103.7412033081055 C 49.70281219482422 103.7412033081055 55.34272766113281 99.35183715820313 56.97508239746094 93.06705474853516 L 57.26674652099609 91.94413757324219 L 58.42691040039063 91.94413757324219 L 79.19761657714844 91.94413757324219 L 80.35778045654297 91.94413757324219 L 80.64944458007813 93.06705474853516 C 82.28181457519531 99.35183715820313 87.92496490478516 103.7412033081055 94.37256622314453 103.7412033081055 C 100.815544128418 103.7412033081055 106.4554595947266 99.35183715820313 108.0878295898438 93.06705474853516 L 108.3795013427734 91.94413757324219 L 109.539665222168 91.94413757324219 L 114.0382614135742 91.94413757324219 C 119.7160797119141 91.94413757324219 124.3353271484375 87.32489013671875 124.3353271484375 81.64707183837891 L 124.3353271484375 58.05295562744141 C 124.3353271484375 56.0107536315918 123.7373809814453 54.03620529174805 122.6053466796875 52.34157180786133 L 106.8759460449219 28.7474365234375 C 104.9616470336914 25.87603759765625 101.7589950561523 24.16177368164063 98.30884552001953 24.16177368164063 L 82.57942962646484 24.16177368164063 L 81.07942962646484 24.16177368164063 L 81.07942962646484 22.66177368164063 L 81.07942962646484 14.79705810546875 C 81.07942962646484 9.119239807128906 76.46019744873047 4.500007629394531 70.78237915039063 4.500007629394531 L 11.79706573486328 4.500007629394531 M 70.78237915039063 63.48532104492188 L 11.79706573486328 63.48532104492188 C 8.801666259765625 63.48532104492188 6.364715576171875 61.04837036132813 6.364715576171875 58.05295562744141 L 6.364715576171875 14.79705810546875 C 6.364715576171875 11.80165863037109 8.801666259765625 9.364707946777344 11.79706573486328 9.364707946777344 L 70.78237915039063 9.364707946777344 C 73.77777862548828 9.364707946777344 76.21472930908203 11.80165863037109 76.21472930908203 14.79705810546875 L 76.21472930908203 58.05295562744141 C 76.21472930908203 61.04837036132813 73.77777862548828 63.48532104492188 70.78237915039063 63.48532104492188 M 114.0382614135742 87.07943725585938 L 109.5435943603516 87.07943725585938 L 108.383430480957 87.07943725585938 L 108.0917663574219 85.95652008056641 C 106.4593963623047 79.67173767089844 100.8194808959961 75.28237152099609 94.37649536132813 75.28237152099609 C 87.92887878417969 75.28237152099609 82.28572845458984 79.67173767089844 80.65338134765625 85.95652008056641 L 80.36170959472656 87.07943725585938 L 79.20154571533203 87.07943725585938 L 58.43084716796875 87.07943725585938 L 57.27068328857422 87.07943725585938 L 56.97901153564453 85.95652008056641 C 55.34666442871094 79.67173767089844 49.70674896240234 75.28237152099609 43.26376342773438 75.28237152099609 C 36.81614685058594 75.28237152099609 31.17299652099609 79.67173767089844 29.54062652587891 85.95652008056641 L 29.24896240234375 87.07943725585938 L 28.08879852294922 87.07943725585938 L 23.5941162109375 87.07943725585938 C 20.59871673583984 87.07943725585938 18.16176605224609 84.64248657226563 18.16176605224609 81.64707183837891 L 18.16176605224609 69.85002136230469 L 18.16176605224609 68.35002136230469 L 19.66176605224609 68.35002136230469 L 70.78237915039063 68.35002136230469 C 76.46019744873047 68.35002136230469 81.07942962646484 63.73077392578125 81.07942962646484 58.05295562744141 L 81.07942962646484 30.52647399902344 L 81.07942962646484 29.02647399902344 L 82.57942962646484 29.02647399902344 L 98.30884552001953 29.02647399902344 C 100.1260299682617 29.02647399902344 101.8151626586914 29.92957305908203 102.8286590576172 31.4443359375 L 118.559211730957 55.04020690917969 C 119.1554641723633 55.93727111816406 119.4706115722656 56.97907257080078 119.4706115722656 58.05295562744141 L 119.4706115722656 81.64707183837891 C 119.4706115722656 84.64248657226563 117.0336608886719 87.07943725585938 114.0382614135742 87.07943725585938 M 43.25982666015625 98.87648773193359 C 38.09611511230469 98.87648773193359 33.89513397216797 94.67550659179688 33.89513397216797 89.51178741455078 C 33.89513397216797 84.34806823730469 38.09611511230469 80.14707183837891 43.25982666015625 80.14707183837891 C 48.42354583740234 80.14707183837891 52.62454986572266 84.34806823730469 52.62454986572266 89.51178741455078 C 52.62454986572266 94.67550659179688 48.42354583740234 98.87648773193359 43.25982666015625 98.87648773193359 M 94.37649536132813 98.87648773193359 C 89.21278381347656 98.87648773193359 85.01177978515625 94.67550659179688 85.01177978515625 89.51178741455078 C 85.01177978515625 84.34806823730469 89.21278381347656 80.14707183837891 94.37649536132813 80.14707183837891 C 99.54021453857422 80.14707183837891 103.7412109375 84.34806823730469 103.7412109375 89.51178741455078 C 103.7412109375 94.67550659179688 99.54021453857422 98.87648773193359 94.37649536132813 98.87648773193359 M 11.79706573486328 3.000007629394531 L 70.78237915039063 3.000007629394531 C 77.28648376464844 3.000007629394531 82.57942962646484 8.292938232421875 82.57942962646484 14.79705810546875 L 82.57942962646484 22.66177368164063 L 98.30884552001953 22.66177368164063 C 102.2569274902344 22.66177368164063 105.9297485351563 24.6240234375 108.1240158081055 27.91539001464844 L 123.8534317016602 51.509521484375 C 125.1511001586914 53.45210647583008 125.8353271484375 55.71714019775391 125.8353271484375 58.05295562744141 L 125.8353271484375 81.64707183837891 C 125.8353271484375 88.15118408203125 120.542366027832 93.44413757324219 114.0382614135742 93.44413757324219 L 109.539665222168 93.44413757324219 C 107.7818984985352 100.2117233276367 101.6749496459961 105.2412033081055 94.37256622314453 105.2412033081055 C 87.06233215332031 105.2412033081055 80.95538330078125 100.2117233276367 79.19761657714844 93.44413757324219 L 58.42691040039063 93.44413757324219 C 56.66916656494141 100.2117233276367 50.56221008300781 105.2412033081055 43.25982666015625 105.2412033081055 C 35.94957733154297 105.2412033081055 29.84262847900391 100.2117233276367 28.08486175537109 93.44413757324219 L 23.5941162109375 93.44413757324219 C 17.09001159667969 93.44413757324219 11.79706573486328 88.15118408203125 11.79706573486328 81.64707183837891 L 11.79706573486328 69.85002136230469 C 5.292945861816406 69.85002136230469 0 64.55706787109375 0 58.05295562744141 L 0 14.79705810546875 C 0 8.292938232421875 5.292945861816406 3.000007629394531 11.79706573486328 3.000007629394531 Z M 70.78237915039063 61.98532104492188 C 72.95696258544922 61.98532104492188 74.71472930908203 60.2275390625 74.71472930908203 58.05295562744141 L 74.71472930908203 14.79705810546875 C 74.71472930908203 12.62247467041016 72.95696258544922 10.86470794677734 70.78237915039063 10.86470794677734 L 11.79706573486328 10.86470794677734 C 9.626396179199219 10.86470794677734 7.864715576171875 12.62247467041016 7.864715576171875 14.79705810546875 L 7.864715576171875 58.05295562744141 C 7.864715576171875 60.2275390625 9.626396179199219 61.98532104492188 11.79706573486328 61.98532104492188 L 70.78237915039063 61.98532104492188 Z M 114.0382614135742 85.57943725585938 C 116.2128448486328 85.57943725585938 117.9706115722656 83.82167053222656 117.9706115722656 81.64707183837891 L 117.9706115722656 58.05295562744141 C 117.9706115722656 57.27828979492188 117.7386169433594 56.51540374755859 117.3099822998047 55.87050628662109 L 101.5805816650391 32.27639007568359 C 100.8491516113281 31.18318939208984 99.62226104736328 30.52647399902344 98.30884552001953 30.52647399902344 L 82.57942962646484 30.52647399902344 L 82.57942962646484 58.05295562744141 C 82.57942962646484 64.55706787109375 77.28648376464844 69.85002136230469 70.78237915039063 69.85002136230469 L 19.66176605224609 69.85002136230469 L 19.66176605224609 81.64707183837891 C 19.66176605224609 83.82167053222656 21.4234619140625 85.57943725585938 23.5941162109375 85.57943725585938 L 28.08879852294922 85.57943725585938 C 29.84656524658203 78.81185913085938 35.95351409912109 73.78237152099609 43.26376342773438 73.78237152099609 C 50.56614685058594 73.78237152099609 56.673095703125 78.81185913085938 58.43084716796875 85.57943725585938 L 79.20154571533203 85.57943725585938 C 80.95929718017578 78.81185913085938 87.06624603271484 73.78237152099609 94.37649536132813 73.78237152099609 C 101.6788787841797 73.78237152099609 107.7858276367188 78.81185913085938 109.5435943603516 85.57943725585938 L 114.0382614135742 85.57943725585938 Z M 43.25982666015625 97.37648773193359 C 47.59721374511719 97.37648773193359 51.12454986572266 93.85310363769531 51.12454986572266 89.51178741455078 C 51.12454986572266 85.17047119140625 47.60115051269531 81.64707183837891 43.25982666015625 81.64707183837891 C 38.91458129882813 81.64707183837891 35.39513397216797 85.17047119140625 35.39513397216797 89.51178741455078 C 35.39513397216797 93.85310363769531 38.91458129882813 97.37648773193359 43.25982666015625 97.37648773193359 Z M 94.37649536132813 97.37648773193359 C 98.71781158447266 97.37648773193359 102.2412109375 93.85310363769531 102.2412109375 89.51178741455078 C 102.2412109375 85.17047119140625 98.71781158447266 81.64707183837891 94.37649536132813 81.64707183837891 C 90.03125 81.64707183837891 86.51177978515625 85.17047119140625 86.51177978515625 89.51178741455078 C 86.51177978515625 93.85310363769531 90.03125 97.37648773193359 94.37649536132813 97.37648773193359 Z" stroke="none" fill="#fff"/>
        </g>
      </g>
      <g id="Group_136" data-name="Group 136" transform="translate(548 601)">
        <g id="Rectangle_2" data-name="Rectangle 2" transform="translate(268 1562)" fill="none" stroke="#b5b5b5" stroke-width="1">
          <rect width="289" height="62" stroke="none"/>
          <rect x="0.5" y="0.5" width="288" height="61" fill="none"/>
        </g>
        <text id="Научете_повече" data-name="Научете повече" transform="translate(413 1602)" fill="#b5b5b5" font-size="24" font-family="Montserrat-Regular, Montserrat"><tspan x="-98.856" y="0">Научете повече</tspan></text>
      </g>
      <g id="Group_142" data-name="Group 142" transform="translate(548 1518)">
        <rect id="Rectangle_2-2" data-name="Rectangle 2" width="289" height="62" transform="translate(268 1562)" fill="#414040"/>
        <text id="Напишете_отзив" data-name="Напишете отзив" transform="translate(413 1602)" fill="#ececec" font-size="24" font-family="Montserrat-Regular, Montserrat"><tspan x="-102.276" y="0">Напишете отзив</tspan></text>
      </g>
      <g id="Group_226" data-name="Group 226">
        <text id="абонаменти" transform="translate(1500 1409)" fill="#414040" font-size="32" font-family="Montserrat-SemiBold, Montserrat" font-weight="600"><tspan x="-125.52" y="0">АБОНАМЕНТИ</tspan></text>
        <g id="Group_131" data-name="Group 131" transform="translate(1142.058 1215)">
          <g id="Group_130" data-name="Group 130" transform="translate(309 1)">
            <path id="Path_122" data-name="Path 122" d="M309,77.955a12.991,12.991,0,0,0,13.227,13.227h70.545A12.991,12.991,0,0,0,406,77.955V16.227A12.991,12.991,0,0,0,392.773,3H322.227A12.991,12.991,0,0,0,309,16.227Z" transform="translate(-309 5.818)" fill="none" stroke="#414040" stroke-linecap="round" stroke-linejoin="round" stroke-miterlimit="10" stroke-width="5"/>
            <line id="Line_83" data-name="Line 83" x2="97" transform="translate(-0.058 35)" fill="none" stroke="#414040" stroke-linecap="round" stroke-linejoin="round" stroke-miterlimit="10" stroke-width="5"/>
            <line id="Line_84" data-name="Line 84" y1="18" transform="translate(48.942)" fill="none" stroke="#414040" stroke-linecap="round" stroke-linejoin="round" stroke-miterlimit="10" stroke-width="5"/>
            <line id="Line_85" data-name="Line 85" y1="18" transform="translate(21.942)" fill="none" stroke="#414040" stroke-linecap="round" stroke-linejoin="round" stroke-miterlimit="10" stroke-width="5"/>
            <line id="Line_86" data-name="Line 86" y1="18" transform="translate(74.942)" fill="none" stroke="#414040" stroke-linecap="round" stroke-linejoin="round" stroke-miterlimit="10" stroke-width="5"/>
          </g>
          <line id="Line_87" data-name="Line 87" x2="8" transform="translate(326.942 59)" fill="none" stroke="#414040" stroke-linecap="round" stroke-linejoin="round" stroke-miterlimit="10" stroke-width="5"/>
          <line id="Line_88" data-name="Line 88" x2="9" transform="translate(352.942 59)" fill="none" stroke="#414040" stroke-linecap="round" stroke-linejoin="round" stroke-miterlimit="10" stroke-width="5"/>
          <line id="Line_89" data-name="Line 89" x2="8" transform="translate(379.942 59)" fill="none" stroke="#414040" stroke-linecap="round" stroke-linejoin="round" stroke-miterlimit="10" stroke-width="5"/>
          <line id="Line_90" data-name="Line 90" x2="8" transform="translate(326.942 76)" fill="none" stroke="#414040" stroke-linecap="round" stroke-linejoin="round" stroke-miterlimit="10" stroke-width="5"/>
          <line id="Line_91" data-name="Line 91" x2="9" transform="translate(352.942 76)" fill="none" stroke="#414040" stroke-linecap="round" stroke-linejoin="round" stroke-miterlimit="10" stroke-width="5"/>
          <line id="Line_92" data-name="Line 92" x2="8" transform="translate(379.942 76)" fill="none" stroke="#414040" stroke-linecap="round" stroke-linejoin="round" stroke-miterlimit="10" stroke-width="5"/>
        </g>
      </g>
      <g id="Group_137" data-name="Group 137" transform="translate(0 -20)">
        <text id="_Лекарят_лекува_но_природата_излекува._" data-name="„Лекарят лекува, 
но природата излекува.“
" transform="translate(960 1924)" fill="#ececec" font-size="54" font-family="Montserrat-SemiBold, Montserrat" font-weight="600"><tspan x="-288.036" y="0">„ЛЕКАРЯТ ЛЕКУВА, </tspan><tspan x="-421.254" y="80">НО ПРИРОДАТА ИЗЛЕКУВА.“</tspan><tspan x="0" y="160"></tspan></text>
        <text id="_-_Хипократ_" data-name="- Хипократ
" transform="translate(1079 2094)" fill="#ececec" font-size="40" font-family="Montserrat-Regular, Montserrat"><tspan x="-256.4" y="0">- ХИПОКРАТ</tspan><tspan x="0" y="80"></tspan></text>
        <text id="Нашето_мото:_" data-name="Нашето мото:
" transform="translate(1079 1822)" fill="#ececec" font-size="34" font-family="Montserrat-Regular, Montserrat"><tspan x="-237.252" y="0">Нашето мото:</tspan><tspan x="0" y="80"></tspan></text>
      </g>
      <text id="Нашите_доволни_клиенти:" data-name="Нашите доволни клиенти:" transform="translate(1193 2458)" fill="#414040" font-size="34" font-family="Montserrat-Regular, Montserrat"><tspan x="-465.868" y="0">Нашите доволни клиенти:</tspan></text>
      <g id="Group_141" data-name="Group 141" transform="translate(-48.848 -20)">
        <g id="Group_138" data-name="Group 138">
          <rect id="Rectangle_5" data-name="Rectangle 5" width="498" height="449" transform="translate(169 2566)" fill="#7e7e7e" opacity="0.62"/>
          <text id="дафинка:" transform="translate(314 2682)" fill="#ececec" font-size="40" font-family="Montserrat-Regular, Montserrat"><tspan x="0" y="0">ДАФИНКА:</tspan></text>
          <text id="_Това_е_моята_аптека_за_в_бъдеще._Много_любезно_обслужване._Продължавайте_все_така_да_предлагате_всичко_от_природата_за_здравето_на_човек._Благодаря_Ви._" data-name="&quot;Това е моята аптека за в 
бъдеще. Много любезно 
обслужване. Продължавайте 
все така, да предлагате 
всичко от природата за 
здравето на човек. 
Благодаря Ви.&quot;" transform="translate(202 2757)" fill="#ececec" font-size="28" font-family="Montserrat-Regular, Montserrat"><tspan x="0" y="0">&quot;Това е моята аптека за в </tspan><tspan x="0" y="34">бъдеще. Много любезно </tspan><tspan x="0" y="68">обслужване. Продължавайте </tspan><tspan x="0" y="102">все така, да предлагате </tspan><tspan x="0" y="136">всичко от природата за </tspan><tspan x="0" y="170">здравето на човек. </tspan><tspan x="0" y="204">Благодаря Ви.&quot;</tspan></text>
        </g>
        <g id="Group_139" data-name="Group 139" transform="translate(596)">
          <rect id="Rectangle_5-2" data-name="Rectangle 5" width="498" height="449" transform="translate(169 2566)" fill="#7e7e7e" opacity="0.62"/>
          <text id="кирил:" transform="translate(314 2682)" fill="#ececec" font-size="40" font-family="Montserrat-Regular, Montserrat"><tspan x="0" y="0">КИРИЛ:</tspan></text>
          <text id="_Точни_са_и_цените_са_добри._Препоръчвам._" data-name="&quot;Точни са и цените са добри.
Препоръчвам.&quot;" transform="translate(202 2757)" fill="#ececec" font-size="28" font-family="Montserrat-Regular, Montserrat"><tspan x="0" y="0">&quot;Точни са и цените са добри.</tspan><tspan x="0" y="34">Препоръчвам.&quot;</tspan></text>
        </g>
        <g id="Group_140" data-name="Group 140" transform="translate(1192)">
          <rect id="Rectangle_5-3" data-name="Rectangle 5" width="498" height="449" transform="translate(169 2566)" fill="#7e7e7e" opacity="0.62"/>
          <text id="кристина:" transform="translate(314 2682)" fill="#ececec" font-size="40" font-family="Montserrat-Regular, Montserrat"><tspan x="0" y="0">КРИСТИНА:</tspan></text>
          <text id="_Много_учтиви_и_всеотдайни_в_работата_си_:_Ако_липсва_някое_лекарство_се_прави_всичко_възможно_да_Ви_го_доставят_до_24ч._Препоръчвам_._" data-name="&quot;Много учтиви и всеотдайни
 в работата си :) Ако липсва 
някое лекарство, се прави
 всичко възможно да Ви го 
доставят до 24ч. 
Препоръчвам!.&quot;" transform="translate(202 2757)" fill="#ececec" font-size="28" font-family="Montserrat-Regular, Montserrat"><tspan x="0" y="0">&quot;Много учтиви и всеотдайни</tspan><tspan x="0" y="34" xml:space="preserve"> в работата си :) Ако липсва </tspan><tspan x="0" y="68">някое лекарство, се прави</tspan><tspan x="0" y="102" xml:space="preserve"> всичко възможно да Ви го </tspan><tspan x="0" y="136">доставят до 24ч. </tspan><tspan x="0" y="170">Препоръчвам!.&quot;</tspan></text>
        </g>
      </g>
      <g id="Group_157" data-name="Group 157" transform="translate(0 895)">
        <g transform="matrix(1, 0, 0, 1, 0, -895)" filter="url(#Rectangle_12)">
          <path id="Rectangle_12-2" data-name="Rectangle 12" d="M0,0H140a11,11,0,0,1,11,11V121a11,11,0,0,1-11,11H0a0,0,0,0,1,0,0V0A0,0,0,0,1,0,0Z" transform="translate(0 895)" fill="#414040"/>
        </g>
        <path id="cart" d="M.225,10.911l7.637,30.4a2.612,2.612,0,0,0,2.621,2.621h49.8l-2.1,10.483H13.1a2.621,2.621,0,1,0,0,5.242H60.279A2.618,2.618,0,0,0,62.9,57.037l9.959-49.8h8.387a2.621,2.621,0,0,0,0-5.242H70.762a2.62,2.62,0,0,0-2.621,2.621l-.524,2.621h-65A2.62,2.62,0,0,0,0,9.862a2.593,2.593,0,0,0,.225,1.048Zm61.1,27.781H52.416V12.483H66.569ZM36.691,12.483H49.8V38.691h-13.1Zm-15.725,0h13.1V38.691h-13.1Zm-2.621,0V38.691h-5.9L5.8,12.483ZM55.037,64.9A7.862,7.862,0,1,0,62.9,72.762,7.864,7.864,0,0,0,55.037,64.9Zm0,10.483a2.621,2.621,0,1,1,2.621-2.621A2.618,2.618,0,0,1,55.037,75.383ZM18.346,64.9a7.862,7.862,0,1,0,7.862,7.862A7.864,7.864,0,0,0,18.346,64.9Zm0,10.483a2.621,2.621,0,1,1,2.621-2.621A2.618,2.618,0,0,1,18.346,75.383Z" transform="translate(43.134 25)" fill="#ececec" opacity="0.77"/>
      </g>
      <g id="Group_221" data-name="Group 221" transform="translate(1847 220.881)">
        <rect id="Rectangle_8" data-name="Rectangle 8" width="72" height="72" transform="translate(0 0.5)" fill="rgba(65,64,64,0.54)"/>
        <g id="Group_51" data-name="Group 51" transform="translate(23 21.5)">
          <circle id="Ellipse_13" data-name="Ellipse 13" cx="10.845" cy="10.845" r="10.845" fill="none" stroke="#414040" stroke-linecap="round" stroke-linejoin="round" stroke-miterlimit="10" stroke-width="3"/>
          <line id="Line_19" data-name="Line 19" x2="7.23" y2="7.23" transform="translate(18.909 18.909)" fill="none" stroke="#414040" stroke-linecap="round" stroke-linejoin="round" stroke-miterlimit="10" stroke-width="3"/>
        </g>
        <path id="Path_128" data-name="Path 128" d="M1692,0" transform="translate(-1621.5)" fill="none" stroke="#707070" stroke-width="2"/>
      </g>
      <text id="начало" transform="translate(1089.666 269)" fill="#414040" font-size="32" font-family="Montserrat-SemiBold, Montserrat" font-weight="600"><tspan x="-75.344" y="0">НАЧАЛО</tspan></text>
      <text id="продукти" transform="translate(1331.666 269)" fill="#414040" font-size="32" font-family="Montserrat-Regular, Montserrat"><tspan x="-94.544" y="0">ПРОДУКТИ</tspan></text>
      <text id="за_нас" data-name="за нас" transform="translate(1561.666 269)" fill="#414040" font-size="32" font-family="Montserrat-Regular, Montserrat"><tspan x="-62.608" y="0">ЗА НАС</tspan></text>
      <text id="чзв" transform="translate(1730.666 269)" fill="#414040" font-size="32" font-family="Montserrat-Regular, Montserrat"><tspan x="-33.856" y="0">ЧЗВ</tspan></text>
      <text id="bg_I_en" data-name="bg I en" transform="translate(1702.666 123)" fill="#414040" font-size="32" font-family="Montserrat-Bold, Montserrat" font-weight="700"><tspan x="-61.504" y="0">BG</tspan><tspan y="0" xml:space="preserve" font-family="Montserrat-Regular, Montserrat" font-weight="400"> I EN</tspan></text>
      <g id="Group_220" data-name="Group 220" transform="translate(1414.666 71.761)">
        <g id="Group_153" data-name="Group 153">
          <rect id="Rectangle_2-3" data-name="Rectangle 2" width="165" height="79" transform="translate(0 0.239)" fill="#414040"/>
          <text id="ВХОД" transform="translate(83 52.239)" fill="#ececec" font-size="33" font-family="Montserrat-Regular, Montserrat"><tspan x="-49.318" y="0">ВХОД</tspan></text>
        </g>
      </g>
      <g id="Group_219" data-name="Group 219" transform="translate(155 72)">
        <g id="Group_179" data-name="Group 179" transform="translate(246.666 117)">
          <g id="Group_1" data-name="Group 1" transform="translate(26.5 9.5)">
            <text id="_0888_456_781" data-name="0888 456 781" transform="translate(4 31)" fill="#202020" font-size="32" font-family="Montserrat-Regular, Montserrat"><tspan x="0" y="0">0888 456 781</tspan></text>
            <text id="Дондуков_23" data-name="Дондуков 23" transform="translate(208 70)" fill="#202020" font-size="32" font-family="Montserrat-Regular, Montserrat"><tspan x="-207.968" y="0">Дондуков 23</tspan></text>
          </g>
          <line id="Line_95" data-name="Line 95" y2="88" fill="none" stroke="#202020" stroke-width="2"/>
        </g>
        <g id="Group_214" data-name="Group 214">
          <g id="Group_201" data-name="Group 201">
            <g id="Group_191" data-name="Group 191" transform="translate(39.109 153.966)">
              <path id="Path_131" data-name="Path 131" d="M-889.74,7282" transform="translate(889.74 -7282)" fill="#171f18" stroke="#000" stroke-miterlimit="10" stroke-width="10"/>
            </g>
            <g id="Group_192" data-name="Group 192" transform="translate(50.759 11.509)">
              <path id="Path_132" data-name="Path 132" d="M-858.234,6994.927l-3.255-2.933a22.593,22.593,0,0,0-1.662-31.871l2.933-3.255A26.98,26.98,0,0,1-858.234,6994.927Z" transform="translate(863.152 -6956.867)" fill="#171f18"/>
            </g>
            <g id="Group_193" data-name="Group 193" transform="translate(8.61)">
              <path id="Path_133" data-name="Path 133" d="M-934.651,6986.647a41.755,41.755,0,0,1-24.7-8.1l2.589-3.535A37.346,37.346,0,0,0-921.853,6980a37.128,37.128,0,0,0,21.088-19.328,37.127,37.127,0,0,0,1.245-28.577l4.117-1.5a41.48,41.48,0,0,1-1.391,31.928,41.483,41.483,0,0,1-23.561,21.593A41.755,41.755,0,0,1-934.651,6986.647Z" transform="translate(959.349 -6930.6)" fill="#171f18"/>
            </g>
            <g id="Group_195" data-name="Group 195" transform="translate(0 118.48)">
              <g id="Group_194" data-name="Group 194">
                <path id="Path_134" data-name="Path 134" d="M-933.871,7201.01v4.754l.037,0L-979,7224.9v-4.759l45.167-19.125Z" transform="translate(979 -7201.01)" fill="#171f18"/>
              </g>
            </g>
            <g id="Group_196" data-name="Group 196" transform="translate(6.839 137.221)">
              <rect id="Rectangle_22" data-name="Rectangle 22" width="4.382" height="67.789" fill="#171f18"/>
            </g>
            <g id="Group_197" data-name="Group 197" transform="translate(17.964 166.907)">
              <rect id="Rectangle_23" data-name="Rectangle 23" width="4.382" height="38.104" fill="#171f18"/>
            </g>
            <g id="Group_198" data-name="Group 198" transform="translate(17.766 60.64)">
              <path id="Path_135" data-name="Path 135" d="M-901.8,7213.372h-4.381v-94.86c0-22.7-7.678-31.9-29.34-35.159l-1.708-.257L-938.452,7069h38.695v4.382h-33.917l.512,5.912c22.535,3.849,31.361,14.979,31.361,39.217Z" transform="translate(938.452 -7069)" fill="#171f18"/>
            </g>
            <g id="Group_199" data-name="Group 199" transform="translate(52.225 69.257)">
              <rect id="Rectangle_24" data-name="Rectangle 24" width="4.235" height="4.235" transform="translate(4.235 0) rotate(90)" fill="#171f18"/>
            </g>
            <g id="Group_200" data-name="Group 200" transform="translate(58.295 190.296)">
              <rect id="Rectangle_25" data-name="Rectangle 25" width="4.235" height="14.715" fill="#171f18"/>
            </g>
          </g>
          <g id="Group_213" data-name="Group 213" transform="translate(75.099 57.573)">
            <g id="Group_202" data-name="Group 202" transform="translate(0 3.651)">
              <path id="Path_136" data-name="Path 136" d="M-803.444,7087.575h10.876c5.5,0,8.425.73,10.9,2.527,2.639,1.91,4.044,5.279,4.044,9.38,0,4.662-1.741,8.312-4.83,10.166-2.527,1.573-8.629,2.19-13.853,2.19H-807.6v-41.506h24.319v3.764h-20.163Zm0,20.5h8.8c3.988,0,6.459-.281,8.256-.9,2.864-.954,4.549-3.706,4.549-7.638,0-3.146-1.179-5.729-3.314-6.853-1.685-1.012-4.043-1.348-7.75-1.348h-10.539Z" transform="translate(807.6 -7070.333)" fill="#171f18"/>
            </g>
            <g id="Group_203" data-name="Group 203" transform="translate(35.924 3.651)">
              <path id="Path_137" data-name="Path 137" d="M-692.584,7070.333v41.506h-4.156V7076.51l-24.713,35.328h-4.156v-41.506h4.156v35.327l24.713-35.327Z" transform="translate(725.609 -7070.333)" fill="#171f18"/>
            </g>
            <g id="Group_204" data-name="Group 204" transform="translate(0 54.791)">
              <path id="Path_138" data-name="Path 138" d="M-803.444,7209.236v19.32H-807.6v-41.5h4.156v19.04l18.928-19.04h5.5l-20.5,20.556,20.5,20.949h-5.617Z" transform="translate(807.6 -7187.051)" fill="#171f18"/>
            </g>
            <g id="Group_205" data-name="Group 205" transform="translate(79.138 54.791)">
              <path id="Path_139" data-name="Path 139" d="M-626.983,7187.051h16.28c5.335,0,8.481.617,11.064,2.189,3.146,1.854,4.943,5.616,4.943,10.392,0,4.156-1.46,7.582-4.156,9.547-2.527,1.854-5.56,2.584-11.177,2.584h-12.8v16.793h-4.156ZM-610.309,7208c3.818,0,6.234-.394,7.975-1.405,2.19-1.179,3.426-3.762,3.426-7.021,0-4.043-1.685-6.907-4.662-7.862-1.853-.617-6.191-.9-10.291-.9h-8.966V7208Z" transform="translate(626.983 -7187.051)" fill="#171f18"/>
            </g>
            <g id="Group_206" data-name="Group 206" transform="translate(0 105.932)">
              <path id="Path_140" data-name="Path 140" d="M-807.6,7303.771h4.156v18.253h21.511v-18.253h4.156v41.5h-4.156v-19.488h-21.511v19.488H-807.6Z" transform="translate(807.6 -7303.771)" fill="#171f18"/>
            </g>
            <g id="Group_207" data-name="Group 207" transform="translate(73.513)">
              <path id="Path_141" data-name="Path 141" d="M-600.106,7107.567h4.438L-617.344,7062h-4.391l1.969,4.286-20.055,41.281h4.236l.788-1.455c.594-1.084,16.8-34.794,16.8-34.794Z" transform="translate(639.821 -7062)" fill="#171f18"/>
            </g>
            <g id="Group_208" data-name="Group 208" transform="translate(31.348 50.826)">
              <path id="Path_142" data-name="Path 142" d="M-715.118,7216.557l15.621.222,3.157,6.789h4.439L-713.578,7178h-4.391l1.969,4.287-20.055,41.281h4.236l.788-1.346c.594-1.084,3.2-5.665,3.2-5.665Zm.889-29.184,13.107,25.24h-24.816Z" transform="translate(736.055 -7178)" fill="#171f18"/>
            </g>
            <g id="Group_209" data-name="Group 209" transform="translate(34.698 102.09)">
              <path id="Path_143" data-name="Path 143" d="M-707.472,7333.558l15.621.222,3.157,6.789h4.439L-705.933,7295h-4.391l1.969,4.285-20.055,41.282h4.236l.787-1.346c.594-1.084,3.2-5.665,3.2-5.665Zm.889-29.184,13.107,25.24h-24.816Z" transform="translate(728.409 -7295.001)" fill="#171f18"/>
            </g>
            <g id="Group_212" data-name="Group 212" transform="translate(79.138 105.145)">
              <g id="Group_210" data-name="Group 210" transform="translate(0 17.654)">
                <rect id="Rectangle_26" data-name="Rectangle 26" width="4.235" height="39.543" transform="translate(39.543 0) rotate(90)" fill="#171f18"/>
              </g>
              <g id="Group_211" data-name="Group 211" transform="translate(17.654)">
                <rect id="Rectangle_27" data-name="Rectangle 27" width="4.235" height="39.543" fill="#171f18"/>
              </g>
            </g>
          </g>
        </g>
      </g>
      <rect id="Rectangle_561" data-name="Rectangle 561" width="223" height="223" transform="translate(139 72)" fill="#414040"/>
      <text id="logo" transform="translate(251 213)" fill="#fff" font-size="83" font-family="Montserrat-Regular, Montserrat"><tspan x="-91.674" y="0">logo</tspan></text>
      <g id="Group_1083" data-name="Group 1083" transform="translate(-106 409)">
        <rect id="Rectangle_3" data-name="Rectangle 3" width="1920" height="124" transform="translate(106 2956)" fill="#414040"/>
        <text id="Copyright_2020_I_Bilkarna_Ltd._I_All_rights_reserved." data-name="Copyright © 2020   I   Bilkarna Ltd.   I   All rights reserved." transform="translate(891.393 3029)" fill="rgba(255,255,255,0.64)" font-size="16" font-family="Montserrat-Regular, Montserrat"><tspan x="0" y="0" xml:space="preserve">Copyright © 2020   </tspan><tspan y="0" xml:space="preserve">I   </tspan><tspan y="0" xml:space="preserve">Bilkarna Ltd.  </tspan><tspan y="0" xml:space="preserve"> I   </tspan><tspan y="0">All rights reserved.</tspan></text>
        <g id="Group_247" data-name="Group 247" transform="translate(-896.607 -578)">
          <g id="Group_246" data-name="Group 246" transform="translate(-196 34)">
            <text id="BilkarnaSofia" transform="translate(1279 3571)" fill="#efefef" font-size="24" font-family="Montserrat-Regular, Montserrat"><tspan x="0" y="0">BilkarnaSofia</tspan></text>
          </g>
          <g id="Group_245" data-name="Group 245" transform="translate(44 -3)">
            <text id="Bilkarna.drugstore" transform="translate(1501 3608)" fill="#efefef" font-size="24" font-family="Montserrat-Regular, Montserrat"><tspan x="-222.312" y="0">Bilkarna.drugstore</tspan></text>
          </g>
        </g>
        <g id="Group_250" data-name="Group 250" transform="translate(1059.393 -332)">
          <g id="Group_248" data-name="Group 248" transform="translate(132)">
            <g id="Group_245-2" data-name="Group 245" transform="translate(-682 -249)">
              <text id="Дондуков_23-2" data-name="Дондуков 23" transform="translate(1436 3608)" fill="#efefef" font-size="24" font-family="Montserrat-Regular, Montserrat"><tspan x="-155.976" y="0">Дондуков 23</tspan></text>
            </g>
          </g>
          <g id="Group_249" data-name="Group 249" transform="translate(130.616)">
            <g id="Group_246-2" data-name="Group 246" transform="translate(-916 -212)">
              <text id="_0888_456_781-2" data-name="0888 456 781" transform="translate(1279 3571)" fill="#efefef" font-size="24" font-family="Montserrat-Regular, Montserrat"><tspan x="0" y="0">0888 456 781</tspan></text>
            </g>
          </g>
        </g>
        <text id="политика_за_поверителност_обработка_на_лични_данни_общи_условия" data-name="политика за поверителност          обработка на лични данни          общи условия" transform="translate(731 2928)" fill="#171f18" font-size="16" font-family="Montserrat-Bold, Montserrat" font-weight="700"><tspan x="0" y="0" xml:space="preserve">политика за поверителност          обработка на лични данни          общи условия</tspan></text>
      </g>
    </g>
  </g>
</svg>
