<svg xmlns="http://www.w3.org/2000/svg" xmlns:xlink="http://www.w3.org/1999/xlink" width="676" height="327" viewBox="0 0 676 327">
  <defs>
    <filter id="separator" x="26.692" y="168.645" width="204.68" height="19" filterUnits="userSpaceOnUse">
      <feOffset dy="3" input="SourceAlpha"/>
      <feGaussianBlur stdDeviation="3" result="blur"/>
      <feFlood flood-color="#fff" flood-opacity="0.161"/>
      <feComposite operator="in" in2="blur"/>
      <feComposite in="SourceGraphic"/>
    </filter>
    <filter id="separator-2" x="26.063" y="222.146" width="204.68" height="19" filterUnits="userSpaceOnUse">
      <feOffset dy="3" input="SourceAlpha"/>
      <feGaussianBlur stdDeviation="3" result="blur-2"/>
      <feFlood flood-color="#fff" flood-opacity="0.161"/>
      <feComposite operator="in" in2="blur-2"/>
      <feComposite in="SourceGraphic"/>
    </filter>
  </defs>
  <g id="fields" transform="translate(2987 -3850.835)">
    <rect id="Rectangle_634" data-name="Rectangle 634" width="676" height="327" transform="translate(-2987 3850.835)" fill="#0a101d"/>
    <g id="fields-2" data-name="fields" transform="translate(-2953.641 3876.177)">
      <path id="Path_1400" data-name="Path 1400" d="M180.644,27.128H5.035A5.041,5.041,0,0,1,0,22.093V5.035A5.041,5.041,0,0,1,5.035,0H10.09V.8H5.2A4.411,4.411,0,0,0,.8,5.2V21.924A4.411,4.411,0,0,0,5.2,26.331H180.477a4.411,4.411,0,0,0,4.406-4.406V5.2A4.411,4.411,0,0,0,180.477.8H35.877V0H180.644a5.041,5.041,0,0,1,5.035,5.035V22.093A5.041,5.041,0,0,1,180.644,27.128Z" transform="translate(1.888 64.831)" fill="#00a251"/>
      <path id="Path_1401" data-name="Path 1401" d="M1.014-3.546V-9.568h.663v6.022Zm3.527.057a1.779,1.779,0,0,1-.961-.258,1.69,1.69,0,0,1-.638-.736,2.621,2.621,0,0,1-.225-1.125,2.608,2.608,0,0,1,.229-1.129,1.794,1.794,0,0,1,.642-.753,1.7,1.7,0,0,1,.953-.27,1.614,1.614,0,0,1,.957.278,1.373,1.373,0,0,1,.532.794l-.1.065V-7.661h.655v4.116H5.932V-4.609l.1.049a1.373,1.373,0,0,1-.532.794A1.614,1.614,0,0,1,4.541-3.488Zm.131-.548A1.121,1.121,0,0,0,5.6-4.45a1.851,1.851,0,0,0,.327-1.174A1.817,1.817,0,0,0,5.6-6.794,1.128,1.128,0,0,0,4.672-7.2a1.146,1.146,0,0,0-.945.421,1.824,1.824,0,0,0-.34,1.174,1.772,1.772,0,0,0,.34,1.162A1.161,1.161,0,0,0,4.672-4.037Zm3.2.491V-9.568h.663v2.962l-.09-.082a1.39,1.39,0,0,1,.532-.79,1.583,1.583,0,0,1,.949-.282,1.737,1.737,0,0,1,.957.262,1.786,1.786,0,0,1,.642.736,2.516,2.516,0,0,1,.233,1.121,2.6,2.6,0,0,1-.233,1.133,1.789,1.789,0,0,1-.646.753,1.723,1.723,0,0,1-.953.266,1.6,1.6,0,0,1-.949-.278,1.373,1.373,0,0,1-.532-.794l.09-.09v1.1ZM9.8-4.037a1.126,1.126,0,0,0,.933-.421A1.854,1.854,0,0,0,11.07-5.64a1.773,1.773,0,0,0-.335-1.154A1.14,1.14,0,0,0,9.8-7.2a1.13,1.13,0,0,0-.941.413,1.837,1.837,0,0,0-.327,1.166A1.851,1.851,0,0,0,8.861-4.45,1.13,1.13,0,0,0,9.8-4.037Zm6.35,0a1.918,1.918,0,0,1-.691.4,2.6,2.6,0,0,1-.863.147,2.255,2.255,0,0,1-1.1-.254,1.724,1.724,0,0,1-.712-.732,2.439,2.439,0,0,1-.25-1.141,2.441,2.441,0,0,1,.245-1.121,1.846,1.846,0,0,1,.683-.753,1.885,1.885,0,0,1,1.011-.27,1.762,1.762,0,0,1,.941.241,1.556,1.556,0,0,1,.6.691,2.552,2.552,0,0,1,.209,1.08v.123H13.116v-.434h2.733l-.213.3a1.7,1.7,0,0,0-.282-1.1,1.036,1.036,0,0,0-.871-.385,1.137,1.137,0,0,0-.937.421,1.81,1.81,0,0,0-.34,1.166,1.8,1.8,0,0,0,.356,1.211,1.308,1.308,0,0,0,1.043.409,2.036,2.036,0,0,0,.691-.119,2.166,2.166,0,0,0,.634-.364Zm1.08.491V-9.568h.663v6.022Z" transform="translate(15.36 70.264)" fill="#f1f1f1"/>
      <path id="Path_1402" data-name="Path 1402" d="M180.644,27.128H5.035A5.041,5.041,0,0,1,0,22.093V5.035A5.041,5.041,0,0,1,5.035,0H10.09V.8H5.2A4.411,4.411,0,0,0,.8,5.2V21.924A4.411,4.411,0,0,0,5.2,26.331H180.477a4.411,4.411,0,0,0,4.406-4.406V5.2A4.411,4.411,0,0,0,180.477.8H35.877V0H180.644a5.041,5.041,0,0,1,5.035,5.035V22.093A5.041,5.041,0,0,1,180.644,27.128Z" transform="translate(212.745 64.831)" fill="#dede00"/>
      <path id="Path_1403" data-name="Path 1403" d="M1.014-3.546V-9.568h.663v6.022Zm3.527.057a1.779,1.779,0,0,1-.961-.258,1.69,1.69,0,0,1-.638-.736,2.621,2.621,0,0,1-.225-1.125,2.608,2.608,0,0,1,.229-1.129,1.794,1.794,0,0,1,.642-.753,1.7,1.7,0,0,1,.953-.27,1.614,1.614,0,0,1,.957.278,1.373,1.373,0,0,1,.532.794l-.1.065V-7.661h.655v4.116H5.932V-4.609l.1.049a1.373,1.373,0,0,1-.532.794A1.614,1.614,0,0,1,4.541-3.488Zm.131-.548A1.121,1.121,0,0,0,5.6-4.45a1.851,1.851,0,0,0,.327-1.174A1.817,1.817,0,0,0,5.6-6.794,1.128,1.128,0,0,0,4.672-7.2a1.146,1.146,0,0,0-.945.421,1.824,1.824,0,0,0-.34,1.174,1.772,1.772,0,0,0,.34,1.162A1.161,1.161,0,0,0,4.672-4.037Zm3.2.491V-9.568h.663v2.962l-.09-.082a1.39,1.39,0,0,1,.532-.79,1.583,1.583,0,0,1,.949-.282,1.737,1.737,0,0,1,.957.262,1.786,1.786,0,0,1,.642.736,2.516,2.516,0,0,1,.233,1.121,2.6,2.6,0,0,1-.233,1.133,1.789,1.789,0,0,1-.646.753,1.723,1.723,0,0,1-.953.266,1.6,1.6,0,0,1-.949-.278,1.373,1.373,0,0,1-.532-.794l.09-.09v1.1ZM9.8-4.037a1.126,1.126,0,0,0,.933-.421A1.854,1.854,0,0,0,11.07-5.64a1.773,1.773,0,0,0-.335-1.154A1.14,1.14,0,0,0,9.8-7.2a1.13,1.13,0,0,0-.941.413,1.837,1.837,0,0,0-.327,1.166A1.851,1.851,0,0,0,8.861-4.45,1.13,1.13,0,0,0,9.8-4.037Zm6.35,0a1.918,1.918,0,0,1-.691.4,2.6,2.6,0,0,1-.863.147,2.255,2.255,0,0,1-1.1-.254,1.724,1.724,0,0,1-.712-.732,2.439,2.439,0,0,1-.25-1.141,2.441,2.441,0,0,1,.245-1.121,1.846,1.846,0,0,1,.683-.753,1.885,1.885,0,0,1,1.011-.27,1.762,1.762,0,0,1,.941.241,1.556,1.556,0,0,1,.6.691,2.552,2.552,0,0,1,.209,1.08v.123H13.116v-.434h2.733l-.213.3a1.7,1.7,0,0,0-.282-1.1,1.036,1.036,0,0,0-.871-.385,1.137,1.137,0,0,0-.937.421,1.81,1.81,0,0,0-.34,1.166,1.8,1.8,0,0,0,.356,1.211,1.308,1.308,0,0,0,1.043.409,2.036,2.036,0,0,0,.691-.119,2.166,2.166,0,0,0,.634-.364Zm1.08.491V-9.568h.663v6.022Z" transform="translate(226.216 70.264)" fill="#f1f1f1"/>
      <path id="Path_1404" data-name="Path 1404" d="M1.75-3.536.13-7.668H1.186l1.162,3.2h-.2l1.17-3.2h.745l1.162,3.2H5.031l1.162-3.2h.99L5.563-3.536H4.671l-1.26-3.33h.466L2.642-3.536Zm7.618.057a1.784,1.784,0,0,1-.957-.258,1.681,1.681,0,0,1-.642-.736A2.621,2.621,0,0,1,7.543-5.6a2.656,2.656,0,0,1,.229-1.141A1.818,1.818,0,0,1,8.415-7.5a1.685,1.685,0,0,1,.953-.274,1.612,1.612,0,0,1,.912.258,1.277,1.277,0,0,1,.528.716l-.1.057v-.925h1.006v4.132H10.71v-.933l.1.033a1.24,1.24,0,0,1-.528.708A1.651,1.651,0,0,1,9.368-3.479Zm.278-.786a.944.944,0,0,0,.786-.352,1.576,1.576,0,0,0,.278-1,1.587,1.587,0,0,0-.278-1.011.948.948,0,0,0-.786-.348.967.967,0,0,0-.8.36A1.593,1.593,0,0,0,8.558-5.6a1.512,1.512,0,0,0,.286.986A.981.981,0,0,0,9.646-4.264Zm3.175.728V-6.5q0-.286-.012-.585a5.826,5.826,0,0,0-.053-.585h.966L13.836-6.6l-.115-.057a1.283,1.283,0,0,1,.483-.826,1.4,1.4,0,0,1,.851-.278,1.509,1.509,0,0,1,.229.016.859.859,0,0,1,.188.049l-.016.933a1.382,1.382,0,0,0-.54-.106,1.11,1.11,0,0,0-.6.147.935.935,0,0,0-.352.4,1.289,1.289,0,0,0-.119.561v2.234Zm3.208,0V-6.5q0-.295-.012-.589a5.818,5.818,0,0,0-.053-.581h.966l.09.818-.09.025a1.481,1.481,0,0,1,.585-.708,1.663,1.663,0,0,1,.9-.241q1.473,0,1.473,1.7v2.537H18.86v-2.5a1.093,1.093,0,0,0-.188-.708.715.715,0,0,0-.581-.225.992.992,0,0,0-.757.3,1.1,1.1,0,0,0-.282.79v2.34Zm4.926,0V-7.668h1.023v4.132Zm-.049-6.006h1.137v1.006H20.905Zm2.177,6.006V-6.5q0-.295-.012-.589a5.818,5.818,0,0,0-.053-.581h.966l.09.818-.09.025a1.481,1.481,0,0,1,.585-.708,1.663,1.663,0,0,1,.9-.241q1.473,0,1.473,1.7v2.537H25.913v-2.5a1.093,1.093,0,0,0-.188-.708.715.715,0,0,0-.581-.225.992.992,0,0,0-.757.3,1.1,1.1,0,0,0-.282.79v2.34Zm6.824,1.825A3.449,3.449,0,0,1,28.229-2.1l.164-.777a3.5,3.5,0,0,0,.741.29,3.013,3.013,0,0,0,.757.094,1.142,1.142,0,0,0,.826-.27,1.092,1.092,0,0,0,.278-.818V-4.608h.1a1.392,1.392,0,0,1-.307.479,1.527,1.527,0,0,1-.5.344,1.617,1.617,0,0,1-.646.127,1.806,1.806,0,0,1-.957-.254,1.726,1.726,0,0,1-.651-.716A2.379,2.379,0,0,1,27.8-5.713,2.379,2.379,0,0,1,28.028-6.8a1.754,1.754,0,0,1,.651-.72,1.784,1.784,0,0,1,.957-.258,1.628,1.628,0,0,1,.925.262,1.29,1.29,0,0,1,.532.7l-.1.016v-.876h1.015v4a1.9,1.9,0,0,1-.532,1.461A2.229,2.229,0,0,1,29.906-1.711Zm.008-2.741a.988.988,0,0,0,.794-.335,1.379,1.379,0,0,0,.286-.925,1.379,1.379,0,0,0-.286-.925.988.988,0,0,0-.794-.335,1.022,1.022,0,0,0-.81.335,1.354,1.354,0,0,0-.295.925,1.354,1.354,0,0,0,.295.925A1.022,1.022,0,0,0,29.914-4.452Zm5.433.916V-6.5q0-.286-.012-.585a5.826,5.826,0,0,0-.053-.585h.966l.09.818-.09.008a1.39,1.39,0,0,1,.524-.687,1.474,1.474,0,0,1,.851-.245,1.337,1.337,0,0,1,.912.29,1.448,1.448,0,0,1,.43.888l-.2-.18a1.48,1.48,0,0,1,.556-.724,1.561,1.561,0,0,1,.916-.274,1.262,1.262,0,0,1,1.039.421,2,2,0,0,1,.344,1.281v2.537H40.6v-2.5a1.222,1.222,0,0,0-.16-.7.6.6,0,0,0-.528-.225.81.81,0,0,0-.667.3,1.273,1.273,0,0,0-.241.822v2.307H37.982v-2.5a1.175,1.175,0,0,0-.168-.7.615.615,0,0,0-.528-.225.819.819,0,0,0-.675.3,1.273,1.273,0,0,0-.241.822v2.307Zm10.907-.458a2.1,2.1,0,0,1-.724.38,2.891,2.891,0,0,1-.871.135A2.475,2.475,0,0,1,43.5-3.732a1.757,1.757,0,0,1-.749-.736,2.369,2.369,0,0,1-.262-1.146,2.4,2.4,0,0,1,.254-1.125,1.9,1.9,0,0,1,.7-.761,1.958,1.958,0,0,1,1.039-.274,1.85,1.85,0,0,1,.982.25,1.659,1.659,0,0,1,.634.716,2.518,2.518,0,0,1,.225,1.1v.155H43.391L43.4-6.1h2.324l-.278.278a1.427,1.427,0,0,0-.233-.908.832.832,0,0,0-.7-.311.908.908,0,0,0-.761.348,1.592,1.592,0,0,0-.27.994,1.623,1.623,0,0,0,.3,1.084,1.15,1.15,0,0,0,.916.348,2.024,2.024,0,0,0,.659-.11,2.106,2.106,0,0,0,.6-.323Zm2.455.515a2.809,2.809,0,0,1-1.784-.515l.286-.72a2.39,2.39,0,0,0,.712.368,2.621,2.621,0,0,0,.8.123,1.09,1.09,0,0,0,.573-.123.385.385,0,0,0,.2-.344.361.361,0,0,0-.139-.3,1.284,1.284,0,0,0-.475-.192l-.687-.155a1.637,1.637,0,0,1-.847-.413,1.019,1.019,0,0,1-.282-.741,1.1,1.1,0,0,1,.213-.667,1.4,1.4,0,0,1,.6-.454,2.263,2.263,0,0,1,.892-.164,2.7,2.7,0,0,1,.851.135,2.139,2.139,0,0,1,.712.389l-.295.7A2.333,2.333,0,0,0,49.4-6.9a1.913,1.913,0,0,0-.642-.115.982.982,0,0,0-.548.131.411.411,0,0,0-.2.36.365.365,0,0,0,.119.286.939.939,0,0,0,.413.172l.7.172a1.73,1.73,0,0,1,.9.421,1.051,1.051,0,0,1,.282.765,1.049,1.049,0,0,1-.458.9A2.1,2.1,0,0,1,48.709-3.479Zm4.1,0a2.809,2.809,0,0,1-1.784-.515l.286-.72a2.39,2.39,0,0,0,.712.368,2.621,2.621,0,0,0,.8.123,1.09,1.09,0,0,0,.573-.123.385.385,0,0,0,.2-.344.361.361,0,0,0-.139-.3,1.284,1.284,0,0,0-.475-.192l-.687-.155a1.637,1.637,0,0,1-.847-.413,1.019,1.019,0,0,1-.282-.741,1.1,1.1,0,0,1,.213-.667,1.4,1.4,0,0,1,.6-.454,2.263,2.263,0,0,1,.892-.164,2.7,2.7,0,0,1,.851.135,2.139,2.139,0,0,1,.712.389l-.295.7A2.333,2.333,0,0,0,53.5-6.9a1.913,1.913,0,0,0-.642-.115.982.982,0,0,0-.548.131.411.411,0,0,0-.2.36.365.365,0,0,0,.119.286.939.939,0,0,0,.413.172l.7.172a1.73,1.73,0,0,1,.9.421,1.051,1.051,0,0,1,.282.765,1.049,1.049,0,0,1-.458.9A2.1,2.1,0,0,1,52.809-3.479Zm4.189,0a1.784,1.784,0,0,1-.957-.258,1.681,1.681,0,0,1-.642-.736A2.621,2.621,0,0,1,55.174-5.6,2.656,2.656,0,0,1,55.4-6.739a1.818,1.818,0,0,1,.642-.761A1.684,1.684,0,0,1,57-7.775a1.612,1.612,0,0,1,.912.258,1.277,1.277,0,0,1,.528.716l-.1.057v-.925h1.006v4.132H58.34v-.933l.1.033a1.24,1.24,0,0,1-.528.708A1.651,1.651,0,0,1,57-3.479Zm.278-.786a.944.944,0,0,0,.786-.352,1.576,1.576,0,0,0,.278-1,1.587,1.587,0,0,0-.278-1.011.948.948,0,0,0-.786-.348.967.967,0,0,0-.8.36A1.593,1.593,0,0,0,56.188-5.6a1.512,1.512,0,0,0,.286.986A.981.981,0,0,0,57.277-4.264ZM62.35-1.711A3.449,3.449,0,0,1,60.672-2.1l.164-.777a3.5,3.5,0,0,0,.741.29,3.013,3.013,0,0,0,.757.094,1.142,1.142,0,0,0,.826-.27,1.092,1.092,0,0,0,.278-.818V-4.608h.1a1.392,1.392,0,0,1-.307.479,1.527,1.527,0,0,1-.5.344,1.617,1.617,0,0,1-.646.127,1.806,1.806,0,0,1-.957-.254,1.726,1.726,0,0,1-.651-.716,2.379,2.379,0,0,1-.233-1.084A2.379,2.379,0,0,1,60.472-6.8a1.754,1.754,0,0,1,.651-.72,1.784,1.784,0,0,1,.957-.258A1.628,1.628,0,0,1,63-7.513a1.29,1.29,0,0,1,.532.7l-.1.016v-.876h1.015v4a1.9,1.9,0,0,1-.532,1.461A2.229,2.229,0,0,1,62.35-1.711Zm.008-2.741a.988.988,0,0,0,.794-.335,1.379,1.379,0,0,0,.286-.925,1.379,1.379,0,0,0-.286-.925.988.988,0,0,0-.794-.335,1.022,1.022,0,0,0-.81.335,1.354,1.354,0,0,0-.295.925,1.354,1.354,0,0,0,.295.925A1.022,1.022,0,0,0,62.358-4.452Zm6.742.458a2.1,2.1,0,0,1-.724.38,2.891,2.891,0,0,1-.871.135,2.475,2.475,0,0,1-1.158-.254,1.757,1.757,0,0,1-.749-.736,2.369,2.369,0,0,1-.262-1.146,2.4,2.4,0,0,1,.254-1.125,1.9,1.9,0,0,1,.7-.761,1.958,1.958,0,0,1,1.039-.274,1.85,1.85,0,0,1,.982.25,1.659,1.659,0,0,1,.634.716,2.519,2.519,0,0,1,.225,1.1v.155H66.236l.008-.548h2.324l-.278.278a1.427,1.427,0,0,0-.233-.908.832.832,0,0,0-.7-.311.908.908,0,0,0-.761.348,1.592,1.592,0,0,0-.27.994,1.623,1.623,0,0,0,.3,1.084,1.15,1.15,0,0,0,.916.348,2.024,2.024,0,0,0,.659-.11,2.106,2.106,0,0,0,.6-.323Z" transform="translate(225.285 106.761)" fill="#dede00"/>
      <path id="Path_1405" data-name="Path 1405" d="M180.644,27.128H5.035A5.041,5.041,0,0,1,0,22.093V5.035A5.041,5.041,0,0,1,5.035,0H10.09V.8H5.2A4.411,4.411,0,0,0,.8,5.2V21.924A4.411,4.411,0,0,0,5.2,26.331H180.477a4.411,4.411,0,0,0,4.406-4.406V5.2A4.411,4.411,0,0,0,180.477.8H35.877V0H180.644a5.041,5.041,0,0,1,5.035,5.035V22.093A5.041,5.041,0,0,1,180.644,27.128Z" transform="translate(423.602 64.831)" fill="#ed4d29"/>
      <path id="Path_1406" data-name="Path 1406" d="M1.014-3.546V-9.568h.663v6.022Zm3.527.057a1.779,1.779,0,0,1-.961-.258,1.69,1.69,0,0,1-.638-.736,2.621,2.621,0,0,1-.225-1.125,2.608,2.608,0,0,1,.229-1.129,1.794,1.794,0,0,1,.642-.753,1.7,1.7,0,0,1,.953-.27,1.614,1.614,0,0,1,.957.278,1.373,1.373,0,0,1,.532.794l-.1.065V-7.661h.655v4.116H5.932V-4.609l.1.049a1.373,1.373,0,0,1-.532.794A1.614,1.614,0,0,1,4.541-3.488Zm.131-.548A1.121,1.121,0,0,0,5.6-4.45a1.851,1.851,0,0,0,.327-1.174A1.817,1.817,0,0,0,5.6-6.794,1.128,1.128,0,0,0,4.672-7.2a1.146,1.146,0,0,0-.945.421,1.824,1.824,0,0,0-.34,1.174,1.772,1.772,0,0,0,.34,1.162A1.161,1.161,0,0,0,4.672-4.037Zm3.2.491V-9.568h.663v2.962l-.09-.082a1.39,1.39,0,0,1,.532-.79,1.583,1.583,0,0,1,.949-.282,1.737,1.737,0,0,1,.957.262,1.786,1.786,0,0,1,.642.736,2.516,2.516,0,0,1,.233,1.121,2.6,2.6,0,0,1-.233,1.133,1.789,1.789,0,0,1-.646.753,1.723,1.723,0,0,1-.953.266,1.6,1.6,0,0,1-.949-.278,1.373,1.373,0,0,1-.532-.794l.09-.09v1.1ZM9.8-4.037a1.126,1.126,0,0,0,.933-.421A1.854,1.854,0,0,0,11.07-5.64a1.773,1.773,0,0,0-.335-1.154A1.14,1.14,0,0,0,9.8-7.2a1.13,1.13,0,0,0-.941.413,1.837,1.837,0,0,0-.327,1.166A1.851,1.851,0,0,0,8.861-4.45,1.13,1.13,0,0,0,9.8-4.037Zm6.35,0a1.918,1.918,0,0,1-.691.4,2.6,2.6,0,0,1-.863.147,2.255,2.255,0,0,1-1.1-.254,1.724,1.724,0,0,1-.712-.732,2.439,2.439,0,0,1-.25-1.141,2.441,2.441,0,0,1,.245-1.121,1.846,1.846,0,0,1,.683-.753,1.885,1.885,0,0,1,1.011-.27,1.762,1.762,0,0,1,.941.241,1.556,1.556,0,0,1,.6.691,2.552,2.552,0,0,1,.209,1.08v.123H13.116v-.434h2.733l-.213.3a1.7,1.7,0,0,0-.282-1.1,1.036,1.036,0,0,0-.871-.385,1.137,1.137,0,0,0-.937.421,1.81,1.81,0,0,0-.34,1.166,1.8,1.8,0,0,0,.356,1.211,1.308,1.308,0,0,0,1.043.409,2.036,2.036,0,0,0,.691-.119,2.166,2.166,0,0,0,.634-.364Zm1.08.491V-9.568h.663v6.022Z" transform="translate(437.073 70.264)" fill="#f1f1f1"/>
      <path id="Path_1407" data-name="Path 1407" d="M4.3-2.954a2.1,2.1,0,0,1-.724.38,2.891,2.891,0,0,1-.871.135,2.475,2.475,0,0,1-1.158-.254,1.757,1.757,0,0,1-.749-.736A2.369,2.369,0,0,1,.533-4.574,2.4,2.4,0,0,1,.787-5.7a1.9,1.9,0,0,1,.7-.761A1.958,1.958,0,0,1,2.53-6.734a1.85,1.85,0,0,1,.982.25,1.659,1.659,0,0,1,.634.716,2.518,2.518,0,0,1,.225,1.1v.155H1.433l.008-.548H3.765l-.278.278a1.427,1.427,0,0,0-.233-.908A.832.832,0,0,0,2.554-6a.908.908,0,0,0-.761.348,1.592,1.592,0,0,0-.27.994,1.623,1.623,0,0,0,.3,1.084,1.15,1.15,0,0,0,.916.348,2.024,2.024,0,0,0,.659-.11A2.106,2.106,0,0,0,4-3.657ZM5.23-2.5V-5.458q0-.286-.012-.585a5.826,5.826,0,0,0-.053-.585H6.13l.115,1.064L6.13-5.621a1.283,1.283,0,0,1,.483-.826,1.4,1.4,0,0,1,.851-.278,1.509,1.509,0,0,1,.229.016.859.859,0,0,1,.188.049l-.016.933a1.382,1.382,0,0,0-.54-.106,1.11,1.11,0,0,0-.6.147.935.935,0,0,0-.352.4,1.289,1.289,0,0,0-.119.561V-2.5Zm3.208,0V-5.458q0-.286-.012-.585a5.827,5.827,0,0,0-.053-.585h.966l.115,1.064-.115-.057a1.283,1.283,0,0,1,.483-.826,1.4,1.4,0,0,1,.851-.278,1.509,1.509,0,0,1,.229.016.859.859,0,0,1,.188.049l-.016.933a1.382,1.382,0,0,0-.54-.106,1.11,1.11,0,0,0-.6.147.935.935,0,0,0-.352.4,1.289,1.289,0,0,0-.119.561V-2.5Zm5.008.057A2.262,2.262,0,0,1,12.328-2.7a1.788,1.788,0,0,1-.724-.741,2.407,2.407,0,0,1-.254-1.141A2.438,2.438,0,0,1,11.6-5.723a1.776,1.776,0,0,1,.724-.749,2.262,2.262,0,0,1,1.117-.262,2.227,2.227,0,0,1,1.1.262,1.8,1.8,0,0,1,.728.749,2.406,2.406,0,0,1,.258,1.141,2.375,2.375,0,0,1-.258,1.141,1.814,1.814,0,0,1-.728.741A2.227,2.227,0,0,1,13.445-2.438Zm0-.786a.946.946,0,0,0,.781-.34A1.6,1.6,0,0,0,14.5-4.582a1.584,1.584,0,0,0-.274-1.011.946.946,0,0,0-.781-.34.98.98,0,0,0-.8.34,1.55,1.55,0,0,0-.282,1.011,1.582,1.582,0,0,0,.278,1.019A.977.977,0,0,0,13.445-3.224Zm2.962.728V-5.458q0-.286-.012-.585a5.826,5.826,0,0,0-.053-.585h.966l.115,1.064-.115-.057a1.283,1.283,0,0,1,.483-.826,1.4,1.4,0,0,1,.851-.278,1.509,1.509,0,0,1,.229.016.859.859,0,0,1,.188.049l-.016.933a1.382,1.382,0,0,0-.54-.106,1.11,1.11,0,0,0-.6.147.935.935,0,0,0-.352.4,1.289,1.289,0,0,0-.119.561V-2.5Zm5.45,0V-5.458q0-.286-.012-.585a5.826,5.826,0,0,0-.053-.585h.966l.09.818-.09.008a1.39,1.39,0,0,1,.524-.687,1.474,1.474,0,0,1,.851-.245,1.337,1.337,0,0,1,.912.29,1.448,1.448,0,0,1,.43.888l-.2-.18a1.48,1.48,0,0,1,.556-.724,1.561,1.561,0,0,1,.916-.274,1.262,1.262,0,0,1,1.039.421,2,2,0,0,1,.344,1.281V-2.5H27.11V-5a1.222,1.222,0,0,0-.16-.7.6.6,0,0,0-.528-.225.81.81,0,0,0-.667.3,1.273,1.273,0,0,0-.241.822V-2.5H24.491V-5a1.175,1.175,0,0,0-.168-.7.615.615,0,0,0-.528-.225.819.819,0,0,0-.675.3,1.273,1.273,0,0,0-.241.822V-2.5Zm10.907-.458a2.1,2.1,0,0,1-.724.38,2.891,2.891,0,0,1-.871.135,2.475,2.475,0,0,1-1.158-.254,1.757,1.757,0,0,1-.749-.736A2.369,2.369,0,0,1,29-4.574,2.4,2.4,0,0,1,29.254-5.7a1.9,1.9,0,0,1,.7-.761A1.958,1.958,0,0,1,31-6.734a1.85,1.85,0,0,1,.982.25,1.659,1.659,0,0,1,.634.716,2.518,2.518,0,0,1,.225,1.1v.155H29.9l.008-.548h2.324l-.278.278a1.427,1.427,0,0,0-.233-.908.832.832,0,0,0-.7-.311.908.908,0,0,0-.761.348,1.592,1.592,0,0,0-.27.994,1.623,1.623,0,0,0,.3,1.084,1.15,1.15,0,0,0,.916.348,2.024,2.024,0,0,0,.659-.11,2.106,2.106,0,0,0,.6-.323Zm2.455.515a2.809,2.809,0,0,1-1.784-.515l.286-.72a2.39,2.39,0,0,0,.712.368,2.621,2.621,0,0,0,.8.123,1.09,1.09,0,0,0,.573-.123.385.385,0,0,0,.2-.344.361.361,0,0,0-.139-.3,1.284,1.284,0,0,0-.475-.192L34.7-4.3a1.637,1.637,0,0,1-.847-.413,1.019,1.019,0,0,1-.282-.741,1.1,1.1,0,0,1,.213-.667,1.4,1.4,0,0,1,.6-.454,2.263,2.263,0,0,1,.892-.164,2.7,2.7,0,0,1,.851.135,2.139,2.139,0,0,1,.712.389l-.295.7a2.333,2.333,0,0,0-.634-.352,1.913,1.913,0,0,0-.642-.115.982.982,0,0,0-.548.131.411.411,0,0,0-.2.36.365.365,0,0,0,.119.286.939.939,0,0,0,.413.172l.7.172a1.73,1.73,0,0,1,.9.421,1.051,1.051,0,0,1,.282.765,1.049,1.049,0,0,1-.458.9A2.1,2.1,0,0,1,35.219-2.438Zm4.1,0a2.809,2.809,0,0,1-1.784-.515l.286-.72a2.39,2.39,0,0,0,.712.368,2.621,2.621,0,0,0,.8.123,1.09,1.09,0,0,0,.573-.123.385.385,0,0,0,.2-.344.361.361,0,0,0-.139-.3,1.284,1.284,0,0,0-.475-.192L38.8-4.3a1.637,1.637,0,0,1-.847-.413,1.019,1.019,0,0,1-.282-.741,1.1,1.1,0,0,1,.213-.667,1.4,1.4,0,0,1,.6-.454,2.263,2.263,0,0,1,.892-.164,2.7,2.7,0,0,1,.851.135,2.139,2.139,0,0,1,.712.389l-.295.7a2.333,2.333,0,0,0-.634-.352,1.913,1.913,0,0,0-.642-.115.982.982,0,0,0-.548.131.411.411,0,0,0-.2.36.365.365,0,0,0,.119.286.939.939,0,0,0,.413.172l.7.172a1.73,1.73,0,0,1,.9.421,1.051,1.051,0,0,1,.282.765,1.049,1.049,0,0,1-.458.9A2.1,2.1,0,0,1,39.318-2.438Zm4.189,0A1.784,1.784,0,0,1,42.55-2.7a1.681,1.681,0,0,1-.642-.736,2.621,2.621,0,0,1-.225-1.125A2.656,2.656,0,0,1,41.912-5.7a1.818,1.818,0,0,1,.642-.761,1.684,1.684,0,0,1,.953-.274,1.612,1.612,0,0,1,.912.258,1.277,1.277,0,0,1,.528.716l-.1.057v-.925h1.006V-2.5H44.849v-.933l.1.033a1.24,1.24,0,0,1-.528.708A1.652,1.652,0,0,1,43.507-2.438Zm.278-.786a.944.944,0,0,0,.786-.352,1.576,1.576,0,0,0,.278-1,1.587,1.587,0,0,0-.278-1.011.948.948,0,0,0-.786-.348.967.967,0,0,0-.8.36A1.593,1.593,0,0,0,42.7-4.557a1.512,1.512,0,0,0,.286.986A.981.981,0,0,0,43.786-3.224ZM48.859-.671a3.449,3.449,0,0,1-1.677-.393l.164-.777a3.5,3.5,0,0,0,.741.29,3.013,3.013,0,0,0,.757.094,1.142,1.142,0,0,0,.826-.27,1.092,1.092,0,0,0,.278-.818V-3.567h.1a1.392,1.392,0,0,1-.307.479,1.527,1.527,0,0,1-.5.344,1.617,1.617,0,0,1-.646.127,1.806,1.806,0,0,1-.957-.254,1.726,1.726,0,0,1-.651-.716,2.379,2.379,0,0,1-.233-1.084,2.379,2.379,0,0,1,.233-1.084,1.754,1.754,0,0,1,.651-.72,1.784,1.784,0,0,1,.957-.258,1.628,1.628,0,0,1,.925.262,1.29,1.29,0,0,1,.532.7l-.1.016v-.876h1.015v4a1.9,1.9,0,0,1-.532,1.461A2.229,2.229,0,0,1,48.859-.671Zm.008-2.741a.988.988,0,0,0,.794-.335,1.379,1.379,0,0,0,.286-.925,1.379,1.379,0,0,0-.286-.925.988.988,0,0,0-.794-.335,1.022,1.022,0,0,0-.81.335,1.354,1.354,0,0,0-.295.925,1.354,1.354,0,0,0,.295.925A1.022,1.022,0,0,0,48.867-3.412Zm6.742.458a2.1,2.1,0,0,1-.724.38,2.891,2.891,0,0,1-.871.135,2.475,2.475,0,0,1-1.158-.254,1.757,1.757,0,0,1-.749-.736,2.369,2.369,0,0,1-.262-1.146A2.4,2.4,0,0,1,52.1-5.7a1.9,1.9,0,0,1,.7-.761,1.958,1.958,0,0,1,1.039-.274,1.85,1.85,0,0,1,.982.25,1.659,1.659,0,0,1,.634.716,2.518,2.518,0,0,1,.225,1.1v.155H52.745l.008-.548h2.324l-.278.278a1.427,1.427,0,0,0-.233-.908.832.832,0,0,0-.7-.311.908.908,0,0,0-.761.348,1.592,1.592,0,0,0-.27.994,1.623,1.623,0,0,0,.3,1.084,1.15,1.15,0,0,0,.916.348,2.024,2.024,0,0,0,.659-.11,2.106,2.106,0,0,0,.6-.323Z" transform="translate(435.992 105.721)" fill="#ed4d29"/>
      <path id="Path_1420" data-name="Path 1420" d="M4.936-4.3v-.835a2.685,2.685,0,0,1-.706.653,1.726,1.726,0,0,1-.952.268,2.538,2.538,0,0,1-.92-.15,1.865,1.865,0,0,1-.674-.449A2.308,2.308,0,0,1,1.02-6.533V-9.647h.8v3.092A1.637,1.637,0,0,0,2.24-5.377a1.424,1.424,0,0,0,1.081.439,1.6,1.6,0,0,0,1.145-.449,1.575,1.575,0,0,0,.471-1.177V-9.647h.8V-4.3Zm5.339-3.916q-.107-.835-1.343-.835T7.7-8.277a.54.54,0,0,0,.262.487,2.4,2.4,0,0,0,.658.273q.4.107.861.2a4.416,4.416,0,0,1,.861.257A1.826,1.826,0,0,1,11-6.608a1.134,1.134,0,0,1,.262.792,1.366,1.366,0,0,1-.589,1.193,2.735,2.735,0,0,1-1.594.412,2.545,2.545,0,0,1-1.7-.535,1.638,1.638,0,0,1-.621-1.231H7.59a1.115,1.115,0,0,0,.835,1,1.866,1.866,0,0,0,.551.086,3.77,3.77,0,0,0,.508-.032,2.077,2.077,0,0,0,.46-.118.711.711,0,0,0,.514-.7.576.576,0,0,0-.262-.508,2.3,2.3,0,0,0-.658-.289q-.4-.112-.861-.2a4.675,4.675,0,0,1-.861-.251,1.837,1.837,0,0,1-.658-.439,1.079,1.079,0,0,1-.262-.77,1.334,1.334,0,0,1,.53-1.129,2.572,2.572,0,0,1,1.568-.4,2.356,2.356,0,0,1,1.552.471,1.546,1.546,0,0,1,.546,1.049Zm4.4,3.274a1.619,1.619,0,0,0,1.552-.9H17.1A2.582,2.582,0,0,1,16.22-4.66a2.542,2.542,0,0,1-1.557.449,2.589,2.589,0,0,1-1.969-.8,2.739,2.739,0,0,1-.738-1.958,2.786,2.786,0,0,1,.706-1.958,2.542,2.542,0,0,1,1.947-.8,2.542,2.542,0,0,1,1.947.8,2.786,2.786,0,0,1,.706,1.958v.321H12.78a1.942,1.942,0,0,0,.589,1.22A1.81,1.81,0,0,0,14.673-4.938ZM14.609-9a1.77,1.77,0,0,0-1.241.46A1.9,1.9,0,0,0,12.79-7.4h3.638a1.9,1.9,0,0,0-.578-1.145A1.77,1.77,0,0,0,14.609-9Zm6.463-.728v.8h-.1a1.714,1.714,0,0,0-1.412.7,2.51,2.51,0,0,0-.514,1.584V-4.3h-.8v-5.35h.8V-8.33a1.955,1.955,0,0,1,1.113-1.231,1.948,1.948,0,0,1,.856-.171Zm3.146.086h.8V-4.3h-.8Zm.835-1.947v1.049h-.867v-1.049Zm2.161,1.947v.835a2.685,2.685,0,0,1,.706-.653,1.726,1.726,0,0,1,.952-.268,2.539,2.539,0,0,1,.92.15,1.865,1.865,0,0,1,.674.449A2.308,2.308,0,0,1,31.13-7.41V-4.3h-.8V-7.389a1.637,1.637,0,0,0-.417-1.177A1.424,1.424,0,0,0,28.83-9a1.6,1.6,0,0,0-1.145.449,1.575,1.575,0,0,0-.471,1.177V-4.3h-.8v-5.35Zm6.056.856a2.165,2.165,0,0,1,1.915-.942,2.392,2.392,0,0,1,1.873.8,2.81,2.81,0,0,1,.717,1.958,2.81,2.81,0,0,1-.717,1.958,2.454,2.454,0,0,1-1.926.8,2.123,2.123,0,0,1-1.862-.952v2.985h-.8V-9.647h.8ZM35.079-9a1.694,1.694,0,0,0-1.37.6,2.138,2.138,0,0,0-.482,1.434,2.138,2.138,0,0,0,.482,1.434,1.694,1.694,0,0,0,1.37.6,1.778,1.778,0,0,0,1.391-.6,2.081,2.081,0,0,0,.5-1.434,2.081,2.081,0,0,0-.5-1.434A1.778,1.778,0,0,0,35.079-9ZM42.687-4.3v-.835a2.685,2.685,0,0,1-.706.653,1.726,1.726,0,0,1-.952.268,2.538,2.538,0,0,1-.92-.15,1.865,1.865,0,0,1-.674-.449,2.308,2.308,0,0,1-.663-1.723V-9.647h.8v3.092a1.637,1.637,0,0,0,.417,1.177,1.424,1.424,0,0,0,1.081.439,1.6,1.6,0,0,0,1.145-.449,1.575,1.575,0,0,0,.471-1.177V-9.647h.8V-4.3Zm2.771,0V-8.94H44.366v-.706h1.091v-1.915h.8v1.915h1.231v.706H46.26V-4.3Z" transform="translate(14.099 86.751)" fill="#f1f1f1"/>
      <path id="Path_1408" data-name="Path 1408" d="M4.936-4.3v-.835a2.685,2.685,0,0,1-.706.653,1.726,1.726,0,0,1-.952.268,2.538,2.538,0,0,1-.92-.15,1.865,1.865,0,0,1-.674-.449A2.308,2.308,0,0,1,1.02-6.533V-9.647h.8v3.092A1.637,1.637,0,0,0,2.24-5.377a1.424,1.424,0,0,0,1.081.439,1.6,1.6,0,0,0,1.145-.449,1.575,1.575,0,0,0,.471-1.177V-9.647h.8V-4.3Zm5.339-3.916q-.107-.835-1.343-.835T7.7-8.277a.54.54,0,0,0,.262.487,2.4,2.4,0,0,0,.658.273q.4.107.861.2a4.416,4.416,0,0,1,.861.257A1.826,1.826,0,0,1,11-6.608a1.134,1.134,0,0,1,.262.792,1.366,1.366,0,0,1-.589,1.193,2.735,2.735,0,0,1-1.594.412,2.545,2.545,0,0,1-1.7-.535,1.638,1.638,0,0,1-.621-1.231H7.59a1.115,1.115,0,0,0,.835,1,1.866,1.866,0,0,0,.551.086,3.77,3.77,0,0,0,.508-.032,2.077,2.077,0,0,0,.46-.118.711.711,0,0,0,.514-.7.576.576,0,0,0-.262-.508,2.3,2.3,0,0,0-.658-.289q-.4-.112-.861-.2a4.675,4.675,0,0,1-.861-.251,1.837,1.837,0,0,1-.658-.439,1.079,1.079,0,0,1-.262-.77,1.334,1.334,0,0,1,.53-1.129,2.572,2.572,0,0,1,1.568-.4,2.356,2.356,0,0,1,1.552.471,1.546,1.546,0,0,1,.546,1.049Zm4.4,3.274a1.619,1.619,0,0,0,1.552-.9H17.1A2.582,2.582,0,0,1,16.22-4.66a2.542,2.542,0,0,1-1.557.449,2.589,2.589,0,0,1-1.969-.8,2.739,2.739,0,0,1-.738-1.958,2.786,2.786,0,0,1,.706-1.958,2.542,2.542,0,0,1,1.947-.8,2.542,2.542,0,0,1,1.947.8,2.786,2.786,0,0,1,.706,1.958v.321H12.78a1.942,1.942,0,0,0,.589,1.22A1.81,1.81,0,0,0,14.673-4.938ZM14.609-9a1.77,1.77,0,0,0-1.241.46A1.9,1.9,0,0,0,12.79-7.4h3.638a1.9,1.9,0,0,0-.578-1.145A1.77,1.77,0,0,0,14.609-9Zm6.463-.728v.8h-.1a1.714,1.714,0,0,0-1.412.7,2.51,2.51,0,0,0-.514,1.584V-4.3h-.8v-5.35h.8V-8.33a1.955,1.955,0,0,1,1.113-1.231,1.948,1.948,0,0,1,.856-.171Zm3.146.086h.8V-4.3h-.8Zm.835-1.947v1.049h-.867v-1.049Zm2.161,1.947v.835a2.685,2.685,0,0,1,.706-.653,1.726,1.726,0,0,1,.952-.268,2.539,2.539,0,0,1,.92.15,1.865,1.865,0,0,1,.674.449A2.308,2.308,0,0,1,31.13-7.41V-4.3h-.8V-7.389a1.637,1.637,0,0,0-.417-1.177A1.424,1.424,0,0,0,28.83-9a1.6,1.6,0,0,0-1.145.449,1.575,1.575,0,0,0-.471,1.177V-4.3h-.8v-5.35Zm6.056.856a2.165,2.165,0,0,1,1.915-.942,2.392,2.392,0,0,1,1.873.8,2.81,2.81,0,0,1,.717,1.958,2.81,2.81,0,0,1-.717,1.958,2.454,2.454,0,0,1-1.926.8,2.123,2.123,0,0,1-1.862-.952v2.985h-.8V-9.647h.8ZM35.079-9a1.694,1.694,0,0,0-1.37.6,2.138,2.138,0,0,0-.482,1.434,2.138,2.138,0,0,0,.482,1.434,1.694,1.694,0,0,0,1.37.6,1.778,1.778,0,0,0,1.391-.6,2.081,2.081,0,0,0,.5-1.434,2.081,2.081,0,0,0-.5-1.434A1.778,1.778,0,0,0,35.079-9ZM42.687-4.3v-.835a2.685,2.685,0,0,1-.706.653,1.726,1.726,0,0,1-.952.268,2.538,2.538,0,0,1-.92-.15,1.865,1.865,0,0,1-.674-.449,2.308,2.308,0,0,1-.663-1.723V-9.647h.8v3.092a1.637,1.637,0,0,0,.417,1.177,1.424,1.424,0,0,0,1.081.439,1.6,1.6,0,0,0,1.145-.449,1.575,1.575,0,0,0,.471-1.177V-9.647h.8V-4.3Zm2.771,0V-8.94H44.366v-.706h1.091v-1.915h.8v1.915h1.231v.706H46.26V-4.3Z" transform="translate(224.955 86.751)" fill="#f1f1f1"/>
      <path id="Path_1409" data-name="Path 1409" d="M4.936-4.3v-.835a2.685,2.685,0,0,1-.706.653,1.726,1.726,0,0,1-.952.268,2.538,2.538,0,0,1-.92-.15,1.865,1.865,0,0,1-.674-.449A2.308,2.308,0,0,1,1.02-6.533V-9.647h.8v3.092A1.637,1.637,0,0,0,2.24-5.377a1.424,1.424,0,0,0,1.081.439,1.6,1.6,0,0,0,1.145-.449,1.575,1.575,0,0,0,.471-1.177V-9.647h.8V-4.3Zm5.339-3.916q-.107-.835-1.343-.835T7.7-8.277a.54.54,0,0,0,.262.487,2.4,2.4,0,0,0,.658.273q.4.107.861.2a4.416,4.416,0,0,1,.861.257A1.826,1.826,0,0,1,11-6.608a1.134,1.134,0,0,1,.262.792,1.366,1.366,0,0,1-.589,1.193,2.735,2.735,0,0,1-1.594.412,2.545,2.545,0,0,1-1.7-.535,1.638,1.638,0,0,1-.621-1.231H7.59a1.115,1.115,0,0,0,.835,1,1.866,1.866,0,0,0,.551.086,3.77,3.77,0,0,0,.508-.032,2.077,2.077,0,0,0,.46-.118.711.711,0,0,0,.514-.7.576.576,0,0,0-.262-.508,2.3,2.3,0,0,0-.658-.289q-.4-.112-.861-.2a4.675,4.675,0,0,1-.861-.251,1.837,1.837,0,0,1-.658-.439,1.079,1.079,0,0,1-.262-.77,1.334,1.334,0,0,1,.53-1.129,2.572,2.572,0,0,1,1.568-.4,2.356,2.356,0,0,1,1.552.471,1.546,1.546,0,0,1,.546,1.049Zm4.4,3.274a1.619,1.619,0,0,0,1.552-.9H17.1A2.582,2.582,0,0,1,16.22-4.66a2.542,2.542,0,0,1-1.557.449,2.589,2.589,0,0,1-1.969-.8,2.739,2.739,0,0,1-.738-1.958,2.786,2.786,0,0,1,.706-1.958,2.542,2.542,0,0,1,1.947-.8,2.542,2.542,0,0,1,1.947.8,2.786,2.786,0,0,1,.706,1.958v.321H12.78a1.942,1.942,0,0,0,.589,1.22A1.81,1.81,0,0,0,14.673-4.938ZM14.609-9a1.77,1.77,0,0,0-1.241.46A1.9,1.9,0,0,0,12.79-7.4h3.638a1.9,1.9,0,0,0-.578-1.145A1.77,1.77,0,0,0,14.609-9Zm6.463-.728v.8h-.1a1.714,1.714,0,0,0-1.412.7,2.51,2.51,0,0,0-.514,1.584V-4.3h-.8v-5.35h.8V-8.33a1.955,1.955,0,0,1,1.113-1.231,1.948,1.948,0,0,1,.856-.171Zm3.146.086h.8V-4.3h-.8Zm.835-1.947v1.049h-.867v-1.049Zm2.161,1.947v.835a2.685,2.685,0,0,1,.706-.653,1.726,1.726,0,0,1,.952-.268,2.539,2.539,0,0,1,.92.15,1.865,1.865,0,0,1,.674.449A2.308,2.308,0,0,1,31.13-7.41V-4.3h-.8V-7.389a1.637,1.637,0,0,0-.417-1.177A1.424,1.424,0,0,0,28.83-9a1.6,1.6,0,0,0-1.145.449,1.575,1.575,0,0,0-.471,1.177V-4.3h-.8v-5.35Zm6.056.856a2.165,2.165,0,0,1,1.915-.942,2.392,2.392,0,0,1,1.873.8,2.81,2.81,0,0,1,.717,1.958,2.81,2.81,0,0,1-.717,1.958,2.454,2.454,0,0,1-1.926.8,2.123,2.123,0,0,1-1.862-.952v2.985h-.8V-9.647h.8ZM35.079-9a1.694,1.694,0,0,0-1.37.6,2.138,2.138,0,0,0-.482,1.434,2.138,2.138,0,0,0,.482,1.434,1.694,1.694,0,0,0,1.37.6,1.778,1.778,0,0,0,1.391-.6,2.081,2.081,0,0,0,.5-1.434,2.081,2.081,0,0,0-.5-1.434A1.778,1.778,0,0,0,35.079-9ZM42.687-4.3v-.835a2.685,2.685,0,0,1-.706.653,1.726,1.726,0,0,1-.952.268,2.538,2.538,0,0,1-.92-.15,1.865,1.865,0,0,1-.674-.449,2.308,2.308,0,0,1-.663-1.723V-9.647h.8v3.092a1.637,1.637,0,0,0,.417,1.177,1.424,1.424,0,0,0,1.081.439,1.6,1.6,0,0,0,1.145-.449,1.575,1.575,0,0,0,.471-1.177V-9.647h.8V-4.3Zm2.771,0V-8.94H44.366v-.706h1.091v-1.915h.8v1.915h1.231v.706H46.26V-4.3Z" transform="translate(435.812 86.751)" fill="#f1f1f1"/>
      <path id="Path_1410" data-name="Path 1410" d="M180.644,27.128H5.035A5.041,5.041,0,0,1,0,22.093V5.035A5.041,5.041,0,0,1,5.035,0H10.09V.8H5.2A4.411,4.411,0,0,0,.8,5.2V21.924A4.411,4.411,0,0,0,5.2,26.331H180.477a4.411,4.411,0,0,0,4.406-4.406V5.2A4.411,4.411,0,0,0,180.477.8H35.877V0H180.644a5.041,5.041,0,0,1,5.035,5.035V22.093A5.041,5.041,0,0,1,180.644,27.128Z" transform="translate(0 6.294)" fill="#d3d5d9"/>
      <path id="Path_1411" data-name="Path 1411" d="M1.014-3.546V-9.568h.663v6.022Zm3.527.057a1.779,1.779,0,0,1-.961-.258,1.69,1.69,0,0,1-.638-.736,2.621,2.621,0,0,1-.225-1.125,2.608,2.608,0,0,1,.229-1.129,1.794,1.794,0,0,1,.642-.753,1.7,1.7,0,0,1,.953-.27,1.614,1.614,0,0,1,.957.278,1.373,1.373,0,0,1,.532.794l-.1.065V-7.661h.655v4.116H5.932V-4.609l.1.049a1.373,1.373,0,0,1-.532.794A1.614,1.614,0,0,1,4.541-3.488Zm.131-.548A1.121,1.121,0,0,0,5.6-4.45a1.851,1.851,0,0,0,.327-1.174A1.817,1.817,0,0,0,5.6-6.794,1.128,1.128,0,0,0,4.672-7.2a1.146,1.146,0,0,0-.945.421,1.824,1.824,0,0,0-.34,1.174,1.772,1.772,0,0,0,.34,1.162A1.161,1.161,0,0,0,4.672-4.037Zm3.2.491V-9.568h.663v2.962l-.09-.082a1.39,1.39,0,0,1,.532-.79,1.583,1.583,0,0,1,.949-.282,1.737,1.737,0,0,1,.957.262,1.786,1.786,0,0,1,.642.736,2.516,2.516,0,0,1,.233,1.121,2.6,2.6,0,0,1-.233,1.133,1.789,1.789,0,0,1-.646.753,1.723,1.723,0,0,1-.953.266,1.6,1.6,0,0,1-.949-.278,1.373,1.373,0,0,1-.532-.794l.09-.09v1.1ZM9.8-4.037a1.126,1.126,0,0,0,.933-.421A1.854,1.854,0,0,0,11.07-5.64a1.773,1.773,0,0,0-.335-1.154A1.14,1.14,0,0,0,9.8-7.2a1.13,1.13,0,0,0-.941.413,1.837,1.837,0,0,0-.327,1.166A1.851,1.851,0,0,0,8.861-4.45,1.13,1.13,0,0,0,9.8-4.037Zm6.35,0a1.918,1.918,0,0,1-.691.4,2.6,2.6,0,0,1-.863.147,2.255,2.255,0,0,1-1.1-.254,1.724,1.724,0,0,1-.712-.732,2.439,2.439,0,0,1-.25-1.141,2.441,2.441,0,0,1,.245-1.121,1.846,1.846,0,0,1,.683-.753,1.885,1.885,0,0,1,1.011-.27,1.762,1.762,0,0,1,.941.241,1.556,1.556,0,0,1,.6.691,2.552,2.552,0,0,1,.209,1.08v.123H13.116v-.434h2.733l-.213.3a1.7,1.7,0,0,0-.282-1.1,1.036,1.036,0,0,0-.871-.385,1.137,1.137,0,0,0-.937.421,1.81,1.81,0,0,0-.34,1.166,1.8,1.8,0,0,0,.356,1.211,1.308,1.308,0,0,0,1.043.409,2.036,2.036,0,0,0,.691-.119,2.166,2.166,0,0,0,.634-.364Zm1.08.491V-9.568h.663v6.022Z" transform="translate(13.472 11.728)" fill="#f1f1f1"/>
      <path id="Path_1412" data-name="Path 1412" d="M180.644,27.128H5.035A5.041,5.041,0,0,1,0,22.093V5.035A5.041,5.041,0,0,1,5.035,0H10.09V.8H5.2A4.411,4.411,0,0,0,.8,5.2V21.924A4.411,4.411,0,0,0,5.2,26.331H180.477a4.411,4.411,0,0,0,4.406-4.406V5.2A4.411,4.411,0,0,0,180.477.8H35.877V0H180.644a5.041,5.041,0,0,1,5.035,5.035V22.093A5.041,5.041,0,0,1,180.644,27.128Z" transform="translate(210.857 6.294)" fill="#d3d5d9"/>
      <path id="Path_1413" data-name="Path 1413" d="M1.014-3.546V-9.568h.663v6.022Zm3.527.057a1.779,1.779,0,0,1-.961-.258,1.69,1.69,0,0,1-.638-.736,2.621,2.621,0,0,1-.225-1.125,2.608,2.608,0,0,1,.229-1.129,1.794,1.794,0,0,1,.642-.753,1.7,1.7,0,0,1,.953-.27,1.614,1.614,0,0,1,.957.278,1.373,1.373,0,0,1,.532.794l-.1.065V-7.661h.655v4.116H5.932V-4.609l.1.049a1.373,1.373,0,0,1-.532.794A1.614,1.614,0,0,1,4.541-3.488Zm.131-.548A1.121,1.121,0,0,0,5.6-4.45a1.851,1.851,0,0,0,.327-1.174A1.817,1.817,0,0,0,5.6-6.794,1.128,1.128,0,0,0,4.672-7.2a1.146,1.146,0,0,0-.945.421,1.824,1.824,0,0,0-.34,1.174,1.772,1.772,0,0,0,.34,1.162A1.161,1.161,0,0,0,4.672-4.037Zm3.2.491V-9.568h.663v2.962l-.09-.082a1.39,1.39,0,0,1,.532-.79,1.583,1.583,0,0,1,.949-.282,1.737,1.737,0,0,1,.957.262,1.786,1.786,0,0,1,.642.736,2.516,2.516,0,0,1,.233,1.121,2.6,2.6,0,0,1-.233,1.133,1.789,1.789,0,0,1-.646.753,1.723,1.723,0,0,1-.953.266,1.6,1.6,0,0,1-.949-.278,1.373,1.373,0,0,1-.532-.794l.09-.09v1.1ZM9.8-4.037a1.126,1.126,0,0,0,.933-.421A1.854,1.854,0,0,0,11.07-5.64a1.773,1.773,0,0,0-.335-1.154A1.14,1.14,0,0,0,9.8-7.2a1.13,1.13,0,0,0-.941.413,1.837,1.837,0,0,0-.327,1.166A1.851,1.851,0,0,0,8.861-4.45,1.13,1.13,0,0,0,9.8-4.037Zm6.35,0a1.918,1.918,0,0,1-.691.4,2.6,2.6,0,0,1-.863.147,2.255,2.255,0,0,1-1.1-.254,1.724,1.724,0,0,1-.712-.732,2.439,2.439,0,0,1-.25-1.141,2.441,2.441,0,0,1,.245-1.121,1.846,1.846,0,0,1,.683-.753,1.885,1.885,0,0,1,1.011-.27,1.762,1.762,0,0,1,.941.241,1.556,1.556,0,0,1,.6.691,2.552,2.552,0,0,1,.209,1.08v.123H13.116v-.434h2.733l-.213.3a1.7,1.7,0,0,0-.282-1.1,1.036,1.036,0,0,0-.871-.385,1.137,1.137,0,0,0-.937.421,1.81,1.81,0,0,0-.34,1.166,1.8,1.8,0,0,0,.356,1.211,1.308,1.308,0,0,0,1.043.409,2.036,2.036,0,0,0,.691-.119,2.166,2.166,0,0,0,.634-.364Zm1.08.491V-9.568h.663v6.022Z" transform="translate(224.328 11.728)" fill="#f1f1f1"/>
      <path id="Path_1421" data-name="Path 1421" d="M1.908-8.9a2.165,2.165,0,0,1,1.915-.942,2.392,2.392,0,0,1,1.873.8,2.81,2.81,0,0,1,.717,1.958A2.81,2.81,0,0,1,5.7-5.127a2.454,2.454,0,0,1-1.926.8,2.123,2.123,0,0,1-1.862-.952v2.985h-.8V-9.76h.8Zm1.808-.214a1.694,1.694,0,0,0-1.37.6,2.138,2.138,0,0,0-.482,1.434,2.138,2.138,0,0,0,.482,1.434,1.694,1.694,0,0,0,1.37.6,1.778,1.778,0,0,0,1.391-.6,2.081,2.081,0,0,0,.5-1.434,2.081,2.081,0,0,0-.5-1.434A1.778,1.778,0,0,0,3.716-9.118ZM8.263-4.41h-.8V-11.9h.8Zm5.564-.856a2.165,2.165,0,0,1-1.915.942,2.425,2.425,0,0,1-1.883-.8,2.835,2.835,0,0,1-.706-1.958,2.835,2.835,0,0,1,.706-1.958,2.487,2.487,0,0,1,1.937-.8,2.123,2.123,0,0,1,1.862.952V-9.76h.8v5.35h-.8Zm-1.808.214a1.694,1.694,0,0,0,1.37-.6,2.138,2.138,0,0,0,.482-1.434,2.138,2.138,0,0,0-.482-1.434,1.694,1.694,0,0,0-1.37-.6,1.778,1.778,0,0,0-1.391.6,2.081,2.081,0,0,0-.5,1.434,2.081,2.081,0,0,0,.5,1.434A1.778,1.778,0,0,0,12.019-5.052Zm6.474,0a1.5,1.5,0,0,0,.91-.289,1.667,1.667,0,0,0,.578-.749h.867a2.44,2.44,0,0,1-.9,1.273,2.713,2.713,0,0,1-1.626.492,2.483,2.483,0,0,1-1.915-.8,2.785,2.785,0,0,1-.717-1.958,2.785,2.785,0,0,1,.717-1.958,2.483,2.483,0,0,1,1.915-.8,2.713,2.713,0,0,1,1.626.492,2.44,2.44,0,0,1,.9,1.273H19.98a1.667,1.667,0,0,0-.578-.749,1.5,1.5,0,0,0-.91-.289,2.128,2.128,0,0,0-.872.161,1.75,1.75,0,0,0-.6.439,2.054,2.054,0,0,0-.524,1.434,2.054,2.054,0,0,0,.524,1.434A1.878,1.878,0,0,0,18.493-5.052Zm5.735,0a1.619,1.619,0,0,0,1.552-.9h.877a2.582,2.582,0,0,1-.883,1.177,2.542,2.542,0,0,1-1.557.449,2.589,2.589,0,0,1-1.969-.8,2.739,2.739,0,0,1-.738-1.958,2.786,2.786,0,0,1,.706-1.958,2.542,2.542,0,0,1,1.947-.8,2.542,2.542,0,0,1,1.947.8,2.786,2.786,0,0,1,.706,1.958v.321H22.334a1.942,1.942,0,0,0,.589,1.22A1.81,1.81,0,0,0,24.228-5.052Zm-.064-4.066a1.77,1.77,0,0,0-1.241.46,1.9,1.9,0,0,0-.578,1.145h3.638a1.9,1.9,0,0,0-.578-1.145A1.77,1.77,0,0,0,24.164-9.118ZM28.6-11.9v2.975a2.685,2.685,0,0,1,.706-.653,1.726,1.726,0,0,1,.952-.268,2.538,2.538,0,0,1,.92.15,1.865,1.865,0,0,1,.674.449,2.308,2.308,0,0,1,.663,1.723V-4.41h-.8V-7.5A1.637,1.637,0,0,0,31.3-8.679a1.424,1.424,0,0,0-1.081-.439,1.6,1.6,0,0,0-1.145.449A1.575,1.575,0,0,0,28.6-7.492V-4.41h-.8V-11.9ZM36.18-9.846a2.542,2.542,0,0,1,1.947.8,2.786,2.786,0,0,1,.706,1.958,2.786,2.786,0,0,1-.706,1.958,2.542,2.542,0,0,1-1.947.8,2.542,2.542,0,0,1-1.947-.8,2.786,2.786,0,0,1-.706-1.958,2.786,2.786,0,0,1,.706-1.958A2.542,2.542,0,0,1,36.18-9.846Zm0,4.794a1.694,1.694,0,0,0,1.37-.6,2.138,2.138,0,0,0,.482-1.434,2.138,2.138,0,0,0-.482-1.434,1.694,1.694,0,0,0-1.37-.6,1.694,1.694,0,0,0-1.37.6,2.138,2.138,0,0,0-.482,1.434,2.138,2.138,0,0,0,.482,1.434A1.694,1.694,0,0,0,36.18-5.052ZM40.7-4.41h-.8V-11.9h.8Zm5.564-.856a2.165,2.165,0,0,1-1.915.942,2.425,2.425,0,0,1-1.883-.8,2.835,2.835,0,0,1-.706-1.958,2.835,2.835,0,0,1,.706-1.958,2.487,2.487,0,0,1,1.937-.8,2.123,2.123,0,0,1,1.862.952V-11.9h.8v7.49h-.8Zm-1.808.214a1.694,1.694,0,0,0,1.37-.6A2.138,2.138,0,0,0,46.3-7.085a2.138,2.138,0,0,0-.482-1.434,1.694,1.694,0,0,0-1.37-.6,1.778,1.778,0,0,0-1.391.6,2.081,2.081,0,0,0-.5,1.434,2.081,2.081,0,0,0,.5,1.434A1.778,1.778,0,0,0,44.451-5.052Zm6.388,0a1.619,1.619,0,0,0,1.552-.9h.877a2.582,2.582,0,0,1-.883,1.177,2.542,2.542,0,0,1-1.557.449,2.589,2.589,0,0,1-1.969-.8,2.739,2.739,0,0,1-.738-1.958,2.786,2.786,0,0,1,.706-1.958,2.542,2.542,0,0,1,1.947-.8,2.542,2.542,0,0,1,1.947.8,2.786,2.786,0,0,1,.706,1.958v.321H48.946a1.942,1.942,0,0,0,.589,1.22A1.81,1.81,0,0,0,50.839-5.052Zm-.064-4.066a1.77,1.77,0,0,0-1.241.46,1.9,1.9,0,0,0-.578,1.145h3.638a1.9,1.9,0,0,0-.578-1.145A1.77,1.77,0,0,0,50.775-9.118Zm6.463-.728v.8h-.1a1.714,1.714,0,0,0-1.412.7,2.51,2.51,0,0,0-.514,1.584V-4.41h-.8V-9.76h.8v1.316a1.955,1.955,0,0,1,1.113-1.231,1.948,1.948,0,0,1,.856-.171Z" transform="translate(12.179 28.328)" fill="#f1f1f1" opacity="0.4"/>
      <path id="Path_1414" data-name="Path 1414" d="M4.936-4.3v-.835a2.685,2.685,0,0,1-.706.653,1.726,1.726,0,0,1-.952.268,2.538,2.538,0,0,1-.92-.15,1.865,1.865,0,0,1-.674-.449A2.308,2.308,0,0,1,1.02-6.533V-9.647h.8v3.092A1.637,1.637,0,0,0,2.24-5.377a1.424,1.424,0,0,0,1.081.439,1.6,1.6,0,0,0,1.145-.449,1.575,1.575,0,0,0,.471-1.177V-9.647h.8V-4.3Zm5.339-3.916q-.107-.835-1.343-.835T7.7-8.277a.54.54,0,0,0,.262.487,2.4,2.4,0,0,0,.658.273q.4.107.861.2a4.416,4.416,0,0,1,.861.257A1.826,1.826,0,0,1,11-6.608a1.134,1.134,0,0,1,.262.792,1.366,1.366,0,0,1-.589,1.193,2.735,2.735,0,0,1-1.594.412,2.545,2.545,0,0,1-1.7-.535,1.638,1.638,0,0,1-.621-1.231H7.59a1.115,1.115,0,0,0,.835,1,1.866,1.866,0,0,0,.551.086,3.77,3.77,0,0,0,.508-.032,2.077,2.077,0,0,0,.46-.118.711.711,0,0,0,.514-.7.576.576,0,0,0-.262-.508,2.3,2.3,0,0,0-.658-.289q-.4-.112-.861-.2a4.675,4.675,0,0,1-.861-.251,1.837,1.837,0,0,1-.658-.439,1.079,1.079,0,0,1-.262-.77,1.334,1.334,0,0,1,.53-1.129,2.572,2.572,0,0,1,1.568-.4,2.356,2.356,0,0,1,1.552.471,1.546,1.546,0,0,1,.546,1.049Zm4.4,3.274a1.619,1.619,0,0,0,1.552-.9H17.1A2.582,2.582,0,0,1,16.22-4.66a2.542,2.542,0,0,1-1.557.449,2.589,2.589,0,0,1-1.969-.8,2.739,2.739,0,0,1-.738-1.958,2.786,2.786,0,0,1,.706-1.958,2.542,2.542,0,0,1,1.947-.8,2.542,2.542,0,0,1,1.947.8,2.786,2.786,0,0,1,.706,1.958v.321H12.78a1.942,1.942,0,0,0,.589,1.22A1.81,1.81,0,0,0,14.673-4.938ZM14.609-9a1.77,1.77,0,0,0-1.241.46A1.9,1.9,0,0,0,12.79-7.4h3.638a1.9,1.9,0,0,0-.578-1.145A1.77,1.77,0,0,0,14.609-9Zm6.463-.728v.8h-.1a1.714,1.714,0,0,0-1.412.7,2.51,2.51,0,0,0-.514,1.584V-4.3h-.8v-5.35h.8V-8.33a1.955,1.955,0,0,1,1.113-1.231,1.948,1.948,0,0,1,.856-.171Zm3.146.086h.8V-4.3h-.8Zm.835-1.947v1.049h-.867v-1.049Zm2.161,1.947v.835a2.685,2.685,0,0,1,.706-.653,1.726,1.726,0,0,1,.952-.268,2.539,2.539,0,0,1,.92.15,1.865,1.865,0,0,1,.674.449A2.308,2.308,0,0,1,31.13-7.41V-4.3h-.8V-7.389a1.637,1.637,0,0,0-.417-1.177A1.424,1.424,0,0,0,28.83-9a1.6,1.6,0,0,0-1.145.449,1.575,1.575,0,0,0-.471,1.177V-4.3h-.8v-5.35Zm6.056.856a2.165,2.165,0,0,1,1.915-.942,2.392,2.392,0,0,1,1.873.8,2.81,2.81,0,0,1,.717,1.958,2.81,2.81,0,0,1-.717,1.958,2.454,2.454,0,0,1-1.926.8,2.123,2.123,0,0,1-1.862-.952v2.985h-.8V-9.647h.8ZM35.079-9a1.694,1.694,0,0,0-1.37.6,2.138,2.138,0,0,0-.482,1.434,2.138,2.138,0,0,0,.482,1.434,1.694,1.694,0,0,0,1.37.6,1.778,1.778,0,0,0,1.391-.6,2.081,2.081,0,0,0,.5-1.434,2.081,2.081,0,0,0-.5-1.434A1.778,1.778,0,0,0,35.079-9ZM42.687-4.3v-.835a2.685,2.685,0,0,1-.706.653,1.726,1.726,0,0,1-.952.268,2.538,2.538,0,0,1-.92-.15,1.865,1.865,0,0,1-.674-.449,2.308,2.308,0,0,1-.663-1.723V-9.647h.8v3.092a1.637,1.637,0,0,0,.417,1.177,1.424,1.424,0,0,0,1.081.439,1.6,1.6,0,0,0,1.145-.449,1.575,1.575,0,0,0,.471-1.177V-9.647h.8V-4.3Zm2.771,0V-8.94H44.366v-.706h1.091v-1.915h.8v1.915h1.231v.706H46.26V-4.3Z" transform="translate(223.067 28.215)" fill="#f1f1f1"/>
      <g id="Group_478" data-name="Group 478" transform="translate(421.713 0)">
        <path id="Subtraction_15" data-name="Subtraction 15" d="M177.68,27.129H8a8.009,8.009,0,0,1-8-8V8A8.009,8.009,0,0,1,8,0h2.09V.8H7.8a7.008,7.008,0,0,0-7,7V19.33a7.008,7.008,0,0,0,7,7H177.883a7.008,7.008,0,0,0,7-7V7.8a7.007,7.007,0,0,0-7-7H35.877V0h141.8a8.009,8.009,0,0,1,8,8V19.129A8.009,8.009,0,0,1,177.68,27.129Z" transform="translate(0 6.294)" fill="#d3d5d9"/>
        <text id="label" transform="translate(13.927 7.659)" fill="#f1f1f1" font-size="8" font-family="Muli"><tspan x="0" y="0">label</tspan></text>
      </g>
      <path id="Path_1415" data-name="Path 1415" d="M1.908-8.9a2.165,2.165,0,0,1,1.915-.942,2.392,2.392,0,0,1,1.873.8,2.81,2.81,0,0,1,.717,1.958A2.81,2.81,0,0,1,5.7-5.127a2.454,2.454,0,0,1-1.926.8,2.123,2.123,0,0,1-1.862-.952v2.985h-.8V-9.76h.8Zm1.808-.214a1.694,1.694,0,0,0-1.37.6,2.138,2.138,0,0,0-.482,1.434,2.138,2.138,0,0,0,.482,1.434,1.694,1.694,0,0,0,1.37.6,1.778,1.778,0,0,0,1.391-.6,2.081,2.081,0,0,0,.5-1.434,2.081,2.081,0,0,0-.5-1.434A1.778,1.778,0,0,0,3.716-9.118ZM8.263-4.41h-.8V-11.9h.8Zm5.564-.856a2.165,2.165,0,0,1-1.915.942,2.425,2.425,0,0,1-1.883-.8,2.835,2.835,0,0,1-.706-1.958,2.835,2.835,0,0,1,.706-1.958,2.487,2.487,0,0,1,1.937-.8,2.123,2.123,0,0,1,1.862.952V-9.76h.8v5.35h-.8Zm-1.808.214a1.694,1.694,0,0,0,1.37-.6,2.138,2.138,0,0,0,.482-1.434,2.138,2.138,0,0,0-.482-1.434,1.694,1.694,0,0,0-1.37-.6,1.778,1.778,0,0,0-1.391.6,2.081,2.081,0,0,0-.5,1.434,2.081,2.081,0,0,0,.5,1.434A1.778,1.778,0,0,0,12.019-5.052Zm6.474,0a1.5,1.5,0,0,0,.91-.289,1.667,1.667,0,0,0,.578-.749h.867a2.44,2.44,0,0,1-.9,1.273,2.713,2.713,0,0,1-1.626.492,2.483,2.483,0,0,1-1.915-.8,2.785,2.785,0,0,1-.717-1.958,2.785,2.785,0,0,1,.717-1.958,2.483,2.483,0,0,1,1.915-.8,2.713,2.713,0,0,1,1.626.492,2.44,2.44,0,0,1,.9,1.273H19.98a1.667,1.667,0,0,0-.578-.749,1.5,1.5,0,0,0-.91-.289,2.128,2.128,0,0,0-.872.161,1.75,1.75,0,0,0-.6.439,2.054,2.054,0,0,0-.524,1.434,2.054,2.054,0,0,0,.524,1.434A1.878,1.878,0,0,0,18.493-5.052Zm5.735,0a1.619,1.619,0,0,0,1.552-.9h.877a2.582,2.582,0,0,1-.883,1.177,2.542,2.542,0,0,1-1.557.449,2.589,2.589,0,0,1-1.969-.8,2.739,2.739,0,0,1-.738-1.958,2.786,2.786,0,0,1,.706-1.958,2.542,2.542,0,0,1,1.947-.8,2.542,2.542,0,0,1,1.947.8,2.786,2.786,0,0,1,.706,1.958v.321H22.334a1.942,1.942,0,0,0,.589,1.22A1.81,1.81,0,0,0,24.228-5.052Zm-.064-4.066a1.77,1.77,0,0,0-1.241.46,1.9,1.9,0,0,0-.578,1.145h3.638a1.9,1.9,0,0,0-.578-1.145A1.77,1.77,0,0,0,24.164-9.118ZM28.6-11.9v2.975a2.685,2.685,0,0,1,.706-.653,1.726,1.726,0,0,1,.952-.268,2.538,2.538,0,0,1,.92.15,1.865,1.865,0,0,1,.674.449,2.308,2.308,0,0,1,.663,1.723V-4.41h-.8V-7.5A1.637,1.637,0,0,0,31.3-8.679a1.424,1.424,0,0,0-1.081-.439,1.6,1.6,0,0,0-1.145.449A1.575,1.575,0,0,0,28.6-7.492V-4.41h-.8V-11.9ZM36.18-9.846a2.542,2.542,0,0,1,1.947.8,2.786,2.786,0,0,1,.706,1.958,2.786,2.786,0,0,1-.706,1.958,2.542,2.542,0,0,1-1.947.8,2.542,2.542,0,0,1-1.947-.8,2.786,2.786,0,0,1-.706-1.958,2.786,2.786,0,0,1,.706-1.958A2.542,2.542,0,0,1,36.18-9.846Zm0,4.794a1.694,1.694,0,0,0,1.37-.6,2.138,2.138,0,0,0,.482-1.434,2.138,2.138,0,0,0-.482-1.434,1.694,1.694,0,0,0-1.37-.6,1.694,1.694,0,0,0-1.37.6,2.138,2.138,0,0,0-.482,1.434,2.138,2.138,0,0,0,.482,1.434A1.694,1.694,0,0,0,36.18-5.052ZM40.7-4.41h-.8V-11.9h.8Zm5.564-.856a2.165,2.165,0,0,1-1.915.942,2.425,2.425,0,0,1-1.883-.8,2.835,2.835,0,0,1-.706-1.958,2.835,2.835,0,0,1,.706-1.958,2.487,2.487,0,0,1,1.937-.8,2.123,2.123,0,0,1,1.862.952V-11.9h.8v7.49h-.8Zm-1.808.214a1.694,1.694,0,0,0,1.37-.6A2.138,2.138,0,0,0,46.3-7.085a2.138,2.138,0,0,0-.482-1.434,1.694,1.694,0,0,0-1.37-.6,1.778,1.778,0,0,0-1.391.6,2.081,2.081,0,0,0-.5,1.434,2.081,2.081,0,0,0,.5,1.434A1.778,1.778,0,0,0,44.451-5.052Zm6.388,0a1.619,1.619,0,0,0,1.552-.9h.877a2.582,2.582,0,0,1-.883,1.177,2.542,2.542,0,0,1-1.557.449,2.589,2.589,0,0,1-1.969-.8,2.739,2.739,0,0,1-.738-1.958,2.786,2.786,0,0,1,.706-1.958,2.542,2.542,0,0,1,1.947-.8,2.542,2.542,0,0,1,1.947.8,2.786,2.786,0,0,1,.706,1.958v.321H48.946a1.942,1.942,0,0,0,.589,1.22A1.81,1.81,0,0,0,50.839-5.052Zm-.064-4.066a1.77,1.77,0,0,0-1.241.46,1.9,1.9,0,0,0-.578,1.145h3.638a1.9,1.9,0,0,0-.578-1.145A1.77,1.77,0,0,0,50.775-9.118Zm6.463-.728v.8h-.1a1.714,1.714,0,0,0-1.412.7,2.51,2.51,0,0,0-.514,1.584V-4.41h-.8V-9.76h.8v1.316a1.955,1.955,0,0,1,1.113-1.231,1.948,1.948,0,0,1,.856-.171Z" transform="translate(433.892 28.328)" fill="#f1f1f1" opacity="0.4"/>
      <g transform="matrix(1, 0, 0, 1, -33.36, -25.34)" filter="url(#separator)">
        <path id="separator-3" data-name="separator" d="M-1687,304h185.68" transform="translate(1723.19 -128.86)" fill="none" stroke="#d3d5d9" stroke-linecap="round" stroke-width="1"/>
      </g>
      <path id="Title2" d="M5.511-14.838a4.46,4.46,0,0,1,3.365,1.371,4.586,4.586,0,0,1,1.288,3.323A4.586,4.586,0,0,1,8.876-6.82,4.46,4.46,0,0,1,5.511-5.449,4.46,4.46,0,0,1,2.146-6.82,4.586,4.586,0,0,1,.858-10.144a4.586,4.586,0,0,1,1.288-3.323A4.46,4.46,0,0,1,5.511-14.838Zm0,8.378A3.477,3.477,0,0,0,8.156-7.526a3.655,3.655,0,0,0,.969-2.617,3.655,3.655,0,0,0-.969-2.617,3.477,3.477,0,0,0-2.645-1.066,3.477,3.477,0,0,0-2.645,1.066A3.655,3.655,0,0,0,1.9-10.144a3.655,3.655,0,0,0,.969,2.617A3.477,3.477,0,0,0,5.511-6.46Zm7.131-4.916a2.8,2.8,0,0,1,2.479-1.219,3.1,3.1,0,0,1,2.423,1.039,3.636,3.636,0,0,1,.928,2.534,3.636,3.636,0,0,1-.928,2.534,3.176,3.176,0,0,1-2.493,1.039,2.747,2.747,0,0,1-2.409-1.232v3.863H11.6v-9.665h1.039Zm2.34-.277a2.192,2.192,0,0,0-1.772.775,2.767,2.767,0,0,0-.623,1.856,2.767,2.767,0,0,0,.623,1.856,2.192,2.192,0,0,0,1.772.775,2.3,2.3,0,0,0,1.8-.775,2.693,2.693,0,0,0,.651-1.856,2.693,2.693,0,0,0-.651-1.856A2.3,2.3,0,0,0,14.982-11.653ZM20.577-5.56v-6.01H19.164v-.914h1.412v-2.479h1.039v2.479h1.592v.914H21.615v6.01Zm3.766-6.924h1.039V-5.56H24.343ZM25.423-15v1.357H24.3V-15Zm4.763,2.409a3.289,3.289,0,0,1,2.52,1.039,3.6,3.6,0,0,1,.914,2.534,3.6,3.6,0,0,1-.914,2.534,3.289,3.289,0,0,1-2.52,1.039,3.289,3.289,0,0,1-2.52-1.039,3.6,3.6,0,0,1-.914-2.534,3.6,3.6,0,0,1,.914-2.534A3.289,3.289,0,0,1,30.187-12.595Zm0,6.2a2.192,2.192,0,0,0,1.772-.775,2.767,2.767,0,0,0,.623-1.856,2.767,2.767,0,0,0-.623-1.856,2.192,2.192,0,0,0-1.772-.775,2.192,2.192,0,0,0-1.772.775,2.767,2.767,0,0,0-.623,1.856,2.767,2.767,0,0,0,.623,1.856A2.192,2.192,0,0,0,30.187-6.391Zm5.844-6.093v1.08a3.475,3.475,0,0,1,.914-.845,2.234,2.234,0,0,1,1.232-.346,3.285,3.285,0,0,1,1.191.194,2.414,2.414,0,0,1,.872.582A2.987,2.987,0,0,1,41.1-9.59v4.03H40.06v-4a2.119,2.119,0,0,0-.54-1.523,1.843,1.843,0,0,0-1.4-.568,2.067,2.067,0,0,0-1.482.582,2.038,2.038,0,0,0-.609,1.523V-5.56H34.992v-6.924Z" transform="translate(11.641 147.18)" fill="#f1f1f1"/>
      <path id="Path_1355" data-name="Path 1355" d="M722.189,937.747l2.537,2.564-2.537,2.751" transform="translate(-547.72 -802.58)" fill="none" stroke="#f1f1f1" stroke-linecap="round" stroke-linejoin="round" stroke-width="2"/>
      <path id="bg" d="M-1304-845.833h185.68v68.607a4.406,4.406,0,0,1-4.406,4.406h-176.868a4.406,4.406,0,0,1-4.406-4.406Z" transform="translate(1306.266 1049.136)" fill="#2d323d"/>
      <path id="marked-bg" d="M0,0H185.68V22.659H0Z" transform="translate(2.266 230.369)" fill="#4a4f58"/>
      <path id="Path_1416" data-name="Path 1416" d="M3.232-9.732a2.542,2.542,0,0,1,1.947.8,2.786,2.786,0,0,1,.706,1.958,2.786,2.786,0,0,1-.706,1.958,2.542,2.542,0,0,1-1.947.8,2.542,2.542,0,0,1-1.947-.8A2.786,2.786,0,0,1,.578-6.972,2.786,2.786,0,0,1,1.284-8.93,2.542,2.542,0,0,1,3.232-9.732Zm0,4.794a1.694,1.694,0,0,0,1.37-.6,2.138,2.138,0,0,0,.482-1.434A2.138,2.138,0,0,0,4.6-8.405,1.694,1.694,0,0,0,3.232-9a1.694,1.694,0,0,0-1.37.6,2.138,2.138,0,0,0-.482,1.434,2.138,2.138,0,0,0,.482,1.434A1.694,1.694,0,0,0,3.232-4.938ZM7.747-8.791a2.165,2.165,0,0,1,1.915-.942,2.392,2.392,0,0,1,1.873.8,2.81,2.81,0,0,1,.717,1.958,2.81,2.81,0,0,1-.717,1.958,2.454,2.454,0,0,1-1.926.8,2.123,2.123,0,0,1-1.862-.952v2.985h-.8V-9.647h.8ZM9.555-9a1.694,1.694,0,0,0-1.37.6A2.138,2.138,0,0,0,7.7-6.972a2.138,2.138,0,0,0,.482,1.434,1.694,1.694,0,0,0,1.37.6,1.778,1.778,0,0,0,1.391-.6,2.081,2.081,0,0,0,.5-1.434,2.081,2.081,0,0,0-.5-1.434A1.778,1.778,0,0,0,9.555-9ZM13.878-4.3V-8.94H12.787v-.706h1.091v-1.915h.8v1.915h1.231v.706H14.681V-4.3Zm2.91-5.35h.8V-4.3h-.8Zm.835-1.947v1.049h-.867v-1.049ZM21.3-9.732a2.542,2.542,0,0,1,1.947.8,2.786,2.786,0,0,1,.706,1.958,2.786,2.786,0,0,1-.706,1.958,2.542,2.542,0,0,1-1.947.8,2.542,2.542,0,0,1-1.947-.8,2.786,2.786,0,0,1-.706-1.958,2.786,2.786,0,0,1,.706-1.958A2.542,2.542,0,0,1,21.3-9.732Zm0,4.794a1.694,1.694,0,0,0,1.37-.6,2.138,2.138,0,0,0,.482-1.434,2.138,2.138,0,0,0-.482-1.434A1.694,1.694,0,0,0,21.3-9a1.694,1.694,0,0,0-1.37.6,2.138,2.138,0,0,0-.482,1.434,2.138,2.138,0,0,0,.482,1.434A1.694,1.694,0,0,0,21.3-4.938ZM25.82-9.647v.835a2.685,2.685,0,0,1,.706-.653,1.726,1.726,0,0,1,.952-.268,2.539,2.539,0,0,1,.92.15,1.865,1.865,0,0,1,.674.449,2.308,2.308,0,0,1,.663,1.723V-4.3h-.8V-7.389a1.637,1.637,0,0,0-.417-1.177A1.424,1.424,0,0,0,27.435-9a1.6,1.6,0,0,0-1.145.449,1.575,1.575,0,0,0-.471,1.177V-4.3h-.8v-5.35Z" transform="translate(14.64 271.801)" fill="#f1f1f1"/>
      <path id="Path_1417" data-name="Path 1417" d="M4.03-8.326q-.107-.835-1.343-.835t-1.236.77a.54.54,0,0,0,.262.487,2.4,2.4,0,0,0,.658.273q.4.107.861.2a4.416,4.416,0,0,1,.861.257,1.826,1.826,0,0,1,.658.455,1.134,1.134,0,0,1,.262.792,1.366,1.366,0,0,1-.589,1.193,2.735,2.735,0,0,1-1.594.412,2.545,2.545,0,0,1-1.7-.535A1.638,1.638,0,0,1,.51-6.09h.835a1.115,1.115,0,0,0,.835,1,1.866,1.866,0,0,0,.551.086,3.77,3.77,0,0,0,.508-.032,2.077,2.077,0,0,0,.46-.118.711.711,0,0,0,.514-.7.576.576,0,0,0-.262-.508,2.3,2.3,0,0,0-.658-.289q-.4-.112-.861-.2a4.675,4.675,0,0,1-.861-.251,1.837,1.837,0,0,1-.658-.439,1.079,1.079,0,0,1-.262-.77,1.334,1.334,0,0,1,.53-1.129,2.572,2.572,0,0,1,1.568-.4A2.356,2.356,0,0,1,4.3-9.375a1.546,1.546,0,0,1,.546,1.049Zm4.4,3.274a1.619,1.619,0,0,0,1.552-.9h.877a2.582,2.582,0,0,1-.883,1.177,2.542,2.542,0,0,1-1.557.449,2.589,2.589,0,0,1-1.969-.8A2.739,2.739,0,0,1,5.71-7.085a2.786,2.786,0,0,1,.706-1.958,2.542,2.542,0,0,1,1.947-.8,2.542,2.542,0,0,1,1.947.8,2.786,2.786,0,0,1,.706,1.958v.321H6.534a1.942,1.942,0,0,0,.589,1.22A1.81,1.81,0,0,0,8.428-5.052ZM8.364-9.118a1.77,1.77,0,0,0-1.241.46,1.9,1.9,0,0,0-.578,1.145h3.638a1.9,1.9,0,0,0-.578-1.145A1.77,1.77,0,0,0,8.364-9.118ZM12.8-4.41H12V-11.9h.8Zm3.777-.642a1.619,1.619,0,0,0,1.552-.9h.877a2.582,2.582,0,0,1-.883,1.177,2.542,2.542,0,0,1-1.557.449,2.589,2.589,0,0,1-1.969-.8,2.739,2.739,0,0,1-.738-1.958,2.786,2.786,0,0,1,.706-1.958,2.542,2.542,0,0,1,1.947-.8,2.542,2.542,0,0,1,1.947.8,2.786,2.786,0,0,1,.706,1.958v.321H14.688a1.942,1.942,0,0,0,.589,1.22A1.81,1.81,0,0,0,16.582-5.052Zm-.064-4.066a1.77,1.77,0,0,0-1.241.46A1.9,1.9,0,0,0,14.7-7.513h3.638a1.9,1.9,0,0,0-.578-1.145A1.77,1.77,0,0,0,16.517-9.118Zm6.11,4.066a1.5,1.5,0,0,0,.91-.289,1.667,1.667,0,0,0,.578-.749h.867a2.44,2.44,0,0,1-.9,1.273,2.713,2.713,0,0,1-1.626.492,2.483,2.483,0,0,1-1.915-.8,2.785,2.785,0,0,1-.717-1.958,2.785,2.785,0,0,1,.717-1.958,2.483,2.483,0,0,1,1.915-.8,2.713,2.713,0,0,1,1.626.492,2.44,2.44,0,0,1,.9,1.273h-.867a1.667,1.667,0,0,0-.578-.749,1.5,1.5,0,0,0-.91-.289,2.128,2.128,0,0,0-.872.161,1.75,1.75,0,0,0-.6.439,2.054,2.054,0,0,0-.524,1.434,2.054,2.054,0,0,0,.524,1.434A1.878,1.878,0,0,0,22.627-5.052Zm3.927.642V-9.054H25.463V-9.76h1.091v-1.915h.8V-9.76h1.231v.706H27.357V-4.41Zm5.3-.642a1.619,1.619,0,0,0,1.552-.9h.877A2.582,2.582,0,0,1,33.4-4.774a2.542,2.542,0,0,1-1.557.449,2.589,2.589,0,0,1-1.969-.8,2.739,2.739,0,0,1-.738-1.958,2.786,2.786,0,0,1,.706-1.958,2.542,2.542,0,0,1,1.947-.8,2.542,2.542,0,0,1,1.947.8,2.786,2.786,0,0,1,.706,1.958v.321H29.957a1.942,1.942,0,0,0,.589,1.22A1.81,1.81,0,0,0,31.851-5.052Zm-.064-4.066a1.77,1.77,0,0,0-1.241.46,1.9,1.9,0,0,0-.578,1.145h3.638a1.9,1.9,0,0,0-.578-1.145A1.77,1.77,0,0,0,31.787-9.118ZM39.6-5.266a2.165,2.165,0,0,1-1.915.942,2.425,2.425,0,0,1-1.883-.8,2.835,2.835,0,0,1-.706-1.958A2.835,2.835,0,0,1,35.8-9.043a2.487,2.487,0,0,1,1.937-.8,2.123,2.123,0,0,1,1.862.952V-11.9h.8v7.49h-.8Zm-1.808.214a1.694,1.694,0,0,0,1.37-.6,2.138,2.138,0,0,0,.482-1.434,2.138,2.138,0,0,0-.482-1.434,1.694,1.694,0,0,0-1.37-.6,1.778,1.778,0,0,0-1.391.6,2.081,2.081,0,0,0-.5,1.434,2.081,2.081,0,0,0,.5,1.434A1.778,1.778,0,0,0,37.789-5.052Zm8.6-4.794a2.542,2.542,0,0,1,1.947.8,2.786,2.786,0,0,1,.706,1.958,2.786,2.786,0,0,1-.706,1.958,2.542,2.542,0,0,1-1.947.8,2.542,2.542,0,0,1-1.947-.8,2.786,2.786,0,0,1-.706-1.958,2.786,2.786,0,0,1,.706-1.958A2.542,2.542,0,0,1,46.392-9.846Zm0,4.794a1.694,1.694,0,0,0,1.37-.6,2.138,2.138,0,0,0,.482-1.434,2.138,2.138,0,0,0-.482-1.434,1.694,1.694,0,0,0-1.37-.6,1.694,1.694,0,0,0-1.37.6,2.138,2.138,0,0,0-.482,1.434,2.138,2.138,0,0,0,.482,1.434A1.694,1.694,0,0,0,46.392-5.052ZM50.908-8.9a2.165,2.165,0,0,1,1.915-.942,2.392,2.392,0,0,1,1.873.8,2.81,2.81,0,0,1,.717,1.958A2.81,2.81,0,0,1,54.7-5.127a2.454,2.454,0,0,1-1.926.8,2.123,2.123,0,0,1-1.862-.952v2.985h-.8V-9.76h.8Zm1.808-.214a1.694,1.694,0,0,0-1.37.6,2.138,2.138,0,0,0-.482,1.434,2.138,2.138,0,0,0,.482,1.434,1.694,1.694,0,0,0,1.37.6,1.778,1.778,0,0,0,1.391-.6,2.081,2.081,0,0,0,.5-1.434,2.081,2.081,0,0,0-.5-1.434A1.778,1.778,0,0,0,52.716-9.118ZM57.039-4.41V-9.054H55.948V-9.76h1.091v-1.915h.8V-9.76h1.231v.706H57.842V-4.41Zm2.91-5.35h.8v5.35h-.8Zm.835-1.947v1.049h-.867v-1.049Zm3.681,1.862a2.542,2.542,0,0,1,1.947.8,2.786,2.786,0,0,1,.706,1.958,2.786,2.786,0,0,1-.706,1.958,2.542,2.542,0,0,1-1.947.8,2.542,2.542,0,0,1-1.947-.8,2.786,2.786,0,0,1-.706-1.958,2.786,2.786,0,0,1,.706-1.958A2.542,2.542,0,0,1,64.465-9.846Zm0,4.794a1.694,1.694,0,0,0,1.37-.6,2.138,2.138,0,0,0,.482-1.434,2.138,2.138,0,0,0-.482-1.434,1.694,1.694,0,0,0-1.37-.6,1.694,1.694,0,0,0-1.37.6,2.138,2.138,0,0,0-.482,1.434A2.138,2.138,0,0,0,63.1-5.651,1.694,1.694,0,0,0,64.465-5.052ZM68.98-9.76v.835a2.685,2.685,0,0,1,.706-.653,1.726,1.726,0,0,1,.952-.268,2.538,2.538,0,0,1,.92.15,1.865,1.865,0,0,1,.674.449A2.308,2.308,0,0,1,72.9-7.524V-4.41h-.8V-7.5a1.637,1.637,0,0,0-.417-1.177A1.424,1.424,0,0,0,70.6-9.118a1.6,1.6,0,0,0-1.145.449,1.575,1.575,0,0,0-.471,1.177V-4.41h-.8V-9.76Z" transform="translate(14.665 249.255)" fill="#f1f1f1"/>
      <path id="Path_1418" data-name="Path 1418" d="M3.232-9.732a2.542,2.542,0,0,1,1.947.8,2.786,2.786,0,0,1,.706,1.958,2.786,2.786,0,0,1-.706,1.958,2.542,2.542,0,0,1-1.947.8,2.542,2.542,0,0,1-1.947-.8A2.786,2.786,0,0,1,.578-6.972,2.786,2.786,0,0,1,1.284-8.93,2.542,2.542,0,0,1,3.232-9.732Zm0,4.794a1.694,1.694,0,0,0,1.37-.6,2.138,2.138,0,0,0,.482-1.434A2.138,2.138,0,0,0,4.6-8.405,1.694,1.694,0,0,0,3.232-9a1.694,1.694,0,0,0-1.37.6,2.138,2.138,0,0,0-.482,1.434,2.138,2.138,0,0,0,.482,1.434A1.694,1.694,0,0,0,3.232-4.938ZM7.747-8.791a2.165,2.165,0,0,1,1.915-.942,2.392,2.392,0,0,1,1.873.8,2.81,2.81,0,0,1,.717,1.958,2.81,2.81,0,0,1-.717,1.958,2.454,2.454,0,0,1-1.926.8,2.123,2.123,0,0,1-1.862-.952v2.985h-.8V-9.647h.8ZM9.555-9a1.694,1.694,0,0,0-1.37.6A2.138,2.138,0,0,0,7.7-6.972a2.138,2.138,0,0,0,.482,1.434,1.694,1.694,0,0,0,1.37.6,1.778,1.778,0,0,0,1.391-.6,2.081,2.081,0,0,0,.5-1.434,2.081,2.081,0,0,0-.5-1.434A1.778,1.778,0,0,0,9.555-9ZM13.878-4.3V-8.94H12.787v-.706h1.091v-1.915h.8v1.915h1.231v.706H14.681V-4.3Zm2.91-5.35h.8V-4.3h-.8Zm.835-1.947v1.049h-.867v-1.049ZM21.3-9.732a2.542,2.542,0,0,1,1.947.8,2.786,2.786,0,0,1,.706,1.958,2.786,2.786,0,0,1-.706,1.958,2.542,2.542,0,0,1-1.947.8,2.542,2.542,0,0,1-1.947-.8,2.786,2.786,0,0,1-.706-1.958,2.786,2.786,0,0,1,.706-1.958A2.542,2.542,0,0,1,21.3-9.732Zm0,4.794a1.694,1.694,0,0,0,1.37-.6,2.138,2.138,0,0,0,.482-1.434,2.138,2.138,0,0,0-.482-1.434A1.694,1.694,0,0,0,21.3-9a1.694,1.694,0,0,0-1.37.6,2.138,2.138,0,0,0-.482,1.434,2.138,2.138,0,0,0,.482,1.434A1.694,1.694,0,0,0,21.3-4.938ZM25.82-9.647v.835a2.685,2.685,0,0,1,.706-.653,1.726,1.726,0,0,1,.952-.268,2.539,2.539,0,0,1,.92.15,1.865,1.865,0,0,1,.674.449,2.308,2.308,0,0,1,.663,1.723V-4.3h-.8V-7.389a1.637,1.637,0,0,0-.417-1.177A1.424,1.424,0,0,0,27.435-9a1.6,1.6,0,0,0-1.145.449,1.575,1.575,0,0,0-.471,1.177V-4.3h-.8v-5.35Z" transform="translate(14.64 226.483)" fill="#f1f1f1"/>
      <path id="contour" d="M180.644,80.259H5.035A5.041,5.041,0,0,1,0,75.224V7.744c0-.145.006-.291.019-.436v.064H.83a4.45,4.45,0,0,0-.033.54V75.056A4.411,4.411,0,0,0,5.2,79.462H180.477a4.411,4.411,0,0,0,4.406-4.406V7.912a4.452,4.452,0,0,0-.033-.54h.816c.009.126.014.251.014.372v67.48A5.041,5.041,0,0,1,180.644,80.259Z" transform="translate(2.266 196.189)" fill="#d3d5d9"/>
      <g transform="matrix(1, 0, 0, 1, -33.36, -25.34)" filter="url(#separator-2)">
        <path id="separator-4" data-name="separator" d="M-1687,304h185.68" transform="translate(1722.56 -75.35)" fill="none" stroke="#d3d5d9" stroke-linecap="round" stroke-width="1"/>
      </g>
      <path id="Title2-2" data-name="Title2" d="M5.511-14.838a4.46,4.46,0,0,1,3.365,1.371,4.586,4.586,0,0,1,1.288,3.323A4.586,4.586,0,0,1,8.876-6.82,4.46,4.46,0,0,1,5.511-5.449,4.46,4.46,0,0,1,2.146-6.82,4.586,4.586,0,0,1,.858-10.144a4.586,4.586,0,0,1,1.288-3.323A4.46,4.46,0,0,1,5.511-14.838Zm0,8.378A3.477,3.477,0,0,0,8.156-7.526a3.655,3.655,0,0,0,.969-2.617,3.655,3.655,0,0,0-.969-2.617,3.477,3.477,0,0,0-2.645-1.066,3.477,3.477,0,0,0-2.645,1.066A3.655,3.655,0,0,0,1.9-10.144a3.655,3.655,0,0,0,.969,2.617A3.477,3.477,0,0,0,5.511-6.46Zm7.131-4.916a2.8,2.8,0,0,1,2.479-1.219,3.1,3.1,0,0,1,2.423,1.039,3.636,3.636,0,0,1,.928,2.534,3.636,3.636,0,0,1-.928,2.534,3.176,3.176,0,0,1-2.493,1.039,2.747,2.747,0,0,1-2.409-1.232v3.863H11.6v-9.665h1.039Zm2.34-.277a2.192,2.192,0,0,0-1.772.775,2.767,2.767,0,0,0-.623,1.856,2.767,2.767,0,0,0,.623,1.856,2.192,2.192,0,0,0,1.772.775,2.3,2.3,0,0,0,1.8-.775,2.693,2.693,0,0,0,.651-1.856,2.693,2.693,0,0,0-.651-1.856A2.3,2.3,0,0,0,14.982-11.653ZM20.577-5.56v-6.01H19.164v-.914h1.412v-2.479h1.039v2.479h1.592v.914H21.615v6.01Zm3.766-6.924h1.039V-5.56H24.343ZM25.423-15v1.357H24.3V-15Zm4.763,2.409a3.289,3.289,0,0,1,2.52,1.039,3.6,3.6,0,0,1,.914,2.534,3.6,3.6,0,0,1-.914,2.534,3.289,3.289,0,0,1-2.52,1.039,3.289,3.289,0,0,1-2.52-1.039,3.6,3.6,0,0,1-.914-2.534,3.6,3.6,0,0,1,.914-2.534A3.289,3.289,0,0,1,30.187-12.595Zm0,6.2a2.192,2.192,0,0,0,1.772-.775,2.767,2.767,0,0,0,.623-1.856,2.767,2.767,0,0,0-.623-1.856,2.192,2.192,0,0,0-1.772-.775,2.192,2.192,0,0,0-1.772.775,2.767,2.767,0,0,0-.623,1.856,2.767,2.767,0,0,0,.623,1.856A2.192,2.192,0,0,0,30.187-6.391Zm5.844-6.093v1.08a3.475,3.475,0,0,1,.914-.845,2.234,2.234,0,0,1,1.232-.346,3.285,3.285,0,0,1,1.191.194,2.414,2.414,0,0,1,.872.582A2.987,2.987,0,0,1,41.1-9.59v4.03H40.06v-4a2.119,2.119,0,0,0-.54-1.523,1.843,1.843,0,0,0-1.4-.568,2.067,2.067,0,0,0-1.482.582,2.038,2.038,0,0,0-.609,1.523V-5.56H34.992v-6.924Z" transform="translate(11.012 200.681)" fill="#f1f1f1"/>
      <path id="Path_1356" data-name="Path 1356" d="M722.189,937.747l2.537,2.564-2.537,2.751" transform="translate(-548.349 -749.079)" fill="none" stroke="#f1f1f1" stroke-linecap="round" stroke-linejoin="round" stroke-width="2"/>
      <path id="bg-2" data-name="bg" d="M-1122.726-772.82h-176.868a4.411,4.411,0,0,1-4.406-4.406v-68.607h.64a4.73,4.73,0,0,0,4.711,4.406h174.979a4.73,4.73,0,0,0,4.711-4.406h.64v68.607A4.411,4.411,0,0,1-1122.726-772.82Z" transform="translate(1522.41 1049.136)" fill="#2d323d"/>
      <path id="marked-bg-2" data-name="marked-bg" d="M0,0H185.68V22.659H0Z" transform="translate(218.41 230.369)" fill="#4a4f58"/>
      <path id="Path_1394" data-name="Path 1394" d="M3.232-9.732a2.542,2.542,0,0,1,1.947.8,2.786,2.786,0,0,1,.706,1.958,2.786,2.786,0,0,1-.706,1.958,2.542,2.542,0,0,1-1.947.8,2.542,2.542,0,0,1-1.947-.8A2.786,2.786,0,0,1,.578-6.972,2.786,2.786,0,0,1,1.284-8.93,2.542,2.542,0,0,1,3.232-9.732Zm0,4.794a1.694,1.694,0,0,0,1.37-.6,2.138,2.138,0,0,0,.482-1.434A2.138,2.138,0,0,0,4.6-8.405,1.694,1.694,0,0,0,3.232-9a1.694,1.694,0,0,0-1.37.6,2.138,2.138,0,0,0-.482,1.434,2.138,2.138,0,0,0,.482,1.434A1.694,1.694,0,0,0,3.232-4.938ZM7.747-8.791a2.165,2.165,0,0,1,1.915-.942,2.392,2.392,0,0,1,1.873.8,2.81,2.81,0,0,1,.717,1.958,2.81,2.81,0,0,1-.717,1.958,2.454,2.454,0,0,1-1.926.8,2.123,2.123,0,0,1-1.862-.952v2.985h-.8V-9.647h.8ZM9.555-9a1.694,1.694,0,0,0-1.37.6A2.138,2.138,0,0,0,7.7-6.972a2.138,2.138,0,0,0,.482,1.434,1.694,1.694,0,0,0,1.37.6,1.778,1.778,0,0,0,1.391-.6,2.081,2.081,0,0,0,.5-1.434,2.081,2.081,0,0,0-.5-1.434A1.778,1.778,0,0,0,9.555-9ZM13.878-4.3V-8.94H12.787v-.706h1.091v-1.915h.8v1.915h1.231v.706H14.681V-4.3Zm2.91-5.35h.8V-4.3h-.8Zm.835-1.947v1.049h-.867v-1.049ZM21.3-9.732a2.542,2.542,0,0,1,1.947.8,2.786,2.786,0,0,1,.706,1.958,2.786,2.786,0,0,1-.706,1.958,2.542,2.542,0,0,1-1.947.8,2.542,2.542,0,0,1-1.947-.8,2.786,2.786,0,0,1-.706-1.958,2.786,2.786,0,0,1,.706-1.958A2.542,2.542,0,0,1,21.3-9.732Zm0,4.794a1.694,1.694,0,0,0,1.37-.6,2.138,2.138,0,0,0,.482-1.434,2.138,2.138,0,0,0-.482-1.434A1.694,1.694,0,0,0,21.3-9a1.694,1.694,0,0,0-1.37.6,2.138,2.138,0,0,0-.482,1.434,2.138,2.138,0,0,0,.482,1.434A1.694,1.694,0,0,0,21.3-4.938ZM25.82-9.647v.835a2.685,2.685,0,0,1,.706-.653,1.726,1.726,0,0,1,.952-.268,2.539,2.539,0,0,1,.92.15,1.865,1.865,0,0,1,.674.449,2.308,2.308,0,0,1,.663,1.723V-4.3h-.8V-7.389a1.637,1.637,0,0,0-.417-1.177A1.424,1.424,0,0,0,27.435-9a1.6,1.6,0,0,0-1.145.449,1.575,1.575,0,0,0-.471,1.177V-4.3h-.8v-5.35Z" transform="translate(230.784 271.801)" fill="#f1f1f1"/>
      <path id="Path_1395" data-name="Path 1395" d="M4.03-8.326q-.107-.835-1.343-.835t-1.236.77a.54.54,0,0,0,.262.487,2.4,2.4,0,0,0,.658.273q.4.107.861.2a4.416,4.416,0,0,1,.861.257,1.826,1.826,0,0,1,.658.455,1.134,1.134,0,0,1,.262.792,1.366,1.366,0,0,1-.589,1.193,2.735,2.735,0,0,1-1.594.412,2.545,2.545,0,0,1-1.7-.535A1.638,1.638,0,0,1,.51-6.09h.835a1.115,1.115,0,0,0,.835,1,1.866,1.866,0,0,0,.551.086,3.77,3.77,0,0,0,.508-.032,2.077,2.077,0,0,0,.46-.118.711.711,0,0,0,.514-.7.576.576,0,0,0-.262-.508,2.3,2.3,0,0,0-.658-.289q-.4-.112-.861-.2a4.675,4.675,0,0,1-.861-.251,1.837,1.837,0,0,1-.658-.439,1.079,1.079,0,0,1-.262-.77,1.334,1.334,0,0,1,.53-1.129,2.572,2.572,0,0,1,1.568-.4A2.356,2.356,0,0,1,4.3-9.375a1.546,1.546,0,0,1,.546,1.049Zm4.4,3.274a1.619,1.619,0,0,0,1.552-.9h.877a2.582,2.582,0,0,1-.883,1.177,2.542,2.542,0,0,1-1.557.449,2.589,2.589,0,0,1-1.969-.8A2.739,2.739,0,0,1,5.71-7.085a2.786,2.786,0,0,1,.706-1.958,2.542,2.542,0,0,1,1.947-.8,2.542,2.542,0,0,1,1.947.8,2.786,2.786,0,0,1,.706,1.958v.321H6.534a1.942,1.942,0,0,0,.589,1.22A1.81,1.81,0,0,0,8.428-5.052ZM8.364-9.118a1.77,1.77,0,0,0-1.241.46,1.9,1.9,0,0,0-.578,1.145h3.638a1.9,1.9,0,0,0-.578-1.145A1.77,1.77,0,0,0,8.364-9.118ZM12.8-4.41H12V-11.9h.8Zm3.777-.642a1.619,1.619,0,0,0,1.552-.9h.877a2.582,2.582,0,0,1-.883,1.177,2.542,2.542,0,0,1-1.557.449,2.589,2.589,0,0,1-1.969-.8,2.739,2.739,0,0,1-.738-1.958,2.786,2.786,0,0,1,.706-1.958,2.542,2.542,0,0,1,1.947-.8,2.542,2.542,0,0,1,1.947.8,2.786,2.786,0,0,1,.706,1.958v.321H14.688a1.942,1.942,0,0,0,.589,1.22A1.81,1.81,0,0,0,16.582-5.052Zm-.064-4.066a1.77,1.77,0,0,0-1.241.46A1.9,1.9,0,0,0,14.7-7.513h3.638a1.9,1.9,0,0,0-.578-1.145A1.77,1.77,0,0,0,16.517-9.118Zm6.11,4.066a1.5,1.5,0,0,0,.91-.289,1.667,1.667,0,0,0,.578-.749h.867a2.44,2.44,0,0,1-.9,1.273,2.713,2.713,0,0,1-1.626.492,2.483,2.483,0,0,1-1.915-.8,2.785,2.785,0,0,1-.717-1.958,2.785,2.785,0,0,1,.717-1.958,2.483,2.483,0,0,1,1.915-.8,2.713,2.713,0,0,1,1.626.492,2.44,2.44,0,0,1,.9,1.273h-.867a1.667,1.667,0,0,0-.578-.749,1.5,1.5,0,0,0-.91-.289,2.128,2.128,0,0,0-.872.161,1.75,1.75,0,0,0-.6.439,2.054,2.054,0,0,0-.524,1.434,2.054,2.054,0,0,0,.524,1.434A1.878,1.878,0,0,0,22.627-5.052Zm3.927.642V-9.054H25.463V-9.76h1.091v-1.915h.8V-9.76h1.231v.706H27.357V-4.41Zm5.3-.642a1.619,1.619,0,0,0,1.552-.9h.877A2.582,2.582,0,0,1,33.4-4.774a2.542,2.542,0,0,1-1.557.449,2.589,2.589,0,0,1-1.969-.8,2.739,2.739,0,0,1-.738-1.958,2.786,2.786,0,0,1,.706-1.958,2.542,2.542,0,0,1,1.947-.8,2.542,2.542,0,0,1,1.947.8,2.786,2.786,0,0,1,.706,1.958v.321H29.957a1.942,1.942,0,0,0,.589,1.22A1.81,1.81,0,0,0,31.851-5.052Zm-.064-4.066a1.77,1.77,0,0,0-1.241.46,1.9,1.9,0,0,0-.578,1.145h3.638a1.9,1.9,0,0,0-.578-1.145A1.77,1.77,0,0,0,31.787-9.118ZM39.6-5.266a2.165,2.165,0,0,1-1.915.942,2.425,2.425,0,0,1-1.883-.8,2.835,2.835,0,0,1-.706-1.958A2.835,2.835,0,0,1,35.8-9.043a2.487,2.487,0,0,1,1.937-.8,2.123,2.123,0,0,1,1.862.952V-11.9h.8v7.49h-.8Zm-1.808.214a1.694,1.694,0,0,0,1.37-.6,2.138,2.138,0,0,0,.482-1.434,2.138,2.138,0,0,0-.482-1.434,1.694,1.694,0,0,0-1.37-.6,1.778,1.778,0,0,0-1.391.6,2.081,2.081,0,0,0-.5,1.434,2.081,2.081,0,0,0,.5,1.434A1.778,1.778,0,0,0,37.789-5.052Zm8.6-4.794a2.542,2.542,0,0,1,1.947.8,2.786,2.786,0,0,1,.706,1.958,2.786,2.786,0,0,1-.706,1.958,2.542,2.542,0,0,1-1.947.8,2.542,2.542,0,0,1-1.947-.8,2.786,2.786,0,0,1-.706-1.958,2.786,2.786,0,0,1,.706-1.958A2.542,2.542,0,0,1,46.392-9.846Zm0,4.794a1.694,1.694,0,0,0,1.37-.6,2.138,2.138,0,0,0,.482-1.434,2.138,2.138,0,0,0-.482-1.434,1.694,1.694,0,0,0-1.37-.6,1.694,1.694,0,0,0-1.37.6,2.138,2.138,0,0,0-.482,1.434,2.138,2.138,0,0,0,.482,1.434A1.694,1.694,0,0,0,46.392-5.052ZM50.908-8.9a2.165,2.165,0,0,1,1.915-.942,2.392,2.392,0,0,1,1.873.8,2.81,2.81,0,0,1,.717,1.958A2.81,2.81,0,0,1,54.7-5.127a2.454,2.454,0,0,1-1.926.8,2.123,2.123,0,0,1-1.862-.952v2.985h-.8V-9.76h.8Zm1.808-.214a1.694,1.694,0,0,0-1.37.6,2.138,2.138,0,0,0-.482,1.434,2.138,2.138,0,0,0,.482,1.434,1.694,1.694,0,0,0,1.37.6,1.778,1.778,0,0,0,1.391-.6,2.081,2.081,0,0,0,.5-1.434,2.081,2.081,0,0,0-.5-1.434A1.778,1.778,0,0,0,52.716-9.118ZM57.039-4.41V-9.054H55.948V-9.76h1.091v-1.915h.8V-9.76h1.231v.706H57.842V-4.41Zm2.91-5.35h.8v5.35h-.8Zm.835-1.947v1.049h-.867v-1.049Zm3.681,1.862a2.542,2.542,0,0,1,1.947.8,2.786,2.786,0,0,1,.706,1.958,2.786,2.786,0,0,1-.706,1.958,2.542,2.542,0,0,1-1.947.8,2.542,2.542,0,0,1-1.947-.8,2.786,2.786,0,0,1-.706-1.958,2.786,2.786,0,0,1,.706-1.958A2.542,2.542,0,0,1,64.465-9.846Zm0,4.794a1.694,1.694,0,0,0,1.37-.6,2.138,2.138,0,0,0,.482-1.434,2.138,2.138,0,0,0-.482-1.434,1.694,1.694,0,0,0-1.37-.6,1.694,1.694,0,0,0-1.37.6,2.138,2.138,0,0,0-.482,1.434A2.138,2.138,0,0,0,63.1-5.651,1.694,1.694,0,0,0,64.465-5.052ZM68.98-9.76v.835a2.685,2.685,0,0,1,.706-.653,1.726,1.726,0,0,1,.952-.268,2.538,2.538,0,0,1,.92.15,1.865,1.865,0,0,1,.674.449A2.308,2.308,0,0,1,72.9-7.524V-4.41h-.8V-7.5a1.637,1.637,0,0,0-.417-1.177A1.424,1.424,0,0,0,70.6-9.118a1.6,1.6,0,0,0-1.145.449,1.575,1.575,0,0,0-.471,1.177V-4.41h-.8V-9.76Z" transform="translate(230.809 249.255)" fill="#f1f1f1"/>
      <path id="Path_1396" data-name="Path 1396" d="M3.232-9.732a2.542,2.542,0,0,1,1.947.8,2.786,2.786,0,0,1,.706,1.958,2.786,2.786,0,0,1-.706,1.958,2.542,2.542,0,0,1-1.947.8,2.542,2.542,0,0,1-1.947-.8A2.786,2.786,0,0,1,.578-6.972,2.786,2.786,0,0,1,1.284-8.93,2.542,2.542,0,0,1,3.232-9.732Zm0,4.794a1.694,1.694,0,0,0,1.37-.6,2.138,2.138,0,0,0,.482-1.434A2.138,2.138,0,0,0,4.6-8.405,1.694,1.694,0,0,0,3.232-9a1.694,1.694,0,0,0-1.37.6,2.138,2.138,0,0,0-.482,1.434,2.138,2.138,0,0,0,.482,1.434A1.694,1.694,0,0,0,3.232-4.938ZM7.747-8.791a2.165,2.165,0,0,1,1.915-.942,2.392,2.392,0,0,1,1.873.8,2.81,2.81,0,0,1,.717,1.958,2.81,2.81,0,0,1-.717,1.958,2.454,2.454,0,0,1-1.926.8,2.123,2.123,0,0,1-1.862-.952v2.985h-.8V-9.647h.8ZM9.555-9a1.694,1.694,0,0,0-1.37.6A2.138,2.138,0,0,0,7.7-6.972a2.138,2.138,0,0,0,.482,1.434,1.694,1.694,0,0,0,1.37.6,1.778,1.778,0,0,0,1.391-.6,2.081,2.081,0,0,0,.5-1.434,2.081,2.081,0,0,0-.5-1.434A1.778,1.778,0,0,0,9.555-9ZM13.878-4.3V-8.94H12.787v-.706h1.091v-1.915h.8v1.915h1.231v.706H14.681V-4.3Zm2.91-5.35h.8V-4.3h-.8Zm.835-1.947v1.049h-.867v-1.049ZM21.3-9.732a2.542,2.542,0,0,1,1.947.8,2.786,2.786,0,0,1,.706,1.958,2.786,2.786,0,0,1-.706,1.958,2.542,2.542,0,0,1-1.947.8,2.542,2.542,0,0,1-1.947-.8,2.786,2.786,0,0,1-.706-1.958,2.786,2.786,0,0,1,.706-1.958A2.542,2.542,0,0,1,21.3-9.732Zm0,4.794a1.694,1.694,0,0,0,1.37-.6,2.138,2.138,0,0,0,.482-1.434,2.138,2.138,0,0,0-.482-1.434A1.694,1.694,0,0,0,21.3-9a1.694,1.694,0,0,0-1.37.6,2.138,2.138,0,0,0-.482,1.434,2.138,2.138,0,0,0,.482,1.434A1.694,1.694,0,0,0,21.3-4.938ZM25.82-9.647v.835a2.685,2.685,0,0,1,.706-.653,1.726,1.726,0,0,1,.952-.268,2.539,2.539,0,0,1,.92.15,1.865,1.865,0,0,1,.674.449,2.308,2.308,0,0,1,.663,1.723V-4.3h-.8V-7.389a1.637,1.637,0,0,0-.417-1.177A1.424,1.424,0,0,0,27.435-9a1.6,1.6,0,0,0-1.145.449,1.575,1.575,0,0,0-.471,1.177V-4.3h-.8v-5.35Z" transform="translate(230.784 226.483)" fill="#f1f1f1"/>
      <path id="contour-2" data-name="contour" d="M180.644,80.151H5.035A5.041,5.041,0,0,1,0,75.116V7.636a5.087,5.087,0,0,1,.038-.619A3.76,3.76,0,0,0,.8,8.931V74.948A4.411,4.411,0,0,0,5.2,79.354H180.477a4.411,4.411,0,0,0,4.406-4.406V8.955a3.763,3.763,0,0,0,.769-1.855,5.1,5.1,0,0,1,.028.536v67.48A5.041,5.041,0,0,1,180.644,80.151Z" transform="translate(218.41 196.297)" fill="#d3d5d9"/>
      <path id="Path_1397" data-name="Path 1397" d="M180.644,27.128H5.035A5.041,5.041,0,0,1,0,22.093V5.035A5.041,5.041,0,0,1,5.035,0H10.09V.8H5.2A4.411,4.411,0,0,0,.8,5.2V21.924A4.411,4.411,0,0,0,5.2,26.331H180.477a4.411,4.411,0,0,0,4.406-4.406V5.2A4.411,4.411,0,0,0,180.477.8H35.877V0H180.644a5.041,5.041,0,0,1,5.035,5.035V22.093A5.041,5.041,0,0,1,180.644,27.128Z" transform="translate(218.41 180.644)" fill="#d3d5d9"/>
      <path id="Path_1398" data-name="Path 1398" d="M1.014-3.546V-9.568h.663v6.022Zm3.527.057a1.779,1.779,0,0,1-.961-.258,1.69,1.69,0,0,1-.638-.736,2.621,2.621,0,0,1-.225-1.125,2.608,2.608,0,0,1,.229-1.129,1.794,1.794,0,0,1,.642-.753,1.7,1.7,0,0,1,.953-.27,1.614,1.614,0,0,1,.957.278,1.373,1.373,0,0,1,.532.794l-.1.065V-7.661h.655v4.116H5.932V-4.609l.1.049a1.373,1.373,0,0,1-.532.794A1.614,1.614,0,0,1,4.541-3.488Zm.131-.548A1.121,1.121,0,0,0,5.6-4.45a1.851,1.851,0,0,0,.327-1.174A1.817,1.817,0,0,0,5.6-6.794,1.128,1.128,0,0,0,4.672-7.2a1.146,1.146,0,0,0-.945.421,1.824,1.824,0,0,0-.34,1.174,1.772,1.772,0,0,0,.34,1.162A1.161,1.161,0,0,0,4.672-4.037Zm3.2.491V-9.568h.663v2.962l-.09-.082a1.39,1.39,0,0,1,.532-.79,1.583,1.583,0,0,1,.949-.282,1.737,1.737,0,0,1,.957.262,1.786,1.786,0,0,1,.642.736,2.516,2.516,0,0,1,.233,1.121,2.6,2.6,0,0,1-.233,1.133,1.789,1.789,0,0,1-.646.753,1.723,1.723,0,0,1-.953.266,1.6,1.6,0,0,1-.949-.278,1.373,1.373,0,0,1-.532-.794l.09-.09v1.1ZM9.8-4.037a1.126,1.126,0,0,0,.933-.421A1.854,1.854,0,0,0,11.07-5.64a1.773,1.773,0,0,0-.335-1.154A1.14,1.14,0,0,0,9.8-7.2a1.13,1.13,0,0,0-.941.413,1.837,1.837,0,0,0-.327,1.166A1.851,1.851,0,0,0,8.861-4.45,1.13,1.13,0,0,0,9.8-4.037Zm6.35,0a1.918,1.918,0,0,1-.691.4,2.6,2.6,0,0,1-.863.147,2.255,2.255,0,0,1-1.1-.254,1.724,1.724,0,0,1-.712-.732,2.439,2.439,0,0,1-.25-1.141,2.441,2.441,0,0,1,.245-1.121,1.846,1.846,0,0,1,.683-.753,1.885,1.885,0,0,1,1.011-.27,1.762,1.762,0,0,1,.941.241,1.556,1.556,0,0,1,.6.691,2.552,2.552,0,0,1,.209,1.08v.123H13.116v-.434h2.733l-.213.3a1.7,1.7,0,0,0-.282-1.1,1.036,1.036,0,0,0-.871-.385,1.137,1.137,0,0,0-.937.421,1.81,1.81,0,0,0-.34,1.166,1.8,1.8,0,0,0,.356,1.211,1.308,1.308,0,0,0,1.043.409,2.036,2.036,0,0,0,.691-.119,2.166,2.166,0,0,0,.634-.364Zm1.08.491V-9.568h.663v6.022Z" transform="translate(231.881 186.078)" fill="#f1f1f1"/>
      <path id="Path_1419" data-name="Path 1419" d="M4.936-4.712v-.835a2.685,2.685,0,0,1-.706.653,1.726,1.726,0,0,1-.952.268,2.538,2.538,0,0,1-.92-.15,1.865,1.865,0,0,1-.674-.449A2.308,2.308,0,0,1,1.02-6.949v-3.114h.8V-6.97A1.637,1.637,0,0,0,2.24-5.793a1.424,1.424,0,0,0,1.081.439A1.6,1.6,0,0,0,4.465-5.8a1.575,1.575,0,0,0,.471-1.177v-3.082h.8v5.35Zm5.339-3.916q-.107-.835-1.343-.835T7.7-8.693a.54.54,0,0,0,.262.487,2.4,2.4,0,0,0,.658.273q.4.107.861.2a4.416,4.416,0,0,1,.861.257A1.826,1.826,0,0,1,11-7.024a1.134,1.134,0,0,1,.262.792,1.366,1.366,0,0,1-.589,1.193,2.735,2.735,0,0,1-1.594.412,2.545,2.545,0,0,1-1.7-.535,1.638,1.638,0,0,1-.621-1.231H7.59a1.115,1.115,0,0,0,.835,1,1.866,1.866,0,0,0,.551.086,3.77,3.77,0,0,0,.508-.032,2.077,2.077,0,0,0,.46-.118.711.711,0,0,0,.514-.7.576.576,0,0,0-.262-.508,2.3,2.3,0,0,0-.658-.289q-.4-.112-.861-.2a4.675,4.675,0,0,1-.861-.251,1.837,1.837,0,0,1-.658-.439,1.079,1.079,0,0,1-.262-.77,1.334,1.334,0,0,1,.53-1.129,2.572,2.572,0,0,1,1.568-.4,2.356,2.356,0,0,1,1.552.471,1.546,1.546,0,0,1,.546,1.049Zm4.4,3.274a1.619,1.619,0,0,0,1.552-.9H17.1a2.582,2.582,0,0,1-.883,1.177,2.542,2.542,0,0,1-1.557.449,2.589,2.589,0,0,1-1.969-.8,2.739,2.739,0,0,1-.738-1.958,2.786,2.786,0,0,1,.706-1.958,2.542,2.542,0,0,1,1.947-.8,2.542,2.542,0,0,1,1.947.8,2.786,2.786,0,0,1,.706,1.958v.321H12.78a1.942,1.942,0,0,0,.589,1.22A1.81,1.81,0,0,0,14.673-5.354ZM14.609-9.42a1.77,1.77,0,0,0-1.241.46,1.9,1.9,0,0,0-.578,1.145h3.638A1.9,1.9,0,0,0,15.85-8.96,1.77,1.77,0,0,0,14.609-9.42Zm6.463-.728v.8h-.1a1.714,1.714,0,0,0-1.412.7,2.51,2.51,0,0,0-.514,1.584v2.354h-.8v-5.35h.8v1.316a1.955,1.955,0,0,1,1.113-1.231,1.948,1.948,0,0,1,.856-.171Zm7.009,5.436v-.835a2.685,2.685,0,0,1-.706.653,1.726,1.726,0,0,1-.952.268,2.538,2.538,0,0,1-.92-.15,1.865,1.865,0,0,1-.674-.449,2.308,2.308,0,0,1-.663-1.723v-3.114h.8V-6.97a1.637,1.637,0,0,0,.417,1.177,1.424,1.424,0,0,0,1.081.439A1.6,1.6,0,0,0,27.61-5.8a1.575,1.575,0,0,0,.471-1.177v-3.082h.8v5.35Zm3-5.35v.835a2.685,2.685,0,0,1,.706-.653,1.726,1.726,0,0,1,.952-.268,2.538,2.538,0,0,1,.92.15,1.865,1.865,0,0,1,.674.449,2.308,2.308,0,0,1,.663,1.723v3.114h-.8V-7.8a1.637,1.637,0,0,0-.417-1.177,1.424,1.424,0,0,0-1.081-.439,1.6,1.6,0,0,0-1.145.449,1.575,1.575,0,0,0-.471,1.177v3.082h-.8v-5.35Zm6.056.856a2.165,2.165,0,0,1,1.915-.942,2.392,2.392,0,0,1,1.873.8,2.81,2.81,0,0,1,.717,1.958,2.81,2.81,0,0,1-.717,1.958,2.454,2.454,0,0,1-1.926.8,2.123,2.123,0,0,1-1.862-.952v2.985h-.8v-7.469h.8Zm1.808-.214a1.694,1.694,0,0,0-1.37.6,2.138,2.138,0,0,0-.482,1.434,2.138,2.138,0,0,0,.482,1.434,1.694,1.694,0,0,0,1.37.6,1.778,1.778,0,0,0,1.391-.6,2.081,2.081,0,0,0,.5-1.434,2.081,2.081,0,0,0-.5-1.434A1.778,1.778,0,0,0,38.941-9.42Zm7.608,4.708v-.835a2.685,2.685,0,0,1-.706.653,1.726,1.726,0,0,1-.952.268,2.539,2.539,0,0,1-.92-.15,1.865,1.865,0,0,1-.674-.449,2.308,2.308,0,0,1-.663-1.723v-3.114h.8V-6.97a1.637,1.637,0,0,0,.417,1.177,1.424,1.424,0,0,0,1.081.439A1.6,1.6,0,0,0,46.078-5.8a1.575,1.575,0,0,0,.471-1.177v-3.082h.8v5.35ZM48.743-2.8v-9.919H49.4V-2.8Z" transform="translate(230.62 202.98)" fill="#f1f1f1"/>
      <g id="Group_1577" data-name="Group 1577" transform="translate(322.264 118.961)">
        <text id="border-radius:_8px_border:_1px_solid_" data-name="border-radius: 8px;
border: 1px solid;" transform="translate(0.376 16.697)" fill="#f1f1f1" font-size="7" font-family="Montserrat-Regular, Montserrat" opacity="0.83"><tspan x="0" y="0">border-radius: 8px;</tspan><tspan x="0" y="11">border: 1px solid;</tspan></text>
        <text id="_295_x_43" data-name="295 x 43" transform="translate(0.376 6.697)" fill="#cacbcb" font-size="7" font-family="Montserrat-SemiBold, Montserrat" font-weight="600"><tspan x="0" y="0">295 x 43</tspan></text>
      </g>
      <g id="Group_1578" data-name="Group 1578" transform="translate(218.41 130.29)">
        <text id="padding:_0_12px_10px_0_" data-name="padding: 0 12px 10px 0;" transform="translate(0.231 16.367)" fill="#f1f1f1" font-size="7" font-family="Montserrat-Regular, Montserrat" opacity="0.83"><tspan x="0" y="0">padding: 0 12px 10px 0;</tspan></text>
        <text id="icon_x16" data-name="icon x16" transform="translate(0.231 7.367)" fill="#cacbcb" font-size="7" font-family="Montserrat-SemiBold, Montserrat" font-weight="600"><tspan x="0" y="0">icon x16</tspan></text>
      </g>
      <path id="Path_1399" data-name="Path 1399" d="M4.2-3.988v.831H.3v-.657L2.4-5.808a2.307,2.307,0,0,0,.48-.593A1.129,1.129,0,0,0,3-6.9a.678.678,0,0,0-.249-.566,1.166,1.166,0,0,0-.733-.2,1.478,1.478,0,0,0-1.239.551L.1-7.644A2.036,2.036,0,0,1,.931-8.29a2.893,2.893,0,0,1,1.175-.23,2.149,2.149,0,0,1,1.375.408A1.342,1.342,0,0,1,3.993-7a1.844,1.844,0,0,1-.181.808,3.154,3.154,0,0,1-.695.861L1.7-3.988ZM6.546-8.52a2.134,2.134,0,0,1,1.688.68,2.852,2.852,0,0,1,.6,1.949A3.29,3.29,0,0,1,8.51-4.37a2.251,2.251,0,0,1-.91.959,2.723,2.723,0,0,1-1.356.329,3.25,3.25,0,0,1-.767-.087,2.085,2.085,0,0,1-.623-.253l.363-.74a1.8,1.8,0,0,0,1,.257,1.54,1.54,0,0,0,1.193-.468,1.929,1.929,0,0,0,.431-1.352v-.008a1.468,1.468,0,0,1-.6.412,2.254,2.254,0,0,1-.816.14,2.13,2.13,0,0,1-.937-.2,1.541,1.541,0,0,1-.65-.57,1.562,1.562,0,0,1-.234-.853,1.6,1.6,0,0,1,.257-.9,1.7,1.7,0,0,1,.695-.6A2.229,2.229,0,0,1,6.546-8.52Zm.076,2.568A1.145,1.145,0,0,0,7.4-6.209a.82.82,0,0,0,.3-.65A.81.81,0,0,0,7.4-7.5a1.185,1.185,0,0,0-.8-.253,1.11,1.11,0,0,0-.748.245.817.817,0,0,0-.287.653.814.814,0,0,0,.287.657A1.157,1.157,0,0,0,6.622-5.952ZM11.154-6.4a2.6,2.6,0,0,1,1.654.434,1.44,1.44,0,0,1,.536,1.182,1.625,1.625,0,0,1-.234.861,1.619,1.619,0,0,1-.7.612,2.641,2.641,0,0,1-1.156.227,3.709,3.709,0,0,1-1.1-.162,2.7,2.7,0,0,1-.891-.449l.415-.763a2.232,2.232,0,0,0,.706.381,2.626,2.626,0,0,0,.85.14,1.377,1.377,0,0,0,.82-.215.691.691,0,0,0,.3-.593.686.686,0,0,0-.321-.616,2.13,2.13,0,0,0-1.1-.208H9.658L9.93-8.444h3.1v.823H10.761L10.648-6.4Zm7.7,3.24-1.035-1.4-1.042,1.4H15.731L17.3-5.2,15.8-7.191h1.05l.989,1.322.989-1.322h1.02L18.337-5.219l1.579,2.062Zm5.808-3.1a1.781,1.781,0,0,1,1.118.5,1.427,1.427,0,0,1,.385,1.02,1.559,1.559,0,0,1-.234.838,1.61,1.61,0,0,1-.706.6,2.685,2.685,0,0,1-1.152.223,3.672,3.672,0,0,1-1.091-.162,2.791,2.791,0,0,1-.9-.449l.423-.763a2.139,2.139,0,0,0,.7.381,2.626,2.626,0,0,0,.85.14,1.377,1.377,0,0,0,.82-.215.684.684,0,0,0,.3-.585.676.676,0,0,0-.283-.578,1.464,1.464,0,0,0-.865-.208h-.483v-.672l1.2-1.428h-2.4v-.823h3.6v.657Zm4.547-.159a2.13,2.13,0,0,1,.937.2,1.541,1.541,0,0,1,.65.57,1.562,1.562,0,0,1,.234.853,1.6,1.6,0,0,1-.257.9,1.7,1.7,0,0,1-.695.6,2.229,2.229,0,0,1-.982.211,2.134,2.134,0,0,1-1.688-.68,2.852,2.852,0,0,1-.6-1.949,3.29,3.29,0,0,1,.325-1.522,2.251,2.251,0,0,1,.91-.959,2.723,2.723,0,0,1,1.356-.329,3.25,3.25,0,0,1,.767.087,2.085,2.085,0,0,1,.623.253l-.363.74a1.8,1.8,0,0,0-1-.257,1.54,1.54,0,0,0-1.193.468,1.929,1.929,0,0,0-.431,1.352v.008a1.468,1.468,0,0,1,.6-.412A2.254,2.254,0,0,1,29.206-6.42Zm-.166,2.568a1.11,1.11,0,0,0,.748-.245.817.817,0,0,0,.287-.653.814.814,0,0,0-.287-.657,1.157,1.157,0,0,0-.77-.242,1.145,1.145,0,0,0-.774.257.82.82,0,0,0-.3.65.81.81,0,0,0,.291.638A1.185,1.185,0,0,0,29.039-3.852Z" transform="translate(411.607 246.744)" fill="#cacbcb"/>
      <path id="Path_1387" data-name="Path 1387" d="M5.035,0h22.03V27.065H5.035A5.035,5.035,0,0,1,0,22.03V5.035A5.035,5.035,0,0,1,5.035,0Z" transform="translate(522.421 247.993)" fill="#f1f1f1" opacity="0.08"/>
      <path id="Path_1388" data-name="Path 1388" d="M0,0H22.03a5.035,5.035,0,0,1,5.035,5.035V22.03a5.035,5.035,0,0,1-5.035,5.035H0Z" transform="translate(580.328 247.993)" fill="#f1f1f1" opacity="0.08"/>
      <path id="Path_1389" data-name="Path 1389" d="M-4.8-8.334a2.663,2.663,0,0,1,1.05.831,1.847,1.847,0,0,1,.317,1.062,2.2,2.2,0,0,1-.546,1.475,2.379,2.379,0,0,1-1.913.782A2.327,2.327,0,0,1-7.707-4.87a2.208,2.208,0,0,1-.62-1.512A1.913,1.913,0,0,1-8-7.471,2.735,2.735,0,0,1-6.92-8.334a2.041,2.041,0,0,1-.8-.684,1.576,1.576,0,0,1-.266-.875,1.713,1.713,0,0,1,.283-.922,1.971,1.971,0,0,1,.782-.708,2.315,2.315,0,0,1,1.079-.258,2.167,2.167,0,0,1,1.047.261,1.952,1.952,0,0,1,.755.708,1.777,1.777,0,0,1,.273.939A1.531,1.531,0,0,1-4.021-9,2.134,2.134,0,0,1-4.8-8.334Zm-1.079-2.744a1.423,1.423,0,0,0-.988.352,1.09,1.09,0,0,0-.392.838,1.171,1.171,0,0,0,.421.873,1.4,1.4,0,0,0,.983.391A1.384,1.384,0,0,0-5.17-8.8a1.291,1.291,0,0,0,.5-.484,1.212,1.212,0,0,0,.18-.617,1.143,1.143,0,0,0-.355-.806A1.363,1.363,0,0,0-5.875-11.078Zm.034,3.108a1.74,1.74,0,0,0-1.252.484A1.516,1.516,0,0,0-7.6-6.357a1.421,1.421,0,0,0,.216.752,1.436,1.436,0,0,0,.6.546,2,2,0,0,0,.9.192,1.7,1.7,0,0,0,1.257-.467,1.5,1.5,0,0,0,.466-1.092A1.446,1.446,0,0,0-4.65-7.5,1.665,1.665,0,0,0-5.841-7.97ZM.783-8.334a2.663,2.663,0,0,1,1.05.831A1.847,1.847,0,0,1,2.15-6.441,2.2,2.2,0,0,1,1.6-4.966a2.379,2.379,0,0,1-1.913.782A2.327,2.327,0,0,1-2.128-4.87a2.208,2.208,0,0,1-.62-1.512,1.913,1.913,0,0,1,.325-1.089,2.735,2.735,0,0,1,1.082-.863,2.041,2.041,0,0,1-.8-.684A1.576,1.576,0,0,1-2.4-9.893a1.713,1.713,0,0,1,.283-.922,1.971,1.971,0,0,1,.782-.708,2.315,2.315,0,0,1,1.079-.258,2.167,2.167,0,0,1,1.047.261,1.952,1.952,0,0,1,.755.708,1.777,1.777,0,0,1,.273.939A1.531,1.531,0,0,1,1.558-9,2.134,2.134,0,0,1,.783-8.334ZM-.3-11.078a1.423,1.423,0,0,0-.988.352,1.09,1.09,0,0,0-.392.838,1.171,1.171,0,0,0,.421.873,1.4,1.4,0,0,0,.983.391A1.384,1.384,0,0,0,.408-8.8a1.29,1.29,0,0,0,.5-.484,1.212,1.212,0,0,0,.18-.617,1.143,1.143,0,0,0-.355-.806A1.363,1.363,0,0,0-.3-11.078ZM-.262-7.97a1.74,1.74,0,0,0-1.252.484A1.516,1.516,0,0,0-2.02-6.357a1.421,1.421,0,0,0,.216.752,1.436,1.436,0,0,0,.6.546,2,2,0,0,0,.9.192A1.7,1.7,0,0,0,.956-5.335a1.5,1.5,0,0,0,.466-1.092A1.446,1.446,0,0,0,.929-7.5,1.665,1.665,0,0,0-.262-7.97Z" transform="translate(568.307 269.982)" fill="#d3d5d9"/>
      <g id="Group_355" data-name="Group 355" transform="translate(591.028 259.322)">
        <line id="Line_4" data-name="Line 4" y2="5.428" transform="translate(2.554)" fill="none" stroke="rgba(255,255,255,0.9)" stroke-linecap="round" stroke-linejoin="round" stroke-miterlimit="10" stroke-width="1"/>
        <line id="Line_5" data-name="Line 5" x1="5.428" transform="translate(0 2.554)" fill="none" stroke="rgba(255,255,255,0.9)" stroke-linecap="round" stroke-linejoin="round" stroke-miterlimit="10" stroke-width="1"/>
      </g>
      <g id="Group_356" data-name="Group 356" transform="translate(533.121 262.469)">
        <line id="Line_5-2" data-name="Line 5" x1="5.428" fill="none" stroke="rgba(255,255,255,0.9)" stroke-linecap="round" stroke-linejoin="round" stroke-miterlimit="10" stroke-width="1"/>
      </g>
      <g id="Path_1390" data-name="Path 1390" transform="translate(522.421 247.993)" fill="none">
        <path d="M5.035,0h74.9a5.035,5.035,0,0,1,5.035,5.035V22.03a5.035,5.035,0,0,1-5.035,5.035H5.035A5.035,5.035,0,0,1,0,22.03V5.035A5.035,5.035,0,0,1,5.035,0Z" stroke="none"/>
        <path d="M 5.035385131835938 1.30000114440918 C 2.975685119628906 1.30000114440918 1.299995422363281 2.975683212280273 1.299995422363281 5.035377502441406 L 1.299995422363281 22.02978897094727 C 1.299995422363281 24.0894947052002 2.975685119628906 25.76517677307129 5.035385131835938 25.76517677307129 L 79.93668365478516 25.76517677307129 C 81.99638366699219 25.76517677307129 83.67207336425781 24.0894947052002 83.67207336425781 22.02978897094727 L 83.67207336425781 5.035377502441406 C 83.67207336425781 2.975683212280273 81.99638366699219 1.30000114440918 79.93668365478516 1.30000114440918 L 5.035385131835938 1.30000114440918 M 5.035385131835938 0 L 79.93668365478516 0 C 82.71764373779297 0 84.97206878662109 2.254411697387695 84.97206878662109 5.035377502441406 L 84.97206878662109 22.02978897094727 C 84.97206878662109 24.81076622009277 82.71764373779297 27.06517791748047 79.93668365478516 27.06517791748047 L 5.035385131835938 27.06517791748047 C 2.254409790039063 27.06517791748047 0 24.81076622009277 0 22.02978897094727 L 0 5.035377502441406 C 0 2.254411697387695 2.254409790039063 0 5.035385131835938 0 Z" stroke="none" fill="#d3d5d9"/>
      </g>
      <path id="Path_1391" data-name="Path 1391" d="M3.235-7.3a2.04,2.04,0,0,1,1.012.253,1.809,1.809,0,0,1,.71.714,2.12,2.12,0,0,1,.257,1.05,2.12,2.12,0,0,1-.257,1.05,1.835,1.835,0,0,1-.71.718,2.017,2.017,0,0,1-1.012.257,1.872,1.872,0,0,1-.9-.211A1.636,1.636,0,0,1,1.7-4.085V-3.3H1.188V-8.9h.536v2.387A1.653,1.653,0,0,1,2.363-7.1,1.878,1.878,0,0,1,3.235-7.3ZM3.2-3.738a1.505,1.505,0,0,0,.755-.193,1.36,1.36,0,0,0,.532-.548,1.667,1.667,0,0,0,.193-.808,1.667,1.667,0,0,0-.193-.808,1.36,1.36,0,0,0-.532-.548A1.505,1.505,0,0,0,3.2-6.834a1.5,1.5,0,0,0-.759.193,1.368,1.368,0,0,0-.529.548,1.667,1.667,0,0,0-.193.808,1.667,1.667,0,0,0,.193.808,1.368,1.368,0,0,0,.529.548A1.5,1.5,0,0,0,3.2-3.738Zm4.736.476A2.065,2.065,0,0,1,6.9-3.522a1.9,1.9,0,0,1-.725-.721,2.056,2.056,0,0,1-.264-1.042,2.056,2.056,0,0,1,.264-1.042A1.873,1.873,0,0,1,6.9-7.046,2.089,2.089,0,0,1,7.933-7.3a2.089,2.089,0,0,1,1.035.257,1.847,1.847,0,0,1,.721.718A2.08,2.08,0,0,1,9.95-5.286a2.08,2.08,0,0,1-.261,1.042,1.873,1.873,0,0,1-.721.721A2.065,2.065,0,0,1,7.933-3.262Zm0-.476a1.5,1.5,0,0,0,.759-.193,1.343,1.343,0,0,0,.525-.548,1.694,1.694,0,0,0,.189-.808,1.694,1.694,0,0,0-.189-.808,1.343,1.343,0,0,0-.525-.548,1.5,1.5,0,0,0-.759-.193,1.5,1.5,0,0,0-.759.193,1.368,1.368,0,0,0-.529.548,1.667,1.667,0,0,0-.193.808,1.667,1.667,0,0,0,.193.808,1.368,1.368,0,0,0,.529.548A1.5,1.5,0,0,0,7.933-3.738Zm3.625-2.757a1.3,1.3,0,0,1,.563-.6,1.912,1.912,0,0,1,.925-.2v.521l-.128-.008a1.269,1.269,0,0,0-.982.385,1.535,1.535,0,0,0-.355,1.08V-3.3h-.536V-7.273h.514ZM17.6-8.9v5.6h-.514v-.786a1.636,1.636,0,0,1-.638.612,1.872,1.872,0,0,1-.9.211,2.017,2.017,0,0,1-1.012-.257,1.835,1.835,0,0,1-.71-.718,2.12,2.12,0,0,1-.257-1.05,2.12,2.12,0,0,1,.257-1.05,1.809,1.809,0,0,1,.71-.714A2.04,2.04,0,0,1,15.554-7.3a1.878,1.878,0,0,1,.872.2,1.653,1.653,0,0,1,.638.585V-8.9Zm-2,5.166a1.484,1.484,0,0,0,.752-.193,1.368,1.368,0,0,0,.529-.548,1.667,1.667,0,0,0,.193-.808,1.667,1.667,0,0,0-.193-.808,1.368,1.368,0,0,0-.529-.548,1.484,1.484,0,0,0-.752-.193,1.5,1.5,0,0,0-.759.193,1.368,1.368,0,0,0-.529.548,1.667,1.667,0,0,0-.193.808,1.667,1.667,0,0,0,.193.808,1.368,1.368,0,0,0,.529.548A1.5,1.5,0,0,0,15.6-3.738ZM22.556-5.12H19.232a1.42,1.42,0,0,0,.476,1,1.58,1.58,0,0,0,1.088.381,1.714,1.714,0,0,0,.68-.132,1.485,1.485,0,0,0,.536-.389l.3.347a1.7,1.7,0,0,1-.661.483,2.235,2.235,0,0,1-.872.166A2.206,2.206,0,0,1,19.7-3.522a1.879,1.879,0,0,1-.736-.721A2.056,2.056,0,0,1,18.7-5.286a2.129,2.129,0,0,1,.253-1.042,1.832,1.832,0,0,1,.695-.718,1.94,1.94,0,0,1,.993-.257,1.92,1.92,0,0,1,.989.257,1.82,1.82,0,0,1,.687.714,2.149,2.149,0,0,1,.249,1.046ZM20.637-6.842a1.351,1.351,0,0,0-.963.366,1.439,1.439,0,0,0-.442.955H22.05a1.439,1.439,0,0,0-.442-.955A1.361,1.361,0,0,0,20.637-6.842Zm3.535.347a1.3,1.3,0,0,1,.563-.6,1.912,1.912,0,0,1,.925-.2v.521l-.128-.008a1.269,1.269,0,0,0-.982.385,1.535,1.535,0,0,0-.355,1.08V-3.3h-.536V-7.273h.514Zm2.138.914h1.979v.468H26.31ZM30-6.495a1.3,1.3,0,0,1,.563-.6,1.912,1.912,0,0,1,.925-.2v.521l-.128-.008a1.269,1.269,0,0,0-.982.385,1.535,1.535,0,0,0-.355,1.08V-3.3h-.536V-7.273H30ZM33.84-7.3a1.682,1.682,0,0,1,1.193.389,1.5,1.5,0,0,1,.415,1.152V-3.3h-.514v-.619a1.23,1.23,0,0,1-.532.483,1.864,1.864,0,0,1-.835.174,1.634,1.634,0,0,1-1.057-.317,1.024,1.024,0,0,1-.393-.838,1.016,1.016,0,0,1,.366-.816,1.793,1.793,0,0,1,1.167-.31h1.261v-.242a1.018,1.018,0,0,0-.287-.782,1.185,1.185,0,0,0-.838-.268,2.131,2.131,0,0,0-.725.125,1.827,1.827,0,0,0-.6.344l-.242-.4a2.143,2.143,0,0,1,.725-.4A2.823,2.823,0,0,1,33.84-7.3Zm-.189,3.618a1.413,1.413,0,0,0,.778-.208,1.24,1.24,0,0,0,.483-.6v-.65H33.666q-1.02,0-1.02.71a.65.65,0,0,0,.264.548A1.2,1.2,0,0,0,33.651-3.685Zm6.9-5.219v5.6h-.514v-.786a1.636,1.636,0,0,1-.638.612,1.872,1.872,0,0,1-.9.211,2.017,2.017,0,0,1-1.012-.257,1.835,1.835,0,0,1-.71-.718,2.12,2.12,0,0,1-.257-1.05,2.12,2.12,0,0,1,.257-1.05,1.809,1.809,0,0,1,.71-.714A2.04,2.04,0,0,1,38.5-7.3a1.878,1.878,0,0,1,.872.2,1.653,1.653,0,0,1,.638.585V-8.9Zm-2,5.166A1.484,1.484,0,0,0,39.3-3.93a1.368,1.368,0,0,0,.529-.548,1.667,1.667,0,0,0,.193-.808,1.667,1.667,0,0,0-.193-.808,1.368,1.368,0,0,0-.529-.548,1.484,1.484,0,0,0-.752-.193,1.5,1.5,0,0,0-.759.193,1.368,1.368,0,0,0-.529.548,1.667,1.667,0,0,0-.193.808,1.667,1.667,0,0,0,.193.808,1.368,1.368,0,0,0,.529.548A1.5,1.5,0,0,0,38.545-3.738Zm3.5-3.535h.536V-3.3h-.536Zm.272-.869a.38.38,0,0,1-.279-.113.371.371,0,0,1-.113-.272.362.362,0,0,1,.113-.264.38.38,0,0,1,.279-.113.387.387,0,0,1,.279.11.35.35,0,0,1,.113.261.38.38,0,0,1-.113.279A.38.38,0,0,1,42.314-8.141Zm5.34.869V-3.3h-.514v-.725a1.471,1.471,0,0,1-.582.563,1.75,1.75,0,0,1-.846.2A1.692,1.692,0,0,1,44.486-3.7a1.69,1.69,0,0,1-.449-1.273v-2.3h.536v2.251a1.328,1.328,0,0,0,.31.952,1.163,1.163,0,0,0,.884.325,1.3,1.3,0,0,0,.989-.381,1.478,1.478,0,0,0,.363-1.061V-7.273Zm2.568,4.011A3.05,3.05,0,0,1,49.3-3.4a1.99,1.99,0,0,1-.691-.351l.242-.423a2.035,2.035,0,0,0,.627.321,2.49,2.49,0,0,0,.786.125,1.5,1.5,0,0,0,.8-.17.541.541,0,0,0,.261-.48.431.431,0,0,0-.144-.344.953.953,0,0,0-.363-.189,5.172,5.172,0,0,0-.582-.125,6.668,6.668,0,0,1-.778-.185,1.143,1.143,0,0,1-.5-.321.893.893,0,0,1-.208-.627.982.982,0,0,1,.415-.816A1.865,1.865,0,0,1,50.321-7.3a3,3,0,0,1,.77.1,2.12,2.12,0,0,1,.634.268l-.234.431a2.005,2.005,0,0,0-1.171-.34,1.358,1.358,0,0,0-.774.181.555.555,0,0,0-.261.476.47.47,0,0,0,.147.363.906.906,0,0,0,.366.2,5.912,5.912,0,0,0,.6.132,6.951,6.951,0,0,1,.763.181,1.121,1.121,0,0,1,.491.31.852.852,0,0,1,.2.6.961.961,0,0,1-.434.827A2.065,2.065,0,0,1,50.223-3.262ZM52.9-6.479a.38.38,0,0,1-.283-.121.408.408,0,0,1-.117-.295.4.4,0,0,1,.117-.291A.386.386,0,0,1,52.9-7.3a.4.4,0,0,1,.287.117.389.389,0,0,1,.121.291.4.4,0,0,1-.121.295A.392.392,0,0,1,52.9-6.479Zm0,3.218a.38.38,0,0,1-.283-.121.408.408,0,0,1-.117-.295.4.4,0,0,1,.117-.291.386.386,0,0,1,.283-.117.4.4,0,0,1,.287.117.389.389,0,0,1,.121.291.4.4,0,0,1-.121.295A.392.392,0,0,1,52.9-3.262Zm6.2-2.81a1.607,1.607,0,0,1,.767.5,1.235,1.235,0,0,1,.268.8,1.334,1.334,0,0,1-.249.8,1.573,1.573,0,0,1-.714.529,2.94,2.94,0,0,1-1.091.185,2.442,2.442,0,0,1-1.5-.408,1.314,1.314,0,0,1-.544-1.11,1.254,1.254,0,0,1,.261-.8,1.571,1.571,0,0,1,.759-.495,1.319,1.319,0,0,1-.619-.457,1.189,1.189,0,0,1-.211-.706,1.209,1.209,0,0,1,.5-1.02,2.191,2.191,0,0,1,1.348-.378,2.592,2.592,0,0,1,.978.17,1.479,1.479,0,0,1,.653.487,1.213,1.213,0,0,1,.234.74,1.161,1.161,0,0,1-.219.706A1.368,1.368,0,0,1,59.1-6.072ZM56.779-7.22a.819.819,0,0,0,.347.695,1.584,1.584,0,0,0,.959.257,1.6,1.6,0,0,0,.963-.257.809.809,0,0,0,.351-.687.818.818,0,0,0-.359-.7,1.609,1.609,0,0,0-.955-.257,1.588,1.588,0,0,0-.955.257A.816.816,0,0,0,56.779-7.22Zm1.307,3.5A1.845,1.845,0,0,0,59.184-4a.911.911,0,0,0,.4-.778.9.9,0,0,0-.4-.774,1.863,1.863,0,0,0-1.1-.283,1.848,1.848,0,0,0-1.091.283.9.9,0,0,0-.4.774A.911.911,0,0,0,56.99-4,1.845,1.845,0,0,0,58.085-3.715ZM63.3-7.3a2.04,2.04,0,0,1,1.012.253,1.809,1.809,0,0,1,.71.714,2.12,2.12,0,0,1,.257,1.05,2.135,2.135,0,0,1-.257,1.057,1.817,1.817,0,0,1-.706.714,2.034,2.034,0,0,1-1.016.253,1.878,1.878,0,0,1-.872-.2,1.653,1.653,0,0,1-.638-.585v2.213H61.25V-7.273h.514v.786a1.652,1.652,0,0,1,.638-.6A1.872,1.872,0,0,1,63.3-7.3Zm-.038,3.565a1.505,1.505,0,0,0,.755-.193,1.361,1.361,0,0,0,.532-.548,1.667,1.667,0,0,0,.193-.808,1.646,1.646,0,0,0-.193-.8,1.393,1.393,0,0,0-.532-.548,1.482,1.482,0,0,0-.755-.2,1.477,1.477,0,0,0-.759.2,1.4,1.4,0,0,0-.529.548,1.646,1.646,0,0,0-.193.8,1.667,1.667,0,0,0,.193.808,1.368,1.368,0,0,0,.529.548A1.5,1.5,0,0,0,63.259-3.738Zm5.5.438L67.5-4.961,66.228-3.3h-.6l1.571-2.039L65.7-7.273h.6L67.5-5.717,68.69-7.273h.589l-1.5,1.934L69.37-3.3Zm1.48-3.18a.38.38,0,0,1-.283-.121.408.408,0,0,1-.117-.295.4.4,0,0,1,.117-.291.386.386,0,0,1,.283-.117.4.4,0,0,1,.287.117.389.389,0,0,1,.121.291.4.4,0,0,1-.121.295A.392.392,0,0,1,70.238-6.479Zm.008,2.394a.382.382,0,0,1,.287.117.4.4,0,0,1,.113.291.813.813,0,0,1-.026.2,2.052,2.052,0,0,1-.079.242L70.223-2.2h-.363l.257-1.1a.379.379,0,0,1-.2-.14.4.4,0,0,1-.076-.245.4.4,0,0,1,.113-.291A.382.382,0,0,1,70.246-4.085Z" transform="translate(521.981 227.374)" fill="#f1f1f1" opacity="0.83"/>
      <path id="Path_1392" data-name="Path 1392" d="M2.2-8.4v5.287H1.214V-7.577H.1V-8.4ZM5.5-6.217a1.781,1.781,0,0,1,1.118.5A1.427,1.427,0,0,1,7-4.7a1.559,1.559,0,0,1-.234.838,1.61,1.61,0,0,1-.706.6,2.685,2.685,0,0,1-1.152.223A3.672,3.672,0,0,1,3.816-3.2a2.791,2.791,0,0,1-.9-.449l.423-.763a2.139,2.139,0,0,0,.7.381,2.626,2.626,0,0,0,.85.14,1.377,1.377,0,0,0,.82-.215.684.684,0,0,0,.3-.585.676.676,0,0,0-.283-.578,1.464,1.464,0,0,0-.865-.208H4.379v-.672l1.2-1.428h-2.4V-8.4h3.6v.657ZM9.22-6.353a2.6,2.6,0,0,1,1.654.434,1.44,1.44,0,0,1,.536,1.182,1.625,1.625,0,0,1-.234.861,1.619,1.619,0,0,1-.7.612,2.641,2.641,0,0,1-1.156.227,3.709,3.709,0,0,1-1.1-.162,2.7,2.7,0,0,1-.891-.449l.415-.763a2.232,2.232,0,0,0,.706.381,2.626,2.626,0,0,0,.85.14,1.377,1.377,0,0,0,.82-.215.691.691,0,0,0,.3-.593.686.686,0,0,0-.321-.616A2.13,2.13,0,0,0,9-5.522H7.725L8-8.4h3.1v.823H8.827L8.714-6.353Zm7.7,3.24-1.035-1.4-1.042,1.4H13.8L15.368-5.16l-1.5-1.986h1.05L15.9-5.824l.989-1.322h1.02L16.4-5.175l1.579,2.062Zm8.271-1.2h-.937v1.2H23.3v-1.2H20.4v-.68L23-8.4h1.05L21.6-5.145h1.73V-6.21h.921v1.065h.937Zm2.591-1.9a1.781,1.781,0,0,1,1.118.5,1.427,1.427,0,0,1,.385,1.02,1.559,1.559,0,0,1-.234.838,1.61,1.61,0,0,1-.706.6,2.685,2.685,0,0,1-1.152.223A3.672,3.672,0,0,1,26.1-3.2a2.791,2.791,0,0,1-.9-.449l.423-.763a2.139,2.139,0,0,0,.7.381,2.626,2.626,0,0,0,.85.14,1.377,1.377,0,0,0,.82-.215.684.684,0,0,0,.3-.585.676.676,0,0,0-.283-.578,1.464,1.464,0,0,0-.865-.208H26.66v-.672l1.2-1.428h-2.4V-8.4h3.6v.657Z" transform="translate(522.385 217.746)" fill="#cacbcb"/>
      <path id="Path_1393" data-name="Path 1393" d="M3.22-7.378a2.141,2.141,0,0,1,1.054.257A1.852,1.852,0,0,1,5-6.4a2.159,2.159,0,0,1,.264,1.08A2.18,2.18,0,0,1,5-4.232a1.845,1.845,0,0,1-.729.729,2.141,2.141,0,0,1-1.054.257,1.951,1.951,0,0,1-.759-.144,1.461,1.461,0,0,1-.578-.431V-3.3h-.9V-8.9h.944v2.062a1.585,1.585,0,0,1,.57-.4A1.869,1.869,0,0,1,3.22-7.378ZM3.114-4.055A1.141,1.141,0,0,0,3.971-4.4a1.259,1.259,0,0,0,.336-.914,1.259,1.259,0,0,0-.336-.914,1.141,1.141,0,0,0-.857-.347,1.214,1.214,0,0,0-.612.155,1.119,1.119,0,0,0-.431.442,1.352,1.352,0,0,0-.159.665,1.352,1.352,0,0,0,.159.665A1.119,1.119,0,0,0,2.5-4.21,1.214,1.214,0,0,0,3.114-4.055ZM10.07-7.333V-3.3h-.9v-.514a1.5,1.5,0,0,1-.566.419,1.823,1.823,0,0,1-.733.147A1.753,1.753,0,0,1,6.6-3.7a1.773,1.773,0,0,1-.465-1.333v-2.3h.944v2.175a1.169,1.169,0,0,0,.245.812.9.9,0,0,0,.7.268,1.058,1.058,0,0,0,.8-.313,1.259,1.259,0,0,0,.3-.9V-7.333Zm3.663,3.814a1.111,1.111,0,0,1-.4.2,1.82,1.82,0,0,1-.5.068A1.425,1.425,0,0,1,11.8-3.594a1.337,1.337,0,0,1-.363-1.012V-6.547h-.665V-7.3h.665v-.921h.944V-7.3h1.08v.755h-1.08v1.918a.638.638,0,0,0,.144.449.539.539,0,0,0,.415.155.829.829,0,0,0,.529-.166Zm3.1,0a1.111,1.111,0,0,1-.4.2,1.82,1.82,0,0,1-.5.068A1.425,1.425,0,0,1,14.9-3.594a1.337,1.337,0,0,1-.363-1.012V-6.547h-.665V-7.3h.665v-.921h.944V-7.3h1.08v.755h-1.08v1.918a.638.638,0,0,0,.144.449.539.539,0,0,0,.415.155.829.829,0,0,0,.529-.166Zm2.455.272a2.288,2.288,0,0,1-1.1-.264,1.928,1.928,0,0,1-.767-.736,2.08,2.08,0,0,1-.276-1.069,2.059,2.059,0,0,1,.276-1.065,1.935,1.935,0,0,1,.767-.733,2.288,2.288,0,0,1,1.1-.264,2.3,2.3,0,0,1,1.11.264,1.935,1.935,0,0,1,.767.733,2.059,2.059,0,0,1,.276,1.065,2.08,2.08,0,0,1-.276,1.069,1.928,1.928,0,0,1-.767.736A2.3,2.3,0,0,1,19.293-3.247Zm0-.808a1.154,1.154,0,0,0,.861-.347,1.251,1.251,0,0,0,.34-.914,1.251,1.251,0,0,0-.34-.914,1.154,1.154,0,0,0-.861-.347,1.141,1.141,0,0,0-.857.347,1.259,1.259,0,0,0-.336.914,1.259,1.259,0,0,0,.336.914A1.141,1.141,0,0,0,19.293-4.055ZM24.64-7.378a1.685,1.685,0,0,1,1.224.446,1.758,1.758,0,0,1,.461,1.322V-3.3H25.38V-5.49a1.132,1.132,0,0,0-.249-.8.922.922,0,0,0-.71-.268,1.09,1.09,0,0,0-.823.313,1.249,1.249,0,0,0-.3.9V-3.3h-.944V-7.333h.9v.521a1.476,1.476,0,0,1,.589-.423A2.12,2.12,0,0,1,24.64-7.378ZM32.178-3.3,31.143-4.7,30.1-3.3H29.059L30.63-5.347l-1.5-1.986h1.05l.989,1.322.989-1.322h1.02L31.665-5.362,33.243-3.3Zm8.271-1.2h-.937v1.2h-.952V-4.5h-2.9v-.68l2.606-3.406h1.05L36.861-5.331h1.73V-6.4h.921v1.065h.937ZM43.04-6.4a1.781,1.781,0,0,1,1.118.5,1.427,1.427,0,0,1,.385,1.02,1.559,1.559,0,0,1-.234.838,1.61,1.61,0,0,1-.706.6,2.685,2.685,0,0,1-1.152.223,3.672,3.672,0,0,1-1.091-.162,2.791,2.791,0,0,1-.9-.449l.423-.763a2.139,2.139,0,0,0,.7.381,2.626,2.626,0,0,0,.85.14,1.377,1.377,0,0,0,.82-.215.684.684,0,0,0,.3-.585.676.676,0,0,0-.283-.578,1.464,1.464,0,0,0-.865-.208h-.483v-.672l1.2-1.428h-2.4v-.823h3.6v.657Z" transform="translate(522.056 243.11)" fill="#cacbcb"/>
    </g>
  </g>
</svg>
