<svg xmlns="http://www.w3.org/2000/svg" xmlns:xlink="http://www.w3.org/1999/xlink" width="675" height="256" viewBox="0 0 675 256">
  <defs>
    <linearGradient id="linear-gradient" x1="0.5" x2="0.5" y2="1" gradientUnits="objectBoundingBox">
      <stop offset="0" stop-color="#f1f1f1"/>
      <stop offset="1" stop-color="#797979" stop-opacity="0"/>
    </linearGradient>
    <linearGradient id="linear-gradient-2" x1="0.5" x2="0.5" y2="1" gradientUnits="objectBoundingBox">
      <stop offset="0" stop-color="#fff" stop-opacity="0.4"/>
      <stop offset="1" stop-color="gray" stop-opacity="0"/>
    </linearGradient>
    <linearGradient id="linear-gradient-3" x1="0.5" x2="0.5" y2="1" gradientUnits="objectBoundingBox">
      <stop offset="0" stop-color="#f1f1f1"/>
      <stop offset="1" stop-color="#d3d5d9" stop-opacity="0"/>
    </linearGradient>
  </defs>
  <g id="illustrations" transform="translate(-337 -4762)">
    <rect id="Rectangle_633" data-name="Rectangle 633" width="675" height="256" transform="translate(337 4762)" fill="#0a101d"/>
    <g id="illustrations-2" data-name="illustrations" transform="translate(-4217.145 -5960.563)">
      <g id="Group_717" data-name="Group 717" transform="translate(4736.918 10768.305)">
        <g id="Group_509" data-name="Group 509" transform="translate(0 0)">
          <path id="Path_1165" data-name="Path 1165" d="M46.9,80.577C75.414,47.649,63.267,0,46.9,0S-7.233,19.37,1.216,49.973,31.054,98.4,46.9,89.875,77.262,30.6,55.082,16.658s-34.326-.387-38.286,6.2S-.632,51.523,12.834,66.631s28.781,0,28.781,0" transform="translate(29.295 14.847) rotate(-8)" opacity="0.4" fill="url(#linear-gradient)"/>
          <path id="Path_1162" data-name="Path 1162" d="M37.579,44.983C59,27.918,51.657,0,39.362,0S-5.535,17.675.811,33.536,25.68,54.219,37.579,49.8,64.83,13.548,48.172,6.32s-30.226,5.334-33.2,8.748S1.882,29.925,12,37.755s21.616,0,21.616,0" transform="translate(40.015 28.028) rotate(-8)" fill="#fff"/>
          <g id="Group_506" data-name="Group 506" transform="translate(0 20.47)">
            <g id="Group_497" data-name="Group 497" transform="matrix(0.998, 0.07, -0.07, 0.998, 9.214, 0)">
              <path id="Path_1139" data-name="Path 1139" d="M.042,66.487c.523,21.979,3.638,23,3.638,23l26.878-2S17.34,4.818,15.211,1.578c-3.7-5.636-5.922,5.636-5.922,5.636s5.35-4.346,0-5.636S-.481,44.508.042,66.487Z" transform="translate(3.3 41.054)" fill="rgba(0,233,163,0.4)"/>
              <path id="Path_1109" data-name="Path 1109" d="M.04,73.9C.631,98.381,3.593,99.455,3.593,99.455l30.952-2.164S20.632,5.368,18.225,1.758c-4.185-6.278-6.7,6.278-6.7,6.278s6.049-4.841,0-6.278S-.551,49.413.04,73.9Z" transform="translate(0.171 32.631)" fill="none" stroke="#fff" stroke-width="1"/>
              <path id="Path_1111" data-name="Path 1111" d="M12.551,76.388S1.678,80.437.282,65.956C-1.369,46.86,4.711-.474,5.949,0S12.551,76.388,12.551,76.388Z" transform="matrix(0.996, -0.087, 0.087, 0.996, 11.886, 50.691)" fill="#00e9a3" opacity="0.8"/>
              <path id="Path_1112" data-name="Path 1112" d="M2.652,41.441S-2.11,17.057,1.128,23.915s3.239,8,3.239,8-1.905-16.383,0-16.383S9.32,29.249,9.32,29.249s3.91-15.858,5.714-14.843,1.353,28.406,1.353,28.406S13.3,11.361,11.32,10.371s-2,10.154-2,10.154S7.752,7.034,5.261,6.3s-1.447,7.558-1.447,7.558-.663-.231-2.685-.964S2.652,27.473,2.652,27.473,1.011,3.224,2.037,3.517,3.356,6.3,3.356,6.3,2.183,0,3.356,0,10,11.491,10,11.491" transform="matrix(0.998, 0.07, -0.07, 0.998, 7.471, 0)" fill="none" stroke="#fff" stroke-linecap="round" stroke-linejoin="round" stroke-width="1"/>
              <g id="Group_514" data-name="Group 514" transform="translate(0 61.325)" opacity="0">
                <path id="Path_1127" data-name="Path 1127" d="M3.745,0c3.945,0,3.4,1.406,3.4,1.406s.542,5.519-3.4,5.519S0,5.194,0,5.194-.2,0,3.745,0Z" transform="translate(12.609 0)" fill="#fff"/>
                <path id="Path_1128" data-name="Path 1128" d="M1.14,0C-.02.024.041.75.041.75s-.367,4.823,1.1,4.823a1.373,1.373,0,0,0,1.426-.916S2.607,0,1.14,0Z" transform="translate(0 0.285)" fill="#fff"/>
                <circle id="Ellipse_78" data-name="Ellipse 78" cx="0.854" cy="0.854" r="0.854" transform="translate(15.223 3.585)" fill="#5a677a"/>
                <ellipse id="Ellipse_79" data-name="Ellipse 79" cx="0.569" cy="0.569" rx="0.569" ry="0.569" transform="translate(0.727 3.015)" fill="#5a677a"/>
              </g>
              <path id="Path_1125" data-name="Path 1125" d="M0,0A2.658,2.658,0,0,0,2.031,1.578C3.554,1.8,5.73,0,5.73,0" transform="matrix(0.998, -0.07, 0.07, 0.998, 3.978, 71.855)" fill="none" stroke="#fff" stroke-linecap="round" stroke-linejoin="round" stroke-width="1"/>
              <g id="Group_496" data-name="Group 496" transform="matrix(0.998, -0.07, 0.07, 0.998, 0.679, 62.826)">
                <path id="Path_1118" data-name="Path 1118" d="M.256,2.8S2.27-.647,4.955.108,8.284,4.223,7.673,4.825,6.069,1.211,2.478,2.8.256,2.8.256,2.8Z" transform="translate(11.474 0)" fill="#fff"/>
                <path id="Path_1119" data-name="Path 1119" d="M2.892,1.855S2.128-.428,1.111.072-.151,2.8.081,3.193.689.8,2.049,1.855,2.892,1.855,2.892,1.855Z" transform="translate(0 0.826)" fill="#fff"/>
              </g>
            </g>
          </g>
          <path id="Path_1161" data-name="Path 1161" d="M0,99.252a13.8,13.8,0,0,0,10.354-8.367c3.407-7.642-3.148-11.18-5.081-11.143-1.115.022,3.852,6.939,14.153,7.622,7.4.491,17.713-2.366,30.515-13.753C80.2,46.692,72.187-.33,55.068,0S-2.957,32.643,5.467,56.954,38.444,96.777,55.125,89.638,82.5,26.792,59.495,16.086,23.471,22.7,19.241,28.047,0,53.315,13.881,65.128s34.674-2.783,34.674-2.783" transform="translate(26.671 10.119) rotate(-8)" fill="none" stroke="#f1f1f1" stroke-linecap="round" stroke-linejoin="round" stroke-width="1"/>
          <g id="Group_508" data-name="Group 508" transform="translate(55.371 26.946) rotate(16)">
            <path id="Path_1156" data-name="Path 1156" d="M23.327,5.135S30.284-1.172,24.757.194s-6.982,7.5-6.047,7.771,5.561-7.211.4-5.178-1.154,8.956-1.154,8.956L14.626,14s-2.663-1.86-8.2,3.212C3.171,20.293-1.182,25.407.3,25.238A14.3,14.3,0,0,0,3,23.433c.716-.613,3.3-4.56,5.061-5.879,1.934-1.447,5.316-1.943,5.879-2.1a31.309,31.309,0,0,1,5.168-3.265" transform="translate(3.752 2.643)" fill="#b15ea2" opacity="0.7"/>
            <path id="Path_1154" data-name="Path 1154" d="M.766,27.326c-2.186,5.651.6,2.159,4.685-1.6,3.879-3.568,8.835-8.783,8.056-10.113.568-.292,7.248-4.5,7.248-4.5s6.024,3.276,9.7-1.258S25.2,6.868,24.678,8,36.525,7.8,37.4,4.4,28.872,1.724,25.11,5.933,35.4,3.829,34.7,1.076s-6.564.337-10.5,2.989a12.113,12.113,0,0,0-4.8,7.047l-6.81,4.5S5.128,16.046.766,27.326Z" transform="translate(4.768 3.353)" fill="#b15ea2"/>
            <path id="Path_1153" data-name="Path 1153" d="M.9,29.874c-2.37,6.625.22,3.809,4.652-.6,4.206-4.182,10.245-9.539,9.4-11.1.616-.342,6.827-3.92,6.827-3.92s7.115,3.137,11.1-2.178S25.665,9.233,25.1,10.561s13.665.38,14.614-3.606-9.548-4.935-13.627,0,11.16-2.467,10.4-5.694-7.117.395-11.388,3.5a17.76,17.76,0,0,0-5.828,8.326l-5.412,3.891S5.628,16.651.9,29.874Z" transform="translate(3.669 1.074)" fill="none" stroke="#151d2e" stroke-width="1"/>
            <path id="Path_1155" data-name="Path 1155" d="M28.211,6.211s8.415-7.628,1.73-5.977S21.5,9.3,22.628,9.632s6.725-8.721.479-6.262-1.936,9.594-1.936,9.594L17.283,16.6s-2.815-1.926-9.512,4.208c-3.936,3.732-9.2,9.917-7.412,9.712s5.316-2.3,5.316-2.3" transform="translate(0 0)" fill="none" stroke="#151d2e" stroke-width="1"/>
          </g>
        </g>
        <path id="Path_1137" data-name="Path 1137" d="M17.243,0c9.2,0,16.1.465,16.1.465a38.329,38.329,0,0,1-17,4.453C1.985,5.349.574,1.695.8.465.93.339,8.039,0,17.243,0Z" transform="translate(2.489 158.534)" fill="#fff" opacity="0.16"/>
        <path id="Path_1138" data-name="Path 1138" d="M10.326,0c5.392,0,9.431.28,9.431.28A21.983,21.983,0,0,1,9.8,2.966C-.906,2.933.693.28.693.28S4.935,0,10.326,0Z" transform="translate(9.334 158.577)" fill="#fff" opacity="0.16"/>
      </g>
      <g id="Group_718" data-name="Group 718" transform="translate(4897.618 10768.857)">
        <path id="Intersection_1" data-name="Intersection 1" d="M0,32.337V0C2.713,12.635,5.256,27.648,7.338,41.184A9,9,0,0,1,0,32.337Z" transform="translate(27.725 67.248)" fill="#0a101d"/>
        <path id="Path_1186" data-name="Path 1186" d="M-637.417-565.249a92.063,92.063,0,0,1-16.214,3.258c-8.866.933-22.519-3.258-22.519-3.258s.319-65.977,8.093-93.114c2.048-7.149,3.929,5.173,4.3,4.857s1.427-8.834,3.215-11.1c1.346-1.705,3.413,10.677,3.624,10.625s1.453-11.029,2.039-9.238c3.957,12.079,7.9,33.253,11.06,52.936C-640.033-586.645-637.417-565.249-637.417-565.249Z" transform="translate(676.732 714.217)" fill="#0a101d"/>
        <g id="Group_522" data-name="Group 522" transform="translate(0 14.626)">
          <g id="Group_497-2" data-name="Group 497" transform="translate(0.582)">
            <path id="Path_1166" data-name="Path 1166" d="M-644.944-597.867a79.25,79.25,0,0,1-13.249,2.518c-7.147.7-17.972-2.518-17.972-2.518s-.434-46.37,5.832-66.768c1.651-5.374,6.441-10.536,9.739-11.793s4.333,6.308,4.806,7.654C-648.732-648.688-644.944-597.867-644.944-597.867Z" transform="translate(680.029 731.808)" fill="#00e9a3" opacity="0.4"/>
            <path id="Path_1109-2" data-name="Path 1109" d="M-640.354-567.247a80.918,80.918,0,0,1-14.984,3.193c-8.194.914-20.811-3.193-20.811-3.193s.294-64.652,7.479-91.245c1.893-7.006,3.631,5.069,3.971,4.76s1.319-8.657,2.971-10.875c1.244-1.671,3.154,10.463,3.349,10.411s1.343-10.807,1.885-9.052C-648.4-637.062-640.354-567.247-640.354-567.247Z" transform="translate(676.15 701.657)" fill="none" stroke="#fff" stroke-linecap="round" stroke-width="1"/>
            <path id="Path_1111-2" data-name="Path 1111" d="M-593.64-508.6s-8.123,3.13-10.419,2.88-1.072-60.333,1.119-60.333S-593.64-508.6-593.64-508.6Z" transform="translate(628.769 640.325)" fill="#00e9a3" opacity="0.7"/>
            <path id="Path_1112-2" data-name="Path 1112" d="M-621.337-747.8s4.907-25.126,1.57-18.06-3.337,8.245-3.337,8.245,1.963-16.882,0-16.882-5.1,14.133-5.1,14.133-4.029-16.34-5.888-15.295-1.394,29.271-1.394,29.271,3.179-32.408,5.221-33.429,2.061,10.463,2.061,10.463,1.616-13.9,4.183-14.656,1.491,7.788,1.491,7.788.683-.238,2.767-.993-1.57,15.021-1.57,15.021,1.691-24.987.634-24.685-1.359,2.869-1.359,2.869,1.208-6.493,0-6.493-6.851,11.841-6.851,11.841" transform="translate(642.484 790.502)" fill="none" stroke="#fff" stroke-linecap="round" stroke-linejoin="round" stroke-width="1"/>
          </g>
          <path id="Path_1137-2" data-name="Path 1137" d="M18.653,0C28.627,0,36.1.483,36.1.483A42.878,42.878,0,0,1,17.68,5.109,32.661,32.661,0,0,1,.831.483S8.679,0,18.653,0Z" transform="translate(-0.831 142.873)" fill="#fff" opacity="0.16"/>
          <path id="Path_1138-2" data-name="Path 1138" d="M11.578,0C17.592,0,22.1.291,22.1.291A25.855,25.855,0,0,1,10.991,3.081,19.7,19.7,0,0,1,.831.291S5.563,0,11.578,0Z" transform="translate(6.169 142.917)" fill="#fff" opacity="0.16"/>
          <path id="Path_1169" data-name="Path 1169" d="M6.376,0S7.9,3.544,6.7,5.086,1.666,5.162,0,3.938" transform="translate(22.407 78.952) rotate(8)" fill="none" stroke="#f1f1f1" stroke-linecap="round" stroke-width="1"/>
          <path id="Path_1128-2" data-name="Path 1128" d="M6.988,2.406c-1.242.025-1.177.8-1.177.8S5.418,8.372,6.988,8.372a1.47,1.47,0,0,0,1.527-.981S8.558,2.406,6.988,2.406Z" transform="translate(15.808 66.289)" fill="#fff"/>
          <path id="Path_1170" data-name="Path 1170" d="M.66,0C-.011.025.024.8.024.8S-.189,5.966.66,5.966c.712-.051.826-.981.826-.981S1.51,0,.66,0Z" transform="matrix(0.996, -0.087, 0.087, 0.996, 26.822, 67.952)" fill="#fff"/>
          <ellipse id="Ellipse_79-2" data-name="Ellipse 79" cx="0.216" cy="0.61" rx="0.216" ry="0.61" transform="matrix(0.985, -0.174, 0.174, 0.985, 23.431, 71.69)" fill="#5a677a"/>
          <ellipse id="Ellipse_84" data-name="Ellipse 84" cx="0.216" cy="0.413" rx="0.216" ry="0.413" transform="translate(27.857 71.244) rotate(-5)" fill="#5a677a"/>
        </g>
        <g id="Group_528" data-name="Group 528" transform="translate(31.485 0)">
          <path id="Path_1190" data-name="Path 1190" d="M3588.875-630.662c5.943-.178,3.5-124.545,11.931-125.448s12.044,125.087,19.5,125.448,10.594,0,14.446,0-16.854-5.714-32.022-4.812-37.079,4.81-28.892,4.812S3588.875-630.662,3588.875-630.662Z" transform="translate(-3561.784 790.949)" fill="none" stroke="#fff" stroke-width="1.5"/>
          <g id="Group_524" data-name="Group 524" transform="translate(0 0)">
            <rect id="Rectangle_275" data-name="Rectangle 275" width="80.943" height="119.004" rx="9" fill="url(#linear-gradient-2)"/>
            <rect id="Rectangle_272" data-name="Rectangle 272" width="66.791" height="99.349" rx="9" transform="translate(7.076 9.828)" fill="#fff"/>
            <g id="Group_525" data-name="Group 525" transform="translate(12.972 46.935)">
              <g id="Group_523" data-name="Group 523" transform="translate(5.194 0)">
                <rect id="Rectangle_267" data-name="Rectangle 267" width="6.265" height="48.281" transform="translate(19.165 2.211)" fill="#b15ea2"/>
                <rect id="Rectangle_268" data-name="Rectangle 268" width="6.634" height="25.431" transform="translate(9.583 25.062)" fill="#b15ea2"/>
                <rect id="Rectangle_270" data-name="Rectangle 270" width="6.634" height="17.322" transform="translate(0 33.17)" fill="#b15ea2"/>
                <rect id="Rectangle_269" data-name="Rectangle 269" width="5.528" height="35.382" transform="translate(29.116 15.111)" fill="#b15ea2"/>
                <g id="Rectangle_264" data-name="Rectangle 264" transform="translate(19.165)" fill="none" stroke="#151d2e" stroke-linecap="round" stroke-linejoin="round" stroke-width="1">
                  <rect width="8.108" height="50.861" stroke="none"/>
                  <rect x="0.5" y="0.5" width="7.108" height="49.861" fill="none"/>
                </g>
                <g id="Rectangle_265" data-name="Rectangle 265" transform="translate(9.583 22.851)" fill="none" stroke="#151d2e" stroke-linecap="round" stroke-linejoin="round" stroke-width="1">
                  <rect width="8.108" height="28.01" stroke="none"/>
                  <rect x="0.5" y="0.5" width="7.108" height="27.01" fill="none"/>
                </g>
                <g id="Rectangle_271" data-name="Rectangle 271" transform="translate(0 30.959)" fill="none" stroke="#151d2e" stroke-linecap="round" stroke-linejoin="round" stroke-width="1">
                  <rect width="8.108" height="19.902" stroke="none"/>
                  <rect x="0.5" y="0.5" width="7.108" height="18.902" fill="none"/>
                </g>
                <g id="Rectangle_266" data-name="Rectangle 266" transform="translate(29.116 12.9)" fill="none" stroke="#151d2e" stroke-linecap="round" stroke-linejoin="round" stroke-width="1">
                  <rect width="8.108" height="37.962" stroke="none"/>
                  <rect x="0.5" y="0.5" width="7.108" height="36.962" fill="none"/>
                </g>
              </g>
              <g id="Group_511" data-name="Group 511" transform="translate(0 0)">
                <path id="Path_1167" data-name="Path 1167" d="M3625.5-823.785V-773.9h52.288" transform="translate(-3623.903 824.465)" fill="none" stroke="#151d2e" stroke-linecap="round" stroke-linejoin="round" stroke-width="1"/>
                <path id="Path_1082" data-name="Path 1082" d="M0,0,1.562,1.579,0,3.273" transform="translate(0 1.562) rotate(-90)" fill="none" stroke="#151d2e" stroke-linecap="round" stroke-linejoin="round" stroke-width="1"/>
                <path id="Path_1168" data-name="Path 1168" d="M722.189,937.747l1.562,1.579-1.562,1.694" transform="translate(-668.815 -888.755)" fill="none" stroke="#151d2e" stroke-linecap="round" stroke-linejoin="round" stroke-width="1"/>
              </g>
            </g>
            <text id="a_b_c_d" data-name="a b c d" transform="translate(20.554 101.255)" fill="#151d2e" stroke="#151d2e" stroke-width="0.3" font-size="3" font-family="Questrial-Regular, Questrial" letter-spacing="0.82em"><tspan x="0" y="0">a b c d</tspan></text>
          </g>
          <g id="Group_527" data-name="Group 527" transform="translate(18.083 17.29)">
            <g id="Group_526" data-name="Group 526" transform="translate(8.845)">
              <path id="Path_1187" data-name="Path 1187" d="M3621.165-782.981s-4.324,6.017-2.242,6.017,5.091-6.942,6.48-7.174-1.389,3.7,0,4.628,3.471-3.7,4.628-3.471.231,2.777,1.62,3.471,4.4-3.934,6.248-3.471,4.629,4.4,6.942,3.471" transform="translate(-3618.356 784.148)" fill="none" stroke="#151d2e" stroke-linecap="round" stroke-linejoin="round" stroke-width="1"/>
              <path id="Path_1189" data-name="Path 1189" d="M3621.165-782.981s-4.324,6.017-2.242,6.017,5.091-6.942,6.48-7.174-1.389,3.7,0,4.628,3.471-3.7,4.628-3.471.231,2.777,1.62,3.471,4.4-3.934,6.248-3.471,4.629,4.4,6.942,3.471" transform="translate(-3617.57 784.148)" fill="none" stroke="#151d2e" stroke-linecap="round" stroke-linejoin="round" stroke-width="1" opacity="0.53"/>
            </g>
            <path id="Path_1188" data-name="Path 1188" d="M3636.851-757.22h44.661" transform="translate(-3636.851 766.626)" fill="none" stroke="#151d2e" stroke-linecap="round" stroke-width="1"/>
          </g>
          <rect id="Rectangle_276" data-name="Rectangle 276" width="69.187" height="2.752" transform="translate(5.897 108.917)" fill="#0a101d" opacity="0.53"/>
        </g>
      </g>
      <g id="Group_719" data-name="Group 719" transform="translate(5065.485 10760.563)">
        <g id="Group_519" data-name="Group 519" transform="translate(0 0)">
          <path id="Path_1165-2" data-name="Path 1165" d="M2418.475-658.354c48.519-38.186,27.853-93.443,0-93.443s-92.095,22.462-77.719,57.952,50.764,56.155,77.719,46.272,51.663-68.734,13.927-84.907-58.4-.449-65.14,7.188-29.651,33.244-6.739,50.764,48.968,0,48.968,0" transform="translate(-2329.657 757.875)" opacity="0.4" fill="url(#linear-gradient-3)"/>
          <path id="Path_1162-2" data-name="Path 1162" d="M2396.715-683.837c35.287-27.772,20.257-67.96,0-67.96s-66.98,16.336-56.525,42.148,35.428,40.163,55.031,32.975,39.067-49.311,11.622-61.074-42.475-.327-47.376,5.228-21.564,24.178-4.9,36.92,35.613,0,35.613,0" transform="translate(-2315.063 770.792)" fill="#fff"/>
          <path id="Path_1161-2" data-name="Path 1161" d="M2454.306-648.012C2494.874-682.9,2473.243-751.8,2440.94-751.8s-106.813,26.052-90.139,67.214,150.058-26.052,106.291-44.809-67.735-.521-75.551,8.337-34.388,38.557-7.816,58.877" transform="translate(-2348.4 751.796)" fill="none" stroke="#f1f1f1" stroke-linecap="round" stroke-linejoin="round" stroke-width="1"/>
        </g>
        <g id="Group_518" data-name="Group 518" transform="translate(19.273 27.138)">
          <path id="Path_1182" data-name="Path 1182" d="M3956.537-647.488a5.313,5.313,0,0,1-5.15,2.259c-2.933-.566-5.66-2.971-7.908-6.674-4.579-7.542,9.649,2.322,8.343,3.7s-8.343-8.416-7.545-9.286,9.721,3.773,9.141,5.586-7.11-7.037-6.384-7.545,6.747,2.539,9.5,7.545-2.031,5.3-2.031,5.3" transform="translate(-3939.856 723.041)" fill="#b15ea2"/>
          <g id="Group_517" data-name="Group 517" transform="translate(21.56 0)">
            <path id="Path_1183" data-name="Path 1183" d="M2.76,10.723c-.009-.005-6.1-2.55-.163-7.8S8.764,1.1,8.764,1.1s-.457,9.365-3.2,9.821S.548,8.022,3.151,5.136s3.644-2.6,3.644-2.6" transform="matrix(0.998, -0.07, 0.07, 0.998, 51.031, 78.394)" fill="#b15ea2"/>
            <g id="Group_513" data-name="Group 513" transform="translate(8.035 11.075)">
              <path id="Path_1110" data-name="Path 1110" d="M-673.383-560.907a29.608,29.608,0,0,0,13.257,4.855c7.641.747,19.3-4.855,19.3-4.855s-1.6-63.354-15.594-61.841S-673.383-560.907-673.383-560.907Z" transform="translate(675.245 682.972)" fill="#00e9a3" opacity="0.4"/>
              <path id="Path_1109-3" data-name="Path 1109" d="M-667.149-584.447a37.22,37.22,0,0,0,15.212,5.65c8.258.869,20.862-5.65,20.862-5.65s-7.876-89.531-12.223-96.05-6.954,6.519-6.954,6.519,6.282-5.027,0-6.519S-667.149-584.447-667.149-584.447Z" transform="translate(667.149 707.674)" fill="none" stroke="#fff" stroke-width="1"/>
              <path id="Path_1111-3" data-name="Path 1111" d="M16.22,43.169a49.783,49.783,0,0,1-8.213,1.905,54.055,54.055,0,0,1-6.194-.5C-.5,44.315-2.2,1.21,7.216.023S16.22,43.169,16.22,43.169Z" transform="translate(11.623 80.374) rotate(3)" fill="#00e9a3" opacity="0.8"/>
              <path id="Path_1112-3" data-name="Path 1112" d="M2.754,36.538s-4.946-25.321-1.583-18.2,3.363,8.309,3.363,8.309-1.978-17.013,0-17.013S9.678,23.878,9.678,23.878,13.739,7.41,15.612,8.464s1.4,29.5,1.4,29.5S13.813,5.3,11.755,4.274,9.678,14.817,9.678,14.817,8.05.808,5.463.048,3.96,7.9,3.96,7.9s-.688-.24-2.788-1S2.754,22.033,2.754,22.033L3.485.048l6.9,5.389" transform="translate(17.827 0) rotate(11)" fill="none" stroke="#fff" stroke-linecap="round" stroke-linejoin="round" stroke-width="1"/>
              <path id="Path_1171" data-name="Path 1171" d="M9.122,0c4.1,0,3.535,1.335,3.535,1.335s.562,5.241-3.535,5.241S5.235,4.932,5.235,4.932,5.025,0,9.122,0Z" transform="translate(18.117 60.669)" fill="#fff"/>
              <path id="Path_1172" data-name="Path 1172" d="M8.794,0C4.7,0,5.259,1.335,5.259,1.335S4.7,6.576,8.794,6.576s3.887-1.644,3.887-1.644S12.891,0,8.794,0Z" transform="translate(2.446 60.669)" fill="#fff"/>
              <ellipse id="Ellipse_85" data-name="Ellipse 85" cx="0.887" cy="0.887" rx="0.887" ry="0.887" transform="translate(26.064 63.245)" fill="#5a677a"/>
              <ellipse id="Ellipse_86" data-name="Ellipse 86" cx="0.887" cy="0.887" rx="0.887" ry="0.887" transform="translate(10.64 63.245)" fill="#5a677a"/>
              <path id="Path_1179" data-name="Path 1179" d="M187.016,419.578s.342,2.473,2.651,2.552,2.911-2.552,2.911-2.552" transform="translate(-171.214 -347.538)" fill="none" stroke="#f1f1f1" stroke-linecap="round" stroke-width="1"/>
            </g>
            <path id="Path_1176" data-name="Path 1176" d="M15.237,57.64s2.23,2.075,10.738,1.127,7.6-3.27,7.6-3.27l3.8-22.1s16.387-18.4.456-20.579-13.535,18-10.847,18.674S40,3.83,27.385.285,7.335,27.4,15.884,28.394,15.079,3.935,3.664,10.479,11.147,35.21,11.147,35.21Z" transform="matrix(0.996, 0.087, -0.087, 0.996, 8.411, 6.971)" fill="#242e42"/>
            <path id="Path_1177" data-name="Path 1177" d="M16.752,65.637s3.025,2.792,12.732,1.706,8.083-2.493,8.083-2.493l6-24.254s17.731-23.408-.433-25.9-15.489,20.63-12.424,21.4S45.631,4.39,31.256.327,8.311,31.4,18.059,32.538,17.21,4.51,4.172,12.008s8.645,30.778,8.645,30.778Z" transform="matrix(0.996, 0.087, -0.087, 0.996, 5.891, 0)" fill="none" stroke="#151d2e" stroke-width="1"/>
            <path id="Path_1180" data-name="Path 1180" d="M0,32.078,9.182,13.242S3.919,9.918,11.121,3.547,18.6,1.331,18.6,1.331s-.554,11.357-3.878,11.911S8.636,9.729,11.793,6.228s4.419-3.156,4.419-3.156" transform="matrix(0.998, -0.07, 0.07, 0.998, 42.65, 77.791)" fill="none" stroke="#f1f1f1" stroke-linecap="round" stroke-linejoin="round" stroke-width="1"/>
          </g>
          <path id="Path_1137-3" data-name="Path 1137" d="M19.318,0c10.346,0,18.1.5,18.1.5A44.478,44.478,0,0,1,18.309,5.3,33.88,33.88,0,0,1,.831.5S8.972,0,19.318,0Z" transform="translate(27.89 146.638)" fill="#fff" opacity="0.16"/>
          <path id="Path_1138-3" data-name="Path 1138" d="M11.979,0c6.239,0,10.913.3,10.913.3A26.82,26.82,0,0,1,11.37,3.2,20.429,20.429,0,0,1,.831.3S5.74,0,11.979,0Z" transform="translate(35.152 146.685)" fill="#fff" opacity="0.16"/>
          <path id="Path_1181" data-name="Path 1181" d="M3974.3-630.78l-14.54-13.111a11.83,11.83,0,0,1-6.976.924c-3.4-.655-6.556-3.442-9.161-7.732-5.305-8.738,11.178,2.689,9.665,4.286s-9.665-9.749-8.74-10.758,11.262,4.37,10.59,6.472-8.237-8.153-7.4-8.741,7.816,2.942,11.01,8.741-2.353,6.135-2.353,6.135" transform="translate(-3942.566 721.966)" fill="none" stroke="#f1f1f1" stroke-linecap="round" stroke-linejoin="round" stroke-width="1"/>
        </g>
      </g>
      <g id="Group_720" data-name="Group 720" transform="translate(4589.145 10785.995)">
        <g id="Group_500" data-name="Group 500" transform="translate(0 0)">
          <g id="Group_497-3" data-name="Group 497" transform="translate(28.773 0)">
            <path id="Path_1110-2" data-name="Path 1110" d="M-676.149-599.533a35.416,35.416,0,0,0,13.855,4.779c7.521.735,19-4.779,19-4.779s-4.75-75.732-8.709-81.246-6.334,5.515-6.334,5.515,5.722-4.252,0-5.515S-676.149-599.533-676.149-599.533Z" transform="translate(677.178 726.227)" fill="#00e9a3" opacity="0.73"/>
            <path id="Path_1109-4" data-name="Path 1109" d="M-676.149-585.973a36.641,36.641,0,0,0,14.974,5.562c8.129.856,20.536-5.562,20.536-5.562s-5.134-88.136-9.412-94.553-6.846,6.418-6.846,6.418,6.184-4.949,0-6.418S-676.149-585.973-676.149-585.973Z" transform="translate(676.149 713.811)" fill="none" stroke="#fff" stroke-width="1"/>
            <path id="Path_1111-4" data-name="Path 1111" d="M-594.762-549.777s-6.076,4.051-8.354,3.8.506-80.759,1.772-80.252S-594.762-549.777-594.762-549.777Z" transform="translate(624.99 674.047)" fill="#00e9a3"/>
            <path id="Path_1112-4" data-name="Path 1112" d="M-632.829-748.138s-4.869-24.927-1.558-17.916,3.311,8.179,3.311,8.179-1.947-16.748,0-16.748,5.063,14.021,5.063,14.021,4-16.211,5.841-15.173,1.383,29.038,1.383,29.038-3.154-32.15-5.179-33.163-2.045,10.38-2.045,10.38-1.6-13.791-4.149-14.54-1.48,7.726-1.48,7.726-.678-.236-2.745-.985,1.558,14.9,1.558,14.9-1.678-24.789-.629-24.489,1.348,2.846,1.348,2.846-1.2-6.441,0-6.441,6.8,11.747,6.8,11.747" transform="translate(647.36 790.502)" fill="none" stroke="#fff" stroke-linecap="round" stroke-linejoin="round" stroke-width="1"/>
            <path id="Path_1127-2" data-name="Path 1127" d="M9.062,0c4.033,0,3.48,1.437,3.48,1.437s.554,5.642-3.48,5.642-3.827-1.77-3.827-1.77S5.028,0,9.062,0Z" transform="translate(16.006 60.992)" fill="#fff"/>
            <path id="Path_1128-3" data-name="Path 1128" d="M6.933,2.406c-1.186.024-1.124.767-1.124.767S5.434,8.1,6.933,8.1a1.4,1.4,0,0,0,1.458-.936S8.433,2.406,6.933,2.406Z" transform="translate(2.582 58.877)" fill="#fff"/>
            <ellipse id="Ellipse_78-2" data-name="Ellipse 78" cx="0.873" cy="0.873" rx="0.873" ry="0.873" transform="translate(23.911 64.657)" fill="#5a677a"/>
            <ellipse id="Ellipse_79-3" data-name="Ellipse 79" cx="0.582" cy="0.582" rx="0.582" ry="0.582" transform="translate(9.093 64.075)" fill="#5a677a"/>
          </g>
          <g id="Group_498" data-name="Group 498" transform="translate(0 44.389)">
            <path id="Path_1132" data-name="Path 1132" d="M13.583-.189c8.89-.886,13.583,4.762,13.583,10.637S25.337,22.171,13.583,21.085,0,16.323,0,10.448,4.693.7,13.583-.189Z" transform="translate(0 0.281)" fill="#fff"/>
            <path id="Path_1133" data-name="Path 1133" d="M5.994.2A.582.582,0,0,1,6.87.2,16.893,16.893,0,0,0,9.355,4.7a7.582,7.582,0,0,0,3.363,2.182.582.582,0,0,1-.438.965,12.493,12.493,0,0,1-5.111,1.1,27.747,27.747,0,0,1-6.585-1.1.582.582,0,0,1-.438-.965Z" transform="matrix(0.914, 0.407, -0.407, 0.914, 16.958, 12.388)" fill="#fff"/>
          </g>
          <g id="Group_499" data-name="Group 499" transform="translate(8.15 56.032)">
            <path id="Path_1134" data-name="Path 1134" d="M6.417-8.058v2.345H4.187V-8.058Z" transform="translate(-4.187 8.058)" fill="#5a677a"/>
            <path id="Path_1135" data-name="Path 1135" d="M6.417-8.058v2.345H4.187V-8.058Z" transform="translate(0.47 8.058)" fill="#5a677a"/>
            <path id="Path_1136" data-name="Path 1136" d="M6.417-8.058v2.345H4.187V-8.058Z" transform="translate(5.127 8.058)" fill="#5a677a"/>
          </g>
        </g>
        <path id="Path_1137-4" data-name="Path 1137" d="M21.532,0C33.118,0,41.8.561,41.8.561A49.8,49.8,0,0,1,20.4,5.934,37.938,37.938,0,0,1,.831.561S9.947,0,21.532,0Z" transform="translate(26.134 139.832)" fill="#fff" opacity="0.16"/>
        <path id="Path_1138-4" data-name="Path 1138" d="M13.314,0c6.986,0,12.22.338,12.22.338a30.032,30.032,0,0,1-12.9,3.24A22.876,22.876,0,0,1,.831.338S6.328,0,13.314,0Z" transform="translate(34.266 139.884)" fill="#fff" opacity="0.16"/>
      </g>
    </g>
  </g>
</svg>
