<svg xmlns="http://www.w3.org/2000/svg" width="1049" height="353.84" viewBox="0 0 1049 353.84">
  <g id="uf" transform="translate(-9291 -338)">
    <rect id="Rectangle_483" data-name="Rectangle 483" width="1049" height="353.84" transform="translate(9291 338)" fill="#fff"/>
    <g id="Group_1083" data-name="Group 1083" transform="translate(-15 -13)">
      <text id="Add_products_to_fridge:" data-name="Add products to fridge:" transform="translate(9431 409)" fill="#242e42" font-size="13" font-family="Questrial-Regular, Questrial"><tspan x="0" y="0">Add products to fridge:</tspan></text>
      <text id="Add_recipe_ingredients_to_shopping_list:" data-name="Add recipe ingredients to shopping list:" transform="translate(9724 409)" fill="#242e42" font-size="13" font-family="Questrial-Regular, Questrial"><tspan x="0" y="0">Add recipe ingredients to shopping list:</tspan></text>
      <text id="Add_products_to_shopping_list:" data-name="Add products to shopping list:" transform="translate(10082 409)" fill="#242e42" font-size="13" font-family="Questrial-Regular, Questrial"><tspan x="0" y="0">Add products to shopping list:</tspan></text>
      <path id="Rectangle_15" data-name="Rectangle 15" d="M-10.05,0H25.857a9.95,9.95,0,0,1,9.95,9.95v.433a9.95,9.95,0,0,1-9.95,9.95H-10.05A9.95,9.95,0,0,1-20,10.383V9.95A9.95,9.95,0,0,1-10.05,0Z" transform="translate(9368.759 440.554)" fill="#01cd90"/>
      <text id="Start_End" data-name="Start/End" transform="translate(9376 454)" fill="#131f39" font-size="10" font-family="Questrial-Regular, Questrial"><tspan x="-9.26" y="0">Add</tspan></text>
      <path id="Rectangle_15-2" data-name="Rectangle 15" d="M-10.05,0H25.857a9.95,9.95,0,0,1,9.95,9.95v.433a9.95,9.95,0,0,1-9.95,9.95H-10.05A9.95,9.95,0,0,1-20,10.383V9.95A9.95,9.95,0,0,1-10.05,0Z" transform="translate(9618.378 637.827)" fill="#01cd90"/>
      <text id="Start_End-2" data-name="Start/End" transform="translate(9626 652)" fill="#131f39" font-size="11" font-family="Questrial-Regular, Questrial"><tspan x="-14.339" y="0">Finish</tspan></text>
      <path id="Rectangle_16" data-name="Rectangle 16" d="M-10,0H54.892V20.333H-10Z" transform="translate(9603.619 484.248)" fill="none" stroke="#b365a4" stroke-width="1.5"/>
      <text id="Process" transform="translate(9626 497)" fill="#131f39" font-size="8" font-family="Muli-Bold, Muli" font-weight="700"><tspan x="-24.876" y="0">Type product</tspan></text>
      <path id="Rectangle_16-2" data-name="Rectangle 16" d="M-10,0H54.892V20.333H-10Z" transform="translate(9446.58 547.842)" fill="none" stroke="#b365a4" stroke-width="1.5"/>
      <text id="Process-2" data-name="Process" transform="translate(9468 561)" fill="#131f39" font-size="8" font-family="Muli-Bold, Muli" font-weight="700"><tspan x="-14.92" y="0">Product</tspan></text>
      <path id="Rectangle_16-3" data-name="Rectangle 16" d="M-10,0H54.892V20.333H-10Z" transform="translate(9603.619 515.829)" fill="none" stroke="#b365a4" stroke-width="1.5"/>
      <text id="Process-3" data-name="Process" transform="translate(9626 528)" fill="#131f39" font-size="8" font-family="Muli-Bold, Muli" font-weight="700"><tspan x="-27.212" y="0">Type quantity </tspan></text>
      <path id="Rectangle_16-4" data-name="Rectangle 16" d="M-10,0H54.892V20.333H-10Z" transform="translate(9446.58 579.423)" fill="none" stroke="#b365a4" stroke-width="1.5"/>
      <text id="Process-4" data-name="Process" transform="translate(9469 593)" fill="#131f39" font-size="8" font-family="Muli-Bold, Muli" font-weight="700"><tspan x="-27.456" y="0">Type quantuty</tspan></text>
      <path id="Rectangle_16-5" data-name="Rectangle 16" d="M-10,0H54.892V20.333H-10Z" transform="translate(9524.884 440.554)" fill="none" stroke="#b365a4" stroke-width="1.5"/>
      <text id="Process-5" data-name="Process" transform="translate(9548 454)" fill="#131f39" font-size="8" font-family="Muli-Bold, Muli" font-weight="700"><tspan x="-7.948" y="0">Add</tspan></text>
      <path id="Rectangle_16-6" data-name="Rectangle 16" d="M-10,0H54.892V20.333H-10Z" transform="translate(9603.619 547.41)" fill="none" stroke="#b365a4" stroke-width="1.5"/>
      <text id="Process-6" data-name="Process" transform="translate(9626 560)" fill="#131f39" font-size="8" font-family="Muli-Bold, Muli" font-weight="700"><tspan x="-22.516" y="0">Choose unit</tspan></text>
      <path id="Rectangle_16-7" data-name="Rectangle 16" d="M-10,0H54.892V20.333H-10Z" transform="translate(9446.58 611.004)" fill="none" stroke="#b365a4" stroke-width="1.5"/>
      <text id="Process-7" data-name="Process" transform="translate(9468 624)" fill="#131f39" font-size="8" font-family="Muli-Bold, Muli" font-weight="700"><tspan x="-22.516" y="0">Choose unit</tspan></text>
      <path id="Rectangle_17" data-name="Rectangle 17" d="M9.785,4.727,37.808,0a2.163,2.163,0,0,1,2.163,2.163L32.349,30.948a2.163,2.163,0,0,1-2.163,2.163L2.163,37.839A2.163,2.163,0,0,1,0,35.676L7.622,6.89A2.163,2.163,0,0,1,9.785,4.727Z" transform="matrix(0.766, 0.643, -0.643, 0.766, 9458.738, 423.249)" fill="none" stroke="#131f39" stroke-width="1.5"/>
      <text id="Decision" transform="translate(9462 453)" fill="#191f2b" font-size="8" font-family="Muli-Bold, Muli" font-weight="700"><tspan x="-12.348" y="0">Home </tspan></text>
      <path id="Rectangle_17-2" data-name="Rectangle 17" d="M9.785,4.727,37.808,0a2.163,2.163,0,0,1,2.163,2.163L32.349,30.948a2.163,2.163,0,0,1-2.163,2.163L2.163,37.839A2.163,2.163,0,0,1,0,35.676L7.622,6.89A2.163,2.163,0,0,1,9.785,4.727Z" transform="matrix(0.766, 0.643, -0.643, 0.766, 9623.134, 423.249)" fill="none" stroke="#131f39" stroke-width="1.5"/>
      <text id="Decision-2" data-name="Decision" transform="translate(9626 453)" fill="#191f2b" font-size="8" font-family="Muli-Bold, Muli" font-weight="700"><tspan x="-9.004" y="0">Type</tspan></text>
      <g id="Group_1070" data-name="Group 1070">
        <path id="Path_17" data-name="Path 17" d="M2.743,0,1.925.985,1.583,1.4a.274.274,0,0,1-.421,0L0,0" transform="matrix(-0.035, -0.999, 0.999, -0.035, 9428.201, 451.782)" fill="none" stroke="#131f39" stroke-linecap="round" stroke-width="1"/>
        <path id="Line" d="M.5,1.5H20.446" transform="translate(9407.821 449.004)" fill="none" stroke="#131f39" stroke-linecap="square" stroke-miterlimit="10" stroke-width="1.5"/>
      </g>
      <g id="Group_1071" data-name="Group 1071" transform="translate(9827.395 -8944.65) rotate(90)">
        <path id="Path_17-2" data-name="Path 17" d="M2.743,0,1.925.985,1.583,1.4a.274.274,0,0,1-.421,0L0,0" transform="matrix(-0.035, -0.999, 0.999, -0.035, 9426.229, 451.782)" fill="none" stroke="#131f39" stroke-linecap="round" stroke-width="1"/>
        <path id="Line-2" data-name="Line" d="M.5,1.5H18.473" transform="translate(9407.821 449.004)" fill="none" stroke="#131f39" stroke-linecap="square" stroke-miterlimit="10" stroke-width="1.5"/>
      </g>
      <g id="Group_1073" data-name="Group 1073" transform="translate(9997.395 -8944.65) rotate(90)">
        <path id="Path_17-3" data-name="Path 17" d="M2.743,0,1.925.985,1.583,1.4a.274.274,0,0,1-.421,0L0,0" transform="matrix(-0.035, -0.999, 0.999, -0.035, 9426.229, 451.782)" fill="none" stroke="#131f39" stroke-linecap="round" stroke-width="1"/>
        <path id="Line-3" data-name="Line" d="M.5,1.5H18.473" transform="translate(9407.821 449.004)" fill="none" stroke="#131f39" stroke-linecap="square" stroke-miterlimit="10" stroke-width="1.5"/>
      </g>
      <g id="Group_1075" data-name="Group 1075" transform="translate(10077.395 -8935.949) rotate(90)">
        <path id="Path_17-4" data-name="Path 17" d="M2.743,0,1.925.985,1.583,1.4a.274.274,0,0,1-.421,0L0,0" transform="matrix(-0.035, -0.999, 0.999, -0.035, 9416.527, 451.782)" fill="none" stroke="#131f39" stroke-linecap="round" stroke-width="1"/>
        <path id="Line-4" data-name="Line" d="M.5,1.5H8.772" transform="translate(9407.821 449.004)" fill="none" stroke="#131f39" stroke-linecap="square" stroke-miterlimit="10" stroke-width="1.5"/>
      </g>
      <g id="Group_1078" data-name="Group 1078" transform="translate(10077.395 -8782.949) rotate(90)">
        <path id="Path_17-5" data-name="Path 17" d="M2.743,0,1.925.985,1.583,1.4a.274.274,0,0,1-.421,0L0,0" transform="matrix(-0.035, -0.999, 0.999, -0.035, 9416.527, 451.782)" fill="none" stroke="#131f39" stroke-linecap="round" stroke-width="1"/>
        <path id="Line-5" data-name="Line" d="M.5,1.5H63.751" transform="translate(9352.842 449.004)" fill="none" stroke="#131f39" stroke-linecap="square" stroke-miterlimit="10" stroke-width="1.5"/>
      </g>
      <g id="Group_1076" data-name="Group 1076" transform="translate(10077.395 -8901.613) rotate(90)">
        <path id="Path_17-6" data-name="Path 17" d="M2.743,0,1.925.985,1.583,1.4a.274.274,0,0,1-.421,0L0,0" transform="matrix(-0.035, -0.999, 0.999, -0.035, 9414.191, 451.782)" fill="none" stroke="#131f39" stroke-linecap="round" stroke-width="1"/>
        <path id="Line-6" data-name="Line" d="M.5,1.5H6.436" transform="translate(9407.821 449.004)" fill="none" stroke="#131f39" stroke-linecap="square" stroke-miterlimit="10" stroke-width="1.5"/>
      </g>
      <g id="Group_1077" data-name="Group 1077" transform="translate(10077.395 -8869.613) rotate(90)">
        <path id="Path_17-7" data-name="Path 17" d="M2.743,0,1.925.985,1.583,1.4a.274.274,0,0,1-.421,0L0,0" transform="matrix(-0.035, -0.999, 0.999, -0.035, 9414.191, 451.782)" fill="none" stroke="#131f39" stroke-linecap="round" stroke-width="1"/>
        <path id="Line-7" data-name="Line" d="M.5,1.5H6.436" transform="translate(9407.821 449.004)" fill="none" stroke="#131f39" stroke-linecap="square" stroke-miterlimit="10" stroke-width="1.5"/>
      </g>
      <g id="Group_1079" data-name="Group 1079" transform="translate(9998.395 -8837.613) rotate(90)">
        <path id="Path_17-8" data-name="Path 17" d="M2.743,0,1.925.985,1.583,1.4a.274.274,0,0,1-.421,0L0,0" transform="matrix(-0.035, -0.999, 0.999, -0.035, 9414.191, 451.782)" fill="none" stroke="#131f39" stroke-linecap="round" stroke-width="1"/>
        <path id="Line-8" data-name="Line" d="M.5,1.5H6.436" transform="translate(9407.821 449.004)" fill="none" stroke="#131f39" stroke-linecap="square" stroke-miterlimit="10" stroke-width="1.5"/>
      </g>
      <g id="Group_1080" data-name="Group 1080" transform="translate(9919.395 -8837.613) rotate(90)">
        <path id="Path_17-9" data-name="Path 17" d="M2.743,0,1.925.985,1.583,1.4a.274.274,0,0,1-.421,0L0,0" transform="matrix(-0.035, -0.999, 0.999, -0.035, 9414.191, 451.782)" fill="none" stroke="#131f39" stroke-linecap="round" stroke-width="1"/>
        <path id="Line-9" data-name="Line" d="M.5,1.5H6.436" transform="translate(9407.821 449.004)" fill="none" stroke="#131f39" stroke-linecap="square" stroke-miterlimit="10" stroke-width="1.5"/>
      </g>
      <g id="Group_1082" data-name="Group 1082" transform="translate(9827.395 -8837.613) rotate(90)">
        <path id="Path_17-10" data-name="Path 17" d="M2.743,0,1.925.985,1.583,1.4a.274.274,0,0,1-.421,0L0,0" transform="matrix(-0.035, -0.999, 0.999, -0.035, 9414.191, 451.782)" fill="none" stroke="#131f39" stroke-linecap="round" stroke-width="1"/>
        <path id="Line-10" data-name="Line" d="M.5,1.5H6.436" transform="translate(9407.821 449.004)" fill="none" stroke="#131f39" stroke-linecap="square" stroke-miterlimit="10" stroke-width="1.5"/>
      </g>
      <g id="Group_1081" data-name="Group 1081" transform="translate(9919.395 -8806.613) rotate(90)">
        <path id="Path_17-11" data-name="Path 17" d="M2.743,0,1.925.985,1.583,1.4a.274.274,0,0,1-.421,0L0,0" transform="matrix(-0.035, -0.999, 0.999, -0.035, 9414.191, 451.782)" fill="none" stroke="#131f39" stroke-linecap="round" stroke-width="1"/>
        <path id="Line-11" data-name="Line" d="M.5,1.5H6.436" transform="translate(9407.821 449.004)" fill="none" stroke="#131f39" stroke-linecap="square" stroke-miterlimit="10" stroke-width="1.5"/>
      </g>
      <g id="Group_1074" data-name="Group 1074" transform="translate(9997.395 -8882.65) rotate(90)">
        <path id="Path_17-12" data-name="Path 17" d="M2.743,0,1.925.985,1.583,1.4a.274.274,0,0,1-.421,0L0,0" transform="matrix(-0.035, -0.999, 0.999, -0.035, 9426.229, 451.782)" fill="none" stroke="#131f39" stroke-linecap="round" stroke-width="1"/>
        <path id="Line-12" data-name="Line" d="M.5,1.5H18.473" transform="translate(9407.821 449.004)" fill="none" stroke="#131f39" stroke-linecap="square" stroke-miterlimit="10" stroke-width="1.5"/>
      </g>
      <g id="Group_1072" data-name="Group 1072" transform="translate(9827.395 -8882.65) rotate(90)">
        <path id="Path_17-13" data-name="Path 17" d="M2.743,0,1.925.985,1.583,1.4a.274.274,0,0,1-.421,0L0,0" transform="matrix(-0.035, -0.999, 0.999, -0.035, 9426.229, 451.782)" fill="none" stroke="#131f39" stroke-linecap="round" stroke-width="1"/>
        <path id="Line-13" data-name="Line" d="M.5,1.5H18.473" transform="translate(9407.821 449.004)" fill="none" stroke="#131f39" stroke-linecap="square" stroke-miterlimit="10" stroke-width="1.5"/>
      </g>
      <path id="Rectangle_16-8" data-name="Rectangle 16" d="M-10,0H63V20.333H-10Z" transform="translate(9520.832 547.842)" fill="none" stroke="#b365a4" stroke-width="1.5"/>
      <text id="Process-8" data-name="Process" transform="translate(9547 561)" fill="#131f39" font-size="8" font-family="Muli-Bold, Muli" font-weight="700"><tspan x="-33.5" y="0">Receipt / Barcode</tspan></text>
      <path id="Rectangle_16-9" data-name="Rectangle 16" d="M-10,0H54.892V20.333H-10Z" transform="translate(9524.884 579.423)" fill="none" stroke="#b365a4" stroke-width="1.5"/>
      <text id="Process-9" data-name="Process" transform="translate(9548 592)" fill="#131f39" font-size="8" font-family="Muli-Bold, Muli" font-weight="700"><tspan x="-26.192" y="0">Approve data</tspan></text>
      <path id="Rectangle_17-3" data-name="Rectangle 17" d="M9.785,4.727,37.808,0a2.163,2.163,0,0,1,2.163,2.163L32.349,30.948a2.163,2.163,0,0,1-2.163,2.163L2.163,37.839A2.163,2.163,0,0,1,0,35.676L7.622,6.89A2.163,2.163,0,0,1,9.785,4.727Z" transform="matrix(0.766, 0.643, -0.643, 0.766, 9544.397, 476.028)" fill="none" stroke="#131f39" stroke-width="1.5"/>
      <text id="Decision-3" data-name="Decision" transform="translate(9548 505.96)" fill="#191f2b" font-size="8" font-family="Muli-Bold, Muli" font-weight="700"><tspan x="-9.48" y="0">Scan</tspan></text>
      <path id="Rectangle_16-10" data-name="Rectangle 16" d="M-10,0H54.892V20.333H-10Z" transform="translate(9354 547.842)" fill="none" stroke="#b365a4" stroke-width="1.5"/>
      <text id="Process-10" data-name="Process" transform="translate(9374 561)" fill="#131f39" font-size="8" font-family="Muli-Bold, Muli" font-weight="700"><tspan x="-21" y="0">Check item</tspan></text>
      <path id="Rectangle_16-11" data-name="Rectangle 16" d="M-10,0H54.892V20.333H-10Z" transform="translate(9354 579.423)" fill="none" stroke="#b365a4" stroke-width="1.5"/>
      <text id="Process-11" data-name="Process" transform="translate(9375 593)" fill="#131f39" font-size="8" font-family="Muli-Bold, Muli" font-weight="700"><tspan x="-17.248" y="0">Approve </tspan></text>
      <path id="Rectangle_17-4" data-name="Rectangle 17" d="M9.785,4.727,37.808,0a2.163,2.163,0,0,1,2.163,2.163L32.349,30.948a2.163,2.163,0,0,1-2.163,2.163L2.163,37.839A2.163,2.163,0,0,1,0,35.676L7.622,6.89A2.163,2.163,0,0,1,9.785,4.727Z" transform="matrix(0.766, 0.643, -0.643, 0.766, 9373.514, 476.028)" fill="none" stroke="#131f39" stroke-width="1.5"/>
      <text id="Decision-4" data-name="Decision" transform="translate(9375.227 505.96)" fill="#191f2b" font-size="8" font-family="Muli-Bold, Muli" font-weight="700"><tspan x="-8.784" y="0">Lists</tspan></text>
      <path id="Line-14" data-name="Line" d="M7.476,0" transform="translate(9468.81 601.322) rotate(90)" fill="none" stroke="#131f39" stroke-linecap="square" stroke-miterlimit="10" stroke-width="1.5"/>
      <path id="Path_25" data-name="Path 25" d="M3.524,0,2.473,1.266l-.44.53a.352.352,0,0,1-.541,0L0,0" transform="matrix(0.999, -0.035, 0.035, 0.999, 9467.079, 543.752)" fill="none" stroke="#131f39" stroke-linecap="round" stroke-width="1.5"/>
      <path id="Path_2" data-name="Path 2" d="M0,0V41.258c0,3.123,1.877,5.656,4.192,5.656H40.816" transform="translate(9515.742 504.56) rotate(90)" fill="none" stroke="#131f39" stroke-miterlimit="10" stroke-width="1.5"/>
      <path id="Path_25-2" data-name="Path 25" d="M3.524,0,2.473,1.266l-.44.53a.352.352,0,0,1-.541,0L0,0" transform="matrix(-0.035, -0.999, 0.999, -0.035, 9586.089, 650.345)" fill="none" stroke="#131f39" stroke-linecap="round" stroke-width="1.5"/>
      <path id="Path_2-2" data-name="Path 2" d="M0-30V11.258c0,3.123,1.877,5.656,4.192,5.656H40.816" transform="translate(9547.33 631.487)" fill="none" stroke="#131f39" stroke-miterlimit="10" stroke-width="1.5"/>
      <path id="Path_2-3" data-name="Path 2" d="M0,43v9.677c0,3.123,1.877,5.656,4.192,5.656H88.4" transform="translate(9469.026 590.068)" fill="none" stroke="#131f39" stroke-miterlimit="10" stroke-width="1.5"/>
      <path id="Path_2-4" data-name="Path 2" d="M0-32V10.123c0,3.123,1.877,5.656,4.192,5.656H97.056" transform="translate(9376.446 632.622)" fill="none" stroke="#131f39" stroke-miterlimit="10" stroke-width="1.5"/>
      <path id="Rectangle_15-3" data-name="Rectangle 15" d="M-53.05,0H20.062a9.95,9.95,0,0,1,9.95,9.95v.433a9.95,9.95,0,0,1-9.95,9.95H-53.05A9.95,9.95,0,0,1-63,10.383V9.95A9.95,9.95,0,0,1-53.05,0Z" transform="translate(9859.517 440.554)" fill="#01cd90"/>
      <text id="Start_End-3" data-name="Start/End" transform="translate(9842 453)" fill="#131f39" font-size="10" font-family="Questrial-Regular, Questrial"><tspan x="-35.48" y="0">Add Ingredients</tspan></text>
      <path id="Rectangle_15-4" data-name="Rectangle 15" d="M-10.05,0H25.857a9.95,9.95,0,0,1,9.95,9.95v.433a9.95,9.95,0,0,1-9.95,9.95H-10.05A9.95,9.95,0,0,1-20,10.383V9.95A9.95,9.95,0,0,1-10.05,0Z" transform="translate(9835.119 637.827)" fill="#01cd90"/>
      <text id="Start_End-4" data-name="Start/End" transform="translate(9841 652)" fill="#131f39" font-size="11" font-family="Questrial-Regular, Questrial"><tspan x="-14.339" y="0">Finish</tspan></text>
      <path id="Rectangle_16-12" data-name="Rectangle 16" d="M-10,0H50.566V20.333H-10Z" transform="translate(9822.956 489.439)" fill="none" stroke="#b365a4" stroke-width="1.5"/>
      <text id="Process-12" data-name="Process" transform="translate(9843 503)" fill="#131f39" font-size="8" font-family="Muli-Bold, Muli" font-weight="700"><tspan x="-22.772" y="0">Open recipe</tspan></text>
      <path id="Rectangle_16-13" data-name="Rectangle 16" d="M-10,0H60.922V20.333H-10Z" transform="translate(9817.778 521.02)" fill="none" stroke="#b365a4" stroke-width="1.5"/>
      <text id="Process-13" data-name="Process" transform="translate(9843 534)" fill="#131f39" font-size="8" font-family="Muli-Bold, Muli" font-weight="700"><tspan x="-30.34" y="0">Add ingredients</tspan></text>
      <path id="Rectangle_16-14" data-name="Rectangle 16" d="M-10,0H60.922V20.333H-10Z" transform="translate(9817.778 552.601)" fill="none" stroke="#b365a4" stroke-width="1.5"/>
      <text id="Process-14" data-name="Process" transform="translate(9843 565)" fill="#131f39" font-size="8" font-family="Muli-Bold, Muli" font-weight="700"><tspan x="-33.068" y="0">approve / remove</tspan></text>
      <path id="Rectangle_16-15" data-name="Rectangle 16" d="M-10,0H50.566V20.333H-10Z" transform="translate(9914.238 602.352)" fill="none" stroke="#b365a4" stroke-width="1.5"/>
      <text id="Process-15" data-name="Process" transform="translate(9933 615)" fill="#131f39" font-size="8" font-family="Muli-Bold, Muli" font-weight="700"><tspan x="-12.64" y="0">Create</tspan></text>
      <path id="Path_16" data-name="Path 16" d="M2.743,0,1.925.986,1.582,1.4a.274.274,0,0,1-.421,0L0,0" transform="matrix(-0.035, -0.999, 0.999, -0.035, 9903.58, 451.999)" fill="none" stroke="#131f39" stroke-linecap="round" stroke-width="1.5"/>
      <path id="Path_17-14" data-name="Path 17" d="M2.743,0,1.925.986,1.582,1.4a.274.274,0,0,1-.421,0L0,0" transform="matrix(-0.035, -0.999, 0.999, -0.035, 9903.58, 451.999)" fill="none" stroke="#131f39" stroke-linecap="round" stroke-width="1.5"/>
      <path id="Line-15" data-name="Line" d="M.5,1.5H11.959" transform="translate(9892.688 449.201)" fill="none" stroke="#131f39" stroke-linecap="square" stroke-miterlimit="10" stroke-width="1.5"/>
      <path id="Line-16" data-name="Line" d="M.5,1.5H11.959" transform="translate(9892.688 449.201)" fill="none" stroke="#131f39" stroke-linecap="square" stroke-miterlimit="10" stroke-width="1.5"/>
      <path id="Path_16-2" data-name="Path 16" d="M2.743,0,1.925.985,1.583,1.4a.274.274,0,0,1-.421,0L0,0" transform="matrix(0.999, -0.035, 0.035, 0.999, 9841.725, 483.208)" fill="none" stroke="#131f39" stroke-linecap="round" stroke-width="1.5"/>
      <path id="Path_17-15" data-name="Path 17" d="M2.743,0,1.925.985,1.583,1.4a.274.274,0,0,1-.421,0L0,0" transform="matrix(0.999, -0.035, 0.035, 0.999, 9841.725, 483.208)" fill="none" stroke="#131f39" stroke-linecap="round" stroke-width="1.5"/>
      <path id="Line-17" data-name="Line" d="M0,0H19.946" transform="translate(9843.022 464.329) rotate(90)" fill="none" stroke="#131f39" stroke-linecap="square" stroke-miterlimit="10" stroke-width="1.5"/>
      <path id="Line-18" data-name="Line" d="M0,0H19.946" transform="translate(9843.239 464.329) rotate(90)" fill="none" stroke="#131f39" stroke-linecap="square" stroke-miterlimit="10" stroke-width="1.5"/>
      <path id="Path_16-3" data-name="Path 16" d="M2.743,0,1.925.985,1.583,1.4a.274.274,0,0,1-.421,0L0,0" transform="matrix(0.999, -0.035, 0.035, 0.999, 9841.725, 632.461)" fill="none" stroke="#131f39" stroke-linecap="round" stroke-width="1.5"/>
      <path id="Path_17-16" data-name="Path 17" d="M2.743,0,1.925.985,1.583,1.4a.274.274,0,0,1-.421,0L0,0" transform="matrix(0.999, -0.035, 0.035, 0.999, 9841.725, 632.461)" fill="none" stroke="#131f39" stroke-linecap="round" stroke-width="1.5"/>
      <path id="Line-19" data-name="Line" d="M0,0H56.657" transform="translate(9843.022 576.871) rotate(90)" fill="none" stroke="#131f39" stroke-linecap="square" stroke-miterlimit="10" stroke-width="1.5"/>
      <path id="Path_17-17" data-name="Path 17" d="M2.742,1.5,1.924.511,1.582.1a.274.274,0,0,0-.421,0L0,1.5" transform="matrix(0.035, -0.999, 0.999, 0.035, 9777.837, 451.946)" fill="none" stroke="#131f39" stroke-linecap="round" stroke-width="1.5"/>
      <path id="Line-20" data-name="Line" d="M14.23,1.5H.5" transform="translate(9777.767 449.201)" fill="none" stroke="#131f39" stroke-linecap="square" stroke-miterlimit="10" stroke-width="1.5"/>
      <path id="Path_16-4" data-name="Path 16" d="M2.742,1.5,1.924.511,1.582.1a.274.274,0,0,0-.421,0L0,1.5" transform="matrix(0.035, -0.999, 0.999, 0.035, 9778.572, 563.778)" fill="none" stroke="#131f39" stroke-linecap="round" stroke-width="1.5"/>
      <path id="Path_17-18" data-name="Path 17" d="M2.742,1.5,1.924.511,1.582.1a.274.274,0,0,0-.421,0L0,1.5" transform="matrix(0.035, -0.999, 0.999, 0.035, 9778.572, 563.778)" fill="none" stroke="#131f39" stroke-linecap="round" stroke-width="1.5"/>
      <path id="Line-21" data-name="Line" d="M24.661,1.5H.5" transform="translate(9778.501 561.051)" fill="none" stroke="#131f39" stroke-linecap="square" stroke-miterlimit="10" stroke-width="1.5"/>
      <path id="Path_16-5" data-name="Path 16" d="M2.743,0,1.925.985,1.583,1.4a.274.274,0,0,1-.421,0L0,0" transform="matrix(-0.035, -0.999, 0.999, -0.035, 9901.79, 563.83)" fill="none" stroke="#131f39" stroke-linecap="round" stroke-width="1.5"/>
      <path id="Path_17-19" data-name="Path 17" d="M2.743,0,1.925.985,1.583,1.4a.274.274,0,0,1-.421,0L0,0" transform="matrix(-0.035, -0.999, 0.999, -0.035, 9901.79, 563.83)" fill="none" stroke="#131f39" stroke-linecap="round" stroke-width="1.5"/>
      <path id="Line-22" data-name="Line" d="M.5,1.5H21.148" transform="translate(9881.708 561.051)" fill="none" stroke="#131f39" stroke-linecap="square" stroke-miterlimit="10" stroke-width="1.5"/>
      <path id="Path_16-6" data-name="Path 16" d="M2.743,0,1.925.986,1.582,1.4a.274.274,0,0,1-.421,0L0,0" transform="matrix(0.999, -0.035, 0.035, 0.999, 9935.223, 598.701)" fill="none" stroke="#131f39" stroke-linecap="round" stroke-width="1.5"/>
      <path id="Path_17-20" data-name="Path 17" d="M2.743,0,1.925.986,1.582,1.4a.274.274,0,0,1-.421,0L0,0" transform="matrix(0.999, -0.035, 0.035, 0.999, 9935.223, 598.701)" fill="none" stroke="#131f39" stroke-linecap="round" stroke-width="1.5"/>
      <path id="Line-23" data-name="Line" d="M0,0H15.933" transform="translate(9936.285 583.834) rotate(90)" fill="none" stroke="#131f39" stroke-linecap="square" stroke-miterlimit="10" stroke-width="1.5"/>
      <path id="Line-24" data-name="Line" d="M0,0H15.933" transform="translate(9936.502 583.834) rotate(90)" fill="none" stroke="#131f39" stroke-linecap="square" stroke-miterlimit="10" stroke-width="1.5"/>
      <path id="Rectangle_17-5" data-name="Rectangle 17" d="M10.182,4.919,39.341,0a2.251,2.251,0,0,1,2.251,2.251L33.66,32.2a2.251,2.251,0,0,1-2.251,2.251L2.251,39.372A2.251,2.251,0,0,1,0,37.122L7.931,7.17A2.251,2.251,0,0,1,10.182,4.919Z" transform="matrix(0.766, 0.643, -0.643, 0.766, 9744.225, 534.188)" fill="none" stroke="#131f39" stroke-width="1.5"/>
      <text id="Decision-5" data-name="Decision" transform="translate(9747 561)" fill="#191f2b" font-size="8" font-family="Muli-Bold, Muli" font-weight="700"><tspan x="-14.024" y="0">Add to </tspan><tspan x="-14.856" y="8">existing</tspan></text>
      <path id="Rectangle_17-6" data-name="Rectangle 17" d="M9.785,4.727,37.808,0a2.163,2.163,0,0,1,2.163,2.163L32.349,30.948a2.163,2.163,0,0,1-2.163,2.163L2.163,37.839A2.163,2.163,0,0,1,0,35.676L7.622,6.89A2.163,2.163,0,0,1,9.785,4.727Z" transform="matrix(0.766, 0.643, -0.643, 0.766, 9745.131, 423.249)" fill="none" stroke="#131f39" stroke-width="1.5"/>
      <text id="Decision-6" data-name="Decision" transform="translate(9745.815 452.287)" fill="#191f2b" font-size="8" font-family="Muli-Bold, Muli" font-weight="700"><tspan x="-13.824" y="0">Recipe </tspan></text>
      <path id="Rectangle_17-7" data-name="Rectangle 17" d="M9.785,4.727,37.808,0a2.163,2.163,0,0,1,2.163,2.163L32.349,30.948a2.163,2.163,0,0,1-2.163,2.163L2.163,37.839A2.163,2.163,0,0,1,0,35.676L7.622,6.89A2.163,2.163,0,0,1,9.785,4.727Z" transform="matrix(0.766, 0.643, -0.643, 0.766, 9931.156, 423.249)" fill="none" stroke="#131f39" stroke-width="1.5"/>
      <text id="Decision-7" data-name="Decision" transform="translate(9935.272 450.287)" fill="#191f2b" font-size="8" font-family="Muli-Bold, Muli" font-weight="700"><tspan x="-11.864" y="0">Saved</tspan><tspan x="-11.448" y="7">recipe</tspan></text>
      <path id="Rectangle_17-8" data-name="Rectangle 17" d="M10.182,4.919,39.341,0a2.251,2.251,0,0,1,2.251,2.251L33.66,32.2a2.251,2.251,0,0,1-2.251,2.251L2.251,39.372A2.251,2.251,0,0,1,0,37.122L7.931,7.17A2.251,2.251,0,0,1,10.182,4.919Z" transform="matrix(0.766, 0.643, -0.643, 0.766, 9933.24, 534.188)" fill="none" stroke="#131f39" stroke-width="1.5"/>
      <text id="Decision-8" data-name="Decision" transform="translate(9936 565)" fill="#191f2b" font-size="8" font-family="Muli-Bold, Muli" font-weight="700"><tspan x="-21.836" y="0">Create new</tspan></text>
      <path id="Path_16-7" data-name="Path 16" d="M2.743,0,1.925.985,1.583,1.4a.274.274,0,0,1-.421,0L0,0" transform="matrix(0.999, -0.035, 0.035, 0.999, 9841.725, 517.748)" fill="none" stroke="#131f39" stroke-linecap="round" stroke-width="1.5"/>
      <path id="Path_17-21" data-name="Path 17" d="M2.743,0,1.925.985,1.583,1.4a.274.274,0,0,1-.421,0L0,0" transform="matrix(0.999, -0.035, 0.035, 0.999, 9841.725, 517.748)" fill="none" stroke="#131f39" stroke-linecap="round" stroke-width="1.5"/>
      <path id="Line-25" data-name="Line" d="M0,0H7.476" transform="translate(9843.022 511.337) rotate(90)" fill="none" stroke="#131f39" stroke-linecap="square" stroke-miterlimit="10" stroke-width="1.5"/>
      <path id="Line-26" data-name="Line" d="M0,0H7.476" transform="translate(9843.239 511.337) rotate(90)" fill="none" stroke="#131f39" stroke-linecap="square" stroke-miterlimit="10" stroke-width="1.5"/>
      <path id="Path_16-8" data-name="Path 16" d="M2.743,0,1.925.985,1.583,1.4a.274.274,0,0,1-.421,0L0,0" transform="matrix(0.999, -0.035, 0.035, 0.999, 9841.725, 549.329)" fill="none" stroke="#131f39" stroke-linecap="round" stroke-width="1.5"/>
      <path id="Path_17-22" data-name="Path 17" d="M2.743,0,1.925.985,1.583,1.4a.274.274,0,0,1-.421,0L0,0" transform="matrix(0.999, -0.035, 0.035, 0.999, 9841.725, 549.329)" fill="none" stroke="#131f39" stroke-linecap="round" stroke-width="1.5"/>
      <path id="Line-27" data-name="Line" d="M0,0H7.476" transform="translate(9843.022 542.918) rotate(90)" fill="none" stroke="#131f39" stroke-linecap="square" stroke-miterlimit="10" stroke-width="1.5"/>
      <path id="Line-28" data-name="Line" d="M0,0H7.476" transform="translate(9843.239 542.918) rotate(90)" fill="none" stroke="#131f39" stroke-linecap="square" stroke-miterlimit="10" stroke-width="1.5"/>
      <path id="Path_25-3" data-name="Path 25" d="M3.524,0,2.473,1.266l-.44.53a.352.352,0,0,1-.541,0L0,0" transform="matrix(-0.035, -0.999, 0.999, -0.035, 9805.857, 651.643)" fill="none" stroke="#131f39" stroke-linecap="round" stroke-width="1.5"/>
      <path id="Path_2-5" data-name="Path 2" d="M-23-67.746v57.587C-23-7.036-21.123-4.5-18.808-4.5H36.418" transform="translate(9771.063 654.201)" fill="none" stroke="#131f39" stroke-miterlimit="10" stroke-width="1.5"/>
      <path id="Path_25-4" data-name="Path 25" d="M3.523,1.922,2.472.656,2.032.127a.352.352,0,0,0-.541,0L0,1.922" transform="matrix(0.035, -0.999, 0.999, 0.035, 9875.686, 651.576)" fill="none" stroke="#131f39" stroke-linecap="round" stroke-width="1.5"/>
      <path id="Path_2-6" data-name="Path 2" d="M-149.982,25.718V42.871c0,3.123-1.938,5.656-4.329,5.656H-210" transform="translate(10085.982 601.171)" fill="none" stroke="#131f39" stroke-miterlimit="10" stroke-width="1.5"/>
      <path id="Rectangle_15-5" data-name="Rectangle 15" d="M-10.05,0H25.857a9.95,9.95,0,0,1,9.95,9.95v.433a9.95,9.95,0,0,1-9.95,9.95H-10.05A9.95,9.95,0,0,1-20,10.383V9.95A9.95,9.95,0,0,1-10.05,0Z" transform="translate(10277.686 637.827)" fill="#01cd90"/>
      <text id="Start_End-5" data-name="Start/End" transform="translate(10285.001 651)" fill="#131f39" font-size="11" font-family="Questrial-Regular, Questrial"><tspan x="-14.339" y="0">Finish</tspan></text>
      <path id="Rectangle_15-6" data-name="Rectangle 15" d="M-10.05,0H25.857a9.95,9.95,0,0,1,9.95,9.95v.433a9.95,9.95,0,0,1-9.95,9.95H-10.05A9.95,9.95,0,0,1-20,10.383V9.95A9.95,9.95,0,0,1-10.05,0Z" transform="translate(10198.95 440.554)" fill="#01cd90"/>
      <text id="Start_End-6" data-name="Start/End" transform="translate(10206.001 454)" fill="#131f39" font-size="10" font-family="Questrial-Regular, Questrial"><tspan x="-9.26" y="0">Add</tspan></text>
      <path id="Rectangle_16-16" data-name="Rectangle 16" d="M-10,0H54.892V20.333H-10Z" transform="translate(10107.618 547.842)" fill="none" stroke="#b365a4" stroke-width="1.5"/>
      <text id="Process-16" data-name="Process" transform="translate(10130 561)" fill="#131f39" font-size="8" font-family="Muli-Bold, Muli" font-weight="700"><tspan x="-14.92" y="0">Product</tspan></text>
      <path id="Rectangle_16-17" data-name="Rectangle 16" d="M-10,0H54.892V20.333H-10Z" transform="translate(10107.618 579.423)" fill="none" stroke="#b365a4" stroke-width="1.5"/>
      <text id="Process-17" data-name="Process" transform="translate(10130 593)" fill="#131f39" font-size="8" font-family="Muli-Bold, Muli" font-weight="700"><tspan x="-27.456" y="0">Type quantuty</tspan></text>
      <path id="Rectangle_16-18" data-name="Rectangle 16" d="M-10,0H54.892V20.333H-10Z" transform="translate(10262.928 547.842)" fill="none" stroke="#b365a4" stroke-width="1.5"/>
      <text id="Process-18" data-name="Process" transform="translate(10284.001 560)" fill="#131f39" font-size="8" font-family="Muli-Bold, Muli" font-weight="700"><tspan x="-22.516" y="0">Choose unit</tspan></text>
      <path id="Rectangle_16-19" data-name="Rectangle 16" d="M-10,0H54.892V20.333H-10Z" transform="translate(10107.618 611.004)" fill="none" stroke="#b365a4" stroke-width="1.5"/>
      <text id="Process-19" data-name="Process" transform="translate(10130 624)" fill="#131f39" font-size="8" font-family="Muli-Bold, Muli" font-weight="700"><tspan x="-22.516" y="0">Choose unit</tspan></text>
      <path id="Rectangle_17-9" data-name="Rectangle 17" d="M9.785,4.727,37.808,0a2.163,2.163,0,0,1,2.163,2.163L32.349,30.948a2.163,2.163,0,0,1-2.163,2.163L2.163,37.839A2.163,2.163,0,0,1,0,35.676L7.622,6.89A2.163,2.163,0,0,1,9.785,4.727Z" transform="matrix(0.766, 0.643, -0.643, 0.766, 10282.441, 423.249)" fill="none" stroke="#131f39" stroke-width="1.5"/>
      <text id="Decision-9" data-name="Decision" transform="translate(10285.001 453)" fill="#191f2b" font-size="8" font-family="Muli-Bold, Muli" font-weight="700"><tspan x="-9.004" y="0">Type</tspan></text>
      <path id="Rectangle_17-10" data-name="Rectangle 17" d="M11.686,5.3,45.153,0a2.509,2.509,0,0,1,2.583,2.426l-9.1,32.29a2.509,2.509,0,0,1-2.583,2.426l-33.467,5.3A2.509,2.509,0,0,1,0,40.02L9.1,7.73A2.509,2.509,0,0,1,11.686,5.3Z" transform="matrix(0.766, 0.643, -0.643, 0.766, 10054.123, 418.988)" fill="none" stroke="#131f39" stroke-width="1.5"/>
      <text id="Decision-10" data-name="Decision" transform="translate(10060 451)" fill="#191f2b" font-size="8" font-family="Muli-Bold, Muli" font-weight="700"><tspan x="-19.1" y="0">Add from </tspan><tspan x="-11.236" y="8">fridge</tspan></text>
      <path id="Path_16-9" data-name="Path 16" d="M2.743,0,1.925.985,1.583,1.4a.274.274,0,0,1-.421,0L0,0" transform="matrix(-0.035, -0.999, 0.999, -0.035, 10253.931, 451.782)" fill="none" stroke="#131f39" stroke-linecap="round" stroke-width="1.5"/>
      <path id="Path_17-23" data-name="Path 17" d="M2.743,0,1.925.985,1.583,1.4a.274.274,0,0,1-.421,0L0,0" transform="matrix(-0.035, -0.999, 0.999, -0.035, 10253.931, 451.782)" fill="none" stroke="#131f39" stroke-linecap="round" stroke-width="1.5"/>
      <path id="Line-29" data-name="Line" d="M.5,1.5H17.6" transform="translate(10237.398 449.004)" fill="none" stroke="#131f39" stroke-linecap="square" stroke-miterlimit="10" stroke-width="1.5"/>
      <path id="Path_16-10" data-name="Path 16" d="M2.742,1.5,1.924.511,1.582.1a.274.274,0,0,0-.421,0L0,1.5" transform="matrix(0.035, -0.999, 0.999, 0.035, 10093.753, 451.73)" fill="none" stroke="#131f39" stroke-linecap="round" stroke-width="1.5"/>
      <path id="Path_17-24" data-name="Path 17" d="M2.742,1.5,1.924.511,1.582.1a.274.274,0,0,0-.421,0L0,1.5" transform="matrix(0.035, -0.999, 0.999, 0.035, 10093.753, 451.73)" fill="none" stroke="#131f39" stroke-linecap="round" stroke-width="1.5"/>
      <path id="Line-30" data-name="Line" d="M81.059,1.5H.5" transform="translate(10093.683 449.004)" fill="none" stroke="#131f39" stroke-linecap="square" stroke-miterlimit="10" stroke-width="1.5"/>
      <path id="Path_16-11" data-name="Path 16" d="M2.743,0,1.925.985,1.583,1.4a.274.274,0,0,1-.421,0L0,0" transform="matrix(0.999, -0.035, 0.035, 0.999, 10205.556, 482.451)" fill="none" stroke="#131f39" stroke-linecap="round" stroke-width="1.5"/>
      <path id="Path_17-25" data-name="Path 17" d="M2.743,0,1.925.985,1.583,1.4a.274.274,0,0,1-.421,0L0,0" transform="matrix(0.999, -0.035, 0.035, 0.999, 10205.556, 482.451)" fill="none" stroke="#131f39" stroke-linecap="round" stroke-width="1.5"/>
      <path id="Line-31" data-name="Line" d="M0,0H19.946" transform="translate(10206.854 463.571) rotate(90)" fill="none" stroke="#131f39" stroke-linecap="square" stroke-miterlimit="10" stroke-width="1.5"/>
      <path id="Path_16-12" data-name="Path 16" d="M2.743,0,1.925.985,1.583,1.4a.274.274,0,0,1-.421,0L0,0" transform="matrix(0.999, -0.035, 0.035, 0.999, 10205.556, 542.152)" fill="none" stroke="#131f39" stroke-linecap="round" stroke-width="1.5"/>
      <path id="Path_17-26" data-name="Path 17" d="M2.743,0,1.925.985,1.583,1.4a.274.274,0,0,1-.421,0L0,0" transform="matrix(0.999, -0.035, 0.035, 0.999, 10205.556, 542.152)" fill="none" stroke="#131f39" stroke-linecap="round" stroke-width="1.5"/>
      <path id="Line-32" data-name="Line" d="M0,0H19.946" transform="translate(10206.854 523.272) rotate(90)" fill="none" stroke="#131f39" stroke-linecap="square" stroke-miterlimit="10" stroke-width="1.5"/>
      <path id="Path_16-13" data-name="Path 16" d="M2.743,0,1.925.986,1.583,1.4a.274.274,0,0,1-.421,0L0,0" transform="matrix(0.999, -0.035, 0.035, 0.999, 10283.859, 480.521)" fill="none" stroke="#131f39" stroke-linecap="round" stroke-width="1.5"/>
      <path id="Path_17-27" data-name="Path 17" d="M2.743,0,1.925.986,1.583,1.4a.274.274,0,0,1-.421,0L0,0" transform="matrix(0.999, -0.035, 0.035, 0.999, 10283.859, 480.521)" fill="none" stroke="#131f39" stroke-linecap="round" stroke-width="1.5"/>
      <path id="Line-33" data-name="Line" d="M0,0H9.805" transform="translate(10285.399 471.791) rotate(90)" fill="none" stroke="#131f39" stroke-linecap="square" stroke-miterlimit="10" stroke-width="1.5"/>
      <path id="Path_16-14" data-name="Path 16" d="M2.743,0,1.925.986,1.583,1.4a.274.274,0,0,1-.421,0L0,0" transform="matrix(0.999, -0.035, 0.035, 0.999, 10058.466, 480.579)" fill="none" stroke="#131f39" stroke-linecap="round" stroke-width="1.5"/>
      <path id="Path_17-28" data-name="Path 17" d="M2.743,0,1.925.986,1.583,1.4a.274.274,0,0,1-.421,0L0,0" transform="matrix(0.999, -0.035, 0.035, 0.999, 10058.466, 480.579)" fill="none" stroke="#131f39" stroke-linecap="round" stroke-width="1.5"/>
      <path id="Line-34" data-name="Line" d="M0,0H8.082" transform="translate(10059.764 473.564) rotate(90)" fill="none" stroke="#131f39" stroke-linecap="square" stroke-miterlimit="10" stroke-width="1.5"/>
      <path id="Path_16-15" data-name="Path 16" d="M2.743,0,1.925.985,1.583,1.4a.274.274,0,0,1-.421,0L0,0" transform="matrix(0.999, -0.035, 0.035, 0.999, 10283.859, 634.732)" fill="none" stroke="#131f39" stroke-linecap="round" stroke-width="1.5"/>
      <path id="Path_17-29" data-name="Path 17" d="M2.743,0,1.925.985,1.583,1.4a.274.274,0,0,1-.421,0L0,0" transform="matrix(0.999, -0.035, 0.035, 0.999, 10283.859, 634.732)" fill="none" stroke="#131f39" stroke-linecap="round" stroke-width="1.5"/>
      <path id="Line-35" data-name="Line" d="M0,0H63.976" transform="translate(10285.373 571.823) rotate(90)" fill="none" stroke="#131f39" stroke-linecap="square" stroke-miterlimit="10" stroke-width="1.5"/>
      <path id="Rectangle_16-20" data-name="Rectangle 16" d="M-10,0H54.892V20.333H-10Z" transform="translate(10262.928 484.68)" fill="none" stroke="#b365a4" stroke-width="1.5"/>
      <text id="Process-20" data-name="Process" transform="translate(10284.001 497)" fill="#131f39" font-size="8" font-family="Muli-Bold, Muli" font-weight="700"><tspan x="-24.876" y="0">Type product</tspan></text>
      <path id="Rectangle_16-21" data-name="Rectangle 16" d="M-10,0H54.892V20.333H-10Z" transform="translate(10262.928 516.261)" fill="none" stroke="#b365a4" stroke-width="1.5"/>
      <text id="Process-21" data-name="Process" transform="translate(10284.001 529)" fill="#131f39" font-size="8" font-family="Muli-Bold, Muli" font-weight="700"><tspan x="-26.116" y="0">Type quantity</tspan></text>
      <path id="Path_16-16" data-name="Path 16" d="M2.743,0,1.925.985,1.583,1.4a.274.274,0,0,1-.421,0L0,0" transform="matrix(0.999, -0.035, 0.035, 0.999, 10283.859, 512.989)" fill="none" stroke="#131f39" stroke-linecap="round" stroke-width="1.5"/>
      <path id="Path_17-30" data-name="Path 17" d="M2.743,0,1.925.985,1.583,1.4a.274.274,0,0,1-.421,0L0,0" transform="matrix(0.999, -0.035, 0.035, 0.999, 10283.859, 512.989)" fill="none" stroke="#131f39" stroke-linecap="round" stroke-width="1.5"/>
      <path id="Line-36" data-name="Line" d="M0,0H7.476" transform="translate(10285.373 506.579) rotate(90)" fill="none" stroke="#131f39" stroke-linecap="square" stroke-miterlimit="10" stroke-width="1.5"/>
      <path id="Rectangle_16-22" data-name="Rectangle 16" d="M-10,0H54.892V20.333H-10Z" transform="translate(10037.534 484.68)" fill="none" stroke="#b365a4" stroke-width="1.5"/>
      <text id="Process-22" data-name="Process" transform="translate(10060 497)" fill="#131f39" font-size="8" font-family="Muli-Bold, Muli" font-weight="700"><tspan x="-25.524" y="0">Mark product</tspan></text>
      <path id="Rectangle_16-23" data-name="Rectangle 16" d="M-10,0H54.892V20.333H-10Z" transform="translate(10037.534 516.261)" fill="none" stroke="#b365a4" stroke-width="1.5"/>
      <text id="Process-23" data-name="Process" transform="translate(10060 529)" fill="#131f39" font-size="8" font-family="Muli-Bold, Muli" font-weight="700"><tspan x="-26.116" y="0">Type quantity</tspan></text>
      <path id="Path_16-17" data-name="Path 16" d="M2.743,0,1.925.985,1.583,1.4a.274.274,0,0,1-.421,0L0,0" transform="matrix(0.999, -0.035, 0.035, 0.999, 10058.466, 512.989)" fill="none" stroke="#131f39" stroke-linecap="round" stroke-width="1.5"/>
      <path id="Path_17-31" data-name="Path 17" d="M2.743,0,1.925.985,1.583,1.4a.274.274,0,0,1-.421,0L0,0" transform="matrix(0.999, -0.035, 0.035, 0.999, 10058.466, 512.989)" fill="none" stroke="#131f39" stroke-linecap="round" stroke-width="1.5"/>
      <path id="Line-37" data-name="Line" d="M0,0H6.815" transform="translate(10059.98 507.24) rotate(90)" fill="none" stroke="#131f39" stroke-linecap="square" stroke-miterlimit="10" stroke-width="1.5"/>
      <path id="Path_16-18" data-name="Path 16" d="M2.743,0,1.925.985,1.583,1.4a.274.274,0,0,1-.421,0L0,0" transform="matrix(0.999, -0.035, 0.035, 0.999, 10128.982, 576.151)" fill="none" stroke="#131f39" stroke-linecap="round" stroke-width="1.5"/>
      <path id="Path_17-32" data-name="Path 17" d="M2.743,0,1.925.985,1.583,1.4a.274.274,0,0,1-.421,0L0,0" transform="matrix(0.999, -0.035, 0.035, 0.999, 10128.982, 576.151)" fill="none" stroke="#131f39" stroke-linecap="round" stroke-width="1.5"/>
      <path id="Line-38" data-name="Line" d="M0,0H7.476" transform="translate(10130.28 569.741) rotate(90)" fill="none" stroke="#131f39" stroke-linecap="square" stroke-miterlimit="10" stroke-width="1.5"/>
      <path id="Rectangle_16-24" data-name="Rectangle 16" d="M-10,0H60.725V20.333H-10Z" transform="translate(10181.275 547.842)" fill="none" stroke="#b365a4" stroke-width="1.5"/>
      <text id="Process-24" data-name="Process" transform="translate(10206 561)" fill="#131f39" font-size="8" font-family="Muli-Bold, Muli" font-weight="700"><tspan x="-33.5" y="0">Receipt / Barcode</tspan></text>
      <path id="Rectangle_16-25" data-name="Rectangle 16" d="M-10,0H54.892V20.333H-10Z" transform="translate(10184.191 579.423)" fill="none" stroke="#b365a4" stroke-width="1.5"/>
      <text id="Process-25" data-name="Process" transform="translate(10207 593)" fill="#131f39" font-size="8" font-family="Muli-Bold, Muli" font-weight="700"><tspan x="-26.192" y="0">Approve data</tspan></text>
      <path id="Rectangle_17-11" data-name="Rectangle 17" d="M9.785,4.727,37.808,0a2.163,2.163,0,0,1,2.163,2.163L32.349,30.948a2.163,2.163,0,0,1-2.163,2.163L2.163,37.839A2.163,2.163,0,0,1,0,35.676L7.622,6.89A2.163,2.163,0,0,1,9.785,4.727Z" transform="matrix(0.766, 0.643, -0.643, 0.766, 10203.705, 476.028)" fill="none" stroke="#131f39" stroke-width="1.5"/>
      <text id="Decision-11" data-name="Decision" transform="translate(10204.985 505.96)" fill="#191f2b" font-size="8" font-family="Muli-Bold, Muli" font-weight="700"><tspan x="-9.48" y="0">Scan</tspan></text>
      <path id="Path_16-19" data-name="Path 16" d="M2.743,0,1.925.985,1.583,1.4a.274.274,0,0,1-.421,0L0,0" transform="matrix(0.999, -0.035, 0.035, 0.999, 10205.556, 576.151)" fill="none" stroke="#131f39" stroke-linecap="round" stroke-width="1.5"/>
      <path id="Path_17-33" data-name="Path 17" d="M2.743,0,1.925.985,1.583,1.4a.274.274,0,0,1-.421,0L0,0" transform="matrix(0.999, -0.035, 0.035, 0.999, 10205.556, 576.151)" fill="none" stroke="#131f39" stroke-linecap="round" stroke-width="1.5"/>
      <path id="Line-39" data-name="Line" d="M0,0H7.476" transform="translate(10206.854 569.741) rotate(90)" fill="none" stroke="#131f39" stroke-linecap="square" stroke-miterlimit="10" stroke-width="1.5"/>
      <path id="Path_16-20" data-name="Path 16" d="M2.743,0,1.925.985,1.583,1.4a.274.274,0,0,1-.421,0L0,0" transform="matrix(0.999, -0.035, 0.035, 0.999, 10283.859, 544.57)" fill="none" stroke="#131f39" stroke-linecap="round" stroke-width="1.5"/>
      <path id="Path_17-34" data-name="Path 17" d="M2.743,0,1.925.985,1.583,1.4a.274.274,0,0,1-.421,0L0,0" transform="matrix(0.999, -0.035, 0.035, 0.999, 10283.859, 544.57)" fill="none" stroke="#131f39" stroke-linecap="round" stroke-width="1.5"/>
      <path id="Line-40" data-name="Line" d="M0,0H7.476" transform="translate(10285.373 538.16) rotate(90)" fill="none" stroke="#131f39" stroke-linecap="square" stroke-miterlimit="10" stroke-width="1.5"/>
      <path id="Path_16-21" data-name="Path 16" d="M2.743,0,1.925.985,1.583,1.4a.274.274,0,0,1-.421,0L0,0" transform="matrix(0.999, -0.035, 0.035, 0.999, 10128.982, 607.732)" fill="none" stroke="#131f39" stroke-linecap="round" stroke-width="1.5"/>
      <path id="Path_17-35" data-name="Path 17" d="M2.743,0,1.925.985,1.583,1.4a.274.274,0,0,1-.421,0L0,0" transform="matrix(0.999, -0.035, 0.035, 0.999, 10128.982, 607.732)" fill="none" stroke="#131f39" stroke-linecap="round" stroke-width="1.5"/>
      <path id="Line-41" data-name="Line" d="M0,0H7.476" transform="translate(10130.28 601.322) rotate(90)" fill="none" stroke="#131f39" stroke-linecap="square" stroke-miterlimit="10" stroke-width="1.5"/>
      <path id="Path_25-5" data-name="Path 25" d="M3.524,0,2.473,1.266l-.44.53a.352.352,0,0,1-.541,0L0,0" transform="matrix(0.999, -0.035, 0.035, 0.999, 10127.922, 543.752)" fill="none" stroke="#131f39" stroke-linecap="round" stroke-width="1.5"/>
      <path id="Path_2-7" data-name="Path 2" d="M0,0V41.258c0,3.123,1.877,5.656,4.192,5.656H40.816" transform="translate(10176.78 504.56) rotate(90)" fill="none" stroke="#131f39" stroke-miterlimit="10" stroke-width="1.5"/>
      <path id="Path_25-6" data-name="Path 25" d="M3.524,0,2.473,1.266l-.44.53a.352.352,0,0,1-.541,0L0,0" transform="matrix(-0.035, -0.999, 0.999, -0.035, 10246.262, 650.345)" fill="none" stroke="#131f39" stroke-linecap="round" stroke-width="1.5"/>
      <path id="Path_2-8" data-name="Path 2" d="M0-30V11.258c0,3.123,1.877,5.656,4.192,5.656H40.816" transform="translate(10207.07 631.487)" fill="none" stroke="#131f39" stroke-miterlimit="10" stroke-width="1.5"/>
      <path id="Path_2-9" data-name="Path 2" d="M0,43v9.677c0,3.123,1.877,5.656,4.192,5.656H88.4" transform="translate(10130.064 590.068)" fill="none" stroke="#131f39" stroke-miterlimit="10" stroke-width="1.5"/>
      <path id="Path_2-10" data-name="Path 2" d="M0-175.486v104.2c0,3.123,1.877,5.656,4.192,5.656H88.4" transform="translate(10059.98 714.033)" fill="none" stroke="#131f39" stroke-miterlimit="10" stroke-width="1.5"/>
      <path id="Path_17-36" data-name="Path 17" d="M2.743,0,1.925.985,1.583,1.4a.274.274,0,0,1-.421,0L0,0" transform="matrix(-0.035, -0.999, 0.999, -0.035, 9510.201, 451.782)" fill="none" stroke="#131f39" stroke-linecap="round" stroke-width="1"/>
      <path id="Path_17-37" data-name="Path 17" d="M2.743,0,1.925.986,1.583,1.4a.274.274,0,0,1-.421,0L0,0" transform="matrix(-0.035, -0.999, 0.999, -0.035, 9594.201, 451.782)" fill="none" stroke="#131f39" stroke-linecap="round" stroke-width="1"/>
      <g id="arrows_dark_arrow_1" data-name="arrows dark/arrow 1" transform="translate(9493.914 450.504)">
        <path id="Line-42" data-name="Line" d="M.5,1.5H16.853" transform="translate(-0.5 -1.5)" fill="none" stroke="#131f39" stroke-linecap="square" stroke-miterlimit="10" stroke-width="1.5"/>
      </g>
      <g id="arrows_dark_arrow_1-2" data-name="arrows dark/arrow 1" transform="translate(9583.606 450.504)">
        <path id="Line-43" data-name="Line" d="M.5,1.5H11.16" transform="translate(-0.5 -1.5)" fill="none" stroke="#131f39" stroke-linecap="square" stroke-miterlimit="10" stroke-width="1.5"/>
      </g>
    </g>
  </g>
</svg>
