<svg xmlns="http://www.w3.org/2000/svg" width="1049" height="353.84" viewBox="0 0 1049 353.84">
  <g id="uff" transform="translate(-9256 527)">
    <rect id="Rectangle_484" data-name="Rectangle 484" width="1049" height="353.84" transform="translate(9256 -527)" fill="#fff"/>
    <text id="Exploring_recipes_cooking_with_app:" data-name="Exploring recipes &amp; cooking with app:" transform="translate(9474 -476)" fill="#242e42" font-size="13" font-family="Questrial-Regular, Questrial"><tspan x="0" y="0">Exploring recipes &amp; cooking with app:</tspan></text>
    <text id="Manage_settings:" data-name="Manage settings:" transform="translate(10030 -476)" fill="#242e42" font-size="13" font-family="Questrial-Regular, Questrial"><tspan x="0" y="0">Manage settings:</tspan></text>
    <g id="Group_1120" data-name="Group 1120">
      <path id="Path_3" data-name="Path 3" d="M49.7,0H21.873c-3.13.041-5.622,1.87-5.566,4.087v174.23c.056,2.217-2.435,4.047-5.566,4.087H-40" transform="translate(9499.29 -425.28)" fill="none" stroke="#131f39" stroke-miterlimit="10" stroke-width="1.5"/>
      <path id="Rectangle_15" data-name="Rectangle 15" d="M-24.05,0H35.857a9.95,9.95,0,0,1,9.95,9.95v.433a9.95,9.95,0,0,1-9.95,9.95H-24.05A9.95,9.95,0,0,1-34,10.383V9.95A9.95,9.95,0,0,1-24.05,0Z" transform="translate(9339 -435.446)" fill="#01cd90"/>
      <path id="Rectangle_15-2" data-name="Rectangle 15" d="M-14.05,0H25.857a9.95,9.95,0,0,1,9.95,9.95v.433a9.95,9.95,0,0,1-9.95,9.95H-14.05A9.95,9.95,0,0,1-24,10.383V9.95A9.95,9.95,0,0,1-14.05,0Z" transform="translate(9422 -254.446)" fill="#01cd90"/>
      <path id="Rectangle_15-3" data-name="Rectangle 15" d="M-14.05,0H15.857a9.95,9.95,0,0,1,9.95,9.95v.433a9.95,9.95,0,0,1-9.95,9.95H-14.05A9.95,9.95,0,0,1-24,10.383V9.95A9.95,9.95,0,0,1-14.05,0Z" transform="translate(9576 -435.446)" fill="#01cd90"/>
      <path id="Rectangle_15-4" data-name="Rectangle 15" d="M-14.05,0H15.857a9.95,9.95,0,0,1,9.95,9.95v.433a9.95,9.95,0,0,1-9.95,9.95H-14.05A9.95,9.95,0,0,1-24,10.383V9.95A9.95,9.95,0,0,1-14.05,0Z" transform="translate(9832 -324.446)" fill="#01cd90"/>
      <text id="Start_End" data-name="Start/End" transform="translate(9345 -422)" fill="#131f39" font-size="10" font-family="Questrial-Regular, Questrial"><tspan x="-34.26" y="0">Explore recipes</tspan></text>
      <text id="Start_End-2" data-name="Start/End" transform="translate(9428 -241)" fill="#131f39" font-size="10" font-family="Questrial-Regular, Questrial"><tspan x="-16.11" y="0">Search</tspan></text>
      <text id="Start_End-3" data-name="Start/End" transform="translate(9577 -422)" fill="#131f39" font-size="10" font-family="Questrial-Regular, Questrial"><tspan x="-11.6" y="0">Cook</tspan></text>
      <text id="Start_End-4" data-name="Start/End" transform="translate(9833 -311)" fill="#131f39" font-size="10" font-family="Questrial-Regular, Questrial"><tspan x="-13.035" y="0">Finish</tspan></text>
      <path id="Rectangle_16" data-name="Rectangle 16" d="M-10,0H54.892V20.333H-10Z" transform="translate(9322.5 -319.446)" fill="none" stroke="#b365a4" stroke-width="1.5"/>
      <path id="Rectangle_16-2" data-name="Rectangle 16" d="M-10,0H54.892V20.333H-10Z" transform="translate(9405.5 -376.446)" fill="none" stroke="#b365a4" stroke-width="1.5"/>
      <path id="Rectangle_16-3" data-name="Rectangle 16" d="M-10,0H54.892V20.333H-10Z" transform="translate(9557.5 -376.446)" fill="none" stroke="#b365a4" stroke-width="1.5"/>
      <path id="Rectangle_16-4" data-name="Rectangle 16" d="M-10,0H23.1V20.333H-10Z" transform="translate(9670.395 -321.446)" fill="none" stroke="#b365a4" stroke-width="1.5"/>
      <path id="Rectangle_16-5" data-name="Rectangle 16" d="M-10,0H23.1V20.333H-10Z" transform="translate(9745.395 -266.446)" fill="none" stroke="#b365a4" stroke-width="1.5"/>
      <text id="Process" transform="translate(9345 -306)" fill="#131f39" font-size="8" font-family="Muli-Bold, Muli" font-weight="700"><tspan x="-23.448" y="0">Select filters</tspan></text>
      <text id="Process-2" data-name="Process" transform="translate(9428 -363)" fill="#131f39" font-size="8" font-family="Muli-Bold, Muli" font-weight="700"><tspan x="-28.488" y="0">Type keywords</tspan></text>
      <text id="Process-3" data-name="Process" transform="translate(9580 -363)" fill="#131f39" font-size="8" font-family="Muli-Bold, Muli" font-weight="700"><tspan x="-23.836" y="0">Follow steps</tspan></text>
      <text id="Process-4" data-name="Process" transform="translate(9677 -308)" fill="#131f39" font-size="8" font-family="Muli-Bold, Muli" font-weight="700"><tspan x="-8.992" y="0">Rate</tspan></text>
      <text id="Process-5" data-name="Process" transform="translate(9752 -253)" fill="#131f39" font-size="8" font-family="Muli-Bold, Muli" font-weight="700"><tspan x="-6.26" y="0">Set</tspan></text>
      <path id="Rectangle_17" data-name="Rectangle 17" d="M9.785,4.727,37.808,0a2.163,2.163,0,0,1,2.163,2.163L32.349,30.948a2.163,2.163,0,0,1-2.163,2.163L2.163,37.839A2.163,2.163,0,0,1,0,35.676L7.622,6.89A2.163,2.163,0,0,1,9.785,4.727Z" transform="matrix(0.766, 0.643, -0.643, 0.766, 9341.822, -392.751)" fill="none" stroke="#131f39" stroke-width="1.5"/>
      <path id="Rectangle_17-2" data-name="Rectangle 17" d="M9.785,4.727,37.808,0a2.163,2.163,0,0,1,2.163,2.163L32.349,30.948a2.163,2.163,0,0,1-2.163,2.163L2.163,37.839A2.163,2.163,0,0,1,0,35.676L7.622,6.89A2.163,2.163,0,0,1,9.785,4.727Z" transform="matrix(0.766, 0.643, -0.643, 0.766, 9576.822, -349.751)" fill="none" stroke="#131f39" stroke-width="1.5"/>
      <path id="Rectangle_17-3" data-name="Rectangle 17" d="M9.785,4.727,37.808,0a2.163,2.163,0,0,1,2.163,2.163L32.349,30.948a2.163,2.163,0,0,1-2.163,2.163L2.163,37.839A2.163,2.163,0,0,1,0,35.676L7.622,6.89A2.163,2.163,0,0,1,9.785,4.727Z" transform="matrix(0.766, 0.643, -0.643, 0.766, 9673.822, -393.751)" fill="none" stroke="#131f39" stroke-width="1.5"/>
      <path id="Rectangle_17-4" data-name="Rectangle 17" d="M9.785,4.727,37.808,0a2.163,2.163,0,0,1,2.163,2.163L32.349,30.948a2.163,2.163,0,0,1-2.163,2.163L2.163,37.839A2.163,2.163,0,0,1,0,35.676L7.622,6.89A2.163,2.163,0,0,1,9.785,4.727Z" transform="matrix(0.766, 0.643, -0.643, 0.766, 9748.822, -338.751)" fill="none" stroke="#131f39" stroke-width="1.5"/>
      <text id="Decision" transform="translate(9345 -363)" fill="#191f2b" font-size="8" font-family="Muli-Bold, Muli" font-weight="700"><tspan x="-11.496" y="0">Filter?</tspan></text>
      <text id="Decision-2" data-name="Decision" transform="translate(9580 -323)" fill="#191f2b" font-size="8" font-family="Muli-Bold, Muli" font-weight="700"><tspan x="-9.812" y="0">Start</tspan><tspan x="-11.764" y="8">timer?</tspan></text>
      <text id="Decision-3" data-name="Decision" transform="translate(9677 -363)" fill="#191f2b" font-size="8" font-family="Muli-Bold, Muli" font-weight="700"><tspan x="-10.804" y="0">Rate?</tspan></text>
      <text id="Decision-4" data-name="Decision" transform="translate(9752 -316)" fill="#191f2b" font-size="8" font-family="Muli-Bold, Muli" font-weight="700"><tspan x="-7.356" y="0">Set </tspan><tspan x="-18.128" y="8">leftovers?</tspan></text>
      <g id="Group_1084" data-name="Group 1084" transform="translate(9794.782 -9817.65) rotate(90)">
        <path id="Path_17" data-name="Path 17" d="M2.743,0,1.925.985,1.583,1.4a.274.274,0,0,1-.421,0L0,0" transform="matrix(-0.035, -0.999, 0.999, -0.035, 9426.229, 451.782)" fill="none" stroke="#131f39" stroke-linecap="round" stroke-width="1"/>
        <path id="Line" d="M.5,1.5H18.473" transform="translate(9407.821 449.004)" fill="none" stroke="#131f39" stroke-linecap="square" stroke-miterlimit="10" stroke-width="1.5"/>
      </g>
      <g id="Group_1090" data-name="Group 1090" transform="translate(10031.782 -9817.65) rotate(90)">
        <path id="Path_17-2" data-name="Path 17" d="M2.743,0,1.925.985,1.583,1.4a.274.274,0,0,1-.421,0L0,0" transform="matrix(-0.035, -0.999, 0.999, -0.035, 9433.742, 451.782)" fill="none" stroke="#131f39" stroke-linecap="round" stroke-width="1"/>
        <path id="Line-2" data-name="Line" d="M.5,1.5H25.987" transform="translate(9407.821 449.004)" fill="none" stroke="#131f39" stroke-linecap="square" stroke-miterlimit="10" stroke-width="1.5"/>
      </g>
      <g id="Group_1097" data-name="Group 1097" transform="translate(208.617 -817.257)">
        <path id="Path_17-3" data-name="Path 17" d="M2.743,0,1.925.985,1.583,1.4a.274.274,0,0,1-.421,0L0,0" transform="matrix(-0.035, -0.999, 0.999, -0.035, 9433.742, 451.782)" fill="none" stroke="#131f39" stroke-linecap="round" stroke-width="1"/>
        <path id="Line-3" data-name="Line" d="M.5,1.5H25.987" transform="translate(9407.821 449.004)" fill="none" stroke="#131f39" stroke-linecap="square" stroke-miterlimit="10" stroke-width="1.5"/>
      </g>
      <g id="Group_1098" data-name="Group 1098" transform="translate(289.547 -762.257)">
        <path id="Path_17-4" data-name="Path 17" d="M2.743,0,1.925.985,1.583,1.4a.274.274,0,0,1-.421,0L0,0" transform="matrix(-0.035, -0.999, 0.999, -0.035, 9430.813, 451.782)" fill="none" stroke="#131f39" stroke-linecap="round" stroke-width="1"/>
        <path id="Line-4" data-name="Line" d="M.5,1.5H23.057" transform="translate(9407.821 449.004)" fill="none" stroke="#131f39" stroke-linecap="square" stroke-miterlimit="10" stroke-width="1.5"/>
      </g>
      <g id="Group_1101" data-name="Group 1101" transform="translate(375.015 -763.257)">
        <path id="Path_17-5" data-name="Path 17" d="M2.743,0,1.925.985,1.583,1.4a.274.274,0,0,1-.421,0L0,0" transform="matrix(-0.035, -0.999, 0.999, -0.035, 9428.345, 451.782)" fill="none" stroke="#131f39" stroke-linecap="round" stroke-width="1"/>
        <path id="Line-5" data-name="Line" d="M.5,1.5H20.589" transform="translate(9407.821 449.004)" fill="none" stroke="#131f39" stroke-linecap="square" stroke-miterlimit="10" stroke-width="1.5"/>
      </g>
      <g id="Group_1091" data-name="Group 1091" transform="translate(10030.782 -9760.65) rotate(90)">
        <path id="Path_17-6" data-name="Path 17" d="M2.743,0,1.925.985,1.583,1.4a.274.274,0,0,1-.421,0L0,0" transform="matrix(-0.035, -0.999, 0.999, -0.035, 9415.671, 451.782)" fill="none" stroke="#131f39" stroke-linecap="round" stroke-width="1"/>
        <path id="Path_17-7" data-name="Path 17" d="M0,0,.818.985,1.16,1.4a.274.274,0,0,0,.421,0L2.742,0" transform="matrix(-0.035, 0.999, -0.999, -0.035, 9408.893, 449.042)" fill="none" stroke="#131f39" stroke-linecap="round" stroke-width="1"/>
        <path id="Line-6" data-name="Line" d="M.5,1.5H7.915" transform="translate(9407.821 449.004)" fill="none" stroke="#131f39" stroke-linecap="square" stroke-miterlimit="10" stroke-width="1.5"/>
      </g>
      <g id="Group_1089" data-name="Group 1089" transform="translate(9878.282 -9718.65) rotate(90)">
        <path id="Path_17-8" data-name="Path 17" d="M2.743,0,1.925.985,1.583,1.4a.274.274,0,0,1-.421,0L0,0" transform="matrix(-0.035, -0.999, 0.999, -0.035, 9460.793, 451.782)" fill="none" stroke="#131f39" stroke-linecap="round" stroke-width="1"/>
        <path id="Line-7" data-name="Line" d="M.5,1.5H53.038" transform="translate(9407.821 449.004)" fill="none" stroke="#131f39" stroke-linecap="square" stroke-miterlimit="10" stroke-width="1.5"/>
      </g>
      <g id="Group_1085" data-name="Group 1085" transform="translate(9794.782 -9750.65) rotate(90)">
        <path id="Path_17-9" data-name="Path 17" d="M2.743,0,1.925.985,1.583,1.4a.274.274,0,0,1-.421,0L0,0" transform="matrix(-0.035, -0.999, 0.999, -0.035, 9426.229, 451.782)" fill="none" stroke="#131f39" stroke-linecap="round" stroke-width="1"/>
        <path id="Line-8" data-name="Line" d="M.5,1.5H18.473" transform="translate(9407.821 449.004)" fill="none" stroke="#131f39" stroke-linecap="square" stroke-miterlimit="10" stroke-width="1.5"/>
      </g>
      <g id="Group_1095" data-name="Group 1095" transform="translate(10127.782 -9753.321) rotate(90)">
        <path id="Path_17-10" data-name="Path 17" d="M2.743,0,1.925.985,1.583,1.4a.274.274,0,0,1-.421,0L0,0" transform="matrix(-0.035, -0.999, 0.999, -0.035, 9426.229, 451.782)" fill="none" stroke="#131f39" stroke-linecap="round" stroke-width="1"/>
        <path id="Line-9" data-name="Line" d="M.5,1.5H18.473" transform="translate(9407.821 449.004)" fill="none" stroke="#131f39" stroke-linecap="square" stroke-miterlimit="10" stroke-width="1.5"/>
      </g>
      <g id="Group_1096" data-name="Group 1096" transform="translate(10202.782 -9698.321) rotate(90)">
        <path id="Path_17-11" data-name="Path 17" d="M2.743,0,1.925.985,1.583,1.4a.274.274,0,0,1-.421,0L0,0" transform="matrix(-0.035, -0.999, 0.999, -0.035, 9426.229, 451.782)" fill="none" stroke="#131f39" stroke-linecap="round" stroke-width="1"/>
        <path id="Line-10" data-name="Line" d="M.5,1.5H18.473" transform="translate(9407.821 449.004)" fill="none" stroke="#131f39" stroke-linecap="square" stroke-miterlimit="10" stroke-width="1.5"/>
      </g>
      <g id="Group_1086" data-name="Group 1086" transform="translate(-33.014 -817.014)">
        <path id="Path_17-12" data-name="Path 17" d="M2.743,0,1.925.985,1.583,1.4a.274.274,0,0,1-.421,0L0,0" transform="matrix(-0.035, -0.999, 0.999, -0.035, 9424.662, 451.782)" fill="none" stroke="#131f39" stroke-linecap="round" stroke-width="1"/>
        <path id="Line-11" data-name="Line" d="M.5,1.5H16.906" transform="translate(9407.821 449.004)" fill="none" stroke="#131f39" stroke-linecap="square" stroke-miterlimit="10" stroke-width="1.5"/>
      </g>
      <g id="Group_1088" data-name="Group 1088" transform="translate(9382.092 -350.44)">
        <path id="Path_25" data-name="Path 25" d="M3.523,0,2.472,1.266,2.032,1.8a.352.352,0,0,1-.541,0L0,0" transform="matrix(-0.999, 0.035, -0.035, -0.999, 48.663, 1.921)" fill="none" stroke="#131f39" stroke-linecap="round" stroke-width="1.5"/>
        <path id="Path_25-2" data-name="Path 25" d="M3.523,0,2.472,1.266,2.032,1.8a.352.352,0,0,1-.541,0L0,0" transform="translate(1.83 39.261) rotate(90)" fill="none" stroke="#131f39" stroke-linecap="round" stroke-width="1.5"/>
        <path id="Path_2" data-name="Path 2" d="M0,0V41.258c0,3.123,1.877,5.656,4.192,5.656H40.816" transform="translate(0 41.112) rotate(-90)" fill="none" stroke="#131f39" stroke-miterlimit="10" stroke-width="1.5"/>
      </g>
      <path id="Path_17-13" data-name="Path 17" d="M2.743,0,1.925.985,1.583,1.4a.274.274,0,0,1-.421,0L0,0" transform="matrix(-0.035, -0.999, 0.999, -0.035, 9547.648, -424.027)" fill="none" stroke="#131f39" stroke-linecap="round" stroke-width="1"/>
      <g id="Group_1093" data-name="Group 1093" transform="translate(-42 120)">
        <path id="Path_25-3" data-name="Path 25" d="M4.76,2.6,3.339.887,2.746.172a.475.475,0,0,0-.731,0L0,2.6" transform="matrix(-0.999, -0.035, 0.035, -0.999, 9797.705, -452.384)" fill="none" stroke="#131f39" stroke-linecap="round" stroke-width="1.5"/>
        <path id="Path_2-2" data-name="Path 2" d="M22.413,5.72v36c0,4.219-2.536,7.641-5.664,7.641H-10.886" transform="translate(9745.81 -463.785) rotate(-90)" fill="none" stroke="#131f39" stroke-miterlimit="10" stroke-width="1.5"/>
      </g>
      <g id="Group_1100" data-name="Group 1100" transform="translate(9786.529 -288.198)">
        <path id="Path_2-3" data-name="Path 2" d="M33.3,55.68V7.641C33.3,3.422,30.763,0,27.635,0H0" transform="translate(43.639 0.515) rotate(90)" fill="none" stroke="#131f39" stroke-miterlimit="10" stroke-width="1.5"/>
      </g>
      <g id="Group_1094" data-name="Group 1094" transform="translate(35 101)">
        <path id="Path_25-4" data-name="Path 25" d="M4.76,2.6,3.339.887,2.746.172a.475.475,0,0,0-.731,0L0,2.6" transform="matrix(-0.999, -0.035, 0.035, -0.999, 9797.705, -430.384)" fill="none" stroke="#131f39" stroke-linecap="round" stroke-width="1.5"/>
        <path id="Path_2-4" data-name="Path 2" d="M52.413-39.389V41.717c0,4.219-2.536,7.641-5.664,7.641H-23.378" transform="translate(9745.81 -453.785) rotate(-90)" fill="none" stroke="#131f39" stroke-miterlimit="10" stroke-width="1.5"/>
        <path id="Path_2-5" data-name="Path 2" d="M60.757,121.89l.034-136.248c0-4.219-2.536-7.641-5.664-7.641H38.113" transform="translate(9585.421 -445.407) rotate(-90)" fill="none" stroke="#131f39" stroke-miterlimit="10" stroke-width="1.5"/>
      </g>
      <g id="Group_1099" data-name="Group 1099" transform="translate(9620.421 -293.198)">
        <path id="Path_25-5" data-name="Path 25" d="M4.76,0,3.339,1.71l-.594.715a.475.475,0,0,1-.731,0L0,0" transform="matrix(-0.999, 0.035, -0.035, -0.999, 212.375, -3.405)" fill="none" stroke="#131f39" stroke-linecap="round" stroke-width="1.5"/>
        <path id="Path_2-6" data-name="Path 2" d="M60.791,88.747V7.641C60.791,3.422,58.255,0,55.127,0H-6.081" transform="translate(209.747 1.023) rotate(90)" fill="none" stroke="#131f39" stroke-miterlimit="10" stroke-width="1.5"/>
        <path id="Path_2-7" data-name="Path 2" d="M24.644,0l.034,58.248c0,4.219-2.536,7.641-5.664,7.641H-40.345" transform="translate(121.89 37.136) rotate(90)" fill="none" stroke="#131f39" stroke-miterlimit="10" stroke-width="1.5"/>
      </g>
    </g>
    <g id="Group_1119" data-name="Group 1119">
      <path id="Rectangle_15-5" data-name="Rectangle 15" d="M-14.05,0H15.857a9.95,9.95,0,0,1,9.95,9.95v.433a9.95,9.95,0,0,1-9.95,9.95H-14.05A9.95,9.95,0,0,1-24,10.383V9.95A9.95,9.95,0,0,1-14.05,0Z" transform="translate(9967 -435.446)" fill="#01cd90"/>
      <path id="Rectangle_15-6" data-name="Rectangle 15" d="M-14.05,0H15.857a9.95,9.95,0,0,1,9.95,9.95v.433a9.95,9.95,0,0,1-9.95,9.95H-14.05A9.95,9.95,0,0,1-24,10.383V9.95A9.95,9.95,0,0,1-14.05,0Z" transform="translate(10202 -231.446)" fill="#01cd90"/>
      <text id="Start_End-5" data-name="Start/End" transform="translate(9968 -422)" fill="#131f39" font-size="10" font-family="Questrial-Regular, Questrial"><tspan x="-14.055" y="0">Profile</tspan></text>
      <text id="Start_End-6" data-name="Start/End" transform="translate(10202 -218)" fill="#131f39" font-size="10" font-family="Questrial-Regular, Questrial"><tspan x="-13.035" y="0">Finish</tspan></text>
      <path id="Rectangle_16-6" data-name="Rectangle 16" d="M-10,0H66.258V20.333H-10Z" transform="translate(10060.5 -271.446)" fill="none" stroke="#b365a4" stroke-width="1.5"/>
      <g id="Group_1105" data-name="Group 1105" transform="translate(7.5 -0.554)">
        <path id="Rectangle_16-7" data-name="Rectangle 16" d="M-10,0H66.258V20.333H-10Z" transform="translate(9932.5 -321.446)" fill="none" stroke="#b365a4" stroke-width="1.5"/>
        <text id="Process-6" data-name="Process" transform="translate(9961 -308)" fill="#131f39" font-size="8" font-family="Muli-Bold, Muli" font-weight="700"><tspan x="-31.128" y="0">Set connection/s</tspan></text>
      </g>
      <g id="Group_1104" data-name="Group 1104" transform="translate(0.5 -2.554)">
        <path id="Rectangle_16-8" data-name="Rectangle 16" d="M-10,0H66.258V20.333H-10Z" transform="translate(10060.5 -319.446)" fill="none" stroke="#b365a4" stroke-width="1.5"/>
        <text id="Process-7" data-name="Process" transform="translate(10089 -306)" fill="#131f39" font-size="8" font-family="Muli-Bold, Muli" font-weight="700"><tspan x="-20.66" y="0">Turn on/off</tspan></text>
      </g>
      <g id="Group_1106" data-name="Group 1106" transform="translate(-7.5 40.446)">
        <path id="Rectangle_16-9" data-name="Rectangle 16" d="M-10,0H21.258V20.333H-10Z" transform="translate(10204.5 -362.446)" fill="none" stroke="#b365a4" stroke-width="1.5"/>
        <text id="Process-8" data-name="Process" transform="translate(10210 -349)" fill="#131f39" font-size="8" font-family="Muli-Bold, Muli" font-weight="700"><tspan x="-6.26" y="0">Set</tspan></text>
      </g>
      <text id="Process-9" data-name="Process" transform="translate(10089 -258)" fill="#131f39" font-size="8" font-family="Muli-Bold, Muli" font-weight="700"><tspan x="-28.92" y="0">Set time period</tspan></text>
      <g id="Group_1103" data-name="Group 1103" transform="translate(6.5 -0.249)">
        <path id="Rectangle_17-5" data-name="Rectangle 17" d="M9.785,4.727,37.808,0a2.163,2.163,0,0,1,2.163,2.163L32.349,30.948a2.163,2.163,0,0,1-2.163,2.163L2.163,37.839A2.163,2.163,0,0,1,0,35.676L7.622,6.89A2.163,2.163,0,0,1,9.785,4.727Z" transform="matrix(0.766, 0.643, -0.643, 0.766, 9957.822, -393.751)" fill="none" stroke="#131f39" stroke-width="1.5"/>
        <text id="Decision-5" data-name="Decision" transform="translate(9961 -363)" fill="#191f2b" font-size="8" font-family="Muli-Bold, Muli" font-weight="700"><tspan x="-17.496" y="0">Connect?</tspan></text>
      </g>
      <g id="Group_1102" data-name="Group 1102" transform="translate(-0.5 3.751)">
        <path id="Rectangle_17-6" data-name="Rectangle 17" d="M9.785,4.727,37.808,0a2.163,2.163,0,0,1,2.163,2.163L32.349,30.948a2.163,2.163,0,0,1-2.163,2.163L2.163,37.839A2.163,2.163,0,0,1,0,35.676L7.622,6.89A2.163,2.163,0,0,1,9.785,4.727Z" transform="matrix(0.766, 0.643, -0.643, 0.766, 10085.822, -397.751)" fill="none" stroke="#131f39" stroke-width="1.5"/>
        <text id="Decision-6" data-name="Decision" transform="translate(10089 -370)" fill="#191f2b" font-size="8" font-family="Muli-Bold, Muli" font-weight="700"><tspan x="-15.444" y="0">Manage</tspan><tspan x="-11.308" y="8">stats?</tspan></text>
      </g>
      <g id="Group_1111" data-name="Group 1111" transform="translate(113.5 3.751)">
        <path id="Rectangle_17-7" data-name="Rectangle 17" d="M9.785,4.727,37.808,0a2.163,2.163,0,0,1,2.163,2.163L32.349,30.948a2.163,2.163,0,0,1-2.163,2.163L2.163,37.839A2.163,2.163,0,0,1,0,35.676L7.622,6.89A2.163,2.163,0,0,1,9.785,4.727Z" transform="matrix(0.766, 0.643, -0.643, 0.766, 10085.822, -397.751)" fill="none" stroke="#131f39" stroke-width="1.5"/>
        <text id="Decision-7" data-name="Decision" transform="translate(10089 -373)" fill="#191f2b" font-size="8" font-family="Muli-Bold, Muli" font-weight="700"><tspan x="-7.356" y="0">Set </tspan><tspan x="-12.192" y="8">goals?</tspan></text>
      </g>
      <g id="Group_1107" data-name="Group 1107" transform="translate(10418.782 -9818.321) rotate(90)">
        <path id="Path_17-14" data-name="Path 17" d="M2.743,0,1.925.985,1.583,1.4a.274.274,0,0,1-.421,0L0,0" transform="matrix(-0.035, -0.999, 0.999, -0.035, 9426.229, 451.782)" fill="none" stroke="#131f39" stroke-linecap="round" stroke-width="1"/>
        <path id="Line-12" data-name="Line" d="M.5,1.5H18.473" transform="translate(9407.821 449.004)" fill="none" stroke="#131f39" stroke-linecap="square" stroke-miterlimit="10" stroke-width="1.5"/>
      </g>
      <g id="Group_1108" data-name="Group 1108" transform="translate(10418.782 -9753.321) rotate(90)">
        <path id="Path_17-15" data-name="Path 17" d="M2.743,0,1.925.985,1.583,1.4a.274.274,0,0,1-.421,0L0,0" transform="matrix(-0.035, -0.999, 0.999, -0.035, 9426.229, 451.782)" fill="none" stroke="#131f39" stroke-linecap="round" stroke-width="1"/>
        <path id="Line-13" data-name="Line" d="M.5,1.5H18.473" transform="translate(9407.821 449.004)" fill="none" stroke="#131f39" stroke-linecap="square" stroke-miterlimit="10" stroke-width="1.5"/>
      </g>
      <g id="Group_1109" data-name="Group 1109" transform="translate(10539.782 -9753.321) rotate(90)">
        <path id="Path_17-16" data-name="Path 17" d="M2.743,0,1.925.985,1.583,1.4a.274.274,0,0,1-.421,0L0,0" transform="matrix(-0.035, -0.999, 0.999, -0.035, 9426.229, 451.782)" fill="none" stroke="#131f39" stroke-linecap="round" stroke-width="1"/>
        <path id="Line-14" data-name="Line" d="M.5,1.5H18.473" transform="translate(9407.821 449.004)" fill="none" stroke="#131f39" stroke-linecap="square" stroke-miterlimit="10" stroke-width="1.5"/>
      </g>
      <g id="Group_1115" data-name="Group 1115" transform="translate(711.814 -816.685)">
        <path id="Path_17-17" data-name="Path 17" d="M2.743,0,1.925.985,1.583,1.4a.274.274,0,0,1-.421,0L0,0" transform="matrix(-0.035, -0.999, 0.999, -0.035, 9458.788, 451.782)" fill="none" stroke="#131f39" stroke-linecap="round" stroke-width="1"/>
        <path id="Line-15" data-name="Line" d="M.5,1.5H51.032" transform="translate(9407.821 449.004)" fill="none" stroke="#131f39" stroke-linecap="square" stroke-miterlimit="10" stroke-width="1.5"/>
      </g>
      <g id="Group_1113" data-name="Group 1113" transform="translate(10653.782 -9753.321) rotate(90)">
        <path id="Path_17-18" data-name="Path 17" d="M2.743,0,1.925.985,1.583,1.4a.274.274,0,0,1-.421,0L0,0" transform="matrix(-0.035, -0.999, 0.999, -0.035, 9426.229, 451.782)" fill="none" stroke="#131f39" stroke-linecap="round" stroke-width="1"/>
        <path id="Line-16" data-name="Line" d="M.5,1.5H18.473" transform="translate(9407.821 449.004)" fill="none" stroke="#131f39" stroke-linecap="square" stroke-miterlimit="10" stroke-width="1.5"/>
      </g>
      <g id="Group_1110" data-name="Group 1110" transform="translate(10539.782 -9703.321) rotate(90)">
        <path id="Path_17-19" data-name="Path 17" d="M2.743,0,1.925.985,1.583,1.4a.274.274,0,0,1-.421,0L0,0" transform="matrix(-0.035, -0.999, 0.999, -0.035, 9426.229, 451.782)" fill="none" stroke="#131f39" stroke-linecap="round" stroke-width="1"/>
        <path id="Line-17" data-name="Line" d="M.5,1.5H18.473" transform="translate(9407.821 449.004)" fill="none" stroke="#131f39" stroke-linecap="square" stroke-miterlimit="10" stroke-width="1.5"/>
      </g>
      <g id="Group_1114" data-name="Group 1114" transform="translate(10653.782 -9703.321) rotate(90)">
        <path id="Path_17-20" data-name="Path 17" d="M2.743,0,1.925.985,1.583,1.4a.274.274,0,0,1-.421,0L0,0" transform="matrix(-0.035, -0.999, 0.999, -0.035, 9465.229, 451.782)" fill="none" stroke="#131f39" stroke-linecap="round" stroke-width="1"/>
        <path id="Line-18" data-name="Line" d="M.5,1.5H57.473" transform="translate(9407.821 449.004)" fill="none" stroke="#131f39" stroke-linecap="square" stroke-miterlimit="10" stroke-width="1.5"/>
      </g>
      <g id="Group_1112" data-name="Group 1112" transform="translate(293 61)">
        <path id="Path_25-6" data-name="Path 25" d="M4.76,2.6,3.339.887,2.746.172a.475.475,0,0,0-.731,0L0,2.6" transform="matrix(-0.999, -0.035, 0.035, -0.999, 9797.705, -452.384)" fill="none" stroke="#131f39" stroke-linecap="round" stroke-width="1.5"/>
        <path id="Path_2-8" data-name="Path 2" d="M22.413-37.822V41.717c0,4.219-2.536,7.641-5.664,7.641H-10.886" transform="translate(9745.81 -463.785) rotate(-90)" fill="none" stroke="#131f39" stroke-miterlimit="10" stroke-width="1.5"/>
      </g>
      <g id="Group_1117" data-name="Group 1117" transform="translate(10507.183 9429.601) rotate(-90)">
        <path id="Path_25-7" data-name="Path 25" d="M4.76,2.6,3.339.887,2.746.172a.475.475,0,0,0-.731,0L0,2.6" transform="matrix(-0.999, -0.035, 0.035, -0.999, 9797.705, -452.384)" fill="none" stroke="#131f39" stroke-linecap="round" stroke-width="1.5"/>
        <path id="Path_2-9" data-name="Path 2" d="M42.413,11.178V41.717c0,4.219-2.536,7.641-5.664,7.641H-10.886" transform="translate(9745.81 -463.785) rotate(-90)" fill="none" stroke="#131f39" stroke-miterlimit="10" stroke-width="1.5"/>
      </g>
      <g id="Group_1118" data-name="Group 1118" transform="translate(10142.799 -257.195) rotate(90)">
        <path id="Path_2-10" data-name="Path 2" d="M53.3,29.181V7.641C53.3,3.422,50.764,0,47.635,0" transform="translate(38.181 0.515) rotate(90)" fill="none" stroke="#131f39" stroke-miterlimit="10" stroke-width="1.5"/>
      </g>
      <g id="Group_1116" data-name="Group 1116" transform="translate(10171.799 -306.195) rotate(90)">
        <path id="Path_25-8" data-name="Path 25" d="M4.76,0,3.339,1.71l-.594.715a.475.475,0,0,1-.731,0L0,0" transform="matrix(-0.999, 0.035, -0.035, -0.999, 89.809, 2.595)" fill="none" stroke="#131f39" stroke-linecap="round" stroke-width="1.5"/>
        <path id="Path_2-11" data-name="Path 2" d="M203.3,78.181V7.641C203.3,3.422,200.763,0,197.635,0H0" transform="translate(87.181 0.515) rotate(90)" fill="none" stroke="#131f39" stroke-miterlimit="10" stroke-width="1.5"/>
      </g>
      <path id="Path_25-9" data-name="Path 25" d="M4.76,0,3.339,1.71l-.594.715a.475.475,0,0,1-.731,0L0,0" transform="matrix(-0.999, 0.035, -0.035, -0.999, 10182.796, -350.603)" fill="none" stroke="#131f39" stroke-linecap="round" stroke-width="1.5"/>
      <path id="Path_2-12" data-name="Path 2" d="M85.791,48.747V7.641C85.791,3.422,83.255,0,80.127,0H-6.081" transform="translate(10180.168 -346.175) rotate(90)" fill="none" stroke="#131f39" stroke-miterlimit="10" stroke-width="1.5"/>
    </g>
  </g>
</svg>
