<svg xmlns="http://www.w3.org/2000/svg" width="1349" height="662" viewBox="0 0 1349 662">
  <g id="first" transform="translate(-125 -6901)">
    <g id="Group_1751" data-name="Group 1751" opacity="0">
      <path id="Path_1797" data-name="Path 1797" d="M0,0H1349V662H0Z" transform="translate(125 6901)" fill="#f1f1f1"/>
      <path id="Path_1798" data-name="Path 1798" d="M0,0H1349V310H0Z" transform="translate(125 7253)" fill="#0d1214"/>
    </g>
    <g id="Group_1752" data-name="Group 1752" transform="translate(0 -29)">
      <path id="Path_1796" data-name="Path 1796" d="M13.16.2a9.736,9.736,0,0,1-5.7-1.74A11.276,11.276,0,0,1,3.58-6.48,18.88,18.88,0,0,1,2.2-14a18.88,18.88,0,0,1,1.38-7.52,11.276,11.276,0,0,1,3.88-4.94,9.736,9.736,0,0,1,5.7-1.74,9.736,9.736,0,0,1,5.7,1.74,11.276,11.276,0,0,1,3.88,4.94A18.88,18.88,0,0,1,24.12-14a18.88,18.88,0,0,1-1.38,7.52,11.276,11.276,0,0,1-3.88,4.94A9.736,9.736,0,0,1,13.16.2Zm0-1.88a7.749,7.749,0,0,0,4.66-1.46,9.391,9.391,0,0,0,3.14-4.24A17.683,17.683,0,0,0,22.08-14a17.683,17.683,0,0,0-1.12-6.62,9.391,9.391,0,0,0-3.14-4.24,7.749,7.749,0,0,0-4.66-1.46A7.749,7.749,0,0,0,8.5-24.86a9.391,9.391,0,0,0-3.14,4.24A17.683,17.683,0,0,0,4.24-14,17.683,17.683,0,0,0,5.36-7.38,9.391,9.391,0,0,0,8.5-3.14,7.749,7.749,0,0,0,13.16-1.68ZM35.52-28V0H33.48V-26.16H26.64V-28ZM44.4.16a1.614,1.614,0,0,1-1.18-.5,1.66,1.66,0,0,1-.5-1.22,1.6,1.6,0,0,1,.5-1.2,1.647,1.647,0,0,1,1.18-.48,1.647,1.647,0,0,1,1.18.48,1.6,1.6,0,0,1,.5,1.2,1.66,1.66,0,0,1-.5,1.22A1.614,1.614,0,0,1,44.4.16ZM70.92.2A16.307,16.307,0,0,1,65.06-.86,11.3,11.3,0,0,1,60.72-3.6l.92-1.52a10.836,10.836,0,0,0,3.98,2.54,14.283,14.283,0,0,0,5.26.98q4,0,6.04-1.52a4.718,4.718,0,0,0,2.04-3.96,4.139,4.139,0,0,0-1.08-3A7.143,7.143,0,0,0,75.2-11.8a36.819,36.819,0,0,0-4.32-1.24,42.126,42.126,0,0,1-4.94-1.48,7.886,7.886,0,0,1-3.16-2.22,5.925,5.925,0,0,1-1.3-4.02,6.835,6.835,0,0,1,1.08-3.74,7.333,7.333,0,0,1,3.3-2.7,13.5,13.5,0,0,1,5.54-1,15.615,15.615,0,0,1,4.56.68,13.413,13.413,0,0,1,3.88,1.84l-.76,1.64a12.96,12.96,0,0,0-3.7-1.76,13.93,13.93,0,0,0-3.98-.6,9.428,9.428,0,0,0-5.88,1.56,4.892,4.892,0,0,0-2,4.04,4.139,4.139,0,0,0,1.08,3,7.143,7.143,0,0,0,2.68,1.72,40.683,40.683,0,0,0,4.36,1.28,40.865,40.865,0,0,1,4.92,1.48,8.092,8.092,0,0,1,3.14,2.18A5.709,5.709,0,0,1,81-7.2a6.648,6.648,0,0,1-1.1,3.72A7.483,7.483,0,0,1,76.52-.8,13.932,13.932,0,0,1,70.92.2Zm36.32-2.04V0H87.92V-28h18.72v1.84H89.96v11.04h14.92v1.8H89.96V-1.84Zm12.8-24.32H109.96V-28h22.2v1.84H122.08V0h-2.04ZM147.6.2q-5.32,0-8.26-3.08t-2.94-9V-28h2.04v16.04q0,5.16,2.36,7.72t6.84,2.56q4.44,0,6.8-2.56t2.36-7.72V-28h2.04v16.12q0,5.92-2.96,9T147.6.2ZM178.4-28q5.28,0,8.28,2.5a8.541,8.541,0,0,1,3,6.94,8.5,8.5,0,0,1-3,6.9q-3,2.5-8.28,2.5h-8V0h-2.04V-28Zm0,17q4.48,0,6.84-1.96a6.869,6.869,0,0,0,2.36-5.6,6.928,6.928,0,0,0-2.36-5.62q-2.36-1.98-6.84-1.98h-8V-11Z" transform="translate(955 7020)" fill="#0d1214"/>
    </g>
  </g>
</svg>
