<svg xmlns="http://www.w3.org/2000/svg" xmlns:xlink="http://www.w3.org/1999/xlink" width="1349" height="918.973" viewBox="0 0 1349 918.973">
  <defs>
    <radialGradient id="radial-gradient" cx="0.396" cy="0.5" r="0.269" gradientTransform="translate(0 -0.172) scale(1 1.343)" gradientUnits="objectBoundingBox">
      <stop offset="0" stop-color="#0d1214" stop-opacity="0"/>
      <stop offset="0.757" stop-color="#0d1214" stop-opacity="0"/>
      <stop offset="1" stop-color="#0d1214"/>
    </radialGradient>
  </defs>
  <g id="second" transform="translate(-9 -7000)">
    <path id="Path_1386" data-name="Path 1386" d="M0,0H1349V800H0Z" transform="translate(9 7000)" fill="#0d1214" opacity="0"/>
    <path id="Path_1809" data-name="Path 1809" d="M0,0H1349V918.973H0Z" transform="translate(9 7000)" fill="url(#radial-gradient)"/>
    <g id="Group_1741" data-name="Group 1741" transform="translate(0 29)">
      <path id="Path_1812" data-name="Path 1812" d="M13.04.12A9.312,9.312,0,0,1,7.46-1.62,11.252,11.252,0,0,1,3.7-6.56,19.148,19.148,0,0,1,2.36-14,19.148,19.148,0,0,1,3.7-21.44a11.252,11.252,0,0,1,3.76-4.94,9.312,9.312,0,0,1,5.58-1.74,9.312,9.312,0,0,1,5.58,1.74,11.252,11.252,0,0,1,3.76,4.94A19.148,19.148,0,0,1,23.72-14a19.148,19.148,0,0,1-1.34,7.44,11.252,11.252,0,0,1-3.76,4.94A9.312,9.312,0,0,1,13.04.12Zm0-.76A8.506,8.506,0,0,0,18.2-2.28a10.58,10.58,0,0,0,3.48-4.66A18.5,18.5,0,0,0,22.92-14a18.5,18.5,0,0,0-1.24-7.06,10.58,10.58,0,0,0-3.48-4.66,8.506,8.506,0,0,0-5.16-1.64,8.506,8.506,0,0,0-5.16,1.64A10.58,10.58,0,0,0,4.4-21.06,18.5,18.5,0,0,0,3.16-14,18.5,18.5,0,0,0,4.4-6.94,10.58,10.58,0,0,0,7.88-2.28,8.506,8.506,0,0,0,13.04-.64ZM46.52-.76V0H27.8V-.6L39.92-12.88a18.461,18.461,0,0,0,3.4-4.34,8.25,8.25,0,0,0,.88-3.7,5.871,5.871,0,0,0-2.02-4.72,8.67,8.67,0,0,0-5.78-1.72,13.54,13.54,0,0,0-5,.84,9.431,9.431,0,0,0-3.64,2.56l-.56-.56q3.24-3.6,9.2-3.6a9.55,9.55,0,0,1,6.28,1.92A6.439,6.439,0,0,1,45-20.96a8.918,8.918,0,0,1-.96,4.04,19.44,19.44,0,0,1-3.56,4.56L29.04-.76Zm5.8.88A1,1,0,0,1,51.6-.2a1,1,0,0,1-.32-.72.974.974,0,0,1,.32-.74,1.026,1.026,0,0,1,.72-.3,1,1,0,0,1,.74.3,1,1,0,0,1,.3.74,1.026,1.026,0,0,1-.3.72A.974.974,0,0,1,52.32.12ZM71.28-28h.8V0h-.8Zm33.44,0V0h-.68L83.52-26.52V0h-.8V-28h.68L103.92-1.48V-28Zm31.32,0L123.44,0h-.8l-12.6-28h.92L123.04-1.08,135.12-28Zm5.12,0h.8V0h-.8Zm16.68.76h-10.4V-28h21.6v.76h-10.4V0h-.8ZM193.16-.76V0H174.52V-28h18.04v.76H175.32V-14.6h15.44v.76H175.32V-.76Zm18.88-26.48V-13.8h15.44v.76H212.04V0h-.8V-28h18.04v.76ZM256.28,0l-7.12-9.88a16.9,16.9,0,0,1-3.28.28H237.2V0h-.8V-28h9.48q5.16,0,8.08,2.42a8.318,8.318,0,0,1,2.92,6.78,8.737,8.737,0,0,1-1.8,5.62,9.161,9.161,0,0,1-5.08,3.1L257.28,0ZM245.96-10.36q4.88,0,7.5-2.2a7.7,7.7,0,0,0,2.62-6.24,7.7,7.7,0,0,0-2.62-6.24q-2.62-2.2-7.5-2.2H237.2v16.88ZM265.04-28h.8V0h-.8ZM295.12-.76V0H276.48V-28h18.04v.76H277.28V-14.6h15.44v.76H277.28V-.76ZM325.2-28V0h-.68L304-26.52V0h-.8V-28h.68L324.4-1.48V-28Zm10.64,0h10.6a15.978,15.978,0,0,1,7.7,1.8,13.041,13.041,0,0,1,5.2,5A14.063,14.063,0,0,1,361.2-14a14.063,14.063,0,0,1-1.86,7.2,13.041,13.041,0,0,1-5.2,5,15.978,15.978,0,0,1-7.7,1.8h-10.6ZM346.36-.76a15.42,15.42,0,0,0,7.38-1.7,12.165,12.165,0,0,0,4.92-4.72A13.412,13.412,0,0,0,360.4-14a13.412,13.412,0,0,0-1.74-6.82,12.165,12.165,0,0,0-4.92-4.72,15.42,15.42,0,0,0-7.38-1.7h-9.72V-.76Zm29.36.88A14.916,14.916,0,0,1,370-.98a10.184,10.184,0,0,1-4.12-2.86l.56-.52a10.138,10.138,0,0,0,3.88,2.66,13.682,13.682,0,0,0,5.36,1.06q4.36,0,6.58-1.74a5.46,5.46,0,0,0,2.22-4.5,4.928,4.928,0,0,0-1.16-3.44,7.231,7.231,0,0,0-2.86-1.92,38.862,38.862,0,0,0-4.58-1.32A41.343,41.343,0,0,1,371-15.02a7.641,7.641,0,0,1-3.06-2.16,5.763,5.763,0,0,1-1.26-3.9,6.511,6.511,0,0,1,1-3.52,6.887,6.887,0,0,1,3.12-2.56,12.688,12.688,0,0,1,5.24-.96,14.188,14.188,0,0,1,4.4.7,12.789,12.789,0,0,1,3.72,1.86l-.44.64a12.218,12.218,0,0,0-3.66-1.82,13.516,13.516,0,0,0-3.98-.62q-4.2,0-6.4,1.78a5.587,5.587,0,0,0-2.2,4.54,5,5,0,0,0,1.16,3.46,7.115,7.115,0,0,0,2.88,1.94,44.2,44.2,0,0,0,4.64,1.36A41.935,41.935,0,0,1,381-12.82a7.654,7.654,0,0,1,3.04,2.12,5.6,5.6,0,0,1,1.24,3.82,6.327,6.327,0,0,1-1.04,3.52,7.019,7.019,0,0,1-3.18,2.54A13.3,13.3,0,0,1,375.72.12Z" transform="translate(633 7199)" fill="#f1f1f1"/>
      <path id="Path_1810" data-name="Path 1810" d="M4.392,12.1a3.417,3.417,0,0,1-2.532-.87A3.506,3.506,0,0,1,1,8.652v-5.2h.972v5.28a2.614,2.614,0,0,0,.612,1.89,2.416,2.416,0,0,0,1.812.63A2.368,2.368,0,0,0,6.18,10.62a2.618,2.618,0,0,0,.612-1.884V3.456h.984v5.2a3.51,3.51,0,0,1-.864,2.568A3.386,3.386,0,0,1,4.392,12.1Zm7.356-.012a3.527,3.527,0,0,1-2.412-.78l.324-.72a3.422,3.422,0,0,0,.99.546,3.5,3.5,0,0,0,1.134.174,1.89,1.89,0,0,0,1.038-.234.763.763,0,0,0,.354-.678.719.719,0,0,0-.24-.57,1.889,1.889,0,0,0-.792-.342l-1.02-.24a2.25,2.25,0,0,1-1.17-.6A1.44,1.44,0,0,1,9.54,7.608a1.556,1.556,0,0,1,.288-.93,1.912,1.912,0,0,1,.8-.63,3.011,3.011,0,0,1,1.224-.228,3.5,3.5,0,0,1,1.2.2A2.54,2.54,0,0,1,14,6.612l-.324.708a3.172,3.172,0,0,0-.882-.534,2.589,2.589,0,0,0-.942-.174,1.709,1.709,0,0,0-1,.252.8.8,0,0,0-.354.684.782.782,0,0,0,.222.588,1.543,1.543,0,0,0,.714.336l1.02.252a2.4,2.4,0,0,1,1.254.594,1.446,1.446,0,0,1,.4,1.05,1.473,1.473,0,0,1-.636,1.248A2.857,2.857,0,0,1,11.748,12.084Zm8.856-.8a2.813,2.813,0,0,1-1.014.588,3.811,3.811,0,0,1-1.266.216,3.307,3.307,0,0,1-1.614-.372,2.529,2.529,0,0,1-1.044-1.074A3.578,3.578,0,0,1,15.3,8.964a3.58,3.58,0,0,1,.36-1.644,2.708,2.708,0,0,1,1-1.1,2.765,2.765,0,0,1,1.482-.4,2.585,2.585,0,0,1,1.38.354,2.282,2.282,0,0,1,.882,1.014,3.742,3.742,0,0,1,.306,1.584v.18h-4.56V8.316H20.16l-.312.444a2.5,2.5,0,0,0-.414-1.62,1.52,1.52,0,0,0-1.278-.564,1.668,1.668,0,0,0-1.374.618,2.654,2.654,0,0,0-.5,1.71,2.637,2.637,0,0,0,.522,1.776,1.918,1.918,0,0,0,1.53.6,2.986,2.986,0,0,0,1.014-.174,3.176,3.176,0,0,0,.93-.534Zm1.584.72V7.656q0-.42-.018-.846t-.078-.846h.924l.132,1.488-.132-.036a1.885,1.885,0,0,1,.726-1.194A2.094,2.094,0,0,1,25,5.82a2.276,2.276,0,0,1,.294.018,1.632,1.632,0,0,1,.258.054l-.024.888a1.933,1.933,0,0,0-.636-.1,1.661,1.661,0,0,0-1,.276,1.607,1.607,0,0,0-.552.7,2.342,2.342,0,0,0-.174.894V12Zm6.324.084A3.527,3.527,0,0,1,26.1,11.3l.324-.72a3.422,3.422,0,0,0,.99.546,3.5,3.5,0,0,0,1.134.174,1.89,1.89,0,0,0,1.038-.234.763.763,0,0,0,.354-.678.719.719,0,0,0-.24-.57,1.889,1.889,0,0,0-.792-.342l-1.02-.24a2.25,2.25,0,0,1-1.17-.6A1.44,1.44,0,0,1,26.3,7.608a1.556,1.556,0,0,1,.288-.93,1.912,1.912,0,0,1,.8-.63A3.011,3.011,0,0,1,28.62,5.82a3.5,3.5,0,0,1,1.2.2,2.54,2.54,0,0,1,.948.588l-.324.708a3.172,3.172,0,0,0-.882-.534,2.589,2.589,0,0,0-.942-.174,1.709,1.709,0,0,0-1,.252.8.8,0,0,0-.354.684.782.782,0,0,0,.222.588,1.543,1.543,0,0,0,.714.336l1.02.252a2.4,2.4,0,0,1,1.254.594,1.446,1.446,0,0,1,.4,1.05,1.473,1.473,0,0,1-.636,1.248A2.857,2.857,0,0,1,28.512,12.084Zm9.576,0a2.958,2.958,0,0,1-1.536-.384,2.59,2.59,0,0,1-1-1.08A3.584,3.584,0,0,1,35.2,8.976a3.617,3.617,0,0,1,.36-1.65,2.66,2.66,0,0,1,1.02-1.11,2.975,2.975,0,0,1,1.56-.4,3.392,3.392,0,0,1,1.182.21,2.561,2.561,0,0,1,.942.582l-.324.72a3.686,3.686,0,0,0-.87-.522,2.311,2.311,0,0,0-.882-.174,1.821,1.821,0,0,0-1.446.612A2.546,2.546,0,0,0,36.2,8.976a2.5,2.5,0,0,0,.528,1.7,1.834,1.834,0,0,0,1.452.6,2.327,2.327,0,0,0,.876-.174,3.637,3.637,0,0,0,.876-.522l.324.72a2.761,2.761,0,0,1-.966.57A3.526,3.526,0,0,1,38.088,12.084Zm5.724,0a2.608,2.608,0,0,1-1.41-.378,2.479,2.479,0,0,1-.936-1.08,3.844,3.844,0,0,1-.33-1.65,3.825,3.825,0,0,1,.336-1.656,2.632,2.632,0,0,1,.942-1.1,2.5,2.5,0,0,1,1.4-.4,2.366,2.366,0,0,1,1.4.408A2.014,2.014,0,0,1,46,7.392l-.144.1V5.964h.96V12h-.96V10.44l.144.072a2.014,2.014,0,0,1-.78,1.164A2.366,2.366,0,0,1,43.812,12.084Zm.192-.8a1.643,1.643,0,0,0,1.368-.606,2.715,2.715,0,0,0,.48-1.722,2.665,2.665,0,0,0-.486-1.716A1.654,1.654,0,0,0,44,6.636a1.681,1.681,0,0,0-1.386.618,2.675,2.675,0,0,0-.5,1.722,2.6,2.6,0,0,0,.5,1.7A1.7,1.7,0,0,0,44,11.28ZM48.7,12V7.656q0-.42-.018-.846T48.6,5.964h.924l.108,1.248-.12.1a2.071,2.071,0,0,1,.84-1.11,2.452,2.452,0,0,1,1.356-.378q2.172,0,2.172,2.388V12h-.972V8.256a1.86,1.86,0,0,0-.336-1.23,1.321,1.321,0,0,0-1.056-.39,1.793,1.793,0,0,0-1.344.516,1.906,1.906,0,0,0-.5,1.392V12Zm12.684.084a2.958,2.958,0,0,1-1.536-.384,2.59,2.59,0,0,1-1-1.08,3.584,3.584,0,0,1-.354-1.644,3.617,3.617,0,0,1,.36-1.65,2.66,2.66,0,0,1,1.02-1.11,2.975,2.975,0,0,1,1.56-.4,3.392,3.392,0,0,1,1.182.21,2.561,2.561,0,0,1,.942.582l-.324.72a3.686,3.686,0,0,0-.87-.522,2.311,2.311,0,0,0-.882-.174,1.821,1.821,0,0,0-1.446.612A2.546,2.546,0,0,0,59.5,8.976a2.5,2.5,0,0,0,.528,1.7,1.834,1.834,0,0,0,1.452.6,2.327,2.327,0,0,0,.876-.174,3.637,3.637,0,0,0,.876-.522l.324.72a2.761,2.761,0,0,1-.966.57A3.526,3.526,0,0,1,61.38,12.084Zm5.9,0a2.878,2.878,0,0,1-1.506-.384,2.594,2.594,0,0,1-1-1.086,3.65,3.65,0,0,1-.354-1.662A3.659,3.659,0,0,1,64.782,7.3a2.587,2.587,0,0,1,1-1.092,3.145,3.145,0,0,1,3.012,0,2.587,2.587,0,0,1,1,1.092,3.659,3.659,0,0,1,.354,1.656,3.65,3.65,0,0,1-.354,1.662,2.594,2.594,0,0,1-1,1.086A2.878,2.878,0,0,1,67.284,12.084Zm0-.8a1.675,1.675,0,0,0,1.374-.594,2.682,2.682,0,0,0,.486-1.734,2.642,2.642,0,0,0-.492-1.716,1.671,1.671,0,0,0-1.368-.6,1.689,1.689,0,0,0-1.374.6,2.62,2.62,0,0,0-.5,1.716,2.682,2.682,0,0,0,.486,1.734A1.689,1.689,0,0,0,67.284,11.28Zm4.368.72V7.656q0-.42-.018-.846t-.078-.846h.924l.108,1.248-.12.1a2.071,2.071,0,0,1,.84-1.11,2.452,2.452,0,0,1,1.356-.378q2.172,0,2.172,2.388V12h-.972V8.256a1.86,1.86,0,0,0-.336-1.23,1.321,1.321,0,0,0-1.056-.39,1.793,1.793,0,0,0-1.344.516,1.906,1.906,0,0,0-.5,1.392V12Zm7.02,0V7.656q0-.42-.018-.846t-.078-.846H79.5l.108,1.248-.12.1a2.071,2.071,0,0,1,.84-1.11,2.452,2.452,0,0,1,1.356-.378q2.172,0,2.172,2.388V12h-.972V8.256a1.86,1.86,0,0,0-.336-1.23,1.321,1.321,0,0,0-1.056-.39,1.793,1.793,0,0,0-1.344.516,1.906,1.906,0,0,0-.5,1.392V12Zm11.964-.72a2.813,2.813,0,0,1-1.014.588,3.811,3.811,0,0,1-1.266.216,3.307,3.307,0,0,1-1.614-.372A2.529,2.529,0,0,1,85.7,10.638a3.578,3.578,0,0,1-.366-1.674,3.58,3.58,0,0,1,.36-1.644,2.707,2.707,0,0,1,1-1.1,2.765,2.765,0,0,1,1.482-.4,2.585,2.585,0,0,1,1.38.354,2.282,2.282,0,0,1,.882,1.014,3.742,3.742,0,0,1,.306,1.584v.18h-4.56V8.316h4.008l-.312.444a2.5,2.5,0,0,0-.414-1.62,1.52,1.52,0,0,0-1.278-.564,1.668,1.668,0,0,0-1.374.618,2.654,2.654,0,0,0-.5,1.71,2.637,2.637,0,0,0,.522,1.776,1.918,1.918,0,0,0,1.53.6,2.986,2.986,0,0,0,1.014-.174,3.176,3.176,0,0,0,.93-.534Zm4.116.8a2.958,2.958,0,0,1-1.536-.384,2.59,2.59,0,0,1-1-1.08,3.584,3.584,0,0,1-.354-1.644,3.618,3.618,0,0,1,.36-1.65,2.66,2.66,0,0,1,1.02-1.11,2.975,2.975,0,0,1,1.56-.4,3.392,3.392,0,0,1,1.182.21,2.561,2.561,0,0,1,.942.582l-.324.72a3.686,3.686,0,0,0-.87-.522,2.311,2.311,0,0,0-.882-.174,1.821,1.821,0,0,0-1.446.612,2.546,2.546,0,0,0-.534,1.728,2.5,2.5,0,0,0,.528,1.7,1.834,1.834,0,0,0,1.452.6,2.327,2.327,0,0,0,.876-.174,3.637,3.637,0,0,0,.876-.522l.324.72a2.761,2.761,0,0,1-.966.57A3.526,3.526,0,0,1,94.752,12.084ZM97.32,6.732V5.964H101.2v.768Zm3.852,4.4v.828a3.037,3.037,0,0,1-.4.09,2.936,2.936,0,0,1-.438.03,1.847,1.847,0,0,1-1.338-.48,1.913,1.913,0,0,1-.5-1.44V4.416l.972-.348v5.964a1.633,1.633,0,0,0,.138.744.761.761,0,0,0,.378.366,1.368,1.368,0,0,0,.54.1,1.982,1.982,0,0,0,.324-.024A2.164,2.164,0,0,0,101.172,11.136Zm5.952.864-2.232-6.036h1.02l1.86,5.316h-.312l1.92-5.316h.852l1.9,5.316h-.312l1.9-5.316h.96L112.44,12H111.5l-1.992-5.436h.528L108.06,12Zm8.808,0V5.964h.972V12Zm-.1-8.592h1.188v1.1h-1.188Zm2.1,3.324V5.964h3.876v.768Zm3.852,4.4v.828a3.037,3.037,0,0,1-.4.09,2.936,2.936,0,0,1-.438.03,1.847,1.847,0,0,1-1.338-.48,1.913,1.913,0,0,1-.5-1.44V4.416l.972-.348v5.964a1.633,1.633,0,0,0,.138.744.761.761,0,0,0,.378.366,1.368,1.368,0,0,0,.54.1,1.982,1.982,0,0,0,.324-.024A2.164,2.164,0,0,0,121.788,11.136Zm1.2.864V3.168h.972v4.02l-.156.12a2.071,2.071,0,0,1,.84-1.11A2.452,2.452,0,0,1,126,5.82q2.172,0,2.172,2.388V12H127.2V8.256a1.86,1.86,0,0,0-.336-1.23,1.321,1.321,0,0,0-1.056-.39,1.793,1.793,0,0,0-1.344.516,1.906,1.906,0,0,0-.5,1.392V12Zm15.1-.72a2.813,2.813,0,0,1-1.014.588,3.811,3.811,0,0,1-1.266.216,3.307,3.307,0,0,1-1.614-.372,2.529,2.529,0,0,1-1.044-1.074,3.578,3.578,0,0,1-.366-1.674,3.58,3.58,0,0,1,.36-1.644,2.708,2.708,0,0,1,1-1.1,2.765,2.765,0,0,1,1.482-.4,2.585,2.585,0,0,1,1.38.354,2.282,2.282,0,0,1,.882,1.014,3.742,3.742,0,0,1,.306,1.584v.18h-4.56V8.316h4.008l-.312.444a2.5,2.5,0,0,0-.414-1.62,1.52,1.52,0,0,0-1.278-.564,1.668,1.668,0,0,0-1.374.618,2.654,2.654,0,0,0-.5,1.71,2.637,2.637,0,0,0,.522,1.776,1.918,1.918,0,0,0,1.53.6,2.986,2.986,0,0,0,1.014-.174,3.177,3.177,0,0,0,.93-.534Zm3.288.72L138.8,5.976h1.02l2.184,5.316h-.288l2.208-5.316h.972L142.3,12Zm9.468-.72a2.813,2.813,0,0,1-1.014.588,3.811,3.811,0,0,1-1.266.216,3.307,3.307,0,0,1-1.614-.372,2.529,2.529,0,0,1-1.044-1.074,3.578,3.578,0,0,1-.366-1.674,3.58,3.58,0,0,1,.36-1.644,2.708,2.708,0,0,1,1-1.1,2.765,2.765,0,0,1,1.482-.4,2.585,2.585,0,0,1,1.38.354,2.282,2.282,0,0,1,.882,1.014,3.742,3.742,0,0,1,.306,1.584v.18h-4.56V8.316H150.4l-.312.444a2.5,2.5,0,0,0-.414-1.62,1.52,1.52,0,0,0-1.278-.564,1.668,1.668,0,0,0-1.374.618,2.654,2.654,0,0,0-.5,1.71,2.637,2.637,0,0,0,.522,1.776,1.918,1.918,0,0,0,1.53.6,2.986,2.986,0,0,0,1.014-.174,3.177,3.177,0,0,0,.93-.534Zm1.584.72V7.656q0-.42-.018-.846t-.078-.846h.924l.132,1.488-.132-.036a1.885,1.885,0,0,1,.726-1.194,2.094,2.094,0,0,1,1.254-.4,2.276,2.276,0,0,1,.294.018,1.632,1.632,0,0,1,.258.054l-.024.888a1.933,1.933,0,0,0-.636-.1,1.661,1.661,0,0,0-1,.276,1.607,1.607,0,0,0-.552.7,2.342,2.342,0,0,0-.174.894V12Zm4.416,2.724-.2-.756a5.065,5.065,0,0,0,.93-.306,2.007,2.007,0,0,0,.636-.45,2.46,2.46,0,0,0,.45-.732l.384-.888.216-.3,2.208-5.328h.972l-2.82,6.588a4.2,4.2,0,0,1-.732,1.17,2.826,2.826,0,0,1-.918.666A4.771,4.771,0,0,1,156.84,14.724Zm2.208-2.412-2.712-6.348h1.02l2.184,5.328Zm6.876-.228a2.878,2.878,0,0,1-1.506-.384,2.6,2.6,0,0,1-1-1.086,3.65,3.65,0,0,1-.354-1.662,3.659,3.659,0,0,1,.354-1.656,2.587,2.587,0,0,1,1-1.092,3.145,3.145,0,0,1,3.012,0,2.587,2.587,0,0,1,1,1.092,3.659,3.659,0,0,1,.354,1.656,3.65,3.65,0,0,1-.354,1.662,2.6,2.6,0,0,1-1,1.086A2.878,2.878,0,0,1,165.924,12.084Zm0-.8a1.675,1.675,0,0,0,1.374-.594,2.682,2.682,0,0,0,.486-1.734,2.642,2.642,0,0,0-.492-1.716,1.671,1.671,0,0,0-1.368-.6,1.689,1.689,0,0,0-1.374.6,2.62,2.62,0,0,0-.5,1.716,2.682,2.682,0,0,0,.486,1.734A1.689,1.689,0,0,0,165.924,11.28Zm4.368.72V7.656q0-.42-.018-.846t-.078-.846h.924l.108,1.248-.12.1a2.071,2.071,0,0,1,.84-1.11A2.452,2.452,0,0,1,173.3,5.82q2.172,0,2.172,2.388V12H174.5V8.256a1.86,1.86,0,0,0-.336-1.23,1.321,1.321,0,0,0-1.056-.39,1.793,1.793,0,0,0-1.344.516,1.906,1.906,0,0,0-.5,1.392V12Zm11.964-.72a2.813,2.813,0,0,1-1.014.588,3.811,3.811,0,0,1-1.266.216,3.307,3.307,0,0,1-1.614-.372,2.529,2.529,0,0,1-1.044-1.074,3.578,3.578,0,0,1-.366-1.674,3.58,3.58,0,0,1,.36-1.644,2.708,2.708,0,0,1,1-1.1,2.765,2.765,0,0,1,1.482-.4,2.585,2.585,0,0,1,1.38.354,2.282,2.282,0,0,1,.882,1.014,3.742,3.742,0,0,1,.306,1.584v.18H177.8V8.316h4.008l-.312.444a2.5,2.5,0,0,0-.414-1.62,1.52,1.52,0,0,0-1.278-.564,1.668,1.668,0,0,0-1.374.618,2.654,2.654,0,0,0-.5,1.71,2.637,2.637,0,0,0,.522,1.776,1.918,1.918,0,0,0,1.53.6A2.986,2.986,0,0,0,181,11.106a3.177,3.177,0,0,0,.93-.534ZM.084,24.732v-.768H3.708v.768Zm3.792-2.676a2.281,2.281,0,0,0-.624-.1,1.293,1.293,0,0,0-.522.1.74.74,0,0,0-.366.366,1.663,1.663,0,0,0-.132.732V30H1.26V23.04a1.952,1.952,0,0,1,.48-1.446,1.8,1.8,0,0,1,1.32-.474,3.489,3.489,0,0,1,.408.024,2.465,2.465,0,0,1,.408.084ZM4.98,30V25.656q0-.42-.018-.846t-.078-.846h.924l.132,1.488-.132-.036a1.885,1.885,0,0,1,.726-1.194,2.094,2.094,0,0,1,1.254-.4,2.276,2.276,0,0,1,.294.018,1.632,1.632,0,0,1,.258.054l-.024.888a1.933,1.933,0,0,0-.636-.1,1.661,1.661,0,0,0-1,.276,1.607,1.607,0,0,0-.552.7,2.342,2.342,0,0,0-.174.894V30Zm6.72.084a2.878,2.878,0,0,1-1.506-.384,2.594,2.594,0,0,1-1-1.086,4.064,4.064,0,0,1,0-3.318,2.587,2.587,0,0,1,1-1.092A2.878,2.878,0,0,1,11.7,23.82a2.878,2.878,0,0,1,1.506.384,2.587,2.587,0,0,1,1,1.092,4.064,4.064,0,0,1,0,3.318,2.594,2.594,0,0,1-1,1.086A2.878,2.878,0,0,1,11.7,30.084Zm0-.8a1.675,1.675,0,0,0,1.374-.594,2.682,2.682,0,0,0,.486-1.734,2.642,2.642,0,0,0-.492-1.716,1.671,1.671,0,0,0-1.368-.6,1.689,1.689,0,0,0-1.374.6,2.62,2.62,0,0,0-.5,1.716,2.682,2.682,0,0,0,.486,1.734A1.689,1.689,0,0,0,11.7,29.28Zm4.368.72V25.656q0-.42-.018-.846t-.078-.846H16.9L17,25.212l-.12.084a2.023,2.023,0,0,1,.75-1.092A2.111,2.111,0,0,1,18.9,23.82a1.981,1.981,0,0,1,1.362.432,2.115,2.115,0,0,1,.618,1.32l-.288-.156a2.051,2.051,0,0,1,.774-1.164,2.28,2.28,0,0,1,1.4-.432,1.857,1.857,0,0,1,1.5.594,2.72,2.72,0,0,1,.5,1.794V30H23.8V26.256a2.023,2.023,0,0,0-.3-1.23,1.12,1.12,0,0,0-.948-.39,1.484,1.484,0,0,0-1.194.516,2.1,2.1,0,0,0-.438,1.4V30h-.972V26.256a1.993,1.993,0,0,0-.306-1.23,1.138,1.138,0,0,0-.954-.39,1.5,1.5,0,0,0-1.206.516,2.1,2.1,0,0,0-.438,1.4V30ZM28.9,24.732v-.768h3.876v.768Zm3.852,4.4v.828a3.037,3.037,0,0,1-.4.09,2.936,2.936,0,0,1-.438.03,1.847,1.847,0,0,1-1.338-.48,1.913,1.913,0,0,1-.5-1.44V22.416l.972-.348v5.964a1.633,1.633,0,0,0,.138.744.761.761,0,0,0,.378.366,1.368,1.368,0,0,0,.54.1,1.982,1.982,0,0,0,.324-.024A2.164,2.164,0,0,0,32.748,29.136Zm1.2.864V21.168h.972v4.02l-.156.12a2.071,2.071,0,0,1,.84-1.11,2.452,2.452,0,0,1,1.356-.378q2.172,0,2.172,2.388V30H38.16V26.256a1.86,1.86,0,0,0-.336-1.23,1.321,1.321,0,0,0-1.056-.39,1.793,1.793,0,0,0-1.344.516,1.906,1.906,0,0,0-.5,1.392V30Zm11.964-.72a2.813,2.813,0,0,1-1.014.588,3.811,3.811,0,0,1-1.266.216,3.307,3.307,0,0,1-1.614-.372,2.529,2.529,0,0,1-1.044-1.074,3.972,3.972,0,0,1-.006-3.318,2.708,2.708,0,0,1,1-1.1,2.765,2.765,0,0,1,1.482-.4,2.585,2.585,0,0,1,1.38.354,2.282,2.282,0,0,1,.882,1.014,3.742,3.742,0,0,1,.306,1.584v.18H41.46v-.636h4.008l-.312.444a2.5,2.5,0,0,0-.414-1.62,1.52,1.52,0,0,0-1.278-.564,1.668,1.668,0,0,0-1.374.618,2.654,2.654,0,0,0-.5,1.71,2.637,2.637,0,0,0,.522,1.776,1.918,1.918,0,0,0,1.53.6,2.986,2.986,0,0,0,1.014-.174,3.176,3.176,0,0,0,.93-.534ZM47.5,30V23.964h.972V30Zm-.1-8.592h1.188v1.1H47.4ZM50.352,30V25.656q0-.42-.018-.846t-.078-.846h.924l.132,1.488-.132-.036a1.885,1.885,0,0,1,.726-1.194,2.094,2.094,0,0,1,1.254-.4,2.276,2.276,0,0,1,.294.018,1.632,1.632,0,0,1,.258.054l-.024.888a1.933,1.933,0,0,0-.636-.1,1.661,1.661,0,0,0-1,.276,1.607,1.607,0,0,0-.552.7,2.342,2.342,0,0,0-.174.894V30Zm7.476,2.592V25.656q0-.42-.018-.846t-.078-.846h.924l.108,1.248-.1.18a2.014,2.014,0,0,1,.78-1.164,2.346,2.346,0,0,1,1.392-.408,2.5,2.5,0,0,1,1.4.4,2.673,2.673,0,0,1,.948,1.1,3.767,3.767,0,0,1,.342,1.656,3.728,3.728,0,0,1-.342,1.65,2.48,2.48,0,0,1-2.346,1.458,2.346,2.346,0,0,1-1.392-.408,2.014,2.014,0,0,1-.78-1.164l.132-.12v4.2ZM60.66,29.28a1.671,1.671,0,0,0,1.368-.6,2.621,2.621,0,0,0,.492-1.7,2.7,2.7,0,0,0-.492-1.722,1.854,1.854,0,0,0-2.748-.018,2.689,2.689,0,0,0-.48,1.716,2.715,2.715,0,0,0,.48,1.722A1.657,1.657,0,0,0,60.66,29.28Zm4.368.72V21.168H66v4.02l-.156.12a2.071,2.071,0,0,1,.84-1.11,2.452,2.452,0,0,1,1.356-.378q2.172,0,2.172,2.388V30H69.24V26.256a1.86,1.86,0,0,0-.336-1.23,1.321,1.321,0,0,0-1.056-.39,1.793,1.793,0,0,0-1.344.516,1.906,1.906,0,0,0-.5,1.392V30Zm9.516.084a2.878,2.878,0,0,1-1.506-.384,2.594,2.594,0,0,1-1-1.086,4.064,4.064,0,0,1,0-3.318,2.587,2.587,0,0,1,1-1.092,3.145,3.145,0,0,1,3.012,0,2.587,2.587,0,0,1,1,1.092,4.064,4.064,0,0,1,0,3.318,2.594,2.594,0,0,1-1,1.086A2.878,2.878,0,0,1,74.544,30.084Zm0-.8a1.675,1.675,0,0,0,1.374-.594,2.682,2.682,0,0,0,.486-1.734,2.642,2.642,0,0,0-.492-1.716,1.672,1.672,0,0,0-1.368-.6,1.689,1.689,0,0,0-1.374.6,2.62,2.62,0,0,0-.5,1.716,2.682,2.682,0,0,0,.486,1.734A1.689,1.689,0,0,0,74.544,29.28Zm4.368.72V25.656q0-.42-.018-.846t-.078-.846h.924l.108,1.248-.12.1a2.071,2.071,0,0,1,.84-1.11,2.452,2.452,0,0,1,1.356-.378q2.172,0,2.172,2.388V30h-.972V26.256a1.86,1.86,0,0,0-.336-1.23,1.321,1.321,0,0,0-1.056-.39,1.793,1.793,0,0,0-1.344.516,1.906,1.906,0,0,0-.5,1.392V30Zm11.964-.72a2.813,2.813,0,0,1-1.014.588,3.811,3.811,0,0,1-1.266.216,3.307,3.307,0,0,1-1.614-.372,2.529,2.529,0,0,1-1.044-1.074,3.972,3.972,0,0,1-.006-3.318,2.707,2.707,0,0,1,1-1.1,2.765,2.765,0,0,1,1.482-.4,2.585,2.585,0,0,1,1.38.354,2.282,2.282,0,0,1,.882,1.014,3.742,3.742,0,0,1,.306,1.584v.18h-4.56v-.636h4.008l-.312.444a2.5,2.5,0,0,0-.414-1.62,1.52,1.52,0,0,0-1.278-.564,1.668,1.668,0,0,0-1.374.618,2.654,2.654,0,0,0-.5,1.71,2.637,2.637,0,0,0,.522,1.776,1.918,1.918,0,0,0,1.53.6,2.986,2.986,0,0,0,1.014-.174,3.176,3.176,0,0,0,.93-.534Zm7.248.8a2.958,2.958,0,0,1-1.536-.384,2.59,2.59,0,0,1-1-1.08,3.978,3.978,0,0,1,.006-3.294,2.66,2.66,0,0,1,1.02-1.11,2.975,2.975,0,0,1,1.56-.4,3.392,3.392,0,0,1,1.182.21,2.561,2.561,0,0,1,.942.582l-.324.72a3.686,3.686,0,0,0-.87-.522,2.311,2.311,0,0,0-.882-.174,1.821,1.821,0,0,0-1.446.612,2.546,2.546,0,0,0-.534,1.728,2.5,2.5,0,0,0,.528,1.7,1.834,1.834,0,0,0,1.452.6,2.327,2.327,0,0,0,.876-.174,3.637,3.637,0,0,0,.876-.522l.324.72a2.761,2.761,0,0,1-.966.57A3.527,3.527,0,0,1,98.124,30.084Zm5.9,0a2.878,2.878,0,0,1-1.506-.384,2.594,2.594,0,0,1-1-1.086,4.064,4.064,0,0,1,0-3.318,2.587,2.587,0,0,1,1-1.092,3.145,3.145,0,0,1,3.012,0,2.587,2.587,0,0,1,1,1.092,4.064,4.064,0,0,1,0,3.318,2.594,2.594,0,0,1-1,1.086A2.878,2.878,0,0,1,104.028,30.084Zm0-.8a1.675,1.675,0,0,0,1.374-.594,2.682,2.682,0,0,0,.486-1.734,2.642,2.642,0,0,0-.492-1.716,1.672,1.672,0,0,0-1.368-.6,1.689,1.689,0,0,0-1.374.6,2.62,2.62,0,0,0-.5,1.716,2.682,2.682,0,0,0,.486,1.734A1.689,1.689,0,0,0,104.028,29.28ZM108.4,30V25.656q0-.42-.018-.846t-.078-.846h.924l.108,1.248-.12.1a2.071,2.071,0,0,1,.84-1.11,2.452,2.452,0,0,1,1.356-.378q2.172,0,2.172,2.388V30h-.972V26.256a1.86,1.86,0,0,0-.336-1.23,1.321,1.321,0,0,0-1.056-.39,1.793,1.793,0,0,0-1.344.516,1.906,1.906,0,0,0-.5,1.392V30Zm6.168-5.268v-.768h3.876v.768Zm3.852,4.4v.828a3.037,3.037,0,0,1-.4.09,2.937,2.937,0,0,1-.438.03,1.847,1.847,0,0,1-1.338-.48,1.913,1.913,0,0,1-.5-1.44V22.416l.972-.348v5.964a1.633,1.633,0,0,0,.138.744.761.761,0,0,0,.378.366,1.368,1.368,0,0,0,.54.1,1.982,1.982,0,0,0,.324-.024A2.164,2.164,0,0,0,118.416,29.136Zm3.516.948a2.608,2.608,0,0,1-1.41-.378,2.479,2.479,0,0,1-.936-1.08,4.269,4.269,0,0,1,.006-3.306,2.632,2.632,0,0,1,.942-1.1,2.5,2.5,0,0,1,1.4-.4,2.366,2.366,0,0,1,1.4.408,2.014,2.014,0,0,1,.78,1.164l-.144.1V23.964h.96V30h-.96V28.44l.144.072a2.014,2.014,0,0,1-.78,1.164A2.366,2.366,0,0,1,121.932,30.084Zm.192-.8a1.643,1.643,0,0,0,1.368-.606,2.715,2.715,0,0,0,.48-1.722,2.665,2.665,0,0,0-.486-1.716,1.654,1.654,0,0,0-1.362-.6,1.681,1.681,0,0,0-1.386.618,2.675,2.675,0,0,0-.5,1.722,2.6,2.6,0,0,0,.5,1.7A1.7,1.7,0,0,0,122.124,29.28Zm7.224.8a2.958,2.958,0,0,1-1.536-.384,2.59,2.59,0,0,1-1-1.08,3.978,3.978,0,0,1,.006-3.294,2.66,2.66,0,0,1,1.02-1.11,2.975,2.975,0,0,1,1.56-.4,3.392,3.392,0,0,1,1.182.21,2.561,2.561,0,0,1,.942.582l-.324.72a3.686,3.686,0,0,0-.87-.522,2.311,2.311,0,0,0-.882-.174,1.821,1.821,0,0,0-1.446.612,2.546,2.546,0,0,0-.534,1.728,2.5,2.5,0,0,0,.528,1.7,1.834,1.834,0,0,0,1.452.6,2.326,2.326,0,0,0,.876-.174,3.637,3.637,0,0,0,.876-.522l.324.72a2.761,2.761,0,0,1-.966.57A3.527,3.527,0,0,1,129.348,30.084Zm2.568-5.352v-.768h3.876v.768Zm3.852,4.4v.828a3.037,3.037,0,0,1-.4.09,2.936,2.936,0,0,1-.438.03,1.847,1.847,0,0,1-1.338-.48,1.913,1.913,0,0,1-.5-1.44V22.416l.972-.348v5.964a1.633,1.633,0,0,0,.138.744.761.761,0,0,0,.378.366,1.368,1.368,0,0,0,.54.1,1.982,1.982,0,0,0,.324-.024A2.165,2.165,0,0,0,135.768,29.136Zm3.24.948a3.527,3.527,0,0,1-2.412-.78l.324-.72a3.422,3.422,0,0,0,.99.546,3.5,3.5,0,0,0,1.134.174,1.89,1.89,0,0,0,1.038-.234.763.763,0,0,0,.354-.678.719.719,0,0,0-.24-.57,1.889,1.889,0,0,0-.792-.342l-1.02-.24a2.249,2.249,0,0,1-1.17-.6,1.44,1.44,0,0,1-.414-1.032,1.556,1.556,0,0,1,.288-.93,1.912,1.912,0,0,1,.8-.63,3.011,3.011,0,0,1,1.224-.228,3.5,3.5,0,0,1,1.2.2,2.54,2.54,0,0,1,.948.588l-.324.708a3.172,3.172,0,0,0-.882-.534,2.589,2.589,0,0,0-.942-.174,1.709,1.709,0,0,0-1,.252.8.8,0,0,0-.354.684.782.782,0,0,0,.222.588,1.543,1.543,0,0,0,.714.336l1.02.252a2.4,2.4,0,0,1,1.254.594,1.446,1.446,0,0,1,.4,1.05,1.473,1.473,0,0,1-.636,1.248A2.857,2.857,0,0,1,139.008,30.084ZM147.672,30l-2.232-6.036h1.02l1.86,5.316h-.312l1.92-5.316h.852l1.9,5.316h-.312l1.9-5.316h.96L152.988,30h-.936l-1.992-5.436h.528L148.608,30Zm8.808,0V21.168h.972v4.02l-.156.12a2.071,2.071,0,0,1,.84-1.11,2.452,2.452,0,0,1,1.356-.378q2.172,0,2.172,2.388V30h-.972V26.256a1.86,1.86,0,0,0-.336-1.23,1.321,1.321,0,0,0-1.056-.39,1.793,1.793,0,0,0-1.344.516,1.906,1.906,0,0,0-.5,1.392V30Zm9.516.084a2.878,2.878,0,0,1-1.506-.384,2.6,2.6,0,0,1-1-1.086,4.065,4.065,0,0,1,0-3.318,2.587,2.587,0,0,1,1-1.092,3.145,3.145,0,0,1,3.012,0,2.587,2.587,0,0,1,1,1.092,4.065,4.065,0,0,1,0,3.318,2.6,2.6,0,0,1-1,1.086A2.878,2.878,0,0,1,166,30.084Zm0-.8a1.675,1.675,0,0,0,1.374-.594,2.682,2.682,0,0,0,.486-1.734,2.642,2.642,0,0,0-.492-1.716,1.671,1.671,0,0,0-1.368-.6,1.689,1.689,0,0,0-1.374.6,2.62,2.62,0,0,0-.5,1.716,2.682,2.682,0,0,0,.486,1.734A1.689,1.689,0,0,0,166,29.28ZM.936,48V39.168h.972v4.02l-.156.12a2.071,2.071,0,0,1,.84-1.11,2.452,2.452,0,0,1,1.356-.378q2.172,0,2.172,2.388V48H5.148V44.256a1.86,1.86,0,0,0-.336-1.23,1.321,1.321,0,0,0-1.056-.39,1.793,1.793,0,0,0-1.344.516,1.906,1.906,0,0,0-.5,1.392V48Zm9.336.084a2.608,2.608,0,0,1-1.41-.378,2.479,2.479,0,0,1-.936-1.08,4.269,4.269,0,0,1,.006-3.306,2.632,2.632,0,0,1,.942-1.1,2.5,2.5,0,0,1,1.4-.4,2.366,2.366,0,0,1,1.4.408,2.014,2.014,0,0,1,.78,1.164l-.144.1V41.964h.96V48h-.96V46.44l.144.072a2.014,2.014,0,0,1-.78,1.164A2.366,2.366,0,0,1,10.272,48.084Zm.192-.8a1.643,1.643,0,0,0,1.368-.606,2.715,2.715,0,0,0,.48-1.722,2.665,2.665,0,0,0-.486-1.716,1.654,1.654,0,0,0-1.362-.6,1.681,1.681,0,0,0-1.386.618,2.675,2.675,0,0,0-.5,1.722,2.6,2.6,0,0,0,.5,1.7A1.7,1.7,0,0,0,10.464,47.28Zm6.732.8a3.527,3.527,0,0,1-2.412-.78l.324-.72a3.422,3.422,0,0,0,.99.546,3.5,3.5,0,0,0,1.134.174,1.89,1.89,0,0,0,1.038-.234.763.763,0,0,0,.354-.678.719.719,0,0,0-.24-.57,1.889,1.889,0,0,0-.792-.342l-1.02-.24a2.25,2.25,0,0,1-1.17-.6,1.44,1.44,0,0,1-.414-1.032,1.556,1.556,0,0,1,.288-.93,1.912,1.912,0,0,1,.8-.63A3.011,3.011,0,0,1,17.3,41.82a3.5,3.5,0,0,1,1.2.2,2.54,2.54,0,0,1,.948.588l-.324.708a3.172,3.172,0,0,0-.882-.534,2.589,2.589,0,0,0-.942-.174,1.709,1.709,0,0,0-1,.252.8.8,0,0,0-.354.684.782.782,0,0,0,.222.588,1.543,1.543,0,0,0,.714.336l1.02.252a2.4,2.4,0,0,1,1.254.594,1.446,1.446,0,0,1,.4,1.05,1.473,1.473,0,0,1-.636,1.248A2.857,2.857,0,0,1,17.2,48.084ZM29.556,48H28.6V46.38l.144.132a2.014,2.014,0,0,1-.78,1.164,2.366,2.366,0,0,1-1.4.408,2.526,2.526,0,0,1-1.4-.39,2.584,2.584,0,0,1-.942-1.1,3.865,3.865,0,0,1-.336-1.662,3.8,3.8,0,0,1,.33-1.644,2.524,2.524,0,0,1,.936-1.08,2.578,2.578,0,0,1,1.41-.384,2.342,2.342,0,0,1,1.4.414,2.038,2.038,0,0,1,.78,1.158l-.156.12V39.168h.972Zm-2.808-.72a1.647,1.647,0,0,0,1.362-.606,3.29,3.29,0,0,0,.006-3.432,1.643,1.643,0,0,0-1.368-.606,1.7,1.7,0,0,0-1.386.6,2.579,2.579,0,0,0-.5,1.692,2.7,2.7,0,0,0,.5,1.734A1.681,1.681,0,0,0,26.748,47.28Zm7.188.8A2.878,2.878,0,0,1,32.43,47.7a2.594,2.594,0,0,1-1-1.086,4.064,4.064,0,0,1,0-3.318,2.587,2.587,0,0,1,1-1.092,3.145,3.145,0,0,1,3.012,0,2.587,2.587,0,0,1,1,1.092,4.064,4.064,0,0,1,0,3.318,2.594,2.594,0,0,1-1,1.086A2.878,2.878,0,0,1,33.936,48.084Zm0-.8a1.675,1.675,0,0,0,1.374-.594,2.682,2.682,0,0,0,.486-1.734,2.642,2.642,0,0,0-.492-1.716,1.671,1.671,0,0,0-1.368-.6,1.689,1.689,0,0,0-1.374.6,2.62,2.62,0,0,0-.5,1.716,2.682,2.682,0,0,0,.486,1.734A1.689,1.689,0,0,0,33.936,47.28Zm5.916.72L37.62,41.964h1.02L40.5,47.28h-.312l1.92-5.316h.852l1.9,5.316h-.312l1.9-5.316h.96L45.168,48h-.936L42.24,42.564h.528L40.788,48Zm8.808,0V43.656q0-.42-.018-.846t-.078-.846h.924l.108,1.248-.12.1a2.071,2.071,0,0,1,.84-1.11,2.452,2.452,0,0,1,1.356-.378q2.172,0,2.172,2.388V48h-.972V44.256a1.86,1.86,0,0,0-.336-1.23,1.321,1.321,0,0,0-1.056-.39,1.793,1.793,0,0,0-1.344.516,1.906,1.906,0,0,0-.5,1.392V48Zm7.02,0V39.168h.972V48Zm5.352.084a2.878,2.878,0,0,1-1.506-.384,2.594,2.594,0,0,1-1-1.086,4.064,4.064,0,0,1,0-3.318,2.587,2.587,0,0,1,1-1.092,3.145,3.145,0,0,1,3.012,0,2.587,2.587,0,0,1,1,1.092,4.064,4.064,0,0,1,0,3.318,2.594,2.594,0,0,1-1,1.086A2.878,2.878,0,0,1,61.032,48.084Zm0-.8a1.675,1.675,0,0,0,1.374-.594,2.682,2.682,0,0,0,.486-1.734,2.642,2.642,0,0,0-.492-1.716,1.671,1.671,0,0,0-1.368-.6,1.689,1.689,0,0,0-1.374.6,2.62,2.62,0,0,0-.5,1.716,2.682,2.682,0,0,0,.486,1.734A1.689,1.689,0,0,0,61.032,47.28Zm6.684.8a2.608,2.608,0,0,1-1.41-.378,2.479,2.479,0,0,1-.936-1.08,4.269,4.269,0,0,1,.006-3.306,2.632,2.632,0,0,1,.942-1.1,2.5,2.5,0,0,1,1.4-.4,2.366,2.366,0,0,1,1.4.408,2.014,2.014,0,0,1,.78,1.164l-.144.1V41.964h.96V48h-.96V46.44l.144.072a2.014,2.014,0,0,1-.78,1.164A2.366,2.366,0,0,1,67.716,48.084Zm.192-.8a1.643,1.643,0,0,0,1.368-.606,2.715,2.715,0,0,0,.48-1.722,2.665,2.665,0,0,0-.486-1.716,1.654,1.654,0,0,0-1.362-.6,1.681,1.681,0,0,0-1.386.618,2.675,2.675,0,0,0-.5,1.722,2.6,2.6,0,0,0,.5,1.7A1.7,1.7,0,0,0,67.908,47.28ZM77.916,48h-.96V46.38l.144.132a2.014,2.014,0,0,1-.78,1.164,2.366,2.366,0,0,1-1.4.408,2.526,2.526,0,0,1-1.4-.39,2.584,2.584,0,0,1-.942-1.1,3.865,3.865,0,0,1-.336-1.662,3.8,3.8,0,0,1,.33-1.644,2.524,2.524,0,0,1,.936-1.08,2.578,2.578,0,0,1,1.41-.384,2.342,2.342,0,0,1,1.4.414,2.038,2.038,0,0,1,.78,1.158l-.156.12V39.168h.972Zm-2.808-.72a1.647,1.647,0,0,0,1.362-.606,3.29,3.29,0,0,0,.006-3.432,1.643,1.643,0,0,0-1.368-.606,1.7,1.7,0,0,0-1.386.6,2.579,2.579,0,0,0-.5,1.692,2.7,2.7,0,0,0,.5,1.734A1.681,1.681,0,0,0,75.108,47.28Zm9.636,0a2.813,2.813,0,0,1-1.014.588,3.811,3.811,0,0,1-1.266.216,3.307,3.307,0,0,1-1.614-.372,2.529,2.529,0,0,1-1.044-1.074A3.972,3.972,0,0,1,79.8,43.32a2.707,2.707,0,0,1,1-1.1,2.765,2.765,0,0,1,1.482-.4,2.585,2.585,0,0,1,1.38.354,2.282,2.282,0,0,1,.882,1.014,3.742,3.742,0,0,1,.306,1.584v.18h-4.56v-.636H84.3l-.312.444a2.5,2.5,0,0,0-.414-1.62,1.52,1.52,0,0,0-1.278-.564,1.668,1.668,0,0,0-1.374.618,3.234,3.234,0,0,0,.024,3.486,1.918,1.918,0,0,0,1.53.6,2.986,2.986,0,0,0,1.014-.174,3.176,3.176,0,0,0,.93-.534Zm6.9.72h-.96V46.38l.144.132a2.014,2.014,0,0,1-.78,1.164,2.366,2.366,0,0,1-1.4.408,2.526,2.526,0,0,1-1.4-.39,2.584,2.584,0,0,1-.942-1.1,3.865,3.865,0,0,1-.336-1.662,3.8,3.8,0,0,1,.33-1.644,2.524,2.524,0,0,1,.936-1.08,2.578,2.578,0,0,1,1.41-.384,2.342,2.342,0,0,1,1.4.414,2.038,2.038,0,0,1,.78,1.158l-.156.12V39.168h.972Zm-2.808-.72a1.647,1.647,0,0,0,1.362-.606,3.29,3.29,0,0,0,.006-3.432,1.643,1.643,0,0,0-1.368-.606,1.7,1.7,0,0,0-1.386.6,2.579,2.579,0,0,0-.5,1.692,2.7,2.7,0,0,0,.5,1.734A1.681,1.681,0,0,0,88.836,47.28Zm6.972-4.548v-.768h3.876v.768Zm3.852,4.4v.828a3.037,3.037,0,0,1-.4.09,2.936,2.936,0,0,1-.438.03,1.847,1.847,0,0,1-1.338-.48,1.913,1.913,0,0,1-.5-1.44V40.416l.972-.348v5.964a1.633,1.633,0,0,0,.138.744.761.761,0,0,0,.378.366,1.368,1.368,0,0,0,.54.1,1.982,1.982,0,0,0,.324-.024A2.165,2.165,0,0,0,99.66,47.136Zm1.2.864V39.168h.972v4.02l-.156.12a2.071,2.071,0,0,1,.84-1.11,2.452,2.452,0,0,1,1.356-.378q2.172,0,2.172,2.388V48h-.972V44.256a1.86,1.86,0,0,0-.336-1.23,1.321,1.321,0,0,0-1.056-.39,1.793,1.793,0,0,0-1.344.516,1.906,1.906,0,0,0-.5,1.392V48Zm11.964-.72a2.813,2.813,0,0,1-1.014.588,3.811,3.811,0,0,1-1.266.216,3.307,3.307,0,0,1-1.614-.372,2.529,2.529,0,0,1-1.044-1.074,3.972,3.972,0,0,1-.006-3.318,2.707,2.707,0,0,1,1-1.1,2.765,2.765,0,0,1,1.482-.4,2.585,2.585,0,0,1,1.38.354,2.282,2.282,0,0,1,.882,1.014,3.742,3.742,0,0,1,.306,1.584v.18h-4.56v-.636h4.008l-.312.444a2.5,2.5,0,0,0-.414-1.62,1.52,1.52,0,0,0-1.278-.564,1.668,1.668,0,0,0-1.374.618,3.234,3.234,0,0,0,.024,3.486,1.918,1.918,0,0,0,1.53.6,2.986,2.986,0,0,0,1.014-.174,3.176,3.176,0,0,0,.93-.534Zm7.032.8a2.608,2.608,0,0,1-1.41-.378,2.479,2.479,0,0,1-.936-1.08,4.269,4.269,0,0,1,.006-3.306,2.632,2.632,0,0,1,.942-1.1,2.5,2.5,0,0,1,1.4-.4,2.366,2.366,0,0,1,1.4.408,2.014,2.014,0,0,1,.78,1.164l-.144.1V41.964h.96V48h-.96V46.44l.144.072a2.014,2.014,0,0,1-.78,1.164A2.366,2.366,0,0,1,119.856,48.084Zm.192-.8a1.643,1.643,0,0,0,1.368-.606,2.715,2.715,0,0,0,.48-1.722,2.665,2.665,0,0,0-.486-1.716,1.654,1.654,0,0,0-1.362-.6,1.681,1.681,0,0,0-1.386.618,2.675,2.675,0,0,0-.5,1.722,2.6,2.6,0,0,0,.5,1.7A1.7,1.7,0,0,0,120.048,47.28Zm4.692,3.312V43.656q0-.42-.018-.846t-.078-.846h.924l.108,1.248-.1.18a2.014,2.014,0,0,1,.78-1.164,2.346,2.346,0,0,1,1.392-.408,2.5,2.5,0,0,1,1.4.4,2.673,2.673,0,0,1,.948,1.1,3.767,3.767,0,0,1,.342,1.656,3.728,3.728,0,0,1-.342,1.65,2.48,2.48,0,0,1-2.346,1.458,2.346,2.346,0,0,1-1.392-.408,2.014,2.014,0,0,1-.78-1.164l.132-.12v4.2Zm2.832-3.312a1.672,1.672,0,0,0,1.368-.6,2.621,2.621,0,0,0,.492-1.7,2.7,2.7,0,0,0-.492-1.722,1.854,1.854,0,0,0-2.748-.018,3.318,3.318,0,0,0,0,3.438A1.657,1.657,0,0,0,127.572,47.28Zm4.368,3.312V43.656q0-.42-.018-.846t-.078-.846h.924l.108,1.248-.1.18a2.014,2.014,0,0,1,.78-1.164,2.346,2.346,0,0,1,1.392-.408,2.5,2.5,0,0,1,1.4.4,2.673,2.673,0,0,1,.948,1.1,3.767,3.767,0,0,1,.342,1.656,3.728,3.728,0,0,1-.342,1.65,2.48,2.48,0,0,1-2.346,1.458,2.346,2.346,0,0,1-1.392-.408,2.014,2.014,0,0,1-.78-1.164l.132-.12v4.2Zm2.832-3.312a1.671,1.671,0,0,0,1.368-.6,2.621,2.621,0,0,0,.492-1.7,2.7,2.7,0,0,0-.492-1.722,1.854,1.854,0,0,0-2.748-.018,3.318,3.318,0,0,0,0,3.438A1.657,1.657,0,0,0,134.772,47.28Zm4-.516H140V48h-1.236Z" transform="translate(633 7224)" fill="#f1f1f1"/>
      <path id="Path_1811" data-name="Path 1811" d="M1.056,12V3.456H2.04V12Zm2.976,0V7.656q0-.42-.018-.846t-.078-.846H4.86l.108,1.248-.12.1a2.071,2.071,0,0,1,.84-1.11A2.452,2.452,0,0,1,7.044,5.82q2.172,0,2.172,2.388V12H8.244V8.256a1.86,1.86,0,0,0-.336-1.23,1.321,1.321,0,0,0-1.056-.39,1.793,1.793,0,0,0-1.344.516A1.906,1.906,0,0,0,5,8.544V12Zm8.8,0L10.26,5.976h1.02l2.184,5.316h-.288l2.208-5.316h.972L13.752,12Zm4.6,0V5.964H18.4V12Zm-.1-8.592h1.188v1.1H17.328Zm2.1,3.324V5.964H23.3v.768Zm3.852,4.4v.828a3.037,3.037,0,0,1-.4.09,2.936,2.936,0,0,1-.438.03A1.847,1.847,0,0,1,21.1,11.6a1.913,1.913,0,0,1-.5-1.44V4.416l.972-.348v5.964a1.633,1.633,0,0,0,.138.744.761.761,0,0,0,.378.366,1.368,1.368,0,0,0,.54.1,1.982,1.982,0,0,0,.324-.024A2.164,2.164,0,0,0,23.28,11.136Zm3.516.948a2.608,2.608,0,0,1-1.41-.378,2.479,2.479,0,0,1-.936-1.08,3.844,3.844,0,0,1-.33-1.65,3.825,3.825,0,0,1,.336-1.656,2.632,2.632,0,0,1,.942-1.1,2.5,2.5,0,0,1,1.4-.4,2.366,2.366,0,0,1,1.4.408,2.014,2.014,0,0,1,.78,1.164l-.144.1V5.964h.96V12h-.96V10.44l.144.072a2.014,2.014,0,0,1-.78,1.164A2.366,2.366,0,0,1,26.8,12.084Zm.192-.8a1.643,1.643,0,0,0,1.368-.606,2.715,2.715,0,0,0,.48-1.722,2.665,2.665,0,0,0-.486-1.716,1.654,1.654,0,0,0-1.362-.6,1.681,1.681,0,0,0-1.386.618,2.675,2.675,0,0,0-.5,1.722,2.6,2.6,0,0,0,.5,1.7A1.7,1.7,0,0,0,26.988,11.28Zm3.84-4.548V5.964H34.7v.768Zm3.852,4.4v.828a3.037,3.037,0,0,1-.4.09,2.936,2.936,0,0,1-.438.03A1.847,1.847,0,0,1,32.5,11.6a1.913,1.913,0,0,1-.5-1.44V4.416l.972-.348v5.964a1.633,1.633,0,0,0,.138.744.761.761,0,0,0,.378.366,1.368,1.368,0,0,0,.54.1,1.982,1.982,0,0,0,.324-.024A2.164,2.164,0,0,0,34.68,11.136Zm1.2.864V5.964h.972V12Zm-.1-8.592h1.188v1.1H35.784Zm5.448,8.676a2.878,2.878,0,0,1-1.506-.384,2.594,2.594,0,0,1-1-1.086,3.65,3.65,0,0,1-.354-1.662A3.659,3.659,0,0,1,38.73,7.3a2.587,2.587,0,0,1,1-1.092,3.145,3.145,0,0,1,3.012,0,2.587,2.587,0,0,1,1,1.092,3.659,3.659,0,0,1,.354,1.656,3.65,3.65,0,0,1-.354,1.662,2.594,2.594,0,0,1-1,1.086A2.878,2.878,0,0,1,41.232,12.084Zm0-.8a1.675,1.675,0,0,0,1.374-.594,2.682,2.682,0,0,0,.486-1.734A2.642,2.642,0,0,0,42.6,7.236a1.671,1.671,0,0,0-1.368-.6,1.689,1.689,0,0,0-1.374.6,2.62,2.62,0,0,0-.5,1.716,2.682,2.682,0,0,0,.486,1.734A1.689,1.689,0,0,0,41.232,11.28ZM45.6,12V7.656q0-.42-.018-.846T45.5,5.964h.924l.108,1.248-.12.1a2.071,2.071,0,0,1,.84-1.11,2.452,2.452,0,0,1,1.356-.378q2.172,0,2.172,2.388V12h-.972V8.256a1.86,1.86,0,0,0-.336-1.23,1.321,1.321,0,0,0-1.056-.39,1.793,1.793,0,0,0-1.344.516,1.906,1.906,0,0,0-.5,1.392V12Zm9.3-5.268V5.964h3.624v.768Zm3.792-2.676a2.281,2.281,0,0,0-.624-.1,1.293,1.293,0,0,0-.522.1.74.74,0,0,0-.366.366,1.663,1.663,0,0,0-.132.732V12h-.972V5.04a1.952,1.952,0,0,1,.48-1.446,1.8,1.8,0,0,1,1.32-.474,3.489,3.489,0,0,1,.408.024,2.465,2.465,0,0,1,.408.084Zm3.54,8.028a2.878,2.878,0,0,1-1.506-.384,2.594,2.594,0,0,1-1-1.086,3.65,3.65,0,0,1-.354-1.662A3.659,3.659,0,0,1,59.73,7.3a2.587,2.587,0,0,1,1-1.092,3.145,3.145,0,0,1,3.012,0,2.587,2.587,0,0,1,1,1.092,3.659,3.659,0,0,1,.354,1.656,3.65,3.65,0,0,1-.354,1.662,2.594,2.594,0,0,1-1,1.086A2.878,2.878,0,0,1,62.232,12.084Zm0-.8a1.675,1.675,0,0,0,1.374-.594,2.682,2.682,0,0,0,.486-1.734A2.642,2.642,0,0,0,63.6,7.236a1.671,1.671,0,0,0-1.368-.6,1.689,1.689,0,0,0-1.374.6,2.62,2.62,0,0,0-.5,1.716,2.682,2.682,0,0,0,.486,1.734A1.689,1.689,0,0,0,62.232,11.28ZM66.6,12V7.656q0-.42-.018-.846T66.5,5.964h.924l.132,1.488-.132-.036a1.885,1.885,0,0,1,.726-1.194,2.094,2.094,0,0,1,1.254-.4,2.276,2.276,0,0,1,.294.018,1.632,1.632,0,0,1,.258.054l-.024.888a1.933,1.933,0,0,0-.636-.1,1.661,1.661,0,0,0-1,.276,1.607,1.607,0,0,0-.552.7,2.342,2.342,0,0,0-.174.894V12Zm9.792.084a2.608,2.608,0,0,1-1.41-.378,2.479,2.479,0,0,1-.936-1.08,3.844,3.844,0,0,1-.33-1.65,3.825,3.825,0,0,1,.336-1.656,2.632,2.632,0,0,1,.942-1.1,2.5,2.5,0,0,1,1.4-.4,2.366,2.366,0,0,1,1.4.408,2.014,2.014,0,0,1,.78,1.164l-.144.1V5.964h.96V12h-.96V10.44l.144.072a2.014,2.014,0,0,1-.78,1.164A2.366,2.366,0,0,1,76.392,12.084Zm.192-.8a1.643,1.643,0,0,0,1.368-.606,2.715,2.715,0,0,0,.48-1.722,2.665,2.665,0,0,0-.486-1.716,1.654,1.654,0,0,0-1.362-.6,1.681,1.681,0,0,0-1.386.618,2.675,2.675,0,0,0-.5,1.722,2.6,2.6,0,0,0,.5,1.7A1.7,1.7,0,0,0,76.584,11.28Zm6.972-4.548V5.964h3.876v.768Zm3.852,4.4v.828a3.037,3.037,0,0,1-.4.09,2.936,2.936,0,0,1-.438.03,1.847,1.847,0,0,1-1.338-.48,1.913,1.913,0,0,1-.5-1.44V4.416l.972-.348v5.964a1.633,1.633,0,0,0,.138.744.761.761,0,0,0,.378.366,1.368,1.368,0,0,0,.54.1,1.982,1.982,0,0,0,.324-.024A2.164,2.164,0,0,0,87.408,11.136Zm1.2.864V7.656q0-.42-.018-.846t-.078-.846h.924l.132,1.488-.132-.036a1.885,1.885,0,0,1,.726-1.194,2.094,2.094,0,0,1,1.254-.4,2.276,2.276,0,0,1,.294.018,1.632,1.632,0,0,1,.258.054l-.024.888a1.933,1.933,0,0,0-.636-.1,1.661,1.661,0,0,0-1,.276,1.607,1.607,0,0,0-.552.7,2.342,2.342,0,0,0-.174.894V12Zm4.344,0V5.964h.972V12Zm-.1-8.592h1.188v1.1H92.856Zm2.952,11.184V7.656q0-.42-.018-.846t-.078-.846h.924l.108,1.248-.1.18a2.014,2.014,0,0,1,.78-1.164A2.346,2.346,0,0,1,98.82,5.82a2.5,2.5,0,0,1,1.4.4,2.673,2.673,0,0,1,.948,1.1,3.767,3.767,0,0,1,.342,1.656,3.728,3.728,0,0,1-.342,1.65,2.48,2.48,0,0,1-2.346,1.458,2.346,2.346,0,0,1-1.392-.408,2.014,2.014,0,0,1-.78-1.164l.132-.12v4.2ZM98.64,11.28a1.671,1.671,0,0,0,1.368-.6,2.621,2.621,0,0,0,.492-1.7,2.7,2.7,0,0,0-.492-1.722,1.854,1.854,0,0,0-2.748-.018,2.689,2.689,0,0,0-.48,1.716,2.715,2.715,0,0,0,.48,1.722A1.657,1.657,0,0,0,98.64,11.28Zm9.816.8a2.608,2.608,0,0,1-1.41-.378,2.479,2.479,0,0,1-.936-1.08,3.844,3.844,0,0,1-.33-1.65,3.825,3.825,0,0,1,.336-1.656,2.632,2.632,0,0,1,.942-1.1,2.5,2.5,0,0,1,1.4-.4,2.366,2.366,0,0,1,1.4.408,2.014,2.014,0,0,1,.78,1.164l-.144.1V5.964h.96V12h-.96V10.44l.144.072a2.014,2.014,0,0,1-.78,1.164A2.366,2.366,0,0,1,108.456,12.084Zm.192-.8a1.643,1.643,0,0,0,1.368-.606,2.715,2.715,0,0,0,.48-1.722,2.665,2.665,0,0,0-.486-1.716,1.654,1.654,0,0,0-1.362-.6,1.681,1.681,0,0,0-1.386.618,2.675,2.675,0,0,0-.5,1.722,2.6,2.6,0,0,0,.5,1.7A1.7,1.7,0,0,0,108.648,11.28Zm4.692,3.312V7.656q0-.42-.018-.846t-.078-.846h.924l.108,1.248-.1.18a2.014,2.014,0,0,1,.78-1.164,2.346,2.346,0,0,1,1.392-.408,2.5,2.5,0,0,1,1.4.4,2.673,2.673,0,0,1,.948,1.1,3.767,3.767,0,0,1,.342,1.656,3.728,3.728,0,0,1-.342,1.65,2.48,2.48,0,0,1-2.346,1.458,2.346,2.346,0,0,1-1.392-.408,2.014,2.014,0,0,1-.78-1.164l.132-.12v4.2Zm2.832-3.312a1.671,1.671,0,0,0,1.368-.6,2.621,2.621,0,0,0,.492-1.7,2.7,2.7,0,0,0-.492-1.722,1.854,1.854,0,0,0-2.748-.018,2.689,2.689,0,0,0-.48,1.716,2.715,2.715,0,0,0,.48,1.722A1.657,1.657,0,0,0,116.172,11.28Zm4.368,3.312V7.656q0-.42-.018-.846t-.078-.846h.924l.108,1.248-.1.18a2.014,2.014,0,0,1,.78-1.164,2.346,2.346,0,0,1,1.392-.408,2.5,2.5,0,0,1,1.4.4,2.673,2.673,0,0,1,.948,1.1,3.767,3.767,0,0,1,.342,1.656,3.728,3.728,0,0,1-.342,1.65,2.48,2.48,0,0,1-2.346,1.458,2.346,2.346,0,0,1-1.392-.408,2.014,2.014,0,0,1-.78-1.164l.132-.12v4.2Zm2.832-3.312a1.671,1.671,0,0,0,1.368-.6,2.621,2.621,0,0,0,.492-1.7,2.7,2.7,0,0,0-.492-1.722,1.854,1.854,0,0,0-2.748-.018,2.689,2.689,0,0,0-.48,1.716,2.715,2.715,0,0,0,.48,1.722A1.657,1.657,0,0,0,123.372,11.28Zm9.312,0a2.813,2.813,0,0,1-1.014.588,3.811,3.811,0,0,1-1.266.216,3.307,3.307,0,0,1-1.614-.372,2.529,2.529,0,0,1-1.044-1.074,3.578,3.578,0,0,1-.366-1.674,3.58,3.58,0,0,1,.36-1.644,2.708,2.708,0,0,1,1-1.1,2.765,2.765,0,0,1,1.482-.4,2.585,2.585,0,0,1,1.38.354,2.282,2.282,0,0,1,.882,1.014,3.742,3.742,0,0,1,.306,1.584v.18h-4.56V8.316h4.008l-.312.444a2.5,2.5,0,0,0-.414-1.62,1.52,1.52,0,0,0-1.278-.564,1.668,1.668,0,0,0-1.374.618,2.654,2.654,0,0,0-.5,1.71,2.637,2.637,0,0,0,.522,1.776,1.918,1.918,0,0,0,1.53.6,2.986,2.986,0,0,0,1.014-.174,3.177,3.177,0,0,0,.93-.534Zm3.9.8a2.609,2.609,0,0,1-1.41-.378,2.479,2.479,0,0,1-.936-1.08,3.844,3.844,0,0,1-.33-1.65,3.825,3.825,0,0,1,.336-1.656,2.631,2.631,0,0,1,.942-1.1,2.5,2.5,0,0,1,1.4-.4,2.367,2.367,0,0,1,1.4.408,2.014,2.014,0,0,1,.78,1.164l-.144.1V5.964h.96V12h-.96V10.44l.144.072a2.014,2.014,0,0,1-.78,1.164A2.366,2.366,0,0,1,136.584,12.084Zm.192-.8a1.643,1.643,0,0,0,1.368-.606,2.715,2.715,0,0,0,.48-1.722,2.665,2.665,0,0,0-.486-1.716,1.654,1.654,0,0,0-1.362-.6,1.681,1.681,0,0,0-1.386.618,2.675,2.675,0,0,0-.5,1.722,2.6,2.6,0,0,0,.5,1.7A1.7,1.7,0,0,0,136.776,11.28Zm4.692.72V7.656q0-.42-.018-.846t-.078-.846h.924l.132,1.488-.132-.036a1.885,1.885,0,0,1,.726-1.194,2.094,2.094,0,0,1,1.254-.4,2.276,2.276,0,0,1,.294.018,1.632,1.632,0,0,1,.258.054l-.024.888a1.933,1.933,0,0,0-.636-.1,1.661,1.661,0,0,0-1,.276,1.607,1.607,0,0,0-.552.7,2.342,2.342,0,0,0-.174.894V12Zm6.324.084a3.527,3.527,0,0,1-2.412-.78l.324-.72a3.422,3.422,0,0,0,.99.546,3.5,3.5,0,0,0,1.134.174,1.89,1.89,0,0,0,1.038-.234.763.763,0,0,0,.354-.678.719.719,0,0,0-.24-.57,1.889,1.889,0,0,0-.792-.342l-1.02-.24a2.249,2.249,0,0,1-1.17-.6,1.44,1.44,0,0,1-.414-1.032,1.556,1.556,0,0,1,.288-.93,1.912,1.912,0,0,1,.8-.63A3.011,3.011,0,0,1,147.9,5.82a3.5,3.5,0,0,1,1.2.2,2.54,2.54,0,0,1,.948.588l-.324.708a3.172,3.172,0,0,0-.882-.534,2.589,2.589,0,0,0-.942-.174,1.709,1.709,0,0,0-1,.252.8.8,0,0,0-.354.684.782.782,0,0,0,.222.588,1.543,1.543,0,0,0,.714.336l1.02.252a2.4,2.4,0,0,1,1.254.594,1.446,1.446,0,0,1,.4,1.05,1.473,1.473,0,0,1-.636,1.248A2.857,2.857,0,0,1,147.792,12.084Zm9.36,0a2.609,2.609,0,0,1-1.41-.378,2.479,2.479,0,0,1-.936-1.08,3.844,3.844,0,0,1-.33-1.65,3.825,3.825,0,0,1,.336-1.656,2.631,2.631,0,0,1,.942-1.1,2.5,2.5,0,0,1,1.4-.4,2.367,2.367,0,0,1,1.4.408,2.014,2.014,0,0,1,.78,1.164l-.144.1V5.964h.96V12h-.96V10.44l.144.072a2.014,2.014,0,0,1-.78,1.164A2.366,2.366,0,0,1,157.152,12.084Zm.192-.8a1.643,1.643,0,0,0,1.368-.606,2.715,2.715,0,0,0,.48-1.722,2.665,2.665,0,0,0-.486-1.716,1.654,1.654,0,0,0-1.362-.6,1.681,1.681,0,0,0-1.386.618,2.675,2.675,0,0,0-.5,1.722,2.6,2.6,0,0,0,.5,1.7A1.7,1.7,0,0,0,157.344,11.28Zm6.732.8a3.527,3.527,0,0,1-2.412-.78l.324-.72a3.422,3.422,0,0,0,.99.546,3.5,3.5,0,0,0,1.134.174,1.89,1.89,0,0,0,1.038-.234.763.763,0,0,0,.354-.678.719.719,0,0,0-.24-.57,1.889,1.889,0,0,0-.792-.342l-1.02-.24a2.249,2.249,0,0,1-1.17-.6,1.44,1.44,0,0,1-.414-1.032,1.556,1.556,0,0,1,.288-.93,1.912,1.912,0,0,1,.8-.63,3.011,3.011,0,0,1,1.224-.228,3.5,3.5,0,0,1,1.2.2,2.54,2.54,0,0,1,.948.588l-.324.708a3.172,3.172,0,0,0-.882-.534,2.589,2.589,0,0,0-.942-.174,1.709,1.709,0,0,0-1,.252.8.8,0,0,0-.354.684.782.782,0,0,0,.222.588,1.543,1.543,0,0,0,.714.336l1.02.252a2.4,2.4,0,0,1,1.254.594,1.446,1.446,0,0,1,.4,1.05,1.473,1.473,0,0,1-.636,1.248A2.857,2.857,0,0,1,164.076,12.084ZM.936,30V25.656q0-.42-.018-.846T.84,23.964h.924l.108,1.248-.12.1a2.071,2.071,0,0,1,.84-1.11,2.452,2.452,0,0,1,1.356-.378q2.172,0,2.172,2.388V30H5.148V26.256a1.86,1.86,0,0,0-.336-1.23,1.321,1.321,0,0,0-1.056-.39,1.793,1.793,0,0,0-1.344.516,1.906,1.906,0,0,0-.5,1.392V30Zm9.516.084A2.878,2.878,0,0,1,8.946,29.7a2.594,2.594,0,0,1-1-1.086,4.064,4.064,0,0,1,0-3.318,2.587,2.587,0,0,1,1-1.092,2.878,2.878,0,0,1,1.506-.384,2.878,2.878,0,0,1,1.506.384,2.587,2.587,0,0,1,1,1.092,4.064,4.064,0,0,1,0,3.318,2.594,2.594,0,0,1-1,1.086A2.878,2.878,0,0,1,10.452,30.084Zm0-.8a1.675,1.675,0,0,0,1.374-.594,2.682,2.682,0,0,0,.486-1.734,2.642,2.642,0,0,0-.492-1.716,1.671,1.671,0,0,0-1.368-.6,1.689,1.689,0,0,0-1.374.6,2.62,2.62,0,0,0-.5,1.716,2.682,2.682,0,0,0,.486,1.734A1.689,1.689,0,0,0,10.452,29.28Zm3.5-4.548v-.768h3.876v.768Zm3.852,4.4v.828a3.037,3.037,0,0,1-.4.09,2.936,2.936,0,0,1-.438.03,1.847,1.847,0,0,1-1.338-.48,1.913,1.913,0,0,1-.5-1.44V22.416l.972-.348v5.964a1.633,1.633,0,0,0,.138.744.761.761,0,0,0,.378.366,1.368,1.368,0,0,0,.54.1,1.982,1.982,0,0,0,.324-.024A2.164,2.164,0,0,0,17.808,29.136Zm1.2.864V23.964h.972V30Zm-.1-8.592H20.1v1.1H18.912Zm6.864-.06h1.212v1.128H25.776Zm1.092,2.616V30H25.9V24.732H21.012v-.768ZM22.188,30V23.16A2.612,2.612,0,0,1,22.41,22a1.361,1.361,0,0,1,.726-.654,3.637,3.637,0,0,1,1.368-.21h.384v.756h-.3a2.89,2.89,0,0,0-.9.108.648.648,0,0,0-.42.42,3.044,3.044,0,0,0-.108.936V30Zm9.084.084a2.958,2.958,0,0,1-1.536-.384,2.59,2.59,0,0,1-1-1.08,3.978,3.978,0,0,1,.006-3.294,2.66,2.66,0,0,1,1.02-1.11,2.975,2.975,0,0,1,1.56-.4,3.392,3.392,0,0,1,1.182.21,2.561,2.561,0,0,1,.942.582l-.324.72a3.686,3.686,0,0,0-.87-.522,2.311,2.311,0,0,0-.882-.174,1.821,1.821,0,0,0-1.446.612,2.546,2.546,0,0,0-.534,1.728,2.5,2.5,0,0,0,.528,1.7,1.834,1.834,0,0,0,1.452.6,2.327,2.327,0,0,0,.876-.174,3.637,3.637,0,0,0,.876-.522l.324.72a2.761,2.761,0,0,1-.966.57A3.527,3.527,0,0,1,31.272,30.084Zm5.724,0a2.608,2.608,0,0,1-1.41-.378,2.479,2.479,0,0,1-.936-1.08,4.269,4.269,0,0,1,.006-3.306,2.632,2.632,0,0,1,.942-1.1,2.5,2.5,0,0,1,1.4-.4,2.366,2.366,0,0,1,1.4.408,2.014,2.014,0,0,1,.78,1.164l-.144.1V23.964H40V30h-.96V28.44l.144.072a2.014,2.014,0,0,1-.78,1.164A2.366,2.366,0,0,1,37,30.084Zm.192-.8a1.643,1.643,0,0,0,1.368-.606,2.715,2.715,0,0,0,.48-1.722,2.665,2.665,0,0,0-.486-1.716,1.654,1.654,0,0,0-1.362-.6,1.681,1.681,0,0,0-1.386.618,2.675,2.675,0,0,0-.5,1.722,2.6,2.6,0,0,0,.5,1.7A1.7,1.7,0,0,0,37.188,29.28Zm3.84-4.548v-.768H44.9v.768Zm3.852,4.4v.828a3.037,3.037,0,0,1-.4.09,2.936,2.936,0,0,1-.438.03A1.847,1.847,0,0,1,42.7,29.6a1.913,1.913,0,0,1-.5-1.44V22.416l.972-.348v5.964a1.633,1.633,0,0,0,.138.744.761.761,0,0,0,.378.366,1.368,1.368,0,0,0,.54.1,1.982,1.982,0,0,0,.324-.024A2.164,2.164,0,0,0,44.88,29.136Zm1.2.864V23.964h.972V30Zm-.1-8.592h1.188v1.1H45.984Zm5.448,8.676a2.878,2.878,0,0,1-1.506-.384,2.594,2.594,0,0,1-1-1.086,4.064,4.064,0,0,1,0-3.318,2.587,2.587,0,0,1,1-1.092,3.145,3.145,0,0,1,3.012,0,2.587,2.587,0,0,1,1,1.092,4.064,4.064,0,0,1,0,3.318,2.6,2.6,0,0,1-1,1.086A2.878,2.878,0,0,1,51.432,30.084Zm0-.8a1.675,1.675,0,0,0,1.374-.594,2.682,2.682,0,0,0,.486-1.734,2.642,2.642,0,0,0-.492-1.716,1.671,1.671,0,0,0-1.368-.6,1.689,1.689,0,0,0-1.374.6,2.62,2.62,0,0,0-.5,1.716,2.682,2.682,0,0,0,.486,1.734A1.689,1.689,0,0,0,51.432,29.28ZM55.8,30V25.656q0-.42-.018-.846t-.078-.846h.924l.108,1.248-.12.1a2.071,2.071,0,0,1,.84-1.11,2.452,2.452,0,0,1,1.356-.378q2.172,0,2.172,2.388V30h-.972V26.256a1.86,1.86,0,0,0-.336-1.23,1.321,1.321,0,0,0-1.056-.39,1.793,1.793,0,0,0-1.344.516,1.906,1.906,0,0,0-.5,1.392V30Zm9.3-5.268v-.768h3.876v.768Zm3.852,4.4v.828a3.037,3.037,0,0,1-.4.09,2.936,2.936,0,0,1-.438.03,1.847,1.847,0,0,1-1.338-.48,1.913,1.913,0,0,1-.5-1.44V22.416l.972-.348v5.964a1.633,1.633,0,0,0,.138.744.761.761,0,0,0,.378.366,1.368,1.368,0,0,0,.54.1,1.982,1.982,0,0,0,.324-.024A2.164,2.164,0,0,0,68.952,29.136Zm1.2.864V21.168h.972v4.02l-.156.12a2.071,2.071,0,0,1,.84-1.11,2.452,2.452,0,0,1,1.356-.378q2.172,0,2.172,2.388V30h-.972V26.256a1.86,1.86,0,0,0-.336-1.23,1.321,1.321,0,0,0-1.056-.39,1.793,1.793,0,0,0-1.344.516,1.906,1.906,0,0,0-.5,1.392V30Zm9.336.084a2.608,2.608,0,0,1-1.41-.378,2.479,2.479,0,0,1-.936-1.08,4.269,4.269,0,0,1,.006-3.306,2.632,2.632,0,0,1,.942-1.1,2.5,2.5,0,0,1,1.4-.4,2.366,2.366,0,0,1,1.4.408,2.014,2.014,0,0,1,.78,1.164l-.144.1V23.964h.96V30h-.96V28.44l.144.072a2.014,2.014,0,0,1-.78,1.164A2.366,2.366,0,0,1,79.488,30.084Zm.192-.8a1.643,1.643,0,0,0,1.368-.606,2.715,2.715,0,0,0,.48-1.722,2.665,2.665,0,0,0-.486-1.716,1.654,1.654,0,0,0-1.362-.6,1.681,1.681,0,0,0-1.386.618,2.675,2.675,0,0,0-.5,1.722,2.6,2.6,0,0,0,.5,1.7A1.7,1.7,0,0,0,79.68,29.28Zm3.84-4.548v-.768H87.4v.768Zm3.852,4.4v.828a3.037,3.037,0,0,1-.4.09,2.937,2.937,0,0,1-.438.03,1.847,1.847,0,0,1-1.338-.48,1.913,1.913,0,0,1-.5-1.44V22.416l.972-.348v5.964a1.633,1.633,0,0,0,.138.744.761.761,0,0,0,.378.366,1.368,1.368,0,0,0,.54.1,1.982,1.982,0,0,0,.324-.024A2.164,2.164,0,0,0,87.372,29.136Zm6.864.948A2.958,2.958,0,0,1,92.7,29.7a2.59,2.59,0,0,1-1-1.08,3.978,3.978,0,0,1,.006-3.294,2.66,2.66,0,0,1,1.02-1.11,2.975,2.975,0,0,1,1.56-.4,3.392,3.392,0,0,1,1.182.21,2.561,2.561,0,0,1,.942.582l-.324.72a3.686,3.686,0,0,0-.87-.522,2.311,2.311,0,0,0-.882-.174,1.821,1.821,0,0,0-1.446.612,2.546,2.546,0,0,0-.534,1.728,2.5,2.5,0,0,0,.528,1.7,1.834,1.834,0,0,0,1.452.6,2.327,2.327,0,0,0,.876-.174,3.637,3.637,0,0,0,.876-.522l.324.72a2.761,2.761,0,0,1-.966.57A3.527,3.527,0,0,1,94.236,30.084Zm5.724,0a2.608,2.608,0,0,1-1.41-.378,2.479,2.479,0,0,1-.936-1.08,4.269,4.269,0,0,1,.006-3.306,2.632,2.632,0,0,1,.942-1.1,2.5,2.5,0,0,1,1.4-.4,2.366,2.366,0,0,1,1.4.408,2.014,2.014,0,0,1,.78,1.164l-.144.1V23.964h.96V30H102V28.44l.144.072a2.014,2.014,0,0,1-.78,1.164A2.366,2.366,0,0,1,99.96,30.084Zm.192-.8a1.643,1.643,0,0,0,1.368-.606,2.715,2.715,0,0,0,.48-1.722,2.665,2.665,0,0,0-.486-1.716,1.654,1.654,0,0,0-1.362-.6,1.681,1.681,0,0,0-1.386.618,2.675,2.675,0,0,0-.5,1.722,2.6,2.6,0,0,0,.5,1.7A1.7,1.7,0,0,0,100.152,29.28Zm4.692.72V25.656q0-.42-.018-.846t-.078-.846h.924l.108,1.248-.12.1a2.071,2.071,0,0,1,.84-1.11,2.452,2.452,0,0,1,1.356-.378q2.172,0,2.172,2.388V30h-.972V26.256a1.86,1.86,0,0,0-.336-1.23,1.321,1.321,0,0,0-1.056-.39,1.793,1.793,0,0,0-1.344.516,1.906,1.906,0,0,0-.5,1.392V30ZM115,30V21.168h.972v4.344l-.132-.12a2.038,2.038,0,0,1,.78-1.158,2.322,2.322,0,0,1,1.392-.414,2.548,2.548,0,0,1,1.4.384,2.619,2.619,0,0,1,.942,1.08,3.689,3.689,0,0,1,.342,1.644,3.807,3.807,0,0,1-.342,1.662,2.624,2.624,0,0,1-.948,1.1,2.526,2.526,0,0,1-1.4.39,2.346,2.346,0,0,1-1.392-.408,2.014,2.014,0,0,1-.78-1.164l.132-.132V30Zm2.832-.72a1.651,1.651,0,0,0,1.368-.618,2.719,2.719,0,0,0,.492-1.734,2.6,2.6,0,0,0-.492-1.692,1.867,1.867,0,0,0-2.748.006,2.694,2.694,0,0,0-.48,1.71,2.715,2.715,0,0,0,.48,1.722A1.657,1.657,0,0,0,117.828,29.28Zm9.312,0a2.813,2.813,0,0,1-1.014.588,3.811,3.811,0,0,1-1.266.216,3.307,3.307,0,0,1-1.614-.372,2.529,2.529,0,0,1-1.044-1.074,3.972,3.972,0,0,1-.006-3.318,2.707,2.707,0,0,1,1-1.1,2.765,2.765,0,0,1,1.482-.4,2.585,2.585,0,0,1,1.38.354,2.282,2.282,0,0,1,.882,1.014,3.742,3.742,0,0,1,.306,1.584v.18h-4.56v-.636H126.7l-.312.444a2.5,2.5,0,0,0-.414-1.62,1.52,1.52,0,0,0-1.278-.564,1.668,1.668,0,0,0-1.374.618,2.654,2.654,0,0,0-.5,1.71,2.637,2.637,0,0,0,.522,1.776,1.918,1.918,0,0,0,1.53.6,2.986,2.986,0,0,0,1.014-.174,3.176,3.176,0,0,0,.93-.534Zm7.032.8a2.609,2.609,0,0,1-1.41-.378,2.479,2.479,0,0,1-.936-1.08,4.269,4.269,0,0,1,.006-3.306,2.631,2.631,0,0,1,.942-1.1,2.5,2.5,0,0,1,1.4-.4,2.366,2.366,0,0,1,1.4.408,2.014,2.014,0,0,1,.78,1.164l-.144.1V23.964h.96V30h-.96V28.44l.144.072a2.014,2.014,0,0,1-.78,1.164A2.367,2.367,0,0,1,134.172,30.084Zm.192-.8a1.643,1.643,0,0,0,1.368-.606,2.715,2.715,0,0,0,.48-1.722,2.665,2.665,0,0,0-.486-1.716,1.654,1.654,0,0,0-1.362-.6,1.681,1.681,0,0,0-1.386.618,2.675,2.675,0,0,0-.5,1.722,2.6,2.6,0,0,0,.5,1.7A1.7,1.7,0,0,0,134.364,29.28Zm7.224.8a2.958,2.958,0,0,1-1.536-.384,2.59,2.59,0,0,1-1-1.08,3.978,3.978,0,0,1,.006-3.294,2.66,2.66,0,0,1,1.02-1.11,2.975,2.975,0,0,1,1.56-.4,3.392,3.392,0,0,1,1.182.21,2.561,2.561,0,0,1,.942.582l-.324.72a3.686,3.686,0,0,0-.87-.522,2.311,2.311,0,0,0-.882-.174,1.821,1.821,0,0,0-1.446.612,2.546,2.546,0,0,0-.534,1.728,2.5,2.5,0,0,0,.528,1.7,1.834,1.834,0,0,0,1.452.6,2.327,2.327,0,0,0,.876-.174,3.637,3.637,0,0,0,.876-.522l.324.72a2.761,2.761,0,0,1-.966.57A3.526,3.526,0,0,1,141.588,30.084Zm5.94,0a2.958,2.958,0,0,1-1.536-.384,2.59,2.59,0,0,1-1-1.08A3.978,3.978,0,0,1,145,25.326a2.66,2.66,0,0,1,1.02-1.11,2.975,2.975,0,0,1,1.56-.4,3.392,3.392,0,0,1,1.182.21,2.561,2.561,0,0,1,.942.582l-.324.72a3.686,3.686,0,0,0-.87-.522,2.311,2.311,0,0,0-.882-.174,1.821,1.821,0,0,0-1.446.612,2.546,2.546,0,0,0-.534,1.728,2.5,2.5,0,0,0,.528,1.7,1.834,1.834,0,0,0,1.452.6,2.327,2.327,0,0,0,.876-.174,3.637,3.637,0,0,0,.876-.522l.324.72a2.761,2.761,0,0,1-.966.57A3.526,3.526,0,0,1,147.528,30.084Zm8.352-.8a2.813,2.813,0,0,1-1.014.588,3.811,3.811,0,0,1-1.266.216,3.307,3.307,0,0,1-1.614-.372,2.529,2.529,0,0,1-1.044-1.074,3.973,3.973,0,0,1-.006-3.318,2.708,2.708,0,0,1,1-1.1,2.765,2.765,0,0,1,1.482-.4,2.585,2.585,0,0,1,1.38.354,2.282,2.282,0,0,1,.882,1.014,3.742,3.742,0,0,1,.306,1.584v.18h-4.56v-.636h4.008l-.312.444a2.5,2.5,0,0,0-.414-1.62,1.52,1.52,0,0,0-1.278-.564,1.668,1.668,0,0,0-1.374.618,2.654,2.654,0,0,0-.5,1.71,2.637,2.637,0,0,0,.522,1.776,1.918,1.918,0,0,0,1.53.6,2.986,2.986,0,0,0,1.014-.174,3.177,3.177,0,0,0,.93-.534Zm1.584,3.312V25.656q0-.42-.018-.846t-.078-.846h.924l.108,1.248-.1.18a2.014,2.014,0,0,1,.78-1.164,2.346,2.346,0,0,1,1.392-.408,2.5,2.5,0,0,1,1.4.4,2.673,2.673,0,0,1,.948,1.1,3.767,3.767,0,0,1,.342,1.656,3.728,3.728,0,0,1-.342,1.65,2.48,2.48,0,0,1-2.346,1.458,2.346,2.346,0,0,1-1.392-.408,2.014,2.014,0,0,1-.78-1.164l.132-.12v4.2ZM160.3,29.28a1.671,1.671,0,0,0,1.368-.6,2.621,2.621,0,0,0,.492-1.7,2.7,2.7,0,0,0-.492-1.722,1.854,1.854,0,0,0-2.748-.018,2.689,2.689,0,0,0-.48,1.716,2.715,2.715,0,0,0,.48,1.722A1.657,1.657,0,0,0,160.3,29.28Zm3.5-4.548v-.768h3.876v.768Zm3.852,4.4v.828a3.037,3.037,0,0,1-.4.09,2.936,2.936,0,0,1-.438.03,1.847,1.847,0,0,1-1.338-.48,1.913,1.913,0,0,1-.5-1.44V22.416l.972-.348v5.964a1.633,1.633,0,0,0,.138.744.761.761,0,0,0,.378.366,1.368,1.368,0,0,0,.54.1,1.982,1.982,0,0,0,.324-.024A2.165,2.165,0,0,0,167.652,29.136Zm6.144.144a2.813,2.813,0,0,1-1.014.588,3.811,3.811,0,0,1-1.266.216,3.307,3.307,0,0,1-1.614-.372,2.529,2.529,0,0,1-1.044-1.074,3.973,3.973,0,0,1-.006-3.318,2.708,2.708,0,0,1,1-1.1,2.765,2.765,0,0,1,1.482-.4,2.585,2.585,0,0,1,1.38.354,2.282,2.282,0,0,1,.882,1.014,3.742,3.742,0,0,1,.306,1.584v.18h-4.56v-.636h4.008l-.312.444a2.5,2.5,0,0,0-.414-1.62,1.52,1.52,0,0,0-1.278-.564,1.668,1.668,0,0,0-1.374.618,2.654,2.654,0,0,0-.5,1.71A2.637,2.637,0,0,0,170,28.68a1.918,1.918,0,0,0,1.53.6,2.986,2.986,0,0,0,1.014-.174,3.177,3.177,0,0,0,.93-.534Zm6.9.72h-.96V28.38l.144.132a2.014,2.014,0,0,1-.78,1.164,2.367,2.367,0,0,1-1.4.408,2.526,2.526,0,0,1-1.4-.39,2.584,2.584,0,0,1-.942-1.1,3.865,3.865,0,0,1-.336-1.662,3.8,3.8,0,0,1,.33-1.644,2.524,2.524,0,0,1,.936-1.08,2.578,2.578,0,0,1,1.41-.384,2.342,2.342,0,0,1,1.4.414,2.038,2.038,0,0,1,.78,1.158l-.156.12V21.168h.972Zm-2.808-.72a1.647,1.647,0,0,0,1.362-.606,2.691,2.691,0,0,0,.486-1.722,2.694,2.694,0,0,0-.48-1.71,1.643,1.643,0,0,0-1.368-.606,1.7,1.7,0,0,0-1.386.6,2.579,2.579,0,0,0-.5,1.692,2.7,2.7,0,0,0,.5,1.734A1.681,1.681,0,0,0,177.888,29.28ZM3.432,48.084A2.878,2.878,0,0,1,1.926,47.7a2.594,2.594,0,0,1-1-1.086,4.064,4.064,0,0,1,0-3.318,2.587,2.587,0,0,1,1-1.092,2.878,2.878,0,0,1,1.506-.384,2.878,2.878,0,0,1,1.506.384,2.587,2.587,0,0,1,1,1.092,4.064,4.064,0,0,1,0,3.318,2.594,2.594,0,0,1-1,1.086A2.878,2.878,0,0,1,3.432,48.084Zm0-.8a1.675,1.675,0,0,0,1.374-.594,2.682,2.682,0,0,0,.486-1.734A2.642,2.642,0,0,0,4.8,43.236a1.671,1.671,0,0,0-1.368-.6,1.689,1.689,0,0,0-1.374.6,2.62,2.62,0,0,0-.5,1.716,2.682,2.682,0,0,0,.486,1.734A1.689,1.689,0,0,0,3.432,47.28ZM7.8,48V43.656q0-.42-.018-.846T7.7,41.964h.924l.132,1.488-.132-.036a1.885,1.885,0,0,1,.726-1.194,2.094,2.094,0,0,1,1.254-.4,2.276,2.276,0,0,1,.294.018,1.632,1.632,0,0,1,.258.054l-.024.888a1.933,1.933,0,0,0-.636-.1,1.661,1.661,0,0,0-1,.276,1.607,1.607,0,0,0-.552.7,2.342,2.342,0,0,0-.174.894V48Zm12.792,0h-.96V46.38l.144.132A2.014,2.014,0,0,1,19,47.676a2.366,2.366,0,0,1-1.4.408,2.526,2.526,0,0,1-1.4-.39,2.584,2.584,0,0,1-.942-1.1,3.865,3.865,0,0,1-.336-1.662,3.8,3.8,0,0,1,.33-1.644,2.524,2.524,0,0,1,.936-1.08,2.578,2.578,0,0,1,1.41-.384,2.342,2.342,0,0,1,1.4.414,2.038,2.038,0,0,1,.78,1.158l-.156.12V39.168h.972Zm-2.808-.72a1.647,1.647,0,0,0,1.362-.606,3.29,3.29,0,0,0,.006-3.432,1.643,1.643,0,0,0-1.368-.606,1.7,1.7,0,0,0-1.386.6,2.579,2.579,0,0,0-.5,1.692,2.7,2.7,0,0,0,.5,1.734A1.681,1.681,0,0,0,17.784,47.28Zm9.636,0a2.813,2.813,0,0,1-1.014.588,3.811,3.811,0,0,1-1.266.216,3.307,3.307,0,0,1-1.614-.372,2.529,2.529,0,0,1-1.044-1.074,3.973,3.973,0,0,1-.006-3.318,2.707,2.707,0,0,1,1-1.1,2.765,2.765,0,0,1,1.482-.4,2.585,2.585,0,0,1,1.38.354,2.282,2.282,0,0,1,.882,1.014,3.742,3.742,0,0,1,.306,1.584v.18h-4.56v-.636h4.008l-.312.444a2.5,2.5,0,0,0-.414-1.62,1.52,1.52,0,0,0-1.278-.564,1.668,1.668,0,0,0-1.374.618,3.234,3.234,0,0,0,.024,3.486,1.918,1.918,0,0,0,1.53.6,2.986,2.986,0,0,0,1.014-.174,3.176,3.176,0,0,0,.93-.534Zm4.116.8A2.958,2.958,0,0,1,30,47.7a2.59,2.59,0,0,1-1-1.08A3.978,3.978,0,0,1,29,43.326a2.66,2.66,0,0,1,1.02-1.11,2.975,2.975,0,0,1,1.56-.4,3.392,3.392,0,0,1,1.182.21,2.561,2.561,0,0,1,.942.582l-.324.72a3.686,3.686,0,0,0-.87-.522,2.311,2.311,0,0,0-.882-.174,1.821,1.821,0,0,0-1.446.612,2.546,2.546,0,0,0-.534,1.728,2.5,2.5,0,0,0,.528,1.7,1.834,1.834,0,0,0,1.452.6,2.327,2.327,0,0,0,.876-.174,3.637,3.637,0,0,0,.876-.522l.324.72a2.761,2.761,0,0,1-.966.57A3.527,3.527,0,0,1,31.536,48.084ZM34.944,48V39.168h.972V48ZM37.8,48V41.964h.972V48Zm-.1-8.592h1.188v1.1H37.7ZM40.656,48V43.656q0-.42-.018-.846t-.078-.846h.924l.108,1.248-.12.1a2.071,2.071,0,0,1,.84-1.11,2.452,2.452,0,0,1,1.356-.378q2.172,0,2.172,2.388V48h-.972V44.256a1.86,1.86,0,0,0-.336-1.23,1.321,1.321,0,0,0-1.056-.39,1.793,1.793,0,0,0-1.344.516,1.906,1.906,0,0,0-.5,1.392V48Zm11.964-.72a2.813,2.813,0,0,1-1.014.588,3.811,3.811,0,0,1-1.266.216,3.307,3.307,0,0,1-1.614-.372,2.529,2.529,0,0,1-1.044-1.074,3.972,3.972,0,0,1-.006-3.318,2.708,2.708,0,0,1,1-1.1,2.765,2.765,0,0,1,1.482-.4,2.585,2.585,0,0,1,1.38.354,2.282,2.282,0,0,1,.882,1.014,3.742,3.742,0,0,1,.306,1.584v.18h-4.56v-.636h4.008l-.312.444a2.5,2.5,0,0,0-.414-1.62,1.52,1.52,0,0,0-1.278-.564,1.668,1.668,0,0,0-1.374.618,3.234,3.234,0,0,0,.024,3.486,1.918,1.918,0,0,0,1.53.6,2.986,2.986,0,0,0,1.014-.174,3.176,3.176,0,0,0,.93-.534Zm6.9.72h-.96V46.38l.144.132a2.014,2.014,0,0,1-.78,1.164,2.366,2.366,0,0,1-1.4.408,2.526,2.526,0,0,1-1.4-.39,2.584,2.584,0,0,1-.942-1.1,3.865,3.865,0,0,1-.336-1.662,3.8,3.8,0,0,1,.33-1.644,2.524,2.524,0,0,1,.936-1.08,2.578,2.578,0,0,1,1.41-.384,2.342,2.342,0,0,1,1.4.414,2.038,2.038,0,0,1,.78,1.158l-.156.12V39.168h.972Zm-2.808-.72a1.647,1.647,0,0,0,1.362-.606,3.29,3.29,0,0,0,.006-3.432,1.643,1.643,0,0,0-1.368-.606,1.7,1.7,0,0,0-1.386.6,2.579,2.579,0,0,0-.5,1.692,2.7,2.7,0,0,0,.5,1.734A1.681,1.681,0,0,0,56.712,47.28Zm7.824.72V39.168h.972v4.344l-.132-.12a2.038,2.038,0,0,1,.78-1.158,2.322,2.322,0,0,1,1.392-.414,2.548,2.548,0,0,1,1.4.384,2.619,2.619,0,0,1,.942,1.08,3.689,3.689,0,0,1,.342,1.644,3.807,3.807,0,0,1-.342,1.662,2.624,2.624,0,0,1-.948,1.1,2.526,2.526,0,0,1-1.4.39,2.346,2.346,0,0,1-1.392-.408,2.014,2.014,0,0,1-.78-1.164l.132-.132V48Zm2.832-.72a1.651,1.651,0,0,0,1.368-.618,2.719,2.719,0,0,0,.492-1.734,2.6,2.6,0,0,0-.492-1.692,1.867,1.867,0,0,0-2.748.006,3.307,3.307,0,0,0,0,3.432A1.657,1.657,0,0,0,67.368,47.28Zm4.008,3.444-.2-.756a5.065,5.065,0,0,0,.93-.306,2.007,2.007,0,0,0,.636-.45,2.46,2.46,0,0,0,.45-.732l.384-.888.216-.3L76,41.964h.972l-2.82,6.588a4.2,4.2,0,0,1-.732,1.17,2.826,2.826,0,0,1-.918.666A4.77,4.77,0,0,1,71.376,50.724Zm2.208-2.412-2.712-6.348h1.02l2.184,5.328Zm10.08-.228a2.878,2.878,0,0,1-1.506-.384,2.594,2.594,0,0,1-1-1.086,4.064,4.064,0,0,1,0-3.318,2.587,2.587,0,0,1,1-1.092,3.145,3.145,0,0,1,3.012,0,2.587,2.587,0,0,1,1,1.092,4.064,4.064,0,0,1,0,3.318,2.594,2.594,0,0,1-1,1.086A2.878,2.878,0,0,1,83.664,48.084Zm0-.8a1.675,1.675,0,0,0,1.374-.594,2.682,2.682,0,0,0,.486-1.734,2.642,2.642,0,0,0-.492-1.716,1.672,1.672,0,0,0-1.368-.6,1.689,1.689,0,0,0-1.374.6,2.62,2.62,0,0,0-.5,1.716,2.682,2.682,0,0,0,.486,1.734A1.689,1.689,0,0,0,83.664,47.28Zm4.368,3.312V43.656q0-.42-.018-.846t-.078-.846h.924l.108,1.248-.1.18a2.014,2.014,0,0,1,.78-1.164,2.346,2.346,0,0,1,1.392-.408,2.5,2.5,0,0,1,1.4.4,2.673,2.673,0,0,1,.948,1.1,3.767,3.767,0,0,1,.342,1.656,3.728,3.728,0,0,1-.342,1.65,2.48,2.48,0,0,1-2.346,1.458,2.346,2.346,0,0,1-1.392-.408,2.014,2.014,0,0,1-.78-1.164l.132-.12v4.2Zm2.832-3.312a1.672,1.672,0,0,0,1.368-.6,2.621,2.621,0,0,0,.492-1.7,2.7,2.7,0,0,0-.492-1.722,1.854,1.854,0,0,0-2.748-.018,3.318,3.318,0,0,0,0,3.438A1.657,1.657,0,0,0,90.864,47.28Zm9.312,0a2.813,2.813,0,0,1-1.014.588,3.811,3.811,0,0,1-1.266.216,3.307,3.307,0,0,1-1.614-.372,2.529,2.529,0,0,1-1.044-1.074,3.972,3.972,0,0,1-.006-3.318,2.707,2.707,0,0,1,1-1.1,2.765,2.765,0,0,1,1.482-.4,2.585,2.585,0,0,1,1.38.354,2.282,2.282,0,0,1,.882,1.014,3.742,3.742,0,0,1,.306,1.584v.18h-4.56v-.636h4.008l-.312.444a2.5,2.5,0,0,0-.414-1.62,1.52,1.52,0,0,0-1.278-.564,1.668,1.668,0,0,0-1.374.618,3.234,3.234,0,0,0,.024,3.486,1.918,1.918,0,0,0,1.53.6,2.986,2.986,0,0,0,1.014-.174,3.176,3.176,0,0,0,.93-.534Zm1.584.72V43.656q0-.42-.018-.846t-.078-.846h.924l.108,1.248-.12.1a2.071,2.071,0,0,1,.84-1.11,2.452,2.452,0,0,1,1.356-.378q2.172,0,2.172,2.388V48h-.972V44.256a1.86,1.86,0,0,0-.336-1.23,1.321,1.321,0,0,0-1.056-.39,1.793,1.793,0,0,0-1.344.516,1.906,1.906,0,0,0-.5,1.392V48Zm7.02,0V41.964h.972V48Zm-.1-8.592h1.188v1.1h-1.188ZM111.636,48V43.656q0-.42-.018-.846t-.078-.846h.924l.108,1.248-.12.1a2.071,2.071,0,0,1,.84-1.11,2.452,2.452,0,0,1,1.356-.378q2.172,0,2.172,2.388V48h-.972V44.256a1.86,1.86,0,0,0-.336-1.23,1.321,1.321,0,0,0-1.056-.39,1.793,1.793,0,0,0-1.344.516,1.906,1.906,0,0,0-.5,1.392V48Zm9.672,2.676a4.422,4.422,0,0,1-2.376-.624l.168-.792a4.832,4.832,0,0,0,1.068.468,4.151,4.151,0,0,0,1.14.144,1.753,1.753,0,0,0,1.314-.462,1.9,1.9,0,0,0,.45-1.374V46.4l.132-.156a2.243,2.243,0,0,1-.45.834,2.054,2.054,0,0,1-.75.546A2.517,2.517,0,0,1,121,47.82a2.537,2.537,0,0,1-2.358-1.428,3.784,3.784,0,0,1,0-3.144A2.537,2.537,0,0,1,121,41.82a2.39,2.39,0,0,1,1.422.414,2.028,2.028,0,0,1,.786,1.158l-.144-.132v-1.3h.972v5.988a2.421,2.421,0,0,1-2.724,2.724ZM121.188,47a1.712,1.712,0,0,0,1.374-.582,2.826,2.826,0,0,0,0-3.2,1.712,1.712,0,0,0-1.374-.582,1.762,1.762,0,0,0-1.4.582,2.781,2.781,0,0,0,0,3.21A1.771,1.771,0,0,0,121.188,47Zm7-4.272v-.768h3.876v.768Zm3.852,4.4v.828a3.038,3.038,0,0,1-.4.09,2.936,2.936,0,0,1-.438.03,1.847,1.847,0,0,1-1.338-.48,1.913,1.913,0,0,1-.5-1.44V40.416l.972-.348v5.964a1.633,1.633,0,0,0,.138.744.761.761,0,0,0,.378.366,1.368,1.368,0,0,0,.54.1,1.982,1.982,0,0,0,.324-.024A2.165,2.165,0,0,0,132.036,47.136Zm1.2.864V39.168h.972v4.02l-.156.12a2.071,2.071,0,0,1,.84-1.11,2.452,2.452,0,0,1,1.356-.378q2.172,0,2.172,2.388V48h-.972V44.256a1.86,1.86,0,0,0-.336-1.23,1.321,1.321,0,0,0-1.056-.39,1.793,1.793,0,0,0-1.344.516,1.906,1.906,0,0,0-.5,1.392V48Zm11.964-.72a2.813,2.813,0,0,1-1.014.588,3.811,3.811,0,0,1-1.266.216,3.307,3.307,0,0,1-1.614-.372,2.529,2.529,0,0,1-1.044-1.074,3.973,3.973,0,0,1-.006-3.318,2.708,2.708,0,0,1,1-1.1,2.765,2.765,0,0,1,1.482-.4,2.585,2.585,0,0,1,1.38.354A2.282,2.282,0,0,1,145,43.188a3.742,3.742,0,0,1,.306,1.584v.18h-4.56v-.636h4.008l-.312.444a2.5,2.5,0,0,0-.414-1.62,1.52,1.52,0,0,0-1.278-.564,1.668,1.668,0,0,0-1.374.618,3.234,3.234,0,0,0,.024,3.486,1.918,1.918,0,0,0,1.53.6,2.986,2.986,0,0,0,1.014-.174,3.177,3.177,0,0,0,.93-.534Zm7.032.8a2.609,2.609,0,0,1-1.41-.378,2.479,2.479,0,0,1-.936-1.08,4.269,4.269,0,0,1,.006-3.306,2.631,2.631,0,0,1,.942-1.1,2.5,2.5,0,0,1,1.4-.4,2.367,2.367,0,0,1,1.4.408,2.014,2.014,0,0,1,.78,1.164l-.144.1V41.964h.96V48h-.96V46.44l.144.072a2.014,2.014,0,0,1-.78,1.164A2.367,2.367,0,0,1,152.232,48.084Zm.192-.8a1.643,1.643,0,0,0,1.368-.606,2.715,2.715,0,0,0,.48-1.722,2.665,2.665,0,0,0-.486-1.716,1.654,1.654,0,0,0-1.362-.6,1.681,1.681,0,0,0-1.386.618,2.675,2.675,0,0,0-.5,1.722,2.6,2.6,0,0,0,.5,1.7A1.7,1.7,0,0,0,152.424,47.28Zm4.692,3.312V43.656q0-.42-.018-.846t-.078-.846h.924l.108,1.248-.1.18a2.014,2.014,0,0,1,.78-1.164,2.346,2.346,0,0,1,1.392-.408,2.5,2.5,0,0,1,1.4.4,2.673,2.673,0,0,1,.948,1.1,3.767,3.767,0,0,1,.342,1.656,3.728,3.728,0,0,1-.342,1.65,2.48,2.48,0,0,1-2.346,1.458,2.346,2.346,0,0,1-1.392-.408,2.014,2.014,0,0,1-.78-1.164l.132-.12v4.2Zm2.832-3.312a1.671,1.671,0,0,0,1.368-.6,2.621,2.621,0,0,0,.492-1.7,2.7,2.7,0,0,0-.492-1.722,1.854,1.854,0,0,0-2.748-.018,3.318,3.318,0,0,0,0,3.438A1.657,1.657,0,0,0,159.948,47.28Zm4.368,3.312V43.656q0-.42-.018-.846t-.078-.846h.924l.108,1.248-.1.18a2.014,2.014,0,0,1,.78-1.164,2.346,2.346,0,0,1,1.392-.408,2.5,2.5,0,0,1,1.4.4,2.673,2.673,0,0,1,.948,1.1,3.767,3.767,0,0,1,.342,1.656,3.728,3.728,0,0,1-.342,1.65,2.48,2.48,0,0,1-2.346,1.458,2.346,2.346,0,0,1-1.392-.408,2.014,2.014,0,0,1-.78-1.164l.132-.12v4.2Zm2.832-3.312a1.671,1.671,0,0,0,1.368-.6,2.621,2.621,0,0,0,.492-1.7,2.7,2.7,0,0,0-.492-1.722,1.854,1.854,0,0,0-2.748-.018,3.318,3.318,0,0,0,0,3.438A1.657,1.657,0,0,0,167.148,47.28Zm4-.516h1.236V48h-1.236Z" transform="translate(845 7224)" fill="#f1f1f1"/>
    </g>
    <path id="Path_1385" data-name="Path 1385" d="M1349,742h0Z" transform="translate(9 7000)" fill="#fff"/>
  </g>
</svg>
