<svg xmlns="http://www.w3.org/2000/svg" width="1349" height="800" viewBox="0 0 1349 800">
  <g id="eighth" transform="translate(-31 -5736)">
    <rect id="Rectangle_736" data-name="Rectangle 736" width="1349" height="800" transform="translate(31 5736)" fill="#0a101d" opacity="0"/>
    <g id="Group_1748" data-name="Group 1748" transform="translate(21.782 -57.331)">
      <rect id="Rectangle_718" data-name="Rectangle 718" width="525" height="38" transform="translate(464.54 6069.535)" fill="#0d1321"/>
      <path id="Path_1795" data-name="Path 1795" d="M14.736.288A21.584,21.584,0,0,1,7.56-.912a13.186,13.186,0,0,1-5.3-3.168L3.648-6.816A13.328,13.328,0,0,0,8.5-3.864a17.715,17.715,0,0,0,6.24,1.128q4.512,0,6.768-1.656a5.1,5.1,0,0,0,2.256-4.3A4.3,4.3,0,0,0,22.536-11.9a8.263,8.263,0,0,0-3-1.848,48.518,48.518,0,0,0-4.944-1.416,51.943,51.943,0,0,1-6.048-1.848A9.93,9.93,0,0,1,4.68-19.728a7.211,7.211,0,0,1-1.608-4.944A8.38,8.38,0,0,1,4.416-29.3,9.206,9.206,0,0,1,8.544-32.64a16.9,16.9,0,0,1,6.912-1.248,20.348,20.348,0,0,1,5.64.792,16.208,16.208,0,0,1,4.776,2.184l-1.2,2.832a16.516,16.516,0,0,0-4.512-2.088,16.84,16.84,0,0,0-4.7-.7q-4.416,0-6.648,1.7a5.286,5.286,0,0,0-2.232,4.392A4.38,4.38,0,0,0,7.8-21.528a8.018,8.018,0,0,0,3.072,1.872q1.848.648,4.968,1.416a49.983,49.983,0,0,1,5.976,1.8,9.809,9.809,0,0,1,3.864,2.688A7.113,7.113,0,0,1,27.264-8.88,8.273,8.273,0,0,1,25.9-4.248,9.2,9.2,0,0,1,21.7-.936,17.544,17.544,0,0,1,14.736.288Zm44.016-3.36V0H34.992V-33.6h23.04v3.072H38.544v11.952H55.92v3.024H38.544v12.48Zm14.88-27.456H61.824V-33.6H88.992v3.072H77.184V0H73.632Zm28.032,0H89.856V-33.6h27.168v3.072H105.216V0h-3.552ZM122.688-33.6h3.552V0h-3.552Zm42.576,0V0h-2.928l-21.6-27.264V0h-3.552V-33.6h2.928L161.76-6.336V-33.6Zm34.608,16.8h3.408V-3.984a16.414,16.414,0,0,1-5.568,3.168,20.7,20.7,0,0,1-6.768,1.1,18.573,18.573,0,0,1-9.072-2.208,16.3,16.3,0,0,1-6.336-6.12,16.937,16.937,0,0,1-2.3-8.76,16.937,16.937,0,0,1,2.3-8.76,16.3,16.3,0,0,1,6.336-6.12,18.672,18.672,0,0,1,9.12-2.208,19.684,19.684,0,0,1,7.056,1.224,14.025,14.025,0,0,1,5.424,3.624l-2.208,2.256a13.81,13.81,0,0,0-10.128-3.936,15.088,15.088,0,0,0-7.368,1.8,13.232,13.232,0,0,0-5.16,4.992,13.827,13.827,0,0,0-1.872,7.128,13.7,13.7,0,0,0,1.872,7.1A13.5,13.5,0,0,0,183.744-4.7a14.794,14.794,0,0,0,7.344,1.824,14.634,14.634,0,0,0,8.784-2.592ZM222.576.288a21.584,21.584,0,0,1-7.176-1.2,13.186,13.186,0,0,1-5.3-3.168l1.392-2.736a13.328,13.328,0,0,0,4.848,2.952,17.715,17.715,0,0,0,6.24,1.128q4.512,0,6.768-1.656a5.1,5.1,0,0,0,2.256-4.3,4.3,4.3,0,0,0-1.224-3.216,8.263,8.263,0,0,0-3-1.848,48.518,48.518,0,0,0-4.944-1.416,51.943,51.943,0,0,1-6.048-1.848,9.93,9.93,0,0,1-3.864-2.712,7.211,7.211,0,0,1-1.608-4.944,8.38,8.38,0,0,1,1.344-4.632,9.206,9.206,0,0,1,4.128-3.336,16.9,16.9,0,0,1,6.912-1.248,20.348,20.348,0,0,1,5.64.792,16.208,16.208,0,0,1,4.776,2.184l-1.2,2.832A16.516,16.516,0,0,0,228-30.168a16.84,16.84,0,0,0-4.7-.7q-4.416,0-6.648,1.7a5.286,5.286,0,0,0-2.232,4.392,4.38,4.38,0,0,0,1.224,3.24,8.018,8.018,0,0,0,3.072,1.872q1.848.648,4.968,1.416a49.983,49.983,0,0,1,5.976,1.8,9.809,9.809,0,0,1,3.864,2.688A7.113,7.113,0,0,1,235.1-8.88a8.273,8.273,0,0,1-1.368,4.632,9.2,9.2,0,0,1-4.2,3.312A17.543,17.543,0,0,1,222.576.288Z" transform="translate(655 6087)" fill="#603962"/>
    </g>
  </g>
</svg>
