<svg xmlns="http://www.w3.org/2000/svg" xmlns:xlink="http://www.w3.org/1999/xlink" width="1349" height="800" viewBox="0 0 1349 800">
  <defs>
    <filter id="screen" x="359" y="159" width="234.841" height="487.534" filterUnits="userSpaceOnUse">
      <feOffset dy="3" input="SourceAlpha"/>
      <feGaussianBlur stdDeviation="3" result="blur"/>
      <feFlood flood-opacity="0.161"/>
      <feComposite operator="in" in2="blur"/>
      <feComposite in="SourceGraphic"/>
    </filter>
    <clipPath id="clip-path">
      <g transform="matrix(1, 0, 0, 1, 0, 0)" filter="url(#screen)">
        <path id="screen-2" data-name="screen" d="M193.712,541.534H23.13A23.11,23.11,0,0,1,0,518.4V95.13A23.11,23.11,0,0,1,23.13,72H45.1a2.9,2.9,0,0,1,2.891,2.839v1.787A12.711,12.711,0,0,0,60.715,89.348h96.567a11.556,11.556,0,0,0,11.565-11.565V74.891A2.9,2.9,0,0,1,171.736,72h21.976a23.11,23.11,0,0,1,23.129,23.13V518.4a23.109,23.109,0,0,1-23.129,23.13Z" transform="translate(0 -72)" fill="#0a101d"/>
      </g>
    </clipPath>
  </defs>
  <g id="fourth" transform="translate(-163 -2458)">
    <rect id="Rectangle_732" data-name="Rectangle 732" width="1349" height="800" transform="translate(163 2458)" fill="#0a101d" opacity="0"/>
    <g id="Group_1744" data-name="Group 1744" transform="translate(154.752 74.536)">
      <rect id="Rectangle_715" data-name="Rectangle 715" width="505" height="124" transform="translate(484.54 2659.535)" fill="#0d1321"/>
      <path id="Path_1782" data-name="Path 1782" d="M26.544-8.976H7.824L3.792,0H.1l15.36-33.6h3.5L34.32,0H30.576Zm-1.3-2.88L17.184-29.9,9.12-11.856ZM39.888-33.6h13.68a19.991,19.991,0,0,1,9.408,2.136,15.585,15.585,0,0,1,6.336,5.952A16.792,16.792,0,0,1,71.568-16.8a16.792,16.792,0,0,1-2.256,8.712,15.585,15.585,0,0,1-6.336,5.952A19.991,19.991,0,0,1,53.568,0H39.888ZM53.376-3.072A16.292,16.292,0,0,0,61.1-4.824,12.727,12.727,0,0,0,66.24-9.672,13.777,13.777,0,0,0,68.064-16.8a13.777,13.777,0,0,0-1.824-7.128A12.727,12.727,0,0,0,61.1-28.776a16.293,16.293,0,0,0-7.728-1.752H43.44V-3.072ZM79.536-33.6h13.68a19.991,19.991,0,0,1,9.408,2.136,15.585,15.585,0,0,1,6.336,5.952,16.792,16.792,0,0,1,2.256,8.712,16.792,16.792,0,0,1-2.256,8.712,15.585,15.585,0,0,1-6.336,5.952A19.991,19.991,0,0,1,93.216,0H79.536ZM93.024-3.072a16.292,16.292,0,0,0,7.728-1.752,12.726,12.726,0,0,0,5.136-4.848,13.777,13.777,0,0,0,1.824-7.128,13.777,13.777,0,0,0-1.824-7.128,12.726,12.726,0,0,0-5.136-4.848,16.293,16.293,0,0,0-7.728-1.752H83.088V-3.072ZM119.184-33.6h3.552V0h-3.552Zm42.576,0V0h-2.928l-21.6-27.264V0H133.68V-33.6h2.928L158.256-6.336V-33.6Zm34.608,16.8h3.408V-3.984a16.414,16.414,0,0,1-5.568,3.168,20.7,20.7,0,0,1-6.768,1.1,18.573,18.573,0,0,1-9.072-2.208,16.3,16.3,0,0,1-6.336-6.12,16.937,16.937,0,0,1-2.3-8.76,16.937,16.937,0,0,1,2.3-8.76,16.3,16.3,0,0,1,6.336-6.12,18.672,18.672,0,0,1,9.12-2.208,19.684,19.684,0,0,1,7.056,1.224,14.025,14.025,0,0,1,5.424,3.624l-2.208,2.256a13.81,13.81,0,0,0-10.128-3.936,15.088,15.088,0,0,0-7.368,1.8,13.232,13.232,0,0,0-5.16,4.992,13.827,13.827,0,0,0-1.872,7.128A13.7,13.7,0,0,0,175.1-9.7,13.5,13.5,0,0,0,180.24-4.7a14.794,14.794,0,0,0,7.344,1.824,14.634,14.634,0,0,0,8.784-2.592ZM18.048,16.4q6.432,0,10.08,3.072a10.454,10.454,0,0,1,3.648,8.448,10.383,10.383,0,0,1-3.648,8.424q-3.648,3.048-10.08,3.048H9.024V50H5.472V16.4Zm-.1,19.872q4.992,0,7.632-2.184a7.557,7.557,0,0,0,2.64-6.168,7.668,7.668,0,0,0-2.64-6.264q-2.64-2.184-7.632-2.184H9.024v16.8ZM62.4,50,54.72,39.2a24.338,24.338,0,0,1-2.688.144H43.008V50H39.456V16.4H52.032q6.432,0,10.08,3.072A10.454,10.454,0,0,1,65.76,27.92a10.922,10.922,0,0,1-1.992,6.648A11.036,11.036,0,0,1,58.08,38.48L66.288,50ZM51.936,36.32q4.992,0,7.632-2.208a7.627,7.627,0,0,0,2.64-6.192,7.668,7.668,0,0,0-2.64-6.264q-2.64-2.184-7.632-2.184H43.008V36.32ZM88.848,50.288A18.452,18.452,0,0,1,79.8,48.056a16.3,16.3,0,0,1-6.336-6.12,16.946,16.946,0,0,1-2.28-8.736,16.946,16.946,0,0,1,2.28-8.736,16.3,16.3,0,0,1,6.336-6.12,19.451,19.451,0,0,1,18.048-.024,16.341,16.341,0,0,1,6.312,6.12,16.937,16.937,0,0,1,2.3,8.76,16.937,16.937,0,0,1-2.3,8.76,16.341,16.341,0,0,1-6.312,6.12A18.338,18.338,0,0,1,88.848,50.288Zm0-3.168a14.486,14.486,0,0,0,7.2-1.8,13.027,13.027,0,0,0,5.04-4.992,14.11,14.11,0,0,0,1.824-7.128,14.11,14.11,0,0,0-1.824-7.128,13.027,13.027,0,0,0-5.04-4.992,15.348,15.348,0,0,0-14.424,0,13.151,13.151,0,0,0-5.088,4.992A13.966,13.966,0,0,0,74.688,33.2a13.966,13.966,0,0,0,1.848,7.128,13.151,13.151,0,0,0,5.088,4.992A14.621,14.621,0,0,0,88.848,47.12ZM114.432,16.4h13.68a19.991,19.991,0,0,1,9.408,2.136,15.585,15.585,0,0,1,6.336,5.952,16.792,16.792,0,0,1,2.256,8.712,16.792,16.792,0,0,1-2.256,8.712,15.585,15.585,0,0,1-6.336,5.952A19.991,19.991,0,0,1,128.112,50h-13.68ZM127.92,46.928a16.292,16.292,0,0,0,7.728-1.752,12.727,12.727,0,0,0,5.136-4.848,13.777,13.777,0,0,0,1.824-7.128,13.777,13.777,0,0,0-1.824-7.128,12.727,12.727,0,0,0-5.136-4.848,16.293,16.293,0,0,0-7.728-1.752h-9.936V46.928Zm39.7,3.36q-6.528,0-10.176-3.744t-3.648-10.9V16.4h3.552V35.5q0,5.856,2.64,8.736t7.632,2.88q5.04,0,7.68-2.88t2.64-8.736V16.4h3.456V35.648q0,7.152-3.624,10.9T167.616,50.288Zm39.072,0a18.338,18.338,0,0,1-9-2.208,16.169,16.169,0,0,1-6.288-6.12,17.075,17.075,0,0,1-2.28-8.76,17.075,17.075,0,0,1,2.28-8.76,16.125,16.125,0,0,1,6.312-6.12,18.474,18.474,0,0,1,9.024-2.208,18.7,18.7,0,0,1,6.912,1.248,14.327,14.327,0,0,1,5.376,3.648l-2.256,2.256a13.383,13.383,0,0,0-9.936-3.984,14.6,14.6,0,0,0-7.248,1.824,13.328,13.328,0,0,0-5.112,4.992,13.837,13.837,0,0,0-1.848,7.1,13.837,13.837,0,0,0,1.848,7.1,13.328,13.328,0,0,0,5.112,4.992,14.6,14.6,0,0,0,7.248,1.824,13.2,13.2,0,0,0,9.936-4.032l2.256,2.256a14.531,14.531,0,0,1-5.4,3.672A18.567,18.567,0,0,1,206.688,50.288ZM232.7,19.472H220.9V16.4h27.168v3.072H236.256V50H232.7Zm29.76,30.816a21.584,21.584,0,0,1-7.176-1.2,13.186,13.186,0,0,1-5.3-3.168l1.392-2.736a13.328,13.328,0,0,0,4.848,2.952,17.715,17.715,0,0,0,6.24,1.128q4.512,0,6.768-1.656a5.1,5.1,0,0,0,2.256-4.3,4.3,4.3,0,0,0-1.224-3.216,8.263,8.263,0,0,0-3-1.848,48.516,48.516,0,0,0-4.944-1.416,51.943,51.943,0,0,1-6.048-1.848,9.93,9.93,0,0,1-3.864-2.712,7.211,7.211,0,0,1-1.608-4.944,8.38,8.38,0,0,1,1.344-4.632,9.206,9.206,0,0,1,4.128-3.336,16.9,16.9,0,0,1,6.912-1.248,20.348,20.348,0,0,1,5.64.792,16.208,16.208,0,0,1,4.776,2.184l-1.2,2.832a16.516,16.516,0,0,0-4.512-2.088,16.841,16.841,0,0,0-4.7-.7q-4.416,0-6.648,1.7a5.286,5.286,0,0,0-2.232,4.392,4.38,4.38,0,0,0,1.224,3.24,8.018,8.018,0,0,0,3.072,1.872q1.848.648,4.968,1.416a49.981,49.981,0,0,1,5.976,1.8,9.809,9.809,0,0,1,3.864,2.688,7.114,7.114,0,0,1,1.584,4.872,8.273,8.273,0,0,1-1.368,4.632,9.2,9.2,0,0,1-4.2,3.312A17.544,17.544,0,0,1,262.464,50.288Z" transform="translate(655 2677)" fill="#603962"/>
      <g id="Group_1723" data-name="Group 1723" transform="translate(-577.267 1224)" opacity="0">
        <g id="Display_Shape" data-name="Display Shape" transform="translate(954 1325)" fill="#fff">
          <path d="M 194.970947265625 469.18505859375 L 21.66341209411621 469.18505859375 C 18.67158889770508 469.18505859375 15.76894187927246 468.5986938476563 13.03617668151855 467.4423522949219 C 10.39694118499756 466.3255004882813 8.026706695556641 464.7267456054688 5.991412162780762 462.6905822753906 C 3.9561767578125 460.6543273925781 2.358176708221436 458.2831115722656 1.241882681846619 455.6426391601563 C 0.08605917543172836 452.90869140625 -0.4999996423721313 450.0048217773438 -0.4999996423721313 447.0116882324219 L -0.4999996423721313 21.67327880859375 C -0.4999996423721313 18.68016052246094 0.08605917543172836 15.77627849578857 1.241882681846619 13.04233741760254 C 2.358176708221436 10.40192604064941 3.9561767578125 8.03069019317627 5.991412162780762 5.994455337524414 C 8.026706695556641 3.958278656005859 10.39694118499756 2.359513998031616 13.03617668151855 1.242690563201904 C 15.76894187927246 0.08633756637573242 18.67158889770508 -0.5000153779983521 21.66341209411621 -0.5000153779983521 L 45.94770812988281 -0.5000153779983521 L 47.68223571777344 -0.5000153779983521 L 170.2072906494141 -0.5000153779983521 L 172.1723480224609 -0.5000153779983521 L 194.970947265625 -0.5000153779983521 C 197.9627685546875 -0.5000153779983521 200.8654174804688 0.08633756637573242 203.5981750488281 1.242690563201904 C 206.2374114990234 2.359513998031616 208.6076507568359 3.958278656005859 210.6429443359375 5.994455337524414 C 212.6781768798828 8.03069019317627 214.2761840820313 10.40192604064941 215.3924713134766 13.04233741760254 C 216.5482940673828 15.77627849578857 217.1343536376953 18.68016052246094 217.1343536376953 21.67327880859375 L 217.1343536376953 447.0116882324219 C 217.1343536376953 450.0048217773438 216.5482940673828 452.90869140625 215.3924713134766 455.6426391601563 C 214.2761840820313 458.2831115722656 212.6781768798828 460.6543273925781 210.6429443359375 462.6905822753906 C 208.6076507568359 464.7267456054688 206.2374114990234 466.3255004882813 203.5981750488281 467.4423522949219 C 200.8654174804688 468.5986938476563 197.9627685546875 469.18505859375 194.970947265625 469.18505859375 Z" stroke="none"/>
          <path d="M 21.66340637207031 -3.0517578125e-05 C 9.699066162109375 -3.0517578125e-05 0 9.703460693359375 0 21.67327880859375 L 0 447.0116882324219 C 0 458.9815063476563 9.699066162109375 468.68505859375 21.66340637207031 468.68505859375 L 194.970947265625 468.68505859375 C 206.9352874755859 468.68505859375 216.6343536376953 458.9815063476563 216.6343536376953 447.0116882324219 L 216.6343536376953 21.67327880859375 C 216.6343536376953 9.703460693359375 206.9352874755859 -3.0517578125e-05 194.970947265625 -3.0517578125e-05 L 172.1723480224609 -3.0517578125e-05 L 170.2072906494141 -3.0517578125e-05 L 47.68223571777344 -3.0517578125e-05 L 45.94764709472656 -3.0517578125e-05 L 21.66340637207031 -3.0517578125e-05 M 21.66340637207031 -1.000030517578125 L 45.94764709472656 -1.000030517578125 L 47.68223571777344 -1.000030517578125 L 170.2072906494141 -1.000030517578125 L 172.1723480224609 -1.000030517578125 L 194.970947265625 -1.000030517578125 C 198.0301208496094 -1.000030517578125 200.998291015625 -0.400360107421875 203.7929992675781 0.7822265625 C 206.4918823242188 1.924285888671875 208.91552734375 3.558990478515625 210.9965362548828 5.6409912109375 C 213.0775299072266 7.722991943359375 214.7115325927734 10.14764404296875 215.8529968261719 12.84762573242188 C 217.0350036621094 15.64352416992188 217.6343536376953 18.6129150390625 217.6343536376953 21.67327880859375 L 217.6343536376953 447.0116882324219 C 217.6343536376953 450.0720520019531 217.0350036621094 453.0414428710938 215.8529968261719 455.8373413085938 C 214.7115325927734 458.5373229980469 213.0775299072266 460.9620361328125 210.9965362548828 463.0439758300781 C 208.91552734375 465.1259765625 206.4918823242188 466.7607421875 203.7929992675781 467.9027404785156 C 200.998291015625 469.0853881835938 198.0301208496094 469.68505859375 194.970947265625 469.68505859375 L 21.66340637207031 469.68505859375 C 18.60423278808594 469.68505859375 15.63606262207031 469.0853881835938 12.84135437011719 467.9027404785156 C 10.14247131347656 466.7607421875 7.718826293945313 465.1259765625 5.6378173828125 463.0439758300781 C 3.55682373046875 460.9620361328125 1.922821044921875 458.5373229980469 0.7813568115234375 455.8373413085938 C -0.4006500244140625 453.0414428710938 -1 450.0720520019531 -1 447.0116882324219 L -1 21.67327880859375 C -1 18.6129150390625 -0.4006500244140625 15.64352416992188 0.7813568115234375 12.84762573242188 C 1.922821044921875 10.14764404296875 3.55682373046875 7.722991943359375 5.6378173828125 5.6409912109375 C 7.718826293945313 3.558990478515625 10.14247131347656 1.924285888671875 12.84135437011719 0.7822265625 C 15.63606262207031 -0.400360107421875 18.60423278808594 -1.000030517578125 21.66340637207031 -1.000030517578125 Z" stroke="none" fill="#fff"/>
        </g>
      </g>
    </g>
  </g>
</svg>
