<svg xmlns="http://www.w3.org/2000/svg" width="1349" height="800" viewBox="0 0 1349 800">
  <g id="seventh" transform="translate(-31 -4960)">
    <rect id="Rectangle_735" data-name="Rectangle 735" width="1349" height="800" transform="translate(31 4960)" fill="#0a101d" opacity="0"/>
    <g id="Group_1747" data-name="Group 1747" transform="translate(22.267 -87)">
      <rect id="Rectangle_714" data-name="Rectangle 714" width="504" height="243" transform="translate(485.54 5323.535)" fill="#0d1321"/>
      <path id="Path_1783" data-name="Path 1783" d="M5.472-33.6H9.024V-3.072H27.84V0H5.472Zm28.272,0H37.3V0H33.744ZM57.5.288a21.584,21.584,0,0,1-7.176-1.2,13.186,13.186,0,0,1-5.3-3.168l1.392-2.736a13.328,13.328,0,0,0,4.848,2.952A17.715,17.715,0,0,0,57.5-2.736q4.512,0,6.768-1.656a5.1,5.1,0,0,0,2.256-4.3A4.3,4.3,0,0,0,65.3-11.9a8.263,8.263,0,0,0-3-1.848,48.518,48.518,0,0,0-4.944-1.416,51.943,51.943,0,0,1-6.048-1.848,9.93,9.93,0,0,1-3.864-2.712,7.211,7.211,0,0,1-1.608-4.944A8.38,8.38,0,0,1,47.184-29.3a9.206,9.206,0,0,1,4.128-3.336,16.9,16.9,0,0,1,6.912-1.248,20.348,20.348,0,0,1,5.64.792,16.208,16.208,0,0,1,4.776,2.184l-1.2,2.832a16.516,16.516,0,0,0-4.512-2.088,16.84,16.84,0,0,0-4.7-.7q-4.416,0-6.648,1.7a5.286,5.286,0,0,0-2.232,4.392,4.38,4.38,0,0,0,1.224,3.24,8.018,8.018,0,0,0,3.072,1.872q1.848.648,4.968,1.416a49.983,49.983,0,0,1,5.976,1.8,9.809,9.809,0,0,1,3.864,2.688A7.114,7.114,0,0,1,70.032-8.88a8.273,8.273,0,0,1-1.368,4.632,9.2,9.2,0,0,1-4.2,3.312A17.544,17.544,0,0,1,57.5.288Zm26.3-30.816H72V-33.6H99.168v3.072H87.36V0H83.808ZM113.568.288a21.584,21.584,0,0,1-7.176-1.2,13.186,13.186,0,0,1-5.3-3.168l1.392-2.736a13.328,13.328,0,0,0,4.848,2.952,17.715,17.715,0,0,0,6.24,1.128q4.512,0,6.768-1.656a5.1,5.1,0,0,0,2.256-4.3,4.3,4.3,0,0,0-1.224-3.216,8.263,8.263,0,0,0-3-1.848,48.518,48.518,0,0,0-4.944-1.416,51.943,51.943,0,0,1-6.048-1.848,9.93,9.93,0,0,1-3.864-2.712,7.211,7.211,0,0,1-1.608-4.944,8.38,8.38,0,0,1,1.344-4.632,9.206,9.206,0,0,1,4.128-3.336,16.9,16.9,0,0,1,6.912-1.248,20.348,20.348,0,0,1,5.64.792,16.208,16.208,0,0,1,4.776,2.184l-1.2,2.832a16.516,16.516,0,0,0-4.512-2.088,16.841,16.841,0,0,0-4.7-.7q-4.416,0-6.648,1.7a5.286,5.286,0,0,0-2.232,4.392,4.38,4.38,0,0,0,1.224,3.24,8.018,8.018,0,0,0,3.072,1.872q1.848.648,4.968,1.416a49.983,49.983,0,0,1,5.976,1.8,9.809,9.809,0,0,1,3.864,2.688A7.113,7.113,0,0,1,126.1-8.88a8.273,8.273,0,0,1-1.368,4.632,9.2,9.2,0,0,1-4.2,3.312A17.544,17.544,0,0,1,113.568.288Z" transform="translate(655 5341)" fill="#603962"/>
      <path id="Path_1784" data-name="Path 1784" d="M3.64,14V5.012H.168v-.98H8.274v.98H4.8V14Zm5.894,0V3.7h1.134v4.69l-.182.14a2.416,2.416,0,0,1,.98-1.295,2.861,2.861,0,0,1,1.582-.441q2.534,0,2.534,2.786V14H14.448V9.632A2.17,2.17,0,0,0,14.056,8.2a1.541,1.541,0,0,0-1.232-.455,2.092,2.092,0,0,0-1.568.6,2.224,2.224,0,0,0-.588,1.624V14Zm13.958-.84a3.282,3.282,0,0,1-1.183.686,4.446,4.446,0,0,1-1.477.252,3.858,3.858,0,0,1-1.883-.434,2.95,2.95,0,0,1-1.218-1.253,4.174,4.174,0,0,1-.427-1.953,4.177,4.177,0,0,1,.42-1.918,3.159,3.159,0,0,1,1.169-1.288,3.226,3.226,0,0,1,1.729-.462,3.015,3.015,0,0,1,1.61.413,2.662,2.662,0,0,1,1.029,1.183,4.366,4.366,0,0,1,.357,1.848v.21H18.3V9.7h4.676l-.364.518a2.915,2.915,0,0,0-.483-1.89,1.773,1.773,0,0,0-1.491-.658,1.946,1.946,0,0,0-1.6.721,3.1,3.1,0,0,0-.581,1.995,3.077,3.077,0,0,0,.609,2.072,2.238,2.238,0,0,0,1.785.7,3.483,3.483,0,0,0,1.183-.2,3.706,3.706,0,0,0,1.085-.623Zm8.2.938a3.043,3.043,0,0,1-1.645-.441,2.892,2.892,0,0,1-1.092-1.26,4.484,4.484,0,0,1-.385-1.925,4.462,4.462,0,0,1,.392-1.932,3.07,3.07,0,0,1,1.1-1.288A2.914,2.914,0,0,1,31.7,6.79a2.761,2.761,0,0,1,1.638.476,2.349,2.349,0,0,1,.91,1.358l-.168.112V6.958H35.2V14h-1.12V12.18l.168.084a2.349,2.349,0,0,1-.91,1.358A2.761,2.761,0,0,1,31.7,14.1Zm.224-.938a1.917,1.917,0,0,0,1.6-.707,3.168,3.168,0,0,0,.56-2.009,3.109,3.109,0,0,0-.567-2,1.93,1.93,0,0,0-1.589-.7,1.961,1.961,0,0,0-1.617.721,3.121,3.121,0,0,0-.581,2.009A3.032,3.032,0,0,0,30.3,12.46,1.986,1.986,0,0,0,31.92,13.16Zm5.474,3.864V8.932q0-.49-.021-.987t-.091-.987H38.36l.126,1.456-.112.21a2.349,2.349,0,0,1,.91-1.358,2.737,2.737,0,0,1,1.624-.476,2.914,2.914,0,0,1,1.631.462A3.118,3.118,0,0,1,43.645,8.54a4.4,4.4,0,0,1,.4,1.932,4.35,4.35,0,0,1-.4,1.925,2.894,2.894,0,0,1-2.737,1.7,2.737,2.737,0,0,1-1.624-.476,2.349,2.349,0,0,1-.91-1.358l.154-.14v4.9Zm3.3-3.864a1.95,1.95,0,0,0,1.6-.7,3.058,3.058,0,0,0,.574-1.988,3.148,3.148,0,0,0-.574-2.009,2.164,2.164,0,0,0-3.206-.021,3.137,3.137,0,0,0-.56,2,3.168,3.168,0,0,0,.56,2.009A1.933,1.933,0,0,0,40.7,13.16Zm5.1,3.864V8.932q0-.49-.021-.987t-.091-.987H46.76l.126,1.456-.112.21a2.349,2.349,0,0,1,.91-1.358,2.737,2.737,0,0,1,1.624-.476,2.914,2.914,0,0,1,1.631.462A3.118,3.118,0,0,1,52.045,8.54a4.4,4.4,0,0,1,.4,1.932,4.35,4.35,0,0,1-.4,1.925,2.894,2.894,0,0,1-2.737,1.7,2.737,2.737,0,0,1-1.624-.476,2.349,2.349,0,0,1-.91-1.358l.154-.14v4.9Zm3.3-3.864a1.95,1.95,0,0,0,1.6-.7,3.058,3.058,0,0,0,.574-1.988,3.148,3.148,0,0,0-.574-2.009,2.164,2.164,0,0,0-3.206-.021,3.137,3.137,0,0,0-.56,2,3.168,3.168,0,0,0,.56,2.009A1.933,1.933,0,0,0,49.1,13.16ZM60.55,14.1a3.043,3.043,0,0,1-1.645-.441,2.892,2.892,0,0,1-1.092-1.26,4.484,4.484,0,0,1-.385-1.925A4.462,4.462,0,0,1,57.82,8.54a3.07,3.07,0,0,1,1.1-1.288A2.914,2.914,0,0,1,60.55,6.79a2.761,2.761,0,0,1,1.638.476,2.349,2.349,0,0,1,.91,1.358l-.168.112V6.958h1.12V14H62.93V12.18l.168.084a2.349,2.349,0,0,1-.91,1.358A2.761,2.761,0,0,1,60.55,14.1Zm.224-.938a1.917,1.917,0,0,0,1.6-.707,3.168,3.168,0,0,0,.56-2.009,3.109,3.109,0,0,0-.567-2,1.93,1.93,0,0,0-1.589-.7,1.961,1.961,0,0,0-1.617.721,3.121,3.121,0,0,0-.581,2.009,3.032,3.032,0,0,0,.581,1.988A1.986,1.986,0,0,0,60.774,13.16Zm7.854.938a4.114,4.114,0,0,1-2.814-.91l.378-.84a3.993,3.993,0,0,0,1.155.637,4.078,4.078,0,0,0,1.323.2,2.205,2.205,0,0,0,1.211-.273.89.89,0,0,0,.413-.791.838.838,0,0,0-.28-.665,2.2,2.2,0,0,0-.924-.4l-1.19-.28a2.624,2.624,0,0,1-1.365-.7,1.679,1.679,0,0,1-.483-1.2,1.815,1.815,0,0,1,.336-1.085,2.23,2.23,0,0,1,.938-.735,3.513,3.513,0,0,1,1.428-.266,4.084,4.084,0,0,1,1.4.238,2.963,2.963,0,0,1,1.106.686l-.378.826a3.7,3.7,0,0,0-1.029-.623,3.021,3.021,0,0,0-1.1-.2,1.994,1.994,0,0,0-1.169.294.929.929,0,0,0-.413.8.913.913,0,0,0,.259.686,1.8,1.8,0,0,0,.833.392l1.19.294a2.806,2.806,0,0,1,1.463.693,1.686,1.686,0,0,1,.469,1.225,1.719,1.719,0,0,1-.742,1.456A3.333,3.333,0,0,1,68.628,14.1Zm9.31-.1L74.1,10.4l3.542-3.43h1.442l-3.92,3.752.042-.714L79.422,14Zm-4.746,0V3.7h1.134V14Zm9.464.1a4.114,4.114,0,0,1-2.814-.91l.378-.84a3.993,3.993,0,0,0,1.155.637,4.078,4.078,0,0,0,1.323.2,2.205,2.205,0,0,0,1.211-.273.89.89,0,0,0,.413-.791.838.838,0,0,0-.28-.665,2.2,2.2,0,0,0-.924-.4l-1.19-.28a2.624,2.624,0,0,1-1.365-.7,1.679,1.679,0,0,1-.483-1.2,1.815,1.815,0,0,1,.336-1.085,2.23,2.23,0,0,1,.938-.735,3.513,3.513,0,0,1,1.428-.266,4.084,4.084,0,0,1,1.4.238,2.963,2.963,0,0,1,1.106.686l-.378.826a3.7,3.7,0,0,0-1.029-.623,3.021,3.021,0,0,0-1.1-.2,1.994,1.994,0,0,0-1.169.294.929.929,0,0,0-.413.8.913.913,0,0,0,.259.686,1.8,1.8,0,0,0,.833.392l1.19.294a2.806,2.806,0,0,1,1.463.693,1.686,1.686,0,0,1,.469,1.225,1.719,1.719,0,0,1-.742,1.456A3.333,3.333,0,0,1,82.656,14.1ZM89.88,7.854v-.9h4.228v.9ZM94.3,4.732a2.661,2.661,0,0,0-.728-.112,1.509,1.509,0,0,0-.609.119.863.863,0,0,0-.427.427,1.94,1.94,0,0,0-.154.854V14H91.252V5.88a2.278,2.278,0,0,1,.56-1.687,2.1,2.1,0,0,1,1.54-.553,4.07,4.07,0,0,1,.476.028,2.876,2.876,0,0,1,.476.1Zm4.13,9.366a3.358,3.358,0,0,1-1.757-.448,3.027,3.027,0,0,1-1.162-1.267,4.258,4.258,0,0,1-.413-1.939,4.269,4.269,0,0,1,.413-1.932,3.018,3.018,0,0,1,1.162-1.274,3.669,3.669,0,0,1,3.514,0,3.018,3.018,0,0,1,1.162,1.274,4.269,4.269,0,0,1,.413,1.932,4.258,4.258,0,0,1-.413,1.939,3.027,3.027,0,0,1-1.162,1.267A3.358,3.358,0,0,1,98.434,14.1Zm0-.938a1.954,1.954,0,0,0,1.6-.693,3.129,3.129,0,0,0,.567-2.023,3.083,3.083,0,0,0-.574-2,1.95,1.95,0,0,0-1.6-.7,1.97,1.97,0,0,0-1.6.7,3.056,3.056,0,0,0-.581,2,3.129,3.129,0,0,0,.567,2.023A1.97,1.97,0,0,0,98.434,13.16Zm5.1.84V8.932q0-.49-.021-.987t-.091-.987H104.5l.154,1.736-.154-.042a2.2,2.2,0,0,1,.847-1.393,2.442,2.442,0,0,1,1.463-.469,2.655,2.655,0,0,1,.343.021,1.9,1.9,0,0,1,.3.063l-.028,1.036a2.255,2.255,0,0,0-.742-.112,1.938,1.938,0,0,0-1.169.322,1.875,1.875,0,0,0-.644.819,2.732,2.732,0,0,0-.2,1.043V14Zm11.676.1a3.451,3.451,0,0,1-1.792-.448,3.022,3.022,0,0,1-1.169-1.26,4.181,4.181,0,0,1-.413-1.918,4.22,4.22,0,0,1,.42-1.925,3.1,3.1,0,0,1,1.19-1.3,3.471,3.471,0,0,1,1.82-.462,3.958,3.958,0,0,1,1.379.245,2.988,2.988,0,0,1,1.1.679l-.378.84a4.3,4.3,0,0,0-1.015-.609,2.7,2.7,0,0,0-1.029-.2,2.124,2.124,0,0,0-1.687.714,2.97,2.97,0,0,0-.623,2.016,2.914,2.914,0,0,0,.616,1.988,2.14,2.14,0,0,0,1.694.7,2.714,2.714,0,0,0,1.022-.2,4.243,4.243,0,0,0,1.022-.609l.378.84a3.221,3.221,0,0,1-1.127.665A4.114,4.114,0,0,1,115.206,14.1Zm6.888,0a3.358,3.358,0,0,1-1.757-.448,3.027,3.027,0,0,1-1.162-1.267,4.258,4.258,0,0,1-.413-1.939,4.269,4.269,0,0,1,.413-1.932,3.018,3.018,0,0,1,1.162-1.274,3.669,3.669,0,0,1,3.514,0,3.018,3.018,0,0,1,1.162,1.274,4.269,4.269,0,0,1,.413,1.932,4.258,4.258,0,0,1-.413,1.939,3.027,3.027,0,0,1-1.162,1.267A3.358,3.358,0,0,1,122.094,14.1Zm0-.938a1.954,1.954,0,0,0,1.6-.693,3.129,3.129,0,0,0,.567-2.023,3.083,3.083,0,0,0-.574-2,1.95,1.95,0,0,0-1.6-.7,1.97,1.97,0,0,0-1.6.7,3.056,3.056,0,0,0-.581,2,3.129,3.129,0,0,0,.567,2.023A1.97,1.97,0,0,0,122.094,13.16Zm5.1.84V8.932q0-.49-.021-.987t-.091-.987h1.078l.126,1.456-.14.112a2.416,2.416,0,0,1,.98-1.295A2.861,2.861,0,0,1,130.7,6.79q2.534,0,2.534,2.786V14H132.1V9.632a2.17,2.17,0,0,0-.392-1.435,1.541,1.541,0,0,0-1.232-.455,2.092,2.092,0,0,0-1.568.6,2.224,2.224,0,0,0-.588,1.624V14ZM139.944,3.906h1.414V5.222h-1.414Zm1.274,3.052V14h-1.134V7.854h-5.7v-.9ZM135.758,14V6.02a3.048,3.048,0,0,1,.259-1.358,1.588,1.588,0,0,1,.847-.763,4.243,4.243,0,0,1,1.6-.245h.448v.882h-.35a3.371,3.371,0,0,0-1.05.126.755.755,0,0,0-.49.49,3.552,3.552,0,0,0-.126,1.092V14Zm7.644,0V8.932q0-.49-.021-.987t-.091-.987h1.078l.154,1.736-.154-.042a2.2,2.2,0,0,1,.847-1.393,2.442,2.442,0,0,1,1.463-.469,2.655,2.655,0,0,1,.343.021,1.9,1.9,0,0,1,.3.063l-.028,1.036a2.255,2.255,0,0,0-.742-.112,1.938,1.938,0,0,0-1.169.322,1.875,1.875,0,0,0-.644.819,2.732,2.732,0,0,0-.2,1.043V14Zm5.068,0V8.932q0-.49-.021-.987t-.091-.987h1.078l.126,1.456-.14.1a2.36,2.36,0,0,1,.875-1.274,2.463,2.463,0,0,1,1.477-.448,2.311,2.311,0,0,1,1.589.5,2.468,2.468,0,0,1,.721,1.54l-.336-.182a2.393,2.393,0,0,1,.9-1.358,2.66,2.66,0,0,1,1.631-.5,2.167,2.167,0,0,1,1.75.693,3.173,3.173,0,0,1,.588,2.093V14h-1.134V9.632a2.36,2.36,0,0,0-.35-1.435,1.307,1.307,0,0,0-1.106-.455,1.731,1.731,0,0,0-1.393.6,2.45,2.45,0,0,0-.511,1.638V14h-1.134V9.632a2.325,2.325,0,0,0-.357-1.435,1.327,1.327,0,0,0-1.113-.455,1.747,1.747,0,0,0-1.407.6,2.45,2.45,0,0,0-.511,1.638V14Zm15.008.1a3.043,3.043,0,0,1-1.645-.441,2.892,2.892,0,0,1-1.092-1.26,4.484,4.484,0,0,1-.385-1.925,4.462,4.462,0,0,1,.392-1.932,3.07,3.07,0,0,1,1.1-1.288,2.914,2.914,0,0,1,1.631-.462,2.761,2.761,0,0,1,1.638.476,2.349,2.349,0,0,1,.91,1.358l-.168.112V6.958h1.12V14h-1.12V12.18l.168.084a2.349,2.349,0,0,1-.91,1.358A2.761,2.761,0,0,1,163.478,14.1Zm.224-.938a1.917,1.917,0,0,0,1.6-.707,3.168,3.168,0,0,0,.56-2.009,3.109,3.109,0,0,0-.567-2,1.93,1.93,0,0,0-1.589-.7,1.961,1.961,0,0,0-1.617.721,3.121,3.121,0,0,0-.581,2.009,3.032,3.032,0,0,0,.581,1.988A1.986,1.986,0,0,0,163.7,13.16Zm4.48-5.306v-.9H172.7v.9Zm4.494,5.138v.966a3.543,3.543,0,0,1-.469.1,3.426,3.426,0,0,1-.511.035,2.154,2.154,0,0,1-1.561-.56,2.232,2.232,0,0,1-.581-1.68V5.152l1.134-.406V11.7a1.9,1.9,0,0,0,.161.868.888.888,0,0,0,.441.427,1.6,1.6,0,0,0,.63.119,2.313,2.313,0,0,0,.378-.028A2.524,2.524,0,0,0,172.676,12.992Zm1.4,1.008V6.958h1.134V14Zm-.112-10.024h1.386V5.264h-1.386ZM180.32,14.1a3.358,3.358,0,0,1-1.757-.448,3.027,3.027,0,0,1-1.162-1.267,4.258,4.258,0,0,1-.413-1.939,4.269,4.269,0,0,1,.413-1.932,3.018,3.018,0,0,1,1.162-1.274,3.669,3.669,0,0,1,3.514,0,3.018,3.018,0,0,1,1.162,1.274,4.269,4.269,0,0,1,.413,1.932,4.258,4.258,0,0,1-.413,1.939,3.027,3.027,0,0,1-1.162,1.267A3.358,3.358,0,0,1,180.32,14.1Zm0-.938a1.954,1.954,0,0,0,1.6-.693,3.129,3.129,0,0,0,.567-2.023,3.083,3.083,0,0,0-.574-2,1.95,1.95,0,0,0-1.6-.7,1.97,1.97,0,0,0-1.6.7,3.056,3.056,0,0,0-.581,2,3.129,3.129,0,0,0,.567,2.023A1.97,1.97,0,0,0,180.32,13.16Zm5.1.84V8.932q0-.49-.021-.987t-.091-.987h1.078l.126,1.456-.14.112a2.416,2.416,0,0,1,.98-1.295,2.861,2.861,0,0,1,1.582-.441q2.534,0,2.534,2.786V14H190.33V9.632a2.17,2.17,0,0,0-.392-1.435,1.541,1.541,0,0,0-1.232-.455,2.092,2.092,0,0,0-1.568.6,2.224,2.224,0,0,0-.588,1.624V14Zm11.844,0V3.7h1.134V8.764l-.154-.14a2.378,2.378,0,0,1,.91-1.351,2.709,2.709,0,0,1,1.624-.483,2.972,2.972,0,0,1,1.638.448,3.056,3.056,0,0,1,1.1,1.26,4.3,4.3,0,0,1,.4,1.918,4.441,4.441,0,0,1-.4,1.939,3.061,3.061,0,0,1-1.106,1.288,2.947,2.947,0,0,1-1.631.455,2.737,2.737,0,0,1-1.624-.476,2.349,2.349,0,0,1-.91-1.358l.154-.154V14Zm3.3-.84a1.926,1.926,0,0,0,1.6-.721,3.173,3.173,0,0,0,.574-2.023,3.034,3.034,0,0,0-.574-1.974,2.178,2.178,0,0,0-3.206.007,3.142,3.142,0,0,0-.56,2,3.168,3.168,0,0,0,.56,2.009A1.933,1.933,0,0,0,200.564,13.16Zm10.864,0a3.282,3.282,0,0,1-1.183.686,4.446,4.446,0,0,1-1.477.252,3.858,3.858,0,0,1-1.883-.434,2.95,2.95,0,0,1-1.218-1.253,4.174,4.174,0,0,1-.427-1.953,4.177,4.177,0,0,1,.42-1.918,3.159,3.159,0,0,1,1.169-1.288,3.226,3.226,0,0,1,1.729-.462,3.015,3.015,0,0,1,1.61.413A2.662,2.662,0,0,1,211.2,8.386a4.366,4.366,0,0,1,.357,1.848v.21h-5.32V9.7h4.676l-.364.518a2.915,2.915,0,0,0-.483-1.89,1.773,1.773,0,0,0-1.491-.658,1.946,1.946,0,0,0-1.6.721,3.1,3.1,0,0,0-.581,1.995A3.077,3.077,0,0,0,207,12.46a2.238,2.238,0,0,0,1.785.7,3.483,3.483,0,0,0,1.183-.2,3.706,3.706,0,0,0,1.085-.623Zm.84-5.306v-.9H216.5v.9Zm4.424-3.122a2.661,2.661,0,0,0-.728-.112,1.509,1.509,0,0,0-.609.119.863.863,0,0,0-.427.427,1.94,1.94,0,0,0-.154.854V14H213.64V5.88a2.278,2.278,0,0,1,.56-1.687,2.1,2.1,0,0,1,1.54-.553,4.071,4.071,0,0,1,.476.028,2.876,2.876,0,0,1,.476.1Zm4.13,9.366a3.358,3.358,0,0,1-1.757-.448,3.027,3.027,0,0,1-1.162-1.267,4.258,4.258,0,0,1-.413-1.939,4.269,4.269,0,0,1,.413-1.932,3.018,3.018,0,0,1,1.162-1.274,3.669,3.669,0,0,1,3.514,0,3.018,3.018,0,0,1,1.162,1.274,4.269,4.269,0,0,1,.413,1.932,4.258,4.258,0,0,1-.413,1.939,3.027,3.027,0,0,1-1.162,1.267A3.358,3.358,0,0,1,220.822,14.1Zm0-.938a1.954,1.954,0,0,0,1.6-.693,3.129,3.129,0,0,0,.567-2.023,3.083,3.083,0,0,0-.574-2,1.95,1.95,0,0,0-1.6-.7,1.97,1.97,0,0,0-1.6.7,3.056,3.056,0,0,0-.581,2,3.129,3.129,0,0,0,.567,2.023A1.97,1.97,0,0,0,220.822,13.16Zm5.1.84V8.932q0-.49-.021-.987t-.091-.987h1.078l.154,1.736-.154-.042a2.2,2.2,0,0,1,.847-1.393,2.442,2.442,0,0,1,1.463-.469,2.655,2.655,0,0,1,.343.021,1.9,1.9,0,0,1,.3.063L229.81,7.91a2.255,2.255,0,0,0-.742-.112,1.938,1.938,0,0,0-1.169.322,1.875,1.875,0,0,0-.644.819,2.732,2.732,0,0,0-.2,1.043V14Zm10.7-.84a3.282,3.282,0,0,1-1.183.686,4.446,4.446,0,0,1-1.477.252,3.858,3.858,0,0,1-1.883-.434,2.95,2.95,0,0,1-1.218-1.253,4.174,4.174,0,0,1-.427-1.953,4.177,4.177,0,0,1,.42-1.918,3.159,3.159,0,0,1,1.169-1.288,3.226,3.226,0,0,1,1.729-.462,3.015,3.015,0,0,1,1.61.413,2.662,2.662,0,0,1,1.029,1.183,4.366,4.366,0,0,1,.357,1.848v.21h-5.32V9.7H236.1l-.364.518a2.915,2.915,0,0,0-.483-1.89,1.773,1.773,0,0,0-1.491-.658,1.946,1.946,0,0,0-1.6.721,3.1,3.1,0,0,0-.581,1.995,3.077,3.077,0,0,0,.609,2.072,2.238,2.238,0,0,0,1.785.7,3.483,3.483,0,0,0,1.183-.2,3.706,3.706,0,0,0,1.085-.623Zm8.2.938a3.043,3.043,0,0,1-1.645-.441,2.892,2.892,0,0,1-1.092-1.26,4.484,4.484,0,0,1-.385-1.925,4.462,4.462,0,0,1,.392-1.932,3.07,3.07,0,0,1,1.1-1.288,2.914,2.914,0,0,1,1.631-.462,2.761,2.761,0,0,1,1.638.476,2.349,2.349,0,0,1,.91,1.358l-.168.112V6.958h1.12V14H247.2V12.18l.168.084a2.349,2.349,0,0,1-.91,1.358A2.761,2.761,0,0,1,244.818,14.1Zm.224-.938a1.917,1.917,0,0,0,1.6-.707,3.168,3.168,0,0,0,.56-2.009,3.109,3.109,0,0,0-.567-2,1.93,1.93,0,0,0-1.589-.7,1.961,1.961,0,0,0-1.617.721,3.121,3.121,0,0,0-.581,2.009,3.032,3.032,0,0,0,.581,1.988A1.986,1.986,0,0,0,245.042,13.16Zm11.676.84H255.6V12.11l.168.154a2.349,2.349,0,0,1-.91,1.358,2.761,2.761,0,0,1-1.638.476,2.947,2.947,0,0,1-1.631-.455,3.015,3.015,0,0,1-1.1-1.288,4.509,4.509,0,0,1-.392-1.939,4.437,4.437,0,0,1,.385-1.918,2.945,2.945,0,0,1,1.092-1.26,3.007,3.007,0,0,1,1.645-.448,2.732,2.732,0,0,1,1.638.483,2.378,2.378,0,0,1,.91,1.351l-.182.14V3.7h1.134Zm-3.276-.84a1.922,1.922,0,0,0,1.589-.707,3.14,3.14,0,0,0,.567-2.009,3.142,3.142,0,0,0-.56-2,1.917,1.917,0,0,0-1.6-.707,1.986,1.986,0,0,0-1.617.7,3.008,3.008,0,0,0-.581,1.974,3.145,3.145,0,0,0,.581,2.023A1.961,1.961,0,0,0,253.442,13.16Zm11.676.84H264V12.11l.168.154a2.349,2.349,0,0,1-.91,1.358,2.761,2.761,0,0,1-1.638.476,2.947,2.947,0,0,1-1.631-.455,3.014,3.014,0,0,1-1.1-1.288,4.509,4.509,0,0,1-.392-1.939,4.437,4.437,0,0,1,.385-1.918,2.945,2.945,0,0,1,1.092-1.26,3.007,3.007,0,0,1,1.645-.448,2.732,2.732,0,0,1,1.638.483,2.378,2.378,0,0,1,.91,1.351l-.182.14V3.7h1.134Zm-3.276-.84a1.922,1.922,0,0,0,1.589-.707A3.139,3.139,0,0,0,264,10.444a3.143,3.143,0,0,0-.56-2,1.917,1.917,0,0,0-1.6-.707,1.986,1.986,0,0,0-1.617.7,3.008,3.008,0,0,0-.581,1.974,3.145,3.145,0,0,0,.581,2.023A1.961,1.961,0,0,0,261.842,13.16Zm5.474.84V6.958h1.134V14ZM267.2,3.976h1.386V5.264H267.2ZM270.648,14V8.932q0-.49-.021-.987t-.091-.987h1.078l.126,1.456-.14.112a2.416,2.416,0,0,1,.98-1.295,2.861,2.861,0,0,1,1.582-.441q2.534,0,2.534,2.786V14h-1.134V9.632A2.17,2.17,0,0,0,275.17,8.2a1.541,1.541,0,0,0-1.232-.455,2.092,2.092,0,0,0-1.568.6,2.224,2.224,0,0,0-.588,1.624V14Zm11.284,3.122a5.159,5.159,0,0,1-2.772-.728l.2-.924a5.638,5.638,0,0,0,1.246.546,4.844,4.844,0,0,0,1.33.168,2.045,2.045,0,0,0,1.533-.539,2.211,2.211,0,0,0,.525-1.6v-1.9l.154-.182a2.617,2.617,0,0,1-.525.973,2.4,2.4,0,0,1-.875.637,2.936,2.936,0,0,1-1.176.224,2.959,2.959,0,0,1-2.751-1.666,3.993,3.993,0,0,1-.4-1.834,3.993,3.993,0,0,1,.4-1.834,2.959,2.959,0,0,1,2.751-1.666,2.788,2.788,0,0,1,1.659.483,2.366,2.366,0,0,1,.917,1.351l-.168-.154V6.958h1.134v6.986a3.213,3.213,0,0,1-.805,2.38A3.235,3.235,0,0,1,281.932,17.122Zm-.14-4.284a2,2,0,0,0,1.6-.679,2.783,2.783,0,0,0,.581-1.869,2.783,2.783,0,0,0-.581-1.869,2,2,0,0,0-1.6-.679,2.056,2.056,0,0,0-1.631.679,2.739,2.739,0,0,0-.6,1.869,2.734,2.734,0,0,0,.6,1.876A2.066,2.066,0,0,0,281.792,12.838ZM1.092,39.024V30.932q0-.49-.021-.987T.98,28.958H2.058l.126,1.456-.112.21a2.349,2.349,0,0,1,.91-1.358,2.737,2.737,0,0,1,1.624-.476,2.914,2.914,0,0,1,1.631.462A3.118,3.118,0,0,1,7.343,30.54a4.4,4.4,0,0,1,.4,1.932,4.35,4.35,0,0,1-.4,1.925,3,3,0,0,1-1.1,1.26,3.008,3.008,0,0,1-1.638.441,2.737,2.737,0,0,1-1.624-.476,2.349,2.349,0,0,1-.91-1.358l.154-.14v4.9ZM4.4,35.16a1.95,1.95,0,0,0,1.6-.7,3.058,3.058,0,0,0,.574-1.988,3.148,3.148,0,0,0-.574-2.009,1.926,1.926,0,0,0-1.6-.721,1.941,1.941,0,0,0-1.61.7,3.137,3.137,0,0,0-.56,2,3.168,3.168,0,0,0,.56,2.009A1.933,1.933,0,0,0,4.4,35.16Zm5.1.84V30.932q0-.49-.021-.987t-.091-.987h1.078l.154,1.736-.154-.042a2.2,2.2,0,0,1,.847-1.393,2.442,2.442,0,0,1,1.463-.469,2.656,2.656,0,0,1,.343.021,1.9,1.9,0,0,1,.3.063l-.028,1.036a2.255,2.255,0,0,0-.742-.112,1.938,1.938,0,0,0-1.169.322,1.875,1.875,0,0,0-.644.819,2.732,2.732,0,0,0-.2,1.043V36Zm7.84.1a3.358,3.358,0,0,1-1.757-.448,3.027,3.027,0,0,1-1.162-1.267,4.742,4.742,0,0,1,0-3.871,3.018,3.018,0,0,1,1.162-1.274,3.669,3.669,0,0,1,3.514,0,3.018,3.018,0,0,1,1.162,1.274,4.742,4.742,0,0,1,0,3.871,3.027,3.027,0,0,1-1.162,1.267A3.358,3.358,0,0,1,17.332,36.1Zm0-.938a1.954,1.954,0,0,0,1.6-.693,3.129,3.129,0,0,0,.567-2.023,3.083,3.083,0,0,0-.574-2,1.95,1.95,0,0,0-1.6-.7,1.97,1.97,0,0,0-1.6.7,3.056,3.056,0,0,0-.581,2,3.129,3.129,0,0,0,.567,2.023A1.97,1.97,0,0,0,17.332,35.16Zm11.3.84H27.51V34.11l.168.154a2.349,2.349,0,0,1-.91,1.358,2.761,2.761,0,0,1-1.638.476,2.947,2.947,0,0,1-1.631-.455,3.014,3.014,0,0,1-1.1-1.288,4.509,4.509,0,0,1-.392-1.939,4.437,4.437,0,0,1,.385-1.918,2.945,2.945,0,0,1,1.092-1.26,3.007,3.007,0,0,1,1.645-.448,2.732,2.732,0,0,1,1.638.483,2.378,2.378,0,0,1,.91,1.351l-.182.14V25.7H28.63Zm-3.276-.84a1.922,1.922,0,0,0,1.589-.707,3.14,3.14,0,0,0,.567-2.009,3.142,3.142,0,0,0-.56-2,1.917,1.917,0,0,0-1.6-.707,1.986,1.986,0,0,0-1.617.7,3.008,3.008,0,0,0-.581,1.974,3.145,3.145,0,0,0,.581,2.023A1.961,1.961,0,0,0,25.354,35.16Zm7.966.938a2.437,2.437,0,0,1-1.9-.7,2.985,2.985,0,0,1-.637-2.072V28.958H31.92V33.3a2.09,2.09,0,0,0,.392,1.4,1.5,1.5,0,0,0,1.19.448,1.993,1.993,0,0,0,1.512-.6,2.236,2.236,0,0,0,.574-1.61V28.958h1.134V36H35.616V34.474l.168-.084a2.35,2.35,0,0,1-.945,1.274A2.717,2.717,0,0,1,33.32,36.1Zm8.54,0a3.451,3.451,0,0,1-1.792-.448A3.022,3.022,0,0,1,38.9,34.39a4.641,4.641,0,0,1,.007-3.843,3.1,3.1,0,0,1,1.19-1.3,3.471,3.471,0,0,1,1.82-.462,3.958,3.958,0,0,1,1.379.245,2.988,2.988,0,0,1,1.1.679l-.378.84A4.3,4.3,0,0,0,43,29.945a2.7,2.7,0,0,0-1.029-.2,2.124,2.124,0,0,0-1.687.714,2.97,2.97,0,0,0-.623,2.016,2.914,2.914,0,0,0,.616,1.988,2.14,2.14,0,0,0,1.694.7,2.714,2.714,0,0,0,1.022-.2,4.243,4.243,0,0,0,1.022-.609l.378.84a3.221,3.221,0,0,1-1.127.665A4.114,4.114,0,0,1,41.86,36.1Zm3-6.244v-.9h4.522v.9Zm4.494,5.138v.966a3.544,3.544,0,0,1-.469.1,3.426,3.426,0,0,1-.511.035,2.154,2.154,0,0,1-1.561-.56,2.232,2.232,0,0,1-.581-1.68V27.152l1.134-.406V33.7a1.9,1.9,0,0,0,.161.868.888.888,0,0,0,.441.427,1.6,1.6,0,0,0,.63.119,2.313,2.313,0,0,0,.378-.028A2.525,2.525,0,0,0,49.35,34.992ZM53.13,36.1a4.114,4.114,0,0,1-2.814-.91l.378-.84a3.993,3.993,0,0,0,1.155.637,4.078,4.078,0,0,0,1.323.2,2.205,2.205,0,0,0,1.211-.273.89.89,0,0,0,.413-.791.838.838,0,0,0-.28-.665,2.2,2.2,0,0,0-.924-.4l-1.19-.28a2.624,2.624,0,0,1-1.365-.7,1.679,1.679,0,0,1-.483-1.2,1.815,1.815,0,0,1,.336-1.085,2.23,2.23,0,0,1,.938-.735,3.513,3.513,0,0,1,1.428-.266,4.084,4.084,0,0,1,1.4.238,2.963,2.963,0,0,1,1.106.686l-.378.826a3.7,3.7,0,0,0-1.029-.623,3.021,3.021,0,0,0-1.1-.2,1.994,1.994,0,0,0-1.169.294.929.929,0,0,0-.413.8.913.913,0,0,0,.259.686,1.8,1.8,0,0,0,.833.392l1.19.294a2.806,2.806,0,0,1,1.463.693,1.687,1.687,0,0,1,.469,1.225,1.719,1.719,0,0,1-.742,1.456A3.333,3.333,0,0,1,53.13,36.1Zm7.224-6.244v-.9h4.522v.9Zm4.494,5.138v.966a3.544,3.544,0,0,1-.469.1,3.425,3.425,0,0,1-.511.035,2.154,2.154,0,0,1-1.561-.56,2.232,2.232,0,0,1-.581-1.68V27.152l1.134-.406V33.7a1.9,1.9,0,0,0,.161.868.888.888,0,0,0,.441.427,1.6,1.6,0,0,0,.63.119,2.313,2.313,0,0,0,.378-.028A2.524,2.524,0,0,0,64.848,34.992ZM69.16,36.1A3.358,3.358,0,0,1,67.4,35.65a3.027,3.027,0,0,1-1.162-1.267,4.742,4.742,0,0,1,0-3.871A3.018,3.018,0,0,1,67.4,29.238a3.669,3.669,0,0,1,3.514,0,3.018,3.018,0,0,1,1.162,1.274,4.742,4.742,0,0,1,0,3.871,3.027,3.027,0,0,1-1.162,1.267A3.358,3.358,0,0,1,69.16,36.1Zm0-.938a1.954,1.954,0,0,0,1.6-.693,3.129,3.129,0,0,0,.567-2.023,3.083,3.083,0,0,0-.574-2,1.95,1.95,0,0,0-1.6-.7,1.97,1.97,0,0,0-1.6.7,3.056,3.056,0,0,0-.581,2,3.129,3.129,0,0,0,.567,2.023A1.97,1.97,0,0,0,69.16,35.16Zm7.756-5.306v-.9h4.522v.9Zm4.494,5.138v.966a3.544,3.544,0,0,1-.469.1,3.425,3.425,0,0,1-.511.035,2.154,2.154,0,0,1-1.561-.56,2.232,2.232,0,0,1-.581-1.68V27.152l1.134-.406V33.7a1.9,1.9,0,0,0,.161.868.888.888,0,0,0,.441.427,1.6,1.6,0,0,0,.63.119,2.313,2.313,0,0,0,.378-.028A2.524,2.524,0,0,0,81.41,34.992ZM82.81,36V25.7h1.134v4.69l-.182.14a2.416,2.416,0,0,1,.98-1.3,2.861,2.861,0,0,1,1.582-.441q2.534,0,2.534,2.786V36H87.724V31.632a2.17,2.17,0,0,0-.392-1.435,1.541,1.541,0,0,0-1.232-.455,2.092,2.092,0,0,0-1.568.6,2.224,2.224,0,0,0-.588,1.624V36Zm13.958-.84a3.282,3.282,0,0,1-1.183.686,4.446,4.446,0,0,1-1.477.252,3.858,3.858,0,0,1-1.883-.434,2.95,2.95,0,0,1-1.218-1.253A4.635,4.635,0,0,1,91,30.54a3.159,3.159,0,0,1,1.169-1.288A3.226,3.226,0,0,1,93.9,28.79a3.015,3.015,0,0,1,1.61.413,2.662,2.662,0,0,1,1.029,1.183,4.366,4.366,0,0,1,.357,1.848v.21h-5.32V31.7H96.25l-.364.518a2.915,2.915,0,0,0-.483-1.89,1.773,1.773,0,0,0-1.491-.658,1.946,1.946,0,0,0-1.6.721,3.1,3.1,0,0,0-.581,2,3.077,3.077,0,0,0,.609,2.072,2.238,2.238,0,0,0,1.785.7,3.483,3.483,0,0,0,1.183-.2,3.706,3.706,0,0,0,1.085-.623Zm4.508-5.306v-.9H105.5v.9Zm4.424-3.122a2.661,2.661,0,0,0-.728-.112,1.509,1.509,0,0,0-.609.119.863.863,0,0,0-.427.427,1.94,1.94,0,0,0-.154.854V36h-1.134V27.88a2.278,2.278,0,0,1,.56-1.687,2.1,2.1,0,0,1,1.54-.553,4.07,4.07,0,0,1,.476.028,2.876,2.876,0,0,1,.476.1ZM106.988,36V30.932q0-.49-.021-.987t-.091-.987h1.078l.154,1.736-.154-.042a2.2,2.2,0,0,1,.847-1.393,2.442,2.442,0,0,1,1.463-.469,2.656,2.656,0,0,1,.343.021,1.9,1.9,0,0,1,.3.063l-.028,1.036a2.255,2.255,0,0,0-.742-.112,1.938,1.938,0,0,0-1.169.322,1.875,1.875,0,0,0-.644.819,2.732,2.732,0,0,0-.2,1.043V36Zm5.068,0V28.958h1.134V36Zm-.112-10.024h1.386v1.288h-1.386ZM121.59,36h-1.12V34.11l.168.154a2.349,2.349,0,0,1-.91,1.358,2.761,2.761,0,0,1-1.638.476,2.947,2.947,0,0,1-1.631-.455,3.014,3.014,0,0,1-1.1-1.288,4.509,4.509,0,0,1-.392-1.939,4.437,4.437,0,0,1,.385-1.918,2.945,2.945,0,0,1,1.092-1.26,3.007,3.007,0,0,1,1.645-.448,2.732,2.732,0,0,1,1.638.483,2.378,2.378,0,0,1,.91,1.351l-.182.14V25.7h1.134Zm-3.276-.84a1.922,1.922,0,0,0,1.589-.707,3.14,3.14,0,0,0,.567-2.009,3.142,3.142,0,0,0-.56-2,1.917,1.917,0,0,0-1.6-.707,1.986,1.986,0,0,0-1.617.7,3.008,3.008,0,0,0-.581,1.974,3.145,3.145,0,0,0,.581,2.023A1.961,1.961,0,0,0,118.314,35.16Zm8.568,3.962a5.159,5.159,0,0,1-2.772-.728l.2-.924a5.637,5.637,0,0,0,1.246.546,4.843,4.843,0,0,0,1.33.168,2.045,2.045,0,0,0,1.533-.539,2.211,2.211,0,0,0,.525-1.6v-1.9l.154-.182a2.617,2.617,0,0,1-.525.973,2.4,2.4,0,0,1-.875.637,2.936,2.936,0,0,1-1.176.224,2.959,2.959,0,0,1-2.751-1.666,4.414,4.414,0,0,1,0-3.668,2.959,2.959,0,0,1,2.751-1.666,2.788,2.788,0,0,1,1.659.483,2.366,2.366,0,0,1,.917,1.351l-.168-.154V28.958h1.134v6.986a2.824,2.824,0,0,1-3.178,3.178Zm-.14-4.284a2,2,0,0,0,1.6-.679,3.3,3.3,0,0,0,0-3.738,2,2,0,0,0-1.6-.679,2.056,2.056,0,0,0-1.631.679,2.739,2.739,0,0,0-.6,1.869,2.734,2.734,0,0,0,.6,1.876A2.066,2.066,0,0,0,126.742,34.838Zm11.27.322a3.282,3.282,0,0,1-1.183.686,4.446,4.446,0,0,1-1.477.252,3.858,3.858,0,0,1-1.883-.434,2.95,2.95,0,0,1-1.218-1.253,4.635,4.635,0,0,1-.007-3.871,3.159,3.159,0,0,1,1.169-1.288,3.226,3.226,0,0,1,1.729-.462,3.016,3.016,0,0,1,1.61.413,2.662,2.662,0,0,1,1.029,1.183,4.366,4.366,0,0,1,.357,1.848v.21h-5.32V31.7h4.676l-.364.518a2.915,2.915,0,0,0-.483-1.89,1.773,1.773,0,0,0-1.491-.658,1.946,1.946,0,0,0-1.6.721,3.1,3.1,0,0,0-.581,2,3.077,3.077,0,0,0,.609,2.072,2.238,2.238,0,0,0,1.785.7,3.483,3.483,0,0,0,1.183-.2,3.706,3.706,0,0,0,1.085-.623ZM4.4,80.112a7.424,7.424,0,0,1-1.442-.133,4.9,4.9,0,0,1-1.246-.42,4.568,4.568,0,0,1-1.036-.707l.434-.882a4.932,4.932,0,0,0,1.519.9,5.424,5.424,0,0,0,1.785.266,3.145,3.145,0,0,0,1.848-.469,1.53,1.53,0,0,0,.658-1.323,1.1,1.1,0,0,0-.329-.833,2.35,2.35,0,0,0-.9-.5q-.567-.189-1.281-.357t-1.358-.357a5.026,5.026,0,0,1-1.141-.511,2.27,2.27,0,0,1-.777-.784,2.315,2.315,0,0,1-.28-1.19A2.59,2.59,0,0,1,1.3,71.3a2.95,2.95,0,0,1,1.26-1.015A4.657,4.657,0,0,1,4.48,69.92a5.774,5.774,0,0,1,1.316.147,4.978,4.978,0,0,1,1.169.427,4.069,4.069,0,0,1,.959.686l-.448.882a4.73,4.73,0,0,0-1.414-.882A4.37,4.37,0,0,0,4.48,70.9a2.99,2.99,0,0,0-1.82.49A1.612,1.612,0,0,0,2,72.762a1.291,1.291,0,0,0,.294.882,2.037,2.037,0,0,0,.826.539,10.324,10.324,0,0,0,1.218.371q.728.168,1.4.364a5.984,5.984,0,0,1,1.2.483,2.339,2.339,0,0,1,.833.742A2.017,2.017,0,0,1,8.078,77.3a2.494,2.494,0,0,1-.448,1.484,2.907,2.907,0,0,1-1.274.98A5,5,0,0,1,4.4,80.112ZM9.814,80V69.7h1.134v4.69l-.182.14a2.416,2.416,0,0,1,.98-1.295,2.861,2.861,0,0,1,1.582-.441q2.534,0,2.534,2.786V80H14.728V75.632a2.17,2.17,0,0,0-.392-1.435,1.541,1.541,0,0,0-1.232-.455,2.092,2.092,0,0,0-1.568.6,2.224,2.224,0,0,0-.588,1.624V80Zm11.1.1a3.358,3.358,0,0,1-1.757-.448A3.027,3.027,0,0,1,18,78.383a4.742,4.742,0,0,1,0-3.871,3.018,3.018,0,0,1,1.162-1.274,3.669,3.669,0,0,1,3.514,0,3.018,3.018,0,0,1,1.162,1.274,4.742,4.742,0,0,1,0,3.871,3.027,3.027,0,0,1-1.162,1.267A3.358,3.358,0,0,1,20.916,80.1Zm0-.938a1.954,1.954,0,0,0,1.6-.693,3.129,3.129,0,0,0,.567-2.023,3.083,3.083,0,0,0-.574-2,1.95,1.95,0,0,0-1.6-.7,1.97,1.97,0,0,0-1.6.7,3.056,3.056,0,0,0-.581,2,3.129,3.129,0,0,0,.567,2.023A1.97,1.97,0,0,0,20.916,79.16Zm5.1,3.864V74.932q0-.49-.021-.987t-.091-.987h1.078l.126,1.456-.112.21a2.349,2.349,0,0,1,.91-1.358,2.737,2.737,0,0,1,1.624-.476,2.914,2.914,0,0,1,1.631.462,3.118,3.118,0,0,1,1.106,1.288,4.4,4.4,0,0,1,.4,1.932,4.35,4.35,0,0,1-.4,1.925,2.894,2.894,0,0,1-2.737,1.7,2.737,2.737,0,0,1-1.624-.476,2.349,2.349,0,0,1-.91-1.358l.154-.14v4.9Zm3.3-3.864a1.95,1.95,0,0,0,1.6-.7,3.058,3.058,0,0,0,.574-1.988,3.148,3.148,0,0,0-.574-2.009,2.164,2.164,0,0,0-3.206-.021,3.871,3.871,0,0,0,0,4.011A1.933,1.933,0,0,0,29.316,79.16Zm5.1,3.864V74.932q0-.49-.021-.987t-.091-.987h1.078l.126,1.456-.112.21a2.349,2.349,0,0,1,.91-1.358,2.737,2.737,0,0,1,1.624-.476,2.914,2.914,0,0,1,1.631.462,3.118,3.118,0,0,1,1.106,1.288,4.4,4.4,0,0,1,.4,1.932,4.35,4.35,0,0,1-.4,1.925,2.894,2.894,0,0,1-2.737,1.7,2.737,2.737,0,0,1-1.624-.476,2.349,2.349,0,0,1-.91-1.358l.154-.14v4.9Zm3.3-3.864a1.95,1.95,0,0,0,1.6-.7,3.058,3.058,0,0,0,.574-1.988,3.148,3.148,0,0,0-.574-2.009,2.164,2.164,0,0,0-3.206-.021,3.871,3.871,0,0,0,0,4.011A1.933,1.933,0,0,0,37.716,79.16Zm5.1.84V72.958h1.134V80ZM42.7,69.976h1.386v1.288H42.7ZM46.144,80V74.932q0-.49-.021-.987t-.091-.987H47.11l.126,1.456-.14.112a2.416,2.416,0,0,1,.98-1.295,2.861,2.861,0,0,1,1.582-.441q2.534,0,2.534,2.786V80H51.058V75.632a2.17,2.17,0,0,0-.392-1.435,1.541,1.541,0,0,0-1.232-.455,2.092,2.092,0,0,0-1.568.6,2.224,2.224,0,0,0-.588,1.624V80Zm11.284,3.122a5.159,5.159,0,0,1-2.772-.728l.2-.924a5.638,5.638,0,0,0,1.246.546,4.843,4.843,0,0,0,1.33.168,2.045,2.045,0,0,0,1.533-.539,2.211,2.211,0,0,0,.525-1.6v-1.9l.154-.182a2.617,2.617,0,0,1-.525.973,2.4,2.4,0,0,1-.875.637,2.936,2.936,0,0,1-1.176.224,2.959,2.959,0,0,1-2.751-1.666,4.414,4.414,0,0,1,0-3.668,2.959,2.959,0,0,1,2.751-1.666,2.788,2.788,0,0,1,1.659.483,2.366,2.366,0,0,1,.917,1.351l-.168-.154V72.958h1.134v6.986a2.824,2.824,0,0,1-3.178,3.178Zm-.14-4.284a2,2,0,0,0,1.6-.679,3.3,3.3,0,0,0,0-3.738,2,2,0,0,0-1.6-.679,2.056,2.056,0,0,0-1.631.679,3.244,3.244,0,0,0,0,3.745A2.067,2.067,0,0,0,57.288,78.838ZM66.444,80V69.7h1.134V80Zm3.332,0V72.958H70.91V80Zm-.112-10.024H71.05v1.288H69.664ZM75.488,80.1a4.114,4.114,0,0,1-2.814-.91l.378-.84a3.993,3.993,0,0,0,1.155.637,4.078,4.078,0,0,0,1.323.2,2.205,2.205,0,0,0,1.211-.273.89.89,0,0,0,.413-.791.838.838,0,0,0-.28-.665,2.2,2.2,0,0,0-.924-.4l-1.19-.28a2.625,2.625,0,0,1-1.365-.7,1.679,1.679,0,0,1-.483-1.2,1.815,1.815,0,0,1,.336-1.085,2.23,2.23,0,0,1,.938-.735,3.513,3.513,0,0,1,1.428-.266,4.084,4.084,0,0,1,1.4.238,2.963,2.963,0,0,1,1.106.686l-.378.826a3.7,3.7,0,0,0-1.029-.623,3.021,3.021,0,0,0-1.1-.2,1.994,1.994,0,0,0-1.169.294.929.929,0,0,0-.413.8.913.913,0,0,0,.259.686,1.8,1.8,0,0,0,.833.392l1.19.294a2.806,2.806,0,0,1,1.463.693,1.686,1.686,0,0,1,.469,1.225,1.719,1.719,0,0,1-.742,1.456A3.333,3.333,0,0,1,75.488,80.1Zm3.5-6.244v-.9H83.51v.9Zm4.494,5.138v.966a3.544,3.544,0,0,1-.469.105,3.426,3.426,0,0,1-.511.035,2.154,2.154,0,0,1-1.561-.56,2.232,2.232,0,0,1-.581-1.68V71.152l1.134-.406V77.7a1.9,1.9,0,0,0,.161.868A.888.888,0,0,0,82.1,79a1.6,1.6,0,0,0,.63.119,2.312,2.312,0,0,0,.378-.028A2.524,2.524,0,0,0,83.482,78.992Zm3.78,1.106a4.114,4.114,0,0,1-2.814-.91l.378-.84a3.993,3.993,0,0,0,1.155.637,4.078,4.078,0,0,0,1.323.2,2.205,2.205,0,0,0,1.211-.273.89.89,0,0,0,.413-.791.838.838,0,0,0-.28-.665,2.2,2.2,0,0,0-.924-.4l-1.19-.28a2.625,2.625,0,0,1-1.365-.7,1.679,1.679,0,0,1-.483-1.2,1.815,1.815,0,0,1,.336-1.085,2.23,2.23,0,0,1,.938-.735,3.513,3.513,0,0,1,1.428-.266,4.084,4.084,0,0,1,1.4.238,2.963,2.963,0,0,1,1.106.686l-.378.826a3.7,3.7,0,0,0-1.029-.623,3.021,3.021,0,0,0-1.1-.2,1.994,1.994,0,0,0-1.169.294.929.929,0,0,0-.413.8.913.913,0,0,0,.259.686,1.8,1.8,0,0,0,.833.392l1.19.294a2.806,2.806,0,0,1,1.463.693A1.686,1.686,0,0,1,90.02,78.1a1.719,1.719,0,0,1-.742,1.456A3.333,3.333,0,0,1,87.262,80.1Zm11.172,0a3.451,3.451,0,0,1-1.792-.448,3.022,3.022,0,0,1-1.169-1.26,4.641,4.641,0,0,1,.007-3.843,3.1,3.1,0,0,1,1.19-1.295,3.471,3.471,0,0,1,1.82-.462,3.958,3.958,0,0,1,1.379.245,2.988,2.988,0,0,1,1.1.679l-.378.84a4.3,4.3,0,0,0-1.015-.609,2.7,2.7,0,0,0-1.029-.2,2.124,2.124,0,0,0-1.687.714,2.97,2.97,0,0,0-.623,2.016,2.914,2.914,0,0,0,.616,1.988,2.14,2.14,0,0,0,1.694.7,2.714,2.714,0,0,0,1.022-.2,4.243,4.243,0,0,0,1.022-.609l.378.84a3.221,3.221,0,0,1-1.127.665A4.114,4.114,0,0,1,98.434,80.1Zm6.678,0a3.043,3.043,0,0,1-1.645-.441,2.892,2.892,0,0,1-1.092-1.26,4.981,4.981,0,0,1,.007-3.857,3.07,3.07,0,0,1,1.1-1.288,2.914,2.914,0,0,1,1.631-.462,2.761,2.761,0,0,1,1.638.476,2.349,2.349,0,0,1,.91,1.358l-.168.112V72.958h1.12V80h-1.12V78.18l.168.084a2.349,2.349,0,0,1-.91,1.358A2.761,2.761,0,0,1,105.112,80.1Zm.224-.938a1.917,1.917,0,0,0,1.6-.707,3.168,3.168,0,0,0,.56-2.009,3.109,3.109,0,0,0-.567-2,1.93,1.93,0,0,0-1.589-.7,1.961,1.961,0,0,0-1.617.721,3.121,3.121,0,0,0-.581,2.009,3.032,3.032,0,0,0,.581,1.988A1.986,1.986,0,0,0,105.336,79.16Zm5.474.84V74.932q0-.49-.021-.987t-.091-.987h1.078l.126,1.456-.14.112a2.416,2.416,0,0,1,.98-1.295,2.861,2.861,0,0,1,1.582-.441q2.534,0,2.534,2.786V80h-1.134V75.632a2.17,2.17,0,0,0-.392-1.435,1.541,1.541,0,0,0-1.232-.455,2.092,2.092,0,0,0-1.568.6,2.224,2.224,0,0,0-.588,1.624V80Zm11.844,0V69.7h1.134v5.068l-.154-.14a2.378,2.378,0,0,1,.91-1.351,2.709,2.709,0,0,1,1.624-.483,2.972,2.972,0,0,1,1.638.448,3.056,3.056,0,0,1,1.1,1.26,4.3,4.3,0,0,1,.4,1.918,4.441,4.441,0,0,1-.4,1.939,3.061,3.061,0,0,1-1.106,1.288,2.947,2.947,0,0,1-1.631.455,2.737,2.737,0,0,1-1.624-.476,2.349,2.349,0,0,1-.91-1.358l.154-.154V80Zm3.3-.84a1.926,1.926,0,0,0,1.6-.721,3.173,3.173,0,0,0,.574-2.023,3.034,3.034,0,0,0-.574-1.974,2.178,2.178,0,0,0-3.206.007,3.859,3.859,0,0,0,0,4A1.933,1.933,0,0,0,125.958,79.16Zm10.864,0a3.282,3.282,0,0,1-1.183.686,4.446,4.446,0,0,1-1.477.252,3.858,3.858,0,0,1-1.883-.434,2.95,2.95,0,0,1-1.218-1.253,4.635,4.635,0,0,1-.007-3.871,3.159,3.159,0,0,1,1.169-1.288,3.226,3.226,0,0,1,1.729-.462,3.015,3.015,0,0,1,1.61.413,2.662,2.662,0,0,1,1.029,1.183,4.366,4.366,0,0,1,.357,1.848v.21h-5.32V75.7H136.3l-.364.518a2.915,2.915,0,0,0-.483-1.89,1.773,1.773,0,0,0-1.491-.658,1.946,1.946,0,0,0-1.6.721,3.773,3.773,0,0,0,.028,4.067,2.238,2.238,0,0,0,1.785.7,3.483,3.483,0,0,0,1.183-.2,3.706,3.706,0,0,0,1.085-.623Zm7.882.938a4.114,4.114,0,0,1-2.814-.91l.378-.84a3.993,3.993,0,0,0,1.155.637,4.078,4.078,0,0,0,1.323.2,2.205,2.205,0,0,0,1.211-.273.89.89,0,0,0,.413-.791.838.838,0,0,0-.28-.665,2.2,2.2,0,0,0-.924-.4l-1.19-.28a2.625,2.625,0,0,1-1.365-.7,1.679,1.679,0,0,1-.483-1.2,1.815,1.815,0,0,1,.336-1.085,2.23,2.23,0,0,1,.938-.735,3.513,3.513,0,0,1,1.428-.266,4.084,4.084,0,0,1,1.4.238,2.963,2.963,0,0,1,1.106.686l-.378.826a3.7,3.7,0,0,0-1.029-.623,3.021,3.021,0,0,0-1.1-.2,1.994,1.994,0,0,0-1.169.294.929.929,0,0,0-.413.8.913.913,0,0,0,.259.686,1.8,1.8,0,0,0,.833.392l1.19.294a2.806,2.806,0,0,1,1.463.693,1.686,1.686,0,0,1,.469,1.225,1.719,1.719,0,0,1-.742,1.456A3.333,3.333,0,0,1,144.7,80.1Zm10.332-.938a3.282,3.282,0,0,1-1.183.686,4.446,4.446,0,0,1-1.477.252,3.858,3.858,0,0,1-1.883-.434,2.95,2.95,0,0,1-1.218-1.253,4.635,4.635,0,0,1-.007-3.871,3.159,3.159,0,0,1,1.169-1.288,3.226,3.226,0,0,1,1.729-.462,3.015,3.015,0,0,1,1.61.413,2.662,2.662,0,0,1,1.029,1.183,4.366,4.366,0,0,1,.357,1.848v.21h-5.32V75.7h4.676l-.364.518a2.915,2.915,0,0,0-.483-1.89,1.773,1.773,0,0,0-1.491-.658,1.946,1.946,0,0,0-1.6.721,3.773,3.773,0,0,0,.028,4.067,2.238,2.238,0,0,0,1.785.7,3.483,3.483,0,0,0,1.183-.2,3.706,3.706,0,0,0,1.085-.623Zm1.848.84V74.932q0-.49-.021-.987t-.091-.987h1.078l.126,1.456-.14.112a2.416,2.416,0,0,1,.98-1.295,2.861,2.861,0,0,1,1.582-.441q2.534,0,2.534,2.786V80H161.8V75.632a2.17,2.17,0,0,0-.392-1.435,1.541,1.541,0,0,0-1.232-.455,2.092,2.092,0,0,0-1.568.6,2.224,2.224,0,0,0-.588,1.624V80Zm14.392,0h-1.12V78.11l.168.154a2.349,2.349,0,0,1-.91,1.358,2.761,2.761,0,0,1-1.638.476,2.947,2.947,0,0,1-1.631-.455,3.014,3.014,0,0,1-1.1-1.288,4.509,4.509,0,0,1-.392-1.939,4.437,4.437,0,0,1,.385-1.918,2.945,2.945,0,0,1,1.092-1.26,3.007,3.007,0,0,1,1.645-.448,2.732,2.732,0,0,1,1.638.483,2.378,2.378,0,0,1,.91,1.351l-.182.14V69.7h1.134ZM168,79.16a1.922,1.922,0,0,0,1.589-.707,3.838,3.838,0,0,0,.007-4,1.917,1.917,0,0,0-1.6-.707,1.986,1.986,0,0,0-1.617.7,3.008,3.008,0,0,0-.581,1.974,3.145,3.145,0,0,0,.581,2.023A1.961,1.961,0,0,0,168,79.16Zm11.83.938a3.043,3.043,0,0,1-1.645-.441,2.892,2.892,0,0,1-1.092-1.26,4.981,4.981,0,0,1,.007-3.857,3.07,3.07,0,0,1,1.1-1.288,2.914,2.914,0,0,1,1.631-.462,2.761,2.761,0,0,1,1.638.476,2.349,2.349,0,0,1,.91,1.358l-.168.112V72.958h1.12V80h-1.12V78.18l.168.084a2.349,2.349,0,0,1-.91,1.358A2.761,2.761,0,0,1,179.83,80.1Zm.224-.938a1.917,1.917,0,0,0,1.6-.707,3.168,3.168,0,0,0,.56-2.009,3.109,3.109,0,0,0-.567-2,1.93,1.93,0,0,0-1.589-.7,1.961,1.961,0,0,0-1.617.721,3.121,3.121,0,0,0-.581,2.009,3.032,3.032,0,0,0,.581,1.988A1.986,1.986,0,0,0,180.054,79.16Zm7.854.938a4.114,4.114,0,0,1-2.814-.91l.378-.84a3.993,3.993,0,0,0,1.155.637,4.078,4.078,0,0,0,1.323.2,2.205,2.205,0,0,0,1.211-.273.89.89,0,0,0,.413-.791.838.838,0,0,0-.28-.665,2.2,2.2,0,0,0-.924-.4l-1.19-.28a2.625,2.625,0,0,1-1.365-.7,1.679,1.679,0,0,1-.483-1.2,1.815,1.815,0,0,1,.336-1.085,2.23,2.23,0,0,1,.938-.735,3.513,3.513,0,0,1,1.428-.266,4.084,4.084,0,0,1,1.4.238,2.963,2.963,0,0,1,1.106.686l-.378.826a3.7,3.7,0,0,0-1.029-.623,3.021,3.021,0,0,0-1.1-.2,1.994,1.994,0,0,0-1.169.294.929.929,0,0,0-.413.8.913.913,0,0,0,.259.686,1.8,1.8,0,0,0,.833.392l1.19.294a2.806,2.806,0,0,1,1.463.693,1.686,1.686,0,0,1,.469,1.225,1.719,1.719,0,0,1-.742,1.456A3.333,3.333,0,0,1,187.908,80.1Zm10.92,0a3.043,3.043,0,0,1-1.645-.441,2.892,2.892,0,0,1-1.092-1.26,4.981,4.981,0,0,1,.007-3.857,3.07,3.07,0,0,1,1.1-1.288,2.914,2.914,0,0,1,1.631-.462,2.761,2.761,0,0,1,1.638.476,2.349,2.349,0,0,1,.91,1.358l-.168.112V72.958h1.12V80h-1.12V78.18l.168.084a2.349,2.349,0,0,1-.91,1.358A2.761,2.761,0,0,1,198.828,80.1Zm.224-.938a1.917,1.917,0,0,0,1.6-.707,3.168,3.168,0,0,0,.56-2.009,3.109,3.109,0,0,0-.567-2,1.93,1.93,0,0,0-1.589-.7,1.961,1.961,0,0,0-1.617.721,3.121,3.121,0,0,0-.581,2.009,3.032,3.032,0,0,0,.581,1.988A1.986,1.986,0,0,0,199.052,79.16Zm8.134-5.306v-.9h4.522v.9Zm4.494,5.138v.966a3.543,3.543,0,0,1-.469.105,3.426,3.426,0,0,1-.511.035,2.154,2.154,0,0,1-1.561-.56,2.232,2.232,0,0,1-.581-1.68V71.152l1.134-.406V77.7a1.9,1.9,0,0,0,.161.868.888.888,0,0,0,.441.427,1.6,1.6,0,0,0,.63.119,2.313,2.313,0,0,0,.378-.028A2.525,2.525,0,0,0,211.68,78.992Zm7.168.168a3.282,3.282,0,0,1-1.183.686,4.446,4.446,0,0,1-1.477.252,3.858,3.858,0,0,1-1.883-.434,2.95,2.95,0,0,1-1.218-1.253,4.635,4.635,0,0,1-.007-3.871,3.159,3.159,0,0,1,1.169-1.288,3.226,3.226,0,0,1,1.729-.462,3.015,3.015,0,0,1,1.61.413,2.662,2.662,0,0,1,1.029,1.183,4.366,4.366,0,0,1,.357,1.848v.21h-5.32V75.7h4.676l-.364.518a2.915,2.915,0,0,0-.483-1.89,1.773,1.773,0,0,0-1.491-.658,1.946,1.946,0,0,0-1.6.721,3.773,3.773,0,0,0,.028,4.067,2.238,2.238,0,0,0,1.785.7,3.483,3.483,0,0,0,1.183-.2,3.706,3.706,0,0,0,1.085-.623Zm6.622.84-2.226-2.772-.658-.854-2.758-3.416H221.2l2.044,2.59.686.826,2.9,3.626Zm-4.424,0H219.66l2.926-3.626.658-.826,2.044-2.59h1.386l-2.744,3.416-.686.854Zm6.048-6.146v-.9h4.522v.9Zm4.494,5.138v.966a3.543,3.543,0,0,1-.469.105,3.426,3.426,0,0,1-.511.035,2.154,2.154,0,0,1-1.561-.56,2.232,2.232,0,0,1-.581-1.68V71.152l1.134-.406V77.7a1.9,1.9,0,0,0,.161.868A.888.888,0,0,0,230.2,79a1.6,1.6,0,0,0,.63.119,2.313,2.313,0,0,0,.378-.028A2.525,2.525,0,0,0,231.588,78.992ZM3.164,102l-3-7.028h1.19l2.548,6.2H3.57l2.576-6.2H7.28L4.242,102Zm5.362,0V94.958H9.66V102ZM8.414,91.976H9.8v1.288H8.414ZM14.56,102.1a3.043,3.043,0,0,1-1.645-.441,2.892,2.892,0,0,1-1.092-1.26,4.981,4.981,0,0,1,.007-3.857,3.07,3.07,0,0,1,1.1-1.288,2.914,2.914,0,0,1,1.631-.462,2.761,2.761,0,0,1,1.638.476,2.349,2.349,0,0,1,.91,1.358l-.168.112V94.958h1.12V102H16.94v-1.82l.168.084a2.349,2.349,0,0,1-.91,1.358A2.761,2.761,0,0,1,14.56,102.1Zm.224-.938a1.917,1.917,0,0,0,1.6-.707,3.168,3.168,0,0,0,.56-2.009,3.109,3.109,0,0,0-.567-2,1.93,1.93,0,0,0-1.589-.7,1.961,1.961,0,0,0-1.617.721,3.121,3.121,0,0,0-.581,2.009,3.032,3.032,0,0,0,.581,1.988A1.986,1.986,0,0,0,14.784,101.16Zm9.128.84V96.932q0-.49-.021-.987t-.091-.987h1.078L25,96.414l-.14.1a2.36,2.36,0,0,1,.875-1.274,2.463,2.463,0,0,1,1.477-.448,2.311,2.311,0,0,1,1.589.5,2.468,2.468,0,0,1,.721,1.54l-.336-.182a2.393,2.393,0,0,1,.9-1.358,2.66,2.66,0,0,1,1.631-.5,2.167,2.167,0,0,1,1.75.693,3.173,3.173,0,0,1,.588,2.093V102H32.928V97.632a2.36,2.36,0,0,0-.35-1.435,1.307,1.307,0,0,0-1.106-.455,1.731,1.731,0,0,0-1.393.6,2.45,2.45,0,0,0-.511,1.638V102H28.434V97.632a2.325,2.325,0,0,0-.357-1.435,1.327,1.327,0,0,0-1.113-.455,1.747,1.747,0,0,0-1.407.6,2.45,2.45,0,0,0-.511,1.638V102Zm18.074-.84a3.282,3.282,0,0,1-1.183.686,4.446,4.446,0,0,1-1.477.252,3.858,3.858,0,0,1-1.883-.434,2.95,2.95,0,0,1-1.218-1.253,4.635,4.635,0,0,1-.007-3.871,3.159,3.159,0,0,1,1.169-1.288,3.226,3.226,0,0,1,1.729-.462,3.015,3.015,0,0,1,1.61.413,2.662,2.662,0,0,1,1.029,1.183,4.366,4.366,0,0,1,.357,1.848v.21h-5.32V97.7h4.676l-.364.518a2.915,2.915,0,0,0-.483-1.89,1.773,1.773,0,0,0-1.491-.658,1.946,1.946,0,0,0-1.6.721,3.773,3.773,0,0,0,.028,4.067,2.238,2.238,0,0,0,1.785.7,3.483,3.483,0,0,0,1.183-.2,3.706,3.706,0,0,0,1.085-.623Zm4.228.938a4.114,4.114,0,0,1-2.814-.91l.378-.84a3.993,3.993,0,0,0,1.155.637,4.078,4.078,0,0,0,1.323.2,2.205,2.205,0,0,0,1.211-.273.89.89,0,0,0,.413-.791.838.838,0,0,0-.28-.665,2.2,2.2,0,0,0-.924-.4l-1.19-.28a2.624,2.624,0,0,1-1.365-.7,1.679,1.679,0,0,1-.483-1.2,1.815,1.815,0,0,1,.336-1.085,2.23,2.23,0,0,1,.938-.735,3.513,3.513,0,0,1,1.428-.266,4.084,4.084,0,0,1,1.4.238,2.963,2.963,0,0,1,1.106.686l-.378.826a3.7,3.7,0,0,0-1.029-.623,3.021,3.021,0,0,0-1.1-.2,1.994,1.994,0,0,0-1.169.294.929.929,0,0,0-.413.8.913.913,0,0,0,.259.686,1.8,1.8,0,0,0,.833.392l1.19.294a2.806,2.806,0,0,1,1.463.693,1.686,1.686,0,0,1,.469,1.225,1.719,1.719,0,0,1-.742,1.456A3.333,3.333,0,0,1,46.214,102.1Zm6.944,0a4.114,4.114,0,0,1-2.814-.91l.378-.84a3.993,3.993,0,0,0,1.155.637,4.078,4.078,0,0,0,1.323.2,2.205,2.205,0,0,0,1.211-.273.89.89,0,0,0,.413-.791.838.838,0,0,0-.28-.665,2.2,2.2,0,0,0-.924-.4l-1.19-.28a2.624,2.624,0,0,1-1.365-.7,1.679,1.679,0,0,1-.483-1.2,1.815,1.815,0,0,1,.336-1.085,2.23,2.23,0,0,1,.938-.735,3.513,3.513,0,0,1,1.428-.266,4.084,4.084,0,0,1,1.4.238,2.963,2.963,0,0,1,1.106.686l-.378.826a3.7,3.7,0,0,0-1.029-.623,3.021,3.021,0,0,0-1.1-.2,1.994,1.994,0,0,0-1.169.294.929.929,0,0,0-.413.8.913.913,0,0,0,.259.686,1.8,1.8,0,0,0,.833.392l1.19.294a2.806,2.806,0,0,1,1.463.693,1.686,1.686,0,0,1,.469,1.225,1.719,1.719,0,0,1-.742,1.456A3.333,3.333,0,0,1,53.158,102.1Zm7.266,0a3.043,3.043,0,0,1-1.645-.441,2.892,2.892,0,0,1-1.092-1.26,4.981,4.981,0,0,1,.007-3.857,3.07,3.07,0,0,1,1.1-1.288,2.914,2.914,0,0,1,1.631-.462,2.761,2.761,0,0,1,1.638.476,2.349,2.349,0,0,1,.91,1.358l-.168.112V94.958h1.12V102H62.8v-1.82l.168.084a2.349,2.349,0,0,1-.91,1.358A2.761,2.761,0,0,1,60.424,102.1Zm.224-.938a1.917,1.917,0,0,0,1.6-.707,3.168,3.168,0,0,0,.56-2.009,3.109,3.109,0,0,0-.567-2,1.93,1.93,0,0,0-1.589-.7,1.961,1.961,0,0,0-1.617.721,3.121,3.121,0,0,0-.581,2.009,3.032,3.032,0,0,0,.581,1.988A1.986,1.986,0,0,0,60.648,101.16Zm8.568,3.962a5.159,5.159,0,0,1-2.772-.728l.2-.924a5.637,5.637,0,0,0,1.246.546,4.843,4.843,0,0,0,1.33.168,2.045,2.045,0,0,0,1.533-.539,2.211,2.211,0,0,0,.525-1.6v-1.9l.154-.182a2.617,2.617,0,0,1-.525.973,2.4,2.4,0,0,1-.875.637,2.936,2.936,0,0,1-1.176.224,2.959,2.959,0,0,1-2.751-1.666,4.414,4.414,0,0,1,0-3.668,2.959,2.959,0,0,1,2.751-1.666,2.788,2.788,0,0,1,1.659.483,2.366,2.366,0,0,1,.917,1.351l-.168-.154V94.958h1.134v6.986a2.824,2.824,0,0,1-3.178,3.178Zm-.14-4.284a2,2,0,0,0,1.6-.679,3.3,3.3,0,0,0,0-3.738,2,2,0,0,0-1.6-.679,2.056,2.056,0,0,0-1.631.679,3.244,3.244,0,0,0,0,3.745A2.067,2.067,0,0,0,69.076,100.838Zm11.27.322a3.282,3.282,0,0,1-1.183.686,4.446,4.446,0,0,1-1.477.252,3.858,3.858,0,0,1-1.883-.434,2.95,2.95,0,0,1-1.218-1.253,4.635,4.635,0,0,1-.007-3.871,3.159,3.159,0,0,1,1.169-1.288,3.226,3.226,0,0,1,1.729-.462,3.015,3.015,0,0,1,1.61.413,2.662,2.662,0,0,1,1.029,1.183,4.366,4.366,0,0,1,.357,1.848v.21h-5.32V97.7h4.676l-.364.518a2.915,2.915,0,0,0-.483-1.89,1.773,1.773,0,0,0-1.491-.658,1.946,1.946,0,0,0-1.6.721,3.773,3.773,0,0,0,.028,4.067,2.238,2.238,0,0,0,1.785.7,3.483,3.483,0,0,0,1.183-.2,3.706,3.706,0,0,0,1.085-.623Zm8.414.938A3.358,3.358,0,0,1,87,101.65a3.027,3.027,0,0,1-1.162-1.267,4.742,4.742,0,0,1,0-3.871A3.018,3.018,0,0,1,87,95.238a3.669,3.669,0,0,1,3.514,0,3.018,3.018,0,0,1,1.162,1.274,4.742,4.742,0,0,1,0,3.871,3.027,3.027,0,0,1-1.162,1.267A3.358,3.358,0,0,1,88.76,102.1Zm0-.938a1.954,1.954,0,0,0,1.6-.693,3.129,3.129,0,0,0,.567-2.023,3.083,3.083,0,0,0-.574-2,1.95,1.95,0,0,0-1.6-.7,1.97,1.97,0,0,0-1.6.7,3.056,3.056,0,0,0-.581,2,3.129,3.129,0,0,0,.567,2.023A1.97,1.97,0,0,0,88.76,101.16Zm5.1.84V96.932q0-.49-.021-.987t-.091-.987h1.078l.154,1.736-.154-.042a2.2,2.2,0,0,1,.847-1.393,2.442,2.442,0,0,1,1.463-.469,2.655,2.655,0,0,1,.343.021,1.9,1.9,0,0,1,.3.063l-.028,1.036a2.255,2.255,0,0,0-.742-.112,1.938,1.938,0,0,0-1.169.322,1.875,1.875,0,0,0-.644.819,2.732,2.732,0,0,0-.2,1.043V102Zm11.634.1a3.358,3.358,0,0,1-1.757-.448,3.027,3.027,0,0,1-1.162-1.267,4.742,4.742,0,0,1,0-3.871,3.018,3.018,0,0,1,1.162-1.274,3.669,3.669,0,0,1,3.514,0,3.018,3.018,0,0,1,1.162,1.274,4.742,4.742,0,0,1,0,3.871,3.027,3.027,0,0,1-1.162,1.267A3.358,3.358,0,0,1,105.49,102.1Zm0-.938a1.954,1.954,0,0,0,1.6-.693,3.129,3.129,0,0,0,.567-2.023,3.083,3.083,0,0,0-.574-2,1.95,1.95,0,0,0-1.6-.7,1.97,1.97,0,0,0-1.6.7,3.056,3.056,0,0,0-.581,2,3.129,3.129,0,0,0,.567,2.023A1.97,1.97,0,0,0,105.49,101.16Zm4.088-5.306v-.9H114.1v.9Zm4.494,5.138v.966a3.544,3.544,0,0,1-.469.105,3.426,3.426,0,0,1-.511.035,2.154,2.154,0,0,1-1.561-.56,2.232,2.232,0,0,1-.581-1.68V93.152l1.134-.406V99.7a1.9,1.9,0,0,0,.161.868.888.888,0,0,0,.441.427,1.6,1.6,0,0,0,.63.119,2.312,2.312,0,0,0,.378-.028A2.524,2.524,0,0,0,114.072,100.992Zm1.4,1.008V91.7h1.134v4.69l-.182.14a2.416,2.416,0,0,1,.98-1.295,2.861,2.861,0,0,1,1.582-.441q2.534,0,2.534,2.786V102h-1.134V97.632a2.17,2.17,0,0,0-.392-1.435,1.541,1.541,0,0,0-1.232-.455,2.092,2.092,0,0,0-1.568.6,2.224,2.224,0,0,0-.588,1.624V102Zm13.958-.84a3.282,3.282,0,0,1-1.183.686,4.446,4.446,0,0,1-1.477.252,3.858,3.858,0,0,1-1.883-.434,2.95,2.95,0,0,1-1.218-1.253,4.635,4.635,0,0,1-.007-3.871,3.159,3.159,0,0,1,1.169-1.288,3.226,3.226,0,0,1,1.729-.462,3.015,3.015,0,0,1,1.61.413,2.662,2.662,0,0,1,1.029,1.183,4.366,4.366,0,0,1,.357,1.848v.21h-5.32V97.7h4.676l-.364.518a2.915,2.915,0,0,0-.483-1.89,1.773,1.773,0,0,0-1.491-.658,1.946,1.946,0,0,0-1.6.721A3.773,3.773,0,0,0,125,100.46a2.238,2.238,0,0,0,1.785.7,3.483,3.483,0,0,0,1.183-.2,3.706,3.706,0,0,0,1.085-.623Zm1.848.84V96.932q0-.49-.021-.987t-.091-.987h1.078l.154,1.736-.154-.042a2.2,2.2,0,0,1,.847-1.393,2.442,2.442,0,0,1,1.463-.469,2.655,2.655,0,0,1,.343.021,1.9,1.9,0,0,1,.3.063l-.028,1.036a2.255,2.255,0,0,0-.742-.112,1.938,1.938,0,0,0-1.169.322,1.875,1.875,0,0,0-.644.819,2.732,2.732,0,0,0-.2,1.043V102Zm11.424.1a3.043,3.043,0,0,1-1.645-.441,2.892,2.892,0,0,1-1.092-1.26,4.981,4.981,0,0,1,.007-3.857,3.07,3.07,0,0,1,1.1-1.288,2.914,2.914,0,0,1,1.631-.462,2.761,2.761,0,0,1,1.638.476,2.349,2.349,0,0,1,.91,1.358l-.168.112V94.958h1.12V102h-1.12v-1.82l.168.084a2.349,2.349,0,0,1-.91,1.358A2.761,2.761,0,0,1,142.7,102.1Zm.224-.938a1.917,1.917,0,0,0,1.6-.707,3.168,3.168,0,0,0,.56-2.009,3.109,3.109,0,0,0-.567-2,1.93,1.93,0,0,0-1.589-.7,1.961,1.961,0,0,0-1.617.721,3.121,3.121,0,0,0-.581,2.009,3.032,3.032,0,0,0,.581,1.988A1.986,1.986,0,0,0,142.926,101.16Zm5.474,3.864V96.932q0-.49-.021-.987t-.091-.987h1.078l.126,1.456-.112.21a2.349,2.349,0,0,1,.91-1.358,2.737,2.737,0,0,1,1.624-.476,2.914,2.914,0,0,1,1.631.462,3.118,3.118,0,0,1,1.106,1.288,4.4,4.4,0,0,1,.4,1.932,4.35,4.35,0,0,1-.4,1.925,2.894,2.894,0,0,1-2.737,1.7,2.737,2.737,0,0,1-1.624-.476,2.349,2.349,0,0,1-.91-1.358l.154-.14v4.9Zm3.3-3.864a1.95,1.95,0,0,0,1.6-.7,3.058,3.058,0,0,0,.574-1.988,3.148,3.148,0,0,0-.574-2.009,2.164,2.164,0,0,0-3.206-.021,3.871,3.871,0,0,0,0,4.011A1.933,1.933,0,0,0,151.7,101.16Zm5.1,3.864V96.932q0-.49-.021-.987t-.091-.987h1.078l.126,1.456-.112.21a2.349,2.349,0,0,1,.91-1.358,2.737,2.737,0,0,1,1.624-.476,2.914,2.914,0,0,1,1.631.462,3.118,3.118,0,0,1,1.106,1.288,4.4,4.4,0,0,1,.4,1.932,4.35,4.35,0,0,1-.4,1.925,2.894,2.894,0,0,1-2.737,1.7,2.737,2.737,0,0,1-1.624-.476,2.349,2.349,0,0,1-.91-1.358l.154-.14v4.9Zm3.3-3.864a1.95,1.95,0,0,0,1.6-.7,3.058,3.058,0,0,0,.574-1.988,3.148,3.148,0,0,0-.574-2.009,2.164,2.164,0,0,0-3.206-.021,3.871,3.871,0,0,0,0,4.011A1.933,1.933,0,0,0,160.1,101.16Zm7.476.938a4.114,4.114,0,0,1-2.814-.91l.378-.84a3.993,3.993,0,0,0,1.155.637,4.078,4.078,0,0,0,1.323.2,2.205,2.205,0,0,0,1.211-.273.89.89,0,0,0,.413-.791.838.838,0,0,0-.28-.665,2.2,2.2,0,0,0-.924-.4l-1.19-.28a2.625,2.625,0,0,1-1.365-.7,1.679,1.679,0,0,1-.483-1.2,1.815,1.815,0,0,1,.336-1.085,2.23,2.23,0,0,1,.938-.735,3.513,3.513,0,0,1,1.428-.266,4.084,4.084,0,0,1,1.4.238,2.963,2.963,0,0,1,1.106.686l-.378.826a3.7,3.7,0,0,0-1.029-.623,3.021,3.021,0,0,0-1.1-.2,1.994,1.994,0,0,0-1.169.294.929.929,0,0,0-.413.8.913.913,0,0,0,.259.686,1.8,1.8,0,0,0,.833.392l1.19.294a2.806,2.806,0,0,1,1.463.693,1.686,1.686,0,0,1,.469,1.225,1.719,1.719,0,0,1-.742,1.456A3.333,3.333,0,0,1,167.58,102.1Zm4.3-1.54h1.442V102h-1.442ZM5.124,146.112A3.987,3.987,0,0,1,2.17,145.1a4.09,4.09,0,0,1-1.008-3v-6.062H2.3v6.16A3.049,3.049,0,0,0,3.01,144.4a2.818,2.818,0,0,0,2.114.735,2.763,2.763,0,0,0,2.086-.742,3.054,3.054,0,0,0,.714-2.2v-6.16H9.072v6.062a4.1,4.1,0,0,1-1.008,3A3.95,3.95,0,0,1,5.124,146.112Zm8.582-.014a4.114,4.114,0,0,1-2.814-.91l.378-.84a3.993,3.993,0,0,0,1.155.637,4.079,4.079,0,0,0,1.323.2,2.205,2.205,0,0,0,1.211-.273.89.89,0,0,0,.413-.791.838.838,0,0,0-.28-.665,2.2,2.2,0,0,0-.924-.4l-1.19-.28a2.624,2.624,0,0,1-1.365-.7,1.679,1.679,0,0,1-.483-1.2,1.815,1.815,0,0,1,.336-1.085,2.23,2.23,0,0,1,.938-.735,3.513,3.513,0,0,1,1.428-.266,4.084,4.084,0,0,1,1.4.238,2.963,2.963,0,0,1,1.106.686l-.378.826a3.7,3.7,0,0,0-1.029-.623,3.021,3.021,0,0,0-1.1-.2,1.994,1.994,0,0,0-1.169.294.929.929,0,0,0-.413.8.913.913,0,0,0,.259.686,1.8,1.8,0,0,0,.833.392l1.19.294a2.806,2.806,0,0,1,1.463.693,1.686,1.686,0,0,1,.469,1.225,1.719,1.719,0,0,1-.742,1.456A3.333,3.333,0,0,1,13.706,146.1Zm10.332-.938a3.282,3.282,0,0,1-1.183.686,4.446,4.446,0,0,1-1.477.252,3.858,3.858,0,0,1-1.883-.434,2.95,2.95,0,0,1-1.218-1.253,4.635,4.635,0,0,1-.007-3.871,3.159,3.159,0,0,1,1.169-1.288,3.226,3.226,0,0,1,1.729-.462,3.015,3.015,0,0,1,1.61.413,2.662,2.662,0,0,1,1.029,1.183,4.366,4.366,0,0,1,.357,1.848v.21h-5.32V141.7H23.52l-.364.518a2.915,2.915,0,0,0-.483-1.89,1.773,1.773,0,0,0-1.491-.658,1.946,1.946,0,0,0-1.6.721,3.773,3.773,0,0,0,.028,4.067,2.238,2.238,0,0,0,1.785.7,3.483,3.483,0,0,0,1.183-.2,3.706,3.706,0,0,0,1.085-.623Zm1.848.84v-5.068q0-.49-.021-.987t-.091-.987h1.078l.154,1.736-.154-.042a2.2,2.2,0,0,1,.847-1.393,2.442,2.442,0,0,1,1.463-.469,2.654,2.654,0,0,1,.343.021,1.9,1.9,0,0,1,.3.063l-.028,1.036a2.255,2.255,0,0,0-.742-.112,1.938,1.938,0,0,0-1.169.322,1.875,1.875,0,0,0-.644.819,2.732,2.732,0,0,0-.2,1.043V146Zm7.378.1a4.114,4.114,0,0,1-2.814-.91l.378-.84a3.993,3.993,0,0,0,1.155.637,4.079,4.079,0,0,0,1.323.2,2.205,2.205,0,0,0,1.211-.273.89.89,0,0,0,.413-.791.838.838,0,0,0-.28-.665,2.2,2.2,0,0,0-.924-.4l-1.19-.28a2.624,2.624,0,0,1-1.365-.7,1.679,1.679,0,0,1-.483-1.2,1.815,1.815,0,0,1,.336-1.085,2.23,2.23,0,0,1,.938-.735,3.513,3.513,0,0,1,1.428-.266,4.084,4.084,0,0,1,1.4.238,2.963,2.963,0,0,1,1.106.686l-.378.826a3.7,3.7,0,0,0-1.029-.623,3.021,3.021,0,0,0-1.1-.2,1.994,1.994,0,0,0-1.169.294.929.929,0,0,0-.413.8.913.913,0,0,0,.259.686,1.8,1.8,0,0,0,.833.392l1.19.294a2.806,2.806,0,0,1,1.463.693,1.686,1.686,0,0,1,.469,1.225,1.719,1.719,0,0,1-.742,1.456A3.333,3.333,0,0,1,33.264,146.1Zm10.108-.1-2.6-7.042h1.19l2.17,6.2h-.364l2.24-6.2H47l2.212,6.2h-.364l2.212-6.2h1.12L49.574,146H48.482l-2.324-6.342h.616L44.464,146Zm10.276,0v-7.042h1.134V146Zm-.112-10.024h1.386v1.288H53.536Zm2.45,3.878v-.9h4.522v.9Zm4.494,5.138v.966a3.541,3.541,0,0,1-.469.105,3.426,3.426,0,0,1-.511.035,2.154,2.154,0,0,1-1.561-.56,2.232,2.232,0,0,1-.581-1.68v-6.706l1.134-.406V143.7a1.9,1.9,0,0,0,.161.868.888.888,0,0,0,.441.427,1.6,1.6,0,0,0,.63.119,2.313,2.313,0,0,0,.378-.028A2.525,2.525,0,0,0,60.48,144.992ZM61.88,146V135.7h1.134v4.69l-.182.14a2.416,2.416,0,0,1,.98-1.295,2.861,2.861,0,0,1,1.582-.441q2.534,0,2.534,2.786V146H66.794v-4.368A2.17,2.17,0,0,0,66.4,140.2a1.541,1.541,0,0,0-1.232-.455,2.092,2.092,0,0,0-1.568.6,2.224,2.224,0,0,0-.588,1.624V146Zm11.844,0V135.7h1.134V146Zm3.332,0v-7.042H78.19V146Zm-.112-10.024H78.33v1.288H76.944ZM80.388,146v-5.068q0-.49-.021-.987t-.091-.987h1.078l.126,1.456-.14.112a2.416,2.416,0,0,1,.98-1.295,2.861,2.861,0,0,1,1.582-.441q2.534,0,2.534,2.786V146H85.3v-4.368a2.17,2.17,0,0,0-.392-1.435,1.541,1.541,0,0,0-1.232-.455,2.092,2.092,0,0,0-1.568.6,2.224,2.224,0,0,0-.588,1.624V146Zm12.936,0-3.836-3.6,3.542-3.43h1.442l-3.92,3.752.042-.714L94.808,146Zm-4.746,0V135.7h1.134V146Zm12.852-.84a3.282,3.282,0,0,1-1.183.686,4.446,4.446,0,0,1-1.477.252,3.858,3.858,0,0,1-1.883-.434,2.95,2.95,0,0,1-1.218-1.253,4.635,4.635,0,0,1-.007-3.871,3.159,3.159,0,0,1,1.169-1.288,3.226,3.226,0,0,1,1.729-.462,3.015,3.015,0,0,1,1.61.413,2.662,2.662,0,0,1,1.029,1.183,4.366,4.366,0,0,1,.357,1.848v.21h-5.32V141.7h4.676l-.364.518a2.915,2.915,0,0,0-.483-1.89,1.773,1.773,0,0,0-1.491-.658,1.946,1.946,0,0,0-1.6.721A3.773,3.773,0,0,0,97,144.46a2.238,2.238,0,0,0,1.785.7,3.483,3.483,0,0,0,1.183-.2,3.706,3.706,0,0,0,1.085-.623Zm8.05.84h-1.12v-1.89l.168.154a2.349,2.349,0,0,1-.91,1.358,2.761,2.761,0,0,1-1.638.476,2.947,2.947,0,0,1-1.631-.455,3.014,3.014,0,0,1-1.1-1.288,4.509,4.509,0,0,1-.392-1.939,4.437,4.437,0,0,1,.385-1.918,2.945,2.945,0,0,1,1.092-1.26,3.007,3.007,0,0,1,1.645-.448,2.732,2.732,0,0,1,1.638.483,2.378,2.378,0,0,1,.91,1.351l-.182.14V135.7h1.134Zm-3.276-.84a1.922,1.922,0,0,0,1.589-.707,3.838,3.838,0,0,0,.007-4,1.917,1.917,0,0,0-1.6-.707,1.986,1.986,0,0,0-1.617.7,3.008,3.008,0,0,0-.581,1.974,3.145,3.145,0,0,0,.581,2.023A1.961,1.961,0,0,0,106.2,145.16Zm9.128,3.864v-8.092q0-.49-.021-.987t-.091-.987H116.3l.126,1.456-.112.21a2.349,2.349,0,0,1,.91-1.358,2.737,2.737,0,0,1,1.624-.476,2.914,2.914,0,0,1,1.631.462,3.118,3.118,0,0,1,1.106,1.288,4.4,4.4,0,0,1,.4,1.932,4.35,4.35,0,0,1-.4,1.925,2.894,2.894,0,0,1-2.737,1.7,2.737,2.737,0,0,1-1.624-.476,2.349,2.349,0,0,1-.91-1.358l.154-.14v4.9Zm3.3-3.864a1.95,1.95,0,0,0,1.6-.7,3.058,3.058,0,0,0,.574-1.988,3.148,3.148,0,0,0-.574-2.009,2.164,2.164,0,0,0-3.206-.021,3.871,3.871,0,0,0,0,4.011A1.933,1.933,0,0,0,118.636,145.16Zm5.1.84v-5.068q0-.49-.021-.987t-.091-.987H124.7l.154,1.736-.154-.042a2.2,2.2,0,0,1,.847-1.393,2.442,2.442,0,0,1,1.463-.469,2.654,2.654,0,0,1,.343.021,1.9,1.9,0,0,1,.3.063l-.028,1.036a2.255,2.255,0,0,0-.742-.112,1.938,1.938,0,0,0-1.169.322,1.875,1.875,0,0,0-.644.819,2.732,2.732,0,0,0-.2,1.043V146Zm7.84.1a3.358,3.358,0,0,1-1.757-.448,3.027,3.027,0,0,1-1.162-1.267,4.742,4.742,0,0,1,0-3.871,3.018,3.018,0,0,1,1.162-1.274,3.669,3.669,0,0,1,3.514,0,3.018,3.018,0,0,1,1.162,1.274,4.742,4.742,0,0,1,0,3.871,3.027,3.027,0,0,1-1.162,1.267A3.358,3.358,0,0,1,131.572,146.1Zm0-.938a1.954,1.954,0,0,0,1.6-.693,3.129,3.129,0,0,0,.567-2.023,3.083,3.083,0,0,0-.574-2,1.95,1.95,0,0,0-1.6-.7,1.97,1.97,0,0,0-1.6.7,3.056,3.056,0,0,0-.581,2,3.129,3.129,0,0,0,.567,2.023A1.97,1.97,0,0,0,131.572,145.16Zm9.646-9.254h1.414v1.316h-1.414Zm1.274,3.052V146h-1.134v-6.146h-5.7v-.9ZM137.032,146v-7.98a3.048,3.048,0,0,1,.259-1.358,1.588,1.588,0,0,1,.847-.763,4.242,4.242,0,0,1,1.6-.245h.448v.882h-.35a3.371,3.371,0,0,0-1.05.126.755.755,0,0,0-.49.49,3.552,3.552,0,0,0-.126,1.092V146Zm7.644,0V135.7h1.134V146Zm9.1-.84a3.282,3.282,0,0,1-1.183.686,4.446,4.446,0,0,1-1.477.252,3.858,3.858,0,0,1-1.883-.434,2.95,2.95,0,0,1-1.218-1.253,4.635,4.635,0,0,1-.007-3.871,3.159,3.159,0,0,1,1.169-1.288,3.226,3.226,0,0,1,1.729-.462,3.015,3.015,0,0,1,1.61.413,2.662,2.662,0,0,1,1.029,1.183,4.366,4.366,0,0,1,.357,1.848v.21h-5.32V141.7h4.676l-.364.518a2.915,2.915,0,0,0-.483-1.89,1.773,1.773,0,0,0-1.491-.658,1.946,1.946,0,0,0-1.6.721,3.773,3.773,0,0,0,.028,4.067,2.238,2.238,0,0,0,1.785.7,3.483,3.483,0,0,0,1.183-.2,3.706,3.706,0,0,0,1.085-.623ZM158,146.1a4.114,4.114,0,0,1-2.814-.91l.378-.84a3.993,3.993,0,0,0,1.155.637,4.079,4.079,0,0,0,1.323.2,2.205,2.205,0,0,0,1.211-.273.89.89,0,0,0,.413-.791.838.838,0,0,0-.28-.665,2.2,2.2,0,0,0-.924-.4l-1.19-.28a2.625,2.625,0,0,1-1.365-.7,1.679,1.679,0,0,1-.483-1.2,1.815,1.815,0,0,1,.336-1.085,2.23,2.23,0,0,1,.938-.735,3.513,3.513,0,0,1,1.428-.266,4.084,4.084,0,0,1,1.4.238,2.963,2.963,0,0,1,1.106.686l-.378.826a3.7,3.7,0,0,0-1.029-.623,3.021,3.021,0,0,0-1.1-.2,1.994,1.994,0,0,0-1.169.294.929.929,0,0,0-.413.8.913.913,0,0,0,.259.686,1.8,1.8,0,0,0,.833.392l1.19.294a2.806,2.806,0,0,1,1.463.693,1.686,1.686,0,0,1,.469,1.225,1.719,1.719,0,0,1-.742,1.456A3.333,3.333,0,0,1,158,146.1Zm10.108-.1-2.6-7.042h1.19l2.17,6.2H168.5l2.24-6.2h.994l2.212,6.2h-.364l2.212-6.2h1.12l-2.6,7.042h-1.092l-2.324-6.342h.616L169.2,146Zm10.276,0v-7.042h1.134V146Zm-.112-10.024h1.386v1.288h-1.386ZM181.72,146V135.7h1.134V146Zm3.332,0V135.7h1.134V146Zm9.366.1a4.114,4.114,0,0,1-2.814-.91l.378-.84a3.993,3.993,0,0,0,1.155.637,4.079,4.079,0,0,0,1.323.2,2.205,2.205,0,0,0,1.211-.273.89.89,0,0,0,.413-.791.838.838,0,0,0-.28-.665,2.2,2.2,0,0,0-.924-.4l-1.19-.28a2.625,2.625,0,0,1-1.365-.7,1.679,1.679,0,0,1-.483-1.2,1.815,1.815,0,0,1,.336-1.085,2.23,2.23,0,0,1,.938-.735,3.513,3.513,0,0,1,1.428-.266,4.084,4.084,0,0,1,1.4.238,2.963,2.963,0,0,1,1.106.686l-.378.826a3.7,3.7,0,0,0-1.029-.623,3.021,3.021,0,0,0-1.1-.2,1.994,1.994,0,0,0-1.169.294.929.929,0,0,0-.413.8.913.913,0,0,0,.259.686,1.8,1.8,0,0,0,.833.392l1.19.294a2.806,2.806,0,0,1,1.463.693,1.686,1.686,0,0,1,.469,1.225,1.719,1.719,0,0,1-.742,1.456A3.333,3.333,0,0,1,194.418,146.1Zm10.332-.938a3.282,3.282,0,0,1-1.183.686,4.446,4.446,0,0,1-1.477.252,3.858,3.858,0,0,1-1.883-.434,2.95,2.95,0,0,1-1.218-1.253,4.635,4.635,0,0,1-.007-3.871,3.159,3.159,0,0,1,1.169-1.288,3.226,3.226,0,0,1,1.729-.462,3.015,3.015,0,0,1,1.61.413,2.662,2.662,0,0,1,1.029,1.183,4.366,4.366,0,0,1,.357,1.848v.21h-5.32V141.7h4.676l-.364.518a2.915,2.915,0,0,0-.483-1.89,1.773,1.773,0,0,0-1.491-.658,1.946,1.946,0,0,0-1.6.721,3.773,3.773,0,0,0,.028,4.067,2.238,2.238,0,0,0,1.785.7,3.483,3.483,0,0,0,1.183-.2,3.706,3.706,0,0,0,1.085-.623Zm7.616,0a3.282,3.282,0,0,1-1.183.686,4.446,4.446,0,0,1-1.477.252,3.858,3.858,0,0,1-1.883-.434,2.95,2.95,0,0,1-1.218-1.253,4.635,4.635,0,0,1-.007-3.871,3.159,3.159,0,0,1,1.169-1.288,3.226,3.226,0,0,1,1.729-.462,3.015,3.015,0,0,1,1.61.413,2.662,2.662,0,0,1,1.029,1.183,4.366,4.366,0,0,1,.357,1.848v.21h-5.32V141.7h4.676l-.364.518a2.915,2.915,0,0,0-.483-1.89,1.773,1.773,0,0,0-1.491-.658,1.946,1.946,0,0,0-1.6.721,3.773,3.773,0,0,0,.028,4.067,2.238,2.238,0,0,0,1.785.7,3.483,3.483,0,0,0,1.183-.2,3.706,3.706,0,0,0,1.085-.623Zm4.508-5.306v-.9H221.4v.9Zm4.494,5.138v.966a3.541,3.541,0,0,1-.469.105,3.426,3.426,0,0,1-.511.035,2.154,2.154,0,0,1-1.561-.56,2.232,2.232,0,0,1-.581-1.68v-6.706l1.134-.406V143.7a1.9,1.9,0,0,0,.161.868.888.888,0,0,0,.441.427,1.6,1.6,0,0,0,.63.119,2.313,2.313,0,0,0,.378-.028A2.524,2.524,0,0,0,221.368,144.992Zm1.4,1.008V135.7H223.9v4.69l-.182.14a2.416,2.416,0,0,1,.98-1.295,2.861,2.861,0,0,1,1.582-.441q2.534,0,2.534,2.786V146h-1.134v-4.368a2.17,2.17,0,0,0-.392-1.435,1.541,1.541,0,0,0-1.232-.455,2.092,2.092,0,0,0-1.568.6,2.224,2.224,0,0,0-.588,1.624V146Zm13.958-.84a3.282,3.282,0,0,1-1.183.686,4.446,4.446,0,0,1-1.477.252,3.858,3.858,0,0,1-1.883-.434,2.95,2.95,0,0,1-1.218-1.253,4.635,4.635,0,0,1-.007-3.871,3.159,3.159,0,0,1,1.169-1.288,3.226,3.226,0,0,1,1.729-.462,3.015,3.015,0,0,1,1.61.413,2.662,2.662,0,0,1,1.029,1.183,4.366,4.366,0,0,1,.357,1.848v.21h-5.32V141.7h4.676l-.364.518a2.915,2.915,0,0,0-.483-1.89,1.773,1.773,0,0,0-1.491-.658,1.946,1.946,0,0,0-1.6.721,3.773,3.773,0,0,0,.028,4.067,2.238,2.238,0,0,0,1.785.7,3.483,3.483,0,0,0,1.183-.2,3.706,3.706,0,0,0,1.085-.623Zm7.882.938a4.114,4.114,0,0,1-2.814-.91l.378-.84a3.993,3.993,0,0,0,1.155.637,4.079,4.079,0,0,0,1.323.2,2.205,2.205,0,0,0,1.211-.273.89.89,0,0,0,.413-.791.838.838,0,0,0-.28-.665,2.2,2.2,0,0,0-.924-.4l-1.19-.28a2.625,2.625,0,0,1-1.365-.7,1.679,1.679,0,0,1-.483-1.2,1.815,1.815,0,0,1,.336-1.085,2.23,2.23,0,0,1,.938-.735,3.513,3.513,0,0,1,1.428-.266,4.084,4.084,0,0,1,1.4.238,2.963,2.963,0,0,1,1.106.686l-.378.826a3.7,3.7,0,0,0-1.029-.623,3.021,3.021,0,0,0-1.1-.2,1.994,1.994,0,0,0-1.169.294.929.929,0,0,0-.413.8.913.913,0,0,0,.259.686,1.8,1.8,0,0,0,.833.392l1.19.294a2.806,2.806,0,0,1,1.463.693,1.686,1.686,0,0,1,.469,1.225,1.719,1.719,0,0,1-.742,1.456A3.333,3.333,0,0,1,244.608,146.1Zm7.266,0a3.043,3.043,0,0,1-1.645-.441,2.892,2.892,0,0,1-1.092-1.26,4.981,4.981,0,0,1,.007-3.857,3.07,3.07,0,0,1,1.1-1.288,2.914,2.914,0,0,1,1.631-.462,2.761,2.761,0,0,1,1.638.476,2.349,2.349,0,0,1,.91,1.358l-.168.112v-1.778h1.12V146h-1.12v-1.82l.168.084a2.349,2.349,0,0,1-.91,1.358A2.761,2.761,0,0,1,251.874,146.1Zm.224-.938a1.917,1.917,0,0,0,1.6-.707,3.168,3.168,0,0,0,.56-2.009,3.109,3.109,0,0,0-.567-2,1.93,1.93,0,0,0-1.589-.7,1.961,1.961,0,0,0-1.617.721,3.121,3.121,0,0,0-.581,2.009,3.032,3.032,0,0,0,.581,1.988A1.986,1.986,0,0,0,252.1,145.16Zm5.474.84v-5.068q0-.49-.021-.987t-.091-.987h1.078l.126,1.456-.14.1a2.36,2.36,0,0,1,.875-1.274,2.462,2.462,0,0,1,1.477-.448,2.311,2.311,0,0,1,1.589.5,2.467,2.467,0,0,1,.721,1.54l-.336-.182a2.393,2.393,0,0,1,.9-1.358,2.66,2.66,0,0,1,1.631-.5,2.167,2.167,0,0,1,1.75.693,3.173,3.173,0,0,1,.588,2.093V146h-1.134v-4.368a2.36,2.36,0,0,0-.35-1.435,1.307,1.307,0,0,0-1.106-.455,1.731,1.731,0,0,0-1.393.6,2.45,2.45,0,0,0-.511,1.638V146h-1.134v-4.368a2.325,2.325,0,0,0-.357-1.435,1.327,1.327,0,0,0-1.113-.455,1.747,1.747,0,0,0-1.407.6,2.45,2.45,0,0,0-.511,1.638V146Zm18.074-.84a3.282,3.282,0,0,1-1.183.686,4.446,4.446,0,0,1-1.477.252,3.858,3.858,0,0,1-1.883-.434,2.95,2.95,0,0,1-1.218-1.253,4.635,4.635,0,0,1-.007-3.871,3.159,3.159,0,0,1,1.169-1.288,3.226,3.226,0,0,1,1.729-.462,3.015,3.015,0,0,1,1.61.413,2.662,2.662,0,0,1,1.029,1.183,4.366,4.366,0,0,1,.357,1.848v.21h-5.32V141.7h4.676l-.364.518a2.915,2.915,0,0,0-.483-1.89,1.773,1.773,0,0,0-1.491-.658,1.946,1.946,0,0,0-1.6.721,3.773,3.773,0,0,0,.028,4.067,2.238,2.238,0,0,0,1.785.7,3.483,3.483,0,0,0,1.183-.2,3.706,3.706,0,0,0,1.085-.623ZM3.472,168.1a4.114,4.114,0,0,1-2.814-.91l.378-.84a3.993,3.993,0,0,0,1.155.637,4.079,4.079,0,0,0,1.323.2,2.205,2.205,0,0,0,1.211-.273.89.89,0,0,0,.413-.791.838.838,0,0,0-.28-.665,2.2,2.2,0,0,0-.924-.4l-1.19-.28a2.624,2.624,0,0,1-1.365-.7,1.679,1.679,0,0,1-.483-1.2,1.815,1.815,0,0,1,.336-1.085,2.23,2.23,0,0,1,.938-.735A3.513,3.513,0,0,1,3.6,160.79a4.084,4.084,0,0,1,1.4.238,2.963,2.963,0,0,1,1.106.686l-.378.826a3.7,3.7,0,0,0-1.029-.623,3.021,3.021,0,0,0-1.1-.2,1.994,1.994,0,0,0-1.169.294.929.929,0,0,0-.413.8.913.913,0,0,0,.259.686,1.8,1.8,0,0,0,.833.392l1.19.294a2.806,2.806,0,0,1,1.463.693A1.686,1.686,0,0,1,6.23,166.1a1.719,1.719,0,0,1-.742,1.456A3.333,3.333,0,0,1,3.472,168.1Zm4.564-.1V157.7H9.17v4.69l-.182.14a2.416,2.416,0,0,1,.98-1.295,2.861,2.861,0,0,1,1.582-.441q2.534,0,2.534,2.786V168H12.95v-4.368a2.17,2.17,0,0,0-.392-1.435,1.541,1.541,0,0,0-1.232-.455,2.092,2.092,0,0,0-1.568.6,2.224,2.224,0,0,0-.588,1.624V168Zm11.1.1a3.358,3.358,0,0,1-1.757-.448,3.027,3.027,0,0,1-1.162-1.267,4.742,4.742,0,0,1,0-3.871,3.018,3.018,0,0,1,1.162-1.274,3.669,3.669,0,0,1,3.514,0,3.018,3.018,0,0,1,1.162,1.274,4.742,4.742,0,0,1,0,3.871A3.027,3.027,0,0,1,20.9,167.65,3.358,3.358,0,0,1,19.138,168.1Zm0-.938a1.954,1.954,0,0,0,1.6-.693,3.129,3.129,0,0,0,.567-2.023,3.083,3.083,0,0,0-.574-2,1.95,1.95,0,0,0-1.6-.7,1.97,1.97,0,0,0-1.6.7,3.056,3.056,0,0,0-.581,2,3.129,3.129,0,0,0,.567,2.023A1.97,1.97,0,0,0,19.138,167.16Zm5.1,3.864v-8.092q0-.49-.021-.987t-.091-.987H25.2l.126,1.456-.112.21a2.349,2.349,0,0,1,.91-1.358,2.737,2.737,0,0,1,1.624-.476,2.914,2.914,0,0,1,1.631.462,3.118,3.118,0,0,1,1.106,1.288,4.4,4.4,0,0,1,.4,1.932,4.35,4.35,0,0,1-.4,1.925,2.894,2.894,0,0,1-2.737,1.7,2.737,2.737,0,0,1-1.624-.476,2.349,2.349,0,0,1-.91-1.358l.154-.14v4.9Zm3.3-3.864a1.95,1.95,0,0,0,1.6-.7,3.058,3.058,0,0,0,.574-1.988,3.148,3.148,0,0,0-.574-2.009,2.164,2.164,0,0,0-3.206-.021,3.871,3.871,0,0,0,0,4.011A1.933,1.933,0,0,0,27.538,167.16Zm5.1,3.864v-8.092q0-.49-.021-.987t-.091-.987H33.6l.126,1.456-.112.21a2.349,2.349,0,0,1,.91-1.358,2.737,2.737,0,0,1,1.624-.476,2.914,2.914,0,0,1,1.631.462,3.118,3.118,0,0,1,1.106,1.288,4.4,4.4,0,0,1,.4,1.932,4.35,4.35,0,0,1-.4,1.925,2.894,2.894,0,0,1-2.737,1.7,2.737,2.737,0,0,1-1.624-.476,2.349,2.349,0,0,1-.91-1.358l.154-.14v4.9Zm3.3-3.864a1.95,1.95,0,0,0,1.6-.7,3.058,3.058,0,0,0,.574-1.988,3.148,3.148,0,0,0-.574-2.009,2.164,2.164,0,0,0-3.206-.021,3.871,3.871,0,0,0,0,4.011A1.933,1.933,0,0,0,35.938,167.16Zm5.1.84v-7.042h1.134V168Zm-.112-10.024h1.386v1.288H40.922ZM44.366,168v-5.068q0-.49-.021-.987t-.091-.987h1.078l.126,1.456-.14.112a2.416,2.416,0,0,1,.98-1.295,2.861,2.861,0,0,1,1.582-.441q2.534,0,2.534,2.786V168H49.28v-4.368a2.17,2.17,0,0,0-.392-1.435,1.541,1.541,0,0,0-1.232-.455,2.092,2.092,0,0,0-1.568.6,2.224,2.224,0,0,0-.588,1.624V168Zm11.284,3.122a5.159,5.159,0,0,1-2.772-.728l.2-.924a5.638,5.638,0,0,0,1.246.546,4.843,4.843,0,0,0,1.33.168,2.045,2.045,0,0,0,1.533-.539,2.211,2.211,0,0,0,.525-1.6v-1.9l.154-.182a2.617,2.617,0,0,1-.525.973,2.4,2.4,0,0,1-.875.637,2.936,2.936,0,0,1-1.176.224,2.959,2.959,0,0,1-2.751-1.666,4.414,4.414,0,0,1,0-3.668,2.959,2.959,0,0,1,2.751-1.666,2.788,2.788,0,0,1,1.659.483,2.366,2.366,0,0,1,.917,1.351l-.168-.154v-1.512h1.134v6.986a2.824,2.824,0,0,1-3.178,3.178Zm-.14-4.284a2,2,0,0,0,1.6-.679,3.3,3.3,0,0,0,0-3.738,2,2,0,0,0-1.6-.679,2.056,2.056,0,0,0-1.631.679,3.244,3.244,0,0,0,0,3.745A2.067,2.067,0,0,0,55.51,166.838ZM64.666,168V157.7H65.8V168ZM68,168v-7.042h1.134V168Zm-.112-10.024h1.386v1.288H67.886ZM73.71,168.1a4.114,4.114,0,0,1-2.814-.91l.378-.84a3.993,3.993,0,0,0,1.155.637,4.079,4.079,0,0,0,1.323.2,2.205,2.205,0,0,0,1.211-.273.89.89,0,0,0,.413-.791.838.838,0,0,0-.28-.665,2.2,2.2,0,0,0-.924-.4l-1.19-.28a2.624,2.624,0,0,1-1.365-.7,1.679,1.679,0,0,1-.483-1.2,1.815,1.815,0,0,1,.336-1.085,2.23,2.23,0,0,1,.938-.735,3.513,3.513,0,0,1,1.428-.266,4.084,4.084,0,0,1,1.4.238,2.963,2.963,0,0,1,1.106.686l-.378.826a3.7,3.7,0,0,0-1.029-.623,3.021,3.021,0,0,0-1.1-.2,1.994,1.994,0,0,0-1.169.294.929.929,0,0,0-.413.8.913.913,0,0,0,.259.686,1.8,1.8,0,0,0,.833.392l1.19.294a2.806,2.806,0,0,1,1.463.693,1.686,1.686,0,0,1,.469,1.225,1.719,1.719,0,0,1-.742,1.456A3.333,3.333,0,0,1,73.71,168.1Zm3.5-6.244v-.9h4.522v.9Zm4.494,5.138v.966a3.541,3.541,0,0,1-.469.105,3.426,3.426,0,0,1-.511.035,2.154,2.154,0,0,1-1.561-.56,2.232,2.232,0,0,1-.581-1.68v-6.706l1.134-.406V165.7a1.9,1.9,0,0,0,.161.868.888.888,0,0,0,.441.427,1.6,1.6,0,0,0,.63.119,2.313,2.313,0,0,0,.378-.028A2.524,2.524,0,0,0,81.7,166.992Zm3.78,1.106a4.114,4.114,0,0,1-2.814-.91l.378-.84a3.993,3.993,0,0,0,1.155.637,4.079,4.079,0,0,0,1.323.2,2.205,2.205,0,0,0,1.211-.273.89.89,0,0,0,.413-.791.838.838,0,0,0-.28-.665,2.2,2.2,0,0,0-.924-.4l-1.19-.28a2.624,2.624,0,0,1-1.365-.7,1.679,1.679,0,0,1-.483-1.2,1.815,1.815,0,0,1,.336-1.085,2.23,2.23,0,0,1,.938-.735,3.513,3.513,0,0,1,1.428-.266,4.084,4.084,0,0,1,1.4.238,2.963,2.963,0,0,1,1.106.686l-.378.826a3.7,3.7,0,0,0-1.029-.623,3.021,3.021,0,0,0-1.1-.2,1.994,1.994,0,0,0-1.169.294.929.929,0,0,0-.413.8.913.913,0,0,0,.259.686,1.8,1.8,0,0,0,.833.392l1.19.294a2.806,2.806,0,0,1,1.463.693,1.686,1.686,0,0,1,.469,1.225,1.719,1.719,0,0,1-.742,1.456A3.333,3.333,0,0,1,85.484,168.1Zm11.13,0a3.358,3.358,0,0,1-1.757-.448,3.027,3.027,0,0,1-1.162-1.267,4.742,4.742,0,0,1,0-3.871,3.018,3.018,0,0,1,1.162-1.274,3.669,3.669,0,0,1,3.514,0,3.018,3.018,0,0,1,1.162,1.274,4.742,4.742,0,0,1,0,3.871,3.027,3.027,0,0,1-1.162,1.267A3.358,3.358,0,0,1,96.614,168.1Zm0-.938a1.954,1.954,0,0,0,1.6-.693,3.129,3.129,0,0,0,.567-2.023,3.083,3.083,0,0,0-.574-2,1.95,1.95,0,0,0-1.6-.7,1.97,1.97,0,0,0-1.6.7,3.056,3.056,0,0,0-.581,2A3.129,3.129,0,0,0,95,166.467,1.97,1.97,0,0,0,96.614,167.16Zm5.1.84v-5.068q0-.49-.021-.987t-.091-.987h1.078l.126,1.456-.14.112a2.416,2.416,0,0,1,.98-1.295,2.861,2.861,0,0,1,1.582-.441q2.534,0,2.534,2.786V168h-1.134v-4.368a2.17,2.17,0,0,0-.392-1.435,1.541,1.541,0,0,0-1.232-.455,2.092,2.092,0,0,0-1.568.6,2.224,2.224,0,0,0-.588,1.624V168Zm10.85-6.146v-.9h4.522v.9Zm4.494,5.138v.966a3.541,3.541,0,0,1-.469.105,3.426,3.426,0,0,1-.511.035,2.154,2.154,0,0,1-1.561-.56,2.232,2.232,0,0,1-.581-1.68v-6.706l1.134-.406V165.7a1.9,1.9,0,0,0,.161.868.888.888,0,0,0,.441.427,1.6,1.6,0,0,0,.63.119,2.313,2.313,0,0,0,.378-.028A2.524,2.524,0,0,0,117.054,166.992Zm1.4,1.008V157.7h1.134v4.69l-.182.14a2.416,2.416,0,0,1,.98-1.295,2.861,2.861,0,0,1,1.582-.441q2.534,0,2.534,2.786V168h-1.134v-4.368a2.17,2.17,0,0,0-.392-1.435,1.541,1.541,0,0,0-1.232-.455,2.092,2.092,0,0,0-1.568.6,2.224,2.224,0,0,0-.588,1.624V168Zm13.958-.84a3.282,3.282,0,0,1-1.183.686,4.446,4.446,0,0,1-1.477.252,3.858,3.858,0,0,1-1.883-.434,2.95,2.95,0,0,1-1.218-1.253,4.635,4.635,0,0,1-.007-3.871,3.159,3.159,0,0,1,1.169-1.288,3.226,3.226,0,0,1,1.729-.462,3.015,3.015,0,0,1,1.61.413,2.662,2.662,0,0,1,1.029,1.183,4.366,4.366,0,0,1,.357,1.848v.21h-5.32V163.7h4.676l-.364.518a2.915,2.915,0,0,0-.483-1.89,1.773,1.773,0,0,0-1.491-.658,1.946,1.946,0,0,0-1.6.721,3.773,3.773,0,0,0,.028,4.067,2.238,2.238,0,0,0,1.785.7,3.483,3.483,0,0,0,1.183-.2,3.706,3.706,0,0,0,1.085-.623Zm1.848.84v-7.042h1.134V168Zm-.112-10.024h1.386v1.288h-1.386ZM137.592,168v-5.068q0-.49-.021-.987t-.091-.987h1.078l.154,1.736-.154-.042a2.2,2.2,0,0,1,.847-1.393,2.442,2.442,0,0,1,1.463-.469,2.654,2.654,0,0,1,.343.021,1.9,1.9,0,0,1,.3.063l-.028,1.036a2.255,2.255,0,0,0-.742-.112,1.938,1.938,0,0,0-1.169.322,1.875,1.875,0,0,0-.644.819,2.732,2.732,0,0,0-.2,1.043V168Zm14.924,0H151.4v-1.89l.168.154a2.349,2.349,0,0,1-.91,1.358,2.761,2.761,0,0,1-1.638.476,2.947,2.947,0,0,1-1.631-.455,3.014,3.014,0,0,1-1.1-1.288,4.509,4.509,0,0,1-.392-1.939,4.437,4.437,0,0,1,.385-1.918,2.945,2.945,0,0,1,1.092-1.26,3.007,3.007,0,0,1,1.645-.448,2.732,2.732,0,0,1,1.638.483,2.378,2.378,0,0,1,.91,1.351l-.182.14V157.7h1.134Zm-3.276-.84a1.922,1.922,0,0,0,1.589-.707,3.838,3.838,0,0,0,.007-4,1.917,1.917,0,0,0-1.6-.707,1.986,1.986,0,0,0-1.617.7,3.008,3.008,0,0,0-.581,1.974,3.145,3.145,0,0,0,.581,2.023A1.961,1.961,0,0,0,149.24,167.16Zm11.242,0a3.282,3.282,0,0,1-1.183.686,4.446,4.446,0,0,1-1.477.252,3.858,3.858,0,0,1-1.883-.434,2.95,2.95,0,0,1-1.218-1.253,4.635,4.635,0,0,1-.007-3.871,3.159,3.159,0,0,1,1.169-1.288,3.226,3.226,0,0,1,1.729-.462,3.015,3.015,0,0,1,1.61.413,2.662,2.662,0,0,1,1.029,1.183,4.366,4.366,0,0,1,.357,1.848v.21h-5.32V163.7h4.676l-.364.518a2.915,2.915,0,0,0-.483-1.89,1.773,1.773,0,0,0-1.491-.658,1.946,1.946,0,0,0-1.6.721,3.773,3.773,0,0,0,.028,4.067,2.238,2.238,0,0,0,1.785.7,3.483,3.483,0,0,0,1.183-.2,3.706,3.706,0,0,0,1.085-.623Zm3.836.84-3-7.028h1.19l2.548,6.2h-.336l2.576-6.2h1.134L165.4,168Zm5.362,0v-7.042h1.134V168Zm-.112-10.024h1.386v1.288h-1.386Zm6.4,10.122a3.451,3.451,0,0,1-1.792-.448,3.022,3.022,0,0,1-1.169-1.26,4.641,4.641,0,0,1,.007-3.843,3.1,3.1,0,0,1,1.19-1.295,3.471,3.471,0,0,1,1.82-.462,3.958,3.958,0,0,1,1.379.245,2.988,2.988,0,0,1,1.1.679l-.378.84a4.3,4.3,0,0,0-1.015-.609,2.7,2.7,0,0,0-1.029-.2,2.124,2.124,0,0,0-1.687.714,2.97,2.97,0,0,0-.623,2.016,2.914,2.914,0,0,0,.616,1.988,2.14,2.14,0,0,0,1.694.7,2.714,2.714,0,0,0,1.022-.2,4.243,4.243,0,0,0,1.022-.609l.378.84a3.221,3.221,0,0,1-1.127.665A4.114,4.114,0,0,1,175.966,168.1Zm9.744-.938a3.282,3.282,0,0,1-1.183.686,4.446,4.446,0,0,1-1.477.252,3.858,3.858,0,0,1-1.883-.434,2.95,2.95,0,0,1-1.218-1.253,4.635,4.635,0,0,1-.007-3.871,3.159,3.159,0,0,1,1.169-1.288,3.226,3.226,0,0,1,1.729-.462,3.015,3.015,0,0,1,1.61.413,2.662,2.662,0,0,1,1.029,1.183,4.366,4.366,0,0,1,.357,1.848v.21h-5.32V163.7h4.676l-.364.518a2.915,2.915,0,0,0-.483-1.89,1.773,1.773,0,0,0-1.491-.658,1.946,1.946,0,0,0-1.6.721,3.773,3.773,0,0,0,.028,4.067,2.238,2.238,0,0,0,1.785.7,3.483,3.483,0,0,0,1.183-.2,3.706,3.706,0,0,0,1.085-.623Zm4.228.938a4.114,4.114,0,0,1-2.814-.91l.378-.84a3.993,3.993,0,0,0,1.155.637,4.079,4.079,0,0,0,1.323.2,2.205,2.205,0,0,0,1.211-.273.89.89,0,0,0,.413-.791.838.838,0,0,0-.28-.665,2.2,2.2,0,0,0-.924-.4l-1.19-.28a2.625,2.625,0,0,1-1.365-.7,1.679,1.679,0,0,1-.483-1.2,1.815,1.815,0,0,1,.336-1.085,2.23,2.23,0,0,1,.938-.735,3.513,3.513,0,0,1,1.428-.266,4.084,4.084,0,0,1,1.4.238,2.963,2.963,0,0,1,1.106.686l-.378.826a3.7,3.7,0,0,0-1.029-.623,3.021,3.021,0,0,0-1.1-.2,1.994,1.994,0,0,0-1.169.294.929.929,0,0,0-.413.8.913.913,0,0,0,.259.686,1.8,1.8,0,0,0,.833.392l1.19.294a2.806,2.806,0,0,1,1.463.693,1.686,1.686,0,0,1,.469,1.225,1.719,1.719,0,0,1-.742,1.456A3.333,3.333,0,0,1,189.938,168.1Zm4.3-1.54h1.442V168h-1.442Z" transform="translate(655 5353.5)" fill="#dcddde"/>
    </g>
  </g>
</svg>
