<svg xmlns="http://www.w3.org/2000/svg" xmlns:xlink="http://www.w3.org/1999/xlink" width="1349" height="800" viewBox="0 0 1349 800">
  <defs>
    <filter id="screen" x="359.057" y="160.571" width="234.29" height="486.34" filterUnits="userSpaceOnUse">
      <feOffset dy="3" input="SourceAlpha"/>
      <feGaussianBlur stdDeviation="3" result="blur"/>
      <feFlood flood-opacity="0.161"/>
      <feComposite operator="in" in2="blur"/>
      <feComposite in="SourceGraphic"/>
    </filter>
    <filter id="Rectangle_371" x="359" y="160" width="233.758" height="486.597" filterUnits="userSpaceOnUse">
      <feOffset dy="3" input="SourceAlpha"/>
      <feGaussianBlur stdDeviation="3" result="blur-2"/>
      <feFlood flood-opacity="0.322"/>
      <feComposite operator="in" in2="blur-2"/>
      <feComposite in="SourceGraphic"/>
    </filter>
    <clipPath id="clip-path">
      <g transform="matrix(1, 0, 0, 1, 0, 0)" filter="url(#screen)">
        <path id="screen-2" data-name="screen" d="M193.219,540.34H23.071A23.051,23.051,0,0,1,0,517.269V95.071A23.052,23.052,0,0,1,23.071,72H44.989a2.888,2.888,0,0,1,2.884,2.832v1.782A12.679,12.679,0,0,0,60.561,89.3h96.322a11.526,11.526,0,0,0,11.535-11.536V74.884A2.888,2.888,0,0,1,171.3,72h21.92A23.052,23.052,0,0,1,216.29,95.071v422.2a23.051,23.051,0,0,1-23.071,23.071Z" transform="translate(0 -72)" fill="#0a101d"/>
      </g>
    </clipPath>
    <clipPath id="clip-path-2">
      <path id="Path_1776" data-name="Path 1776" d="M9.772,0H202.288a9.888,9.888,0,0,1,9.772,10V150a9.888,9.888,0,0,1-9.772,10H9.772A9.888,9.888,0,0,1,0,150V10A9.888,9.888,0,0,1,9.772,0Z" transform="translate(634.187 2014)" fill="#0a101d"/>
    </clipPath>
    <filter id="Background" x="624" y="439.5" width="215" height="60.5" filterUnits="userSpaceOnUse">
      <feOffset dy="-0.5" input="SourceAlpha"/>
      <feGaussianBlur result="blur-3"/>
      <feFlood flood-color="#fff" flood-opacity="0.161"/>
      <feComposite operator="in" in2="blur-3"/>
      <feComposite in="SourceGraphic"/>
    </filter>
    <filter id="Background-2" x="623.435" y="438.79" width="216.131" height="60.572" filterUnits="userSpaceOnUse">
      <feOffset dy="-0.5" input="SourceAlpha"/>
      <feGaussianBlur result="blur-4"/>
      <feFlood flood-color="#fff" flood-opacity="0.161"/>
      <feComposite operator="in" in2="blur-4"/>
      <feComposite in="SourceGraphic"/>
    </filter>
    <filter id="separator" x="637.239" y="387.064" width="188.523" height="18.5" filterUnits="userSpaceOnUse">
      <feOffset dy="3" input="SourceAlpha"/>
      <feGaussianBlur stdDeviation="3" result="blur-5"/>
      <feFlood flood-color="#fff" flood-opacity="0.161"/>
      <feComposite operator="in" in2="blur-5"/>
      <feComposite in="SourceGraphic"/>
    </filter>
    <filter id="separator-2" x="614.334" y="448.308" width="234.331" height="18.199" filterUnits="userSpaceOnUse">
      <feOffset dy="3" input="SourceAlpha"/>
      <feGaussianBlur stdDeviation="3" result="blur-6"/>
      <feFlood flood-color="#fff" flood-opacity="0.161"/>
      <feComposite operator="in" in2="blur-6"/>
      <feComposite in="SourceGraphic"/>
    </filter>
    <filter id="Background-3" x="689.36" y="462.24" width="84.28" height="36.443" filterUnits="userSpaceOnUse">
      <feOffset dy="3" input="SourceAlpha"/>
      <feGaussianBlur stdDeviation="3" result="blur-7"/>
      <feFlood flood-opacity="0.357"/>
      <feComposite operator="in" in2="blur-7"/>
      <feComposite in="SourceGraphic"/>
    </filter>
    <filter id="Background-4" x="635" y="552.338" width="193" height="41.11" filterUnits="userSpaceOnUse">
      <feOffset dy="3" input="SourceAlpha"/>
      <feGaussianBlur stdDeviation="3" result="blur-8"/>
      <feFlood flood-opacity="0.357"/>
      <feComposite operator="in" in2="blur-8"/>
      <feComposite in="SourceGraphic"/>
    </filter>
  </defs>
  <g id="third" transform="translate(-163 -1651)">
    <rect id="Rectangle_731" data-name="Rectangle 731" width="1349" height="800" transform="translate(163 1651)" fill="#0a101d" opacity="0"/>
    <g id="Group_1743" data-name="Group 1743" transform="translate(154.283 -24)">
      <path id="Path_1781" data-name="Path 1781" d="M0,0H537V336H0Z" transform="translate(452.54 1951.535)" fill="#0d1321"/>
      <path id="Path_1768" data-name="Path 1768" d="M33.552-33.6V0h-3.5V-15.5H9.024V0H5.472V-33.6H9.024v14.976H30.048V-33.6ZM59.184.288a18.452,18.452,0,0,1-9.048-2.232A16.3,16.3,0,0,1,43.8-8.064,16.946,16.946,0,0,1,41.52-16.8a16.946,16.946,0,0,1,2.28-8.736,16.3,16.3,0,0,1,6.336-6.12,18.452,18.452,0,0,1,9.048-2.232,18.338,18.338,0,0,1,9,2.208A16.341,16.341,0,0,1,74.5-25.56a16.937,16.937,0,0,1,2.3,8.76,16.937,16.937,0,0,1-2.3,8.76,16.341,16.341,0,0,1-6.312,6.12A18.338,18.338,0,0,1,59.184.288Zm0-3.168a14.486,14.486,0,0,0,7.2-1.8,13.027,13.027,0,0,0,5.04-4.992A14.11,14.11,0,0,0,73.248-16.8a14.11,14.11,0,0,0-1.824-7.128,13.027,13.027,0,0,0-5.04-4.992,14.486,14.486,0,0,0-7.2-1.8,14.621,14.621,0,0,0-7.224,1.8,13.151,13.151,0,0,0-5.088,4.992A13.966,13.966,0,0,0,45.024-16.8a13.966,13.966,0,0,0,1.848,7.128A13.151,13.151,0,0,0,51.96-4.68,14.621,14.621,0,0,0,59.184-2.88Zm60.48-30.72V0h-3.408V-26.88l-13.2,22.608h-1.68l-13.2-22.464V0H84.768V-33.6H87.7L102.288-8.688,116.736-33.6Zm34.7,30.528V0h-23.76V-33.6h23.04v3.072H134.16v11.952h17.376v3.024H134.16v12.48Z" transform="translate(655 1969)" fill="#603962"/>
      <path id="Path_1769" data-name="Path 1769" d="M4.4,14.112a7.425,7.425,0,0,1-1.442-.133,4.9,4.9,0,0,1-1.246-.42,4.568,4.568,0,0,1-1.036-.707l.434-.882a4.932,4.932,0,0,0,1.519.9,5.424,5.424,0,0,0,1.785.266,3.145,3.145,0,0,0,1.848-.469,1.53,1.53,0,0,0,.658-1.323,1.1,1.1,0,0,0-.329-.833,2.35,2.35,0,0,0-.9-.5q-.567-.189-1.281-.357T3.052,9.289a5.025,5.025,0,0,1-1.141-.511,2.27,2.27,0,0,1-.777-.784A2.315,2.315,0,0,1,.854,6.8,2.59,2.59,0,0,1,1.3,5.3a2.95,2.95,0,0,1,1.26-1.015A4.657,4.657,0,0,1,4.48,3.92,5.774,5.774,0,0,1,5.8,4.067a4.978,4.978,0,0,1,1.169.427,4.069,4.069,0,0,1,.959.686l-.448.882A4.73,4.73,0,0,0,6.062,5.18,4.37,4.37,0,0,0,4.48,4.9a2.99,2.99,0,0,0-1.82.49A1.612,1.612,0,0,0,2,6.762a1.291,1.291,0,0,0,.294.882,2.037,2.037,0,0,0,.826.539,10.325,10.325,0,0,0,1.218.371q.728.168,1.4.364a5.984,5.984,0,0,1,1.2.483,2.339,2.339,0,0,1,.833.742A2.017,2.017,0,0,1,8.078,11.3a2.494,2.494,0,0,1-.448,1.484,2.907,2.907,0,0,1-1.274.98A5,5,0,0,1,4.4,14.112Zm11.186-.952a3.282,3.282,0,0,1-1.183.686,4.446,4.446,0,0,1-1.477.252,3.858,3.858,0,0,1-1.883-.434,2.95,2.95,0,0,1-1.218-1.253,4.174,4.174,0,0,1-.427-1.953,4.177,4.177,0,0,1,.42-1.918,3.159,3.159,0,0,1,1.169-1.288,3.226,3.226,0,0,1,1.729-.462,3.015,3.015,0,0,1,1.61.413,2.662,2.662,0,0,1,1.029,1.183,4.366,4.366,0,0,1,.357,1.848v.21h-5.32V9.7h4.676l-.364.518a2.915,2.915,0,0,0-.483-1.89,1.773,1.773,0,0,0-1.491-.658,1.946,1.946,0,0,0-1.6.721,3.1,3.1,0,0,0-.581,1.995,3.077,3.077,0,0,0,.609,2.072,2.238,2.238,0,0,0,1.785.7,3.483,3.483,0,0,0,1.183-.2,3.706,3.706,0,0,0,1.085-.623ZM17.43,14V3.7h1.134V14Zm9.1-.84a3.282,3.282,0,0,1-1.183.686,4.446,4.446,0,0,1-1.477.252,3.858,3.858,0,0,1-1.883-.434,2.95,2.95,0,0,1-1.218-1.253,4.174,4.174,0,0,1-.427-1.953,4.177,4.177,0,0,1,.42-1.918,3.159,3.159,0,0,1,1.169-1.288A3.226,3.226,0,0,1,23.66,6.79a3.015,3.015,0,0,1,1.61.413A2.662,2.662,0,0,1,26.3,8.386a4.366,4.366,0,0,1,.357,1.848v.21h-5.32V9.7h4.676l-.364.518a2.915,2.915,0,0,0-.483-1.89,1.773,1.773,0,0,0-1.491-.658,1.946,1.946,0,0,0-1.6.721,3.1,3.1,0,0,0-.581,1.995A3.077,3.077,0,0,0,22.1,12.46a2.238,2.238,0,0,0,1.785.7,3.483,3.483,0,0,0,1.183-.2,3.706,3.706,0,0,0,1.085-.623Zm4.8.938a3.451,3.451,0,0,1-1.792-.448,3.022,3.022,0,0,1-1.169-1.26,4.181,4.181,0,0,1-.413-1.918,4.22,4.22,0,0,1,.42-1.925,3.1,3.1,0,0,1,1.19-1.3,3.471,3.471,0,0,1,1.82-.462,3.958,3.958,0,0,1,1.379.245,2.988,2.988,0,0,1,1.1.679l-.378.84a4.3,4.3,0,0,0-1.015-.609,2.7,2.7,0,0,0-1.029-.2,2.124,2.124,0,0,0-1.687.714,2.97,2.97,0,0,0-.623,2.016,2.914,2.914,0,0,0,.616,1.988,2.14,2.14,0,0,0,1.694.7,2.714,2.714,0,0,0,1.022-.2,4.243,4.243,0,0,0,1.022-.609l.378.84a3.221,3.221,0,0,1-1.127.665A4.114,4.114,0,0,1,31.332,14.1Zm3-6.244v-.9H38.85v.9Zm4.494,5.138v.966a3.543,3.543,0,0,1-.469.1,3.426,3.426,0,0,1-.511.035,2.154,2.154,0,0,1-1.561-.56,2.232,2.232,0,0,1-.581-1.68V5.152l1.134-.406V11.7a1.9,1.9,0,0,0,.161.868.888.888,0,0,0,.441.427,1.6,1.6,0,0,0,.63.119,2.313,2.313,0,0,0,.378-.028A2.525,2.525,0,0,0,38.822,12.992Zm5.054,4.032V8.932q0-.49-.021-.987t-.091-.987h1.078l.126,1.456-.112.21a2.349,2.349,0,0,1,.91-1.358A2.737,2.737,0,0,1,47.39,6.79a2.914,2.914,0,0,1,1.631.462A3.118,3.118,0,0,1,50.127,8.54a4.4,4.4,0,0,1,.4,1.932,4.35,4.35,0,0,1-.4,1.925,2.894,2.894,0,0,1-2.737,1.7,2.737,2.737,0,0,1-1.624-.476,2.349,2.349,0,0,1-.91-1.358l.154-.14v4.9Zm3.3-3.864a1.95,1.95,0,0,0,1.6-.7,3.058,3.058,0,0,0,.574-1.988,3.148,3.148,0,0,0-.574-2.009,2.164,2.164,0,0,0-3.206-.021,3.137,3.137,0,0,0-.56,2,3.168,3.168,0,0,0,.56,2.009A1.933,1.933,0,0,0,47.18,13.16Zm5.1.84V8.932q0-.49-.021-.987t-.091-.987h1.078L53.4,8.694l-.154-.042a2.2,2.2,0,0,1,.847-1.393,2.442,2.442,0,0,1,1.463-.469,2.655,2.655,0,0,1,.343.021,1.9,1.9,0,0,1,.3.063L56.168,7.91a2.255,2.255,0,0,0-.742-.112,1.938,1.938,0,0,0-1.169.322,1.875,1.875,0,0,0-.644.819,2.732,2.732,0,0,0-.2,1.043V14Zm7.84.1a3.358,3.358,0,0,1-1.757-.448A3.027,3.027,0,0,1,57.2,12.383a4.258,4.258,0,0,1-.413-1.939A4.269,4.269,0,0,1,57.2,8.512a3.018,3.018,0,0,1,1.162-1.274,3.669,3.669,0,0,1,3.514,0,3.018,3.018,0,0,1,1.162,1.274,4.269,4.269,0,0,1,.413,1.932,4.258,4.258,0,0,1-.413,1.939,3.027,3.027,0,0,1-1.162,1.267A3.358,3.358,0,0,1,60.116,14.1Zm0-.938a1.954,1.954,0,0,0,1.6-.693,3.129,3.129,0,0,0,.567-2.023,3.083,3.083,0,0,0-.574-2,1.95,1.95,0,0,0-1.6-.7,1.97,1.97,0,0,0-1.6.7,3.056,3.056,0,0,0-.581,2,3.129,3.129,0,0,0,.567,2.023A1.97,1.97,0,0,0,60.116,13.16Zm11.3.84h-1.12V12.11l.168.154a2.349,2.349,0,0,1-.91,1.358,2.761,2.761,0,0,1-1.638.476,2.947,2.947,0,0,1-1.631-.455,3.014,3.014,0,0,1-1.1-1.288,4.509,4.509,0,0,1-.392-1.939A4.437,4.437,0,0,1,65.177,8.5a2.945,2.945,0,0,1,1.092-1.26,3.007,3.007,0,0,1,1.645-.448,2.732,2.732,0,0,1,1.638.483,2.378,2.378,0,0,1,.91,1.351l-.182.14V3.7h1.134Zm-3.276-.84a1.922,1.922,0,0,0,1.589-.707,3.14,3.14,0,0,0,.567-2.009,3.142,3.142,0,0,0-.56-2,1.917,1.917,0,0,0-1.6-.707,1.986,1.986,0,0,0-1.617.7,3.008,3.008,0,0,0-.581,1.974,3.145,3.145,0,0,0,.581,2.023A1.961,1.961,0,0,0,68.138,13.16ZM76.1,14.1a2.437,2.437,0,0,1-1.9-.7,2.985,2.985,0,0,1-.637-2.072V6.958H74.7V11.3a2.09,2.09,0,0,0,.392,1.4,1.5,1.5,0,0,0,1.19.448,1.993,1.993,0,0,0,1.512-.6,2.236,2.236,0,0,0,.574-1.61V6.958h1.134V14H78.4V12.474l.168-.084a2.35,2.35,0,0,1-.945,1.274A2.717,2.717,0,0,1,76.1,14.1Zm8.54,0a3.451,3.451,0,0,1-1.792-.448,3.022,3.022,0,0,1-1.169-1.26,4.181,4.181,0,0,1-.413-1.918,4.22,4.22,0,0,1,.42-1.925,3.1,3.1,0,0,1,1.19-1.3A3.471,3.471,0,0,1,84.7,6.79a3.958,3.958,0,0,1,1.379.245,2.988,2.988,0,0,1,1.1.679l-.378.84a4.3,4.3,0,0,0-1.015-.609,2.7,2.7,0,0,0-1.029-.2,2.124,2.124,0,0,0-1.687.714,2.97,2.97,0,0,0-.623,2.016,2.914,2.914,0,0,0,.616,1.988,2.14,2.14,0,0,0,1.694.7,2.714,2.714,0,0,0,1.022-.2,4.243,4.243,0,0,0,1.022-.609l.378.84a3.221,3.221,0,0,1-1.127.665A4.114,4.114,0,0,1,84.644,14.1Zm3-6.244v-.9h4.522v.9Zm4.494,5.138v.966a3.543,3.543,0,0,1-.469.1,3.426,3.426,0,0,1-.511.035,2.154,2.154,0,0,1-1.561-.56,2.232,2.232,0,0,1-.581-1.68V5.152l1.134-.406V11.7a1.9,1.9,0,0,0,.161.868.888.888,0,0,0,.441.427,1.6,1.6,0,0,0,.63.119,2.313,2.313,0,0,0,.378-.028A2.524,2.524,0,0,0,92.134,12.992Zm3.78,1.106a4.114,4.114,0,0,1-2.814-.91l.378-.84a3.993,3.993,0,0,0,1.155.637,4.078,4.078,0,0,0,1.323.2,2.205,2.205,0,0,0,1.211-.273.89.89,0,0,0,.413-.791.838.838,0,0,0-.28-.665,2.2,2.2,0,0,0-.924-.4l-1.19-.28a2.624,2.624,0,0,1-1.365-.7,1.679,1.679,0,0,1-.483-1.2,1.815,1.815,0,0,1,.336-1.085,2.23,2.23,0,0,1,.938-.735A3.513,3.513,0,0,1,96.04,6.79a4.084,4.084,0,0,1,1.4.238,2.963,2.963,0,0,1,1.106.686l-.378.826a3.7,3.7,0,0,0-1.029-.623,3.021,3.021,0,0,0-1.1-.2,1.994,1.994,0,0,0-1.169.294.929.929,0,0,0-.413.8.913.913,0,0,0,.259.686,1.8,1.8,0,0,0,.833.392l1.19.294a2.806,2.806,0,0,1,1.463.693,1.686,1.686,0,0,1,.469,1.225,1.719,1.719,0,0,1-.742,1.456A3.333,3.333,0,0,1,95.914,14.1Zm7.224-6.244v-.9h4.522v.9Zm4.494,5.138v.966a3.543,3.543,0,0,1-.469.1,3.426,3.426,0,0,1-.511.035,2.154,2.154,0,0,1-1.561-.56,2.232,2.232,0,0,1-.581-1.68V5.152l1.134-.406V11.7a1.9,1.9,0,0,0,.161.868.888.888,0,0,0,.441.427,1.6,1.6,0,0,0,.63.119,2.313,2.313,0,0,0,.378-.028A2.524,2.524,0,0,0,107.632,12.992Zm4.312,1.106a3.358,3.358,0,0,1-1.757-.448,3.027,3.027,0,0,1-1.162-1.267,4.258,4.258,0,0,1-.413-1.939,4.269,4.269,0,0,1,.413-1.932,3.018,3.018,0,0,1,1.162-1.274,3.669,3.669,0,0,1,3.514,0,3.018,3.018,0,0,1,1.162,1.274,4.269,4.269,0,0,1,.413,1.932,4.258,4.258,0,0,1-.413,1.939A3.027,3.027,0,0,1,113.7,13.65,3.358,3.358,0,0,1,111.944,14.1Zm0-.938a1.954,1.954,0,0,0,1.6-.693,3.129,3.129,0,0,0,.567-2.023,3.083,3.083,0,0,0-.574-2,1.95,1.95,0,0,0-1.6-.7,1.97,1.97,0,0,0-1.6.7,3.056,3.056,0,0,0-.581,2,3.129,3.129,0,0,0,.567,2.023A1.97,1.97,0,0,0,111.944,13.16Zm8.75.84V8.932q0-.49-.021-.987t-.091-.987h1.078l.126,1.456-.14.1a2.36,2.36,0,0,1,.875-1.274A2.463,2.463,0,0,1,124,6.79a2.311,2.311,0,0,1,1.589.5,2.468,2.468,0,0,1,.721,1.54l-.336-.182a2.393,2.393,0,0,1,.9-1.358,2.66,2.66,0,0,1,1.631-.5,2.167,2.167,0,0,1,1.75.693,3.173,3.173,0,0,1,.588,2.093V14H129.71V9.632a2.36,2.36,0,0,0-.35-1.435,1.307,1.307,0,0,0-1.106-.455,1.731,1.731,0,0,0-1.393.6,2.45,2.45,0,0,0-.511,1.638V14h-1.134V9.632a2.325,2.325,0,0,0-.357-1.435,1.327,1.327,0,0,0-1.113-.455,1.747,1.747,0,0,0-1.407.6,2.45,2.45,0,0,0-.511,1.638V14Zm15.008.1a3.043,3.043,0,0,1-1.645-.441,2.892,2.892,0,0,1-1.092-1.26,4.484,4.484,0,0,1-.385-1.925,4.462,4.462,0,0,1,.392-1.932,3.07,3.07,0,0,1,1.1-1.288A2.914,2.914,0,0,1,135.7,6.79a2.761,2.761,0,0,1,1.638.476,2.349,2.349,0,0,1,.91,1.358l-.168.112V6.958h1.12V14h-1.12V12.18l.168.084a2.349,2.349,0,0,1-.91,1.358A2.761,2.761,0,0,1,135.7,14.1Zm.224-.938a1.917,1.917,0,0,0,1.6-.707,3.168,3.168,0,0,0,.56-2.009,3.109,3.109,0,0,0-.567-2,1.93,1.93,0,0,0-1.589-.7,1.961,1.961,0,0,0-1.617.721,3.121,3.121,0,0,0-.581,2.009,3.032,3.032,0,0,0,.581,1.988A1.986,1.986,0,0,0,135.926,13.16ZM141.4,14V8.932q0-.49-.021-.987t-.091-.987h1.078l.126,1.456-.14.112a2.416,2.416,0,0,1,.98-1.295,2.861,2.861,0,0,1,1.582-.441q2.534,0,2.534,2.786V14h-1.134V9.632a2.17,2.17,0,0,0-.392-1.435,1.541,1.541,0,0,0-1.232-.455,2.092,2.092,0,0,0-1.568.6,2.224,2.224,0,0,0-.588,1.624V14Zm10.892.1a3.043,3.043,0,0,1-1.645-.441,2.892,2.892,0,0,1-1.092-1.26,4.484,4.484,0,0,1-.385-1.925,4.462,4.462,0,0,1,.392-1.932,3.07,3.07,0,0,1,1.1-1.288,2.914,2.914,0,0,1,1.631-.462,2.761,2.761,0,0,1,1.638.476,2.349,2.349,0,0,1,.91,1.358l-.168.112V6.958h1.12V14h-1.12V12.18l.168.084a2.349,2.349,0,0,1-.91,1.358A2.761,2.761,0,0,1,152.292,14.1Zm.224-.938a1.917,1.917,0,0,0,1.6-.707,3.168,3.168,0,0,0,.56-2.009,3.109,3.109,0,0,0-.567-2,1.93,1.93,0,0,0-1.589-.7,1.961,1.961,0,0,0-1.617.721,3.121,3.121,0,0,0-.581,2.009,3.032,3.032,0,0,0,.581,1.988A1.986,1.986,0,0,0,152.516,13.16Zm8.568,3.962a5.159,5.159,0,0,1-2.772-.728l.2-.924a5.638,5.638,0,0,0,1.246.546,4.843,4.843,0,0,0,1.33.168,2.045,2.045,0,0,0,1.533-.539,2.211,2.211,0,0,0,.525-1.6v-1.9l.154-.182a2.617,2.617,0,0,1-.525.973,2.4,2.4,0,0,1-.875.637,2.936,2.936,0,0,1-1.176.224,2.959,2.959,0,0,1-2.751-1.666,3.993,3.993,0,0,1-.4-1.834,3.993,3.993,0,0,1,.4-1.834A2.959,2.959,0,0,1,160.72,6.79a2.788,2.788,0,0,1,1.659.483,2.366,2.366,0,0,1,.917,1.351l-.168-.154V6.958h1.134v6.986a3.213,3.213,0,0,1-.8,2.38A3.235,3.235,0,0,1,161.084,17.122Zm-.14-4.284a2,2,0,0,0,1.6-.679,2.783,2.783,0,0,0,.581-1.869,2.783,2.783,0,0,0-.581-1.869,2,2,0,0,0-1.6-.679,2.056,2.056,0,0,0-1.631.679,2.739,2.739,0,0,0-.595,1.869,2.734,2.734,0,0,0,.595,1.876A2.067,2.067,0,0,0,160.944,12.838Zm11.27.322a3.282,3.282,0,0,1-1.183.686,4.446,4.446,0,0,1-1.477.252,3.858,3.858,0,0,1-1.883-.434,2.95,2.95,0,0,1-1.218-1.253,4.174,4.174,0,0,1-.427-1.953,4.177,4.177,0,0,1,.42-1.918,3.159,3.159,0,0,1,1.169-1.288,3.226,3.226,0,0,1,1.729-.462,3.015,3.015,0,0,1,1.61.413,2.662,2.662,0,0,1,1.029,1.183,4.366,4.366,0,0,1,.357,1.848v.21h-5.32V9.7H171.7l-.364.518a2.915,2.915,0,0,0-.483-1.89,1.773,1.773,0,0,0-1.491-.658,1.946,1.946,0,0,0-1.6.721,3.1,3.1,0,0,0-.581,1.995,3.077,3.077,0,0,0,.609,2.072,2.238,2.238,0,0,0,1.785.7,3.483,3.483,0,0,0,1.183-.2,3.706,3.706,0,0,0,1.085-.623Zm4.508-5.306v-.9h4.522v.9Zm4.494,5.138v.966a3.543,3.543,0,0,1-.469.1,3.426,3.426,0,0,1-.511.035,2.154,2.154,0,0,1-1.561-.56,2.232,2.232,0,0,1-.581-1.68V5.152l1.134-.406V11.7a1.9,1.9,0,0,0,.161.868.888.888,0,0,0,.441.427,1.6,1.6,0,0,0,.63.119,2.313,2.313,0,0,0,.378-.028A2.524,2.524,0,0,0,181.216,12.992Zm1.4,1.008V3.7h1.134v4.69l-.182.14a2.416,2.416,0,0,1,.98-1.295,2.861,2.861,0,0,1,1.582-.441q2.534,0,2.534,2.786V14H187.53V9.632a2.17,2.17,0,0,0-.392-1.435,1.541,1.541,0,0,0-1.232-.455,2.092,2.092,0,0,0-1.568.6,2.224,2.224,0,0,0-.588,1.624V14Zm13.958-.84a3.282,3.282,0,0,1-1.183.686,4.446,4.446,0,0,1-1.477.252,3.858,3.858,0,0,1-1.883-.434,2.95,2.95,0,0,1-1.218-1.253,4.174,4.174,0,0,1-.427-1.953,4.177,4.177,0,0,1,.42-1.918,3.159,3.159,0,0,1,1.169-1.288A3.226,3.226,0,0,1,193.7,6.79a3.015,3.015,0,0,1,1.61.413,2.662,2.662,0,0,1,1.029,1.183,4.366,4.366,0,0,1,.357,1.848v.21h-5.32V9.7h4.676l-.364.518a2.915,2.915,0,0,0-.483-1.89,1.773,1.773,0,0,0-1.491-.658,1.946,1.946,0,0,0-1.6.721,3.1,3.1,0,0,0-.581,1.995,3.077,3.077,0,0,0,.609,2.072,2.238,2.238,0,0,0,1.785.7,3.483,3.483,0,0,0,1.183-.2,3.706,3.706,0,0,0,1.085-.623Zm1.848.84V8.932q0-.49-.021-.987t-.091-.987h1.078l.126,1.456-.14.1a2.36,2.36,0,0,1,.875-1.274,2.463,2.463,0,0,1,1.477-.448,2.311,2.311,0,0,1,1.589.5,2.468,2.468,0,0,1,.721,1.54l-.336-.182a2.393,2.393,0,0,1,.9-1.358,2.66,2.66,0,0,1,1.631-.5,2.167,2.167,0,0,1,1.75.693,3.173,3.173,0,0,1,.588,2.093V14h-1.134V9.632a2.36,2.36,0,0,0-.35-1.435,1.307,1.307,0,0,0-1.106-.455,1.731,1.731,0,0,0-1.393.6,2.45,2.45,0,0,0-.511,1.638V14h-1.134V9.632a2.325,2.325,0,0,0-.357-1.435,1.327,1.327,0,0,0-1.113-.455,1.747,1.747,0,0,0-1.407.6,2.45,2.45,0,0,0-.511,1.638V14Zm12.11-1.442h1.442V14h-1.442Z" transform="translate(655 1981.5)" fill="#f1f1f1" opacity="0.91"/>
      <g id="Group_1720" data-name="Group 1720" transform="translate(76.717 1088.5)" opacity="0">
        <g id="Display_Shape" data-name="Display Shape" transform="translate(300 752.904)" fill="rgba(255,255,255,0.35)">
          <path d="M 194.9090576171875 469.0964965820313 L 21.65659332275391 469.0964965820313 C 18.66565322875977 469.0964965820313 15.76394653320313 468.51025390625 13.03200531005859 467.3540649414063 C 10.39353561401367 466.2374877929688 8.024065017700195 464.6390075683594 5.989417552947998 462.6031799316406 C 3.954770565032959 460.5673522949219 2.3572998046875 458.196533203125 1.241358637809753 455.5566101074219 C 0.08588811010122299 452.8231811523438 -0.4999942481517792 449.9198913574219 -0.4999942481517792 446.9273071289063 L -0.4999942481517792 21.669189453125 C -0.4999942481517792 18.67666053771973 0.08588811010122299 15.77330684661865 1.241358637809753 13.03989505767822 C 2.3572998046875 10.39995384216309 3.954770565032959 8.029130935668945 5.989417552947998 5.993307113647461 C 8.024065017700195 3.957483530044556 10.39353561401367 2.359071731567383 13.03200531005859 1.242424726486206 C 15.76394653320313 0.08624829351902008 18.66565322875977 -0.499987006187439 21.65659332275391 -0.499987006187439 L 45.93312454223633 -0.499987006187439 L 47.66712188720703 -0.499987006187439 L 170.1533050537109 -0.499987006187439 L 172.1177062988281 -0.499987006187439 L 194.9090576171875 -0.499987006187439 C 197.9000091552734 -0.499987006187439 200.8017730712891 0.08624829351902008 203.5336456298828 1.242424726486206 C 206.172119140625 2.359071731567383 208.5415954589844 3.957483530044556 210.5762481689453 5.993307113647461 C 212.6108856201172 8.029130935668945 214.2083587646484 10.39995384216309 215.3242950439453 13.03989505767822 C 216.4797668457031 15.77330684661865 217.0656585693359 18.67666053771973 217.0656585693359 21.669189453125 L 217.0656585693359 446.9273071289063 C 217.0656585693359 449.9198913574219 216.4797668457031 452.8231811523438 215.3242950439453 455.5566101074219 C 214.2083587646484 458.196533203125 212.6108856201172 460.5673522949219 210.5762481689453 462.6031799316406 C 208.5415954589844 464.6390075683594 206.172119140625 466.2374877929688 203.5336456298828 467.3540649414063 C 200.8017730712891 468.51025390625 197.9000091552734 469.0964965820313 194.9090576171875 469.0964965820313 Z" stroke="none"/>
          <path d="M 21.65660095214844 0 C 9.695953369140625 0 0 9.70159912109375 0 21.669189453125 L 0 446.92724609375 C 0 458.8948364257813 9.695953369140625 468.5964965820313 21.65660095214844 468.5964965820313 L 194.9090576171875 468.5964965820313 C 206.8697052001953 468.5964965820313 216.5656585693359 458.8948364257813 216.5656585693359 446.92724609375 L 216.5656585693359 21.669189453125 C 216.5656585693359 9.70159912109375 206.8697052001953 0 194.9090576171875 0 L 172.1177062988281 0 L 170.1533050537109 0 L 47.66712951660156 0 L 45.93305969238281 0 L 21.65660095214844 0 M 21.65660095214844 -1 L 45.93305969238281 -1 L 47.66712951660156 -1 L 170.1533050537109 -1 L 172.1177062988281 -1 L 194.9090576171875 -1 C 197.9673004150391 -1 200.9346466064453 -0.40045166015625 203.7285308837891 0.781951904296875 C 206.4265899658203 1.92376708984375 208.8494720458984 3.558258056640625 210.9298858642578 5.63983154296875 C 213.0102996826172 7.721435546875 214.6437072753906 10.14566040039063 215.7848815917969 12.84518432617188 C 216.9665374755859 15.64053344726563 217.5656585693359 18.609375 217.5656585693359 21.669189453125 L 217.5656585693359 446.92724609375 C 217.5656585693359 449.987060546875 216.9665374755859 452.9559020996094 215.7848815917969 455.7512512207031 C 214.6437072753906 458.4507751464844 213.0102996826172 460.875 210.9298858642578 462.9566040039063 C 208.8494720458984 465.0382385253906 206.4265899658203 466.6726684570313 203.7285308837891 467.8145446777344 C 200.9346466064453 468.9969482421875 197.9673004150391 469.5964965820313 194.9090576171875 469.5964965820313 L 21.65660095214844 469.5964965820313 C 18.59835815429688 469.5964965820313 15.63101196289063 468.9969482421875 12.83712768554688 467.8145446777344 C 10.13906860351563 466.6726684570313 7.7161865234375 465.0382385253906 5.635772705078125 462.9566040039063 C 3.55535888671875 460.875 1.921951293945313 458.4507751464844 0.7807769775390625 455.7512512207031 C -0.40087890625 452.9559020996094 -1 449.987060546875 -1 446.92724609375 L -1 21.669189453125 C -1 18.609375 -0.40087890625 15.64053344726563 0.7807769775390625 12.84518432617188 C 1.921951293945313 10.14566040039063 3.55535888671875 7.721435546875 5.635772705078125 5.63983154296875 C 7.7161865234375 3.558258056640625 10.13906860351563 1.92376708984375 12.83712768554688 0.781951904296875 C 15.63101196289063 -0.40045166015625 18.59835815429688 -1 21.65660095214844 -1 Z" stroke="none" fill="#fff"/>
        </g>
        <g id="Group_795" data-name="Group 795" transform="translate(300 752.5)">
          <g transform="matrix(1, 0, 0, 1, -368, -166)" filter="url(#Rectangle_371)">
            <rect id="Rectangle_371-2" data-name="Rectangle 371" width="215.758" height="468.596" rx="26" transform="translate(368 166)" fill="#fff" opacity="0.17"/>
          </g>
        </g>
      </g>
      <g id="Mask_Group_47" data-name="Mask Group 47" clip-path="url(#clip-path-2)">
        <g id="Group_1804" data-name="Group 1804" transform="translate(632.151 1480.615)">
          <g id="Background-5" data-name="Background" transform="translate(0 633.675)">
            <g transform="matrix(1, 0, 0, 1, -623.43, -439.29)" filter="url(#Background)">
              <rect id="Background-6" data-name="Background" width="215" height="60" transform="translate(624 440)" fill="#0a101d"/>
            </g>
            <g transform="matrix(1, 0, 0, 1, -623.43, -439.29)" filter="url(#Background-2)">
              <path id="Background-7" data-name="Background" d="M0,0H216.131V60.073H0Z" transform="translate(623.43 439.29)" fill="#0a101d"/>
            </g>
          </g>
          <g id="Group_621" data-name="Group 621" transform="translate(0 556)">
            <path id="Path_1770" data-name="Path 1770" d="M0,0H216.131V81.265H0Z" fill="#0a0f1d"/>
            <rect id="Rectangle_749" data-name="Rectangle 749" width="33" height="13" transform="translate(156.565 42.385)" fill="#151d2e"/>
            <rect id="Rectangle_750" data-name="Rectangle 750" width="33" height="13" transform="translate(156.565 60.385)" fill="#151d2e"/>
            <path id="Path_1771" data-name="Path 1771" d="M3.067-4.247A1.482,1.482,0,0,0,4.487-5.07h.8a2.364,2.364,0,0,1-.808,1.078,2.327,2.327,0,0,1-1.426.412,2.37,2.37,0,0,1-1.8-.735A2.508,2.508,0,0,1,.578-6.108,2.551,2.551,0,0,1,1.225-7.9a2.327,2.327,0,0,1,1.783-.735A2.327,2.327,0,0,1,4.791-7.9a2.551,2.551,0,0,1,.647,1.793v.294H1.332A1.778,1.778,0,0,0,1.871-4.7,1.658,1.658,0,0,0,3.067-4.247ZM3.008-7.97a1.621,1.621,0,0,0-1.137.421A1.741,1.741,0,0,0,1.342-6.5H4.674a1.741,1.741,0,0,0-.529-1.048A1.621,1.621,0,0,0,3.008-7.97Zm7.152.2v-.784H10.9v4.752a2.08,2.08,0,0,1-.6,1.612,2.3,2.3,0,0,1-1.622.554,2.792,2.792,0,0,1-1.592-.392A1.942,1.942,0,0,1,6.3-3.071h.813a1.369,1.369,0,0,0,1.43.764A1.666,1.666,0,0,0,9.778-2.7a1.592,1.592,0,0,0,.382-1.156v-.676a1.991,1.991,0,0,1-1.754.872,2.235,2.235,0,0,1-1.724-.725,2.511,2.511,0,0,1-.647-1.764,2.511,2.511,0,0,1,.647-1.764A2.3,2.3,0,0,1,8.46-8.636,1.931,1.931,0,0,1,10.16-7.774ZM8.5-4.325a1.716,1.716,0,0,0,.715-.142,1.647,1.647,0,0,0,.539-.387A1.906,1.906,0,0,0,10.2-6.147a1.906,1.906,0,0,0-.441-1.293A1.614,1.614,0,0,0,8.5-7.97a1.637,1.637,0,0,0-1.274.529A1.878,1.878,0,0,0,6.77-6.147a1.878,1.878,0,0,0,.461,1.293A1.637,1.637,0,0,0,8.5-4.325ZM15.99-7.774v-.784h.735v4.752a2.08,2.08,0,0,1-.6,1.612A2.3,2.3,0,0,1,14.5-1.64a2.792,2.792,0,0,1-1.592-.392,1.942,1.942,0,0,1-.779-1.039h.813a1.369,1.369,0,0,0,1.43.764A1.666,1.666,0,0,0,15.608-2.7a1.592,1.592,0,0,0,.382-1.156v-.676a1.991,1.991,0,0,1-1.754.872,2.235,2.235,0,0,1-1.724-.725,2.511,2.511,0,0,1-.647-1.764,2.511,2.511,0,0,1,.647-1.764,2.3,2.3,0,0,1,1.778-.725A1.931,1.931,0,0,1,15.99-7.774ZM14.334-4.325a1.716,1.716,0,0,0,.715-.142,1.647,1.647,0,0,0,.539-.387,1.906,1.906,0,0,0,.441-1.293,1.906,1.906,0,0,0-.441-1.293,1.614,1.614,0,0,0-1.254-.529,1.637,1.637,0,0,0-1.274.529A1.878,1.878,0,0,0,12.6-6.147a1.878,1.878,0,0,0,.461,1.293A1.637,1.637,0,0,0,14.334-4.325Zm6.545-2.92q-.1-.764-1.23-.764T18.518-7.3a.5.5,0,0,0,.24.446,2.2,2.2,0,0,0,.6.25q.363.1.789.181a4.044,4.044,0,0,1,.789.235,1.672,1.672,0,0,1,.6.416,1.039,1.039,0,0,1,.24.725,1.251,1.251,0,0,1-.539,1.092,2.5,2.5,0,0,1-1.46.377,2.331,2.331,0,0,1-1.558-.49A1.5,1.5,0,0,1,17.656-5.2h.764a1.021,1.021,0,0,0,.764.911,1.709,1.709,0,0,0,.5.078,3.452,3.452,0,0,0,.465-.029,1.9,1.9,0,0,0,.421-.108.651.651,0,0,0,.47-.637.527.527,0,0,0-.24-.465,2.1,2.1,0,0,0-.6-.265q-.363-.1-.789-.186a4.281,4.281,0,0,1-.789-.23,1.682,1.682,0,0,1-.6-.4.988.988,0,0,1-.24-.705,1.222,1.222,0,0,1,.485-1.034A2.355,2.355,0,0,1,19.7-8.636a2.158,2.158,0,0,1,1.421.431,1.415,1.415,0,0,1,.5.96Z" transform="translate(31.454 54.954)" fill="#f1f1f1"/>
            <path id="Path_1773" data-name="Path 1773" d="M-28.3-8.284a1.9,1.9,0,0,1,.882.642,1.5,1.5,0,0,1,.314.906,1.918,1.918,0,0,1-.171.838,1.814,1.814,0,0,1-.475.612,2.306,2.306,0,0,1-1.558.539,2.465,2.465,0,0,1-1.577-.519A1.851,1.851,0,0,1-31.62-6.54h.745a1.177,1.177,0,0,0,.519.764,1.79,1.79,0,0,0,1.048.314,1.613,1.613,0,0,0,1.088-.353,1.08,1.08,0,0,0,.382-.852,1.116,1.116,0,0,0-.392-.862A1.449,1.449,0,0,0-29.239-7.9h-.745v-.676h.656a1.421,1.421,0,0,0,.892-.294.92.92,0,0,0,.382-.764.955.955,0,0,0-.323-.754,1.392,1.392,0,0,0-.946-.284,1.573,1.573,0,0,0-.98.274,1.05,1.05,0,0,0-.426.647h-.715a1.7,1.7,0,0,1,.6-1.117,2.153,2.153,0,0,1,1.479-.519,2.192,2.192,0,0,1,1.5.49,1.547,1.547,0,0,1,.549,1.235,1.431,1.431,0,0,1-.333.882A1.235,1.235,0,0,1-28.3-8.284Zm5.124-.656A1.983,1.983,0,0,1-21.42-9.8a2.19,2.19,0,0,1,1.715.735,2.573,2.573,0,0,1,.656,1.793,2.573,2.573,0,0,1-.656,1.793,2.247,2.247,0,0,1-1.764.735,1.944,1.944,0,0,1-1.7-.872v2.734h-.735V-9.724h.735Zm1.656-.2a1.551,1.551,0,0,0-1.254.549,1.958,1.958,0,0,0-.441,1.313,1.958,1.958,0,0,0,.441,1.313,1.551,1.551,0,0,0,1.254.549,1.628,1.628,0,0,0,1.274-.549,1.906,1.906,0,0,0,.461-1.313,1.906,1.906,0,0,0-.461-1.313A1.628,1.628,0,0,0-21.518-9.136Zm5.693,3.723a1.376,1.376,0,0,0,.833-.265,1.527,1.527,0,0,0,.529-.686h.794A2.234,2.234,0,0,1-14.493-5.2a2.484,2.484,0,0,1-1.489.451,2.274,2.274,0,0,1-1.754-.735,2.55,2.55,0,0,1-.656-1.793,2.55,2.55,0,0,1,.656-1.793A2.274,2.274,0,0,1-15.983-9.8a2.484,2.484,0,0,1,1.489.451,2.234,2.234,0,0,1,.823,1.166h-.794a1.527,1.527,0,0,0-.529-.686,1.376,1.376,0,0,0-.833-.265,1.948,1.948,0,0,0-.8.147,1.6,1.6,0,0,0-.554.4,1.881,1.881,0,0,0-.48,1.313,1.881,1.881,0,0,0,.48,1.313A1.72,1.72,0,0,0-15.826-5.413Z" transform="translate(196.098 56.12)" fill="rgba(241,241,241,0.5)"/>
            <path id="Path_1772" data-name="Path 1772" d="M3.145-5.629a1.376,1.376,0,0,0,.833-.265,1.527,1.527,0,0,0,.529-.686H5.3a2.234,2.234,0,0,1-.823,1.166,2.484,2.484,0,0,1-1.489.451A2.274,2.274,0,0,1,1.234-5.7,2.55,2.55,0,0,1,.578-7.491a2.55,2.55,0,0,1,.656-1.793,2.274,2.274,0,0,1,1.754-.735,2.484,2.484,0,0,1,1.489.451A2.234,2.234,0,0,1,5.3-8.4H4.507a1.527,1.527,0,0,0-.529-.686,1.376,1.376,0,0,0-.833-.265,1.948,1.948,0,0,0-.8.147,1.6,1.6,0,0,0-.554.4,1.881,1.881,0,0,0-.48,1.313,1.881,1.881,0,0,0,.48,1.313A1.72,1.72,0,0,0,3.145-5.629Zm3.8-6.271v2.724a2.459,2.459,0,0,1,.647-.6,1.581,1.581,0,0,1,.872-.245,2.324,2.324,0,0,1,.843.137,1.708,1.708,0,0,1,.617.412,2.114,2.114,0,0,1,.607,1.577v2.851H9.8V-7.873a1.5,1.5,0,0,0-.382-1.078,1.3,1.3,0,0,0-.99-.4,1.462,1.462,0,0,0-1.048.412,1.442,1.442,0,0,0-.431,1.078v2.822H6.212V-11.9Zm7,6.271a1.482,1.482,0,0,0,1.421-.823h.8a2.364,2.364,0,0,1-.808,1.078,2.327,2.327,0,0,1-1.426.412,2.37,2.37,0,0,1-1.8-.735,2.508,2.508,0,0,1-.676-1.793A2.551,2.551,0,0,1,12.1-9.284a2.327,2.327,0,0,1,1.783-.735,2.327,2.327,0,0,1,1.783.735,2.551,2.551,0,0,1,.647,1.793V-7.2H12.208a1.778,1.778,0,0,0,.539,1.117A1.658,1.658,0,0,0,13.942-5.629Zm-.059-3.723a1.621,1.621,0,0,0-1.137.421,1.741,1.741,0,0,0-.529,1.048h3.331a1.741,1.741,0,0,0-.529-1.048A1.621,1.621,0,0,0,13.884-9.353ZM19.4-5.629a1.482,1.482,0,0,0,1.421-.823h.8a2.364,2.364,0,0,1-.808,1.078,2.327,2.327,0,0,1-1.426.412,2.37,2.37,0,0,1-1.8-.735,2.508,2.508,0,0,1-.676-1.793,2.551,2.551,0,0,1,.647-1.793,2.327,2.327,0,0,1,1.783-.735,2.327,2.327,0,0,1,1.783.735,2.551,2.551,0,0,1,.647,1.793V-7.2H17.666A1.778,1.778,0,0,0,18.2-6.08,1.658,1.658,0,0,0,19.4-5.629Zm-.059-3.723a1.621,1.621,0,0,0-1.137.421,1.741,1.741,0,0,0-.529,1.048h3.331a1.741,1.741,0,0,0-.529-1.048A1.621,1.621,0,0,0,19.341-9.353Zm6.212.725q-.1-.764-1.23-.764t-1.132.705a.5.5,0,0,0,.24.446,2.2,2.2,0,0,0,.6.25q.363.1.789.181a4.044,4.044,0,0,1,.789.235,1.672,1.672,0,0,1,.6.416,1.039,1.039,0,0,1,.24.725,1.251,1.251,0,0,1-.539,1.092,2.5,2.5,0,0,1-1.46.377,2.331,2.331,0,0,1-1.558-.49,1.5,1.5,0,0,1-.568-1.127h.764a1.021,1.021,0,0,0,.764.911,1.709,1.709,0,0,0,.5.078,3.452,3.452,0,0,0,.465-.029,1.9,1.9,0,0,0,.421-.108.651.651,0,0,0,.47-.637.527.527,0,0,0-.24-.465,2.1,2.1,0,0,0-.6-.265q-.363-.1-.789-.186a4.281,4.281,0,0,1-.789-.23,1.682,1.682,0,0,1-.6-.4.988.988,0,0,1-.24-.705,1.222,1.222,0,0,1,.485-1.034,2.355,2.355,0,0,1,1.435-.367,2.158,2.158,0,0,1,1.421.431,1.415,1.415,0,0,1,.5.96Zm4.027,3A1.482,1.482,0,0,0,31-6.452h.8A2.364,2.364,0,0,1,31-5.375a2.327,2.327,0,0,1-1.426.412,2.37,2.37,0,0,1-1.8-.735,2.508,2.508,0,0,1-.676-1.793,2.551,2.551,0,0,1,.647-1.793,2.327,2.327,0,0,1,1.783-.735,2.327,2.327,0,0,1,1.783.735,2.551,2.551,0,0,1,.647,1.793V-7.2H27.846a1.778,1.778,0,0,0,.539,1.117A1.658,1.658,0,0,0,29.58-5.629Zm-.059-3.723a1.621,1.621,0,0,0-1.137.421,1.741,1.741,0,0,0-.529,1.048h3.331a1.741,1.741,0,0,0-.529-1.048A1.621,1.621,0,0,0,29.521-9.353Z" transform="translate(31.454 74.78)" fill="#f1f1f1"/>
            <path id="Path_1774" data-name="Path 1774" d="M-37.384-11.312v6.486h-.735v-5.781h-1.372v-.705ZM-35-8.069q0-3.321,2.273-3.321a1.977,1.977,0,0,1,1.813,1.039,4.71,4.71,0,0,1,.461,2.283q0,3.321-2.273,3.321T-35-8.069Zm2.273,2.606q1.293-.029,1.479-1.7a7.191,7.191,0,0,0,.059-.911,4.129,4.129,0,0,0-.363-1.96,1.246,1.246,0,0,0-1.176-.647,1.246,1.246,0,0,0-1.176.647,4.128,4.128,0,0,0-.363,1.96,4.128,4.128,0,0,0,.363,1.96A1.246,1.246,0,0,0-32.73-5.462Zm3.116-2.606q0-3.321,2.273-3.321a1.977,1.977,0,0,1,1.813,1.039,4.71,4.71,0,0,1,.461,2.283q0,3.321-2.273,3.321T-29.615-8.069Zm2.273,2.606q1.293-.029,1.479-1.7a7.19,7.19,0,0,0,.059-.911,4.129,4.129,0,0,0-.363-1.96,1.246,1.246,0,0,0-1.176-.647,1.246,1.246,0,0,0-1.176.647,4.128,4.128,0,0,0-.363,1.96,4.128,4.128,0,0,0,.363,1.96A1.246,1.246,0,0,0-27.342-5.462ZM-18.1-8.941v-.784h.735v4.752a2.08,2.08,0,0,1-.6,1.612,2.3,2.3,0,0,1-1.622.554A2.792,2.792,0,0,1-21.184-3.2a1.942,1.942,0,0,1-.779-1.039h.813a1.369,1.369,0,0,0,1.43.764,1.666,1.666,0,0,0,1.235-.392A1.592,1.592,0,0,0-18.1-5.021V-5.7a1.991,1.991,0,0,1-1.754.872A2.235,2.235,0,0,1-21.58-5.55a2.511,2.511,0,0,1-.647-1.764,2.511,2.511,0,0,1,.647-1.764A2.3,2.3,0,0,1-19.8-9.8,1.931,1.931,0,0,1-18.1-8.941Zm-1.656,3.449a1.716,1.716,0,0,0,.715-.142,1.647,1.647,0,0,0,.539-.387,1.906,1.906,0,0,0,.441-1.293A1.906,1.906,0,0,0-18.5-8.607a1.614,1.614,0,0,0-1.254-.529,1.637,1.637,0,0,0-1.274.529,1.878,1.878,0,0,0-.461,1.293,1.878,1.878,0,0,0,.461,1.293A1.637,1.637,0,0,0-19.758-5.492Z" transform="translate(199.433 74.564)" fill="rgba(241,241,241,0.5)"/>
            <g transform="matrix(1, 0, 0, 1, -623.43, -361.62)" filter="url(#separator)">
              <path id="separator-3" data-name="separator" d="M-1687,304h170.023" transform="translate(2333.49 89.31)" fill="none" stroke="#f1f1f1" stroke-linecap="round" stroke-width="0.5"/>
            </g>
            <g transform="matrix(1, 0, 0, 1, -623.43, -361.62)" filter="url(#separator-2)">
              <path id="separator-4" data-name="separator" d="M-1687,304h216.131" transform="translate(2310.43 150.41)" fill="none" stroke="#f1f1f1" stroke-linecap="round" stroke-width="0.2" opacity="0.5"/>
            </g>
            <path id="arrow" d="M722.189,937.747l2.323,2.348-2.323,2.519" transform="translate(-541.971 -919.45)" fill="none" stroke="#f1f1f1" stroke-linecap="round" stroke-linejoin="round" stroke-width="1"/>
            <path id="Title2" d="M1.986-13.485A3.813,3.813,0,0,1,3.28-14.4a3.853,3.853,0,0,1,1.572-.336,4.957,4.957,0,0,1,1.407.178,4.311,4.311,0,0,1,1.078.482,3.836,3.836,0,0,1,1.471,1.724H7.768A2.745,2.745,0,0,0,6.71-13.428a3.055,3.055,0,0,0-1.541-.387,3.737,3.737,0,0,0-1.471.26,2.937,2.937,0,0,0-1.027.716,3.4,3.4,0,0,0-.862,2.4,3.405,3.405,0,0,0,.85,2.4,3.088,3.088,0,0,0,2.384.976A3.062,3.062,0,0,0,7.1-7.8a2.544,2.544,0,0,0,.913-2.041H4.941v-.862H8.884v4.463H8.009V-7.728a3.478,3.478,0,0,1-2,1.458,4.889,4.889,0,0,1-1.236.127,3.753,3.753,0,0,1-1.528-.336A3.813,3.813,0,0,1,1.948-7.4a4.334,4.334,0,0,1-1.09-3.043A4.3,4.3,0,0,1,1.986-13.485Zm11.716.8v.951h-.114a2.031,2.031,0,0,0-1.674.824,2.975,2.975,0,0,0-.609,1.877v2.79h-.951v-6.34h.951v1.56a2.316,2.316,0,0,1,1.319-1.458,2.309,2.309,0,0,1,1.014-.2Zm3.779,0a3.012,3.012,0,0,1,2.308.951,3.3,3.3,0,0,1,.837,2.32,3.3,3.3,0,0,1-.837,2.32,3.012,3.012,0,0,1-2.308.951,3.012,3.012,0,0,1-2.308-.951,3.3,3.3,0,0,1-.837-2.32,3.3,3.3,0,0,1,.837-2.32A3.012,3.012,0,0,1,17.481-12.686Zm0,5.68a2.007,2.007,0,0,0,1.623-.71,2.534,2.534,0,0,0,.571-1.7,2.534,2.534,0,0,0-.571-1.7,2.007,2.007,0,0,0-1.623-.71,2.007,2.007,0,0,0-1.623.71,2.534,2.534,0,0,0-.571,1.7,2.534,2.534,0,0,0,.571,1.7A2.007,2.007,0,0,0,17.481-7.005Zm7.329,0a1.781,1.781,0,0,0,1.078-.342,1.976,1.976,0,0,0,.685-.888H27.6a2.892,2.892,0,0,1-1.065,1.509,3.214,3.214,0,0,1-1.927.583,2.942,2.942,0,0,1-2.27-.951,3.3,3.3,0,0,1-.85-2.32,3.3,3.3,0,0,1,.85-2.32,2.942,2.942,0,0,1,2.27-.951,3.214,3.214,0,0,1,1.927.583A2.892,2.892,0,0,1,27.6-10.594H26.572a1.976,1.976,0,0,0-.685-.888,1.781,1.781,0,0,0-1.078-.342,2.521,2.521,0,0,0-1.033.19,2.074,2.074,0,0,0-.716.52,2.434,2.434,0,0,0-.621,1.7,2.434,2.434,0,0,0,.621,1.7A2.225,2.225,0,0,0,24.81-7.005Zm6.8,0A1.918,1.918,0,0,0,33.445-8.07h1.04a3.06,3.06,0,0,1-1.046,1.395,3.012,3.012,0,0,1-1.845.533,3.068,3.068,0,0,1-2.333-.951,3.245,3.245,0,0,1-.875-2.32,3.3,3.3,0,0,1,.837-2.32,3.012,3.012,0,0,1,2.308-.951,3.012,3.012,0,0,1,2.308.951,3.3,3.3,0,0,1,.837,2.32v.38H29.362a2.3,2.3,0,0,0,.7,1.445A2.145,2.145,0,0,0,31.606-7.005Zm-.076-4.818a2.1,2.1,0,0,0-1.471.545,2.252,2.252,0,0,0-.685,1.357h4.311A2.253,2.253,0,0,0,33-11.278,2.1,2.1,0,0,0,31.53-11.824Zm7.659-.862v.951h-.114a2.031,2.031,0,0,0-1.674.824,2.975,2.975,0,0,0-.609,1.877v2.79h-.951v-6.34h.951v1.56a2.316,2.316,0,0,1,1.319-1.458,2.309,2.309,0,0,1,1.014-.2Z" transform="translate(31.048 30.451)" fill="#f1f1f1"/>
          </g>
          <g id="Controls_-_Segmented_Control_-_Dark_-_3_Buttons" data-name="Controls - Segmented Control - Dark - 3 Buttons" transform="translate(74.925 662.625)">
            <g transform="matrix(1, 0, 0, 1, -698.36, -468.24)" filter="url(#Background-3)">
              <g id="Background-8" data-name="Background" transform="translate(698.36 468.24)" fill="#151d2e">
                <path d="M 61.09299468994141 18.29316329956055 L 5.18714427947998 18.29316329956055 C 2.409654140472412 18.29316329956055 0.1500042378902435 16.03351402282715 0.1500042378902435 13.25602340698242 L 0.1500042378902435 5.187143325805664 C 0.1500042378902435 2.409653425216675 2.409654140472412 0.1500033736228943 5.18714427947998 0.1500033736228943 L 61.09299468994141 0.1500033736228943 C 63.8704833984375 0.1500033736228943 66.13013458251953 2.409653425216675 66.13013458251953 5.187143325805664 L 66.13013458251953 13.25602340698242 C 66.13013458251953 16.03351402282715 63.8704833984375 18.29316329956055 61.09299468994141 18.29316329956055 Z" stroke="none"/>
                <path d="M 5.187145233154297 0.3000030517578125 C 2.492362976074219 0.3000030517578125 0.2999954223632813 2.492362976074219 0.2999954223632813 5.187143325805664 L 0.2999954223632813 13.25602340698242 C 0.2999954223632813 15.95080375671387 2.492362976074219 18.14316368103027 5.187145233154297 18.14316368103027 L 61.09299468994141 18.14316368103027 C 63.78776550292969 18.14316368103027 65.98012542724609 15.95080375671387 65.98012542724609 13.25602340698242 L 65.98012542724609 5.187143325805664 C 65.98012542724609 2.492362976074219 63.78776550292969 0.3000030517578125 61.09299468994141 0.3000030517578125 L 5.187145233154297 0.3000030517578125 M 5.187145233154297 3.814697265625e-06 L 61.09299468994141 3.814697265625e-06 C 63.95775604248047 3.814697265625e-06 66.28012084960938 2.322362899780273 66.28012084960938 5.187143325805664 L 66.28012084960938 13.25602340698242 C 66.28012084960938 16.12080383300781 63.95775604248047 18.44316291809082 61.09299468994141 18.44316291809082 L 5.187145233154297 18.44316291809082 C 2.322364807128906 18.44316291809082 -7.62939453125e-06 16.12080383300781 -7.62939453125e-06 13.25602340698242 L -7.62939453125e-06 5.187143325805664 C -7.62939453125e-06 2.322362899780273 2.322364807128906 3.814697265625e-06 5.187145233154297 3.814697265625e-06 Z" stroke="none" fill="#000714"/>
              </g>
            </g>
            <g id="Option_1" data-name="Option 1" transform="translate(17.441 6.589)">
              <path id="Path_1775" data-name="Path 1775" d="M-29.068-4a1.634,1.634,0,0,1-.877-.236,1.539,1.539,0,0,1-.588-.674,2.4,2.4,0,0,1-.206-1.03,2.432,2.432,0,0,1,.21-1.045,1.665,1.665,0,0,1,.588-.7,1.542,1.542,0,0,1,.873-.251,1.476,1.476,0,0,1,.835.236,1.169,1.169,0,0,1,.483.656l-.09.052v-.847h.922v3.784h-.922v-.854l.09.03a1.136,1.136,0,0,1-.483.648A1.512,1.512,0,0,1-29.068-4Zm.255-.719a.864.864,0,0,0,.719-.322,1.443,1.443,0,0,0,.255-.914,1.454,1.454,0,0,0-.255-.925.868.868,0,0,0-.719-.318.885.885,0,0,0-.734.33,1.459,1.459,0,0,0-.262.929,1.384,1.384,0,0,0,.262.9A.9.9,0,0,0-28.813-4.72Zm6.563.667h-.922v-.959l.09.135a1.136,1.136,0,0,1-.483.648A1.512,1.512,0,0,1-24.4-4a1.577,1.577,0,0,1-.873-.244,1.609,1.609,0,0,1-.588-.693,2.438,2.438,0,0,1-.21-1.041,2.425,2.425,0,0,1,.206-1.034,1.56,1.56,0,0,1,.588-.682,1.614,1.614,0,0,1,.877-.24,1.459,1.459,0,0,1,.835.24,1.187,1.187,0,0,1,.483.644l-.1.112v-2.63h.937Zm-1.9-.667a.864.864,0,0,0,.719-.322,1.456,1.456,0,0,0,.255-.922,1.443,1.443,0,0,0-.255-.914.864.864,0,0,0-.719-.322.9.9,0,0,0-.734.318,1.384,1.384,0,0,0-.262.9,1.459,1.459,0,0,0,.262.929A.885.885,0,0,0-24.145-4.72Zm6.563.667H-18.5v-.959l.09.135a1.136,1.136,0,0,1-.483.648A1.512,1.512,0,0,1-19.732-4a1.577,1.577,0,0,1-.873-.244,1.609,1.609,0,0,1-.588-.693,2.438,2.438,0,0,1-.21-1.041A2.425,2.425,0,0,1-21.2-7.013a1.56,1.56,0,0,1,.588-.682,1.614,1.614,0,0,1,.877-.24,1.459,1.459,0,0,1,.835.24,1.187,1.187,0,0,1,.483.644l-.1.112v-2.63h.937Zm-1.9-.667a.864.864,0,0,0,.719-.322,1.456,1.456,0,0,0,.255-.922,1.443,1.443,0,0,0-.255-.914.864.864,0,0,0-.719-.322.9.9,0,0,0-.734.318,1.384,1.384,0,0,0-.262.9,1.459,1.459,0,0,0,.262.929A.885.885,0,0,0-19.477-4.72Zm4.555-2.413v-.7h2.667v.7Zm2.667,2.3v.742a1.456,1.456,0,0,1-.3.071A2.448,2.448,0,0,1-12.861-4a1.308,1.308,0,0,1-.985-.36,1.427,1.427,0,0,1-.348-1.034V-8.759l.937-.315V-5.44a.819.819,0,0,0,.082.4.463.463,0,0,0,.221.206.776.776,0,0,0,.311.06,1.138,1.138,0,0,0,.187-.015Q-12.367-4.8-12.254-4.833ZM-9.864-4a2.071,2.071,0,0,1-1.023-.24,1.637,1.637,0,0,1-.663-.678,2.2,2.2,0,0,1-.232-1.045,2.232,2.232,0,0,1,.232-1.045,1.626,1.626,0,0,1,.663-.686,2.071,2.071,0,0,1,1.023-.24,2.039,2.039,0,0,1,1.008.24,1.65,1.65,0,0,1,.667.686,2.2,2.2,0,0,1,.236,1.045A2.175,2.175,0,0,1-8.19-4.919a1.661,1.661,0,0,1-.667.678A2.039,2.039,0,0,1-9.864-4Zm0-.719a.867.867,0,0,0,.716-.311A1.464,1.464,0,0,0-8.9-5.964a1.45,1.45,0,0,0-.251-.925A.867.867,0,0,0-9.864-7.2a.9.9,0,0,0-.731.311,1.42,1.42,0,0,0-.258.925,1.448,1.448,0,0,0,.255.933A.9.9,0,0,0-9.864-4.72Zm4.825.667V-9.568H-4.1v5.515Zm1.978,0V-7.837h.937v3.784Zm-.045-5.5h1.041v.922H-3.106ZM.311-4a2.572,2.572,0,0,1-1.633-.472l.262-.659A2.189,2.189,0,0,0-.409-4.8a2.4,2.4,0,0,0,.734.112A1,1,0,0,0,.85-4.8a.352.352,0,0,0,.18-.315A.331.331,0,0,0,.9-5.383a1.176,1.176,0,0,0-.435-.176L-.161-5.7A1.5,1.5,0,0,1-.937-6.08.933.933,0,0,1-1.2-6.758,1.007,1.007,0,0,1-1-7.369a1.279,1.279,0,0,1,.547-.416,2.072,2.072,0,0,1,.817-.15,2.47,2.47,0,0,1,.779.124,1.959,1.959,0,0,1,.652.356l-.27.644a2.136,2.136,0,0,0-.581-.322,1.752,1.752,0,0,0-.588-.1.9.9,0,0,0-.5.12.376.376,0,0,0-.18.33.335.335,0,0,0,.109.262.86.86,0,0,0,.378.157L.8-6.211a1.585,1.585,0,0,1,.82.386.962.962,0,0,1,.258.7.961.961,0,0,1-.42.82A1.921,1.921,0,0,1,.311-4ZM2.2-7.133v-.7H4.866v.7Zm2.667,2.3v.742a1.456,1.456,0,0,1-.3.071A2.448,2.448,0,0,1,4.259-4a1.308,1.308,0,0,1-.985-.36,1.427,1.427,0,0,1-.348-1.034V-8.759l.937-.315V-5.44a.819.819,0,0,0,.082.4.463.463,0,0,0,.221.206.776.776,0,0,0,.311.06,1.138,1.138,0,0,0,.187-.015Q4.754-4.8,4.866-4.833Z" transform="translate(30.738 9.568)" fill="#b15ea2"/>
            </g>
          </g>
        </g>
      </g>
      <g id="Group_1805" data-name="Group 1805" transform="translate(12.658 24.552)">
        <g transform="matrix(1, 0, 0, 1, -3.94, 1650.45)" filter="url(#Background-4)">
          <g id="Background-9" data-name="Background" transform="translate(644 558.34)" fill="#151d2e">
            <path d="M 170.4086608886719 22.96039199829102 L 4.59185266494751 22.96039199829102 C 2.142613649368286 22.96039199829102 0.1500050127506256 20.11189079284668 0.1500050127506256 16.61058616638184 L 0.1500050127506256 6.499804496765137 C 0.1500050127506256 2.998500108718872 2.142613649368286 0.1500001549720764 4.59185266494751 0.1500001549720764 L 170.4086608886719 0.1500001549720764 C 172.8578948974609 0.1500001549720764 174.8504791259766 2.998500108718872 174.8504791259766 6.499804496765137 L 174.8504791259766 16.61058616638184 C 174.8504791259766 20.11189079284668 172.8578948974609 22.96039199829102 170.4086608886719 22.96039199829102 Z" stroke="none"/>
            <path d="M 4.591827392578125 0.2999992370605469 C 2.225311279296875 0.2999992370605469 0.3000030517578125 3.081216812133789 0.3000030517578125 6.499805450439453 L 0.3000030517578125 16.61058807373047 C 0.3000030517578125 20.0291748046875 2.225311279296875 22.81039237976074 4.591827392578125 22.81039237976074 L 170.4086303710938 22.81039237976074 C 172.7751770019531 22.81039237976074 174.7004852294922 20.0291748046875 174.7004852294922 16.61058807373047 L 174.7004852294922 6.499805450439453 C 174.7004852294922 3.081216812133789 172.7751770019531 0.2999992370605469 170.4086303710938 0.2999992370605469 L 4.591827392578125 0.2999992370605469 M 4.591827392578125 0 L 170.4086303710938 0 C 172.9446411132813 0 175.00048828125 2.910064697265625 175.00048828125 6.499805450439453 L 175.00048828125 16.61058807373047 C 175.00048828125 20.20032691955566 172.9446411132813 23.11039161682129 170.4086303710938 23.11039161682129 L 4.591827392578125 23.11039161682129 C 2.05584716796875 23.11039161682129 0 20.20032691955566 0 16.61058807373047 L 0 6.499805450439453 C 0 2.910064697265625 2.05584716796875 0 4.591827392578125 0 Z" stroke="none" fill="#000714"/>
          </g>
        </g>
        <path id="Separator-5" data-name="Separator" d="M0,0H.722V11.555H0Z" transform="translate(727.198 2214.563)" fill="#8e8e93" opacity="0.301"/>
        <path id="Separator-6" data-name="Separator" d="M0,0H.722V11.555H0Z" transform="translate(727.198 2214.563)" fill="#8e8e93" opacity="0.301"/>
        <path id="Mask" d="M0,0H83.053V20.222H0Z" transform="translate(730.087 2210.23)" fill="#f1f1f1" opacity="0"/>
        <path id="Path_1777" data-name="Path 1777" d="M-18.434-6.517V-7.4h3.342v.883Zm3.342,2.882V-2.7a1.824,1.824,0,0,1-.371.089,3.067,3.067,0,0,1-.39.023,1.639,1.639,0,0,1-1.235-.451,1.788,1.788,0,0,1-.437-1.3V-8.554l1.174-.394v4.553a1.027,1.027,0,0,0,.1.5.58.58,0,0,0,.277.258.972.972,0,0,0,.39.075,1.426,1.426,0,0,0,.235-.019Q-15.232-3.6-15.092-3.634Zm.836.976v-6.91h1.174v3.126l-.141.009a1.7,1.7,0,0,1,.671-.812,1.908,1.908,0,0,1,1.028-.277q1.69,0,1.69,1.953v2.91h-1.174V-5.522a1.254,1.254,0,0,0-.216-.812.82.82,0,0,0-.667-.258,1.138,1.138,0,0,0-.868.343,1.265,1.265,0,0,0-.324.906v2.685Zm5.689,0v-3.4q0-.329-.014-.671A6.685,6.685,0,0,0-8.642-7.4h1.108L-7.4-6.179l-.131-.066a1.472,1.472,0,0,1,.554-.948A1.6,1.6,0,0,1-6-7.512a1.731,1.731,0,0,1,.263.019.986.986,0,0,1,.216.056l-.019,1.07a1.586,1.586,0,0,0-.62-.122,1.273,1.273,0,0,0-.69.169,1.073,1.073,0,0,0-.4.455,1.479,1.479,0,0,0-.136.643v2.563Zm5.783.066a2.6,2.6,0,0,1-1.282-.3,2.051,2.051,0,0,1-.831-.85,2.762,2.762,0,0,1-.291-1.31A2.8,2.8,0,0,1-4.9-6.362a2.038,2.038,0,0,1,.831-.859,2.6,2.6,0,0,1,1.282-.3,2.555,2.555,0,0,1,1.263.3,2.067,2.067,0,0,1,.836.859,2.76,2.76,0,0,1,.3,1.31,2.725,2.725,0,0,1-.3,1.31,2.081,2.081,0,0,1-.836.85A2.555,2.555,0,0,1-2.783-2.592Zm0-.9a1.086,1.086,0,0,0,.9-.39,1.834,1.834,0,0,0,.315-1.169,1.817,1.817,0,0,0-.315-1.159,1.086,1.086,0,0,0-.9-.39,1.124,1.124,0,0,0-.915.39,1.779,1.779,0,0,0-.324,1.159A1.815,1.815,0,0,0-3.7-3.883,1.121,1.121,0,0,0-2.783-3.494ZM1.9-2.658.043-7.4H1.254L2.587-3.728H2.352L3.695-7.4h.854L5.882-3.728H5.667L7-7.4H8.136L6.277-2.658H5.253L3.808-6.479h.535L2.925-2.658Z" transform="translate(777.095 2226.61)" fill="#f1f1f1" opacity="0.72"/>
        <g id="Mask-2" data-name="Mask" transform="translate(641.256 2210.23)" fill="#040810" opacity="0.5">
          <path d="M5.055,0H79.442A5.055,5.055,0,0,1,84.5,5.055V15.166a5.055,5.055,0,0,1-5.055,5.055H5.055A5.055,5.055,0,0,1,0,15.166V5.055A5.055,5.055,0,0,1,5.055,0Z" stroke="none"/>
          <path d="M 5.055397033691406 0.4999961853027344 C 2.543540954589844 0.4999961853027344 0.4999923706054688 2.543540954589844 0.4999923706054688 5.05539608001709 L 0.4999923706054688 15.1661958694458 C 0.4999923706054688 17.67805099487305 2.543540954589844 19.72159576416016 5.055397033691406 19.72159576416016 L 79.44197082519531 19.72159576416016 C 81.95381927490234 19.72159576416016 83.99736022949219 17.67805099487305 83.99736022949219 15.1661958694458 L 83.99736022949219 5.05539608001709 C 83.99736022949219 2.543540954589844 81.95381927490234 0.4999961853027344 79.44197082519531 0.4999961853027344 L 5.055397033691406 0.4999961853027344 M 5.055397033691406 -3.814697265625e-06 L 79.44197082519531 -3.814697265625e-06 C 82.23399353027344 -3.814697265625e-06 84.49736022949219 2.263374328613281 84.49736022949219 5.05539608001709 L 84.49736022949219 15.1661958694458 C 84.49736022949219 17.95821762084961 82.23399353027344 20.22159576416016 79.44197082519531 20.22159576416016 L 5.055397033691406 20.22159576416016 C 2.263381958007813 20.22159576416016 -7.62939453125e-06 17.95821762084961 -7.62939453125e-06 15.1661958694458 L -7.62939453125e-06 5.05539608001709 C -7.62939453125e-06 2.263374328613281 2.263381958007813 -3.814697265625e-06 5.055397033691406 -3.814697265625e-06 Z" stroke="none" fill="rgba(0,0,0,0.04)"/>
        </g>
        <path id="Path_1779" data-name="Path 1779" d="M-5.249-2.945a2.41,2.41,0,0,1-.831.437,3.317,3.317,0,0,1-1,.155,2.84,2.84,0,0,1-1.328-.291,2.016,2.016,0,0,1-.859-.845,2.718,2.718,0,0,1-.3-1.314A2.754,2.754,0,0,1-9.277-6.1a2.176,2.176,0,0,1,.807-.873,2.246,2.246,0,0,1,1.192-.315A2.123,2.123,0,0,1-6.151-7a1.9,1.9,0,0,1,.728.822,2.89,2.89,0,0,1,.258,1.267v.178H-8.535l.009-.629H-5.86l-.319.319a1.637,1.637,0,0,0-.268-1.042.955.955,0,0,0-.8-.357,1.042,1.042,0,0,0-.873.4A1.826,1.826,0,0,0-8.432-4.9a1.863,1.863,0,0,0,.347,1.244,1.32,1.32,0,0,0,1.052.4,2.322,2.322,0,0,0,.756-.127,2.417,2.417,0,0,0,.69-.371Zm2.957.591a2.047,2.047,0,0,1-1.1-.3,1.929,1.929,0,0,1-.737-.845,3.007,3.007,0,0,1-.258-1.291A3.047,3.047,0,0,1-4.123-6.1a2.086,2.086,0,0,1,.737-.873,1.933,1.933,0,0,1,1.094-.315,1.85,1.85,0,0,1,1.047.3,1.465,1.465,0,0,1,.606.822L-.752-6.1V-7.161H.4V-2.42H-.752V-3.49l.113.038a1.423,1.423,0,0,1-.606.812A1.9,1.9,0,0,1-2.292-2.354Zm.319-.9a1.083,1.083,0,0,0,.9-.4A1.808,1.808,0,0,0-.752-4.8a1.821,1.821,0,0,0-.319-1.159,1.088,1.088,0,0,0-.9-.4,1.109,1.109,0,0,0-.92.413,1.828,1.828,0,0,0-.329,1.164,1.735,1.735,0,0,0,.329,1.131A1.126,1.126,0,0,0-1.973-3.255Zm3.1-3.023v-.883H4.468v.883ZM4.468-3.4v.929a1.824,1.824,0,0,1-.371.089,3.067,3.067,0,0,1-.39.023A1.639,1.639,0,0,1,2.473-2.8a1.788,1.788,0,0,1-.437-1.3V-8.316L3.21-8.71v4.553a1.027,1.027,0,0,0,.1.5A.58.58,0,0,0,3.59-3.4a.972.972,0,0,0,.39.075,1.426,1.426,0,0,0,.235-.019Q4.327-3.359,4.468-3.4Z" transform="translate(686.524 2226.372)" fill="#f1f1f1"/>
        <path id="Path_1780" data-name="Path 1780" d="M-57.307-2.658v-3.4q0-.329-.014-.662t-.061-.662h.723l.1,1.164-.1-.028a1.475,1.475,0,0,1,.568-.934,1.638,1.638,0,0,1,.981-.315,1.781,1.781,0,0,1,.23.014,1.277,1.277,0,0,1,.2.042l-.019.695a1.512,1.512,0,0,0-.5-.075,1.3,1.3,0,0,0-.784.216,1.257,1.257,0,0,0-.432.549,1.832,1.832,0,0,0-.136.7v2.695Zm7.173-.563a2.2,2.2,0,0,1-.793.46,2.982,2.982,0,0,1-.99.169,2.587,2.587,0,0,1-1.263-.291A1.978,1.978,0,0,1-54-3.724a2.8,2.8,0,0,1-.286-1.31A2.8,2.8,0,0,1-54-6.32a2.118,2.118,0,0,1,.784-.864,2.163,2.163,0,0,1,1.159-.31,2.022,2.022,0,0,1,1.08.277,1.785,1.785,0,0,1,.69.793,2.928,2.928,0,0,1,.239,1.239v.141h-3.568v-.5h3.136l-.244.347a1.955,1.955,0,0,0-.324-1.267,1.189,1.189,0,0,0-1-.441,1.3,1.3,0,0,0-1.075.484,2.077,2.077,0,0,0-.39,1.338,2.063,2.063,0,0,0,.408,1.39,1.5,1.5,0,0,0,1.2.469,2.336,2.336,0,0,0,.793-.136,2.485,2.485,0,0,0,.728-.418Zm1.239.563v-3.4q0-.329-.014-.662t-.061-.662h.723l.084.976-.094.066a1.583,1.583,0,0,1,.587-.854,1.651,1.651,0,0,1,.991-.3,1.55,1.55,0,0,1,1.066.338,1.655,1.655,0,0,1,.484,1.033l-.225-.122a1.6,1.6,0,0,1,.606-.911,1.784,1.784,0,0,1,1.094-.338,1.453,1.453,0,0,1,1.174.465,2.128,2.128,0,0,1,.394,1.4v2.967h-.76V-5.587a1.583,1.583,0,0,0-.235-.962.877.877,0,0,0-.742-.305,1.161,1.161,0,0,0-.934.4,1.643,1.643,0,0,0-.343,1.1v2.695h-.76V-5.587A1.559,1.559,0,0,0-46.1-6.55a.89.89,0,0,0-.746-.305,1.172,1.172,0,0,0-.944.4,1.643,1.643,0,0,0-.343,1.1v2.695Zm10.205.066a2.252,2.252,0,0,1-1.178-.3,2.03,2.03,0,0,1-.779-.85,2.856,2.856,0,0,1-.277-1.3,2.863,2.863,0,0,1,.277-1.3,2.024,2.024,0,0,1,.779-.854,2.252,2.252,0,0,1,1.178-.3,2.252,2.252,0,0,1,1.178.3,2.024,2.024,0,0,1,.779.854,2.863,2.863,0,0,1,.277,1.3,2.856,2.856,0,0,1-.277,1.3,2.03,2.03,0,0,1-.779.85A2.252,2.252,0,0,1-38.689-2.592Zm0-.629a1.31,1.31,0,0,0,1.075-.465,2.1,2.1,0,0,0,.38-1.357,2.067,2.067,0,0,0-.385-1.343,1.308,1.308,0,0,0-1.07-.469,1.321,1.321,0,0,0-1.075.469,2.05,2.05,0,0,0-.39,1.343,2.1,2.1,0,0,0,.38,1.357A1.321,1.321,0,0,0-38.689-3.221Zm4.751.563-2.009-4.713h.8l1.709,4.159h-.225l1.728-4.159h.76l-2.037,4.713Zm3.6,0V-7.38h.76v4.722Zm-.075-6.722h.929v.864h-.929Zm2.31,6.722v-3.4q0-.329-.014-.662t-.061-.662h.723l.084.976-.094.075a1.62,1.62,0,0,1,.657-.868,1.919,1.919,0,0,1,1.061-.3q1.7,0,1.7,1.868v2.967h-.76V-5.587a1.455,1.455,0,0,0-.263-.962,1.033,1.033,0,0,0-.826-.305,1.4,1.4,0,0,0-1.052.4,1.492,1.492,0,0,0-.394,1.089v2.7Zm7.567,2.094A3.46,3.46,0,0,1-22.4-1.053l.131-.62a3.781,3.781,0,0,0,.836.366,3.248,3.248,0,0,0,.892.113,1.371,1.371,0,0,0,1.028-.361,1.483,1.483,0,0,0,.352-1.075V-3.907l.1-.122a1.755,1.755,0,0,1-.352.653A1.607,1.607,0,0,1-20-2.949a1.969,1.969,0,0,1-.789.15,2.041,2.041,0,0,1-1.1-.3,2.03,2.03,0,0,1-.742-.822,2.678,2.678,0,0,1-.268-1.23,2.678,2.678,0,0,1,.268-1.23,2.03,2.03,0,0,1,.742-.822,2.041,2.041,0,0,1,1.1-.3,1.87,1.87,0,0,1,1.113.324,1.586,1.586,0,0,1,.615.906l-.113-.1V-7.38h.76V-2.7a2.155,2.155,0,0,1-.54,1.6A2.169,2.169,0,0,1-20.541-.564Zm-.094-2.873a1.34,1.34,0,0,0,1.075-.455,1.866,1.866,0,0,0,.39-1.253A1.866,1.866,0,0,0-19.56-6.4a1.34,1.34,0,0,0-1.075-.455,1.379,1.379,0,0,0-1.094.455,1.837,1.837,0,0,0-.4,1.253,1.834,1.834,0,0,0,.4,1.258A1.386,1.386,0,0,0-20.635-3.437Zm8.084.432V-8.892l.441.225-1.812,1.155v-.742l1.709-1.089h.441v6.337Zm-1.474.347v-.648H-10.3v.648ZM-6.411-.63V-6.057q0-.329-.014-.662t-.061-.662h.723l.084.976-.075.141a1.576,1.576,0,0,1,.61-.911,1.835,1.835,0,0,1,1.089-.319,1.954,1.954,0,0,1,1.094.31,2.091,2.091,0,0,1,.742.864,2.948,2.948,0,0,1,.268,1.3,2.917,2.917,0,0,1-.268,1.291,2.011,2.011,0,0,1-.737.845,2.017,2.017,0,0,1-1.1.3,1.835,1.835,0,0,1-1.089-.319,1.576,1.576,0,0,1-.61-.911l.1-.094V-.63ZM-4.2-3.221a1.308,1.308,0,0,0,1.07-.469A2.051,2.051,0,0,0-2.74-5.024a2.111,2.111,0,0,0-.385-1.347A1.292,1.292,0,0,0-4.2-6.855a1.3,1.3,0,0,0-1.08.469,2.1,2.1,0,0,0-.376,1.343A2.124,2.124,0,0,0-5.275-3.7,1.3,1.3,0,0,0-4.2-3.221Zm3.417.563v-3.4q0-.329-.014-.662T-.853-7.38H-.13l.1,1.164-.1-.028a1.475,1.475,0,0,1,.568-.934,1.638,1.638,0,0,1,.981-.315,1.781,1.781,0,0,1,.23.014,1.277,1.277,0,0,1,.2.042l-.019.695a1.512,1.512,0,0,0-.5-.075A1.3,1.3,0,0,0,.55-6.6a1.257,1.257,0,0,0-.432.549,1.832,1.832,0,0,0-.136.7v2.695Zm5.258.066a2.252,2.252,0,0,1-1.178-.3,2.03,2.03,0,0,1-.779-.85,2.856,2.856,0,0,1-.277-1.3,2.863,2.863,0,0,1,.277-1.3A2.024,2.024,0,0,1,3.3-7.193a2.252,2.252,0,0,1,1.178-.3,2.252,2.252,0,0,1,1.178.3,2.024,2.024,0,0,1,.779.854,2.863,2.863,0,0,1,.277,1.3,2.856,2.856,0,0,1-.277,1.3,2.03,2.03,0,0,1-.779.85A2.252,2.252,0,0,1,4.479-2.592Zm0-.629a1.31,1.31,0,0,0,1.075-.465,2.1,2.1,0,0,0,.38-1.357A2.067,2.067,0,0,0,5.55-6.385a1.308,1.308,0,0,0-1.07-.469A1.321,1.321,0,0,0,3.4-6.385a2.05,2.05,0,0,0-.39,1.343A2.1,2.1,0,0,0,3.4-3.686,1.321,1.321,0,0,0,4.479-3.221Zm7.577.563H11.3V-3.925l.113.1a1.576,1.576,0,0,1-.61.911,1.851,1.851,0,0,1-1.1.319A1.976,1.976,0,0,1,8.615-2.9a2.022,2.022,0,0,1-.737-.864,3.024,3.024,0,0,1-.263-1.3,2.976,2.976,0,0,1,.258-1.286,1.975,1.975,0,0,1,.732-.845,2.017,2.017,0,0,1,1.1-.3,1.832,1.832,0,0,1,1.1.324,1.6,1.6,0,0,1,.61.906l-.122.094v-3.4h.76Zm-2.2-.563A1.289,1.289,0,0,0,10.925-3.7a2.105,2.105,0,0,0,.38-1.347,2.107,2.107,0,0,0-.376-1.338,1.286,1.286,0,0,0-1.07-.474,1.332,1.332,0,0,0-1.084.469,2.017,2.017,0,0,0-.39,1.324A2.109,2.109,0,0,0,8.775-3.7,1.315,1.315,0,0,0,9.859-3.221Zm5.342.629a1.634,1.634,0,0,1-1.272-.469,2,2,0,0,1-.427-1.39V-7.38h.76v2.91a1.4,1.4,0,0,0,.263.939,1,1,0,0,0,.8.3,1.336,1.336,0,0,0,1.014-.4,1.5,1.5,0,0,0,.385-1.08V-7.38h.76v4.722h-.742V-3.681l.113-.056a1.576,1.576,0,0,1-.634.854A1.822,1.822,0,0,1,15.2-2.592Zm5.727,0a2.314,2.314,0,0,1-1.2-.3,2.027,2.027,0,0,1-.784-.845,2.8,2.8,0,0,1-.277-1.286,2.83,2.83,0,0,1,.282-1.291,2.081,2.081,0,0,1,.8-.868,2.328,2.328,0,0,1,1.221-.31,2.654,2.654,0,0,1,.925.164,2,2,0,0,1,.737.455l-.253.563a2.883,2.883,0,0,0-.681-.408A1.808,1.808,0,0,0,21-6.855a1.425,1.425,0,0,0-1.131.479,1.992,1.992,0,0,0-.418,1.352,1.954,1.954,0,0,0,.413,1.333A1.435,1.435,0,0,0,21-3.221a1.82,1.82,0,0,0,.685-.136,2.845,2.845,0,0,0,.685-.408l.253.563a2.16,2.16,0,0,1-.756.446A2.759,2.759,0,0,1,20.928-2.592ZM22.937-6.78v-.6H25.97v.6Zm3.014,3.446v.648a2.376,2.376,0,0,1-.315.07,2.3,2.3,0,0,1-.343.023,1.445,1.445,0,0,1-1.047-.376,1.5,1.5,0,0,1-.39-1.127v-4.5l.76-.272V-4.2a1.277,1.277,0,0,0,.108.582.6.6,0,0,0,.3.286,1.07,1.07,0,0,0,.422.08,1.551,1.551,0,0,0,.253-.019A1.693,1.693,0,0,0,25.951-3.334Z" transform="translate(743.861 2197)" fill="#f1f1f1"/>
      </g>
    </g>
  </g>
</svg>
