<svg xmlns="http://www.w3.org/2000/svg" width="36" height="36" viewBox="0 0 36 36">
  <g id="back-to-top" transform="translate(-627 -1662)">
    <rect id="Rectangle_744" data-name="Rectangle 744" width="36" height="36" transform="translate(627 1662)" fill="#fff" opacity="0"/>
    <g id="Group_1803" data-name="Group 1803" transform="translate(131.5 70.303)">
      <path id="back" d="M15.614,0H0V15.5Z" transform="translate(513.459 1597.697) rotate(45)" fill="#0d1214"/>
    </g>
    <path id="Path_1767" data-name="Path 1767" d="M4.668-.372a1.719,1.719,0,0,1-.624.33,2.606,2.606,0,0,1-.768.114A2.04,2.04,0,0,1,1.788-.444,1.971,1.971,0,0,1,1.26-1.92V-5.412H.18V-6.36H1.26V-7.752H2.412V-6.36H4.236v.948H2.412v3.444a1.117,1.117,0,0,0,.258.792A.961.961,0,0,0,3.408-.9a1.388,1.388,0,0,0,.9-.3Zm3.9.444a3.449,3.449,0,0,1-1.7-.42A3.046,3.046,0,0,1,5.682-1.506,3.287,3.287,0,0,1,5.256-3.18a3.287,3.287,0,0,1,.426-1.674A3,3,0,0,1,6.864-6.006a3.489,3.489,0,0,1,1.7-.414,3.454,3.454,0,0,1,1.7.414,3.015,3.015,0,0,1,1.176,1.152,3.287,3.287,0,0,1,.426,1.674,3.287,3.287,0,0,1-.426,1.674A3.057,3.057,0,0,1,10.266-.348,3.415,3.415,0,0,1,8.568.072Zm0-1.008a2.147,2.147,0,0,0,1.1-.282,1.99,1.99,0,0,0,.762-.792A2.419,2.419,0,0,0,10.7-3.18a2.419,2.419,0,0,0-.276-1.17,1.949,1.949,0,0,0-.762-.786,2.184,2.184,0,0,0-1.1-.276,2.184,2.184,0,0,0-1.1.276A1.99,1.99,0,0,0,6.7-4.35,2.378,2.378,0,0,0,6.42-3.18,2.378,2.378,0,0,0,6.7-2.01a2.032,2.032,0,0,0,.768.792A2.147,2.147,0,0,0,8.568-.936ZM16.836-6.42a3.343,3.343,0,0,1,1.656.408,2.935,2.935,0,0,1,1.146,1.14,3.378,3.378,0,0,1,.414,1.692,3.411,3.411,0,0,1-.414,1.7A2.923,2.923,0,0,1,18.492-.336a3.343,3.343,0,0,1-1.656.408,2.947,2.947,0,0,1-1.254-.264,2.608,2.608,0,0,1-.966-.768V2.328H13.464V-6.36h1.1v1.008a2.446,2.446,0,0,1,.972-.8A3.069,3.069,0,0,1,16.836-6.42Zm-.1,5.484a2.147,2.147,0,0,0,1.1-.282,2.032,2.032,0,0,0,.768-.792,2.378,2.378,0,0,0,.282-1.17,2.378,2.378,0,0,0-.282-1.17,1.99,1.99,0,0,0-.768-.786,2.184,2.184,0,0,0-1.1-.276,2.124,2.124,0,0,0-1.086.282,2.043,2.043,0,0,0-.768.786A2.344,2.344,0,0,0,14.6-3.18a2.419,2.419,0,0,0,.276,1.17,1.979,1.979,0,0,0,.768.792A2.157,2.157,0,0,0,16.74-.936Z" transform="translate(634.82 1690.665)" fill="#0d1214"/>
  </g>
</svg>
