<svg id="Layer_1" data-name="Layer 1" xmlns="http://www.w3.org/2000/svg" viewBox="0 0 1065.6 1463.04"><title>illustration</title><path d="M774.28,715A116.85,116.85,0,0,0,766,724.4c-2.74,3.44-6.1,6.27-9.28,9.27a142.06,142.06,0,0,0-24.57,29.86,106.74,106.74,0,0,0-15.75,49.21c-1.17,18.69,1.43,36.73,9.34,53.84,5,10.87,11.69,20.74,19,30.16,4.69,6,9.53,11.93,14.3,17.9.43.54.83,1.09,1.38,1.81a25.15,25.15,0,0,1-12.87-.05A63.09,63.09,0,0,0,727,915c-4.67.38-9.35.34-14,.57-11.39.57-282.21-253.41-293.61-253.69-15.66-.39-31.31-.92-46.9-2.66a156.21,156.21,0,0,0-34.72-.43,265.78,265.78,0,0,1-28.64,1.48l-46.74.15a14.42,14.42,0,0,0-6.26,1.1,8.09,8.09,0,0,0-5,7.4,16.14,16.14,0,0,0,.44,4.85c2.7,10.53,5.09,21.14,9,31.35,3.38,8.88,5.1,18.22,6.58,27.56a521,521,0,0,0,14.4,62.68c11,38.31,21,76.9,30.72,115.55,2.91,11.53,5.53,23.14,8.28,34.71.19.79.36,1.59.58,2.37,1.7,6,5.81,9.19,12,9.29,3.77.07,7.54,0,11.31,0l94.09.15a5.49,5.49,0,0,1,2.64.23c.37,1.09-.71,1.45-1,2.08a13,13,0,0,1-4.42,5.6c-3.47,2.21-6.76,4.49-8.7,8-10.62,19.07-19.92,38.71-25.88,59.79a177.22,177.22,0,0,0-6.44,38.13c-.91,16,62.71,20.68,67.17,36.08,8.52,29.39-35.82,62.41-9.71,78,3.49,2.09,7.07,4,10.75,5.77,1.31.62,1.41,1.22.5,2.27s-1.62,1.92-2.43,2.89a6.74,6.74,0,0,1-5.37,2.47h0c-26.41-.89-35.95-22.71-61.65-28.83-21.22-5-80.67-21.69-100.8-30-23.89-9.91-42.6-27.41-64.8-40.77-14.94-9-77.32-67.47-85.74-85.69a510.21,510.21,0,0,1-24.11-62.92c-4.55-14.62-8.56-29.39-11.73-44.37a125.71,125.71,0,0,1-2.7-23c-.31-13,.79-26,2.18-38.9,1.77-16.55,3.87-33.06,6.11-49.55,1.86-13.72,3.19-27.5,4.56-41.28,1.06-10.69,4-21,7.74-31,4.6-12.43,10.52-24.26,16.34-36.14,8.42-17.17,16.84-34.34,24.38-51.93,5.43-12.67,13.39-23.74,22.92-33.65,5.67-5.89,11.6-11.53,17.38-17.32a72,72,0,0,0,9.83-12.12c9.91-15.61,22.51-28.72,37-40C311.8,485,383.39,461.43,458.53,464.9c74.15,3.42,145.08,9.52,204.77,58.86a243.32,243.32,0,0,1,67.91,90.83c7.26,16.84,20.1,97,40.64,100.15C772.66,714.86,773.47,714.93,774.28,715Z" fill="#fe6161" opacity="0.29"/><path d="M566.13,519.84c43.75,6.34,88.7,37.71,100.08,83.52,6.32,25.41.2,46.81-2.16,54.72-13,43.68-49.13,64.36-59,69.84-9.68,5.35-49.64,27.44-95,12.24-46.34-15.51-79.28-63.49-77-113.76,2.36-53,42.7-83.42,46.8-86.4C516.44,513.29,556.17,518.4,566.13,519.84Z" fill="#fff"/><path d="M976.55,1094.76c-1.34,4.32-2.66,8.65-4,13-3.72,11.67-8.92,22.72-14.12,33.77a352.68,352.68,0,0,1-25,45.26A251,251,0,0,1,908,1218.51,325.21,325.21,0,0,1,857.52,1263c-.78.55-1.59,1.07-2.37,1.63a5.5,5.5,0,0,1-2,.84,2.34,2.34,0,0,1-2.73-1,2.44,2.44,0,0,1,.19-2.92,13.48,13.48,0,0,1,1.68-1.7c12.21-10.93,24.21-22.08,35.65-33.82,9.21-9.45,18.13-19.16,26.47-29.39,6.13-7.51,11-15.89,16.06-24.12,9.68-15.71,18.88-31.69,27-48.28q7-14.3,12.79-29.14c.32-.82.63-1.65,1-2.43,1.34-2.65,3-2.9,5.23-.78Z" fill="#0d1214"/><path d="M552.23,511.56h5.28a.5.5,0,0,1-.17.72,6.79,6.79,0,0,1-4.94,0A.51.51,0,0,1,552.23,511.56Z" fill="#626567"/><path d="M957.09,1044.26c-5.7-11.37-14.7-19.16-26.39-23.91a34.37,34.37,0,0,0-16.63-2.69,109,109,0,0,0-12.29,2.05c-1.25.28-2.51.49-3.76.76s-2.46.55-3.9.87c.2-.37.22-.46.28-.5.54-.48,1.09-.94,1.62-1.43,14.22-13,19.08-28.74,13.24-47.31-3.45-11-9.84-19.82-20.23-25.39a71.74,71.74,0,0,0-18.7-6.52,29.88,29.88,0,0,0-5.89-1,28,28,0,0,0-8.46,1.45c-11.26,3.36-20.91,9.09-27.86,18.82-.16.23-.34.51-.74.4.32-2.85.62-5.71,1-8.56,1.55-12.94,2.78-25.9,2.37-39a23.38,23.38,0,0,1,.35-6A103.62,103.62,0,0,0,832.72,895c1.13-10.3,1.28-20.55-1-30.76a35.62,35.62,0,0,1-1-10.24,197.48,197.48,0,0,0,.44-25.86c-.87-14.35-4-28.11-10.33-41.06a12.78,12.78,0,0,1-1.33-4.08,89.13,89.13,0,0,0-11.06-32.69c-4.85-8.61-10.39-16.71-17.45-23.66-11.89-11.71-25.88-19.12-42.75-20.42-6.14-.48-12.28-.68-18.32,1.08-3.75,1.1-7.54,2.05-11.32,3.07h0a9.51,9.51,0,0,0-4.34.95A136.08,136.08,0,0,0,690.14,724a203.41,203.41,0,0,0-37,31.46c-9.78,10.44-19.45,21-28.83,31.78q-21.08,24.27-40.5,49.9c-.55.73-.9,1.7-2.07,2a17.58,17.58,0,0,1-1.12-3.4c-1-3.79-1.92-7.59-2.9-11.39-3.31-12.85-6.6-25.71-9.57-38.65a10.36,10.36,0,0,1,.37-6.11,64.72,64.72,0,0,0,2.62-10c1.41-7.38,2.75-14.78,3.83-22.22.42-2.9,1.28-4,3.69-4.27,7.48-.73,14.93-1.62,22.38-2.54,5.71-.71,11.51-.59,17.13-1.9,7.81-1.82,14.44-5.52,19.08-12.31a122.38,122.38,0,0,1,12.45-15.51,36.38,36.38,0,0,0,9.71-17.34c1.39-6.22,3.74-12,8.16-16.85a38.59,38.59,0,0,0,5.78-9.35c4.68-9.65,3.79-20,3.71-30.16a5.13,5.13,0,0,0-.46-1.6h0c0-.48-.14-1-.15-1.42a153.68,153.68,0,0,0-2.32-23.35c-2.86-15.37-8.78-29.38-19-41.32a223.16,223.16,0,0,0-38.6-35.79,151.85,151.85,0,0,0-21.71-13.59c-10.11-5-20.89-7.33-32.05-8.18a4.6,4.6,0,0,1-1.92,0l-3.33,0h-5.38l-3.81,0H546a127.85,127.85,0,0,0-32.59,6.13A160.09,160.09,0,0,0,470.77,540h0a7.67,7.67,0,0,0-3.68,2.94,106.69,106.69,0,0,1-7.89,8.71c-4.38,4.44-9,8.62-13,13.46-8.43,10.25-15,21.48-18.57,34.36a84.4,84.4,0,0,0-2.91,30.14,92.05,92.05,0,0,0,3.83,20.7A94.62,94.62,0,0,0,439.17,672a262,262,0,0,0,17.48,23.16c.62.76,1.48,1.41,1.64,2.62a13.69,13.69,0,0,1-6.27,0,61.67,61.67,0,0,0-18.11-1.5c-6.53.56-13.08.69-19.62.83-12.79.28-25.57-.22-38.35-.83-7.35-.36-14.63-1.39-22-1.8-4.86-.27-9.7-1-14.6-.57-10.1.91-20.2,1.85-30.37,1.82-11.59,0-23.19,0-34.79,0a21,21,0,0,0-5.7.66,7,7,0,0,0-5.4,6.8,13.64,13.64,0,0,0,.14,3.83c1.6,6.69,2.92,13.48,5.33,19.93a128,128,0,0,1,6.54,24.53,378.15,378.15,0,0,0,9.67,44q11,38.29,20.81,76.9,6.24,24.28,12,48.7c1.64,7,4.67,9.25,11.88,9.25h78.48c.64,0,1.28,0,1.92,0s1.23-.18,1.45.51-.32,1-.7,1.43a57,57,0,0,1-5.87,5.65,14.41,14.41,0,0,0-3.85,4.55A274.5,274.5,0,0,0,386,973.6a147.4,147.4,0,0,0-10.51,49.26,108.62,108.62,0,0,0,3.74,32.52,87.33,87.33,0,0,0,29.5,45.3,96.65,96.65,0,0,0,18.7,12.1c2.58,1.26,2.6,1.49.81,3.82-.72,1-1.62,1.8-1.71,3.09a6.61,6.61,0,0,1-1.21,2.32,193.38,193.38,0,0,1-14.23,19.57c-7.06,8.78-14.39,17.35-20.67,26.73a6.87,6.87,0,0,1-6.31,3.2,47.45,47.45,0,0,0-10.51.67c-26.05,5.15-43,32-34.91,57.89a6.54,6.54,0,0,1-1.28,6.64c-5.16,6.42-10.23,12.9-15.29,19.4a216.19,216.19,0,0,0-14.48,20.57c-6.5,10.76-8.16,22.19-4.49,34.3a124.73,124.73,0,0,0,25.82,46,167.27,167.27,0,0,0,52,40.17c21,10.5,43.36,16.41,66.69,18.72,3.81.38,7.63.63,11.45.95l3.35,0c3.49-.37,7-.43,10.49-.91a72.06,72.06,0,0,0,34.62-14.18c9.43-7.22,16.62-16.32,22.45-26.57,7.38-13,13.93-26.42,20.57-39.8,8.76-17.67,17.63-35.28,26.39-52.95q12.07-24.37,24-48.81,23.16-47.47,44.79-95.66c.24-.53.31-1.2,1-1.54,0,1,.06,2,0,2.92a295.53,295.53,0,0,0-.39,33.54,306.71,306.71,0,0,0,4.7,41.65,313.92,313.92,0,0,0,15,54.16,32.72,32.72,0,0,0,3.63,7.27,11.56,11.56,0,0,0,8,5.2,42.37,42.37,0,0,0,15.48-.91,174.15,174.15,0,0,0,34.09-11.1c15.69-7,31.1-14.5,46.42-22.24,14.15-7.15,27.67-15.33,39.79-25.66a7.85,7.85,0,0,1,3.6-1.79,37.64,37.64,0,0,0,13.5-6c8.9-6,17.83-11.87,26.64-18a580.2,580.2,0,0,0,65.15-52,120.3,120.3,0,0,0,33.12-53.06,109,109,0,0,0,4.93-28.23C960.64,1055.9,959.91,1049.9,957.09,1044.26ZM830.51,976c4.77-14,14.45-22.34,28.5-26.16a19.61,19.61,0,0,1,12.88.42c3.33,1.33,6.8,2.29,10.05,3.86,9.48,4.56,15.77,12,19.64,21.64.95,2.38.84,4.86.8,7.33-.14,8.42-2.18,16.26-7.21,23.16a39.63,39.63,0,0,1-9.67,9.23c-7.64,5.25-15.55,10.06-23.64,14.58-16.16,9-32.18,18.31-48.22,27.57-.62.36-1.25.68-2.27,1.23.89-4.8,1.68-9.19,2.51-13.57,2.42-12.7,4.73-25.42,7.65-38A323.29,323.29,0,0,1,830.51,976ZM473.68,693.77a64.79,64.79,0,0,1-11.5-23c-3.1-10.77-5-21.81-7.45-32.73-2.69-12,.52-23.12,6.53-33.55a101.85,101.85,0,0,1,14-18.5,9.42,9.42,0,0,0,2.08-3.18c5.25-14.49,15.5-24.35,29-31.2q2.18-1.1,4.34-2.23a4.23,4.23,0,0,1-1-.19c-3.26-.9-6.5-1.89-9.77-2.78-.63-.17-1.47-.25-1.45-1.24a99.18,99.18,0,0,1,11-3.95c7.09-2.42,14.16-4.93,21.29-7.23a73.34,73.34,0,0,1,25.51-3.53,76.8,76.8,0,0,1,30.85,7.94c10.17,4.92,19,11.72,27.5,19a129.34,129.34,0,0,1,17.62,17.94,68.51,68.51,0,0,1,12.41,23.85,5.47,5.47,0,0,1,.34,1.87h0a5.32,5.32,0,0,0,.34,1.18c0,.27.09.54.13.81.29.49,0,1.12.39,1.59,0,.16.07.31.1.47l-.15.2a1.1,1.1,0,0,1-.47.1c3.07,12,4.74,24.32,6.48,36.59.3,2.1.59,4.21.78,6.33.8,4.16.9,8.4,1.43,12.59.13,1.11.21,2.22.32,3.33.87,9.18-2.14,16.64-9.8,22a15.78,15.78,0,0,0-5.51,6.48,40.21,40.21,0,0,0-1.74,4.19c-3.46,10.5-10.82,16.91-21.22,19.94a14.62,14.62,0,0,0-7.44,4.44,7.05,7.05,0,0,1-5.69,2.54,45.8,45.8,0,0,0-8.07.94c-4.51.82-8.84.69-13.05-1.49-3.21-1.66-6.81-2.17-10.38-2.59a128.7,128.7,0,0,0-13.32.47c-1.64.19-3.27.45-4.91.55-2.36.13-2.38.78-2.84-2.34,2,.86,4,.56,6,.25a22.37,22.37,0,0,1,2.57-.26c.63-1.79-.31-5.39-.46-5.42-.59-.14-1.2-.23-1.79-.35l-4.6-4.52a43,43,0,0,0-30.82-12.29l-45.2.76ZM352.74,1197.11c6.7-9.27,15.54-15.23,27.25-16.07l.27.49q-16.33,20.94-32.66,41.87l-.53-.22C345.83,1213.85,347.09,1204.92,352.74,1197.11Z" fill="#0d1214"/><path d="M718.67,710.35c-21,7.57-38.79,20.08-54.82,35.29-13.53,12.83-25.83,26.84-38.08,40.86q-22.5,25.75-43,53.11c-.31.42-.51,1-1.37,1.12-.71-2.66-1.45-5.33-2.14-8-3.69-14.39-7.43-28.76-10.82-43.23-.13-.54-.21-1.1-.39-1.63a14.79,14.79,0,0,1,.44-10c2.07-5.88,2.83-12.12,3.91-18.25.76-4.33,1.41-8.67,2.14-13,.49-2.88,1.5-3.81,4.41-4.12,10.08-1.09,20.16-2.26,30.26-3.23,4.23-.41,8.43-.74,12.48-2.14a29.38,29.38,0,0,0,15.6-11.72,126.61,126.61,0,0,1,13.32-16.35,32.21,32.21,0,0,0,8-14.77q.82-3.49,2-6.91a28.4,28.4,0,0,1,5.37-9.53,42.79,42.79,0,0,0,10.43-24.27c.15-1.67.13-3.36.15-5,0-4.31.06-8.63.09-12.94,4.05,5.25,7.52,10.89,11.14,16.43a329.73,329.73,0,0,1,17.56,30A282.56,282.56,0,0,1,717,708C717.35,708.85,717.33,710.11,718.67,710.35Z" fill="#fe6161"/><path d="M470.77,540a90.94,90.94,0,0,0-6.49,7.37A73.67,73.67,0,0,1,457,554.6a111.74,111.74,0,0,0-19.3,23.45,83.9,83.9,0,0,0-12.37,38.65c-.91,14.67,1.13,28.85,7.34,42.28a123.12,123.12,0,0,0,14.94,23.69c3.68,4.73,7.48,9.37,11.23,14.05l1.09,1.43a19.82,19.82,0,0,1-10.12,0A49.3,49.3,0,0,0,433.61,697c-3.67.29-7.34.26-11,.44-8.94.45-17.9.42-26.85.2-12.3-.31-24.59-.72-36.84-2.09a122.39,122.39,0,0,0-27.26-.34,211.12,211.12,0,0,1-22.5,1.17l-36.71.11a11.43,11.43,0,0,0-4.91.86,6.4,6.4,0,0,0-4,5.82,12.87,12.87,0,0,0,.35,3.81c2.12,8.27,4,16.6,7,24.62,2.66,7,4,14.31,5.17,21.64a410,410,0,0,0,11.31,49.23c8.66,30.09,16.48,60.4,24.13,90.75,2.28,9.06,4.34,18.17,6.5,27.26.15.63.28,1.25.46,1.87,1.33,4.69,4.56,7.21,9.46,7.3,2.95,0,5.91,0,8.87,0q37,0,73.9.12a4.19,4.19,0,0,1,2.08.18c.25.74-.35,1-.67,1.43a47.49,47.49,0,0,1-7,6.93,13.6,13.6,0,0,0-3.47,3.93c-8.34,15-15.65,30.4-20.32,47a138.78,138.78,0,0,0-5.06,30,109.47,109.47,0,0,0,3.77,37c6.68,23.09,20.85,40.34,41.35,52.58,2.75,1.64,5.56,3.17,8.45,4.53,1,.49,1.1,1,.39,1.79-1.29,1.5-2.54,3.05-3.81,4.58a4.82,4.82,0,0,0-2.34-.38,310,310,0,0,1-61.39-8.33,319.85,319.85,0,0,1-48.55-16.23c-18.77-7.78-37.15-16.33-54.58-26.81a241.42,241.42,0,0,1-33.36-23.76,145.64,145.64,0,0,1-25.35-29c-8.86-13.08-16-27.12-22.59-41.43a401.55,401.55,0,0,1-18.94-49.41c-3.77-12.14-7.07-24.39-9.62-36.84a90.49,90.49,0,0,1-1.71-16.42,241,241,0,0,1,1.78-30.85c1.54-14.22,3.51-28.37,5.29-42.56,1.18-9.35,2.09-18.73,3-28.11a98.2,98.2,0,0,1,6.07-24.35c3.61-9.76,8.27-19.05,12.84-28.37,6.61-13.49,13.22-27,19.14-40.8a88.78,88.78,0,0,1,18-26.42c4.55-4.73,9.3-9.24,13.93-13.89a58.68,58.68,0,0,0,7.76-9.73,124.76,124.76,0,0,1,28.77-30.94c14.76-11.51,30.91-20.72,47.8-28.7a310.14,310.14,0,0,1,65.92-22.16A293.71,293.71,0,0,1,408.86,539c5.39-.61,10.82-1,16.25-1.24,5.91-.31,11.83-.45,17.73-.22a233.64,233.64,0,0,1,26,2.15C469.49,539.82,470.13,539.87,470.77,540Z" fill="#fe6161"/><path d="M104.77,776.12c-.47-1.33,0-2.65,0-4a326,326,0,0,1,10.91-40.67c9.35-27.7,21.65-54.08,35.59-79.72,6.44-11.85,14.58-22.53,23.2-32.84,11.24-13.44,22.85-26.53,35.32-38.84,6.95-6.86,14.27-13.3,21.68-19.64a8,8,0,0,1,1.57-1.08,3,3,0,0,1,3.85.86,2.73,2.73,0,0,1,.24,3.72,6.61,6.61,0,0,1-1.08,1.28c-8.31,7.86-15.88,16.42-23.42,25-13,14.79-25.27,30.14-37.31,45.69a182.91,182.91,0,0,0-18.78,30.31c-6.5,13-13,26-19.2,39.13a445.87,445.87,0,0,0-23.87,61.29c-.86,2.83-1.7,5.66-2.77,8.41S106.84,778.38,104.77,776.12Z" fill="#141919"/><path d="M521.08,930.21a47.59,47.59,0,0,1-3.44,6.06q-10,16.77-19,34.16c-.73,1.42-1.72,2.71-2.44,4.13-2.12,4.19-.29,6.68,2.85,7.92a4.29,4.29,0,0,0,5.31-1.52,5.6,5.6,0,0,0,1-1.91c1.1-4.77,3.9-8.75,6.16-12.94q9.11-16.89,19.14-33.24c9.18-15,18.66-29.79,28.9-44.1q10.45-14.62,21.07-29.14a14.8,14.8,0,0,0,2-3.55c.74-2,2.28-3.46,3.53-5.1q14.57-19.18,29.86-37.8,13.49-16.38,27.26-32.51c2.28-2.68,4.72-5.21,7.24-7.66,4-3.9,7.65-8.16,11.47-12.24,4-4.33,8.37-8.37,12.77-12.32A161.43,161.43,0,0,1,697.86,731c9.43-5.79,19.27-10.75,30-13.56,13.35-3.48,26.44-2.91,39,3.27a62.26,62.26,0,0,1,17.58,13.13,100.19,100.19,0,0,1,22.44,35.63,54,54,0,0,1,2.71,11.88,41.78,41.78,0,0,0,4.51,13.83c3.23,6.44,4.76,13.35,6,20.36,1.88,10.76,2.12,21.61,1.81,32.48-.1,3.34-.54,6.68-.75,10a16.86,16.86,0,0,0,.59,4.73A86.93,86.93,0,0,1,823.53,876a111.5,111.5,0,0,1-1,20.75q-.37,3.33-.5,6.68c-.23,6.07-.26,12.15-.62,18.2-.32,5.26-.68,10.51-1.22,15.75-.64,6.11-1.43,12.2-2.12,18.3-.65,5.7-1.49,11.39-2.22,17.08-.2,1.58-.25,3.17-.52,4.76a4.49,4.49,0,0,1-3.63,3.94l-2.55.64c-8.95,2.16-17.13,6.13-25,10.7a253,253,0,0,0-30,19.83,4.27,4.27,0,0,1-5.24.52,34.74,34.74,0,0,0-16.31-4.25c-11.92,0-21.42,5-28.56,14.48a36.25,36.25,0,0,0-6.34,13.32,33.41,33.41,0,0,0,2.09,21.52,12,12,0,0,0,.95,1.94c1,1.48.74,2.74-.24,4.18a52.5,52.5,0,0,0-6.85,14.71c-1.86,6.19-1.59,12.13,1.68,17.81a28.73,28.73,0,0,0,7,7.83c2.29,1.87,4.66,3.64,7,5.49s2.51,3.13.41,5.35c-4.12,4.36-8.37,8.59-12.86,12.58q-5.64,5-11.18,10.15c-5.5,5.11-11.16,10.07-16.39,15.46a166.33,166.33,0,0,0-11.4,12.63,5.6,5.6,0,0,1-1.83,1.7,77,77,0,0,1-.5-15.43c.16-4,.53-8,.79-11.94.23-3.59.36-7.18.68-10.76.34-3.81.85-7.61,1.25-11.41a74.12,74.12,0,0,1,1.9-11.56,158.51,158.51,0,0,1,5.68-15.77c6.13-15.86,12.22-31.75,18.41-47.59,3.71-9.52,7.1-19.17,11.76-28.32a44.55,44.55,0,0,0,4.64-16.24c.53-5.66,2.38-11.06,4.53-16.33q2.94-7.22,6.39-14.21a86.8,86.8,0,0,0,6.59-18.21c1.81-7.63,4.18-15.07,6.6-22.51a121.3,121.3,0,0,0,4.43-17.38c.34-2,.45-4.12.63-6.19a226.33,226.33,0,0,0,.37-27.56c-.28-7.73-.65-15.48-2.24-23.08-2.17-10.31-8.63-16.7-18.68-19.41-6.24-1.69-12.51-1-18.69.59a68.38,68.38,0,0,0-17.31,7.49,250.35,250.35,0,0,0-25.95,16.79,133.49,133.49,0,0,0-16.23,14.18c-3.14,3.29-6,6.87-9.06,10.22a197.07,197.07,0,0,1-14.7,13.76c-6.1,5.37-11.06,11.72-16.19,17.94-3.15,3.82-6.34,7.62-9.65,11.3-8.87,9.87-18,19.52-26.59,29.61-6.69,7.83-13.26,15.78-20,23.6-5.3,6.19-10.59,12.39-15.72,18.73-4.62,5.71-8.86,11.72-13.29,17.59-5.59,7.39-11.27,14.72-16.81,22.15a166.72,166.72,0,0,0-13,20.12,18,18,0,0,1-4.31,5.07,100.87,100.87,0,0,0-12.3,12.75c-6.28,7.68-11.69,16-17.68,23.88-1.26,1.66-2.62,3.24-3.84,4.91a1.48,1.48,0,0,1-2.19.54c-10.62-4.92-20.28-11.18-28.34-19.76a76.62,76.62,0,0,1-18.05-31.51c-3.08-10.58-3.49-21.37-3.33-32.27.23-15.63,3.8-30.51,9.54-45,3.46-8.69,7.52-17.11,11.76-25.45a22.51,22.51,0,0,1,4.77-6.27,67,67,0,0,0,11.34-13.58,3.23,3.23,0,0,1,3.16-1.62q46.31.09,92.63.13C519.77,930.12,520.25,930.17,521.08,930.21Z" fill="#1f8a6e"/><path d="M291.41,705c4.8,0,9.62.23,14.4-.07,4.62-.29,9.25-.18,13.86-.47,5-.31,10-.62,15-1,4-.27,7.91-1,11.88-.84a90.33,90.33,0,0,1,10,.83c1.72.27,3.48.29,5.22.45,2.29.2,4.64.36,6.87.72,3.41.54,6.83.1,10.24.71,2.56.46,5.27,0,7.9.16,10.29.8,20.6.51,30.9.34,4.77-.08,9.57-.14,14.33-.47a45.24,45.24,0,0,1,6.67-.34,70.62,70.62,0,0,1,11.58,1.35,27.47,27.47,0,0,0,12.56-.17c6.64-1.45,13.28-2.54,20.12-2.22,3.35.16,6.71,0,10.07,0,5.26.12,10.54.22,15.78.58,8.71.6,17.4.15,26.1.36,2.82.07,3.28.36,4,3.08,2.55,10.43,5,20.88,7.65,31.3a147.44,147.44,0,0,0,5.5,16.31,85.74,85.74,0,0,1,5,17.91c1.93,13.09,5.18,25.87,8.37,38.68,2.37,9.49,4.7,19,7.06,28.5a50.77,50.77,0,0,0,1.56,5.75,4,4,0,0,1-.58,3.83c-1.73,2.68-3.43,5.39-5.31,8q-6.63,9.06-13.42,18c-3.77,4.94-7.7,9.74-11.45,14.69a4.08,4.08,0,0,1-3.69,1.68c-7.84,0-15.69-.25-23.51.08-6.63.28-13.27,0-19.86.51-6.24.48-12.45.12-18.67.38-25.25,1.05-50.51.28-75.77.43s-50.55,0-75.83,0c-.64,0-1.28,0-1.92,0a4.24,4.24,0,0,1-4.46-3.54c-2.11-8.25-4.15-16.52-6.3-24.76-3.26-12.55-6.67-25.07-9.87-37.65-2.64-10.41-5.65-20.73-8.51-31.09-2.51-9.14-4.94-18.29-7.18-27.49-1.1-4.48-2-9-2.68-13.55-.32-2.2-.17-4.44-.41-6.67A57,57,0,0,0,281.69,738c-3.22-9.93-6.68-19.79-9-30-.55-2.43-.15-3,2.39-3,5.44,0,10.88,0,16.32,0Z" fill="#212c30"/><path d="M344.59,1243.1a60.39,60.39,0,0,0,9.15,9.61c9.73,7.93,20.94,11,33.33,10a49.92,49.92,0,0,0,12.28-3.13,354.59,354.59,0,0,0,42.89-19c11-5.66,21.86-11.64,32.76-17.52.69-.37,1.4-.7,2.29-1.14a45.22,45.22,0,0,1-1,7.27c-1.52,9.39-2.7,18.82-3.89,28.25a162.66,162.66,0,0,0-1.28,27.28c.3,7.36,1.64,14.47,6,20.67,8,11.49,19,16.74,33,15.16,11.2-1.27,20.4-6.27,26.38-15.89,8.16-13.12,8-26.46-.61-39.43a288.15,288.15,0,0,0-24.17-30.7c-7.41-8.39-15.16-16.46-22.82-24.62a11.57,11.57,0,0,0-4.1-2.85c-11.42-4.77-22.8-9.62-34.26-14.3-16.72-6.83-33.69-13-51-18.2-.37-.11-.8-.11-1.09-.63,0-.68.65-1.13,1.07-1.67,8.72-11.24,17.53-22.43,26.18-33.72,7.25-9.46,13.68-19.51,20.75-29.1,1.81-2.44,3.67-4.84,5.51-7.26a7.13,7.13,0,0,1,6-3c16,.11,32,.75,47.59,4.69a110.86,110.86,0,0,1,29.82,12.23c12,7.16,24.21,14,36.38,20.89a37.71,37.71,0,0,1,10.91,8.48,23.27,23.27,0,0,1,3.34,5,83,83,0,0,0,10.19,15.92,120.2,120.2,0,0,1,10.95,17.16c.19.35.38.71.57,1a12.15,12.15,0,0,1,.45,11.5c-2.3,5.27-4.83,10.44-7.32,15.62q-20.62,43-42.06,85.62-15,30-30,60c-1.11,2.21-2.25,4.4-3.23,6.68-3.29,7.71-9,13.1-16.5,16.61-6.58,3.06-13.61,4.57-20.65,6-6.61,1.36-13.22,1-19.79-.1-8.51-1.38-17-2.81-25.48-4.49a100.54,100.54,0,0,1-37-15.83c-9.13-6.19-18.34-12.25-27.58-18.29a82.46,82.46,0,0,1-17.71-15.69c-5.86-6.87-11.78-13.69-18-20.27a54.35,54.35,0,0,1-14.59-31.44,34.17,34.17,0,0,1,5.53-23.31C337,1252.28,341,1248,344.59,1243.1Z" fill="#dae252"/><path d="M638.59,879.22a79,79,0,0,1,10.08-9.53c10.14-8.57,21.77-14.83,33.24-21.32A46.18,46.18,0,0,1,696.73,843c5.76-1,11.29-.46,16.22,3.14a15,15,0,0,1,6.26,10.89c.79,7.62,1.45,15.25,1.82,22.9a122,122,0,0,1-.23,18.92c-.32,3-.41,6.06-1,9-1.49,7.34-2.7,14.73-5.65,21.71-2.06,4.86-2.88,10.13-4.29,15.2a155.75,155.75,0,0,1-12,30.49,50.6,50.6,0,0,0-5.24,14.35c-.46,2.59-.53,5.24-.94,7.84a44.44,44.44,0,0,1-3.94,12.27c-5.4,11.35-9.33,23.27-13.82,35q-8.48,22.15-17.48,44.09-11.16,27-23.18,53.67c-4.94,10.92-9.93,21.82-15.13,32.62a19.45,19.45,0,0,1-1.88,3.83.49.49,0,0,1-.64-.2c-4.14-8-9.48-15.16-14.57-22.52a105.75,105.75,0,0,1-7.67-12.72c-2.75-5.47-7.26-9.25-12.44-12.31-14.71-8.72-29.44-17.4-44.36-25.74a114.2,114.2,0,0,0-34.76-12.61,168.26,168.26,0,0,0-21.84-2.53c-6-.35-12.07-.8-18.08-.92-.26-.67.14-1,.4-1.39,5-7,10.28-13.68,17.32-18.77a6.4,6.4,0,0,0,1.87-2.14c5.41-9.84,12.18-18.74,18.85-27.72,4.29-5.77,8.57-11.54,12.72-17.42a146,146,0,0,1,10.82-13.68c.78,1.31-.38,2.08-.91,3-3.7,6.07-7.67,12-9.8,18.88-.67,2.15-1,4.18.27,6.22a3.67,3.67,0,0,1,.1,3.25c-.43,1.37-1,2.7-1.3,4.11-.36,1.63.24,2.1,1.81,1.5a11.77,11.77,0,0,0,2.47-1.45,163.07,163.07,0,0,0,16.52-13.49c16.24-14.69,32.62-29.2,50.12-42.41q25.46-19.23,49.67-40,16.47-14.1,32.55-28.66c9-8.17,17.75-16.59,26.14-25.37,7.06-7.39,13.94-15,19.16-23.89a19.14,19.14,0,0,0,2.71-6.37c.54-3.07-.36-5.06-3.1-6.6a23,23,0,0,0-9.9-2.57c-16.26-1.12-30.68,4.07-44.08,12.81a163.17,163.17,0,0,0-15.46,11.35C640.23,879.07,639.62,879.91,638.59,879.22Z" fill="#1f8a6e"/><path d="M888.11,1033.24a74.65,74.65,0,0,1,19.84-5.19c2.78-.3,5.57-.45,8.37-.57a28.49,28.49,0,0,1,13.91,3c9.64,4.71,16.57,11.86,19.59,22.37a30.75,30.75,0,0,1,1,10.69c-.18,2.85,0,5.74,0,8.34-.72.53-1.14.47-1.48.28-2.56-1.38-5.34-1.48-8.16-1.54-7-.14-13.82,1.2-20.61,2.79-16.8,3.92-32.78,10.14-48.43,17.26a807.39,807.39,0,0,0-113.28,62.83,759.53,759.53,0,0,0-73.7,55.56q-10.47,9-20,19c-.32.33-.55.81-1.26.8-1.15-3.76-1.83-7.66-2.61-11.54-1.54-7.77-2.59-15.6-3.4-23.47a25.57,25.57,0,0,0-.61-3.79,10,10,0,0,1,1.05-7.4,71.75,71.75,0,0,1,7.94-11.4c5.45-6.62,11.68-12.49,17.89-18.37,9-8.53,18.33-16.68,27.51-25a38.18,38.18,0,0,0,6.49-7.35c4.33-6.69,3.54-12.45-2.47-17.65a41.94,41.94,0,0,0-3.45-2.59,45,45,0,0,1-6-4.78,12.39,12.39,0,0,1-3.6-12.7,42.86,42.86,0,0,1,5.38-11.89,2.46,2.46,0,0,1,1.31.78c5.54,5,12.21,7.39,19.53,8.26,7.91.94,15.81.23,23.7-.23,7.58-.43,15.13-1.19,22.66-2.16l13.07-1.73a4.16,4.16,0,0,1,1.89-.09c0,.78-.69,1-1.15,1.4a262.28,262.28,0,0,0-20.23,19.08,41.26,41.26,0,0,0-3.53,3.59c-2.07,2.81-1.58,5.84,1.22,7.67a4.81,4.81,0,0,0,6.16-.55,4,4,0,0,0,.66-.7c4.53-6.92,11-12,17-17.48a194.63,194.63,0,0,1,15.55-12.8,7.46,7.46,0,0,1,.84-.45c.73.84.12,1.66,0,2.49-.4,2.11.22,3.36,2.22,4.2a14.73,14.73,0,0,0,5.15.94,96.38,96.38,0,0,0,21.9-2.11c28.11-5.36,55.57-12.93,82-23.92a84.86,84.86,0,0,0,15.65-8.28,18.22,18.22,0,0,0,3.91-3.52c2.06-2.53,1.74-4.6-1-6.43a16.86,16.86,0,0,0-4.54-2.14c-6.62-2-13.44-2.63-20.3-3.24a111.82,111.82,0,0,0-21.26.43A2.2,2.2,0,0,1,888.11,1033.24Z" fill="#dae252"/><path d="M638.59,879.22c1.86-.35,2.85-2,4.18-3A169.85,169.85,0,0,1,660.45,864a81.19,81.19,0,0,1,15.63-7.18,63.27,63.27,0,0,1,11.38-2.6c4.63-.69,9.25-.38,13.86-.34a19.52,19.52,0,0,1,9.78,2.82c2.44,1.44,3.28,3.57,3,6.45a16.68,16.68,0,0,1-2.48,6.43,95.83,95.83,0,0,1-9.29,13c-7.38,9.06-15.71,17.21-24,25.38-5.12,5-10.41,9.89-15.7,14.74-4.22,3.88-8.48,7.73-12.87,11.41S641.38,941.49,637,945c-3.72,3-7.21,6.26-10.88,9.33-4.08,3.41-8.31,6.67-12.37,10.12-4.24,3.61-8.63,7-13,10.48-6.81,5.37-13.7,10.64-20.57,15.93-5.29,4.07-10.48,8.29-15.65,12.53s-10,8.62-15.1,12.82c-1.65,1.37-3.2,2.88-4.76,4.35-3.83,3.62-7.76,7.12-11.71,10.59-5.44,4.78-10.84,9.61-16.9,13.63a11.37,11.37,0,0,1-2.53,1.34c-1.6.54-2.38,0-2.09-1.7a25,25,0,0,1,1.26-4.11c.61-1.65.86-3.11-.33-4.72-.94-1.27-.6-2.89-.17-4.39a54.2,54.2,0,0,1,6.34-13.89c1.64-2.64,3.3-5.26,5-7.89a1.89,1.89,0,0,0,.34-1.12c4.33-5.82,8.62-11.69,13-17.46,7.16-9.41,14.69-18.52,22.36-27.51q8.57-10,17.32-19.86c8.12-9.13,16.22-18.27,24.53-27.22,10-10.83,20.29-21.48,31.39-31.27C634.59,883.12,636.56,881.14,638.59,879.22Z" fill="#229e7d"/><path d="M473.38,1212.84l-14.25,7.82c-15.84,8.67-31.81,17.07-48.45,24.12-5.74,2.43-11.5,4.79-17.45,6.67a35.48,35.48,0,0,1-40.07-13.55c-.41-.59-.72-1.25-1.18-1.8-.88-1.08-.59-1.93.22-2.94q6.27-7.89,12.43-15.86,12.71-16.38,25.39-32.81c1.7-2.2,1.7-2.2,4.41-1.51a187.07,187.07,0,0,1,27.44,9.23c12.32,5.31,25.12,9.38,37.56,14.4,4.07,1.64,8.11,3.35,12.08,5.24C472,1212.09,472.47,1212.36,473.38,1212.84Z" fill="#dae252"/><path d="M604.53,619.1h0a2.15,2.15,0,0,0-.49-.51,1.25,1.25,0,0,1-.07-.43,7.54,7.54,0,0,1-1.82-2c-4.06-3-8.48-4.17-13.44-2.87a22,22,0,0,0-11.5,8.87A54.9,54.9,0,0,0,568.39,641s0,0,0,0q-.09,1.23-.15,2.46a8.65,8.65,0,0,1-1.6,5.39,2.17,2.17,0,0,1-.56.49l-.34.14-.16-.05a1,1,0,0,1-.84.39c-.5.57-1,.59-1.48,0-3.27-.73-8.25-5.8-8.54-8.91a8.38,8.38,0,0,1,1.37-5c1.06-1.78,2.25-3.48,3.32-5.26a39.21,39.21,0,0,0,5.89-17.74,28.92,28.92,0,0,0-3-15.91,8.56,8.56,0,0,0-5.3-3.42c-6.2-.3-10.61,2.68-14,7.59-.26.39-.58.74-.88,1.11-2.38,7-2.79,14.22-2.34,21.51.17,2.78.75,5.53,1.14,8.29a17.11,17.11,0,0,1,.23,2.13c0,3.11-1.15,5.52-4.45,6.4a.81.81,0,0,0,.09-.1l0-.07-.41.25h0a4.34,4.34,0,0,1-1.14.37,1.63,1.63,0,0,0,.54,0A8.18,8.18,0,0,1,531,642a2.59,2.59,0,0,1-2.68-2.57c-.41-7.28-3-14.14-4-21.31-.51-3.62-1.21-7.21-1.72-10.83-.27-1.92-1.14-3.64-1.59-5.49-2.69-4.27-6.67-6.63-11.49-7.73-1.12,0-2.24,0-3.36,0a13.94,13.94,0,0,0-9.48,4c-5.26,5-7.84,11.34-9.21,18.27a27.61,27.61,0,0,0,1.79,16.6,29.43,29.43,0,0,0,8.89,11.66,4.62,4.62,0,0,1,1.33,1.35A66,66,0,0,0,513,652.53c1.52.57,3.18,1.1,4.25,2.51a6.82,6.82,0,0,1,3.38,5.69c.5,5.41-.35,10.74-.91,16.1-.25,2.37-.35,4.75-.57,7.13-.37,4.12-.58,8.26-.55,12.4,1.1.09,2.19.26,3.29.26,4.16,0,8.33.36,12.49-.11-.88,0-1.75-.07-2.63-.09-2-.06-2.18-.14-1.91-2a73.59,73.59,0,0,0,.41-10.28c0-6,0-12-.14-18,0-2-.34-4-.34-6,0-4.08,1.88-6.89,5.61-8.33a29.4,29.4,0,0,0,6.69-3.14,4.61,4.61,0,0,1,.86-.43c3.39-1.53,5-1.09,7.37,2,2,2.53,4,5.06,6.77,6.76.79.37,1.61.7,2.36,1.14a5.67,5.67,0,0,1,3,5.33,51.89,51.89,0,0,1-1.24,10.17c-1.16,5.7-3,11.22-4.31,16.89a53.12,53.12,0,0,0-1.58,16.09c.12,1.65-.23,3.33,0,5,.55.57.85,1.43,1.8,1.54a1.61,1.61,0,0,1,1.5.35,3.39,3.39,0,0,1,.44.08l.49,0c2.57-1.4,3.09-4.17,4.13-6.51,3.59-8.05,5.51-16.58,7-25.24.93-5.49,2.16-10.92,3.24-16.37a6.55,6.55,0,0,1,4.54-5.31c7.62-2.83,13.21-8.12,17.51-14.92a124.29,124.29,0,0,0,7.84-15.33,26.47,26.47,0,0,0,1.75-5.7C605.78,622.44,604.92,620.8,604.53,619.1ZM513.2,643.55a6,6,0,0,1-.8-.48c.65,0,1.38,0,1.68-.65a5.68,5.68,0,0,0,.68-3c-.49-4.16-.9-8.34-1.43-12.5-.52-4-1.27-8-1.73-12-.34-3.07-1.11-6.08-1.14-9.19h0c2.49,1.5,2.93,4.1,3.31,6.59,1.05,6.84,2,13.69,2.84,20.56.3,2.6.62,5.21.68,7.86S516,644.77,513.2,643.55Zm40-22.55c-1.2,0-1.4-1.07-1.46-1.86-.31-4-1.1-8.07,0-12.12a12,12,0,0,1,1-2.43,5.52,5.52,0,0,1,2-2.59C557.19,606.08,556.48,614.8,553.21,621Zm39.7,7.23-.33.53a27.61,27.61,0,0,1-4.36,9.51c-.14-.19-.42-.42-.38-.56,1-3.86,2.42-7.51,5.23-10.46C593,627.57,593,627.9,592.91,628.23Zm-76,27.23.31.27V655A2.83,2.83,0,0,0,516.89,655.46Z" fill="#efef50"/><path d="M888.11,1033.24l10-.73a56.11,56.11,0,0,1,10,0c1,.1,1.89.26,2.84.28a84.16,84.16,0,0,1,20.93,3.12,20.93,20.93,0,0,1,4.79,2.18c3.34,1.93,3.74,4.83,1.18,7.73a31.29,31.29,0,0,1-8,6c-8.73,5.08-18.21,8.42-27.63,11.92-16.16,6-32.77,10.43-49.51,14.38-7,1.66-14.13,3-21.27,4.19a98.43,98.43,0,0,1-17.81,1.39,16.25,16.25,0,0,1-4.91-.88c-2.75-.93-3.69-2.92-2.68-5.61a3.76,3.76,0,0,0,.55-1.81,91,91,0,0,1,9.61-7.07,290.49,290.49,0,0,1,70.3-34.74C887,1033.45,887.58,1033.37,888.11,1033.24Z" fill="#e5e576"/><path d="M487.11,1222.62c1.82,1.72,3.55,3.23,5.13,4.88,10,10.48,19.85,21,28.49,32.68,2.72,3.66,5.21,7.47,7.72,11.27,9.41,14.26,2.44,31.94-12.73,37.87A25.73,25.73,0,0,1,481.25,1291a48,48,0,0,1-.79-13.58c.9-16.61,3.29-33,5.89-49.45C486.62,1226.23,486.84,1224.49,487.11,1222.62Z" fill="#dae252"/><path d="M794.4,1065.25c-8.31,1.13-16.44,2.27-24.6,3.17-8.74,1-17.48,1.82-26.26,1.93-5.5.06-11,.52-16.5-.54a25.27,25.27,0,0,1-13.4-7.23,69,69,0,0,1,6.4-7.45c9.51-10.2,20.21-19.06,31.08-27.74.77-.62,1.24-.85,2.2-.08,9.31,7.55,18.41,15.33,27.07,23.62,4.27,4.09,8.62,8.09,12.69,12.38A3.77,3.77,0,0,1,794.4,1065.25Z" fill="#dae252"/><path d="M721.22,1222.68a4.42,4.42,0,0,1,1.84-1.91q12.26-9.42,24.51-18.85a7,7,0,0,1,5.34-1.49c14.38,1.48,28.77,2.88,43.15,4.31l24.32,2.43c.27,0,.64-.06.86.42a4.54,4.54,0,0,1-2.5,1.15c-6.37,1.52-11.76,4.87-16.74,9-2.72,2.23-5.24,4.69-8.18,6.65-4.48,3-9.24,5.14-14.78,4.71-2.86-.22-5.69-.78-8.54-1.12-7.7-.9-15.39-1.82-23.09-2.64C738.77,1224.39,730.12,1223.57,721.22,1222.68Z" fill="#eda856"/><path d="M760.11,1020.57c10.8-10.33,44.26-28.9,53.09-29.42-3.62,21.89-7.62,43.66-12.56,65.24-1.06.07-1.42-.64-1.91-1.11-8.3-7.85-16.35-16-25-23.49C769.36,1028,764.81,1024.31,760.11,1020.57Z" fill="#dae252"/><path d="M810.65,1160.78l5.33-3.14c7-4.09,14.1-8.16,21.12-12.27,5.9-3.44,12.14-5.66,19.08-5.47a85.57,85.57,0,0,1,9,1.09c8.23,1.13,16.49,2,24.76,2.74l15.87,1.5c-.24,1-1.07,1.38-1.7,1.89-5.81,4.76-11.67,9.46-17.49,14.21-2.28,1.87-4.55,3.78-6.73,5.77a3.54,3.54,0,0,1-3,1.06c-8.25-.91-16.51-1.77-24.77-2.63l-20.73-2.13-20.65-2.14Z" fill="#fefefe"/><path d="M778,1181.38c4.74-3.24,9.68-6.21,14.21-9.77a8.66,8.66,0,0,1,6.11-1.65c3,.2,5.89.48,8.83.78q13.47,1.37,26.93,2.77l32.17,3.3c0,.8-.69.94-1.11,1.24-9.44,6.57-18.9,13.11-28.32,19.71a5.44,5.44,0,0,1-4,1c-8.17-1-16.35-1.81-24.53-2.7-2.14-.23-4.29-.42-6.43-.63a10.28,10.28,0,0,1-4-1.6c-5.32-3.41-11.11-6-16.46-9.34C780.11,1183.67,778.41,1183.21,778,1181.38Z" fill="#fefefe"/><path d="M769.41,1238c-3.09,1.64-6.14,3.32-9.25,4.91-10.31,5.28-20.75,10.27-31.39,14.85a10.3,10.3,0,0,1-5.33.86c-9.14-1-18.29-1.76-27.43-2.63-3-.29-6-.65-9.21-1a20.78,20.78,0,0,1,3.75-4.51c5.07-5.11,10.18-10.16,15.3-15.22,3.22-3.17,7.16-4,11.5-3.46,10.16,1.18,20.31,2.38,30.47,3.5,6.91.76,13.83,1.4,20.74,2.1a5,5,0,0,1,.67.15Z" fill="#ef8c54"/><path d="M865.06,1130.87c1.64-.77,3.28-1.55,4.93-2.31,10.71-4.94,21.42-9.91,32.54-13.89a150,150,0,0,1,24-6.36,17.37,17.37,0,0,1,6.89-.06c2.52.55,2.8,1,2,3.45a24.48,24.48,0,0,1-3.67,7,141.45,141.45,0,0,1-14.4,16.34,4.59,4.59,0,0,1-4.1,1.31c-8.41-1-16.83-1.8-25.25-2.68l-22.86-2.36Z" fill="#fefefe"/><path d="M616.72,624.38c-3.3,8.15-7,16.14-12.09,23.34-4.75,6.65-10.69,11.84-18.47,14.63-3.39,1.22-5,3.55-5.67,7-.94,4.76-2,9.5-2.8,14.28-1.22,6.89-2.4,13.79-4.27,20.55a96.57,96.57,0,0,1-5.08,14.18,3,3,0,0,0-.51,1.65c1,.77,2.51-.15,3.56.71a128.7,128.7,0,0,0-13.32.47,1.71,1.71,0,0,0,.89-1.58,1.8,1.8,0,0,0,0-.22c.63-1.79,0-3.58,0-5.38a2.22,2.22,0,0,1-.45,0c-.59-.14-1.2-.23-1.79-.35a3,3,0,0,1-2-2.06c-2.65-.67-2.93-1.14-2.94-4,0-3.59-.11-7.19,0-10.77a60.29,60.29,0,0,1,2.06-11.69c1.11-4.71,2.64-9.31,3.4-14.11.34-2.11.47-4.27.86-6.34a12.46,12.46,0,0,0-.8-6.85l-.19-.08c-3.18-1.72-5.35-4.48-7.41-7.33a8.28,8.28,0,0,0-2.26,1.14,30,30,0,0,1-5.32,2.66c-2.49,1-4.67,2.34-5.7,5a8.31,8.31,0,0,0-.51,3c0,6.62.19,13.25-.06,19.86-.18,4.74-.24,9.5-.87,14.23l-.65.15c-.88,0-1.75-.07-2.63-.09-2-.06-2.18-.14-1.91-2a73.59,73.59,0,0,0,.41-10.28c0-6,0-12-.14-18,0-2-.34-4-.34-6,0-4.08,1.88-6.89,5.61-8.33a29.4,29.4,0,0,0,6.69-3.14,4.61,4.61,0,0,1,.86-.43c3.39-1.53,5-1.09,7.37,2,2,2.53,4,5.06,6.77,6.76.79.37,1.61.7,2.36,1.14a5.67,5.67,0,0,1,3,5.33,51.89,51.89,0,0,1-1.24,10.17c-1.16,5.7-3,11.22-4.31,16.89a53.12,53.12,0,0,0-1.58,16.09c.12,1.65-.23,3.33,0,5,.55.57.85,1.43,1.8,1.54a1.61,1.61,0,0,1,1.5.35,3.39,3.39,0,0,1,.44.08l.49,0c2.57-1.4,3.09-4.17,4.13-6.51,3.59-8.05,5.51-16.58,7-25.24.93-5.49,2.16-10.92,3.24-16.37a6.55,6.55,0,0,1,4.54-5.31c7.62-2.83,13.21-8.12,17.51-14.92a124.29,124.29,0,0,0,7.84-15.33,26.47,26.47,0,0,0,1.75-5.7c.37-1.79-.49-3.43-.88-5.13h0a2.15,2.15,0,0,0-.49-.51,1.25,1.25,0,0,1-.07-.43,7.54,7.54,0,0,1-1.82-2c-4.06-3-8.48-4.17-13.44-2.87a22,22,0,0,0-11.5,8.87A54.9,54.9,0,0,0,568.39,641s0,0,0,0q-.09,1.23-.15,2.46a8.65,8.65,0,0,1-1.6,5.39,2.17,2.17,0,0,1-.56.49l-.34.14-.16-.05a1,1,0,0,1-.84.39c-.5.57-1,.59-1.48,0-3.27-.73-8.25-5.8-8.54-8.91a8.38,8.38,0,0,1,1.37-5c1.06-1.78,2.25-3.48,3.32-5.26a39.21,39.21,0,0,0,5.89-17.74,28.92,28.92,0,0,0-3-15.91,8.56,8.56,0,0,0-5.3-3.42c-6.2-.3-10.61,2.68-14,7.59-.26.39-.58.74-.88,1.11,0-.28,0-.55,0-.83.2-3.25,1.63-6.09,3.22-8.87.22-.38.46-.76.69-1.13h0c.12-.05.24-.08.36-.12l.16-.07a1.75,1.75,0,0,0-.11-.48l.91-.51a16.54,16.54,0,0,1,10.22-5.68c5.11-.8,8.86,1.62,11,6.53A29.52,29.52,0,0,1,571,602.73c0,2.4,0,4.79,0,7.19a37.22,37.22,0,0,1-2.36,15.47,53.31,53.31,0,0,1-5.83,11.21,16.53,16.53,0,0,0-2.84,6.5l.51,1.39c1.91,1.41,3.25,3.45,5.24,4.79l.5-.45a9.34,9.34,0,0,0,1.45-5.25,81.46,81.46,0,0,1,2.34-15.92,23.63,23.63,0,0,1,3.15-7.94c3.77-5.64,8.91-8.94,15.92-8.8l2.15,0c1.91-.77,3.6-2,5.59-2.66,3.41-1.12,6.83-1.68,10.33-.69,4.55,1.3,8.41,3.6,10,8.34A11.93,11.93,0,0,1,616.72,624.38Z" fill="#f7f6ab"/><path d="M558.94,719.39a22.37,22.37,0,0,0-2.57.26c-2,.31-4.07.61-6-.25-1.52-5-2.52-10.17-3.83-15.24a18,18,0,0,0-.66-2.28c-1.47-3.55-4.26-5.19-8-5.4-1-.05-1.9-.08-2.85-.12.63-4.73.69-9.49.87-14.23.25-6.61.07-13.24.06-19.86a8.31,8.31,0,0,1,.51-3c1-2.71,3.21-4.06,5.7-5a30,30,0,0,0,5.32-2.66,8.28,8.28,0,0,1,2.26-1.14c2.06,2.85,4.23,5.61,7.41,7.33l.19.08a12.46,12.46,0,0,1,.8,6.85c-.39,2.07-.52,4.23-.86,6.34-.76,4.8-2.29,9.4-3.4,14.11a60.29,60.29,0,0,0-2.06,11.69c-.13,3.58,0,7.18,0,10.77,0,2.85.29,3.32,2.94,4a3,3,0,0,0,2,2.06c.59.12,1.2.21,1.79.35a2.22,2.22,0,0,0,.45,0C558.94,715.81,559.57,717.6,558.94,719.39Z" fill="#fefcfc"/><path d="M708.33,1054c-4.11-9-1.74-20.7,6.09-28.4,9-8.84,22.64-8.78,29.19-4.5-6.42,4.94-12.4,10.29-18.43,15.58A201.77,201.77,0,0,0,708.33,1054Z" fill="#1f8a6e"/><path d="M662.35,588.82c0,1.39-.51,1.76-1.79,1.14a20.26,20.26,0,0,1-5.54-4.51A103.27,103.27,0,0,1,644,571.34c-1.57-2.31-3.1-4.64-4.76-6.89A18.79,18.79,0,0,1,636,558.3a4.48,4.48,0,0,1-.18-2.35,1.81,1.81,0,0,1,2.36-1.39,6.63,6.63,0,0,1,2.72,1.47,14.11,14.11,0,0,1,3.43,4c1.82,3.31,4.29,6.14,6.51,9.16a115.34,115.34,0,0,1,9.54,14.62A15.8,15.8,0,0,1,662.35,588.82Z" fill="#fff"/><path d="M778,1181.38c3.47,2.87,7.49,4.84,11.42,6.93,4.21,2.24,8.27,4.76,12.42,7.11-4.71,0-9.38-.57-14.06-1-7.3-.69-14.59-1.51-21.88-2.29-1-.11-2-.28-3.47-.47A154.74,154.74,0,0,1,778,1181.38Z" fill="#e0d253"/><path d="M704.7,1266.84a72.84,72.84,0,0,1-17.79,4.56c-2.14.23-4.31.23-6.45.45-2.64.28-3.58-2.16-2.57-4,.08-.14.11-.31.19-.44a12.79,12.79,0,0,1,2-3.27c1-.93,2.43-.08,3.64,0,6.76.62,13.51,1.35,20.27,2C704.18,1266.27,704.42,1266.26,704.7,1266.84Z" fill="#ed7956"/><path d="M518.67,669.41c0,2.79-.48,5.53-.66,8.3-.13,1.88-.18,3.8-.45,5.68a79.16,79.16,0,0,0-.84,9.22,13.22,13.22,0,0,1-.5,3.76l-2.89-.08c-.05-3.83.6-7.6.89-11.4.44-5.71,1.59-11.32,2.1-17,.25-2.84.76-5.66.91-8.52a3.94,3.94,0,0,1,.58.84,14.41,14.41,0,0,1,.85,2.87C519.23,665.2,518.63,667.3,518.67,669.41Z" fill="#f7f6ab"/><path d="M517.83,659.83c0,.12,0,.24,0,.36a3.94,3.94,0,0,0-.58-.84,2.33,2.33,0,0,1,.58.22h0A2.11,2.11,0,0,1,517.83,659.83Z" fill="#feebeb"/><path d="M519.67,676.83c-.25,2.37-.35,4.75-.57,7.13-.37,4.12-.58,8.26-.55,12.4a4.83,4.83,0,0,1-2.33,0,13.22,13.22,0,0,0,.5-3.76,79.16,79.16,0,0,1,.84-9.22c.27-1.88.32-3.8.45-5.68.18-2.77.7-5.51.66-8.3,0-2.11.56-4.21,0-6.35a14.41,14.41,0,0,0-.85-2.87c0-.12,0-.24,0-.36a2.11,2.11,0,0,0,0-.25h0a2.33,2.33,0,0,0-.58-.22c0-.3,0-.59-.05-.88-3.1-3.44-7.22-5-11.45-6.54a42.11,42.11,0,0,1-21-16.11,5.59,5.59,0,0,1-1.14-2.33,31.24,31.24,0,0,0,3.31,4.28,36.91,36.91,0,0,0,10.45,7.8c.54.28,1.07.78,1.7.6a1.17,1.17,0,0,0,.46-.23A66,66,0,0,0,513,652.53c1.52.57,3.18,1.1,4.25,2.51a2.83,2.83,0,0,0-.31.42l.31.27V655a6.82,6.82,0,0,1,3.38,5.69C521.08,666.14,520.23,671.47,519.67,676.83Z" fill="#f7f6ab"/><path d="M517.83,659.83c0,.12,0,.24,0,.36a3.94,3.94,0,0,0-.58-.84,2.33,2.33,0,0,1,.58.22h0A2.11,2.11,0,0,1,517.83,659.83Z" fill="#f7eda2"/><path d="M517.2,655v.69l-.31-.27A2.83,2.83,0,0,1,517.2,655Z" fill="#f7eda2"/><path d="M644.87,605.15h.47l.16.18.19-.14.21-.06A95.43,95.43,0,0,1,648.6,618c1.66,9.36,2.85,18.78,3.88,28.23.08.71,0,1.43.06,2.15-.9-1.24-.67-2.76-.83-4.11-1.33-10.83-3.39-21.53-5.46-32.23-.31-1.55-.83-3.06-1.18-4.6C644.91,606.68,644.45,606,644.87,605.15Z" fill="#f8e7e7"/><path d="M559,719.61a1.71,1.71,0,0,1-.89,1.58c-1.64.19-3.27.45-4.91.55-2.36.13-2.38.78-2.84-2.34,2,.86,4,.56,6,.25a22.37,22.37,0,0,1,2.57-.26A1.8,1.8,0,0,1,559,719.61Z" fill="#f7f6ab"/><path d="M645.8,604.67c-.57-.43-.43-1-.39-1.59A1.8,1.8,0,0,1,645.8,604.67Z" fill="#fefcfc"/><path d="M645.28,602.27a1.16,1.16,0,0,1-.34-1.18A1.18,1.18,0,0,1,645.28,602.27Z" fill="#fefcfc"/><path d="M809.06,908.65a26.64,26.64,0,0,1-2.39-8.52c-.72-4.46-1.31-8.94-1.89-13.42-.24-1.89-.25-3.8-.45-5.7-.58-5.37-1.16-10.72-1.94-16.07-1.1-7.54-2.44-15-3.76-22.53-.79-4.45-1.66-8.88-2.14-13.39a83,83,0,0,0-1.86-11c-1-3.9-3.16-7.12-5.23-10.43a284.93,284.93,0,0,0-17-24.54,91.18,91.18,0,0,0-18-18.07c-4.5-3.28-9.72-5-15.15-6.21a55.49,55.49,0,0,0-15-.88,63.14,63.14,0,0,0-13.11,2.26,136.57,136.57,0,0,0-21.81,8.48c-3.68,1.73-7.21,3.8-11.11,5a6.6,6.6,0,0,1-4.21.19,6.34,6.34,0,0,0-3.75.2c-4.06,1.15-8.11,2.34-12.23,3.22-1.67.35-3.55,1-5.28-.06a2.52,2.52,0,0,1,.67-1.79,45.27,45.27,0,0,1,6.3-7.78q2.5-2.42,4.92-4.92a152.79,152.79,0,0,1,11.47-10.1,222.61,222.61,0,0,1,22.06-15.94c3.47-2.27,7.15-4.18,10.79-6.18a104.83,104.83,0,0,1,16.82-7.39,57.75,57.75,0,0,1,10.69-2.35c6.48-.9,12.46.51,18.33,3a52.4,52.4,0,0,1,16.41,11.34,94.59,94.59,0,0,1,15.51,20.83,170,170,0,0,1,14.13,33.43,251.14,251.14,0,0,1,6.71,27.07c.32,1.64.65,3.27.91,4.92.33,2.09-.25,4.11-.67,6.13-.66,3.19-1.68,6.31-1.68,9.61a9.57,9.57,0,0,0,.47,3.05c1,2.87,1.85,5.77,2.76,8.66a47.68,47.68,0,0,1,1.14,7c.45,2.83.16,5.73.83,8.53a3.36,3.36,0,0,1,.08.71c0,6.94,1,13.88.41,20.81-.44,5-.34,10-1.27,14.95-.3,1.61-.36,3.31-.55,5A8.31,8.31,0,0,1,809.06,908.65Z" fill="#229e7d"/><path d="M378,796.91a59.16,59.16,0,0,1,3.37-22.73,55.92,55.92,0,0,1,16.25-24.71,37.27,37.27,0,0,1,18.91-8.53,45.29,45.29,0,0,1,10.26-.35,39.48,39.48,0,0,1,14.05,3.54,57.9,57.9,0,0,1,14.51,9.58,80.63,80.63,0,0,1,16.17,20.23,75.16,75.16,0,0,1,7.93,20.43,79.67,79.67,0,0,1,1.8,11.76,74.35,74.35,0,0,1,.35,9.54c-.51,10.57-2.19,20.9-7.17,30.42a53.63,53.63,0,0,1-12.58,16.14,36.63,36.63,0,0,1-18.45,8.43,52.05,52.05,0,0,1-11.69.32,39,39,0,0,1-13.56-3.57,46.7,46.7,0,0,1-11.61-7.07,77.13,77.13,0,0,1-7.42-7.06,100.23,100.23,0,0,1-8.45-11,76.9,76.9,0,0,1-7.35-14.75,91,91,0,0,1-4.78-19.18A47.85,47.85,0,0,1,378,796.91Z" fill="#0d1214"/><path d="M419.79,1282.8c.5.94,1.52,1.11,2.34,1.53A102.46,102.46,0,0,1,442,1297.58a91.85,91.85,0,0,1,9.44,9.16,143.8,143.8,0,0,1,15.25,20.16,31,31,0,0,1,4.19,10.13c1.11,5.56-.49,10.1-6.14,13.16a29.07,29.07,0,0,1-10,2.87,85,85,0,0,1-15.29.33,59.85,59.85,0,0,1-15-2.63,88.39,88.39,0,0,1-16.84-6.78,117.12,117.12,0,0,1-16.77-11c-3.44-2.72-6.69-5.67-9.84-8.67a92.09,92.09,0,0,1-7.4-8.11,99.55,99.55,0,0,1-7.44-9.93c-3.45-5.47-6.59-11.12-8-17.53a17,17,0,0,1-.37-7,9,9,0,0,1,6-7.19,28.84,28.84,0,0,1,14.57-1.35c2,.33,3.94.21,5.93.52,4.95.76,9.86,1.63,14.76,2.67a95.37,95.37,0,0,1,13.06,3.73,3.44,3.44,0,0,0,2.09.33A5.67,5.67,0,0,1,419.79,1282.8Z" fill="#e5e576"/><path d="M419.79,1282.8a23.11,23.11,0,0,0-5.64-2.37,75.87,75.87,0,0,0-12.81-4.61,185.79,185.79,0,0,0-43.34-7.46,104.76,104.76,0,0,0-10.78-.2c-.88,0-1.8,0-2.22-1a2,2,0,0,1,1.47-2.76,6,6,0,0,1,1.2-.08,198.07,198.07,0,0,1,57.58,7.17c22.59,6.42,43.05,17,60.85,32.42a119.2,119.2,0,0,1,34.09,49.67c.85,2.32,1.65,4.67,2.34,7a4.6,4.6,0,0,1-1.76,5.31c-2.67,1.88-5.74,1-7.06-2.15-1.2-2.87-2.31-5.78-3.37-8.71-8-22.14-22-39.89-40.44-54.22a143,143,0,0,0-27.67-17.12A7.87,7.87,0,0,0,419.79,1282.8Z" fill="#0d1214"/><path d="M489.15,592.07c-.27.33-.55.67-.81,1l-1,.53v0A14.72,14.72,0,0,1,489.15,592.07Z" fill="#f7eda2"/><path d="M553.21,621a15.82,15.82,0,0,1-3.19,5.29c-1.42-7-1.93-13.49,1.3-19.78a4.17,4.17,0,0,1,1.36-1.92,12,12,0,0,0-1,2.43c-1.05,4.05-.26,8.08,0,12.12C551.81,619.93,552,621,553.21,621Z" fill="#feebeb"/><path d="M546.51,590.78l-.41.67h0c-.23.37-.47.75-.69,1.13-1.59,2.78-3,5.62-3.22,8.87,0,.28,0,.55,0,.83-2.38,7-2.79,14.22-2.34,21.51.17,2.78.75,5.53,1.14,8.29a17.11,17.11,0,0,1,.23,2.13c0,3.11-1.15,5.52-4.45,6.4a.81.81,0,0,0,.09-.1l0-.07-.41.25h0c1-2.46.16-4.9-.33-7.25-1-4.58-2.14-9.15-2.45-13.81a50.63,50.63,0,0,1,.24-12.17,53,53,0,0,1,1.06-5.84C536.64,595.71,540.61,592.23,546.51,590.78Z" fill="#f7f6ab"/><path d="M536.44,640.69l.41-.25,0,.07a.81.81,0,0,1-.09.1h0Z" fill="#feebeb"/><path d="M546.62,591.26l-.16.07c-.12,0-.24.07-.36.12l.41-.67A1.75,1.75,0,0,1,546.62,591.26Z" fill="#feebeb"/><path d="M536.41,640.71a4.34,4.34,0,0,1-1.14.37,1.63,1.63,0,0,0,.54,0A8.18,8.18,0,0,1,531,642a2.59,2.59,0,0,1-2.68-2.57c-.41-7.28-3-14.14-4-21.31-.51-3.62-1.21-7.21-1.72-10.83-.27-1.92-1.14-3.64-1.59-5.49,0-.28,0-.57,0-.85s0-.52,0-.78v-.32c3.11.43,5.11,2.52,6.7,4.91a15.94,15.94,0,0,1,2.49,7.36,217.15,217.15,0,0,0,4,24.57,11.72,11.72,0,0,1,.27,2.12c.07,1.63.08,1.63,1.93,1.87Z" fill="#f7f6ab"/><path d="M521,599.87v.32a.72.72,0,0,1-.15-.11A1.37,1.37,0,0,1,521,599.87Z" fill="#feebeb"/><path d="M536.41,640.71c-.19.13-.39.26-.59.37h0a1.63,1.63,0,0,1-.54,0A4.34,4.34,0,0,0,536.41,640.71Z" fill="#feebeb"/><path d="M489.15,592.07c-.27.33-.55.67-.81,1l-1,.53v0A14.72,14.72,0,0,1,489.15,592.07Z" fill="#f7f6ab"/><path d="M520.88,600.08a.72.72,0,0,0,.15.11c0,.26,0,.52,0,.78s0,.57,0,.85c-2.69-4.27-6.67-6.63-11.49-7.73a1.2,1.2,0,0,0,0-.53,1.9,1.9,0,0,0-1-1.22c-6.05-4.11-13.79-4.42-19.39-.28h0a14.72,14.72,0,0,0-1.76,1.53,15.78,15.78,0,0,1,7.67-6.83c7.66-3.33,14.65-1.82,20.82,3.53a16.19,16.19,0,0,1,4.17,6.88c.33.9.66,1.79,1,2.69A1.37,1.37,0,0,0,520.88,600.08Z" fill="#f7f6ab"/><path d="M521,599.87v.32a.72.72,0,0,1-.15-.11A1.37,1.37,0,0,1,521,599.87Z" fill="#f7f6ab"/><path d="M509.51,594.09c-1.12,0-2.24,0-3.36,0a13.94,13.94,0,0,0-9.48,4c-5.26,5-7.84,11.34-9.21,18.27a27.61,27.61,0,0,0,1.79,16.6,29.43,29.43,0,0,0,8.89,11.66,4.62,4.62,0,0,1,1.33,1.35,1.17,1.17,0,0,1-.46.23c-.63.18-1.16-.32-1.7-.6a36.91,36.91,0,0,1-10.45-7.8,31.24,31.24,0,0,1-3.31-4.28,27.84,27.84,0,0,1-4.29-13.75,38.29,38.29,0,0,1,3.56-18.6,25.86,25.86,0,0,1,4.55-7.52h0l1-.53c.26-.35.54-.69.81-1h0c5.6-4.14,13.34-3.83,19.39.28a1.9,1.9,0,0,1,1,1.22A1.2,1.2,0,0,1,509.51,594.09Z" fill="#f7f6ab"/><path d="M517.2,655v.69l-.31-.27A2.83,2.83,0,0,1,517.2,655Z" fill="#f7f6ab"/><path d="M546.62,591.26l-.16.07c-.12,0-.24.07-.36.12l.41-.67A1.75,1.75,0,0,1,546.62,591.26Z" fill="#f7f6ab"/><path d="M514.08,642.42c-.3.69-1,.66-1.68.65a21.37,21.37,0,0,1-8.81-5.88,25.84,25.84,0,0,1-7.31-14.92c-.25-1.87-.53-3.77.22-5.62a1.61,1.61,0,0,1,.51,1.19,37.44,37.44,0,0,1,4.35-10.32c2.81-3.09,5.47-3.6,9.1-1.77,0,3.11.8,6.12,1.14,9.19.46,4,1.21,8,1.73,12,.53,4.16.94,8.34,1.43,12.5A5.68,5.68,0,0,1,514.08,642.42Z" fill="#fed2d2"/><path d="M593.07,627.25c-2.81,3-4.23,6.6-5.23,10.46,0,.14.24.37.38.56a39.2,39.2,0,0,1-11.46,12,77.71,77.71,0,0,1,4.39-15.51,23,23,0,0,1,11.2-12,5.08,5.08,0,0,1,1.95-.58A15.54,15.54,0,0,1,593.07,627.25Z" fill="#fce5d0"/><path d="M517.29,640.75c.05,2.73-1.25,4-4.09,2.8a6,6,0,0,1-.8-.48c.65,0,1.38,0,1.68-.65a5.68,5.68,0,0,0,.68-3c-.49-4.16-.9-8.34-1.43-12.5-.52-4-1.27-8-1.73-12-.34-3.07-1.11-6.08-1.14-9.19h0c2.49,1.5,2.93,4.1,3.31,6.59,1.05,6.84,2,13.69,2.84,20.56C516.91,635.49,517.23,638.1,517.29,640.75Z" fill="#f7f6ab"/><path d="M553.21,621c-1.2,0-1.4-1.07-1.46-1.86-.31-4-1.1-8.07,0-12.12a12,12,0,0,1,1-2.43,5.52,5.52,0,0,1,2-2.59C557.19,606.08,556.48,614.8,553.21,621Z" fill="#f7f6ab"/><path d="M593.07,627.25c-.05.32-.11.65-.16,1l-.33.53a27.61,27.61,0,0,1-4.36,9.51c-.14-.19-.42-.42-.38-.56C588.84,633.85,590.26,630.2,593.07,627.25Z" fill="#f7f6ab"/><path d="M604.05,618.59l.49.51Z" fill="#f7eda2"/><path d="M645.69,605.2c-.15.36-.25.12-.35,0A1.34,1.34,0,0,1,645.69,605.2Z" fill="#fefcfc"/><path d="M513.85,539.64c4.07,1.35,8.4,2,12.61,3,1.66.39,3.24,1.11,5,1.05-.37.81-1.32,1-2.15,1.37a115.79,115.79,0,0,0-21.56,10.69,59.63,59.63,0,0,0-11.43,9.62,54.81,54.81,0,0,0-9.46,14.45,8.28,8.28,0,0,1-2.37,2.93,117.7,117.7,0,0,0-14.21,14,65.06,65.06,0,0,0-11.41,18.16,32.64,32.64,0,0,0-2.28,9.59c-.15,1.83-.88,3.65-.54,5.5.76,4.13,1.23,8.29,2.57,12.36,2.47,7.52,4,15.22,6.25,22.79,3.23,10.85,7.88,21.25,16.62,30.15.41.41-3.65,2.16-6.25.08-6.26-5-15.8-18.32-19.16-26-3.46-7.87-5.62-16-8.15-24.08-1.79-5.71-3.83-11.37-5.42-17.11-2.4-8.65-2.85-17.33.32-26,2.56-7,7.16-13,12.84-18.64,2.65-2.61,5.39-5.15,8.09-7.73a12.33,12.33,0,0,0,2.82-3.91c3.84-8.78,10.7-15.74,20-21.22A108,108,0,0,1,513.85,539.64Z" fill="#ffebeb"/><path d="M207.27,240.71l.22-1.57q3.15-19.81,7.77-26.68t6.64-2.59q2,4.27-2.47,18-2,5.63-5,14.3-3,20.71-.34,37,1.8,8.22,3.38,6.64t2.82-8.05q1.23-6.48,2-13c.53-4.36.83-7.13.9-8.33a3.82,3.82,0,0,1,1.35-2.42,3.63,3.63,0,0,1,2.71-.85,3.91,3.91,0,0,1,3.15,2.7q4.72,15.66,9.79,17.06t7.83-6.53q2.76-7.94.28-20.1a3.58,3.58,0,0,1,.45-2.81,3.48,3.48,0,0,1,2.25-1.58,3.52,3.52,0,0,1,2.76.45,4,4,0,0,1,1.63,2.26q2.82,14-1.07,24.2t-11.09,12q-7.2,1.74-14.52-9.85-3.27,18.69-7.71,23.13t-8.45-1.91q-4-6.36-5.74-20a127.24,127.24,0,0,1,.4-31.24Z" fill="#141919"/><path d="M277.29,255.24a30.83,30.83,0,0,1,.23,7.54,42.46,42.46,0,0,1-.9,5.85c2.47,2.63,4.73,4,6.75,4.06q3.38.1,5.57-7.66t1.86-26.9q-6.75-1.37-7.32-5a8.63,8.63,0,0,1,2.59-7.65,13.27,13.27,0,0,1,3.16-2.37,8,8,0,0,1,3.15-1q4.61-.45,5.18,4.61c.15,1.81.26,3.49.33,5.07A163.3,163.3,0,0,0,316.24,228q6.09-1.45,7.44,4.39,1,5.42-2.76,17.62t-8.28,24.6q-3.27,8.67-5.12,14.58T306.34,296q4.95-.11,11.43-6.47a179.05,179.05,0,0,0,12.66-13.9q4.85-5.75,8.44-9.35c2.41-2.4,4.13-3.3,5.18-2.7a2.39,2.39,0,0,1-.05,1.52,9.55,9.55,0,0,1-.85,1.63,15.25,15.25,0,0,0-1.24,2.25,78.06,78.06,0,0,1-12.27,16.5,111,111,0,0,1-16.43,14.74q-8.11,5.81-11.38,4-3.6-3.72-.61-15.42t7.93-25.33q3.15-8.9,5.41-16.44t2.25-11.71a105.75,105.75,0,0,1-18.8,3.15q.11,22.74-4,32.09t-10.19,9.34a14.12,14.12,0,0,1-9.46-3.6q-6.3,15-10.75,14.24t-6.58-10a63.47,63.47,0,0,1-1.24-19.82q.9-10.58,5.35-15.31t13.22,3.49A12.92,12.92,0,0,1,277.29,255.24ZM261,268.8a36.53,36.53,0,0,0,.62,9.35q.84,3.77,2.7,2.64t4.56-10.35a41.69,41.69,0,0,1-5.52-9.8,9,9,0,0,1-.56-1.46A29.91,29.91,0,0,0,261,268.8Zm9.12-12.21a6,6,0,0,0-.9-2.59l-.68.22.34.9a29.93,29.93,0,0,1,1.24,3l.22.46C270.24,257.87,270.16,257.19,270.09,256.59Z" fill="#141919"/><path d="M349.91,187.8q-2.37,35.58-2.71,72.39l.45-.22c.38-2.78.75-5.48,1.13-8.11Q351.15,235.65,355,226h-.11q3.94-9,9.46-10.64a9.37,9.37,0,0,1,9.74,2.42q4.21,4,4.39,12.1t-6.7,18.41a61.79,61.79,0,0,1-13.63,14q2.14.9,4.17,1.8a59.59,59.59,0,0,0,17,5.85q7.43,1.13,13.51-6.3a1.35,1.35,0,0,1,1.58-.62,2,2,0,0,1,1.29,1.29,2.46,2.46,0,0,1-.62,2.37q-6.53,7.77-13.73,7.82a52.8,52.8,0,0,1-16.55-3,18.55,18.55,0,0,1-2.14-.56q-4-1.12-8.67-2.26-3.72,37.72-4.28,76.9a3.91,3.91,0,0,1-1,2.36A3.39,3.39,0,0,1,346.3,349a3.47,3.47,0,0,1-2.59-.85,3.84,3.84,0,0,1-1.35-2.42q-3-36.25-2.42-87.64t4.79-97q4-38.73,10.47-56.8t12.16-18.85q5.73-.8,7.48,12.21t-3.6,36.25q-5.34,23.25-21,53.31A1.37,1.37,0,0,1,349.91,187.8ZM367,117.21q3.38-19.59,1.07-23.64t-7.15,11.88q-4.85,15.93-9,56.35l-.45,5.62Q363.65,136.81,367,117.21Zm-1.24,126.88q4.73-7.43,5-13.85c.19-4.27-.56-6.94-2.25-8s-3.74.83-6.14,5.63-4.65,13.85-6.75,27.13A51.76,51.76,0,0,0,365.78,244.09Z" fill="#141919"/><path d="M490.13,262.33a1.82,1.82,0,0,1,1.8,1.13c.34.75.05,1.87-.85,3.37q-8.77,14.09-13.45,19.14t-7.71,2.93q-3-2.37-3.38-9.34-1.47-10.69-3-17.06t-4.06-5q-2.52,1.35-6.81,14a55,55,0,0,1-3,7.94c-1,2.14-2.36,3.39-3.94,3.77q-4.15.9-5.51-5.63A92.1,92.1,0,0,1,439,257.38a129.45,129.45,0,0,1,1.35-13.18c.52-2.7.56-3.92.11-3.65s-1.91,2.34-4.39,6.24q-3.37,5.29-10.36,15.77-11.82,19.81-19.25,25.16t-11,1.12q-3.56-4.21-3.94-13.28a68.16,68.16,0,0,1,1.63-18.07q2-9,5.85-13.06a7.47,7.47,0,0,1,2.82-1.69,3.57,3.57,0,0,1,2.7.4,3.73,3.73,0,0,1,1.69,2.3,3.53,3.53,0,0,1-.28,2.54,3.88,3.88,0,0,1-1.86,1.74q-1.12,1.35-2.93,7.77a110.48,110.48,0,0,0-2.87,13.57q-1.06,7.14.06,10.58t6.08-1.18q5-4.62,15.08-21.62a196.54,196.54,0,0,1,13.12-20.38q6.24-8.33,11-6.08,2.48,2.15,2.88,10.64t.05,16.72q-.11,4.85,0,7.43a98,98,0,0,1,4.11-10.36q2.31-5,5.35-7,5.75-3,9.51,2.76a44.5,44.5,0,0,1,5.74,13.85,103.47,103.47,0,0,1,2.42,12.1c.3,1.95,1.05,2.5,2.25,1.63a20.57,20.57,0,0,0,4.34-5.06q2.53-3.78,5.46-8.39c.67-1.12,1.35-2.21,2-3.26A3.37,3.37,0,0,1,490.13,262.33ZM398.2,222.76a3.36,3.36,0,0,1,.45-2.65,3.43,3.43,0,0,1,2.2-1.69,3.67,3.67,0,0,1,2.76.45l5.18,3.27a3.41,3.41,0,0,1,1.69,2.19,3.65,3.65,0,0,1-2.76,4.4,4.24,4.24,0,0,1-2.76-.4l-5.18-3.26A3.93,3.93,0,0,1,398.2,222.76Z" fill="#141919"/><path d="M510.56,226.87a3.42,3.42,0,0,1,1.41-2.42,3.88,3.88,0,0,1,2.64-.74,3.56,3.56,0,0,1,3.15,3.61q.9,28.94,1,52.91A153.29,153.29,0,0,0,533.19,264a3.25,3.25,0,0,1,2.59-1.41,1.84,1.84,0,0,1,1.8,1.24c.3.79,0,1.78-.9,3a292.23,292.23,0,0,0-17.9,27.25q-.67,52.23-7.26,83.48T496.2,421.29q-8.71,12.49-15.59,8.67t-7.93-21.67q-1.08-17.85,7.65-47.51t31.13-68.62c.07-1.27.19-3.45.34-6.53s.41-6.41.56-10,.19-6.83.11-9.69a16.28,16.28,0,0,0-.79-5.68c-.45-.94-1.23-.28-2.36,2q-7.43,15.87-12.72,16.83t-7.66-6.76a44.17,44.17,0,0,1-1.24-17.78q1.14-10.08,6.37-16.33t15.14-2.42C509.73,233,510.18,230,510.56,226.87ZM482.75,375q-6.87,27.63-4,39.74t10.31,5.74q7.43-6.36,14.29-34t8-79.42Q489.62,347.32,482.75,375Zm18.13-130.43A28,28,0,0,0,495,255.29a32.42,32.42,0,0,0-1.57,10.53q.23,4.4,2.59,3.6t6.75-10.13a80.73,80.73,0,0,0,4.95-16Q503.69,241.17,500.88,244.54Z" fill="#141919"/><path d="M666.48,280.91a3.34,3.34,0,0,1,1.8,0,1.59,1.59,0,0,1,1.13,1.24,4.23,4.23,0,0,1-.79,2.76q-7.54,12.39-12.5,16.27t-8.78,1.29q-4.15-3-7.31-11.48a86.28,86.28,0,0,0-10.25-18.13c-1.58-2-2.4-2.85-2.48-2.7q-1.8,1.8-2.92,7.77t-1.92,12.27q-.9,10.13-3.49,13.4c-2,1.87-3.94,1.87-5.74,0q-1.8-2.59-1.29-13.29t1.63-23.53q.9-9.12,1.69-14.63,1.46-9.12,0-9.07t-8.95,9.29q-4.15,5.19-11,13.06-5.07,5.86-9.23,10a3.09,3.09,0,0,1,.34.68,33.57,33.57,0,0,1,1.8,10,17.85,17.85,0,0,1-2.42,10.19q-2.66,4.33-9.29,4.67-9.35-.35-11.37-7.1a17.34,17.34,0,0,1-.45-9.23,26.86,26.86,0,0,1,3-8.33q4.05-7.2,9.79-6.41a4.63,4.63,0,0,1,3-.57,7.18,7.18,0,0,1,1.58.68.35.35,0,0,0,.11-.23q2.82-3.71,7.55-9.23,13.39-15.54,20.88-21.84t9.85-.11q2.37,6.19.34,28a11.75,11.75,0,0,1,1.91-2.25q5.4-4.73,12.72,4a88.77,88.77,0,0,1,11,19.59q2.81,6.75,4.5,8.22c1.35.67,3.13-.11,5.35-2.37s5.16-6.34,8.83-12.27A1.92,1.92,0,0,1,666.48,280.91ZM578,280.68a3.43,3.43,0,0,1-3-2.25l-.9,1.57a19.71,19.71,0,0,0-2.25,6.08,11.89,11.89,0,0,0,.11,5.41c.45,1.5,2,2.25,4.51,2.25a4,4,0,0,0,3.66-2.31,10.57,10.57,0,0,0,.95-5.12,26.49,26.49,0,0,0-.9-6.08A4,4,0,0,1,578,280.68Z" fill="#141919"/><path d="M715.5,248.67a3.83,3.83,0,0,1,.56,2.7q-6,29.28-5.34,38.79t5.63,5.06q5-4.44,12.15-17.16t14.25-28q7.08-15.3,11.93-27.47.78-9.56,1.69-18.46,1.35-12,3-22.4l-3.15.56q-13.29,2.37-26.69,4.28a269.64,269.64,0,0,1-26.9,2.47,3.56,3.56,0,0,1-2.54-1,3.71,3.71,0,0,1-1.18-2.48,3.8,3.8,0,0,1,1-2.64,3.24,3.24,0,0,1,2.53-1.07,262.67,262.67,0,0,0,26.18-2.48q13.21-1.9,26.51-4.16l5.74-1q1-5.4,2.25-9.9,3.82-12.72,9.18-17.12t8.16,1.24q2.82,5.64-1,22.86a239.66,239.66,0,0,1,38.61-2.93,3.83,3.83,0,0,1,2.59,1.18,3.55,3.55,0,0,1,1,2.53,3.89,3.89,0,0,1-1.12,2.59,3.5,3.5,0,0,1-2.59,1,241.35,241.35,0,0,0-40.53,3.26q-5.29,18.81-14.3,42.11c-.45,1.05-.86,2.1-1.24,3.15Q759.63,254,760,283.46t3.77,49.2a3.7,3.7,0,0,1-.62,2.76,3.88,3.88,0,0,1-2.42,1.52,3.54,3.54,0,0,1-2.65-.62,3.84,3.84,0,0,1-1.52-2.31q-5.52-35.68-3.15-89.73a235,235,0,0,1-20.38,36.82q-10.69,15.42-19.19,20.43t-11.43-4.73q-2.93-9.74,2.93-38.56a24.34,24.34,0,0,1,3.15-8.55q2-3,4.73-2.59A3.49,3.49,0,0,1,715.5,248.67Zm-6.81-14.86a3.27,3.27,0,0,1,1.41-2.36,3.58,3.58,0,0,1,2.64-.73,3.75,3.75,0,0,1,2.42,1.29l4.17,5.52a3.64,3.64,0,0,1,.73,2.64,3.59,3.59,0,0,1-1.41,2.42,3.55,3.55,0,0,1-5.06-.67l-4.17-5.41A3.72,3.72,0,0,1,708.69,233.81ZM769.54,180l-2.48.45q-1.23,6.87-2.25,14.63Q767.41,187.1,769.54,180Zm4.33-17.73a46.84,46.84,0,0,0,.85-7.26c0-1.58-.36-1.62-1.07-.12a92,92,0,0,0-3.55,11.26c-.52,2.1-1.05,4.35-1.57,6.76q1.58-.34,3.15-.57Q773,167.16,773.87,162.27Z" fill="#141919"/><path d="M782.43,329.28a4.2,4.2,0,0,1,1.63-2.25,4,4,0,0,1,2.76-.34,3.82,3.82,0,0,1,2.31,1.69l3.49,6a3.69,3.69,0,0,1-1.35,4.95,4,4,0,0,1-2.76.34,3.43,3.43,0,0,1-2.2-1.69l-3.49-6A3.36,3.36,0,0,1,782.43,329.28Zm13.9-30.06a3.44,3.44,0,0,1-4.56,2.25,3.4,3.4,0,0,1-2.08-1.8q-4.4-9.68-4-28.26a299.93,299.93,0,0,1,3.83-40.24q3.43-21.67,7.94-40.59t8.1-29.16a3.63,3.63,0,0,1,6.7-.39,3.65,3.65,0,0,1,.17,2.76,281.82,281.82,0,0,0-7.71,27.69q-4.34,18.24-7.77,39.35a318.9,318.9,0,0,0-4.11,39q-.68,17.9,3.38,26.57A4,4,0,0,1,796.33,299.22Z" fill="#141919"/></svg>