<svg xmlns="http://www.w3.org/2000/svg" viewBox="0 0 288.26 288.26"><title>n</title><g id="Layer_2" data-name="Layer 2"><path d="M192.34,90.56c1.47,3.68,8.46,9.36,10.08,9.18s42.78.78,44.58,2.22,26.16,39.28,26.34,42.2.54,8.5-1.8,10.84-28.08,19.08-32.94,19.08-31.14-14.94-34.2-13.86-6.84,6.84-6.84,8.64.36,20.52.54,22.86,6.72,6.37,9.54,5.4,6.3-3.6,8.46-4.14,14.4,9.36,14.94,12.6-3.78,20.16-8.82,21.06-40.78,2.68-44.82,0-11.76-34.92-12.72-37.32-2.88-8-7.32-7.68-16.09,1.22-20.16,3.12-5.64,6.24-5,7.56,5.16,18.24,5.28,20.88,2.16,28,0,30.84-25,16.2-28.44,19S96.88,277.62,92.68,279,86,280.64,82.6,277.88s-14-15.72-14.88-18.72.84-6.48,6.24-12.36,19.68-19.68,21.12-23.88S78.94,183.7,74.44,179.61s-17.1,2.11-20.88,0-34.72-29.13-36.08-35.15-4.6-15-1.18-17.72,5.94-5.58,8.1-4.32,37.44,11.16,39.78,11.16,13.5-4.68,13.5-7.2,3.78-22.5,6.84-25.74,13.32-8.46,13.32-11.52,0-16.2-4.14-16.92-23.58,3.6-26.28,1.08S50.92,54.2,51.64,50.12s9.6-11.76,12.72-13S80.92,42,84.28,42s17.88-7.2,22.2-6.66,10.08,4.5,12.24,9.36,11,28.26,10.62,31-1.26,7.74,5,11.34,15.84-8.46,16.74-12.42,7.6-35.26,9.72-39.27,15.76-5.59,18.72-7.71,3.51-4.5,3.33-7.65,0-11.52,7.38-11.61,14.29,7.93,19.76,9.28,11.25,7.31,7.49,13.08S196.23,43.28,193.36,49,191.45,88.32,192.34,90.56Z" fill="#0d1214"/><path d="M194.69,89.63A12.38,12.38,0,0,0,197,92.89,28.22,28.22,0,0,0,200.43,96a15.39,15.39,0,0,0,1.75,1.18l.34.17.06,0c.06,0,0,0-.17,0s-.38.05-.07,0a4.43,4.43,0,0,1,.45,0h.67c1.72,0,3.37.06,5,.1q10,.28,20,.78c3.34.17,6.68.36,10,.6,1.67.13,3.35.26,5.05.45.86.1,1.7.19,2.64.38l.36.06.43.12a2.06,2.06,0,0,1,.56.19,2.85,2.85,0,0,1,.79.49,3.82,3.82,0,0,1,.41.44l.24.29c.16.2.28.37.41.55,2,2.81,3.8,5.59,5.64,8.41s3.6,5.63,5.37,8.46c3.53,5.67,7,11.36,10.37,17.17q1.25,2.17,2.45,4.42c.39.76.78,1.53,1.15,2.37l.27.71a6.19,6.19,0,0,1,.13.62,2.11,2.11,0,0,1,0,.38l.06,1.27a30,30,0,0,1,.06,5.29,12.5,12.5,0,0,1-.58,2.83,7,7,0,0,1-1.73,2.86c-.78.73-1.4,1.21-2.09,1.76l-2,1.55c-1.34,1-2.7,2-4.06,3-2.73,2-5.49,3.9-8.28,5.8s-5.63,3.74-8.6,5.49c-1.5.88-3,1.73-4.72,2.53-.43.2-.89.39-1.38.58l-.78.27-.95.25a8.58,8.58,0,0,1-1.35.13,7.82,7.82,0,0,1-1.2-.1,16.5,16.5,0,0,1-1.68-.34c-1.92-.52-3.55-1.11-5.18-1.72s-3.21-1.25-4.77-1.91l-9.21-4c-3-1.32-6.06-2.67-8.94-3.78-.71-.26-1.42-.53-2-.71a7.45,7.45,0,0,0-.77-.2h.15a4.94,4.94,0,0,0,.81-.09c.47-.13.51-.17.47-.14h0s0,0-.07,0a1,1,0,0,0-.17.13,1.14,1.14,0,0,0-.23.19,9.29,9.29,0,0,0-1.14,1.18,14.94,14.94,0,0,0-1.1,1.51,12.61,12.61,0,0,0-.8,1.42,1.47,1.47,0,0,1-.07.17l0-.08a2.11,2.11,0,0,1,0-.27c0-.09,0-.52,0-.33v.3l0,.62,0,2.45c0,3.28,0,6.56,0,9.84l-.11,4.93-.08,2.47-.05,1.24,0,.6a1.27,1.27,0,0,0-.09-.47,2.8,2.8,0,0,0-.12-.29.38.38,0,0,0-.09-.13c0-.05,0,0,0,0s0,0,0,.13a3.46,3.46,0,0,0,.4.5,10.58,10.58,0,0,0,1.35,1.16,12.29,12.29,0,0,0,1.57.94,10.59,10.59,0,0,0,1.17.47l0,0s0,0,0,0a.2.2,0,0,0-.09,0c-.06,0,0,0,.09,0,.27-.07.58-.16.91-.28.64-.24,1.35-.54,2.07-.88l2.3-1.09a21.11,21.11,0,0,1,2.76-1.1l.45-.12a4.16,4.16,0,0,1,.78-.14,3.41,3.41,0,0,1,1,0,3.94,3.94,0,0,1,.64.16,8.48,8.48,0,0,1,1.61.75,23.21,23.21,0,0,1,2.34,1.57c1.43,1.07,2.74,2.2,4,3.37s2.52,2.37,3.7,3.67c.59.65,1.17,1.31,1.73,2a10.53,10.53,0,0,1,1.59,2.61,4.06,4.06,0,0,1,.27,1,7,7,0,0,1,0,.87c0,.51-.06,1-.12,1.43-.12.9-.28,1.76-.44,2.61-.35,1.7-.74,3.37-1.2,5a36.46,36.46,0,0,1-3.94,9.83,10.35,10.35,0,0,1-2,2.36,6.4,6.4,0,0,1-1.65,1,4.84,4.84,0,0,1-.54.17,4.73,4.73,0,0,1-.48.11l-.7.12c-1.76.24-3.42.38-5.1.53-6.71.55-13.39.9-20.11,1.08-3.36.09-6.72.12-10.13,0-1.7-.05-3.41-.12-5.18-.29a27.6,27.6,0,0,1-2.77-.4l-.76-.18-.87-.28a5.14,5.14,0,0,1-2.07-1.46,13,13,0,0,1-1.74-2.69c-.43-.84-.8-1.65-1.14-2.46-.69-1.62-1.29-3.22-1.86-4.83-1.14-3.21-2.15-6.42-3.13-9.64s-1.9-6.43-2.78-9.66l-1.33-4.82-.66-2.36c-.11-.37-.24-.81-.31-1,0,0-.12-.31-.19-.49l-.23-.57a14.92,14.92,0,0,0-1.91-3.61,4.05,4.05,0,0,0-1-.9,1.34,1.34,0,0,0-.79-.2h-.11s-.18,0-.27,0l-.63.05-1.24.09-2.46.21q-2.46.21-4.89.48c-1.61.19-3.22.41-4.78.66a29.74,29.74,0,0,0-4.36,1,6.4,6.4,0,0,0-2.83,1.91,7,7,0,0,0-1,1.42,6.78,6.78,0,0,0-.28.7c-.08.21-.07.39-.09.31s0,0,0-.17-.16-.38,0-.1l.17.48.11.35.36,1.27.65,2.46,1.22,4.89c.78,3.28,1.54,6.51,2.17,9.91.09.42.15.88.22,1.33a13.16,13.16,0,0,1,.13,1.47l.11,2.48.2,5c.12,3.34.21,6.69.23,10.06a84.28,84.28,0,0,1-.43,10.22,12.58,12.58,0,0,1-.64,2.86,3.87,3.87,0,0,1-.53.95l-.59.6a4.43,4.43,0,0,1-.56.49l-.54.42c-1.41,1.06-2.82,2-4.24,2.89-5.68,3.59-11.43,7-17.14,10.38-1.43.85-2.85,1.71-4.24,2.59-.7.46-1.38.9-2,1.37a20.42,20.42,0,0,0-1.75,1.64c-2.28,2.36-4.46,4.91-6.75,7.34-1.14,1.23-2.3,2.44-3.55,3.59a24,24,0,0,1-2,1.66,12.06,12.06,0,0,1-1.07.76l-.56.36-.64.3a23.7,23.7,0,0,1-5,1.5,7.87,7.87,0,0,1-2.89-.13,9,9,0,0,1-2.66-1.14A16.08,16.08,0,0,1,80.38,278c-.67-.58-1.29-1.16-1.91-1.76-1.24-1.17-2.41-2.38-3.59-3.6-2.35-2.45-4.65-4.91-6.85-7.59-.56-.67-1.11-1.36-1.65-2.11-.27-.38-.54-.73-.82-1.2-.14-.24-.27-.41-.42-.7s-.3-.67-.44-1a9,9,0,0,1-.4-3.87,12.1,12.1,0,0,1,.88-3.34,27.33,27.33,0,0,1,2.83-5.1c1-1.52,2.14-2.9,3.23-4.25,2.19-2.68,4.38-5.17,6.58-7.67l6.53-7.39c1.05-1.22,2.12-2.43,3.09-3.64a33.59,33.59,0,0,0,2.48-3.32c.21-.31.1-.24.16-.27s0,0-.1.31a2.23,2.23,0,0,0-.09.63c0,.12,0,.11,0,.17a4.37,4.37,0,0,0-.11-.59l-.09-.42-.13-.49c-.37-1.31-.9-2.79-1.45-4.25-1.13-2.95-2.39-5.95-3.72-8.92s-2.69-6-4.12-8.9-2.88-5.87-4.38-8.74c-.75-1.43-1.51-2.84-2.3-4.19-.39-.67-.79-1.32-1.18-1.91s-.81-1.14-.82-1.17-.12-.17-.49-.28a6.3,6.3,0,0,0-1.54-.24,24.66,24.66,0,0,0-4.31.25l-5,.69c-.87.12-1.77.23-2.75.28a13.32,13.32,0,0,1-3.37-.15,7.23,7.23,0,0,1-2.27-.82c-.58-.37-.94-.66-1.32-.95-.71-.57-1.38-1.13-2-1.7-1.29-1.12-2.54-2.26-3.78-3.41q-3.7-3.43-7.31-6.94C32.66,164.79,28,160,23.39,155.05c-1.12-1.26-2.26-2.51-3.34-3.83A34.67,34.67,0,0,1,17,147a9.44,9.44,0,0,1-.68-1.31c-.1-.28-.2-.56-.28-.85l-.13-.6c-.17-.79-.37-1.59-.57-2.4-.39-1.62-.78-3.25-1.14-4.92a30.76,30.76,0,0,1-.73-5.19,12.76,12.76,0,0,1,0-1.38l.06-.71.14-.73a3.22,3.22,0,0,1,.2-.75,6.61,6.61,0,0,1,.28-.74,5.08,5.08,0,0,1,1-1.4l.31-.31.24-.2.47-.38,1-.79c.63-.54,1.27-1.09,2-1.64a12.63,12.63,0,0,1,2.39-1.54,4.57,4.57,0,0,1,1.72-.44,3.86,3.86,0,0,1,2,.48c.46.18,1.33.47,2.08.71l2.37.69c1.6.45,3.2.9,4.81,1.3q4.83,1.25,9.69,2.36c3.25.73,6.5,1.45,9.76,2.1s6.57,1.35,9.65,1.81a4.75,4.75,0,0,0,.51.06h.15c-.17,0,.06-.05.35-.15.58-.19,1.29-.47,2-.77a44.69,44.69,0,0,0,4.09-2.06c.65-.37,1.29-.76,1.87-1.15A10,10,0,0,0,73.85,125c.13-.13.25-.31.09-.14a1.11,1.11,0,0,0-.16.24,2.34,2.34,0,0,0-.23.59c-.1.21-.09,1-.09.6v-.51c0-1.24.16-2,.26-2.9.42-3.48,1-6.81,1.69-10.19a77,77,0,0,1,2.79-10.25,24,24,0,0,1,1.3-2.91,10.28,10.28,0,0,1,2.62-3.23A45.11,45.11,0,0,1,86.58,93l4-2.71c.63-.43,1.23-.87,1.76-1.28a13.55,13.55,0,0,0,1.18-1c.08-.06.06-.1-.06.3a2.64,2.64,0,0,0-.09.43c0,.12,0,.6,0,.35l0-.61L93.51,86c0-1.58,0-3.15,0-4.67a27.89,27.89,0,0,0-.44-4.31,10.2,10.2,0,0,0-.43-1.53c-.06-.15-.11-.25,0-.23a1.26,1.26,0,0,0,.55.14,2.74,2.74,0,0,0-.69-.13c-.32,0-.69,0-1.07,0-.75,0-1.56,0-2.36,0-1.62,0-3.28.13-5,.21-3.34.14-6.7.42-10.15.41a24.6,24.6,0,0,1-5.41-.44,5.19,5.19,0,0,1-1.68-.68c-.17-.12-.35-.26-.48-.37l-.24-.26-.45-.5c-.57-.65-1.11-1.31-1.64-2-2.12-2.63-4.17-5.28-6.21-8a77.54,77.54,0,0,1-5.76-8.38,19.07,19.07,0,0,1-1.17-2.4,8,8,0,0,1-.46-1.38,4.7,4.7,0,0,1-.13-.82,3.47,3.47,0,0,1,.06-1,6.68,6.68,0,0,1,.51-1.47,9.18,9.18,0,0,1,.68-1.24,19.34,19.34,0,0,1,1.58-2.16,43.21,43.21,0,0,1,7.56-7,21.46,21.46,0,0,1,2.24-1.43,5.61,5.61,0,0,1,.65-.32l.34-.15.46-.11a5.46,5.46,0,0,1,1.62-.1,26.11,26.11,0,0,1,5.14,1.1c3.24,1,6.38,2.12,9.51,3.11.78.25,1.57.48,2.33.66a4.43,4.43,0,0,0,2,.12,36.57,36.57,0,0,0,4.61-1.41C92.72,38.26,95.83,37,99,36A40.28,40.28,0,0,1,104,34.56c.41-.1.89-.13,1.33-.2a8.91,8.91,0,0,1,1.46,0,13.35,13.35,0,0,1,2.61.68,20.15,20.15,0,0,1,8.4,6.15,15.25,15.25,0,0,1,1.47,2.22c.43.82.75,1.59,1.08,2.36l1.91,4.65c2.49,6.21,4.81,12.44,7.2,18.75a49.08,49.08,0,0,1,1.64,5,3.7,3.7,0,0,1,.16.81l0,.54a4,4,0,0,1,0,.47c0,.42-.05.81-.06,1.19a10.87,10.87,0,0,0,.13,2.1A6,6,0,0,0,133,82.43a8.88,8.88,0,0,0,1.46,1.14,6.27,6.27,0,0,0,.85.48,3.73,3.73,0,0,0,.76.34,2.3,2.3,0,0,0,1,0,5.11,5.11,0,0,0,1.32-.48,14.26,14.26,0,0,0,3.09-2.31,27.92,27.92,0,0,0,2.89-3.21,26.07,26.07,0,0,0,2.36-3.52,7,7,0,0,0,.55-1.27l.55-2.42,1.12-4.87c.73-3.26,1.53-6.51,2.36-9.75s1.66-6.48,2.58-9.72,1.84-6.45,3-9.74l.48-1.27c.09-.23.14-.41.26-.66l.35-.77a6.6,6.6,0,0,1,1.18-1.76,8.84,8.84,0,0,1,1.45-1.2,20.23,20.23,0,0,1,5.33-2.25c3.38-1,6.71-1.58,9.82-2.36a19.91,19.91,0,0,0,2.12-.65l.4-.17.13-.06.21-.14a8.34,8.34,0,0,0,.8-.6A5,5,0,0,0,181.16,22a14.29,14.29,0,0,0,.12-2.24,21.7,21.7,0,0,1,.13-2.67,15.41,15.41,0,0,1,1.41-5.3,7.76,7.76,0,0,1,4.17-4,10.13,10.13,0,0,1,5.54-.3,28.65,28.65,0,0,1,9.38,4.32c1.42.9,2.81,1.82,4.21,2.65a16.31,16.31,0,0,0,4.2,1.91,14.62,14.62,0,0,1,5,2.27,12.78,12.78,0,0,1,3.77,4.09,8.53,8.53,0,0,1,.95,5.81,9,9,0,0,1-.44,1.45,12.72,12.72,0,0,1-.67,1.33,12.19,12.19,0,0,1-1.82,2.22A31.23,31.23,0,0,1,213,36.88c-1.4,1-2.82,1.91-4.24,2.81-2.82,1.81-5.67,3.52-8.32,5.38-.63.48-1.32.93-1.91,1.43l-.92.73-.82.77a8.45,8.45,0,0,0-.72.77l-.34.39c-.1.13-.15.25-.23.37a2.27,2.27,0,0,0-.38.78l-.13.43a2,2,0,0,0-.13.48,34.51,34.51,0,0,0-.62,4.63c-.14,1.61-.21,3.25-.27,4.88-.1,3.29-.14,6.58-.1,9.89s.13,6.61.25,9.9l.23,4.93c0,.82.11,1.61.17,2.42,0,.41.08.75.12,1.13l0,.28a.5.5,0,0,0,0,.18A.48.48,0,0,1,194.69,89.63ZM190,91.5c-.1-.35-.19-.7-.26-1.06a3,3,0,0,1-.08-.44l0-.34c-.05-.45-.12-.93-.15-1.35-.06-.85-.14-1.72-.18-2.56-.11-1.7-.18-3.38-.22-5.06C189,77.32,189,74,189,70.6s.17-6.72.38-10.1c.13-1.69.26-3.38.47-5.09a39.54,39.54,0,0,1,.9-5.23,11.63,11.63,0,0,1,.5-1.47,5.17,5.17,0,0,1,.77-1.42c.15-.22.3-.47.46-.67l.5-.54a9.69,9.69,0,0,1,1-1l1-.9,1.06-.8c.7-.55,1.43-1,2.14-1.49,2.88-1.87,5.8-3.49,8.65-5.17,1.43-.84,2.84-1.69,4.19-2.58a27.07,27.07,0,0,0,3.77-2.83,8.9,8.9,0,0,0,1.41-1.58,9.68,9.68,0,0,0,.49-.88,6.39,6.39,0,0,0,.32-.93,5.58,5.58,0,0,0-.52-3.85,11.39,11.39,0,0,0-6.85-5.3,18.25,18.25,0,0,1-4.81-2.35c-1.44-.92-2.79-1.9-4.16-2.82A45.16,45.16,0,0,0,196.6,11a14.61,14.61,0,0,0-4.43-1.54,7.38,7.38,0,0,0-4.28.44,5.27,5.27,0,0,0-2.67,3,12.64,12.64,0,0,0-.82,4.39,20,20,0,0,0,.09,2.32,15.44,15.44,0,0,1,.07,2.75,9.22,9.22,0,0,1-.71,3,9,9,0,0,1-1.76,2.6,10.36,10.36,0,0,1-1.1,1l-.29.24-.4.27a6.56,6.56,0,0,1-.71.4A24.13,24.13,0,0,1,177,31c-3.27,1.16-6.45,2-9.37,3.22a15.37,15.37,0,0,0-3.71,2,2.83,2.83,0,0,0-.43.43c-.08.15,0,0-.12.36l-.13.38c0,.13-.1.35-.15.52l-.31,1.1c-.77,3.09-1.47,6.34-2.15,9.57l-2,9.74c-.67,3.25-1.33,6.51-2,9.75l-1,4.89L155,75.35a12.5,12.5,0,0,1-1.36,3.32,27.15,27.15,0,0,1-3.34,4.68,28.23,28.23,0,0,1-4.12,3.89,18.61,18.61,0,0,1-5.35,3,11.37,11.37,0,0,1-3.52.62,8.23,8.23,0,0,1-3.85-.94,11,11,0,0,1-1.4-.91c-.4-.28-.79-.63-1.18-1a13.57,13.57,0,0,1-2.09-2.36,11.44,11.44,0,0,1-1.42-2.92,11.8,11.8,0,0,1-.5-3.11,15.82,15.82,0,0,1,.25-2.9c.07-.45.17-.88.25-1.28a.29.29,0,0,0,0-.16.28.28,0,0,1,0-.09s0-.25,0-.42a35,35,0,0,0-1-4.67c-1.64-6.4-4-12.67-6.22-18.9-.58-1.56-1.16-3.12-1.79-4.65a14.87,14.87,0,0,0-2.22-4.15,17.51,17.51,0,0,0-7.5-5.58,11.06,11.06,0,0,0-2.21-.57,6,6,0,0,0-1,0c-.38.06-.74.07-1.13.17a34.26,34.26,0,0,0-4.67,1.36c-3.11,1.08-6.2,2.33-9.33,3.52a38.67,38.67,0,0,1-4.91,1.59,6.62,6.62,0,0,1-2.92-.09c-.86-.19-1.68-.42-2.5-.65-3.23-1-6.38-2.06-9.53-2.94a24,24,0,0,0-4.63-1,3.49,3.49,0,0,0-.86.05l-.16,0-.23.1c-.15.08-.3.14-.46.24a18.62,18.62,0,0,0-2,1.28,40.76,40.76,0,0,0-7,6.62A10.68,10.68,0,0,0,53,50.29,3.58,3.58,0,0,0,53.35,52a18.3,18.3,0,0,0,1,2.11,73.1,73.1,0,0,0,5.39,8.19,92.49,92.49,0,0,0,6.38,7.57c.57.59,1.15,1.18,1.72,1.74.77.72.54.56,1.32.71a20.32,20.32,0,0,0,4.55-.16c3.2-.42,6.46-1,9.73-1.69,1.64-.32,3.28-.66,5-1,.85-.15,1.7-.29,2.61-.4.46-.06.92-.11,1.43-.14a9.24,9.24,0,0,1,1.8,0A5.82,5.82,0,0,1,97,70.21a7.77,7.77,0,0,1,1.53,1.7,13.69,13.69,0,0,1,1.5,3.07,34,34,0,0,1,1.39,5.51c.3,1.78.5,3.54.65,5.29.06.87.12,1.75.17,2.61l0,.64a7.93,7.93,0,0,1-.06,1,6.43,6.43,0,0,1-.23,1,8.64,8.64,0,0,1-1.29,2.47A17.2,17.2,0,0,1,98.36,96c-.74.67-1.46,1.25-2.17,1.8-1.41,1.11-2.81,2.08-4.14,3s-2.65,1.89-3.56,2.69a2.36,2.36,0,0,0-.42.43s.06-.14-.09.19a15.88,15.88,0,0,0-.75,1.64c-1,2.72-1.9,5.86-2.7,9s-1.56,6.32-2.2,9.42l-.39,2,0,.12a8.87,8.87,0,0,1-.16,1.21,5.81,5.81,0,0,1-.44,1.18,7.32,7.32,0,0,1-.47.78,8.37,8.37,0,0,1-1.63,1.67,17.13,17.13,0,0,1-2.68,1.73c-.85.46-1.68.86-2.52,1.23A42,42,0,0,1,68.92,136a26.14,26.14,0,0,1-2.81.71,8.6,8.6,0,0,1-.86.14l-.57.06a3.72,3.72,0,0,1-.68,0c-.36-.05-.73-.1-1.08-.17s-.48-.12-.72-.18c-3.43-1-6.53-2-9.74-3.06l-9.52-3.2-9.51-3.18-4.76-1.59-2.39-.84a21.64,21.64,0,0,1-2.6-1,.81.81,0,0,0-.42-.12,1.84,1.84,0,0,0-.69.16,8.75,8.75,0,0,0-1.81,1.14c-.62.49-1.25,1-1.89,1.55l-1,.81-.5.4-.24.2L17,128c-.73.61-.9,2.16-.83,3.64a27.12,27.12,0,0,0,.73,4.69c.35,1.59.8,3.18,1.24,4.79.22.8.44,1.62.65,2.44l.15.62a2.26,2.26,0,0,1,.13.33,7.65,7.65,0,0,0,.51.89,31.68,31.68,0,0,0,3,3.69c1.09,1.2,2.23,2.38,3.4,3.54,4.69,4.63,9.73,9,14.82,13.2,2.54,2.12,5.14,4.18,7.75,6.2,1.3,1,2.62,2,3.93,2.94.66.48,1.31.94,1.94,1.35a7.56,7.56,0,0,0,.75.45c0-.07-.09-.06.1-.06a7.78,7.78,0,0,0,1.62-.13c.67-.1,1.42-.25,2.19-.43L63.94,175a31.77,31.77,0,0,1,5.62-.81,14.37,14.37,0,0,1,3.42.26,9.49,9.49,0,0,1,4,1.81,16.36,16.36,0,0,1,2.44,2.61c.58.76,1.11,1.49,1.62,2.23,1,1.46,1.94,2.91,2.85,4.37,1.81,2.92,3.48,5.87,5.12,8.85a185.43,185.43,0,0,1,8.87,18.5c.64,1.64,1.26,3.3,1.81,5.18l.2.72.19.8a16.5,16.5,0,0,1,.32,1.86c0,.48,0,.89,0,1.42a9.17,9.17,0,0,1-.2,1.26,3.82,3.82,0,0,1-.27.89,12.49,12.49,0,0,1-1,2,34.12,34.12,0,0,1-3.51,4.67c-1.17,1.36-2.32,2.62-3.52,3.86-4.71,4.93-9.71,9.47-14.49,13.88-1.17,1.09-2.27,2.2-3.31,3.3a21.35,21.35,0,0,0-2.58,3.27,6.21,6.21,0,0,0-.67,1.4,2.6,2.6,0,0,0-.14,1.08.33.33,0,0,1,0,.15c0,.09.11.27.16.4s.29.62.45.95c.35.66.74,1.35,1.15,2,1.67,2.74,3.55,5.48,5.5,8.13,1,1.31,2,2.62,3,3.88a25.84,25.84,0,0,0,3.18,3.43A6.43,6.43,0,0,0,88,279a13.1,13.1,0,0,0,4.66-.72,12.78,12.78,0,0,0,3.77-2.83c1.18-1.14,2.29-2.36,3.4-3.6,2.2-2.47,4.29-5.05,6.58-7.54a21.49,21.49,0,0,1,1.86-1.83c.69-.57,1.4-1.06,2.09-1.53,1.38-1,2.77-1.88,4.16-2.81,5.56-3.68,11.19-7.26,16.59-11.08,1.34-.95,2.69-1.93,3.89-2.93l.43-.38a2.44,2.44,0,0,0,.36-.34,3.83,3.83,0,0,1,.28-.29c0-.07,0,0,0-.16a10.42,10.42,0,0,0,.32-2,88.26,88.26,0,0,0-.05-9.75c-.15-3.3-.38-6.61-.64-9.91l-.42-5-.22-2.5a5.69,5.69,0,0,0-.13-1c-.07-.37-.14-.73-.23-1.13-.72-3.12-1.62-6.35-2.52-9.52l-1.4-4.76-.73-2.34-.37-1.12-.08-.24-.05-.11a6.73,6.73,0,0,1-.23-.69,4,4,0,0,1-.14-.79,6.86,6.86,0,0,1,.19-2.16,11,11,0,0,1,.56-1.65,11.94,11.94,0,0,1,1.71-2.78,12.28,12.28,0,0,1,5.24-3.79,34.69,34.69,0,0,1,5.34-1.4c1.72-.32,3.41-.55,5.11-.77s3.37-.39,5.05-.55l2.52-.23,1.25-.11.62-.05a3,3,0,0,1,.35,0h.51a7.47,7.47,0,0,1,4,1.08,10,10,0,0,1,2.7,2.42,20.77,20.77,0,0,1,2.78,5.18l.23.6c.08.21.13.3.26.67.2.59.29.95.42,1.39l.67,2.45,1.29,4.82,2.63,9.59c.9,3.18,1.84,6.34,2.87,9.43.51,1.54,1.05,3.07,1.64,4.53.29.73.6,1.45.92,2.09a8.83,8.83,0,0,0,.89,1.55c.09.13,0,0,0,0s0,0-.05,0l.32.11.45.11a19.93,19.93,0,0,0,2.17.37c1.54.18,3.16.3,4.79.38,3.25.16,6.55.21,9.86.21,6.6,0,13.25-.19,19.84-.56,1.63-.1,3.3-.21,4.84-.39l.54-.06.13,0h.06a1.72,1.72,0,0,0,.48-.28,7.4,7.4,0,0,0,1.27-1.36,32.56,32.56,0,0,0,4-8.43,40.61,40.61,0,0,0,1.22-4.67,19.2,19.2,0,0,0,.33-2.33c.07-.72.07-1.58-.05-1.59a7.69,7.69,0,0,0-1.16-1.54,21.24,21.24,0,0,0-1.64-1.65,47,47,0,0,0-7.68-5.65,17.27,17.27,0,0,0-1.95-1,2.25,2.25,0,0,0-.69-.21s-.07,0,0,0a.91.91,0,0,0,.41,0c.38-.07.21,0,.18,0a.61.61,0,0,0-.14.07,15.84,15.84,0,0,0-1.75,1l-2.07,1.36c-.73.47-1.49,1-2.35,1.43-.43.23-.89.46-1.4.68a2.71,2.71,0,0,1-.51.18c-.23.07-.46.13-.7.18a2.79,2.79,0,0,1-.64.1l-.59,0a11.89,11.89,0,0,1-3.69-.56,19.27,19.27,0,0,1-2.94-1.21,18.77,18.77,0,0,1-2.73-1.72,11.91,11.91,0,0,1-1.38-1.25,7.39,7.39,0,0,1-.72-.85,6,6,0,0,1-.36-.53c-.13-.22-.25-.45-.36-.68a4.26,4.26,0,0,1-.34-.88,8,8,0,0,1-.22-1.08l-.05-.64-.11-1.27-.2-2.52-.35-5.07c-.22-3.37-.38-6.76-.51-10.15l-.08-2.54,0-.63v-.32a7.11,7.11,0,0,1,.07-1,6.78,6.78,0,0,1,.16-.89l.19-.68c.12-.33.25-.69.38-1a18.34,18.34,0,0,1,1.62-2.95,24,24,0,0,1,1.88-2.5,19.67,19.67,0,0,1,2.37-2.38c.22-.19.47-.39.74-.58s.52-.38.86-.58a8.68,8.68,0,0,1,1-.55l.61-.27a5.59,5.59,0,0,1,1.06-.32,6.57,6.57,0,0,1,1.44-.15l.84.06a4.53,4.53,0,0,1,.61.1l.54.11c.61.15,1.17.31,1.64.47,1,.33,1.82.67,2.66,1,3.29,1.4,6.29,2.91,9.29,4.43l8.85,4.57,4.36,2.19c1.43.7,2.89,1.37,4.16,1.84.28.1.58.2.74.24s0,0-.06.08l.26,0,.41-.1c.3-.08.63-.17,1-.29,1.37-.46,2.85-1.09,4.31-1.75,2.93-1.33,5.87-2.84,8.78-4.38s5.8-3.16,8.66-4.83q2.13-1.24,4.25-2.54c.69-.43,1.39-.86,2.07-1.31s1.39-.93,1.86-1.3a5.55,5.55,0,0,0,1.52-3.32,25.54,25.54,0,0,0,.32-4.69c0-.41-.05-.81-.08-1.23,0-.07,0-.28,0-.24s0,0,0,0l-.19-.45c-.31-.68-.68-1.39-1.08-2.11-.78-1.42-1.62-2.85-2.47-4.27-3.43-5.67-7-11.27-10.66-16.84q-2.73-4.17-5.51-8.3c-1.86-2.74-3.74-5.54-5.66-8.09-.12-.15-.24-.32-.35-.44l-.16-.19c-.06-.08,0,0,0,0s.15.16.25.17,0,0,0,0l-.18,0-.26,0c-.69-.13-1.51-.21-2.31-.28-1.61-.15-3.26-.26-4.91-.35-3.3-.19-6.62-.32-9.94-.43-6.63-.22-13.29-.37-19.93-.45-1.66,0-3.33,0-4.95,0h-.75c.1,0-.38,0-.69,0a5.64,5.64,0,0,1-2.11-.69,19.78,19.78,0,0,1-2.42-1.55,34.46,34.46,0,0,1-4.06-3.57A16.88,16.88,0,0,1,190,91.5Z" fill="#fff"/></g></svg>